<?xml version="1.0" encoding="utf-8" standalone="no"?>
<!DOCTYPE svg PUBLIC "-//W3C//DTD SVG 1.1//EN"
  "http://www.w3.org/Graphics/SVG/1.1/DTD/svg11.dtd">
<svg xmlns:xlink="http://www.w3.org/1999/xlink" width="609.755938pt" height="404.969687pt" viewBox="0 0 609.755938 404.969687" xmlns="http://www.w3.org/2000/svg" version="1.1">
 <metadata>
  <rdf:RDF xmlns:dc="http://purl.org/dc/elements/1.1/" xmlns:cc="http://creativecommons.org/ns#" xmlns:rdf="http://www.w3.org/1999/02/22-rdf-syntax-ns#">
   <cc:Work>
    <dc:type rdf:resource="http://purl.org/dc/dcmitype/StillImage"/>
    <dc:date>2026-05-24T16:12:00.733756</dc:date>
    <dc:format>image/svg+xml</dc:format>
    <dc:creator>
     <cc:Agent>
      <dc:title>Matplotlib v3.10.9, https://matplotlib.org/</dc:title>
     </cc:Agent>
    </dc:creator>
   </cc:Work>
  </rdf:RDF>
 </metadata>
 <defs>
  <style type="text/css">*{stroke-linejoin: round; stroke-linecap: butt}</style>
 </defs>
 <g id="figure_1">
  <g id="patch_1">
   <path d="M -0 404.969687 
L 609.755938 404.969687 
L 609.755938 0 
L -0 0 
z
" style="fill: #ffffff"/>
  </g>
  <g id="axes_1">
   <g id="patch_2">
    <path d="M 44.555937 365.477812 
L 602.555938 365.477812 
L 602.555938 32.837812 
L 44.555937 32.837812 
z
" style="fill: #ffffff"/>
   </g>
   <g id="matplotlib.axis_1">
    <g id="xtick_1">
     <g id="line2d_1">
      <path d="M 69.919574 365.477812 
L 69.919574 32.837812 
" clip-path="url(#p5ff7dcd0f2)" style="fill: none; stroke: #e0e0e0; stroke-width: 0.8; stroke-linecap: square"/>
     </g>
     <g id="line2d_2">
      <defs>
       <path id="m84748b0697" d="M 0 0 
L 0 3.5 
" style="stroke: #000000; stroke-width: 0.8"/>
      </defs>
      <g>
       <use xlink:href="#m84748b0697" x="69.919574" y="365.477812" style="stroke: #000000; stroke-width: 0.8"/>
      </g>
     </g>
     <g id="text_1">
      <!-- 0 -->
      <g transform="translate(66.738324 380.07625) scale(0.1 -0.1)">
       <defs>
        <path id="DejaVuSans-30" d="M 2034 4250 
Q 1547 4250 1301 3770 
Q 1056 3291 1056 2328 
Q 1056 1369 1301 889 
Q 1547 409 2034 409 
Q 2525 409 2770 889 
Q 3016 1369 3016 2328 
Q 3016 3291 2770 3770 
Q 2525 4250 2034 4250 
z
M 2034 4750 
Q 2819 4750 3233 4129 
Q 3647 3509 3647 2328 
Q 3647 1150 3233 529 
Q 2819 -91 2034 -91 
Q 1250 -91 836 529 
Q 422 1150 422 2328 
Q 422 3509 836 4129 
Q 1250 4750 2034 4750 
z
" transform="scale(0.015625)"/>
       </defs>
       <use xlink:href="#DejaVuSans-30"/>
      </g>
     </g>
    </g>
    <g id="xtick_2">
     <g id="line2d_3">
      <path d="M 133.376281 365.477812 
L 133.376281 32.837812 
" clip-path="url(#p5ff7dcd0f2)" style="fill: none; stroke: #e0e0e0; stroke-width: 0.8; stroke-linecap: square"/>
     </g>
     <g id="line2d_4">
      <g>
       <use xlink:href="#m84748b0697" x="133.376281" y="365.477812" style="stroke: #000000; stroke-width: 0.8"/>
      </g>
     </g>
     <g id="text_2">
      <!-- 25 -->
      <g transform="translate(127.013781 380.07625) scale(0.1 -0.1)">
       <defs>
        <path id="DejaVuSans-32" d="M 1228 531 
L 3431 531 
L 3431 0 
L 469 0 
L 469 531 
Q 828 903 1448 1529 
Q 2069 2156 2228 2338 
Q 2531 2678 2651 2914 
Q 2772 3150 2772 3378 
Q 2772 3750 2511 3984 
Q 2250 4219 1831 4219 
Q 1534 4219 1204 4116 
Q 875 4013 500 3803 
L 500 4441 
Q 881 4594 1212 4672 
Q 1544 4750 1819 4750 
Q 2544 4750 2975 4387 
Q 3406 4025 3406 3419 
Q 3406 3131 3298 2873 
Q 3191 2616 2906 2266 
Q 2828 2175 2409 1742 
Q 1991 1309 1228 531 
z
" transform="scale(0.015625)"/>
        <path id="DejaVuSans-35" d="M 691 4666 
L 3169 4666 
L 3169 4134 
L 1269 4134 
L 1269 2991 
Q 1406 3038 1543 3061 
Q 1681 3084 1819 3084 
Q 2600 3084 3056 2656 
Q 3513 2228 3513 1497 
Q 3513 744 3044 326 
Q 2575 -91 1722 -91 
Q 1428 -91 1123 -41 
Q 819 9 494 109 
L 494 744 
Q 775 591 1075 516 
Q 1375 441 1709 441 
Q 2250 441 2565 725 
Q 2881 1009 2881 1497 
Q 2881 1984 2565 2268 
Q 2250 2553 1709 2553 
Q 1456 2553 1204 2497 
Q 953 2441 691 2322 
L 691 4666 
z
" transform="scale(0.015625)"/>
       </defs>
       <use xlink:href="#DejaVuSans-32"/>
       <use xlink:href="#DejaVuSans-35" transform="translate(63.623047 0)"/>
      </g>
     </g>
    </g>
    <g id="xtick_3">
     <g id="line2d_5">
      <path d="M 196.832988 365.477812 
L 196.832988 32.837812 
" clip-path="url(#p5ff7dcd0f2)" style="fill: none; stroke: #e0e0e0; stroke-width: 0.8; stroke-linecap: square"/>
     </g>
     <g id="line2d_6">
      <g>
       <use xlink:href="#m84748b0697" x="196.832988" y="365.477812" style="stroke: #000000; stroke-width: 0.8"/>
      </g>
     </g>
     <g id="text_3">
      <!-- 50 -->
      <g transform="translate(190.470488 380.07625) scale(0.1 -0.1)">
       <use xlink:href="#DejaVuSans-35"/>
       <use xlink:href="#DejaVuSans-30" transform="translate(63.623047 0)"/>
      </g>
     </g>
    </g>
    <g id="xtick_4">
     <g id="line2d_7">
      <path d="M 260.289696 365.477812 
L 260.289696 32.837812 
" clip-path="url(#p5ff7dcd0f2)" style="fill: none; stroke: #e0e0e0; stroke-width: 0.8; stroke-linecap: square"/>
     </g>
     <g id="line2d_8">
      <g>
       <use xlink:href="#m84748b0697" x="260.289696" y="365.477812" style="stroke: #000000; stroke-width: 0.8"/>
      </g>
     </g>
     <g id="text_4">
      <!-- 75 -->
      <g transform="translate(253.927196 380.07625) scale(0.1 -0.1)">
       <defs>
        <path id="DejaVuSans-37" d="M 525 4666 
L 3525 4666 
L 3525 4397 
L 1831 0 
L 1172 0 
L 2766 4134 
L 525 4134 
L 525 4666 
z
" transform="scale(0.015625)"/>
       </defs>
       <use xlink:href="#DejaVuSans-37"/>
       <use xlink:href="#DejaVuSans-35" transform="translate(63.623047 0)"/>
      </g>
     </g>
    </g>
    <g id="xtick_5">
     <g id="line2d_9">
      <path d="M 323.746403 365.477812 
L 323.746403 32.837812 
" clip-path="url(#p5ff7dcd0f2)" style="fill: none; stroke: #e0e0e0; stroke-width: 0.8; stroke-linecap: square"/>
     </g>
     <g id="line2d_10">
      <g>
       <use xlink:href="#m84748b0697" x="323.746403" y="365.477812" style="stroke: #000000; stroke-width: 0.8"/>
      </g>
     </g>
     <g id="text_5">
      <!-- 100 -->
      <g transform="translate(314.202653 380.07625) scale(0.1 -0.1)">
       <defs>
        <path id="DejaVuSans-31" d="M 794 531 
L 1825 531 
L 1825 4091 
L 703 3866 
L 703 4441 
L 1819 4666 
L 2450 4666 
L 2450 531 
L 3481 531 
L 3481 0 
L 794 0 
L 794 531 
z
" transform="scale(0.015625)"/>
       </defs>
       <use xlink:href="#DejaVuSans-31"/>
       <use xlink:href="#DejaVuSans-30" transform="translate(63.623047 0)"/>
       <use xlink:href="#DejaVuSans-30" transform="translate(127.246094 0)"/>
      </g>
     </g>
    </g>
    <g id="xtick_6">
     <g id="line2d_11">
      <path d="M 387.20311 365.477812 
L 387.20311 32.837812 
" clip-path="url(#p5ff7dcd0f2)" style="fill: none; stroke: #e0e0e0; stroke-width: 0.8; stroke-linecap: square"/>
     </g>
     <g id="line2d_12">
      <g>
       <use xlink:href="#m84748b0697" x="387.20311" y="365.477812" style="stroke: #000000; stroke-width: 0.8"/>
      </g>
     </g>
     <g id="text_6">
      <!-- 125 -->
      <g transform="translate(377.65936 380.07625) scale(0.1 -0.1)">
       <use xlink:href="#DejaVuSans-31"/>
       <use xlink:href="#DejaVuSans-32" transform="translate(63.623047 0)"/>
       <use xlink:href="#DejaVuSans-35" transform="translate(127.246094 0)"/>
      </g>
     </g>
    </g>
    <g id="xtick_7">
     <g id="line2d_13">
      <path d="M 450.659817 365.477812 
L 450.659817 32.837812 
" clip-path="url(#p5ff7dcd0f2)" style="fill: none; stroke: #e0e0e0; stroke-width: 0.8; stroke-linecap: square"/>
     </g>
     <g id="line2d_14">
      <g>
       <use xlink:href="#m84748b0697" x="450.659817" y="365.477812" style="stroke: #000000; stroke-width: 0.8"/>
      </g>
     </g>
     <g id="text_7">
      <!-- 150 -->
      <g transform="translate(441.116067 380.07625) scale(0.1 -0.1)">
       <use xlink:href="#DejaVuSans-31"/>
       <use xlink:href="#DejaVuSans-35" transform="translate(63.623047 0)"/>
       <use xlink:href="#DejaVuSans-30" transform="translate(127.246094 0)"/>
      </g>
     </g>
    </g>
    <g id="xtick_8">
     <g id="line2d_15">
      <path d="M 514.116525 365.477812 
L 514.116525 32.837812 
" clip-path="url(#p5ff7dcd0f2)" style="fill: none; stroke: #e0e0e0; stroke-width: 0.8; stroke-linecap: square"/>
     </g>
     <g id="line2d_16">
      <g>
       <use xlink:href="#m84748b0697" x="514.116525" y="365.477812" style="stroke: #000000; stroke-width: 0.8"/>
      </g>
     </g>
     <g id="text_8">
      <!-- 175 -->
      <g transform="translate(504.572775 380.07625) scale(0.1 -0.1)">
       <use xlink:href="#DejaVuSans-31"/>
       <use xlink:href="#DejaVuSans-37" transform="translate(63.623047 0)"/>
       <use xlink:href="#DejaVuSans-35" transform="translate(127.246094 0)"/>
      </g>
     </g>
    </g>
    <g id="xtick_9">
     <g id="line2d_17">
      <path d="M 577.573232 365.477812 
L 577.573232 32.837812 
" clip-path="url(#p5ff7dcd0f2)" style="fill: none; stroke: #e0e0e0; stroke-width: 0.8; stroke-linecap: square"/>
     </g>
     <g id="line2d_18">
      <g>
       <use xlink:href="#m84748b0697" x="577.573232" y="365.477812" style="stroke: #000000; stroke-width: 0.8"/>
      </g>
     </g>
     <g id="text_9">
      <!-- 200 -->
      <g transform="translate(568.029482 380.07625) scale(0.1 -0.1)">
       <use xlink:href="#DejaVuSans-32"/>
       <use xlink:href="#DejaVuSans-30" transform="translate(63.623047 0)"/>
       <use xlink:href="#DejaVuSans-30" transform="translate(127.246094 0)"/>
      </g>
     </g>
    </g>
    <g id="text_10">
     <!-- Tiempo (μs) -->
     <g transform="translate(287.863438 395.274062) scale(0.12 -0.12)">
      <defs>
       <path id="DejaVuSans-54" d="M -19 4666 
L 3928 4666 
L 3928 4134 
L 2272 4134 
L 2272 0 
L 1638 0 
L 1638 4134 
L -19 4134 
L -19 4666 
z
" transform="scale(0.015625)"/>
       <path id="DejaVuSans-69" d="M 603 3500 
L 1178 3500 
L 1178 0 
L 603 0 
L 603 3500 
z
M 603 4863 
L 1178 4863 
L 1178 4134 
L 603 4134 
L 603 4863 
z
" transform="scale(0.015625)"/>
       <path id="DejaVuSans-65" d="M 3597 1894 
L 3597 1613 
L 953 1613 
Q 991 1019 1311 708 
Q 1631 397 2203 397 
Q 2534 397 2845 478 
Q 3156 559 3463 722 
L 3463 178 
Q 3153 47 2828 -22 
Q 2503 -91 2169 -91 
Q 1331 -91 842 396 
Q 353 884 353 1716 
Q 353 2575 817 3079 
Q 1281 3584 2069 3584 
Q 2775 3584 3186 3129 
Q 3597 2675 3597 1894 
z
M 3022 2063 
Q 3016 2534 2758 2815 
Q 2500 3097 2075 3097 
Q 1594 3097 1305 2825 
Q 1016 2553 972 2059 
L 3022 2063 
z
" transform="scale(0.015625)"/>
       <path id="DejaVuSans-6d" d="M 3328 2828 
Q 3544 3216 3844 3400 
Q 4144 3584 4550 3584 
Q 5097 3584 5394 3201 
Q 5691 2819 5691 2113 
L 5691 0 
L 5113 0 
L 5113 2094 
Q 5113 2597 4934 2840 
Q 4756 3084 4391 3084 
Q 3944 3084 3684 2787 
Q 3425 2491 3425 1978 
L 3425 0 
L 2847 0 
L 2847 2094 
Q 2847 2600 2669 2842 
Q 2491 3084 2119 3084 
Q 1678 3084 1418 2786 
Q 1159 2488 1159 1978 
L 1159 0 
L 581 0 
L 581 3500 
L 1159 3500 
L 1159 2956 
Q 1356 3278 1631 3431 
Q 1906 3584 2284 3584 
Q 2666 3584 2933 3390 
Q 3200 3197 3328 2828 
z
" transform="scale(0.015625)"/>
       <path id="DejaVuSans-70" d="M 1159 525 
L 1159 -1331 
L 581 -1331 
L 581 3500 
L 1159 3500 
L 1159 2969 
Q 1341 3281 1617 3432 
Q 1894 3584 2278 3584 
Q 2916 3584 3314 3078 
Q 3713 2572 3713 1747 
Q 3713 922 3314 415 
Q 2916 -91 2278 -91 
Q 1894 -91 1617 61 
Q 1341 213 1159 525 
z
M 3116 1747 
Q 3116 2381 2855 2742 
Q 2594 3103 2138 3103 
Q 1681 3103 1420 2742 
Q 1159 2381 1159 1747 
Q 1159 1113 1420 752 
Q 1681 391 2138 391 
Q 2594 391 2855 752 
Q 3116 1113 3116 1747 
z
" transform="scale(0.015625)"/>
       <path id="DejaVuSans-6f" d="M 1959 3097 
Q 1497 3097 1228 2736 
Q 959 2375 959 1747 
Q 959 1119 1226 758 
Q 1494 397 1959 397 
Q 2419 397 2687 759 
Q 2956 1122 2956 1747 
Q 2956 2369 2687 2733 
Q 2419 3097 1959 3097 
z
M 1959 3584 
Q 2709 3584 3137 3096 
Q 3566 2609 3566 1747 
Q 3566 888 3137 398 
Q 2709 -91 1959 -91 
Q 1206 -91 779 398 
Q 353 888 353 1747 
Q 353 2609 779 3096 
Q 1206 3584 1959 3584 
z
" transform="scale(0.015625)"/>
       <path id="DejaVuSans-20" transform="scale(0.015625)"/>
       <path id="DejaVuSans-28" d="M 1984 4856 
Q 1566 4138 1362 3434 
Q 1159 2731 1159 2009 
Q 1159 1288 1364 580 
Q 1569 -128 1984 -844 
L 1484 -844 
Q 1016 -109 783 600 
Q 550 1309 550 2009 
Q 550 2706 781 3412 
Q 1013 4119 1484 4856 
L 1984 4856 
z
" transform="scale(0.015625)"/>
       <path id="DejaVuSans-3bc" d="M 544 -1331 
L 544 3500 
L 1119 3500 
L 1119 1325 
Q 1119 872 1334 640 
Q 1550 409 1972 409 
Q 2434 409 2667 671 
Q 2900 934 2900 1459 
L 2900 3500 
L 3475 3500 
L 3475 806 
Q 3475 619 3529 530 
Q 3584 441 3700 441 
Q 3728 441 3778 458 
Q 3828 475 3916 513 
L 3916 50 
Q 3788 -22 3673 -56 
Q 3559 -91 3450 -91 
Q 3234 -91 3106 31 
Q 2978 153 2931 403 
Q 2775 156 2548 32 
Q 2322 -91 2016 -91 
Q 1697 -91 1473 31 
Q 1250 153 1119 397 
L 1119 -1331 
L 544 -1331 
z
" transform="scale(0.015625)"/>
       <path id="DejaVuSans-73" d="M 2834 3397 
L 2834 2853 
Q 2591 2978 2328 3040 
Q 2066 3103 1784 3103 
Q 1356 3103 1142 2972 
Q 928 2841 928 2578 
Q 928 2378 1081 2264 
Q 1234 2150 1697 2047 
L 1894 2003 
Q 2506 1872 2764 1633 
Q 3022 1394 3022 966 
Q 3022 478 2636 193 
Q 2250 -91 1575 -91 
Q 1294 -91 989 -36 
Q 684 19 347 128 
L 347 722 
Q 666 556 975 473 
Q 1284 391 1588 391 
Q 1994 391 2212 530 
Q 2431 669 2431 922 
Q 2431 1156 2273 1281 
Q 2116 1406 1581 1522 
L 1381 1569 
Q 847 1681 609 1914 
Q 372 2147 372 2553 
Q 372 3047 722 3315 
Q 1072 3584 1716 3584 
Q 2034 3584 2315 3537 
Q 2597 3491 2834 3397 
z
" transform="scale(0.015625)"/>
       <path id="DejaVuSans-29" d="M 513 4856 
L 1013 4856 
Q 1481 4119 1714 3412 
Q 1947 2706 1947 2009 
Q 1947 1309 1714 600 
Q 1481 -109 1013 -844 
L 513 -844 
Q 928 -128 1133 580 
Q 1338 1288 1338 2009 
Q 1338 2731 1133 3434 
Q 928 4138 513 4856 
z
" transform="scale(0.015625)"/>
      </defs>
      <use xlink:href="#DejaVuSans-54"/>
      <use xlink:href="#DejaVuSans-69" transform="translate(57.958984 0)"/>
      <use xlink:href="#DejaVuSans-65" transform="translate(85.742188 0)"/>
      <use xlink:href="#DejaVuSans-6d" transform="translate(147.265625 0)"/>
      <use xlink:href="#DejaVuSans-70" transform="translate(244.677734 0)"/>
      <use xlink:href="#DejaVuSans-6f" transform="translate(308.154297 0)"/>
      <use xlink:href="#DejaVuSans-20" transform="translate(369.335938 0)"/>
      <use xlink:href="#DejaVuSans-28" transform="translate(401.123047 0)"/>
      <use xlink:href="#DejaVuSans-3bc" transform="translate(440.136719 0)"/>
      <use xlink:href="#DejaVuSans-73" transform="translate(503.759766 0)"/>
      <use xlink:href="#DejaVuSans-29" transform="translate(555.859375 0)"/>
     </g>
    </g>
   </g>
   <g id="matplotlib.axis_2">
    <g id="ytick_1">
     <g id="line2d_19">
      <path d="M 44.555937 320.338528 
L 602.555938 320.338528 
" clip-path="url(#p5ff7dcd0f2)" style="fill: none; stroke: #e0e0e0; stroke-width: 0.8; stroke-linecap: square"/>
     </g>
     <g id="line2d_20">
      <defs>
       <path id="m6263321f74" d="M 0 0 
L -3.5 0 
" style="stroke: #000000; stroke-width: 0.8"/>
      </defs>
      <g>
       <use xlink:href="#m6263321f74" x="44.555937" y="320.338528" style="stroke: #000000; stroke-width: 0.8"/>
      </g>
     </g>
     <g id="text_11">
      <!-- −2 -->
      <g transform="translate(22.81375 324.137747) scale(0.1 -0.1)">
       <defs>
        <path id="DejaVuSans-2212" d="M 678 2272 
L 4684 2272 
L 4684 1741 
L 678 1741 
L 678 2272 
z
" transform="scale(0.015625)"/>
       </defs>
       <use xlink:href="#DejaVuSans-2212"/>
       <use xlink:href="#DejaVuSans-32" transform="translate(83.789062 0)"/>
      </g>
     </g>
    </g>
    <g id="ytick_2">
     <g id="line2d_21">
      <path d="M 44.555937 259.748174 
L 602.555938 259.748174 
" clip-path="url(#p5ff7dcd0f2)" style="fill: none; stroke: #e0e0e0; stroke-width: 0.8; stroke-linecap: square"/>
     </g>
     <g id="line2d_22">
      <g>
       <use xlink:href="#m6263321f74" x="44.555937" y="259.748174" style="stroke: #000000; stroke-width: 0.8"/>
      </g>
     </g>
     <g id="text_12">
      <!-- −1 -->
      <g transform="translate(22.81375 263.547392) scale(0.1 -0.1)">
       <use xlink:href="#DejaVuSans-2212"/>
       <use xlink:href="#DejaVuSans-31" transform="translate(83.789062 0)"/>
      </g>
     </g>
    </g>
    <g id="ytick_3">
     <g id="line2d_23">
      <path d="M 44.555937 199.157819 
L 602.555938 199.157819 
" clip-path="url(#p5ff7dcd0f2)" style="fill: none; stroke: #e0e0e0; stroke-width: 0.8; stroke-linecap: square"/>
     </g>
     <g id="line2d_24">
      <g>
       <use xlink:href="#m6263321f74" x="44.555937" y="199.157819" style="stroke: #000000; stroke-width: 0.8"/>
      </g>
     </g>
     <g id="text_13">
      <!-- 0 -->
      <g transform="translate(31.193437 202.957037) scale(0.1 -0.1)">
       <use xlink:href="#DejaVuSans-30"/>
      </g>
     </g>
    </g>
    <g id="ytick_4">
     <g id="line2d_25">
      <path d="M 44.555937 138.567464 
L 602.555938 138.567464 
" clip-path="url(#p5ff7dcd0f2)" style="fill: none; stroke: #e0e0e0; stroke-width: 0.8; stroke-linecap: square"/>
     </g>
     <g id="line2d_26">
      <g>
       <use xlink:href="#m6263321f74" x="44.555937" y="138.567464" style="stroke: #000000; stroke-width: 0.8"/>
      </g>
     </g>
     <g id="text_14">
      <!-- 1 -->
      <g transform="translate(31.193437 142.366683) scale(0.1 -0.1)">
       <use xlink:href="#DejaVuSans-31"/>
      </g>
     </g>
    </g>
    <g id="ytick_5">
     <g id="line2d_27">
      <path d="M 44.555937 77.977109 
L 602.555938 77.977109 
" clip-path="url(#p5ff7dcd0f2)" style="fill: none; stroke: #e0e0e0; stroke-width: 0.8; stroke-linecap: square"/>
     </g>
     <g id="line2d_28">
      <g>
       <use xlink:href="#m6263321f74" x="44.555937" y="77.977109" style="stroke: #000000; stroke-width: 0.8"/>
      </g>
     </g>
     <g id="text_15">
      <!-- 2 -->
      <g transform="translate(31.193437 81.776328) scale(0.1 -0.1)">
       <use xlink:href="#DejaVuSans-32"/>
      </g>
     </g>
    </g>
    <g id="text_16">
     <!-- Tensión de Salida (V) -->
     <g transform="translate(16.318125 261.876562) rotate(-90) scale(0.12 -0.12)">
      <defs>
       <path id="DejaVuSans-6e" d="M 3513 2113 
L 3513 0 
L 2938 0 
L 2938 2094 
Q 2938 2591 2744 2837 
Q 2550 3084 2163 3084 
Q 1697 3084 1428 2787 
Q 1159 2491 1159 1978 
L 1159 0 
L 581 0 
L 581 3500 
L 1159 3500 
L 1159 2956 
Q 1366 3272 1645 3428 
Q 1925 3584 2291 3584 
Q 2894 3584 3203 3211 
Q 3513 2838 3513 2113 
z
" transform="scale(0.015625)"/>
       <path id="DejaVuSans-f3" d="M 1959 3097 
Q 1497 3097 1228 2736 
Q 959 2375 959 1747 
Q 959 1119 1226 758 
Q 1494 397 1959 397 
Q 2419 397 2687 759 
Q 2956 1122 2956 1747 
Q 2956 2369 2687 2733 
Q 2419 3097 1959 3097 
z
M 1959 3584 
Q 2709 3584 3137 3096 
Q 3566 2609 3566 1747 
Q 3566 888 3137 398 
Q 2709 -91 1959 -91 
Q 1206 -91 779 398 
Q 353 888 353 1747 
Q 353 2609 779 3096 
Q 1206 3584 1959 3584 
z
M 2394 5119 
L 3016 5119 
L 1998 3944 
L 1519 3944 
L 2394 5119 
z
" transform="scale(0.015625)"/>
       <path id="DejaVuSans-64" d="M 2906 2969 
L 2906 4863 
L 3481 4863 
L 3481 0 
L 2906 0 
L 2906 525 
Q 2725 213 2448 61 
Q 2172 -91 1784 -91 
Q 1150 -91 751 415 
Q 353 922 353 1747 
Q 353 2572 751 3078 
Q 1150 3584 1784 3584 
Q 2172 3584 2448 3432 
Q 2725 3281 2906 2969 
z
M 947 1747 
Q 947 1113 1208 752 
Q 1469 391 1925 391 
Q 2381 391 2643 752 
Q 2906 1113 2906 1747 
Q 2906 2381 2643 2742 
Q 2381 3103 1925 3103 
Q 1469 3103 1208 2742 
Q 947 2381 947 1747 
z
" transform="scale(0.015625)"/>
       <path id="DejaVuSans-53" d="M 3425 4513 
L 3425 3897 
Q 3066 4069 2747 4153 
Q 2428 4238 2131 4238 
Q 1616 4238 1336 4038 
Q 1056 3838 1056 3469 
Q 1056 3159 1242 3001 
Q 1428 2844 1947 2747 
L 2328 2669 
Q 3034 2534 3370 2195 
Q 3706 1856 3706 1288 
Q 3706 609 3251 259 
Q 2797 -91 1919 -91 
Q 1588 -91 1214 -16 
Q 841 59 441 206 
L 441 856 
Q 825 641 1194 531 
Q 1563 422 1919 422 
Q 2459 422 2753 634 
Q 3047 847 3047 1241 
Q 3047 1584 2836 1778 
Q 2625 1972 2144 2069 
L 1759 2144 
Q 1053 2284 737 2584 
Q 422 2884 422 3419 
Q 422 4038 858 4394 
Q 1294 4750 2059 4750 
Q 2388 4750 2728 4690 
Q 3069 4631 3425 4513 
z
" transform="scale(0.015625)"/>
       <path id="DejaVuSans-61" d="M 2194 1759 
Q 1497 1759 1228 1600 
Q 959 1441 959 1056 
Q 959 750 1161 570 
Q 1363 391 1709 391 
Q 2188 391 2477 730 
Q 2766 1069 2766 1631 
L 2766 1759 
L 2194 1759 
z
M 3341 1997 
L 3341 0 
L 2766 0 
L 2766 531 
Q 2569 213 2275 61 
Q 1981 -91 1556 -91 
Q 1019 -91 701 211 
Q 384 513 384 1019 
Q 384 1609 779 1909 
Q 1175 2209 1959 2209 
L 2766 2209 
L 2766 2266 
Q 2766 2663 2505 2880 
Q 2244 3097 1772 3097 
Q 1472 3097 1187 3025 
Q 903 2953 641 2809 
L 641 3341 
Q 956 3463 1253 3523 
Q 1550 3584 1831 3584 
Q 2591 3584 2966 3190 
Q 3341 2797 3341 1997 
z
" transform="scale(0.015625)"/>
       <path id="DejaVuSans-6c" d="M 603 4863 
L 1178 4863 
L 1178 0 
L 603 0 
L 603 4863 
z
" transform="scale(0.015625)"/>
       <path id="DejaVuSans-56" d="M 1831 0 
L 50 4666 
L 709 4666 
L 2188 738 
L 3669 4666 
L 4325 4666 
L 2547 0 
L 1831 0 
z
" transform="scale(0.015625)"/>
      </defs>
      <use xlink:href="#DejaVuSans-54"/>
      <use xlink:href="#DejaVuSans-65" transform="translate(44.083984 0)"/>
      <use xlink:href="#DejaVuSans-6e" transform="translate(105.607422 0)"/>
      <use xlink:href="#DejaVuSans-73" transform="translate(168.986328 0)"/>
      <use xlink:href="#DejaVuSans-69" transform="translate(221.085938 0)"/>
      <use xlink:href="#DejaVuSans-f3" transform="translate(248.869141 0)"/>
      <use xlink:href="#DejaVuSans-6e" transform="translate(310.050781 0)"/>
      <use xlink:href="#DejaVuSans-20" transform="translate(373.429688 0)"/>
      <use xlink:href="#DejaVuSans-64" transform="translate(405.216797 0)"/>
      <use xlink:href="#DejaVuSans-65" transform="translate(468.693359 0)"/>
      <use xlink:href="#DejaVuSans-20" transform="translate(530.216797 0)"/>
      <use xlink:href="#DejaVuSans-53" transform="translate(562.003906 0)"/>
      <use xlink:href="#DejaVuSans-61" transform="translate(625.480469 0)"/>
      <use xlink:href="#DejaVuSans-6c" transform="translate(686.759766 0)"/>
      <use xlink:href="#DejaVuSans-69" transform="translate(714.542969 0)"/>
      <use xlink:href="#DejaVuSans-64" transform="translate(742.326172 0)"/>
      <use xlink:href="#DejaVuSans-61" transform="translate(805.802734 0)"/>
      <use xlink:href="#DejaVuSans-20" transform="translate(867.082031 0)"/>
      <use xlink:href="#DejaVuSans-28" transform="translate(898.869141 0)"/>
      <use xlink:href="#DejaVuSans-56" transform="translate(937.882812 0)"/>
      <use xlink:href="#DejaVuSans-29" transform="translate(1006.291016 0)"/>
     </g>
    </g>
   </g>
   <g id="line2d_29">
    <path d="M 69.919574 199.157819 
L 70.554458 199.05051 
L 71.189343 198.390403 
L 71.824227 197.195918 
L 73.093996 193.763754 
L 74.99865 187.399417 
L 79.442842 171.223129 
L 85.791687 148.328998 
L 90.870763 130.874164 
L 95.314954 116.476199 
L 99.124262 104.924352 
L 102.298684 95.933176 
L 105.473107 87.579182 
L 108.647529 79.913677 
L 111.187067 74.309056 
L 113.726605 69.197649 
L 116.266143 64.599646 
L 118.805681 60.533213 
L 120.710335 57.841968 
L 122.614989 55.464808 
L 124.519642 53.406963 
L 126.424296 51.673104 
L 128.328949 50.266944 
L 130.233603 49.191793 
L 132.138256 48.449809 
L 134.04291 48.04292 
L 135.312679 47.958167 
L 136.582448 48.02278 
L 138.487101 48.399467 
L 140.391755 49.111434 
L 142.296409 50.15663 
L 144.201062 51.533243 
L 146.105716 53.237664 
L 148.010369 55.266691 
L 149.915023 57.615194 
L 151.819676 60.278606 
L 153.72433 63.250326 
L 156.263868 67.681472 
L 158.803406 72.632016 
L 161.342944 78.082401 
L 163.882482 84.011096 
L 167.056905 92.058933 
L 170.231327 100.767339 
L 173.40575 110.08335 
L 177.215057 121.982661 
L 181.659248 136.723914 
L 186.738325 154.484722 
L 193.08717 177.643472 
L 212.133705 247.967189 
L 217.212781 265.526729 
L 221.656973 280.040639 
L 225.46628 291.709378 
L 228.640703 300.809789 
L 231.815125 309.281995 
L 234.989548 317.075535 
L 237.529086 322.78818 
L 240.068624 328.012428 
L 242.608162 332.727639 
L 245.1477 336.915187 
L 247.052353 339.698838 
L 248.957007 342.171506 
L 250.861661 344.324952 
L 252.766314 346.157148 
L 254.670968 347.661267 
L 256.575621 348.836709 
L 258.480275 349.678139 
L 260.384928 350.186383 
L 262.289582 350.357647 
L 263.559351 350.285571 
L 264.82912 350.0642 
L 266.733773 349.453358 
L 268.638427 348.507244 
L 270.543081 347.230419 
L 272.447734 345.623326 
L 274.352388 343.691862 
L 276.257041 341.438066 
L 278.161695 338.869127 
L 280.066348 335.98865 
L 282.605886 331.676858 
L 285.145424 326.841548 
L 287.684962 321.501824 
L 290.2245 315.678778 
L 293.398923 307.755858 
L 296.573346 299.16205 
L 299.747768 289.951662 
L 303.557075 278.164448 
L 307.366382 265.675266 
L 311.810574 250.365566 
L 317.524535 229.799043 
L 325.778033 199.121678 
L 335.936186 161.502527 
L 341.650146 141.235247 
L 346.094338 126.251761 
L 349.903645 114.10368 
L 353.712952 102.711297 
L 356.887375 93.868097 
L 360.061797 85.674819 
L 363.23622 78.181787 
L 365.775758 72.722892 
L 368.315296 67.763476 
L 370.854834 63.323132 
L 373.394372 59.419399 
L 375.299025 56.853098 
L 377.203679 54.603089 
L 379.108333 52.674301 
L 381.012986 51.071137 
L 382.91764 49.796999 
L 384.822293 48.854925 
L 386.726947 48.246758 
L 388.6316 47.974146 
L 389.901369 47.979012 
L 391.171138 48.133222 
L 393.075792 48.64407 
L 394.980445 49.489662 
L 396.885099 50.667635 
L 398.789752 52.175896 
L 400.694406 54.010529 
L 402.59906 56.168059 
L 404.503713 58.643054 
L 406.408367 61.43068 
L 408.947905 65.622268 
L 411.487443 70.341388 
L 414.026981 75.569397 
L 416.566519 81.285643 
L 419.740941 89.082754 
L 422.915364 97.559592 
L 426.089787 106.663055 
L 429.899094 118.335752 
L 433.708401 130.72655 
L 438.152592 145.943033 
L 443.231669 164.109817 
L 450.850283 192.30524 
L 462.913088 237.043312 
L 468.627049 257.299707 
L 473.071241 272.272192 
L 476.880548 284.40859 
L 480.689855 295.787545 
L 483.864277 304.617788 
L 487.0387 312.798094 
L 490.213123 320.276069 
L 492.752661 325.72273 
L 495.292199 330.669399 
L 497.831737 335.096534 
L 500.371275 338.986647 
L 502.275928 341.543174 
L 504.180582 343.781876 
L 506.085235 345.700534 
L 507.989889 347.29213 
L 509.894543 348.555872 
L 511.799196 349.486222 
L 513.70385 350.083817 
L 515.608503 350.344655 
L 516.878272 350.332324 
L 518.148041 350.170653 
L 520.052695 349.649149 
L 521.957348 348.791931 
L 523.862002 347.603376 
L 525.766655 346.083716 
L 527.671309 344.238672 
L 529.575963 342.07007 
L 531.480616 339.584931 
L 533.38527 336.786653 
L 535.924808 332.581675 
L 538.464346 327.849606 
L 541.003884 322.60914 
L 543.543422 316.880978 
L 546.717844 309.069949 
L 549.892267 300.579909 
L 553.06669 291.46455 
L 556.875997 279.778992 
L 560.685304 267.377121 
L 565.129495 252.150119 
L 570.843456 231.658123 
L 577.192301 208.146071 
L 577.192301 208.146071 
" clip-path="url(#p5ff7dcd0f2)" style="fill: none; stroke: #1f77b4; stroke-width: 2; stroke-linecap: square"/>
   </g>
   <g id="line2d_30">
    <path d="M 69.919574 199.157819 
L 70.554458 199.124946 
L 71.189343 198.846817 
L 71.824227 198.211196 
L 72.459112 197.195879 
L 73.728881 194.313648 
L 74.99865 190.701613 
L 77.538188 182.566456 
L 88.331225 147.135256 
L 92.775416 133.428155 
L 96.584723 122.305345 
L 100.394031 111.865356 
L 103.568453 103.753679 
L 106.742876 96.23161 
L 109.917298 89.343887 
L 112.456836 84.320108 
L 114.996374 79.749993 
L 117.535912 75.651598 
L 120.075451 72.041112 
L 121.980104 69.662561 
L 123.884758 67.570874 
L 125.789411 65.772565 
L 127.694065 64.269776 
L 129.598718 63.067687 
L 131.503372 62.167151 
L 133.408025 61.571961 
L 135.312679 61.28168 
L 137.217332 61.298678 
L 139.121986 61.621231 
L 141.02664 62.250266 
L 142.931293 63.182787 
L 144.835947 64.418271 
L 146.7406 65.952475 
L 148.645254 67.783432 
L 150.549907 69.905687 
L 152.454561 72.315849 
L 154.994099 75.966467 
L 157.533637 80.103754 
L 160.073175 84.711363 
L 162.612713 89.771094 
L 165.152251 95.262958 
L 168.326674 102.702091 
L 171.501096 110.736853 
L 174.675519 119.317005 
L 178.484826 130.258902 
L 182.929017 143.791085 
L 188.008094 160.066063 
L 194.356939 181.246507 
L 212.76859 243.259218 
L 217.847666 259.295856 
L 222.291857 272.557466 
L 226.101164 283.224046 
L 229.275587 291.546075 
L 232.45001 299.298037 
L 235.624432 306.431847 
L 238.16397 311.66426 
L 240.703508 316.452218 
L 243.243046 320.776806 
L 245.782584 324.620941 
L 248.322123 327.969436 
L 250.226776 330.147691 
L 252.13143 332.034465 
L 254.036083 333.62631 
L 255.940737 334.918895 
L 257.84539 335.910187 
L 259.750044 336.597096 
L 261.654697 336.979028 
L 263.559351 337.054156 
L 265.464004 336.823335 
L 267.368658 336.286016 
L 269.273311 335.44449 
L 271.177965 334.299497 
L 273.082619 332.854744 
L 274.987272 331.112251 
L 276.891926 329.077106 
L 278.796579 326.752595 
L 280.701233 324.145138 
L 283.240771 320.237094 
L 285.780309 315.850725 
L 288.319847 311.003361 
L 290.859385 305.714149 
L 294.033808 298.512974 
L 297.20823 290.699233 
L 300.382653 282.319962 
L 304.19196 271.592493 
L 308.001267 260.221446 
L 312.445458 246.277055 
L 318.159419 227.535494 
L 326.412918 199.564661 
L 336.57107 165.239207 
L 342.285031 146.734488 
L 346.729222 133.047119 
L 350.538529 121.94546 
L 354.347836 111.52983 
L 357.522259 103.441569 
L 360.696682 95.943195 
L 363.871104 89.082673 
L 366.410642 84.081129 
L 368.95018 79.534194 
L 371.489718 75.459829 
L 374.029256 71.87413 
L 375.93391 69.513671 
L 377.838564 67.442276 
L 379.743217 65.662685 
L 381.647871 64.180705 
L 383.552524 62.997795 
L 385.457178 62.118397 
L 387.361831 61.542678 
L 389.266485 61.273675 
L 391.171138 61.310264 
L 393.075792 61.654047 
L 394.980445 62.302619 
L 396.885099 63.256133 
L 398.789752 64.510925 
L 400.694406 66.0657 
L 402.59906 67.915563 
L 404.503713 70.057785 
L 406.408367 72.486283 
L 408.947905 76.161614 
L 411.487443 80.322841 
L 414.026981 84.953526 
L 416.566519 90.035374 
L 419.106057 95.54831 
L 422.28048 103.012537 
L 425.454902 111.069777 
L 429.264209 121.451657 
L 433.073516 132.523951 
L 437.517708 146.182751 
L 442.596784 162.56696 
L 449.580514 185.983953 
L 464.817742 237.468584 
L 469.896818 253.778339 
L 474.34101 267.350553 
L 478.150317 278.333637 
L 481.959624 288.61325 
L 485.134046 296.57606 
L 488.308469 303.937782 
L 491.482892 310.652695 
L 494.02243 315.531115 
L 496.561968 319.949803 
L 499.101506 323.891306 
L 501.641044 327.340051 
L 503.545697 329.595143 
L 505.450351 331.55999 
L 507.355005 333.230956 
L 509.259658 334.603546 
L 511.164312 335.675538 
L 513.068965 336.443674 
L 514.973619 336.907169 
L 516.878272 337.064027 
L 518.782926 336.914906 
L 520.687579 336.459089 
L 522.592233 335.698677 
L 524.496886 334.634237 
L 526.40154 333.269289 
L 528.306194 331.605683 
L 530.210847 329.648325 
L 532.115501 327.400334 
L 534.020154 324.867957 
L 536.559692 321.057492 
L 539.09923 316.765461 
L 541.638768 312.008821 
L 544.178306 306.806362 
L 547.352729 299.70752 
L 550.527152 291.988743 
L 553.701574 283.696473 
L 557.510881 273.062151 
L 561.320188 261.771193 
L 565.76438 247.902799 
L 571.478341 229.229951 
L 577.192301 209.95672 
L 577.192301 209.95672 
" clip-path="url(#p5ff7dcd0f2)" style="fill: none; stroke-dasharray: 7.4,3.2; stroke-dashoffset: 0; stroke: #2ca02c; stroke-width: 2"/>
   </g>
   <g id="line2d_31">
    <path d="M 69.919574 199.157819 
L 71.189343 199.098208 
L 71.824227 198.954372 
L 72.459112 198.693738 
L 73.093996 198.305275 
L 74.363765 197.131982 
L 75.633534 195.458793 
L 76.903304 193.344658 
L 78.173073 190.856071 
L 80.077726 186.557445 
L 82.617264 180.046109 
L 85.791687 171.105645 
L 90.870763 155.947594 
L 98.489377 133.237416 
L 102.933569 120.7141 
L 106.742876 110.65253 
L 109.917298 102.835132 
L 113.091721 95.595946 
L 116.266143 88.986122 
L 118.805681 84.181404 
L 121.34522 79.828268 
L 123.884758 75.944759 
L 126.424296 72.546793 
L 128.328949 70.325172 
L 130.233603 68.389877 
L 132.138256 66.744587 
L 134.04291 65.393781 
L 135.947563 64.339704 
L 137.852217 63.585587 
L 139.75687 63.132234 
L 141.661524 62.981618 
L 143.566178 63.133101 
L 145.470831 63.587385 
L 147.375485 64.342406 
L 149.280138 65.397588 
L 151.184792 66.749463 
L 153.089445 68.396188 
L 154.994099 70.332922 
L 156.898752 72.556568 
L 158.803406 75.060962 
L 161.342944 78.828537 
L 163.882482 83.071469 
L 166.42202 87.772999 
L 168.961558 92.914553 
L 172.135981 99.92948 
L 175.310403 107.556198 
L 178.484826 115.74881 
L 182.294133 126.254403 
L 186.10344 137.407739 
L 190.547632 151.105973 
L 196.261592 169.548021 
L 204.515091 197.131118 
L 215.308128 233.149657 
L 221.022088 251.399607 
L 225.46628 264.890177 
L 229.275587 275.827149 
L 233.084894 286.08292 
L 236.259317 294.043505 
L 239.433739 301.417684 
L 242.608162 308.161626 
L 245.1477 313.07394 
L 247.687238 317.536229 
L 250.226776 321.530867 
L 252.766314 325.042071 
L 254.670968 327.349339 
L 256.575621 329.372633 
L 258.480275 331.105606 
L 260.384928 332.546246 
L 262.289582 333.689527 
L 264.194235 334.534711 
L 266.098889 335.078142 
L 268.003542 335.320359 
L 269.908196 335.259113 
L 271.81285 334.896211 
L 273.717503 334.230831 
L 275.622157 333.266034 
L 277.52681 332.002431 
L 279.431464 330.444312 
L 281.336117 328.593712 
L 283.240771 326.456115 
L 285.145424 324.034961 
L 287.684962 320.376476 
L 290.2245 316.239117 
L 292.764039 311.639228 
L 295.303577 306.594981 
L 297.843115 301.126303 
L 301.017537 293.726838 
L 304.19196 285.743392 
L 308.001267 275.462676 
L 311.810574 264.503993 
L 316.254766 250.992248 
L 321.333842 234.792672 
L 328.317571 211.653545 
L 343.5548 160.833276 
L 348.633876 144.750141 
L 353.078067 131.37361 
L 356.887375 120.554411 
L 360.696682 110.433599 
L 363.871104 102.598098 
L 367.045527 95.358635 
L 370.219949 88.759611 
L 372.759487 83.969187 
L 375.299025 79.633814 
L 377.838564 75.770617 
L 380.378102 72.394859 
L 382.282755 70.19119 
L 384.187409 68.2738 
L 386.092062 66.647666 
L 387.996716 65.315637 
L 389.901369 64.281485 
L 391.806023 63.546653 
L 393.710676 63.113673 
L 395.61533 62.982564 
L 397.519983 63.154606 
L 399.424637 63.628387 
L 401.329291 64.40392 
L 403.233944 65.478381 
L 405.138598 66.850516 
L 407.043251 68.516113 
L 408.947905 70.472657 
L 410.852558 72.714591 
L 412.757212 75.23816 
L 415.29675 79.029863 
L 417.836288 83.29613 
L 420.375826 88.02011 
L 422.915364 93.183139 
L 426.089787 100.222806 
L 429.264209 107.873651 
L 432.438632 116.087285 
L 436.247939 126.61603 
L 440.057246 137.789309 
L 444.501438 151.506876 
L 450.215398 169.965829 
L 458.468897 197.559108 
L 469.261934 233.56412 
L 474.975894 251.794359 
L 479.420086 265.265018 
L 483.229393 276.180858 
L 487.0387 286.412352 
L 490.213123 294.349632 
L 493.387545 301.70026 
L 496.561968 308.417189 
L 499.101506 313.307439 
L 501.641044 317.746743 
L 504.180582 321.717565 
L 506.72012 325.204217 
L 508.624774 327.493575 
L 510.529427 329.496782 
L 512.434081 331.211239 
L 514.338734 332.631295 
L 516.243388 333.755616 
L 518.148041 334.579905 
L 520.052695 335.104101 
L 521.957348 335.325298 
L 523.862002 335.244711 
L 525.766655 334.86085 
L 527.671309 334.176195 
L 529.575963 333.190687 
L 531.480616 331.908048 
L 533.38527 330.329649 
L 535.289923 328.460421 
L 537.194577 326.303153 
L 539.09923 323.863946 
L 541.638768 320.181138 
L 544.178306 316.020228 
L 546.717844 311.397654 
L 549.257382 306.331676 
L 552.431805 299.406125 
L 555.606228 291.862276 
L 558.78065 283.745967 
L 562.589957 273.322145 
L 566.399264 262.239376 
L 570.843456 248.608357 
L 575.922532 232.307834 
L 577.192301 228.14067 
L 577.192301 228.14067 
" clip-path="url(#p5ff7dcd0f2)" style="fill: none; stroke-dasharray: 2,3.3; stroke-dashoffset: 0; stroke: #d62728; stroke-width: 2"/>
   </g>
   <g id="patch_3">
    <path d="M 44.555937 365.477812 
L 44.555937 32.837812 
" style="fill: none; stroke: #000000; stroke-width: 0.8; stroke-linejoin: miter; stroke-linecap: square"/>
   </g>
   <g id="patch_4">
    <path d="M 602.555938 365.477812 
L 602.555938 32.837812 
" style="fill: none; stroke: #000000; stroke-width: 0.8; stroke-linejoin: miter; stroke-linecap: square"/>
   </g>
   <g id="patch_5">
    <path d="M 44.555937 365.477812 
L 602.555938 365.477812 
" style="fill: none; stroke: #000000; stroke-width: 0.8; stroke-linejoin: miter; stroke-linecap: square"/>
   </g>
   <g id="patch_6">
    <path d="M 44.555937 32.837812 
L 602.555938 32.837812 
" style="fill: none; stroke: #000000; stroke-width: 0.8; stroke-linejoin: miter; stroke-linecap: square"/>
   </g>
   <g id="text_17">
    <!-- Respuesta Transitoria a 10 kHz (Senoidal, 100uV de pico) -->
    <g transform="translate(122.984063 17.837812) scale(0.14 -0.14)">
     <defs>
      <path id="DejaVuSans-52" d="M 2841 2188 
Q 3044 2119 3236 1894 
Q 3428 1669 3622 1275 
L 4263 0 
L 3584 0 
L 2988 1197 
Q 2756 1666 2539 1819 
Q 2322 1972 1947 1972 
L 1259 1972 
L 1259 0 
L 628 0 
L 628 4666 
L 2053 4666 
Q 2853 4666 3247 4331 
Q 3641 3997 3641 3322 
Q 3641 2881 3436 2590 
Q 3231 2300 2841 2188 
z
M 1259 4147 
L 1259 2491 
L 2053 2491 
Q 2509 2491 2742 2702 
Q 2975 2913 2975 3322 
Q 2975 3731 2742 3939 
Q 2509 4147 2053 4147 
L 1259 4147 
z
" transform="scale(0.015625)"/>
      <path id="DejaVuSans-75" d="M 544 1381 
L 544 3500 
L 1119 3500 
L 1119 1403 
Q 1119 906 1312 657 
Q 1506 409 1894 409 
Q 2359 409 2629 706 
Q 2900 1003 2900 1516 
L 2900 3500 
L 3475 3500 
L 3475 0 
L 2900 0 
L 2900 538 
Q 2691 219 2414 64 
Q 2138 -91 1772 -91 
Q 1169 -91 856 284 
Q 544 659 544 1381 
z
M 1991 3584 
L 1991 3584 
z
" transform="scale(0.015625)"/>
      <path id="DejaVuSans-74" d="M 1172 4494 
L 1172 3500 
L 2356 3500 
L 2356 3053 
L 1172 3053 
L 1172 1153 
Q 1172 725 1289 603 
Q 1406 481 1766 481 
L 2356 481 
L 2356 0 
L 1766 0 
Q 1100 0 847 248 
Q 594 497 594 1153 
L 594 3053 
L 172 3053 
L 172 3500 
L 594 3500 
L 594 4494 
L 1172 4494 
z
" transform="scale(0.015625)"/>
      <path id="DejaVuSans-72" d="M 2631 2963 
Q 2534 3019 2420 3045 
Q 2306 3072 2169 3072 
Q 1681 3072 1420 2755 
Q 1159 2438 1159 1844 
L 1159 0 
L 581 0 
L 581 3500 
L 1159 3500 
L 1159 2956 
Q 1341 3275 1631 3429 
Q 1922 3584 2338 3584 
Q 2397 3584 2469 3576 
Q 2541 3569 2628 3553 
L 2631 2963 
z
" transform="scale(0.015625)"/>
      <path id="DejaVuSans-6b" d="M 581 4863 
L 1159 4863 
L 1159 1991 
L 2875 3500 
L 3609 3500 
L 1753 1863 
L 3688 0 
L 2938 0 
L 1159 1709 
L 1159 0 
L 581 0 
L 581 4863 
z
" transform="scale(0.015625)"/>
      <path id="DejaVuSans-48" d="M 628 4666 
L 1259 4666 
L 1259 2753 
L 3553 2753 
L 3553 4666 
L 4184 4666 
L 4184 0 
L 3553 0 
L 3553 2222 
L 1259 2222 
L 1259 0 
L 628 0 
L 628 4666 
z
" transform="scale(0.015625)"/>
      <path id="DejaVuSans-7a" d="M 353 3500 
L 3084 3500 
L 3084 2975 
L 922 459 
L 3084 459 
L 3084 0 
L 275 0 
L 275 525 
L 2438 3041 
L 353 3041 
L 353 3500 
z
" transform="scale(0.015625)"/>
      <path id="DejaVuSans-2c" d="M 750 794 
L 1409 794 
L 1409 256 
L 897 -744 
L 494 -744 
L 750 256 
L 750 794 
z
" transform="scale(0.015625)"/>
      <path id="DejaVuSans-63" d="M 3122 3366 
L 3122 2828 
Q 2878 2963 2633 3030 
Q 2388 3097 2138 3097 
Q 1578 3097 1268 2742 
Q 959 2388 959 1747 
Q 959 1106 1268 751 
Q 1578 397 2138 397 
Q 2388 397 2633 464 
Q 2878 531 3122 666 
L 3122 134 
Q 2881 22 2623 -34 
Q 2366 -91 2075 -91 
Q 1284 -91 818 406 
Q 353 903 353 1747 
Q 353 2603 823 3093 
Q 1294 3584 2113 3584 
Q 2378 3584 2631 3529 
Q 2884 3475 3122 3366 
z
" transform="scale(0.015625)"/>
     </defs>
     <use xlink:href="#DejaVuSans-52"/>
     <use xlink:href="#DejaVuSans-65" transform="translate(64.982422 0)"/>
     <use xlink:href="#DejaVuSans-73" transform="translate(126.505859 0)"/>
     <use xlink:href="#DejaVuSans-70" transform="translate(178.605469 0)"/>
     <use xlink:href="#DejaVuSans-75" transform="translate(242.082031 0)"/>
     <use xlink:href="#DejaVuSans-65" transform="translate(305.460938 0)"/>
     <use xlink:href="#DejaVuSans-73" transform="translate(366.984375 0)"/>
     <use xlink:href="#DejaVuSans-74" transform="translate(419.083984 0)"/>
     <use xlink:href="#DejaVuSans-61" transform="translate(458.292969 0)"/>
     <use xlink:href="#DejaVuSans-20" transform="translate(519.572266 0)"/>
     <use xlink:href="#DejaVuSans-54" transform="translate(551.359375 0)"/>
     <use xlink:href="#DejaVuSans-72" transform="translate(597.693359 0)"/>
     <use xlink:href="#DejaVuSans-61" transform="translate(638.806641 0)"/>
     <use xlink:href="#DejaVuSans-6e" transform="translate(700.085938 0)"/>
     <use xlink:href="#DejaVuSans-73" transform="translate(763.464844 0)"/>
     <use xlink:href="#DejaVuSans-69" transform="translate(815.564453 0)"/>
     <use xlink:href="#DejaVuSans-74" transform="translate(843.347656 0)"/>
     <use xlink:href="#DejaVuSans-6f" transform="translate(882.556641 0)"/>
     <use xlink:href="#DejaVuSans-72" transform="translate(943.738281 0)"/>
     <use xlink:href="#DejaVuSans-69" transform="translate(984.851562 0)"/>
     <use xlink:href="#DejaVuSans-61" transform="translate(1012.634766 0)"/>
     <use xlink:href="#DejaVuSans-20" transform="translate(1073.914062 0)"/>
     <use xlink:href="#DejaVuSans-61" transform="translate(1105.701172 0)"/>
     <use xlink:href="#DejaVuSans-20" transform="translate(1166.980469 0)"/>
     <use xlink:href="#DejaVuSans-31" transform="translate(1198.767578 0)"/>
     <use xlink:href="#DejaVuSans-30" transform="translate(1262.390625 0)"/>
     <use xlink:href="#DejaVuSans-20" transform="translate(1326.013672 0)"/>
     <use xlink:href="#DejaVuSans-6b" transform="translate(1357.800781 0)"/>
     <use xlink:href="#DejaVuSans-48" transform="translate(1415.710938 0)"/>
     <use xlink:href="#DejaVuSans-7a" transform="translate(1490.90625 0)"/>
     <use xlink:href="#DejaVuSans-20" transform="translate(1543.396484 0)"/>
     <use xlink:href="#DejaVuSans-28" transform="translate(1575.183594 0)"/>
     <use xlink:href="#DejaVuSans-53" transform="translate(1614.197266 0)"/>
     <use xlink:href="#DejaVuSans-65" transform="translate(1677.673828 0)"/>
     <use xlink:href="#DejaVuSans-6e" transform="translate(1739.197266 0)"/>
     <use xlink:href="#DejaVuSans-6f" transform="translate(1802.576172 0)"/>
     <use xlink:href="#DejaVuSans-69" transform="translate(1863.757812 0)"/>
     <use xlink:href="#DejaVuSans-64" transform="translate(1891.541016 0)"/>
     <use xlink:href="#DejaVuSans-61" transform="translate(1955.017578 0)"/>
     <use xlink:href="#DejaVuSans-6c" transform="translate(2016.296875 0)"/>
     <use xlink:href="#DejaVuSans-2c" transform="translate(2044.080078 0)"/>
     <use xlink:href="#DejaVuSans-20" transform="translate(2075.867188 0)"/>
     <use xlink:href="#DejaVuSans-31" transform="translate(2107.654297 0)"/>
     <use xlink:href="#DejaVuSans-30" transform="translate(2171.277344 0)"/>
     <use xlink:href="#DejaVuSans-30" transform="translate(2234.900391 0)"/>
     <use xlink:href="#DejaVuSans-75" transform="translate(2298.523438 0)"/>
     <use xlink:href="#DejaVuSans-56" transform="translate(2361.902344 0)"/>
     <use xlink:href="#DejaVuSans-20" transform="translate(2430.310547 0)"/>
     <use xlink:href="#DejaVuSans-64" transform="translate(2462.097656 0)"/>
     <use xlink:href="#DejaVuSans-65" transform="translate(2525.574219 0)"/>
     <use xlink:href="#DejaVuSans-20" transform="translate(2587.097656 0)"/>
     <use xlink:href="#DejaVuSans-70" transform="translate(2618.884766 0)"/>
     <use xlink:href="#DejaVuSans-69" transform="translate(2682.361328 0)"/>
     <use xlink:href="#DejaVuSans-63" transform="translate(2710.144531 0)"/>
     <use xlink:href="#DejaVuSans-6f" transform="translate(2765.125 0)"/>
     <use xlink:href="#DejaVuSans-29" transform="translate(2826.306641 0)"/>
    </g>
   </g>
   <g id="legend_1">
    <g id="patch_7">
     <path d="M 434.185469 90.075625 
L 594.855937 90.075625 
Q 597.055938 90.075625 597.055938 87.875625 
L 597.055938 40.537812 
Q 597.055938 38.337812 594.855937 38.337812 
L 434.185469 38.337812 
Q 431.985469 38.337812 431.985469 40.537812 
L 431.985469 87.875625 
Q 431.985469 90.075625 434.185469 90.075625 
z
" style="fill: #ffffff; opacity: 0.8; stroke: #cccccc; stroke-linejoin: miter"/>
    </g>
    <g id="line2d_32">
     <path d="M 436.385469 47.246094 
L 447.385469 47.246094 
L 458.385469 47.246094 
" style="fill: none; stroke: #1f77b4; stroke-width: 2; stroke-linecap: square"/>
    </g>
    <g id="text_18">
     <!-- Ideal Op-Amp -->
     <g transform="translate(467.185469 51.096094) scale(0.11 -0.11)">
      <defs>
       <path id="DejaVuSans-49" d="M 628 4666 
L 1259 4666 
L 1259 0 
L 628 0 
L 628 4666 
z
" transform="scale(0.015625)"/>
       <path id="DejaVuSans-4f" d="M 2522 4238 
Q 1834 4238 1429 3725 
Q 1025 3213 1025 2328 
Q 1025 1447 1429 934 
Q 1834 422 2522 422 
Q 3209 422 3611 934 
Q 4013 1447 4013 2328 
Q 4013 3213 3611 3725 
Q 3209 4238 2522 4238 
z
M 2522 4750 
Q 3503 4750 4090 4092 
Q 4678 3434 4678 2328 
Q 4678 1225 4090 567 
Q 3503 -91 2522 -91 
Q 1538 -91 948 565 
Q 359 1222 359 2328 
Q 359 3434 948 4092 
Q 1538 4750 2522 4750 
z
" transform="scale(0.015625)"/>
       <path id="DejaVuSans-2d" d="M 313 2009 
L 1997 2009 
L 1997 1497 
L 313 1497 
L 313 2009 
z
" transform="scale(0.015625)"/>
       <path id="DejaVuSans-41" d="M 2188 4044 
L 1331 1722 
L 3047 1722 
L 2188 4044 
z
M 1831 4666 
L 2547 4666 
L 4325 0 
L 3669 0 
L 3244 1197 
L 1141 1197 
L 716 0 
L 50 0 
L 1831 4666 
z
" transform="scale(0.015625)"/>
      </defs>
      <use xlink:href="#DejaVuSans-49"/>
      <use xlink:href="#DejaVuSans-64" transform="translate(29.492188 0)"/>
      <use xlink:href="#DejaVuSans-65" transform="translate(92.96875 0)"/>
      <use xlink:href="#DejaVuSans-61" transform="translate(154.492188 0)"/>
      <use xlink:href="#DejaVuSans-6c" transform="translate(215.771484 0)"/>
      <use xlink:href="#DejaVuSans-20" transform="translate(243.554688 0)"/>
      <use xlink:href="#DejaVuSans-4f" transform="translate(275.341797 0)"/>
      <use xlink:href="#DejaVuSans-70" transform="translate(354.052734 0)"/>
      <use xlink:href="#DejaVuSans-2d" transform="translate(417.529297 0)"/>
      <use xlink:href="#DejaVuSans-41" transform="translate(451.363281 0)"/>
      <use xlink:href="#DejaVuSans-6d" transform="translate(519.771484 0)"/>
      <use xlink:href="#DejaVuSans-70" transform="translate(617.183594 0)"/>
     </g>
    </g>
    <g id="line2d_33">
     <path d="M 436.385469 63.392031 
L 447.385469 63.392031 
L 458.385469 63.392031 
" style="fill: none; stroke-dasharray: 7.4,3.2; stroke-dashoffset: 0; stroke: #2ca02c; stroke-width: 2"/>
    </g>
    <g id="text_19">
     <!-- JFET LF357 -->
     <g transform="translate(467.185469 67.242031) scale(0.11 -0.11)">
      <defs>
       <path id="DejaVuSans-4a" d="M 628 4666 
L 1259 4666 
L 1259 325 
Q 1259 -519 939 -900 
Q 619 -1281 -91 -1281 
L -331 -1281 
L -331 -750 
L -134 -750 
Q 284 -750 456 -515 
Q 628 -281 628 325 
L 628 4666 
z
" transform="scale(0.015625)"/>
       <path id="DejaVuSans-46" d="M 628 4666 
L 3309 4666 
L 3309 4134 
L 1259 4134 
L 1259 2759 
L 3109 2759 
L 3109 2228 
L 1259 2228 
L 1259 0 
L 628 0 
L 628 4666 
z
" transform="scale(0.015625)"/>
       <path id="DejaVuSans-45" d="M 628 4666 
L 3578 4666 
L 3578 4134 
L 1259 4134 
L 1259 2753 
L 3481 2753 
L 3481 2222 
L 1259 2222 
L 1259 531 
L 3634 531 
L 3634 0 
L 628 0 
L 628 4666 
z
" transform="scale(0.015625)"/>
       <path id="DejaVuSans-4c" d="M 628 4666 
L 1259 4666 
L 1259 531 
L 3531 531 
L 3531 0 
L 628 0 
L 628 4666 
z
" transform="scale(0.015625)"/>
       <path id="DejaVuSans-33" d="M 2597 2516 
Q 3050 2419 3304 2112 
Q 3559 1806 3559 1356 
Q 3559 666 3084 287 
Q 2609 -91 1734 -91 
Q 1441 -91 1130 -33 
Q 819 25 488 141 
L 488 750 
Q 750 597 1062 519 
Q 1375 441 1716 441 
Q 2309 441 2620 675 
Q 2931 909 2931 1356 
Q 2931 1769 2642 2001 
Q 2353 2234 1838 2234 
L 1294 2234 
L 1294 2753 
L 1863 2753 
Q 2328 2753 2575 2939 
Q 2822 3125 2822 3475 
Q 2822 3834 2567 4026 
Q 2313 4219 1838 4219 
Q 1578 4219 1281 4162 
Q 984 4106 628 3988 
L 628 4550 
Q 988 4650 1302 4700 
Q 1616 4750 1894 4750 
Q 2613 4750 3031 4423 
Q 3450 4097 3450 3541 
Q 3450 3153 3228 2886 
Q 3006 2619 2597 2516 
z
" transform="scale(0.015625)"/>
      </defs>
      <use xlink:href="#DejaVuSans-4a"/>
      <use xlink:href="#DejaVuSans-46" transform="translate(29.492188 0)"/>
      <use xlink:href="#DejaVuSans-45" transform="translate(87.011719 0)"/>
      <use xlink:href="#DejaVuSans-54" transform="translate(150.195312 0)"/>
      <use xlink:href="#DejaVuSans-20" transform="translate(211.279297 0)"/>
      <use xlink:href="#DejaVuSans-4c" transform="translate(243.066406 0)"/>
      <use xlink:href="#DejaVuSans-46" transform="translate(298.779297 0)"/>
      <use xlink:href="#DejaVuSans-33" transform="translate(356.298828 0)"/>
      <use xlink:href="#DejaVuSans-35" transform="translate(419.921875 0)"/>
      <use xlink:href="#DejaVuSans-37" transform="translate(483.544922 0)"/>
     </g>
    </g>
    <g id="line2d_34">
     <path d="M 436.385469 79.537969 
L 447.385469 79.537969 
L 458.385469 79.537969 
" style="fill: none; stroke-dasharray: 2,3.3; stroke-dashoffset: 0; stroke: #d62728; stroke-width: 2"/>
    </g>
    <g id="text_20">
     <!-- JFET TL071 (Atenuado) -->
     <g transform="translate(467.185469 83.387969) scale(0.11 -0.11)">
      <use xlink:href="#DejaVuSans-4a"/>
      <use xlink:href="#DejaVuSans-46" transform="translate(29.492188 0)"/>
      <use xlink:href="#DejaVuSans-45" transform="translate(87.011719 0)"/>
      <use xlink:href="#DejaVuSans-54" transform="translate(150.195312 0)"/>
      <use xlink:href="#DejaVuSans-20" transform="translate(211.279297 0)"/>
      <use xlink:href="#DejaVuSans-54" transform="translate(243.066406 0)"/>
      <use xlink:href="#DejaVuSans-4c" transform="translate(304.150391 0)"/>
      <use xlink:href="#DejaVuSans-30" transform="translate(359.863281 0)"/>
      <use xlink:href="#DejaVuSans-37" transform="translate(423.486328 0)"/>
      <use xlink:href="#DejaVuSans-31" transform="translate(487.109375 0)"/>
      <use xlink:href="#DejaVuSans-20" transform="translate(550.732422 0)"/>
      <use xlink:href="#DejaVuSans-28" transform="translate(582.519531 0)"/>
      <use xlink:href="#DejaVuSans-41" transform="translate(621.533203 0)"/>
      <use xlink:href="#DejaVuSans-74" transform="translate(688.191406 0)"/>
      <use xlink:href="#DejaVuSans-65" transform="translate(727.400391 0)"/>
      <use xlink:href="#DejaVuSans-6e" transform="translate(788.923828 0)"/>
      <use xlink:href="#DejaVuSans-75" transform="translate(852.302734 0)"/>
      <use xlink:href="#DejaVuSans-61" transform="translate(915.681641 0)"/>
      <use xlink:href="#DejaVuSans-64" transform="translate(976.960938 0)"/>
      <use xlink:href="#DejaVuSans-6f" transform="translate(1040.4375 0)"/>
      <use xlink:href="#DejaVuSans-29" transform="translate(1101.619141 0)"/>
     </g>
    </g>
   </g>
  </g>
 </g>
 <defs>
  <clipPath id="p5ff7dcd0f2">
   <rect x="44.555937" y="32.837812" width="558" height="332.64"/>
  </clipPath>
 </defs>
</svg>
