<?xml version="1.0" encoding="utf-8" standalone="no"?>
<!DOCTYPE svg PUBLIC "-//W3C//DTD SVG 1.1//EN"
  "http://www.w3.org/Graphics/SVG/1.1/DTD/svg11.dtd">
<svg xmlns:xlink="http://www.w3.org/1999/xlink" width="609.755938pt" height="405.529687pt" viewBox="0 0 609.755938 405.529687" xmlns="http://www.w3.org/2000/svg" version="1.1">
 <metadata>
  <rdf:RDF xmlns:dc="http://purl.org/dc/elements/1.1/" xmlns:cc="http://creativecommons.org/ns#" xmlns:rdf="http://www.w3.org/1999/02/22-rdf-syntax-ns#">
   <cc:Work>
    <dc:type rdf:resource="http://purl.org/dc/dcmitype/StillImage"/>
    <dc:date>2026-05-24T18:38:24.447246</dc:date>
    <dc:format>image/svg+xml</dc:format>
    <dc:creator>
     <cc:Agent>
      <dc:title>Matplotlib v3.10.9, https://matplotlib.org/</dc:title>
     </cc:Agent>
    </dc:creator>
   </cc:Work>
  </rdf:RDF>
 </metadata>
 <defs>
  <style type="text/css">*{stroke-linejoin: round; stroke-linecap: butt}</style>
 </defs>
 <g id="figure_1">
  <g id="patch_1">
   <path d="M -0 405.529687 
L 609.755938 405.529687 
L 609.755938 0 
L -0 0 
z
" style="fill: #ffffff"/>
  </g>
  <g id="axes_1">
   <g id="patch_2">
    <path d="M 44.555937 366.037812 
L 602.555938 366.037812 
L 602.555938 33.397812 
L 44.555937 33.397812 
z
" style="fill: #ffffff"/>
   </g>
   <g id="matplotlib.axis_1">
    <g id="xtick_1">
     <g id="line2d_1">
      <path d="M 69.919574 366.037812 
L 69.919574 33.397812 
" clip-path="url(#p3ee08a7ef1)" style="fill: none; stroke: #e0e0e0; stroke-width: 0.8; stroke-linecap: square"/>
     </g>
     <g id="line2d_2">
      <defs>
       <path id="m3cbcefad48" d="M 0 0 
L 0 3.5 
" style="stroke: #000000; stroke-width: 0.8"/>
      </defs>
      <g>
       <use xlink:href="#m3cbcefad48" x="69.919574" y="366.037812" style="stroke: #000000; stroke-width: 0.8"/>
      </g>
     </g>
     <g id="text_1">
      <!-- 0.0 -->
      <g transform="translate(61.968011 380.63625) scale(0.1 -0.1)">
       <defs>
        <path id="DejaVuSans-30" d="M 2034 4250 
Q 1547 4250 1301 3770 
Q 1056 3291 1056 2328 
Q 1056 1369 1301 889 
Q 1547 409 2034 409 
Q 2525 409 2770 889 
Q 3016 1369 3016 2328 
Q 3016 3291 2770 3770 
Q 2525 4250 2034 4250 
z
M 2034 4750 
Q 2819 4750 3233 4129 
Q 3647 3509 3647 2328 
Q 3647 1150 3233 529 
Q 2819 -91 2034 -91 
Q 1250 -91 836 529 
Q 422 1150 422 2328 
Q 422 3509 836 4129 
Q 1250 4750 2034 4750 
z
" transform="scale(0.015625)"/>
        <path id="DejaVuSans-2e" d="M 684 794 
L 1344 794 
L 1344 0 
L 684 0 
L 684 794 
z
" transform="scale(0.015625)"/>
       </defs>
       <use xlink:href="#DejaVuSans-30"/>
       <use xlink:href="#DejaVuSans-2e" transform="translate(63.623047 0)"/>
       <use xlink:href="#DejaVuSans-30" transform="translate(95.410156 0)"/>
      </g>
     </g>
    </g>
    <g id="xtick_2">
     <g id="line2d_3">
      <path d="M 133.328665 366.037812 
L 133.328665 33.397812 
" clip-path="url(#p3ee08a7ef1)" style="fill: none; stroke: #e0e0e0; stroke-width: 0.8; stroke-linecap: square"/>
     </g>
     <g id="line2d_4">
      <g>
       <use xlink:href="#m3cbcefad48" x="133.328665" y="366.037812" style="stroke: #000000; stroke-width: 0.8"/>
      </g>
     </g>
     <g id="text_2">
      <!-- 2.5 -->
      <g transform="translate(125.377102 380.63625) scale(0.1 -0.1)">
       <defs>
        <path id="DejaVuSans-32" d="M 1228 531 
L 3431 531 
L 3431 0 
L 469 0 
L 469 531 
Q 828 903 1448 1529 
Q 2069 2156 2228 2338 
Q 2531 2678 2651 2914 
Q 2772 3150 2772 3378 
Q 2772 3750 2511 3984 
Q 2250 4219 1831 4219 
Q 1534 4219 1204 4116 
Q 875 4013 500 3803 
L 500 4441 
Q 881 4594 1212 4672 
Q 1544 4750 1819 4750 
Q 2544 4750 2975 4387 
Q 3406 4025 3406 3419 
Q 3406 3131 3298 2873 
Q 3191 2616 2906 2266 
Q 2828 2175 2409 1742 
Q 1991 1309 1228 531 
z
" transform="scale(0.015625)"/>
        <path id="DejaVuSans-35" d="M 691 4666 
L 3169 4666 
L 3169 4134 
L 1269 4134 
L 1269 2991 
Q 1406 3038 1543 3061 
Q 1681 3084 1819 3084 
Q 2600 3084 3056 2656 
Q 3513 2228 3513 1497 
Q 3513 744 3044 326 
Q 2575 -91 1722 -91 
Q 1428 -91 1123 -41 
Q 819 9 494 109 
L 494 744 
Q 775 591 1075 516 
Q 1375 441 1709 441 
Q 2250 441 2565 725 
Q 2881 1009 2881 1497 
Q 2881 1984 2565 2268 
Q 2250 2553 1709 2553 
Q 1456 2553 1204 2497 
Q 953 2441 691 2322 
L 691 4666 
z
" transform="scale(0.015625)"/>
       </defs>
       <use xlink:href="#DejaVuSans-32"/>
       <use xlink:href="#DejaVuSans-2e" transform="translate(63.623047 0)"/>
       <use xlink:href="#DejaVuSans-35" transform="translate(95.410156 0)"/>
      </g>
     </g>
    </g>
    <g id="xtick_3">
     <g id="line2d_5">
      <path d="M 196.737756 366.037812 
L 196.737756 33.397812 
" clip-path="url(#p3ee08a7ef1)" style="fill: none; stroke: #e0e0e0; stroke-width: 0.8; stroke-linecap: square"/>
     </g>
     <g id="line2d_6">
      <g>
       <use xlink:href="#m3cbcefad48" x="196.737756" y="366.037812" style="stroke: #000000; stroke-width: 0.8"/>
      </g>
     </g>
     <g id="text_3">
      <!-- 5.0 -->
      <g transform="translate(188.786193 380.63625) scale(0.1 -0.1)">
       <use xlink:href="#DejaVuSans-35"/>
       <use xlink:href="#DejaVuSans-2e" transform="translate(63.623047 0)"/>
       <use xlink:href="#DejaVuSans-30" transform="translate(95.410156 0)"/>
      </g>
     </g>
    </g>
    <g id="xtick_4">
     <g id="line2d_7">
      <path d="M 260.146847 366.037812 
L 260.146847 33.397812 
" clip-path="url(#p3ee08a7ef1)" style="fill: none; stroke: #e0e0e0; stroke-width: 0.8; stroke-linecap: square"/>
     </g>
     <g id="line2d_8">
      <g>
       <use xlink:href="#m3cbcefad48" x="260.146847" y="366.037812" style="stroke: #000000; stroke-width: 0.8"/>
      </g>
     </g>
     <g id="text_4">
      <!-- 7.5 -->
      <g transform="translate(252.195284 380.63625) scale(0.1 -0.1)">
       <defs>
        <path id="DejaVuSans-37" d="M 525 4666 
L 3525 4666 
L 3525 4397 
L 1831 0 
L 1172 0 
L 2766 4134 
L 525 4134 
L 525 4666 
z
" transform="scale(0.015625)"/>
       </defs>
       <use xlink:href="#DejaVuSans-37"/>
       <use xlink:href="#DejaVuSans-2e" transform="translate(63.623047 0)"/>
       <use xlink:href="#DejaVuSans-35" transform="translate(95.410156 0)"/>
      </g>
     </g>
    </g>
    <g id="xtick_5">
     <g id="line2d_9">
      <path d="M 323.555937 366.037812 
L 323.555937 33.397812 
" clip-path="url(#p3ee08a7ef1)" style="fill: none; stroke: #e0e0e0; stroke-width: 0.8; stroke-linecap: square"/>
     </g>
     <g id="line2d_10">
      <g>
       <use xlink:href="#m3cbcefad48" x="323.555937" y="366.037812" style="stroke: #000000; stroke-width: 0.8"/>
      </g>
     </g>
     <g id="text_5">
      <!-- 10.0 -->
      <g transform="translate(312.423125 380.63625) scale(0.1 -0.1)">
       <defs>
        <path id="DejaVuSans-31" d="M 794 531 
L 1825 531 
L 1825 4091 
L 703 3866 
L 703 4441 
L 1819 4666 
L 2450 4666 
L 2450 531 
L 3481 531 
L 3481 0 
L 794 0 
L 794 531 
z
" transform="scale(0.015625)"/>
       </defs>
       <use xlink:href="#DejaVuSans-31"/>
       <use xlink:href="#DejaVuSans-30" transform="translate(63.623047 0)"/>
       <use xlink:href="#DejaVuSans-2e" transform="translate(127.246094 0)"/>
       <use xlink:href="#DejaVuSans-30" transform="translate(159.033203 0)"/>
      </g>
     </g>
    </g>
    <g id="xtick_6">
     <g id="line2d_11">
      <path d="M 386.965028 366.037812 
L 386.965028 33.397812 
" clip-path="url(#p3ee08a7ef1)" style="fill: none; stroke: #e0e0e0; stroke-width: 0.8; stroke-linecap: square"/>
     </g>
     <g id="line2d_12">
      <g>
       <use xlink:href="#m3cbcefad48" x="386.965028" y="366.037812" style="stroke: #000000; stroke-width: 0.8"/>
      </g>
     </g>
     <g id="text_6">
      <!-- 12.5 -->
      <g transform="translate(375.832216 380.63625) scale(0.1 -0.1)">
       <use xlink:href="#DejaVuSans-31"/>
       <use xlink:href="#DejaVuSans-32" transform="translate(63.623047 0)"/>
       <use xlink:href="#DejaVuSans-2e" transform="translate(127.246094 0)"/>
       <use xlink:href="#DejaVuSans-35" transform="translate(159.033203 0)"/>
      </g>
     </g>
    </g>
    <g id="xtick_7">
     <g id="line2d_13">
      <path d="M 450.374119 366.037812 
L 450.374119 33.397812 
" clip-path="url(#p3ee08a7ef1)" style="fill: none; stroke: #e0e0e0; stroke-width: 0.8; stroke-linecap: square"/>
     </g>
     <g id="line2d_14">
      <g>
       <use xlink:href="#m3cbcefad48" x="450.374119" y="366.037812" style="stroke: #000000; stroke-width: 0.8"/>
      </g>
     </g>
     <g id="text_7">
      <!-- 15.0 -->
      <g transform="translate(439.241307 380.63625) scale(0.1 -0.1)">
       <use xlink:href="#DejaVuSans-31"/>
       <use xlink:href="#DejaVuSans-35" transform="translate(63.623047 0)"/>
       <use xlink:href="#DejaVuSans-2e" transform="translate(127.246094 0)"/>
       <use xlink:href="#DejaVuSans-30" transform="translate(159.033203 0)"/>
      </g>
     </g>
    </g>
    <g id="xtick_8">
     <g id="line2d_15">
      <path d="M 513.78321 366.037812 
L 513.78321 33.397812 
" clip-path="url(#p3ee08a7ef1)" style="fill: none; stroke: #e0e0e0; stroke-width: 0.8; stroke-linecap: square"/>
     </g>
     <g id="line2d_16">
      <g>
       <use xlink:href="#m3cbcefad48" x="513.78321" y="366.037812" style="stroke: #000000; stroke-width: 0.8"/>
      </g>
     </g>
     <g id="text_8">
      <!-- 17.5 -->
      <g transform="translate(502.650398 380.63625) scale(0.1 -0.1)">
       <use xlink:href="#DejaVuSans-31"/>
       <use xlink:href="#DejaVuSans-37" transform="translate(63.623047 0)"/>
       <use xlink:href="#DejaVuSans-2e" transform="translate(127.246094 0)"/>
       <use xlink:href="#DejaVuSans-35" transform="translate(159.033203 0)"/>
      </g>
     </g>
    </g>
    <g id="xtick_9">
     <g id="line2d_17">
      <path d="M 577.192301 366.037812 
L 577.192301 33.397812 
" clip-path="url(#p3ee08a7ef1)" style="fill: none; stroke: #e0e0e0; stroke-width: 0.8; stroke-linecap: square"/>
     </g>
     <g id="line2d_18">
      <g>
       <use xlink:href="#m3cbcefad48" x="577.192301" y="366.037812" style="stroke: #000000; stroke-width: 0.8"/>
      </g>
     </g>
     <g id="text_9">
      <!-- 20.0 -->
      <g transform="translate(566.059489 380.63625) scale(0.1 -0.1)">
       <use xlink:href="#DejaVuSans-32"/>
       <use xlink:href="#DejaVuSans-30" transform="translate(63.623047 0)"/>
       <use xlink:href="#DejaVuSans-2e" transform="translate(127.246094 0)"/>
       <use xlink:href="#DejaVuSans-30" transform="translate(159.033203 0)"/>
      </g>
     </g>
    </g>
    <g id="text_10">
     <!-- Tiempo (μs) -->
     <g transform="translate(287.863438 395.834062) scale(0.12 -0.12)">
      <defs>
       <path id="DejaVuSans-54" d="M -19 4666 
L 3928 4666 
L 3928 4134 
L 2272 4134 
L 2272 0 
L 1638 0 
L 1638 4134 
L -19 4134 
L -19 4666 
z
" transform="scale(0.015625)"/>
       <path id="DejaVuSans-69" d="M 603 3500 
L 1178 3500 
L 1178 0 
L 603 0 
L 603 3500 
z
M 603 4863 
L 1178 4863 
L 1178 4134 
L 603 4134 
L 603 4863 
z
" transform="scale(0.015625)"/>
       <path id="DejaVuSans-65" d="M 3597 1894 
L 3597 1613 
L 953 1613 
Q 991 1019 1311 708 
Q 1631 397 2203 397 
Q 2534 397 2845 478 
Q 3156 559 3463 722 
L 3463 178 
Q 3153 47 2828 -22 
Q 2503 -91 2169 -91 
Q 1331 -91 842 396 
Q 353 884 353 1716 
Q 353 2575 817 3079 
Q 1281 3584 2069 3584 
Q 2775 3584 3186 3129 
Q 3597 2675 3597 1894 
z
M 3022 2063 
Q 3016 2534 2758 2815 
Q 2500 3097 2075 3097 
Q 1594 3097 1305 2825 
Q 1016 2553 972 2059 
L 3022 2063 
z
" transform="scale(0.015625)"/>
       <path id="DejaVuSans-6d" d="M 3328 2828 
Q 3544 3216 3844 3400 
Q 4144 3584 4550 3584 
Q 5097 3584 5394 3201 
Q 5691 2819 5691 2113 
L 5691 0 
L 5113 0 
L 5113 2094 
Q 5113 2597 4934 2840 
Q 4756 3084 4391 3084 
Q 3944 3084 3684 2787 
Q 3425 2491 3425 1978 
L 3425 0 
L 2847 0 
L 2847 2094 
Q 2847 2600 2669 2842 
Q 2491 3084 2119 3084 
Q 1678 3084 1418 2786 
Q 1159 2488 1159 1978 
L 1159 0 
L 581 0 
L 581 3500 
L 1159 3500 
L 1159 2956 
Q 1356 3278 1631 3431 
Q 1906 3584 2284 3584 
Q 2666 3584 2933 3390 
Q 3200 3197 3328 2828 
z
" transform="scale(0.015625)"/>
       <path id="DejaVuSans-70" d="M 1159 525 
L 1159 -1331 
L 581 -1331 
L 581 3500 
L 1159 3500 
L 1159 2969 
Q 1341 3281 1617 3432 
Q 1894 3584 2278 3584 
Q 2916 3584 3314 3078 
Q 3713 2572 3713 1747 
Q 3713 922 3314 415 
Q 2916 -91 2278 -91 
Q 1894 -91 1617 61 
Q 1341 213 1159 525 
z
M 3116 1747 
Q 3116 2381 2855 2742 
Q 2594 3103 2138 3103 
Q 1681 3103 1420 2742 
Q 1159 2381 1159 1747 
Q 1159 1113 1420 752 
Q 1681 391 2138 391 
Q 2594 391 2855 752 
Q 3116 1113 3116 1747 
z
" transform="scale(0.015625)"/>
       <path id="DejaVuSans-6f" d="M 1959 3097 
Q 1497 3097 1228 2736 
Q 959 2375 959 1747 
Q 959 1119 1226 758 
Q 1494 397 1959 397 
Q 2419 397 2687 759 
Q 2956 1122 2956 1747 
Q 2956 2369 2687 2733 
Q 2419 3097 1959 3097 
z
M 1959 3584 
Q 2709 3584 3137 3096 
Q 3566 2609 3566 1747 
Q 3566 888 3137 398 
Q 2709 -91 1959 -91 
Q 1206 -91 779 398 
Q 353 888 353 1747 
Q 353 2609 779 3096 
Q 1206 3584 1959 3584 
z
" transform="scale(0.015625)"/>
       <path id="DejaVuSans-20" transform="scale(0.015625)"/>
       <path id="DejaVuSans-28" d="M 1984 4856 
Q 1566 4138 1362 3434 
Q 1159 2731 1159 2009 
Q 1159 1288 1364 580 
Q 1569 -128 1984 -844 
L 1484 -844 
Q 1016 -109 783 600 
Q 550 1309 550 2009 
Q 550 2706 781 3412 
Q 1013 4119 1484 4856 
L 1984 4856 
z
" transform="scale(0.015625)"/>
       <path id="DejaVuSans-3bc" d="M 544 -1331 
L 544 3500 
L 1119 3500 
L 1119 1325 
Q 1119 872 1334 640 
Q 1550 409 1972 409 
Q 2434 409 2667 671 
Q 2900 934 2900 1459 
L 2900 3500 
L 3475 3500 
L 3475 806 
Q 3475 619 3529 530 
Q 3584 441 3700 441 
Q 3728 441 3778 458 
Q 3828 475 3916 513 
L 3916 50 
Q 3788 -22 3673 -56 
Q 3559 -91 3450 -91 
Q 3234 -91 3106 31 
Q 2978 153 2931 403 
Q 2775 156 2548 32 
Q 2322 -91 2016 -91 
Q 1697 -91 1473 31 
Q 1250 153 1119 397 
L 1119 -1331 
L 544 -1331 
z
" transform="scale(0.015625)"/>
       <path id="DejaVuSans-73" d="M 2834 3397 
L 2834 2853 
Q 2591 2978 2328 3040 
Q 2066 3103 1784 3103 
Q 1356 3103 1142 2972 
Q 928 2841 928 2578 
Q 928 2378 1081 2264 
Q 1234 2150 1697 2047 
L 1894 2003 
Q 2506 1872 2764 1633 
Q 3022 1394 3022 966 
Q 3022 478 2636 193 
Q 2250 -91 1575 -91 
Q 1294 -91 989 -36 
Q 684 19 347 128 
L 347 722 
Q 666 556 975 473 
Q 1284 391 1588 391 
Q 1994 391 2212 530 
Q 2431 669 2431 922 
Q 2431 1156 2273 1281 
Q 2116 1406 1581 1522 
L 1381 1569 
Q 847 1681 609 1914 
Q 372 2147 372 2553 
Q 372 3047 722 3315 
Q 1072 3584 1716 3584 
Q 2034 3584 2315 3537 
Q 2597 3491 2834 3397 
z
" transform="scale(0.015625)"/>
       <path id="DejaVuSans-29" d="M 513 4856 
L 1013 4856 
Q 1481 4119 1714 3412 
Q 1947 2706 1947 2009 
Q 1947 1309 1714 600 
Q 1481 -109 1013 -844 
L 513 -844 
Q 928 -128 1133 580 
Q 1338 1288 1338 2009 
Q 1338 2731 1133 3434 
Q 928 4138 513 4856 
z
" transform="scale(0.015625)"/>
      </defs>
      <use xlink:href="#DejaVuSans-54"/>
      <use xlink:href="#DejaVuSans-69" transform="translate(57.958984 0)"/>
      <use xlink:href="#DejaVuSans-65" transform="translate(85.742188 0)"/>
      <use xlink:href="#DejaVuSans-6d" transform="translate(147.265625 0)"/>
      <use xlink:href="#DejaVuSans-70" transform="translate(244.677734 0)"/>
      <use xlink:href="#DejaVuSans-6f" transform="translate(308.154297 0)"/>
      <use xlink:href="#DejaVuSans-20" transform="translate(369.335938 0)"/>
      <use xlink:href="#DejaVuSans-28" transform="translate(401.123047 0)"/>
      <use xlink:href="#DejaVuSans-3bc" transform="translate(440.136719 0)"/>
      <use xlink:href="#DejaVuSans-73" transform="translate(503.759766 0)"/>
      <use xlink:href="#DejaVuSans-29" transform="translate(555.859375 0)"/>
     </g>
    </g>
   </g>
   <g id="matplotlib.axis_2">
    <g id="ytick_1">
     <g id="line2d_19">
      <path d="M 44.555937 340.94768 
L 602.555938 340.94768 
" clip-path="url(#p3ee08a7ef1)" style="fill: none; stroke: #e0e0e0; stroke-width: 0.8; stroke-linecap: square"/>
     </g>
     <g id="line2d_20">
      <defs>
       <path id="mebe62f9587" d="M 0 0 
L -3.5 0 
" style="stroke: #000000; stroke-width: 0.8"/>
      </defs>
      <g>
       <use xlink:href="#mebe62f9587" x="44.555937" y="340.94768" style="stroke: #000000; stroke-width: 0.8"/>
      </g>
     </g>
     <g id="text_11">
      <!-- −2 -->
      <g transform="translate(22.81375 344.746899) scale(0.1 -0.1)">
       <defs>
        <path id="DejaVuSans-2212" d="M 678 2272 
L 4684 2272 
L 4684 1741 
L 678 1741 
L 678 2272 
z
" transform="scale(0.015625)"/>
       </defs>
       <use xlink:href="#DejaVuSans-2212"/>
       <use xlink:href="#DejaVuSans-32" transform="translate(83.789062 0)"/>
      </g>
     </g>
    </g>
    <g id="ytick_2">
     <g id="line2d_21">
      <path d="M 44.555937 270.909271 
L 602.555938 270.909271 
" clip-path="url(#p3ee08a7ef1)" style="fill: none; stroke: #e0e0e0; stroke-width: 0.8; stroke-linecap: square"/>
     </g>
     <g id="line2d_22">
      <g>
       <use xlink:href="#mebe62f9587" x="44.555937" y="270.909271" style="stroke: #000000; stroke-width: 0.8"/>
      </g>
     </g>
     <g id="text_12">
      <!-- −1 -->
      <g transform="translate(22.81375 274.70849) scale(0.1 -0.1)">
       <use xlink:href="#DejaVuSans-2212"/>
       <use xlink:href="#DejaVuSans-31" transform="translate(83.789062 0)"/>
      </g>
     </g>
    </g>
    <g id="ytick_3">
     <g id="line2d_23">
      <path d="M 44.555937 200.870863 
L 602.555938 200.870863 
" clip-path="url(#p3ee08a7ef1)" style="fill: none; stroke: #e0e0e0; stroke-width: 0.8; stroke-linecap: square"/>
     </g>
     <g id="line2d_24">
      <g>
       <use xlink:href="#mebe62f9587" x="44.555937" y="200.870863" style="stroke: #000000; stroke-width: 0.8"/>
      </g>
     </g>
     <g id="text_13">
      <!-- 0 -->
      <g transform="translate(31.193437 204.670082) scale(0.1 -0.1)">
       <use xlink:href="#DejaVuSans-30"/>
      </g>
     </g>
    </g>
    <g id="ytick_4">
     <g id="line2d_25">
      <path d="M 44.555937 130.832455 
L 602.555938 130.832455 
" clip-path="url(#p3ee08a7ef1)" style="fill: none; stroke: #e0e0e0; stroke-width: 0.8; stroke-linecap: square"/>
     </g>
     <g id="line2d_26">
      <g>
       <use xlink:href="#mebe62f9587" x="44.555937" y="130.832455" style="stroke: #000000; stroke-width: 0.8"/>
      </g>
     </g>
     <g id="text_14">
      <!-- 1 -->
      <g transform="translate(31.193437 134.631673) scale(0.1 -0.1)">
       <use xlink:href="#DejaVuSans-31"/>
      </g>
     </g>
    </g>
    <g id="ytick_5">
     <g id="line2d_27">
      <path d="M 44.555937 60.794046 
L 602.555938 60.794046 
" clip-path="url(#p3ee08a7ef1)" style="fill: none; stroke: #e0e0e0; stroke-width: 0.8; stroke-linecap: square"/>
     </g>
     <g id="line2d_28">
      <g>
       <use xlink:href="#mebe62f9587" x="44.555937" y="60.794046" style="stroke: #000000; stroke-width: 0.8"/>
      </g>
     </g>
     <g id="text_15">
      <!-- 2 -->
      <g transform="translate(31.193437 64.593265) scale(0.1 -0.1)">
       <use xlink:href="#DejaVuSans-32"/>
      </g>
     </g>
    </g>
    <g id="text_16">
     <!-- Tensión de Salida (V) -->
     <g transform="translate(16.318125 262.436562) rotate(-90) scale(0.12 -0.12)">
      <defs>
       <path id="DejaVuSans-6e" d="M 3513 2113 
L 3513 0 
L 2938 0 
L 2938 2094 
Q 2938 2591 2744 2837 
Q 2550 3084 2163 3084 
Q 1697 3084 1428 2787 
Q 1159 2491 1159 1978 
L 1159 0 
L 581 0 
L 581 3500 
L 1159 3500 
L 1159 2956 
Q 1366 3272 1645 3428 
Q 1925 3584 2291 3584 
Q 2894 3584 3203 3211 
Q 3513 2838 3513 2113 
z
" transform="scale(0.015625)"/>
       <path id="DejaVuSans-f3" d="M 1959 3097 
Q 1497 3097 1228 2736 
Q 959 2375 959 1747 
Q 959 1119 1226 758 
Q 1494 397 1959 397 
Q 2419 397 2687 759 
Q 2956 1122 2956 1747 
Q 2956 2369 2687 2733 
Q 2419 3097 1959 3097 
z
M 1959 3584 
Q 2709 3584 3137 3096 
Q 3566 2609 3566 1747 
Q 3566 888 3137 398 
Q 2709 -91 1959 -91 
Q 1206 -91 779 398 
Q 353 888 353 1747 
Q 353 2609 779 3096 
Q 1206 3584 1959 3584 
z
M 2394 5119 
L 3016 5119 
L 1998 3944 
L 1519 3944 
L 2394 5119 
z
" transform="scale(0.015625)"/>
       <path id="DejaVuSans-64" d="M 2906 2969 
L 2906 4863 
L 3481 4863 
L 3481 0 
L 2906 0 
L 2906 525 
Q 2725 213 2448 61 
Q 2172 -91 1784 -91 
Q 1150 -91 751 415 
Q 353 922 353 1747 
Q 353 2572 751 3078 
Q 1150 3584 1784 3584 
Q 2172 3584 2448 3432 
Q 2725 3281 2906 2969 
z
M 947 1747 
Q 947 1113 1208 752 
Q 1469 391 1925 391 
Q 2381 391 2643 752 
Q 2906 1113 2906 1747 
Q 2906 2381 2643 2742 
Q 2381 3103 1925 3103 
Q 1469 3103 1208 2742 
Q 947 2381 947 1747 
z
" transform="scale(0.015625)"/>
       <path id="DejaVuSans-53" d="M 3425 4513 
L 3425 3897 
Q 3066 4069 2747 4153 
Q 2428 4238 2131 4238 
Q 1616 4238 1336 4038 
Q 1056 3838 1056 3469 
Q 1056 3159 1242 3001 
Q 1428 2844 1947 2747 
L 2328 2669 
Q 3034 2534 3370 2195 
Q 3706 1856 3706 1288 
Q 3706 609 3251 259 
Q 2797 -91 1919 -91 
Q 1588 -91 1214 -16 
Q 841 59 441 206 
L 441 856 
Q 825 641 1194 531 
Q 1563 422 1919 422 
Q 2459 422 2753 634 
Q 3047 847 3047 1241 
Q 3047 1584 2836 1778 
Q 2625 1972 2144 2069 
L 1759 2144 
Q 1053 2284 737 2584 
Q 422 2884 422 3419 
Q 422 4038 858 4394 
Q 1294 4750 2059 4750 
Q 2388 4750 2728 4690 
Q 3069 4631 3425 4513 
z
" transform="scale(0.015625)"/>
       <path id="DejaVuSans-61" d="M 2194 1759 
Q 1497 1759 1228 1600 
Q 959 1441 959 1056 
Q 959 750 1161 570 
Q 1363 391 1709 391 
Q 2188 391 2477 730 
Q 2766 1069 2766 1631 
L 2766 1759 
L 2194 1759 
z
M 3341 1997 
L 3341 0 
L 2766 0 
L 2766 531 
Q 2569 213 2275 61 
Q 1981 -91 1556 -91 
Q 1019 -91 701 211 
Q 384 513 384 1019 
Q 384 1609 779 1909 
Q 1175 2209 1959 2209 
L 2766 2209 
L 2766 2266 
Q 2766 2663 2505 2880 
Q 2244 3097 1772 3097 
Q 1472 3097 1187 3025 
Q 903 2953 641 2809 
L 641 3341 
Q 956 3463 1253 3523 
Q 1550 3584 1831 3584 
Q 2591 3584 2966 3190 
Q 3341 2797 3341 1997 
z
" transform="scale(0.015625)"/>
       <path id="DejaVuSans-6c" d="M 603 4863 
L 1178 4863 
L 1178 0 
L 603 0 
L 603 4863 
z
" transform="scale(0.015625)"/>
       <path id="DejaVuSans-56" d="M 1831 0 
L 50 4666 
L 709 4666 
L 2188 738 
L 3669 4666 
L 4325 4666 
L 2547 0 
L 1831 0 
z
" transform="scale(0.015625)"/>
      </defs>
      <use xlink:href="#DejaVuSans-54"/>
      <use xlink:href="#DejaVuSans-65" transform="translate(44.083984 0)"/>
      <use xlink:href="#DejaVuSans-6e" transform="translate(105.607422 0)"/>
      <use xlink:href="#DejaVuSans-73" transform="translate(168.986328 0)"/>
      <use xlink:href="#DejaVuSans-69" transform="translate(221.085938 0)"/>
      <use xlink:href="#DejaVuSans-f3" transform="translate(248.869141 0)"/>
      <use xlink:href="#DejaVuSans-6e" transform="translate(310.050781 0)"/>
      <use xlink:href="#DejaVuSans-20" transform="translate(373.429688 0)"/>
      <use xlink:href="#DejaVuSans-64" transform="translate(405.216797 0)"/>
      <use xlink:href="#DejaVuSans-65" transform="translate(468.693359 0)"/>
      <use xlink:href="#DejaVuSans-20" transform="translate(530.216797 0)"/>
      <use xlink:href="#DejaVuSans-53" transform="translate(562.003906 0)"/>
      <use xlink:href="#DejaVuSans-61" transform="translate(625.480469 0)"/>
      <use xlink:href="#DejaVuSans-6c" transform="translate(686.759766 0)"/>
      <use xlink:href="#DejaVuSans-69" transform="translate(714.542969 0)"/>
      <use xlink:href="#DejaVuSans-64" transform="translate(742.326172 0)"/>
      <use xlink:href="#DejaVuSans-61" transform="translate(805.802734 0)"/>
      <use xlink:href="#DejaVuSans-20" transform="translate(867.082031 0)"/>
      <use xlink:href="#DejaVuSans-28" transform="translate(898.869141 0)"/>
      <use xlink:href="#DejaVuSans-56" transform="translate(937.882812 0)"/>
      <use xlink:href="#DejaVuSans-29" transform="translate(1006.291016 0)"/>
     </g>
    </g>
   </g>
   <g id="line2d_29">
    <path d="M 69.919574 200.870863 
L 72.71097 200.7903 
L 73.979786 200.507106 
L 74.994839 200.041927 
L 76.009892 199.316713 
L 77.024945 198.308804 
L 78.039998 197.010537 
L 79.308814 194.983877 
L 80.57763 192.526489 
L 82.10021 189.047906 
L 83.876552 184.329315 
L 85.906658 178.179327 
L 88.190528 170.458955 
L 90.981923 160.133471 
L 94.534609 146.050556 
L 105.953955 100.032939 
L 108.999114 88.985544 
L 111.536746 80.532634 
L 113.820615 73.616741 
L 115.850721 68.084814 
L 117.880827 63.182777 
L 119.65717 59.443947 
L 121.433513 56.245319 
L 122.956092 53.950247 
L 124.478672 52.080013 
L 125.747488 50.853342 
L 127.016304 49.933629 
L 128.28512 49.324929 
L 129.300173 49.064083 
L 130.315226 49.005611 
L 131.330279 49.150427 
L 132.345332 49.499106 
L 133.360385 50.051883 
L 134.629201 51.029686 
L 135.898018 52.325292 
L 137.166834 53.936977 
L 138.689413 56.284629 
L 140.211993 59.077953 
L 141.734572 62.30955 
L 143.510915 66.62166 
L 145.287258 71.501302 
L 147.317364 77.747892 
L 149.601233 85.589433 
L 151.885102 94.241316 
L 154.422735 104.732107 
L 157.21413 117.234302 
L 160.259289 131.872924 
L 163.811975 150.030542 
L 168.379713 174.601822 
L 183.859271 259.032506 
L 187.411956 276.67109 
L 190.457115 290.7481 
L 193.248511 302.644535 
L 195.786144 312.511847 
L 198.070013 320.545333 
L 200.100119 326.963661 
L 202.130225 332.663897 
L 203.906567 337.037076 
L 205.68291 340.816751 
L 207.20549 343.5716 
L 208.728069 345.86954 
L 209.996885 347.430133 
L 211.265701 348.664859 
L 212.534518 349.570984 
L 213.549571 350.057919 
L 214.564624 350.332565 
L 215.579677 350.394536 
L 216.59473 350.243748 
L 217.609783 349.880418 
L 218.624836 349.305069 
L 219.893652 348.289009 
L 221.162468 346.945238 
L 222.431284 345.276748 
L 223.953864 342.851212 
L 225.476443 339.971238 
L 226.999023 336.64605 
L 228.775365 332.218249 
L 230.551708 327.218308 
L 232.581814 320.831573 
L 234.865683 312.832772 
L 237.149552 304.028006 
L 239.687185 293.376952 
L 242.478581 280.71529 
L 245.777503 264.656179 
L 249.583952 244.953033 
L 254.659216 217.38345 
L 266.586089 152.058084 
L 270.392538 132.620554 
L 273.69146 116.863421 
L 276.482856 104.505585 
L 279.020488 94.166367 
L 281.55812 84.775202 
L 283.84199 77.203163 
L 285.872096 71.218443 
L 287.648438 66.585839 
L 289.424781 62.538165 
L 290.94736 59.547688 
L 292.46994 57.009475 
L 293.992519 54.931641 
L 295.261336 53.55663 
L 296.530152 52.509025 
L 297.798968 51.791153 
L 298.814021 51.455361 
L 299.829074 51.33211 
L 300.844127 51.421578 
L 301.85918 51.723635 
L 302.874233 52.237853 
L 303.889286 52.9635 
L 305.158102 54.166279 
L 306.426918 55.695108 
L 307.695735 57.546587 
L 309.218314 60.188419 
L 310.740894 63.28045 
L 312.517236 67.443541 
L 314.293579 72.187746 
L 316.323685 78.29464 
L 318.353791 85.098729 
L 320.63766 93.538357 
L 323.175293 103.818963 
L 325.966688 116.119801 
L 329.011847 130.572995 
L 332.564533 148.557701 
L 336.878508 171.588604 
L 344.998932 216.490614 
L 350.835486 248.125171 
L 354.895698 268.911374 
L 358.19462 284.683191 
L 361.239779 298.131187 
L 363.777412 308.394828 
L 366.061281 316.817699 
L 368.34515 324.405745 
L 370.375256 330.405495 
L 372.151599 335.051799 
L 373.927942 339.113625 
L 375.450521 342.116544 
L 376.973101 344.667446 
L 378.49568 346.758175 
L 379.764496 348.144059 
L 381.033313 349.202628 
L 382.302129 349.93153 
L 383.317182 350.276179 
L 384.332235 350.408298 
L 385.347288 350.327703 
L 386.362341 350.034506 
L 387.377394 349.529124 
L 388.392447 348.812278 
L 389.661263 347.620429 
L 390.930079 346.10243 
L 392.198895 344.261656 
L 393.721475 341.632473 
L 395.244054 338.552837 
L 397.020397 334.403831 
L 398.79674 329.673252 
L 400.826846 323.581289 
L 402.856952 316.791367 
L 405.140821 308.366662 
L 407.678453 298.101253 
L 410.469849 285.815289 
L 413.515008 271.375944 
L 417.067693 253.404033 
L 421.381669 230.383496 
L 429.248329 186.888052 
L 435.084884 155.180127 
L 439.145096 134.299365 
L 442.444018 118.426059 
L 445.489177 104.866128 
L 448.026809 94.496838 
L 450.564442 85.072656 
L 452.848311 77.46863 
L 454.878417 71.45387 
L 456.65476 66.79388 
L 458.431102 62.717917 
L 459.953682 59.702567 
L 461.476261 57.138988 
L 462.998841 55.035373 
L 464.267657 53.638622 
L 465.536473 52.569095 
L 466.805289 51.829168 
L 467.820342 51.475669 
L 468.835395 51.334683 
L 469.850448 51.406412 
L 470.865501 51.690752 
L 471.880554 52.187301 
L 472.895607 52.89535 
L 474.164424 54.076273 
L 475.43324 55.583445 
L 476.702056 57.413517 
L 478.224635 60.030055 
L 479.747215 63.0973 
L 481.523558 67.232223 
L 483.2999 71.94918 
L 485.330006 78.026215 
L 487.360112 84.801974 
L 489.643982 93.211758 
L 492.181614 103.461973 
L 494.97301 115.733063 
L 498.018169 130.158558 
L 501.570854 148.117677 
L 505.884829 171.12785 
L 513.75149 214.619704 
L 519.841808 247.679053 
L 523.90202 268.492561 
L 527.200942 284.293598 
L 530.246101 297.773774 
L 532.783733 308.067755 
L 535.067602 316.520439 
L 537.351472 324.140446 
L 539.381578 330.170216 
L 541.411684 335.464363 
L 543.188026 339.469584 
L 544.710606 342.422744 
L 546.233185 344.922909 
L 547.755765 346.962085 
L 549.024581 348.304503 
L 550.293397 349.31925 
L 551.30845 349.893585 
L 552.323503 350.255935 
L 553.338556 350.405786 
L 554.353609 350.342925 
L 555.368662 350.067441 
L 556.383715 349.579725 
L 557.398768 348.880473 
L 558.667584 347.710477 
L 559.9364 346.214131 
L 561.205217 344.394761 
L 562.727796 341.790869 
L 564.250376 338.736015 
L 566.026718 334.615175 
L 567.803061 329.911841 
L 569.833167 323.849734 
L 571.863273 317.088139 
L 574.147142 308.693275 
L 576.684775 298.458254 
L 577.192301 296.304831 
L 577.192301 296.304831 
" clip-path="url(#p3ee08a7ef1)" style="fill: none; stroke: #1f77b4; stroke-width: 2.5; stroke-linecap: square"/>
   </g>
   <g id="line2d_30">
    <path d="M 69.919574 200.870863 
L 72.203443 200.782049 
L 73.218496 200.504059 
L 74.233549 199.939081 
L 75.248602 199.049399 
L 76.263655 197.830898 
L 77.278708 196.294907 
L 78.547524 193.955317 
L 80.070104 190.583228 
L 81.592683 186.65863 
L 83.369026 181.468295 
L 85.399132 174.849958 
L 87.936764 165.748752 
L 90.981923 153.942189 
L 95.803425 134.188253 
L 102.401269 107.270153 
L 105.700191 94.710219 
L 108.491587 84.878734 
L 111.02922 76.727309 
L 113.313089 70.128625 
L 115.343195 64.911426 
L 117.119537 60.884322 
L 118.89588 57.387508 
L 120.41846 54.830228 
L 121.941039 52.692791 
L 123.209855 51.24039 
L 124.478672 50.092815 
L 125.747488 49.254722 
L 126.762541 48.809661 
L 127.777594 48.566684 
L 128.792647 48.527006 
L 129.8077 48.6915 
L 130.822753 49.060702 
L 131.837806 49.634806 
L 133.106622 50.640334 
L 134.375438 51.964774 
L 135.644254 53.60632 
L 137.166834 55.991042 
L 138.689413 58.822648 
L 140.211993 62.093591 
L 141.988336 66.452754 
L 143.764678 71.380457 
L 145.794784 77.682907 
L 148.078653 85.588051 
L 150.362523 94.303857 
L 152.900155 104.865439 
L 155.691551 117.444435 
L 158.990473 133.432749 
L 162.796922 153.097359 
L 167.618423 179.293243 
L 181.321639 254.517638 
L 185.128087 273.748092 
L 188.427009 289.246599 
L 191.218405 301.33166 
L 193.756038 311.382798 
L 196.039907 319.590382 
L 198.323776 326.942176 
L 200.353882 332.715848 
L 202.130225 337.153052 
L 203.906567 340.996246 
L 205.429147 343.804927 
L 206.951726 346.155956 
L 208.220543 347.760096 
L 209.489359 349.037636 
L 210.758175 349.985748 
L 211.773228 350.505614 
L 212.788281 350.812553 
L 213.803334 350.906135 
L 214.818387 350.78623 
L 215.83344 350.453012 
L 216.848493 349.906959 
L 218.117309 348.926311 
L 219.386125 347.616535 
L 220.654942 345.980548 
L 222.177521 343.591944 
L 223.7001 340.746529 
L 225.22268 337.453419 
L 226.999023 333.059767 
L 228.775365 328.09031 
L 230.805471 321.73375 
L 233.089341 313.762751 
L 235.37321 304.979088 
L 237.910842 294.343441 
L 240.702238 281.688795 
L 244.00116 265.624472 
L 247.807609 245.897252 
L 252.882874 218.266339 
L 265.063509 151.341792 
L 268.869958 131.870611 
L 272.16888 116.096372 
L 274.960276 103.73302 
L 277.497908 93.395997 
L 280.035541 84.013935 
L 282.31941 76.455893 
L 284.349516 70.48814 
L 286.125859 65.873792 
L 287.902202 61.847471 
L 289.424781 58.877695 
L 290.94736 56.362324 
L 292.46994 54.309404 
L 293.738756 52.956679 
L 295.007572 51.932693 
L 296.022625 51.35175 
L 297.037678 50.983497 
L 298.052731 50.828457 
L 299.067784 50.886851 
L 300.082837 51.158596 
L 301.09789 51.643306 
L 302.112943 52.340289 
L 303.38176 53.508491 
L 304.650576 55.004204 
L 305.919392 56.824103 
L 307.441971 59.430164 
L 308.964551 62.48885 
L 310.740894 66.616248 
L 312.517236 71.328361 
L 314.547342 77.403169 
L 316.577448 84.180243 
L 318.861317 92.595728 
L 321.39895 102.85747 
L 324.190346 115.147427 
L 327.235505 129.600672 
L 330.78819 147.601141 
L 335.102165 170.673511 
L 342.715063 212.897687 
L 348.80538 246.148737 
L 352.865592 267.134109 
L 356.164515 283.097669 
L 359.209673 296.743852 
L 361.747306 307.18637 
L 364.284938 316.68431 
L 366.568808 324.354616 
L 368.598914 330.427806 
L 370.629019 335.763898 
L 372.405362 339.80443 
L 373.927942 342.786701 
L 375.450521 345.31481 
L 376.973101 347.380676 
L 378.241917 348.744315 
L 379.510733 349.779306 
L 380.779549 350.483348 
L 381.794602 350.807221 
L 382.809655 350.917812 
L 383.824708 350.814962 
L 384.839761 350.498817 
L 385.854814 349.969828 
L 387.12363 349.010454 
L 388.392447 347.721841 
L 389.661263 346.106853 
L 391.183842 343.743157 
L 392.706422 340.922253 
L 394.229001 337.653169 
L 396.005344 333.286822 
L 397.781687 328.343767 
L 399.811793 322.016121 
L 402.095662 314.075828 
L 404.379531 305.320717 
L 406.917164 294.714007 
L 409.708559 282.087487 
L 413.007481 266.050981 
L 416.81393 246.348024 
L 421.635432 220.139532 
L 434.577357 149.123096 
L 438.383806 129.786309 
L 441.682728 114.162319 
L 444.474124 101.948896 
L 447.011756 91.764925 
L 449.295626 83.425848 
L 451.579495 75.932407 
L 453.609601 70.025254 
L 455.385943 65.466098 
L 457.162286 61.496742 
L 458.684866 58.577016 
L 460.207445 56.112659 
L 461.730025 54.111551 
L 462.998841 52.802494 
L 464.267657 51.822519 
L 465.28271 51.276967 
L 466.297763 50.94421 
L 467.312816 50.824724 
L 468.327869 50.918677 
L 469.342922 51.225936 
L 470.357975 51.746063 
L 471.373028 52.47832 
L 472.641844 53.690331 
L 473.91066 55.22945 
L 475.179477 57.092255 
L 476.702056 59.749007 
L 478.224635 62.857367 
L 480.000978 67.041216 
L 481.777321 71.807932 
L 483.807427 77.942573 
L 485.837533 84.776412 
L 488.121402 93.251693 
L 490.659035 103.574323 
L 493.45043 115.923888 
L 496.495589 130.432622 
L 500.048275 148.484342 
L 504.36225 171.598226 
L 512.482674 216.654076 
L 518.319228 248.390846 
L 522.37944 269.241086 
L 525.678362 285.059494 
L 528.723521 298.545519 
L 531.261154 308.836827 
L 533.545023 317.281239 
L 535.828892 324.88748 
L 537.858998 330.900491 
L 539.635341 335.556092 
L 541.411684 339.625019 
L 542.934263 342.632253 
L 544.456842 345.185821 
L 545.979422 347.277558 
L 547.248238 348.663013 
L 548.517054 349.72 
L 549.785871 350.44617 
L 550.800924 350.787809 
L 551.815977 350.916192 
L 552.83103 350.831135 
L 553.846083 350.532762 
L 554.861136 350.021496 
L 555.876189 349.298065 
L 557.145005 348.097014 
L 558.413821 346.568754 
L 559.682637 344.716681 
L 561.205217 342.072608 
L 562.727796 338.976673 
L 564.504139 334.806942 
L 566.280482 330.053881 
L 568.310588 323.9342 
L 570.340694 317.114551 
L 572.624563 308.654216 
L 575.162195 298.346801 
L 577.192301 289.473595 
L 577.192301 289.473595 
" clip-path="url(#p3ee08a7ef1)" style="fill: none; stroke: #ff7f0e; stroke-width: 3; stroke-linecap: square"/>
   </g>
   <g id="line2d_31">
    <path d="M 69.919574 200.870863 
L 73.218496 200.787067 
L 74.487312 200.56147 
L 75.756129 200.099399 
L 76.771181 199.516134 
L 77.786234 198.718424 
L 79.055051 197.398731 
L 80.323867 195.708528 
L 81.592683 193.646267 
L 83.115263 190.691517 
L 84.637842 187.237431 
L 86.414185 182.623017 
L 88.444291 176.65862 
L 90.72816 169.195802 
L 93.519556 159.214962 
L 97.072241 145.572937 
L 109.252877 97.953137 
L 112.298036 87.361639 
L 114.835668 79.304295 
L 117.119537 72.753288 
L 119.149643 67.550511 
L 121.179749 62.980198 
L 122.956092 59.532276 
L 124.478672 57.005499 
L 126.001251 54.888274 
L 127.270067 53.445025 
L 128.538884 52.299755 
L 129.8077 51.45726 
L 131.076516 50.921495 
L 132.091569 50.715849 
L 133.106622 50.709728 
L 134.121675 50.904003 
L 135.136728 51.299207 
L 136.151781 51.895535 
L 137.420597 52.923538 
L 138.689413 54.264575 
L 139.95823 55.916862 
L 141.480809 58.306792 
L 143.003388 61.135296 
L 144.779731 64.979492 
L 146.556074 69.39597 
L 148.58618 75.121955 
L 150.616286 81.543018 
L 152.900155 89.554894 
L 155.437788 99.371215 
L 157.97542 110.068759 
L 161.020579 123.938886 
L 164.319501 140.045806 
L 168.379713 161.068934 
L 173.962504 191.313299 
L 183.605508 243.697952 
L 187.66572 264.478446 
L 190.964642 280.314406 
L 194.009801 293.876364 
L 196.801196 305.265264 
L 199.338829 314.646454 
L 201.622698 322.226038 
L 203.652804 328.230662 
L 205.68291 333.510038 
L 207.459253 337.510971 
L 208.981832 340.466924 
L 210.504412 342.975874 
L 212.026991 345.029822 
L 213.295807 346.389108 
L 214.564624 347.424839 
L 215.83344 348.134724 
L 216.848493 348.466946 
L 217.863546 348.589141 
L 218.878599 348.501139 
L 219.893652 348.203072 
L 220.908705 347.695367 
L 222.177521 346.767066 
L 223.446337 345.514431 
L 224.715153 343.940252 
L 226.237733 341.631785 
L 227.760312 338.872776 
L 229.282892 335.672063 
L 231.059235 331.393386 
L 232.835577 326.546158 
L 234.865683 320.337488 
L 237.149552 312.54231 
L 239.433422 303.94325 
L 241.971054 293.521402 
L 244.76245 281.110296 
L 248.061372 265.341602 
L 251.867821 245.960485 
L 256.689322 220.169763 
L 269.885011 148.926149 
L 273.69146 129.949888 
L 276.990382 114.63598 
L 279.781778 102.679618 
L 282.31941 92.722632 
L 284.603279 84.580613 
L 286.887149 77.275883 
L 288.917255 71.528366 
L 290.693597 67.101894 
L 292.46994 63.258093 
L 293.992519 60.439899 
L 295.515099 58.071112 
L 296.783915 56.445928 
L 298.052731 55.141728 
L 299.321548 54.161411 
L 300.336601 53.611841 
L 301.351654 53.271746 
L 302.366707 53.141609 
L 303.38176 53.221615 
L 304.396812 53.511652 
L 305.411865 54.011305 
L 306.680682 54.929535 
L 307.949498 56.172118 
L 309.218314 57.736291 
L 310.48713 59.61858 
L 312.00971 62.291298 
L 313.532289 65.407486 
L 315.308632 69.590155 
L 317.084975 74.344586 
L 319.115081 80.451665 
L 321.145187 87.243669 
L 323.429056 95.655124 
L 325.966688 105.886567 
L 328.758084 118.112135 
L 331.803243 132.458824 
L 335.355928 150.288902 
L 339.923667 174.461202 
L 355.910751 260.339215 
L 359.463437 277.621753 
L 362.508596 291.383754 
L 365.299991 302.986524 
L 367.837624 312.585209 
L 370.121493 320.377457 
L 372.151599 326.583135 
L 374.181705 332.073574 
L 375.958048 336.26639 
L 377.73439 339.869466 
L 379.25697 342.476486 
L 380.779549 344.630343 
L 382.048366 346.074043 
L 383.317182 347.195028 
L 384.585998 347.990809 
L 385.601051 348.392073 
L 386.616104 348.583488 
L 387.631157 348.564783 
L 388.64621 348.335985 
L 389.661263 347.897419 
L 390.676316 347.249709 
L 391.945132 346.147394 
L 393.213948 344.722202 
L 394.482765 342.977303 
L 396.005344 340.466919 
L 397.527923 337.509811 
L 399.304266 333.507946 
L 401.080609 328.928408 
L 403.110715 323.012997 
L 405.140821 316.402858 
L 407.42469 308.182999 
L 409.962323 298.146681 
L 412.753718 286.112171 
L 415.798877 271.943404 
L 419.351563 254.27775 
L 423.665538 231.608153 
L 430.770909 192.834891 
L 437.368753 157.273163 
L 441.428965 136.554522 
L 444.727887 120.775414 
L 447.773046 107.271229 
L 450.564442 95.939619 
L 453.102074 86.613897 
L 455.385943 79.086763 
L 457.416049 73.130567 
L 459.446155 67.901123 
L 461.222498 63.944952 
L 462.745078 61.028046 
L 464.267657 58.558668 
L 465.790236 56.544713 
L 467.059053 55.219001 
L 468.327869 54.217001 
L 469.596685 53.540938 
L 470.611738 53.235798 
L 471.626791 53.140667 
L 472.641844 53.255682 
L 473.656897 53.580679 
L 474.67195 54.115194 
L 475.940766 55.076788 
L 477.209583 56.362408 
L 478.478399 57.969198 
L 480.000978 60.31621 
L 481.523558 63.113014 
L 483.046137 66.35066 
L 484.82248 70.671188 
L 486.598823 75.558771 
L 488.628929 81.811518 
L 490.912798 89.653392 
L 493.196667 98.29578 
L 495.734299 108.761459 
L 498.525695 121.21511 
L 501.824617 137.02585 
L 505.631066 156.443654 
L 510.706331 183.644343 
L 522.886967 249.540867 
L 526.693415 268.717028 
L 529.992338 284.253946 
L 532.783733 296.432581 
L 535.321366 306.616299 
L 537.858998 315.860486 
L 540.142867 323.308636 
L 542.172973 329.190658 
L 543.949316 333.739606 
L 545.725659 337.709795 
L 547.248238 340.639019 
L 548.770818 343.120954 
L 550.293397 345.147665 
L 551.562213 346.48413 
L 552.83103 347.496968 
L 554.099846 348.183931 
L 555.114899 348.49782 
L 556.129952 348.60171 
L 557.145005 348.495455 
L 558.160058 348.179204 
L 559.175111 347.653408 
L 560.443927 346.702658 
L 561.712743 345.427798 
L 562.981559 343.831661 
L 564.504139 341.497256 
L 566.026718 338.712829 
L 567.549298 335.487292 
L 569.325641 331.180498 
L 571.101983 326.306168 
L 573.132089 320.067908 
L 575.415958 312.241391 
L 577.192301 305.597492 
L 577.192301 305.597492 
" clip-path="url(#p3ee08a7ef1)" style="fill: none; stroke-dasharray: 16,4,2.5,4; stroke-dashoffset: 0; stroke: #9467bd; stroke-width: 2.5"/>
   </g>
   <g id="line2d_32">
    <path d="M 69.919574 200.870863 
L 73.979786 200.77642 
L 75.756129 200.48329 
L 77.278708 199.975482 
L 78.547524 199.32595 
L 79.81634 198.443725 
L 81.085157 197.311059 
L 82.353973 195.91639 
L 83.876552 193.888528 
L 85.399132 191.47256 
L 87.175475 188.171516 
L 88.951817 184.37063 
L 90.981923 179.453317 
L 93.265792 173.258205 
L 95.803425 165.662206 
L 98.848584 155.753426 
L 102.655033 142.532868 
L 114.074379 102.315235 
L 117.119537 92.642665 
L 119.65717 85.239053 
L 121.941039 79.184449 
L 123.971145 74.347919 
L 126.001251 70.072592 
L 127.777594 66.824346 
L 129.553936 64.061457 
L 131.076516 62.095785 
L 132.599095 60.514028 
L 133.867912 59.496432 
L 135.136728 58.757339 
L 136.405544 58.300876 
L 137.420597 58.141466 
L 138.43565 58.166431 
L 139.450703 58.376795 
L 140.719519 58.9015 
L 141.988336 59.717628 
L 143.257152 60.825075 
L 144.525968 62.222972 
L 146.048547 64.281507 
L 147.571127 66.751699 
L 149.093706 69.627819 
L 150.870049 73.486643 
L 152.646392 77.874186 
L 154.676498 83.514647 
L 156.706604 89.795441 
L 158.990473 97.585957 
L 161.528105 107.080352 
L 164.319501 118.450783 
L 167.36466 131.828048 
L 170.917345 148.502479 
L 175.231321 169.904334 
L 182.082928 205.22863 
L 188.934536 240.211966 
L 192.994748 259.865859 
L 196.547433 275.969665 
L 199.592592 288.738021 
L 202.383988 299.455673 
L 204.92162 308.279873 
L 207.20549 315.40595 
L 209.235596 321.048276 
L 211.265701 326.005931 
L 213.042044 329.760064 
L 214.564624 332.531132 
L 216.087203 334.880455 
L 217.609783 336.800557 
L 218.878599 338.06832 
L 220.147415 339.03095 
L 221.416231 339.686323 
L 222.431284 339.988406 
L 223.446337 340.092487 
L 224.46139 339.998425 
L 225.476443 339.70636 
L 226.491496 339.216713 
L 227.760312 338.327902 
L 229.029129 337.133472 
L 230.297945 335.636088 
L 231.820524 333.444072 
L 233.343104 330.827671 
L 234.865683 327.795271 
L 236.642026 323.744728 
L 238.418369 319.158899 
L 240.448475 313.288245 
L 242.732344 305.921101 
L 245.016213 297.797681 
L 247.553846 287.95599 
L 250.345241 276.239899 
L 253.644163 261.359396 
L 257.450612 243.076401 
L 262.272114 218.756284 
L 275.214039 152.854765 
L 279.020488 134.910308 
L 282.31941 120.411361 
L 285.110806 109.077512 
L 287.648438 99.626977 
L 289.932308 91.888351 
L 292.216177 84.934287 
L 294.246283 79.452189 
L 296.022625 75.221013 
L 297.798968 71.537147 
L 299.321548 68.827372 
L 300.844127 66.540169 
L 302.366707 64.682851 
L 303.635523 63.467797 
L 304.904339 62.558121 
L 306.173155 61.955846 
L 307.188208 61.696275 
L 308.203261 61.634679 
L 309.218314 61.771146 
L 310.233367 62.105481 
L 311.24842 62.637207 
L 312.517236 63.578269 
L 313.786053 64.824463 
L 315.054869 66.373017 
L 316.577448 68.625506 
L 318.100028 71.301196 
L 319.87637 74.946213 
L 321.652713 79.139667 
L 323.682819 84.580203 
L 325.712925 90.682183 
L 327.996794 98.294184 
L 330.534427 107.615327 
L 333.325822 118.822143 
L 336.370981 132.049151 
L 339.923667 148.580576 
L 344.237642 169.84872 
L 350.835486 203.721949 
L 358.19462 241.209562 
L 362.254832 260.780685 
L 365.553755 275.699882 
L 368.598914 288.479973 
L 371.390309 299.2148 
L 373.927942 308.059326 
L 376.211811 315.20709 
L 378.241917 320.871081 
L 380.272023 325.852381 
L 382.048366 329.628657 
L 383.824708 332.844106 
L 385.347288 335.143164 
L 386.869867 337.012523 
L 388.138683 338.237726 
L 389.4075 339.157628 
L 390.676316 339.770188 
L 391.691369 340.038011 
L 392.706422 340.10787 
L 393.721475 339.979664 
L 394.736528 339.653578 
L 395.751581 339.130073 
L 397.020397 338.199236 
L 398.289213 336.963188 
L 399.558029 335.424676 
L 401.080609 333.184069 
L 402.603188 330.520045 
L 404.125768 327.441129 
L 405.902111 323.337901 
L 407.678453 318.701294 
L 409.708559 312.775211 
L 411.992428 305.349377 
L 414.276298 297.171536 
L 416.81393 287.274834 
L 419.605326 275.505399 
L 422.904248 260.572251 
L 426.710697 242.243429 
L 431.785962 216.585649 
L 443.966597 154.502711 
L 447.773046 136.458136 
L 451.071968 121.84738 
L 453.863364 110.402033 
L 456.400996 100.837736 
L 458.684866 92.987476 
L 460.968735 85.913858 
L 462.998841 80.319545 
L 465.028947 75.411053 
L 466.805289 71.700726 
L 468.327869 68.9677 
L 469.850448 66.656801 
L 471.373028 64.775415 
L 472.641844 63.540076 
L 473.91066 62.609955 
L 475.179477 61.987121 
L 476.19453 61.711052 
L 477.209583 61.632937 
L 478.224635 61.752887 
L 479.239688 62.070732 
L 480.254741 62.586019 
L 481.523558 63.506637 
L 482.792374 64.732546 
L 484.06119 66.261022 
L 485.58377 68.48975 
L 487.106349 71.142114 
L 488.628929 74.209625 
L 490.405271 78.299918 
L 492.181614 82.924042 
L 494.21172 88.836485 
L 496.495589 96.247862 
L 498.779458 104.412286 
L 501.317091 114.29542 
L 504.108487 126.051696 
L 507.407409 140.971863 
L 511.213857 159.289406 
L 516.289122 184.938673 
L 528.469758 247.032661 
L 532.276207 265.089562 
L 535.575129 279.714144 
L 538.366525 291.173315 
L 540.904157 300.751739 
L 543.44179 309.442777 
L 545.725659 316.44183 
L 547.755765 321.966135 
L 549.532107 326.235756 
L 551.30845 329.959302 
L 552.83103 332.703944 
L 554.353609 335.026685 
L 555.876189 336.920098 
L 557.145005 338.165575 
L 558.413821 339.105912 
L 559.682637 339.739022 
L 560.69769 340.023337 
L 561.712743 340.109708 
L 562.727796 339.998013 
L 563.742849 339.688411 
L 564.757902 339.181341 
L 566.026718 338.270941 
L 567.295535 337.055172 
L 568.564351 335.536732 
L 570.08693 333.319882 
L 571.60951 330.679178 
L 573.132089 327.623072 
L 574.908432 323.545714 
L 576.684775 318.934073 
L 577.192301 317.522122 
L 577.192301 317.522122 
" clip-path="url(#p3ee08a7ef1)" style="fill: none; stroke-dasharray: 9.25,4; stroke-dashoffset: 0; stroke: #2ca02c; stroke-width: 2.5"/>
   </g>
   <g id="line2d_33">
    <path d="M 69.919574 200.870863 
L 76.517418 200.769699 
L 79.562577 200.479222 
L 82.10021 200.017277 
L 84.384079 199.393821 
L 86.667948 198.550746 
L 88.951817 197.47296 
L 91.235686 196.151481 
L 93.519556 194.582866 
L 96.057188 192.552175 
L 98.594821 190.227093 
L 101.386216 187.347311 
L 104.431375 183.852186 
L 107.730297 179.700166 
L 111.536746 174.523281 
L 116.358248 167.550504 
L 129.8077 147.83742 
L 133.614148 142.794047 
L 136.659307 139.100679 
L 139.450703 136.039615 
L 141.988336 133.564833 
L 144.272205 131.614536 
L 146.556074 129.947643 
L 148.58618 128.718518 
L 150.616286 127.738778 
L 152.646392 127.01811 
L 154.422735 126.606486 
L 156.199077 126.403929 
L 157.97542 126.413938 
L 159.751763 126.639042 
L 161.528105 127.080787 
L 163.304448 127.739728 
L 165.080791 128.615425 
L 167.110897 129.879757 
L 169.141003 131.421589 
L 171.171109 133.23555 
L 173.454978 135.592759 
L 175.738847 138.273116 
L 178.27648 141.61219 
L 181.067875 145.696366 
L 183.859271 150.176075 
L 187.158193 155.924234 
L 190.710879 162.582865 
L 195.024854 171.176996 
L 200.861408 183.358263 
L 211.265701 205.138762 
L 215.579677 213.620989 
L 219.132362 220.149373 
L 222.431284 225.743758 
L 225.22268 230.067051 
L 227.760312 233.632842 
L 230.297945 236.821872 
L 232.581814 239.348829 
L 234.865683 241.533917 
L 236.895789 243.178085 
L 238.925895 244.533303 
L 240.702238 245.477046 
L 242.478581 246.191431 
L 244.254923 246.674201 
L 246.031266 246.924088 
L 247.807609 246.94082 
L 249.583952 246.725117 
L 251.360294 246.278695 
L 253.136637 245.604254 
L 254.91298 244.70547 
L 256.943086 243.409572 
L 258.973192 241.835158 
L 261.003298 239.992201 
L 263.287167 237.612223 
L 265.824799 234.608834 
L 268.362432 231.255211 
L 271.153827 227.199441 
L 274.198986 222.389209 
L 277.751672 216.352443 
L 282.065647 208.558272 
L 288.663491 196.104798 
L 296.276389 181.831271 
L 300.590364 174.211591 
L 304.143049 168.373946 
L 307.188208 163.770433 
L 309.979604 159.930101 
L 312.517236 156.791059 
L 315.054869 154.017296 
L 317.338738 151.854421 
L 319.368844 150.210834 
L 321.39895 148.840054 
L 323.429056 147.750304 
L 325.205399 147.032545 
L 326.981741 146.538436 
L 328.758084 146.270394 
L 330.534427 146.229843 
L 332.310769 146.417211 
L 334.087112 146.831929 
L 335.863455 147.472429 
L 337.639798 148.336154 
L 339.669904 149.592029 
L 341.70001 151.128004 
L 343.730115 152.935663 
L 346.013985 155.281558 
L 348.297854 157.942191 
L 350.835486 161.244731 
L 353.626882 165.265099 
L 356.672041 170.065339 
L 359.970963 175.685025 
L 364.031175 183.079575 
L 369.10644 192.824509 
L 382.302129 218.398083 
L 386.362341 225.644475 
L 389.661263 231.10708 
L 392.706422 235.734947 
L 395.497818 239.575838 
L 398.03545 242.698793 
L 400.319319 245.185555 
L 402.603188 247.347051 
L 404.633294 248.982844 
L 406.6634 250.340294 
L 408.693506 251.411809 
L 410.469849 252.110096 
L 412.246192 252.581913 
L 414.022534 252.825283 
L 415.798877 252.839227 
L 417.57522 252.623761 
L 419.351563 252.179897 
L 421.127905 251.509643 
L 422.904248 250.61599 
L 424.934354 249.326247 
L 426.96446 247.757361 
L 428.994566 245.918355 
L 431.278435 243.539796 
L 433.562304 240.850021 
L 436.099937 237.520151 
L 438.891332 233.476973 
L 441.936491 228.661852 
L 445.489177 222.591647 
L 449.549389 215.187997 
L 455.13218 204.496358 
L 465.790236 183.998031 
L 470.104212 176.257014 
L 473.656897 170.341237 
L 476.702056 165.685373 
L 479.493452 161.808073 
L 482.031084 158.64389 
L 484.314953 156.114036 
L 486.598823 153.904376 
L 488.628929 152.222 
L 490.659035 150.814878 
L 492.68914 149.691053 
L 494.465483 148.945197 
L 496.241826 148.424464 
L 498.018169 148.131148 
L 499.794511 148.066551 
L 501.570854 148.230979 
L 503.347197 148.623737 
L 505.123539 149.243138 
L 506.899882 150.086507 
L 508.929988 151.319875 
L 510.960094 152.833985 
L 512.9902 154.620257 
L 515.274069 156.942457 
L 517.557939 159.579574 
L 520.095571 162.855937 
L 522.886967 166.847142 
L 525.932126 171.61475 
L 529.231048 177.197689 
L 533.29126 184.54441 
L 538.366525 194.224622 
L 551.30845 219.135117 
L 555.368662 226.343006 
L 558.667584 231.778747 
L 561.712743 236.385106 
L 564.504139 240.208872 
L 567.041771 243.318255 
L 569.325641 245.79431 
L 571.60951 247.946414 
L 573.639616 249.574875 
L 575.669722 250.925865 
L 577.192301 251.752798 
L 577.192301 251.752798 
" clip-path="url(#p3ee08a7ef1)" style="fill: none; stroke-dasharray: 2.5,4.125; stroke-dashoffset: 0; stroke: #d62728; stroke-width: 2.5"/>
   </g>
   <g id="patch_3">
    <path d="M 44.555937 366.037812 
L 44.555937 33.397812 
" style="fill: none; stroke: #000000; stroke-width: 0.8; stroke-linejoin: miter; stroke-linecap: square"/>
   </g>
   <g id="patch_4">
    <path d="M 602.555938 366.037812 
L 602.555938 33.397812 
" style="fill: none; stroke: #000000; stroke-width: 0.8; stroke-linejoin: miter; stroke-linecap: square"/>
   </g>
   <g id="patch_5">
    <path d="M 44.555937 366.037812 
L 602.555938 366.037812 
" style="fill: none; stroke: #000000; stroke-width: 0.8; stroke-linejoin: miter; stroke-linecap: square"/>
   </g>
   <g id="patch_6">
    <path d="M 44.555937 33.397812 
L 602.555938 33.397812 
" style="fill: none; stroke: #000000; stroke-width: 0.8; stroke-linejoin: miter; stroke-linecap: square"/>
   </g>
   <g id="text_17">
    <!-- Respuesta Transitoria a 150 kHz (Senoidal, 100uV pico, 3 Ciclos) - 5 Vías -->
    <g transform="translate(69.499687 18.397812) scale(0.14 -0.14)">
     <defs>
      <path id="DejaVuSans-52" d="M 2841 2188 
Q 3044 2119 3236 1894 
Q 3428 1669 3622 1275 
L 4263 0 
L 3584 0 
L 2988 1197 
Q 2756 1666 2539 1819 
Q 2322 1972 1947 1972 
L 1259 1972 
L 1259 0 
L 628 0 
L 628 4666 
L 2053 4666 
Q 2853 4666 3247 4331 
Q 3641 3997 3641 3322 
Q 3641 2881 3436 2590 
Q 3231 2300 2841 2188 
z
M 1259 4147 
L 1259 2491 
L 2053 2491 
Q 2509 2491 2742 2702 
Q 2975 2913 2975 3322 
Q 2975 3731 2742 3939 
Q 2509 4147 2053 4147 
L 1259 4147 
z
" transform="scale(0.015625)"/>
      <path id="DejaVuSans-75" d="M 544 1381 
L 544 3500 
L 1119 3500 
L 1119 1403 
Q 1119 906 1312 657 
Q 1506 409 1894 409 
Q 2359 409 2629 706 
Q 2900 1003 2900 1516 
L 2900 3500 
L 3475 3500 
L 3475 0 
L 2900 0 
L 2900 538 
Q 2691 219 2414 64 
Q 2138 -91 1772 -91 
Q 1169 -91 856 284 
Q 544 659 544 1381 
z
M 1991 3584 
L 1991 3584 
z
" transform="scale(0.015625)"/>
      <path id="DejaVuSans-74" d="M 1172 4494 
L 1172 3500 
L 2356 3500 
L 2356 3053 
L 1172 3053 
L 1172 1153 
Q 1172 725 1289 603 
Q 1406 481 1766 481 
L 2356 481 
L 2356 0 
L 1766 0 
Q 1100 0 847 248 
Q 594 497 594 1153 
L 594 3053 
L 172 3053 
L 172 3500 
L 594 3500 
L 594 4494 
L 1172 4494 
z
" transform="scale(0.015625)"/>
      <path id="DejaVuSans-72" d="M 2631 2963 
Q 2534 3019 2420 3045 
Q 2306 3072 2169 3072 
Q 1681 3072 1420 2755 
Q 1159 2438 1159 1844 
L 1159 0 
L 581 0 
L 581 3500 
L 1159 3500 
L 1159 2956 
Q 1341 3275 1631 3429 
Q 1922 3584 2338 3584 
Q 2397 3584 2469 3576 
Q 2541 3569 2628 3553 
L 2631 2963 
z
" transform="scale(0.015625)"/>
      <path id="DejaVuSans-6b" d="M 581 4863 
L 1159 4863 
L 1159 1991 
L 2875 3500 
L 3609 3500 
L 1753 1863 
L 3688 0 
L 2938 0 
L 1159 1709 
L 1159 0 
L 581 0 
L 581 4863 
z
" transform="scale(0.015625)"/>
      <path id="DejaVuSans-48" d="M 628 4666 
L 1259 4666 
L 1259 2753 
L 3553 2753 
L 3553 4666 
L 4184 4666 
L 4184 0 
L 3553 0 
L 3553 2222 
L 1259 2222 
L 1259 0 
L 628 0 
L 628 4666 
z
" transform="scale(0.015625)"/>
      <path id="DejaVuSans-7a" d="M 353 3500 
L 3084 3500 
L 3084 2975 
L 922 459 
L 3084 459 
L 3084 0 
L 275 0 
L 275 525 
L 2438 3041 
L 353 3041 
L 353 3500 
z
" transform="scale(0.015625)"/>
      <path id="DejaVuSans-2c" d="M 750 794 
L 1409 794 
L 1409 256 
L 897 -744 
L 494 -744 
L 750 256 
L 750 794 
z
" transform="scale(0.015625)"/>
      <path id="DejaVuSans-63" d="M 3122 3366 
L 3122 2828 
Q 2878 2963 2633 3030 
Q 2388 3097 2138 3097 
Q 1578 3097 1268 2742 
Q 959 2388 959 1747 
Q 959 1106 1268 751 
Q 1578 397 2138 397 
Q 2388 397 2633 464 
Q 2878 531 3122 666 
L 3122 134 
Q 2881 22 2623 -34 
Q 2366 -91 2075 -91 
Q 1284 -91 818 406 
Q 353 903 353 1747 
Q 353 2603 823 3093 
Q 1294 3584 2113 3584 
Q 2378 3584 2631 3529 
Q 2884 3475 3122 3366 
z
" transform="scale(0.015625)"/>
      <path id="DejaVuSans-33" d="M 2597 2516 
Q 3050 2419 3304 2112 
Q 3559 1806 3559 1356 
Q 3559 666 3084 287 
Q 2609 -91 1734 -91 
Q 1441 -91 1130 -33 
Q 819 25 488 141 
L 488 750 
Q 750 597 1062 519 
Q 1375 441 1716 441 
Q 2309 441 2620 675 
Q 2931 909 2931 1356 
Q 2931 1769 2642 2001 
Q 2353 2234 1838 2234 
L 1294 2234 
L 1294 2753 
L 1863 2753 
Q 2328 2753 2575 2939 
Q 2822 3125 2822 3475 
Q 2822 3834 2567 4026 
Q 2313 4219 1838 4219 
Q 1578 4219 1281 4162 
Q 984 4106 628 3988 
L 628 4550 
Q 988 4650 1302 4700 
Q 1616 4750 1894 4750 
Q 2613 4750 3031 4423 
Q 3450 4097 3450 3541 
Q 3450 3153 3228 2886 
Q 3006 2619 2597 2516 
z
" transform="scale(0.015625)"/>
      <path id="DejaVuSans-43" d="M 4122 4306 
L 4122 3641 
Q 3803 3938 3442 4084 
Q 3081 4231 2675 4231 
Q 1875 4231 1450 3742 
Q 1025 3253 1025 2328 
Q 1025 1406 1450 917 
Q 1875 428 2675 428 
Q 3081 428 3442 575 
Q 3803 722 4122 1019 
L 4122 359 
Q 3791 134 3420 21 
Q 3050 -91 2638 -91 
Q 1578 -91 968 557 
Q 359 1206 359 2328 
Q 359 3453 968 4101 
Q 1578 4750 2638 4750 
Q 3056 4750 3426 4639 
Q 3797 4528 4122 4306 
z
" transform="scale(0.015625)"/>
      <path id="DejaVuSans-2d" d="M 313 2009 
L 1997 2009 
L 1997 1497 
L 313 1497 
L 313 2009 
z
" transform="scale(0.015625)"/>
      <path id="DejaVuSans-ed" d="M 1322 5119 
L 1944 5119 
L 926 3944 
L 447 3944 
L 1322 5119 
z
M 603 3500 
L 1178 3500 
L 1178 0 
L 603 0 
L 603 3500 
z
M 891 3584 
L 891 3584 
z
" transform="scale(0.015625)"/>
     </defs>
     <use xlink:href="#DejaVuSans-52"/>
     <use xlink:href="#DejaVuSans-65" transform="translate(64.982422 0)"/>
     <use xlink:href="#DejaVuSans-73" transform="translate(126.505859 0)"/>
     <use xlink:href="#DejaVuSans-70" transform="translate(178.605469 0)"/>
     <use xlink:href="#DejaVuSans-75" transform="translate(242.082031 0)"/>
     <use xlink:href="#DejaVuSans-65" transform="translate(305.460938 0)"/>
     <use xlink:href="#DejaVuSans-73" transform="translate(366.984375 0)"/>
     <use xlink:href="#DejaVuSans-74" transform="translate(419.083984 0)"/>
     <use xlink:href="#DejaVuSans-61" transform="translate(458.292969 0)"/>
     <use xlink:href="#DejaVuSans-20" transform="translate(519.572266 0)"/>
     <use xlink:href="#DejaVuSans-54" transform="translate(551.359375 0)"/>
     <use xlink:href="#DejaVuSans-72" transform="translate(597.693359 0)"/>
     <use xlink:href="#DejaVuSans-61" transform="translate(638.806641 0)"/>
     <use xlink:href="#DejaVuSans-6e" transform="translate(700.085938 0)"/>
     <use xlink:href="#DejaVuSans-73" transform="translate(763.464844 0)"/>
     <use xlink:href="#DejaVuSans-69" transform="translate(815.564453 0)"/>
     <use xlink:href="#DejaVuSans-74" transform="translate(843.347656 0)"/>
     <use xlink:href="#DejaVuSans-6f" transform="translate(882.556641 0)"/>
     <use xlink:href="#DejaVuSans-72" transform="translate(943.738281 0)"/>
     <use xlink:href="#DejaVuSans-69" transform="translate(984.851562 0)"/>
     <use xlink:href="#DejaVuSans-61" transform="translate(1012.634766 0)"/>
     <use xlink:href="#DejaVuSans-20" transform="translate(1073.914062 0)"/>
     <use xlink:href="#DejaVuSans-61" transform="translate(1105.701172 0)"/>
     <use xlink:href="#DejaVuSans-20" transform="translate(1166.980469 0)"/>
     <use xlink:href="#DejaVuSans-31" transform="translate(1198.767578 0)"/>
     <use xlink:href="#DejaVuSans-35" transform="translate(1262.390625 0)"/>
     <use xlink:href="#DejaVuSans-30" transform="translate(1326.013672 0)"/>
     <use xlink:href="#DejaVuSans-20" transform="translate(1389.636719 0)"/>
     <use xlink:href="#DejaVuSans-6b" transform="translate(1421.423828 0)"/>
     <use xlink:href="#DejaVuSans-48" transform="translate(1479.333984 0)"/>
     <use xlink:href="#DejaVuSans-7a" transform="translate(1554.529297 0)"/>
     <use xlink:href="#DejaVuSans-20" transform="translate(1607.019531 0)"/>
     <use xlink:href="#DejaVuSans-28" transform="translate(1638.806641 0)"/>
     <use xlink:href="#DejaVuSans-53" transform="translate(1677.820312 0)"/>
     <use xlink:href="#DejaVuSans-65" transform="translate(1741.296875 0)"/>
     <use xlink:href="#DejaVuSans-6e" transform="translate(1802.820312 0)"/>
     <use xlink:href="#DejaVuSans-6f" transform="translate(1866.199219 0)"/>
     <use xlink:href="#DejaVuSans-69" transform="translate(1927.380859 0)"/>
     <use xlink:href="#DejaVuSans-64" transform="translate(1955.164062 0)"/>
     <use xlink:href="#DejaVuSans-61" transform="translate(2018.640625 0)"/>
     <use xlink:href="#DejaVuSans-6c" transform="translate(2079.919922 0)"/>
     <use xlink:href="#DejaVuSans-2c" transform="translate(2107.703125 0)"/>
     <use xlink:href="#DejaVuSans-20" transform="translate(2139.490234 0)"/>
     <use xlink:href="#DejaVuSans-31" transform="translate(2171.277344 0)"/>
     <use xlink:href="#DejaVuSans-30" transform="translate(2234.900391 0)"/>
     <use xlink:href="#DejaVuSans-30" transform="translate(2298.523438 0)"/>
     <use xlink:href="#DejaVuSans-75" transform="translate(2362.146484 0)"/>
     <use xlink:href="#DejaVuSans-56" transform="translate(2425.525391 0)"/>
     <use xlink:href="#DejaVuSans-20" transform="translate(2493.933594 0)"/>
     <use xlink:href="#DejaVuSans-70" transform="translate(2525.720703 0)"/>
     <use xlink:href="#DejaVuSans-69" transform="translate(2589.197266 0)"/>
     <use xlink:href="#DejaVuSans-63" transform="translate(2616.980469 0)"/>
     <use xlink:href="#DejaVuSans-6f" transform="translate(2671.960938 0)"/>
     <use xlink:href="#DejaVuSans-2c" transform="translate(2733.142578 0)"/>
     <use xlink:href="#DejaVuSans-20" transform="translate(2764.929688 0)"/>
     <use xlink:href="#DejaVuSans-33" transform="translate(2796.716797 0)"/>
     <use xlink:href="#DejaVuSans-20" transform="translate(2860.339844 0)"/>
     <use xlink:href="#DejaVuSans-43" transform="translate(2892.126953 0)"/>
     <use xlink:href="#DejaVuSans-69" transform="translate(2961.951172 0)"/>
     <use xlink:href="#DejaVuSans-63" transform="translate(2989.734375 0)"/>
     <use xlink:href="#DejaVuSans-6c" transform="translate(3044.714844 0)"/>
     <use xlink:href="#DejaVuSans-6f" transform="translate(3072.498047 0)"/>
     <use xlink:href="#DejaVuSans-73" transform="translate(3133.679688 0)"/>
     <use xlink:href="#DejaVuSans-29" transform="translate(3185.779297 0)"/>
     <use xlink:href="#DejaVuSans-20" transform="translate(3224.792969 0)"/>
     <use xlink:href="#DejaVuSans-2d" transform="translate(3256.580078 0)"/>
     <use xlink:href="#DejaVuSans-20" transform="translate(3292.664062 0)"/>
     <use xlink:href="#DejaVuSans-35" transform="translate(3324.451172 0)"/>
     <use xlink:href="#DejaVuSans-20" transform="translate(3388.074219 0)"/>
     <use xlink:href="#DejaVuSans-56" transform="translate(3419.861328 0)"/>
     <use xlink:href="#DejaVuSans-ed" transform="translate(3488.269531 0)"/>
     <use xlink:href="#DejaVuSans-61" transform="translate(3516.052734 0)"/>
     <use xlink:href="#DejaVuSans-73" transform="translate(3577.332031 0)"/>
    </g>
   </g>
   <g id="legend_1">
    <g id="patch_7">
     <path d="M 451.768281 122.9275 
L 594.855937 122.9275 
Q 597.055938 122.9275 597.055938 120.7275 
L 597.055938 41.097812 
Q 597.055938 38.897812 594.855937 38.897812 
L 451.768281 38.897812 
Q 449.568281 38.897812 449.568281 41.097812 
L 449.568281 120.7275 
Q 449.568281 122.9275 451.768281 122.9275 
z
" style="fill: #ffffff; opacity: 0.8; stroke: #cccccc; stroke-linejoin: miter"/>
    </g>
    <g id="line2d_34">
     <path d="M 453.968281 47.806094 
L 464.968281 47.806094 
L 475.968281 47.806094 
" style="fill: none; stroke: #1f77b4; stroke-width: 2.5; stroke-linecap: square"/>
    </g>
    <g id="text_18">
     <!-- Ideal Op-Amp -->
     <g transform="translate(484.768281 51.656094) scale(0.11 -0.11)">
      <defs>
       <path id="DejaVuSans-49" d="M 628 4666 
L 1259 4666 
L 1259 0 
L 628 0 
L 628 4666 
z
" transform="scale(0.015625)"/>
       <path id="DejaVuSans-4f" d="M 2522 4238 
Q 1834 4238 1429 3725 
Q 1025 3213 1025 2328 
Q 1025 1447 1429 934 
Q 1834 422 2522 422 
Q 3209 422 3611 934 
Q 4013 1447 4013 2328 
Q 4013 3213 3611 3725 
Q 3209 4238 2522 4238 
z
M 2522 4750 
Q 3503 4750 4090 4092 
Q 4678 3434 4678 2328 
Q 4678 1225 4090 567 
Q 3503 -91 2522 -91 
Q 1538 -91 948 565 
Q 359 1222 359 2328 
Q 359 3434 948 4092 
Q 1538 4750 2522 4750 
z
" transform="scale(0.015625)"/>
       <path id="DejaVuSans-41" d="M 2188 4044 
L 1331 1722 
L 3047 1722 
L 2188 4044 
z
M 1831 4666 
L 2547 4666 
L 4325 0 
L 3669 0 
L 3244 1197 
L 1141 1197 
L 716 0 
L 50 0 
L 1831 4666 
z
" transform="scale(0.015625)"/>
      </defs>
      <use xlink:href="#DejaVuSans-49"/>
      <use xlink:href="#DejaVuSans-64" transform="translate(29.492188 0)"/>
      <use xlink:href="#DejaVuSans-65" transform="translate(92.96875 0)"/>
      <use xlink:href="#DejaVuSans-61" transform="translate(154.492188 0)"/>
      <use xlink:href="#DejaVuSans-6c" transform="translate(215.771484 0)"/>
      <use xlink:href="#DejaVuSans-20" transform="translate(243.554688 0)"/>
      <use xlink:href="#DejaVuSans-4f" transform="translate(275.341797 0)"/>
      <use xlink:href="#DejaVuSans-70" transform="translate(354.052734 0)"/>
      <use xlink:href="#DejaVuSans-2d" transform="translate(417.529297 0)"/>
      <use xlink:href="#DejaVuSans-41" transform="translate(451.363281 0)"/>
      <use xlink:href="#DejaVuSans-6d" transform="translate(519.771484 0)"/>
      <use xlink:href="#DejaVuSans-70" transform="translate(617.183594 0)"/>
     </g>
    </g>
    <g id="line2d_35">
     <path d="M 453.968281 63.952031 
L 464.968281 63.952031 
L 475.968281 63.952031 
" style="fill: none; stroke: #ff7f0e; stroke-width: 3; stroke-linecap: square"/>
    </g>
    <g id="text_19">
     <!-- ADA4817-1 FastFET -->
     <g transform="translate(484.768281 67.802031) scale(0.11 -0.11)">
      <defs>
       <path id="DejaVuSans-44" d="M 1259 4147 
L 1259 519 
L 2022 519 
Q 2988 519 3436 956 
Q 3884 1394 3884 2338 
Q 3884 3275 3436 3711 
Q 2988 4147 2022 4147 
L 1259 4147 
z
M 628 4666 
L 1925 4666 
Q 3281 4666 3915 4102 
Q 4550 3538 4550 2338 
Q 4550 1131 3912 565 
Q 3275 0 1925 0 
L 628 0 
L 628 4666 
z
" transform="scale(0.015625)"/>
       <path id="DejaVuSans-34" d="M 2419 4116 
L 825 1625 
L 2419 1625 
L 2419 4116 
z
M 2253 4666 
L 3047 4666 
L 3047 1625 
L 3713 1625 
L 3713 1100 
L 3047 1100 
L 3047 0 
L 2419 0 
L 2419 1100 
L 313 1100 
L 313 1709 
L 2253 4666 
z
" transform="scale(0.015625)"/>
       <path id="DejaVuSans-38" d="M 2034 2216 
Q 1584 2216 1326 1975 
Q 1069 1734 1069 1313 
Q 1069 891 1326 650 
Q 1584 409 2034 409 
Q 2484 409 2743 651 
Q 3003 894 3003 1313 
Q 3003 1734 2745 1975 
Q 2488 2216 2034 2216 
z
M 1403 2484 
Q 997 2584 770 2862 
Q 544 3141 544 3541 
Q 544 4100 942 4425 
Q 1341 4750 2034 4750 
Q 2731 4750 3128 4425 
Q 3525 4100 3525 3541 
Q 3525 3141 3298 2862 
Q 3072 2584 2669 2484 
Q 3125 2378 3379 2068 
Q 3634 1759 3634 1313 
Q 3634 634 3220 271 
Q 2806 -91 2034 -91 
Q 1263 -91 848 271 
Q 434 634 434 1313 
Q 434 1759 690 2068 
Q 947 2378 1403 2484 
z
M 1172 3481 
Q 1172 3119 1398 2916 
Q 1625 2713 2034 2713 
Q 2441 2713 2670 2916 
Q 2900 3119 2900 3481 
Q 2900 3844 2670 4047 
Q 2441 4250 2034 4250 
Q 1625 4250 1398 4047 
Q 1172 3844 1172 3481 
z
" transform="scale(0.015625)"/>
       <path id="DejaVuSans-46" d="M 628 4666 
L 3309 4666 
L 3309 4134 
L 1259 4134 
L 1259 2759 
L 3109 2759 
L 3109 2228 
L 1259 2228 
L 1259 0 
L 628 0 
L 628 4666 
z
" transform="scale(0.015625)"/>
       <path id="DejaVuSans-45" d="M 628 4666 
L 3578 4666 
L 3578 4134 
L 1259 4134 
L 1259 2753 
L 3481 2753 
L 3481 2222 
L 1259 2222 
L 1259 531 
L 3634 531 
L 3634 0 
L 628 0 
L 628 4666 
z
" transform="scale(0.015625)"/>
      </defs>
      <use xlink:href="#DejaVuSans-41"/>
      <use xlink:href="#DejaVuSans-44" transform="translate(68.408203 0)"/>
      <use xlink:href="#DejaVuSans-41" transform="translate(143.660156 0)"/>
      <use xlink:href="#DejaVuSans-34" transform="translate(212.068359 0)"/>
      <use xlink:href="#DejaVuSans-38" transform="translate(275.691406 0)"/>
      <use xlink:href="#DejaVuSans-31" transform="translate(339.314453 0)"/>
      <use xlink:href="#DejaVuSans-37" transform="translate(402.9375 0)"/>
      <use xlink:href="#DejaVuSans-2d" transform="translate(466.560547 0)"/>
      <use xlink:href="#DejaVuSans-31" transform="translate(502.644531 0)"/>
      <use xlink:href="#DejaVuSans-20" transform="translate(566.267578 0)"/>
      <use xlink:href="#DejaVuSans-46" transform="translate(598.054688 0)"/>
      <use xlink:href="#DejaVuSans-61" transform="translate(646.449219 0)"/>
      <use xlink:href="#DejaVuSans-73" transform="translate(707.728516 0)"/>
      <use xlink:href="#DejaVuSans-74" transform="translate(759.828125 0)"/>
      <use xlink:href="#DejaVuSans-46" transform="translate(799.037109 0)"/>
      <use xlink:href="#DejaVuSans-45" transform="translate(856.556641 0)"/>
      <use xlink:href="#DejaVuSans-54" transform="translate(919.740234 0)"/>
     </g>
    </g>
    <g id="line2d_36">
     <path d="M 453.968281 80.097969 
L 464.968281 80.097969 
L 475.968281 80.097969 
" style="fill: none; stroke-dasharray: 16,4,2.5,4; stroke-dashoffset: 0; stroke: #9467bd; stroke-width: 2.5"/>
    </g>
    <g id="text_20">
     <!-- OPA828 JFET -->
     <g transform="translate(484.768281 83.947969) scale(0.11 -0.11)">
      <defs>
       <path id="DejaVuSans-50" d="M 1259 4147 
L 1259 2394 
L 2053 2394 
Q 2494 2394 2734 2622 
Q 2975 2850 2975 3272 
Q 2975 3691 2734 3919 
Q 2494 4147 2053 4147 
L 1259 4147 
z
M 628 4666 
L 2053 4666 
Q 2838 4666 3239 4311 
Q 3641 3956 3641 3272 
Q 3641 2581 3239 2228 
Q 2838 1875 2053 1875 
L 1259 1875 
L 1259 0 
L 628 0 
L 628 4666 
z
" transform="scale(0.015625)"/>
       <path id="DejaVuSans-4a" d="M 628 4666 
L 1259 4666 
L 1259 325 
Q 1259 -519 939 -900 
Q 619 -1281 -91 -1281 
L -331 -1281 
L -331 -750 
L -134 -750 
Q 284 -750 456 -515 
Q 628 -281 628 325 
L 628 4666 
z
" transform="scale(0.015625)"/>
      </defs>
      <use xlink:href="#DejaVuSans-4f"/>
      <use xlink:href="#DejaVuSans-50" transform="translate(78.710938 0)"/>
      <use xlink:href="#DejaVuSans-41" transform="translate(132.638672 0)"/>
      <use xlink:href="#DejaVuSans-38" transform="translate(201.046875 0)"/>
      <use xlink:href="#DejaVuSans-32" transform="translate(264.669922 0)"/>
      <use xlink:href="#DejaVuSans-38" transform="translate(328.292969 0)"/>
      <use xlink:href="#DejaVuSans-20" transform="translate(391.916016 0)"/>
      <use xlink:href="#DejaVuSans-4a" transform="translate(423.703125 0)"/>
      <use xlink:href="#DejaVuSans-46" transform="translate(453.195312 0)"/>
      <use xlink:href="#DejaVuSans-45" transform="translate(510.714844 0)"/>
      <use xlink:href="#DejaVuSans-54" transform="translate(573.898438 0)"/>
     </g>
    </g>
    <g id="line2d_37">
     <path d="M 453.968281 96.243906 
L 464.968281 96.243906 
L 475.968281 96.243906 
" style="fill: none; stroke-dasharray: 9.25,4; stroke-dashoffset: 0; stroke: #2ca02c; stroke-width: 2.5"/>
    </g>
    <g id="text_21">
     <!-- LF357 JFET -->
     <g transform="translate(484.768281 100.093906) scale(0.11 -0.11)">
      <defs>
       <path id="DejaVuSans-4c" d="M 628 4666 
L 1259 4666 
L 1259 531 
L 3531 531 
L 3531 0 
L 628 0 
L 628 4666 
z
" transform="scale(0.015625)"/>
      </defs>
      <use xlink:href="#DejaVuSans-4c"/>
      <use xlink:href="#DejaVuSans-46" transform="translate(55.712891 0)"/>
      <use xlink:href="#DejaVuSans-33" transform="translate(113.232422 0)"/>
      <use xlink:href="#DejaVuSans-35" transform="translate(176.855469 0)"/>
      <use xlink:href="#DejaVuSans-37" transform="translate(240.478516 0)"/>
      <use xlink:href="#DejaVuSans-20" transform="translate(304.101562 0)"/>
      <use xlink:href="#DejaVuSans-4a" transform="translate(335.888672 0)"/>
      <use xlink:href="#DejaVuSans-46" transform="translate(365.380859 0)"/>
      <use xlink:href="#DejaVuSans-45" transform="translate(422.900391 0)"/>
      <use xlink:href="#DejaVuSans-54" transform="translate(486.083984 0)"/>
     </g>
    </g>
    <g id="line2d_38">
     <path d="M 453.968281 112.389844 
L 464.968281 112.389844 
L 475.968281 112.389844 
" style="fill: none; stroke-dasharray: 2.5,4.125; stroke-dashoffset: 0; stroke: #d62728; stroke-width: 2.5"/>
    </g>
    <g id="text_22">
     <!-- TL071 JFET -->
     <g transform="translate(484.768281 116.239844) scale(0.11 -0.11)">
      <use xlink:href="#DejaVuSans-54"/>
      <use xlink:href="#DejaVuSans-4c" transform="translate(61.083984 0)"/>
      <use xlink:href="#DejaVuSans-30" transform="translate(116.796875 0)"/>
      <use xlink:href="#DejaVuSans-37" transform="translate(180.419922 0)"/>
      <use xlink:href="#DejaVuSans-31" transform="translate(244.042969 0)"/>
      <use xlink:href="#DejaVuSans-20" transform="translate(307.666016 0)"/>
      <use xlink:href="#DejaVuSans-4a" transform="translate(339.453125 0)"/>
      <use xlink:href="#DejaVuSans-46" transform="translate(368.945312 0)"/>
      <use xlink:href="#DejaVuSans-45" transform="translate(426.464844 0)"/>
      <use xlink:href="#DejaVuSans-54" transform="translate(489.648438 0)"/>
     </g>
    </g>
   </g>
  </g>
 </g>
 <defs>
  <clipPath id="p3ee08a7ef1">
   <rect x="44.555937" y="33.397812" width="558" height="332.64"/>
  </clipPath>
 </defs>
</svg>
