<?xml version="1.0" encoding="utf-8" standalone="no"?>
<!DOCTYPE svg PUBLIC "-//W3C//DTD SVG 1.1//EN"
  "http://www.w3.org/Graphics/SVG/1.1/DTD/svg11.dtd">
<svg xmlns:xlink="http://www.w3.org/1999/xlink" width="609.755938pt" height="405.529687pt" viewBox="0 0 609.755938 405.529687" xmlns="http://www.w3.org/2000/svg" version="1.1">
 <metadata>
  <rdf:RDF xmlns:dc="http://purl.org/dc/elements/1.1/" xmlns:cc="http://creativecommons.org/ns#" xmlns:rdf="http://www.w3.org/1999/02/22-rdf-syntax-ns#">
   <cc:Work>
    <dc:type rdf:resource="http://purl.org/dc/dcmitype/StillImage"/>
    <dc:date>2026-05-24T18:38:23.355125</dc:date>
    <dc:format>image/svg+xml</dc:format>
    <dc:creator>
     <cc:Agent>
      <dc:title>Matplotlib v3.10.9, https://matplotlib.org/</dc:title>
     </cc:Agent>
    </dc:creator>
   </cc:Work>
  </rdf:RDF>
 </metadata>
 <defs>
  <style type="text/css">*{stroke-linejoin: round; stroke-linecap: butt}</style>
 </defs>
 <g id="figure_1">
  <g id="patch_1">
   <path d="M -0 405.529687 
L 609.755938 405.529687 
L 609.755938 0 
L -0 0 
z
" style="fill: #ffffff"/>
  </g>
  <g id="axes_1">
   <g id="patch_2">
    <path d="M 44.555937 366.037812 
L 602.555938 366.037812 
L 602.555938 33.397812 
L 44.555937 33.397812 
z
" style="fill: #ffffff"/>
   </g>
   <g id="matplotlib.axis_1">
    <g id="xtick_1">
     <g id="line2d_1">
      <path d="M 69.919574 366.037812 
L 69.919574 33.397812 
" clip-path="url(#p1eed091372)" style="fill: none; stroke: #e0e0e0; stroke-width: 0.8; stroke-linecap: square"/>
     </g>
     <g id="line2d_2">
      <defs>
       <path id="m53892fc383" d="M 0 0 
L 0 3.5 
" style="stroke: #000000; stroke-width: 0.8"/>
      </defs>
      <g>
       <use xlink:href="#m53892fc383" x="69.919574" y="366.037812" style="stroke: #000000; stroke-width: 0.8"/>
      </g>
     </g>
     <g id="text_1">
      <!-- 0 -->
      <g transform="translate(66.738324 380.63625) scale(0.1 -0.1)">
       <defs>
        <path id="DejaVuSans-30" d="M 2034 4250 
Q 1547 4250 1301 3770 
Q 1056 3291 1056 2328 
Q 1056 1369 1301 889 
Q 1547 409 2034 409 
Q 2525 409 2770 889 
Q 3016 1369 3016 2328 
Q 3016 3291 2770 3770 
Q 2525 4250 2034 4250 
z
M 2034 4750 
Q 2819 4750 3233 4129 
Q 3647 3509 3647 2328 
Q 3647 1150 3233 529 
Q 2819 -91 2034 -91 
Q 1250 -91 836 529 
Q 422 1150 422 2328 
Q 422 3509 836 4129 
Q 1250 4750 2034 4750 
z
" transform="scale(0.015625)"/>
       </defs>
       <use xlink:href="#DejaVuSans-30"/>
      </g>
     </g>
    </g>
    <g id="xtick_2">
     <g id="line2d_3">
      <path d="M 154.465028 366.037812 
L 154.465028 33.397812 
" clip-path="url(#p1eed091372)" style="fill: none; stroke: #e0e0e0; stroke-width: 0.8; stroke-linecap: square"/>
     </g>
     <g id="line2d_4">
      <g>
       <use xlink:href="#m53892fc383" x="154.465028" y="366.037812" style="stroke: #000000; stroke-width: 0.8"/>
      </g>
     </g>
     <g id="text_2">
      <!-- 50 -->
      <g transform="translate(148.102528 380.63625) scale(0.1 -0.1)">
       <defs>
        <path id="DejaVuSans-35" d="M 691 4666 
L 3169 4666 
L 3169 4134 
L 1269 4134 
L 1269 2991 
Q 1406 3038 1543 3061 
Q 1681 3084 1819 3084 
Q 2600 3084 3056 2656 
Q 3513 2228 3513 1497 
Q 3513 744 3044 326 
Q 2575 -91 1722 -91 
Q 1428 -91 1123 -41 
Q 819 9 494 109 
L 494 744 
Q 775 591 1075 516 
Q 1375 441 1709 441 
Q 2250 441 2565 725 
Q 2881 1009 2881 1497 
Q 2881 1984 2565 2268 
Q 2250 2553 1709 2553 
Q 1456 2553 1204 2497 
Q 953 2441 691 2322 
L 691 4666 
z
" transform="scale(0.015625)"/>
       </defs>
       <use xlink:href="#DejaVuSans-35"/>
       <use xlink:href="#DejaVuSans-30" transform="translate(63.623047 0)"/>
      </g>
     </g>
    </g>
    <g id="xtick_3">
     <g id="line2d_5">
      <path d="M 239.010483 366.037812 
L 239.010483 33.397812 
" clip-path="url(#p1eed091372)" style="fill: none; stroke: #e0e0e0; stroke-width: 0.8; stroke-linecap: square"/>
     </g>
     <g id="line2d_6">
      <g>
       <use xlink:href="#m53892fc383" x="239.010483" y="366.037812" style="stroke: #000000; stroke-width: 0.8"/>
      </g>
     </g>
     <g id="text_3">
      <!-- 100 -->
      <g transform="translate(229.466733 380.63625) scale(0.1 -0.1)">
       <defs>
        <path id="DejaVuSans-31" d="M 794 531 
L 1825 531 
L 1825 4091 
L 703 3866 
L 703 4441 
L 1819 4666 
L 2450 4666 
L 2450 531 
L 3481 531 
L 3481 0 
L 794 0 
L 794 531 
z
" transform="scale(0.015625)"/>
       </defs>
       <use xlink:href="#DejaVuSans-31"/>
       <use xlink:href="#DejaVuSans-30" transform="translate(63.623047 0)"/>
       <use xlink:href="#DejaVuSans-30" transform="translate(127.246094 0)"/>
      </g>
     </g>
    </g>
    <g id="xtick_4">
     <g id="line2d_7">
      <path d="M 323.555937 366.037812 
L 323.555937 33.397812 
" clip-path="url(#p1eed091372)" style="fill: none; stroke: #e0e0e0; stroke-width: 0.8; stroke-linecap: square"/>
     </g>
     <g id="line2d_8">
      <g>
       <use xlink:href="#m53892fc383" x="323.555937" y="366.037812" style="stroke: #000000; stroke-width: 0.8"/>
      </g>
     </g>
     <g id="text_4">
      <!-- 150 -->
      <g transform="translate(314.012187 380.63625) scale(0.1 -0.1)">
       <use xlink:href="#DejaVuSans-31"/>
       <use xlink:href="#DejaVuSans-35" transform="translate(63.623047 0)"/>
       <use xlink:href="#DejaVuSans-30" transform="translate(127.246094 0)"/>
      </g>
     </g>
    </g>
    <g id="xtick_5">
     <g id="line2d_9">
      <path d="M 408.101392 366.037812 
L 408.101392 33.397812 
" clip-path="url(#p1eed091372)" style="fill: none; stroke: #e0e0e0; stroke-width: 0.8; stroke-linecap: square"/>
     </g>
     <g id="line2d_10">
      <g>
       <use xlink:href="#m53892fc383" x="408.101392" y="366.037812" style="stroke: #000000; stroke-width: 0.8"/>
      </g>
     </g>
     <g id="text_5">
      <!-- 200 -->
      <g transform="translate(398.557642 380.63625) scale(0.1 -0.1)">
       <defs>
        <path id="DejaVuSans-32" d="M 1228 531 
L 3431 531 
L 3431 0 
L 469 0 
L 469 531 
Q 828 903 1448 1529 
Q 2069 2156 2228 2338 
Q 2531 2678 2651 2914 
Q 2772 3150 2772 3378 
Q 2772 3750 2511 3984 
Q 2250 4219 1831 4219 
Q 1534 4219 1204 4116 
Q 875 4013 500 3803 
L 500 4441 
Q 881 4594 1212 4672 
Q 1544 4750 1819 4750 
Q 2544 4750 2975 4387 
Q 3406 4025 3406 3419 
Q 3406 3131 3298 2873 
Q 3191 2616 2906 2266 
Q 2828 2175 2409 1742 
Q 1991 1309 1228 531 
z
" transform="scale(0.015625)"/>
       </defs>
       <use xlink:href="#DejaVuSans-32"/>
       <use xlink:href="#DejaVuSans-30" transform="translate(63.623047 0)"/>
       <use xlink:href="#DejaVuSans-30" transform="translate(127.246094 0)"/>
      </g>
     </g>
    </g>
    <g id="xtick_6">
     <g id="line2d_11">
      <path d="M 492.646847 366.037812 
L 492.646847 33.397812 
" clip-path="url(#p1eed091372)" style="fill: none; stroke: #e0e0e0; stroke-width: 0.8; stroke-linecap: square"/>
     </g>
     <g id="line2d_12">
      <g>
       <use xlink:href="#m53892fc383" x="492.646847" y="366.037812" style="stroke: #000000; stroke-width: 0.8"/>
      </g>
     </g>
     <g id="text_6">
      <!-- 250 -->
      <g transform="translate(483.103097 380.63625) scale(0.1 -0.1)">
       <use xlink:href="#DejaVuSans-32"/>
       <use xlink:href="#DejaVuSans-35" transform="translate(63.623047 0)"/>
       <use xlink:href="#DejaVuSans-30" transform="translate(127.246094 0)"/>
      </g>
     </g>
    </g>
    <g id="xtick_7">
     <g id="line2d_13">
      <path d="M 577.192301 366.037812 
L 577.192301 33.397812 
" clip-path="url(#p1eed091372)" style="fill: none; stroke: #e0e0e0; stroke-width: 0.8; stroke-linecap: square"/>
     </g>
     <g id="line2d_14">
      <g>
       <use xlink:href="#m53892fc383" x="577.192301" y="366.037812" style="stroke: #000000; stroke-width: 0.8"/>
      </g>
     </g>
     <g id="text_7">
      <!-- 300 -->
      <g transform="translate(567.648551 380.63625) scale(0.1 -0.1)">
       <defs>
        <path id="DejaVuSans-33" d="M 2597 2516 
Q 3050 2419 3304 2112 
Q 3559 1806 3559 1356 
Q 3559 666 3084 287 
Q 2609 -91 1734 -91 
Q 1441 -91 1130 -33 
Q 819 25 488 141 
L 488 750 
Q 750 597 1062 519 
Q 1375 441 1716 441 
Q 2309 441 2620 675 
Q 2931 909 2931 1356 
Q 2931 1769 2642 2001 
Q 2353 2234 1838 2234 
L 1294 2234 
L 1294 2753 
L 1863 2753 
Q 2328 2753 2575 2939 
Q 2822 3125 2822 3475 
Q 2822 3834 2567 4026 
Q 2313 4219 1838 4219 
Q 1578 4219 1281 4162 
Q 984 4106 628 3988 
L 628 4550 
Q 988 4650 1302 4700 
Q 1616 4750 1894 4750 
Q 2613 4750 3031 4423 
Q 3450 4097 3450 3541 
Q 3450 3153 3228 2886 
Q 3006 2619 2597 2516 
z
" transform="scale(0.015625)"/>
       </defs>
       <use xlink:href="#DejaVuSans-33"/>
       <use xlink:href="#DejaVuSans-30" transform="translate(63.623047 0)"/>
       <use xlink:href="#DejaVuSans-30" transform="translate(127.246094 0)"/>
      </g>
     </g>
    </g>
    <g id="text_8">
     <!-- Tiempo (μs) -->
     <g transform="translate(287.863438 395.834062) scale(0.12 -0.12)">
      <defs>
       <path id="DejaVuSans-54" d="M -19 4666 
L 3928 4666 
L 3928 4134 
L 2272 4134 
L 2272 0 
L 1638 0 
L 1638 4134 
L -19 4134 
L -19 4666 
z
" transform="scale(0.015625)"/>
       <path id="DejaVuSans-69" d="M 603 3500 
L 1178 3500 
L 1178 0 
L 603 0 
L 603 3500 
z
M 603 4863 
L 1178 4863 
L 1178 4134 
L 603 4134 
L 603 4863 
z
" transform="scale(0.015625)"/>
       <path id="DejaVuSans-65" d="M 3597 1894 
L 3597 1613 
L 953 1613 
Q 991 1019 1311 708 
Q 1631 397 2203 397 
Q 2534 397 2845 478 
Q 3156 559 3463 722 
L 3463 178 
Q 3153 47 2828 -22 
Q 2503 -91 2169 -91 
Q 1331 -91 842 396 
Q 353 884 353 1716 
Q 353 2575 817 3079 
Q 1281 3584 2069 3584 
Q 2775 3584 3186 3129 
Q 3597 2675 3597 1894 
z
M 3022 2063 
Q 3016 2534 2758 2815 
Q 2500 3097 2075 3097 
Q 1594 3097 1305 2825 
Q 1016 2553 972 2059 
L 3022 2063 
z
" transform="scale(0.015625)"/>
       <path id="DejaVuSans-6d" d="M 3328 2828 
Q 3544 3216 3844 3400 
Q 4144 3584 4550 3584 
Q 5097 3584 5394 3201 
Q 5691 2819 5691 2113 
L 5691 0 
L 5113 0 
L 5113 2094 
Q 5113 2597 4934 2840 
Q 4756 3084 4391 3084 
Q 3944 3084 3684 2787 
Q 3425 2491 3425 1978 
L 3425 0 
L 2847 0 
L 2847 2094 
Q 2847 2600 2669 2842 
Q 2491 3084 2119 3084 
Q 1678 3084 1418 2786 
Q 1159 2488 1159 1978 
L 1159 0 
L 581 0 
L 581 3500 
L 1159 3500 
L 1159 2956 
Q 1356 3278 1631 3431 
Q 1906 3584 2284 3584 
Q 2666 3584 2933 3390 
Q 3200 3197 3328 2828 
z
" transform="scale(0.015625)"/>
       <path id="DejaVuSans-70" d="M 1159 525 
L 1159 -1331 
L 581 -1331 
L 581 3500 
L 1159 3500 
L 1159 2969 
Q 1341 3281 1617 3432 
Q 1894 3584 2278 3584 
Q 2916 3584 3314 3078 
Q 3713 2572 3713 1747 
Q 3713 922 3314 415 
Q 2916 -91 2278 -91 
Q 1894 -91 1617 61 
Q 1341 213 1159 525 
z
M 3116 1747 
Q 3116 2381 2855 2742 
Q 2594 3103 2138 3103 
Q 1681 3103 1420 2742 
Q 1159 2381 1159 1747 
Q 1159 1113 1420 752 
Q 1681 391 2138 391 
Q 2594 391 2855 752 
Q 3116 1113 3116 1747 
z
" transform="scale(0.015625)"/>
       <path id="DejaVuSans-6f" d="M 1959 3097 
Q 1497 3097 1228 2736 
Q 959 2375 959 1747 
Q 959 1119 1226 758 
Q 1494 397 1959 397 
Q 2419 397 2687 759 
Q 2956 1122 2956 1747 
Q 2956 2369 2687 2733 
Q 2419 3097 1959 3097 
z
M 1959 3584 
Q 2709 3584 3137 3096 
Q 3566 2609 3566 1747 
Q 3566 888 3137 398 
Q 2709 -91 1959 -91 
Q 1206 -91 779 398 
Q 353 888 353 1747 
Q 353 2609 779 3096 
Q 1206 3584 1959 3584 
z
" transform="scale(0.015625)"/>
       <path id="DejaVuSans-20" transform="scale(0.015625)"/>
       <path id="DejaVuSans-28" d="M 1984 4856 
Q 1566 4138 1362 3434 
Q 1159 2731 1159 2009 
Q 1159 1288 1364 580 
Q 1569 -128 1984 -844 
L 1484 -844 
Q 1016 -109 783 600 
Q 550 1309 550 2009 
Q 550 2706 781 3412 
Q 1013 4119 1484 4856 
L 1984 4856 
z
" transform="scale(0.015625)"/>
       <path id="DejaVuSans-3bc" d="M 544 -1331 
L 544 3500 
L 1119 3500 
L 1119 1325 
Q 1119 872 1334 640 
Q 1550 409 1972 409 
Q 2434 409 2667 671 
Q 2900 934 2900 1459 
L 2900 3500 
L 3475 3500 
L 3475 806 
Q 3475 619 3529 530 
Q 3584 441 3700 441 
Q 3728 441 3778 458 
Q 3828 475 3916 513 
L 3916 50 
Q 3788 -22 3673 -56 
Q 3559 -91 3450 -91 
Q 3234 -91 3106 31 
Q 2978 153 2931 403 
Q 2775 156 2548 32 
Q 2322 -91 2016 -91 
Q 1697 -91 1473 31 
Q 1250 153 1119 397 
L 1119 -1331 
L 544 -1331 
z
" transform="scale(0.015625)"/>
       <path id="DejaVuSans-73" d="M 2834 3397 
L 2834 2853 
Q 2591 2978 2328 3040 
Q 2066 3103 1784 3103 
Q 1356 3103 1142 2972 
Q 928 2841 928 2578 
Q 928 2378 1081 2264 
Q 1234 2150 1697 2047 
L 1894 2003 
Q 2506 1872 2764 1633 
Q 3022 1394 3022 966 
Q 3022 478 2636 193 
Q 2250 -91 1575 -91 
Q 1294 -91 989 -36 
Q 684 19 347 128 
L 347 722 
Q 666 556 975 473 
Q 1284 391 1588 391 
Q 1994 391 2212 530 
Q 2431 669 2431 922 
Q 2431 1156 2273 1281 
Q 2116 1406 1581 1522 
L 1381 1569 
Q 847 1681 609 1914 
Q 372 2147 372 2553 
Q 372 3047 722 3315 
Q 1072 3584 1716 3584 
Q 2034 3584 2315 3537 
Q 2597 3491 2834 3397 
z
" transform="scale(0.015625)"/>
       <path id="DejaVuSans-29" d="M 513 4856 
L 1013 4856 
Q 1481 4119 1714 3412 
Q 1947 2706 1947 2009 
Q 1947 1309 1714 600 
Q 1481 -109 1013 -844 
L 513 -844 
Q 928 -128 1133 580 
Q 1338 1288 1338 2009 
Q 1338 2731 1133 3434 
Q 928 4138 513 4856 
z
" transform="scale(0.015625)"/>
      </defs>
      <use xlink:href="#DejaVuSans-54"/>
      <use xlink:href="#DejaVuSans-69" transform="translate(57.958984 0)"/>
      <use xlink:href="#DejaVuSans-65" transform="translate(85.742188 0)"/>
      <use xlink:href="#DejaVuSans-6d" transform="translate(147.265625 0)"/>
      <use xlink:href="#DejaVuSans-70" transform="translate(244.677734 0)"/>
      <use xlink:href="#DejaVuSans-6f" transform="translate(308.154297 0)"/>
      <use xlink:href="#DejaVuSans-20" transform="translate(369.335938 0)"/>
      <use xlink:href="#DejaVuSans-28" transform="translate(401.123047 0)"/>
      <use xlink:href="#DejaVuSans-3bc" transform="translate(440.136719 0)"/>
      <use xlink:href="#DejaVuSans-73" transform="translate(503.759766 0)"/>
      <use xlink:href="#DejaVuSans-29" transform="translate(555.859375 0)"/>
     </g>
    </g>
   </g>
   <g id="matplotlib.axis_2">
    <g id="ytick_1">
     <g id="line2d_15">
      <path d="M 44.555937 320.86154 
L 602.555938 320.86154 
" clip-path="url(#p1eed091372)" style="fill: none; stroke: #e0e0e0; stroke-width: 0.8; stroke-linecap: square"/>
     </g>
     <g id="line2d_16">
      <defs>
       <path id="ma94faeb71e" d="M 0 0 
L -3.5 0 
" style="stroke: #000000; stroke-width: 0.8"/>
      </defs>
      <g>
       <use xlink:href="#ma94faeb71e" x="44.555937" y="320.86154" style="stroke: #000000; stroke-width: 0.8"/>
      </g>
     </g>
     <g id="text_9">
      <!-- −2 -->
      <g transform="translate(22.81375 324.660759) scale(0.1 -0.1)">
       <defs>
        <path id="DejaVuSans-2212" d="M 678 2272 
L 4684 2272 
L 4684 1741 
L 678 1741 
L 678 2272 
z
" transform="scale(0.015625)"/>
       </defs>
       <use xlink:href="#DejaVuSans-2212"/>
       <use xlink:href="#DejaVuSans-32" transform="translate(83.789062 0)"/>
      </g>
     </g>
    </g>
    <g id="ytick_2">
     <g id="line2d_17">
      <path d="M 44.555937 260.289799 
L 602.555938 260.289799 
" clip-path="url(#p1eed091372)" style="fill: none; stroke: #e0e0e0; stroke-width: 0.8; stroke-linecap: square"/>
     </g>
     <g id="line2d_18">
      <g>
       <use xlink:href="#ma94faeb71e" x="44.555937" y="260.289799" style="stroke: #000000; stroke-width: 0.8"/>
      </g>
     </g>
     <g id="text_10">
      <!-- −1 -->
      <g transform="translate(22.81375 264.089017) scale(0.1 -0.1)">
       <use xlink:href="#DejaVuSans-2212"/>
       <use xlink:href="#DejaVuSans-31" transform="translate(83.789062 0)"/>
      </g>
     </g>
    </g>
    <g id="ytick_3">
     <g id="line2d_19">
      <path d="M 44.555937 199.718057 
L 602.555938 199.718057 
" clip-path="url(#p1eed091372)" style="fill: none; stroke: #e0e0e0; stroke-width: 0.8; stroke-linecap: square"/>
     </g>
     <g id="line2d_20">
      <g>
       <use xlink:href="#ma94faeb71e" x="44.555937" y="199.718057" style="stroke: #000000; stroke-width: 0.8"/>
      </g>
     </g>
     <g id="text_11">
      <!-- 0 -->
      <g transform="translate(31.193437 203.517276) scale(0.1 -0.1)">
       <use xlink:href="#DejaVuSans-30"/>
      </g>
     </g>
    </g>
    <g id="ytick_4">
     <g id="line2d_21">
      <path d="M 44.555937 139.146316 
L 602.555938 139.146316 
" clip-path="url(#p1eed091372)" style="fill: none; stroke: #e0e0e0; stroke-width: 0.8; stroke-linecap: square"/>
     </g>
     <g id="line2d_22">
      <g>
       <use xlink:href="#ma94faeb71e" x="44.555937" y="139.146316" style="stroke: #000000; stroke-width: 0.8"/>
      </g>
     </g>
     <g id="text_12">
      <!-- 1 -->
      <g transform="translate(31.193437 142.945535) scale(0.1 -0.1)">
       <use xlink:href="#DejaVuSans-31"/>
      </g>
     </g>
    </g>
    <g id="ytick_5">
     <g id="line2d_23">
      <path d="M 44.555937 78.574575 
L 602.555938 78.574575 
" clip-path="url(#p1eed091372)" style="fill: none; stroke: #e0e0e0; stroke-width: 0.8; stroke-linecap: square"/>
     </g>
     <g id="line2d_24">
      <g>
       <use xlink:href="#ma94faeb71e" x="44.555937" y="78.574575" style="stroke: #000000; stroke-width: 0.8"/>
      </g>
     </g>
     <g id="text_13">
      <!-- 2 -->
      <g transform="translate(31.193437 82.373794) scale(0.1 -0.1)">
       <use xlink:href="#DejaVuSans-32"/>
      </g>
     </g>
    </g>
    <g id="text_14">
     <!-- Tensión de Salida (V) -->
     <g transform="translate(16.318125 262.436562) rotate(-90) scale(0.12 -0.12)">
      <defs>
       <path id="DejaVuSans-6e" d="M 3513 2113 
L 3513 0 
L 2938 0 
L 2938 2094 
Q 2938 2591 2744 2837 
Q 2550 3084 2163 3084 
Q 1697 3084 1428 2787 
Q 1159 2491 1159 1978 
L 1159 0 
L 581 0 
L 581 3500 
L 1159 3500 
L 1159 2956 
Q 1366 3272 1645 3428 
Q 1925 3584 2291 3584 
Q 2894 3584 3203 3211 
Q 3513 2838 3513 2113 
z
" transform="scale(0.015625)"/>
       <path id="DejaVuSans-f3" d="M 1959 3097 
Q 1497 3097 1228 2736 
Q 959 2375 959 1747 
Q 959 1119 1226 758 
Q 1494 397 1959 397 
Q 2419 397 2687 759 
Q 2956 1122 2956 1747 
Q 2956 2369 2687 2733 
Q 2419 3097 1959 3097 
z
M 1959 3584 
Q 2709 3584 3137 3096 
Q 3566 2609 3566 1747 
Q 3566 888 3137 398 
Q 2709 -91 1959 -91 
Q 1206 -91 779 398 
Q 353 888 353 1747 
Q 353 2609 779 3096 
Q 1206 3584 1959 3584 
z
M 2394 5119 
L 3016 5119 
L 1998 3944 
L 1519 3944 
L 2394 5119 
z
" transform="scale(0.015625)"/>
       <path id="DejaVuSans-64" d="M 2906 2969 
L 2906 4863 
L 3481 4863 
L 3481 0 
L 2906 0 
L 2906 525 
Q 2725 213 2448 61 
Q 2172 -91 1784 -91 
Q 1150 -91 751 415 
Q 353 922 353 1747 
Q 353 2572 751 3078 
Q 1150 3584 1784 3584 
Q 2172 3584 2448 3432 
Q 2725 3281 2906 2969 
z
M 947 1747 
Q 947 1113 1208 752 
Q 1469 391 1925 391 
Q 2381 391 2643 752 
Q 2906 1113 2906 1747 
Q 2906 2381 2643 2742 
Q 2381 3103 1925 3103 
Q 1469 3103 1208 2742 
Q 947 2381 947 1747 
z
" transform="scale(0.015625)"/>
       <path id="DejaVuSans-53" d="M 3425 4513 
L 3425 3897 
Q 3066 4069 2747 4153 
Q 2428 4238 2131 4238 
Q 1616 4238 1336 4038 
Q 1056 3838 1056 3469 
Q 1056 3159 1242 3001 
Q 1428 2844 1947 2747 
L 2328 2669 
Q 3034 2534 3370 2195 
Q 3706 1856 3706 1288 
Q 3706 609 3251 259 
Q 2797 -91 1919 -91 
Q 1588 -91 1214 -16 
Q 841 59 441 206 
L 441 856 
Q 825 641 1194 531 
Q 1563 422 1919 422 
Q 2459 422 2753 634 
Q 3047 847 3047 1241 
Q 3047 1584 2836 1778 
Q 2625 1972 2144 2069 
L 1759 2144 
Q 1053 2284 737 2584 
Q 422 2884 422 3419 
Q 422 4038 858 4394 
Q 1294 4750 2059 4750 
Q 2388 4750 2728 4690 
Q 3069 4631 3425 4513 
z
" transform="scale(0.015625)"/>
       <path id="DejaVuSans-61" d="M 2194 1759 
Q 1497 1759 1228 1600 
Q 959 1441 959 1056 
Q 959 750 1161 570 
Q 1363 391 1709 391 
Q 2188 391 2477 730 
Q 2766 1069 2766 1631 
L 2766 1759 
L 2194 1759 
z
M 3341 1997 
L 3341 0 
L 2766 0 
L 2766 531 
Q 2569 213 2275 61 
Q 1981 -91 1556 -91 
Q 1019 -91 701 211 
Q 384 513 384 1019 
Q 384 1609 779 1909 
Q 1175 2209 1959 2209 
L 2766 2209 
L 2766 2266 
Q 2766 2663 2505 2880 
Q 2244 3097 1772 3097 
Q 1472 3097 1187 3025 
Q 903 2953 641 2809 
L 641 3341 
Q 956 3463 1253 3523 
Q 1550 3584 1831 3584 
Q 2591 3584 2966 3190 
Q 3341 2797 3341 1997 
z
" transform="scale(0.015625)"/>
       <path id="DejaVuSans-6c" d="M 603 4863 
L 1178 4863 
L 1178 0 
L 603 0 
L 603 4863 
z
" transform="scale(0.015625)"/>
       <path id="DejaVuSans-56" d="M 1831 0 
L 50 4666 
L 709 4666 
L 2188 738 
L 3669 4666 
L 4325 4666 
L 2547 0 
L 1831 0 
z
" transform="scale(0.015625)"/>
      </defs>
      <use xlink:href="#DejaVuSans-54"/>
      <use xlink:href="#DejaVuSans-65" transform="translate(44.083984 0)"/>
      <use xlink:href="#DejaVuSans-6e" transform="translate(105.607422 0)"/>
      <use xlink:href="#DejaVuSans-73" transform="translate(168.986328 0)"/>
      <use xlink:href="#DejaVuSans-69" transform="translate(221.085938 0)"/>
      <use xlink:href="#DejaVuSans-f3" transform="translate(248.869141 0)"/>
      <use xlink:href="#DejaVuSans-6e" transform="translate(310.050781 0)"/>
      <use xlink:href="#DejaVuSans-20" transform="translate(373.429688 0)"/>
      <use xlink:href="#DejaVuSans-64" transform="translate(405.216797 0)"/>
      <use xlink:href="#DejaVuSans-65" transform="translate(468.693359 0)"/>
      <use xlink:href="#DejaVuSans-20" transform="translate(530.216797 0)"/>
      <use xlink:href="#DejaVuSans-53" transform="translate(562.003906 0)"/>
      <use xlink:href="#DejaVuSans-61" transform="translate(625.480469 0)"/>
      <use xlink:href="#DejaVuSans-6c" transform="translate(686.759766 0)"/>
      <use xlink:href="#DejaVuSans-69" transform="translate(714.542969 0)"/>
      <use xlink:href="#DejaVuSans-64" transform="translate(742.326172 0)"/>
      <use xlink:href="#DejaVuSans-61" transform="translate(805.802734 0)"/>
      <use xlink:href="#DejaVuSans-20" transform="translate(867.082031 0)"/>
      <use xlink:href="#DejaVuSans-28" transform="translate(898.869141 0)"/>
      <use xlink:href="#DejaVuSans-56" transform="translate(937.882812 0)"/>
      <use xlink:href="#DejaVuSans-29" transform="translate(1006.291016 0)"/>
     </g>
    </g>
   </g>
   <g id="line2d_25">
    <path d="M 69.919574 199.718057 
L 70.173337 199.700577 
L 70.4271 199.522116 
L 70.934627 198.528704 
L 71.442153 196.85092 
L 72.457206 192.320372 
L 74.233549 182.957045 
L 82.10021 140.499533 
L 85.652895 122.709117 
L 88.698054 108.515615 
L 91.48945 96.525455 
L 94.027082 86.58469 
L 96.310951 78.495092 
L 98.341057 72.035166 
L 100.371163 66.30148 
L 102.147506 61.905993 
L 103.923849 58.110712 
L 105.446428 55.34793 
L 106.969008 53.047146 
L 108.237824 51.488097 
L 109.50664 50.258484 
L 110.775456 49.36104 
L 111.790509 48.883613 
L 112.805562 48.620743 
L 113.820615 48.572806 
L 114.835668 48.739869 
L 115.850721 49.121695 
L 116.865774 49.717742 
L 118.13459 50.762726 
L 119.403407 52.13876 
L 120.672223 53.842786 
L 122.194802 56.315183 
L 123.717382 59.246485 
L 125.239961 62.627311 
L 127.016304 67.125247 
L 128.792647 72.200663 
L 130.822753 78.679789 
L 133.106622 86.789738 
L 135.390491 95.712529 
L 137.928124 106.501776 
L 140.719519 119.322636 
L 144.018441 135.577357 
L 147.82489 155.512659 
L 152.900155 183.394951 
L 164.827028 249.410726 
L 168.633476 269.038422 
L 171.932398 284.942575 
L 174.723794 297.409954 
L 177.261427 307.836001 
L 179.799059 317.301426 
L 182.082928 324.92928 
L 184.113034 330.954555 
L 185.889377 335.61541 
L 187.66572 339.684397 
L 189.188299 342.687516 
L 190.710879 345.233119 
L 192.233458 347.313061 
L 193.502274 348.685784 
L 194.771091 349.727431 
L 195.786144 350.320793 
L 196.801196 350.699926 
L 197.816249 350.86429 
L 198.831302 350.813653 
L 199.846355 350.548087 
L 200.861408 350.067967 
L 201.876461 349.373979 
L 203.145278 348.207273 
L 204.414094 346.710552 
L 205.68291 344.887145 
L 207.20549 342.273587 
L 208.728069 339.203836 
L 210.504412 335.059069 
L 212.280754 330.324855 
L 214.31086 324.219117 
L 216.340966 317.40523 
L 218.624836 308.941557 
L 221.162468 298.618263 
L 223.953864 286.251486 
L 226.999023 271.704488 
L 230.551708 253.583056 
L 234.865683 230.349907 
L 242.478581 187.816892 
L 248.568899 154.309756 
L 252.62911 133.156634 
L 255.928033 117.062136 
L 258.973192 103.301506 
L 261.510824 92.769319 
L 264.048456 83.187365 
L 266.332326 75.446606 
L 268.362432 69.315265 
L 270.392538 63.925638 
L 272.16888 59.842359 
L 273.69146 56.826672 
L 275.214039 54.268251 
L 276.736619 52.175282 
L 278.005435 50.791574 
L 279.274251 49.73885 
L 280.543067 49.01945 
L 281.55812 48.685024 
L 282.573173 48.565438 
L 283.588226 48.660863 
L 284.603279 48.971163 
L 285.618332 49.495898 
L 286.633385 50.23432 
L 287.902202 51.456217 
L 289.171018 53.007622 
L 290.439834 54.885088 
L 291.962413 57.562521 
L 293.484993 60.694865 
L 295.261336 64.910774 
L 297.037678 69.713806 
L 299.067784 75.894965 
L 301.09789 82.780415 
L 303.38176 91.319483 
L 305.919392 101.719565 
L 308.710788 114.161533 
L 311.755947 128.778558 
L 315.308632 146.964714 
L 319.622607 170.250372 
L 327.743031 215.640241 
L 333.579586 247.611614 
L 337.639798 268.615213 
L 340.93872 284.548959 
L 343.730115 297.046015 
L 346.267748 307.502451 
L 348.80538 317.00123 
L 351.08925 324.661395 
L 353.119356 330.717018 
L 354.895698 335.405544 
L 356.672041 339.503116 
L 358.19462 342.53137 
L 359.7172 345.102609 
L 361.239779 347.208605 
L 362.508596 348.603298 
L 363.777412 349.667099 
L 365.046228 350.397643 
L 366.061281 350.741017 
L 367.076334 350.869564 
L 368.091387 350.783101 
L 369.10644 350.481753 
L 370.121493 349.965946 
L 371.136546 349.236415 
L 372.405362 348.025561 
L 373.674178 346.485097 
L 374.942995 344.618447 
L 376.465574 341.953793 
L 377.988154 338.833971 
L 379.764496 334.632292 
L 381.540839 329.843024 
L 383.570945 323.676949 
L 385.601051 316.805808 
L 387.88492 308.281812 
L 390.422553 297.897078 
L 393.213948 285.470133 
L 396.259107 270.867092 
L 399.811793 252.693849 
L 404.125768 229.418645 
L 411.992428 185.450413 
L 417.828983 153.404587 
L 421.889195 132.305174 
L 425.188117 116.268621 
L 428.233276 102.572066 
L 430.770909 92.100437 
L 433.308541 82.584981 
L 435.59241 74.908662 
L 437.622516 68.837865 
L 439.398859 64.135504 
L 441.175202 60.023639 
L 442.697781 56.982817 
L 444.220361 54.398761 
L 445.74294 52.279739 
L 447.011756 50.87406 
L 448.280573 49.799182 
L 449.549389 49.057494 
L 450.564442 48.705174 
L 451.579495 48.567665 
L 452.594548 48.645165 
L 453.609601 48.937562 
L 454.624654 49.444441 
L 455.639707 50.165081 
L 456.908523 51.364892 
L 458.177339 52.894414 
L 459.446155 54.750248 
L 460.968735 57.402123 
L 462.491314 60.509425 
L 464.267657 64.696873 
L 466.044 69.472376 
L 468.074106 75.623369 
L 470.104212 82.4802 
L 472.388081 90.989123 
L 474.925713 101.358509 
L 477.717109 113.770432 
L 480.762268 128.35949 
L 484.314953 146.519819 
L 488.628929 169.784569 
L 496.495589 213.749212 
L 502.332144 245.805403 
L 506.392356 266.91833 
L 509.691278 282.969441 
L 512.736437 296.682081 
L 515.274069 307.168903 
L 517.811702 316.701036 
L 520.095571 324.39351 
L 522.125677 330.479481 
L 523.90202 335.195677 
L 525.678362 339.321834 
L 527.200942 342.375224 
L 528.723521 344.972098 
L 530.246101 347.104147 
L 531.514917 348.520811 
L 532.783733 349.606766 
L 534.052549 350.359597 
L 535.067602 350.720865 
L 536.082655 350.867334 
L 537.097708 350.798798 
L 538.112761 350.515352 
L 539.127814 350.017401 
L 540.142867 349.305652 
L 541.411684 348.116884 
L 542.6805 346.598304 
L 543.949316 344.753285 
L 545.471895 342.114189 
L 546.994475 339.019409 
L 548.770818 334.846192 
L 550.54716 330.084453 
L 552.577266 323.948544 
L 554.607372 317.106022 
L 556.891242 308.612172 
L 559.428874 298.258133 
L 562.22027 285.861234 
L 565.265429 271.28616 
L 568.818114 253.138744 
L 573.132089 229.88445 
L 577.192301 207.280519 
L 577.192301 207.280519 
" clip-path="url(#p1eed091372)" style="fill: none; stroke: #1f77b4; stroke-width: 2.5; stroke-linecap: square"/>
   </g>
   <g id="line2d_26">
    <path d="M 69.919574 199.718057 
L 70.173337 199.682136 
L 70.4271 199.423814 
L 70.934627 198.239679 
L 71.695917 195.373791 
L 72.964733 189.180975 
L 76.009892 172.583283 
L 81.33892 143.871451 
L 85.145369 124.621799 
L 88.190528 110.284379 
L 90.981923 98.142377 
L 93.519556 88.048449 
L 95.803425 79.809848 
L 98.087294 72.434323 
L 100.1174 66.64592 
L 101.893743 62.200939 
L 103.670085 58.35488 
L 105.192665 55.547722 
L 106.715244 53.201921 
L 107.984061 51.604975 
L 109.252877 50.337206 
L 110.521693 49.40143 
L 111.536746 48.893268 
L 112.551799 48.599651 
L 113.566852 48.520997 
L 114.581905 48.657416 
L 115.596958 49.008716 
L 116.612011 49.574396 
L 117.880827 50.581715 
L 119.149643 51.920485 
L 120.41846 53.587732 
L 121.941039 56.016748 
L 123.463619 58.905624 
L 124.986198 62.245115 
L 126.762541 66.696379 
L 128.538884 71.726989 
L 130.568989 78.157444 
L 132.852859 86.216199 
L 135.136728 95.091921 
L 137.67436 105.834117 
L 140.465756 118.610081 
L 143.764678 134.821642 
L 147.571127 154.721257 
L 152.646392 182.58061 
L 164.827028 250.0023 
L 168.633476 269.601551 
L 171.932398 285.471955 
L 174.723794 297.904554 
L 177.261427 308.294364 
L 179.545296 316.822839 
L 181.829165 324.508419 
L 183.859271 330.587565 
L 185.635614 335.297282 
L 187.411956 339.416517 
L 188.934536 342.463644 
L 190.457115 345.053973 
L 191.979695 347.179213 
L 193.248511 348.590019 
L 194.517327 349.669961 
L 195.786144 350.416641 
L 196.801196 350.772894 
L 197.816249 350.914276 
L 198.831302 350.840584 
L 199.846355 350.551925 
L 200.861408 350.048707 
L 201.876461 349.331647 
L 203.145278 348.13619 
L 204.414094 346.610877 
L 205.68291 344.759099 
L 207.20549 342.111875 
L 208.728069 339.008975 
L 210.504412 334.826329 
L 212.280754 330.055249 
L 214.31086 323.908822 
L 216.340966 317.05601 
L 218.624836 308.550927 
L 221.162468 298.184929 
L 223.953864 285.775633 
L 226.999023 271.188091 
L 230.551708 253.027729 
L 234.865683 229.760337 
L 242.732344 185.783794 
L 248.822662 152.357314 
L 252.882874 131.313727 
L 256.181796 115.339191 
L 259.226955 101.712285 
L 261.764587 91.307138 
L 264.048456 82.763597 
L 266.332326 75.061869 
L 268.362432 68.967554 
L 270.138774 64.244005 
L 271.915117 60.110479 
L 273.437697 57.050785 
L 274.960276 54.447639 
L 276.482856 52.309371 
L 277.751672 50.887578 
L 279.020488 49.796557 
L 280.289304 49.038731 
L 281.304357 48.673529 
L 282.31941 48.523183 
L 283.334463 48.587908 
L 284.349516 48.867613 
L 285.364569 49.3619 
L 286.379622 50.070064 
L 287.648438 51.254473 
L 288.917255 52.768839 
L 290.186071 54.609795 
L 291.70865 57.244232 
L 293.23123 60.334601 
L 295.007572 64.503006 
L 296.783915 69.260311 
L 298.814021 75.391641 
L 300.844127 82.230128 
L 303.127996 90.72012 
L 305.665629 101.07075 
L 308.457024 113.465 
L 311.502183 128.038531 
L 315.054869 146.185948 
L 319.368844 169.442847 
L 326.981741 211.995277 
L 333.072059 245.496469 
L 337.132271 266.635108 
L 340.431193 282.711883 
L 343.476352 296.451655 
L 346.013985 306.963356 
L 348.551617 316.522196 
L 350.835486 324.240072 
L 352.865592 330.349557 
L 354.895698 335.716028 
L 356.672041 339.778086 
L 358.19462 342.774941 
L 359.7172 345.314002 
L 361.239779 347.387142 
L 362.508596 348.754017 
L 363.777412 349.789664 
L 364.792465 350.378126 
L 365.807518 350.752278 
L 366.822571 350.911587 
L 367.837624 350.855828 
L 368.852677 350.585078 
L 369.86773 350.099723 
L 370.882783 349.400453 
L 372.151599 348.227093 
L 373.420415 346.723675 
L 374.689231 344.89354 
L 376.211811 342.27189 
L 377.73439 339.194052 
L 379.510733 335.039889 
L 381.287076 330.29636 
L 383.317182 324.180127 
L 385.347288 317.355965 
L 387.631157 308.881063 
L 390.168789 298.545802 
L 392.960185 286.166598 
L 396.005344 271.607078 
L 399.558029 253.472606 
L 403.872005 230.226201 
L 411.484902 187.677626 
L 417.57522 154.165916 
L 421.635432 133.013791 
L 424.934354 116.922477 
L 427.979513 103.166636 
L 430.517145 92.639752 
L 433.054778 83.064245 
L 435.338647 75.330221 
L 437.368753 69.205592 
L 439.398859 63.823322 
L 441.175202 59.746959 
L 442.697781 56.737533 
L 444.220361 54.185658 
L 445.74294 52.099501 
L 447.011756 50.721654 
L 448.280573 49.674948 
L 449.295626 49.077592 
L 450.310679 48.694518 
L 451.325731 48.526272 
L 452.340784 48.573093 
L 453.355837 48.834914 
L 454.37089 49.311362 
L 455.385943 50.001761 
L 456.65476 51.164101 
L 457.923576 52.656599 
L 459.192392 54.475938 
L 460.714972 57.084828 
L 462.237551 60.15016 
L 464.013894 64.290104 
L 465.790236 69.019874 
L 467.820342 75.121022 
L 469.850448 81.930864 
L 472.134318 90.390668 
L 474.67195 100.71054 
L 477.463346 113.074655 
L 480.508505 127.620097 
L 484.06119 145.741517 
L 488.375165 168.977258 
L 495.734299 210.099683 
L 502.078381 245.043401 
L 506.138592 266.208722 
L 509.437515 282.31433 
L 512.482674 296.086013 
L 515.020306 306.627891 
L 517.557939 316.219882 
L 519.841808 323.969895 
L 521.871914 330.109584 
L 523.90202 335.507621 
L 525.678362 339.598275 
L 527.200942 342.620268 
L 528.723521 345.184962 
L 530.246101 347.284147 
L 531.514917 348.67298 
L 532.783733 349.730765 
L 534.052549 350.455152 
L 535.067602 350.793507 
L 536.082655 350.916961 
L 537.097708 350.825338 
L 538.112761 350.518769 
L 539.127814 349.997689 
L 540.142867 349.262839 
L 541.411684 348.045285 
L 542.6805 346.498078 
L 543.949316 344.624656 
L 545.471895 341.951859 
L 546.994475 338.823899 
L 548.770818 334.612771 
L 550.54716 329.814139 
L 552.577266 323.637518 
L 554.607372 316.756058 
L 556.891242 308.220795 
L 559.428874 297.824061 
L 562.22027 285.384672 
L 565.265429 270.769111 
L 568.818114 252.582859 
L 573.132089 229.294482 
L 577.192301 206.6723 
L 577.192301 206.6723 
" clip-path="url(#p1eed091372)" style="fill: none; stroke: #ff7f0e; stroke-width: 3; stroke-linecap: square"/>
   </g>
   <g id="line2d_27">
    <path d="M 69.919574 199.718057 
L 70.4271 199.601337 
L 70.934627 198.832713 
L 71.442153 197.389888 
L 72.203443 194.313828 
L 73.472259 187.986335 
L 77.278708 167.172576 
L 82.10021 141.391078 
L 85.652895 123.538396 
L 88.698054 109.279985 
L 91.48945 97.221719 
L 94.027082 87.212529 
L 96.310951 79.056564 
L 98.341057 72.534238 
L 100.371163 66.735317 
L 102.147506 62.280713 
L 103.923849 58.424684 
L 105.446428 55.608736 
L 106.969008 53.25395 
L 108.237824 51.649388 
L 109.50664 50.373903 
L 110.775456 49.430331 
L 111.790509 48.915885 
L 112.805562 48.615951 
L 113.820615 48.530957 
L 114.835668 48.661023 
L 115.850721 49.005963 
L 116.865774 49.565288 
L 118.13459 50.564682 
L 119.403407 51.895566 
L 120.672223 53.554981 
L 122.194802 55.974698 
L 123.717382 58.854409 
L 125.239961 62.184898 
L 127.016304 66.625906 
L 128.792647 71.646568 
L 130.822753 78.066085 
L 133.106622 86.113159 
L 135.390491 94.977942 
L 137.928124 105.708951 
L 140.719519 118.473897 
L 144.018441 134.674333 
L 147.82489 154.56387 
L 152.900155 182.414704 
L 165.080791 249.840105 
L 168.88724 269.44744 
L 172.186162 285.327349 
L 174.977557 297.769693 
L 177.51519 308.169625 
L 179.799059 316.70816 
L 182.082928 324.404626 
L 184.113034 330.494078 
L 185.889377 335.213252 
L 187.66572 339.34231 
L 189.188299 342.398116 
L 190.710879 344.997332 
L 192.233458 347.131643 
L 193.502274 348.550124 
L 194.771091 349.637832 
L 196.039907 350.392347 
L 197.05496 350.754909 
L 198.070013 350.902624 
L 199.085066 350.835284 
L 200.100119 350.552982 
L 201.115172 350.056121 
L 202.130225 349.345408 
L 203.399041 348.157855 
L 204.667857 346.640398 
L 205.936673 344.796409 
L 207.459253 342.158422 
L 208.981832 339.064611 
L 210.758175 334.89234 
L 212.534518 330.131348 
L 214.564624 323.996041 
L 216.59473 317.153853 
L 218.878599 308.660054 
L 221.416231 298.305668 
L 224.207627 285.907901 
L 227.252786 271.331311 
L 230.805471 253.1814 
L 235.119447 229.923088 
L 242.732344 187.372559 
L 248.822662 153.876823 
L 252.882874 132.74363 
L 256.181796 116.672248 
L 259.226955 102.93815 
L 261.764587 92.431635 
L 264.30222 82.878347 
L 266.586089 75.16574 
L 268.616195 69.061123 
L 270.646301 63.699664 
L 272.422644 59.64209 
L 273.945223 56.649134 
L 275.467803 54.114011 
L 276.990382 52.044833 
L 278.259198 50.681272 
L 279.528014 49.648941 
L 280.543067 49.063128 
L 281.55812 48.691618 
L 282.573173 48.534939 
L 283.588226 48.593314 
L 284.603279 48.866661 
L 285.618332 49.354591 
L 286.633385 50.05641 
L 287.902202 51.232914 
L 289.171018 52.739424 
L 290.439834 54.57259 
L 291.962413 57.197789 
L 293.484993 60.279068 
L 295.261336 64.437095 
L 297.037678 69.18431 
L 299.067784 75.304516 
L 301.09789 82.132375 
L 303.38176 90.611079 
L 305.919392 100.950091 
L 308.710788 113.332803 
L 311.755947 127.895374 
L 315.308632 146.032328 
L 319.622607 169.280132 
L 327.235505 211.826779 
L 333.325822 245.333008 
L 337.386034 266.479673 
L 340.684957 282.56558 
L 343.730115 296.315737 
L 346.267748 306.837427 
L 348.80538 316.407374 
L 351.08925 324.136124 
L 353.119356 330.255905 
L 355.149462 335.633206 
L 356.925804 339.705127 
L 358.448384 342.710692 
L 359.970963 345.258668 
L 361.493543 347.340902 
L 362.762359 348.715468 
L 364.031175 349.758892 
L 365.046228 350.353626 
L 366.061281 350.734085 
L 367.076334 350.899727 
L 368.091387 350.850317 
L 369.10644 350.585925 
L 370.121493 350.106926 
L 371.136546 349.414003 
L 372.405362 348.248546 
L 373.674178 346.752985 
L 374.942995 344.930642 
L 376.465574 342.31823 
L 377.988154 339.249483 
L 379.764496 335.105699 
L 381.540839 330.372263 
L 383.570945 324.267158 
L 385.601051 317.453627 
L 387.88492 308.990019 
L 390.422553 298.666382 
L 393.213948 286.298724 
L 396.259107 271.750173 
L 399.811793 253.626176 
L 404.125768 230.38886 
L 411.484902 189.26789 
L 417.828983 154.329536 
L 421.889195 133.169513 
L 425.188117 117.069187 
L 428.233276 103.303083 
L 430.770909 92.766317 
L 433.308541 83.179813 
L 435.59241 75.435016 
L 437.622516 69.300155 
L 439.652622 63.907095 
L 441.428965 59.820897 
L 442.951544 56.802783 
L 444.474124 54.242012 
L 445.996703 52.146777 
L 447.26552 50.761249 
L 448.534336 49.706774 
L 449.803152 48.985694 
L 450.818205 48.649977 
L 451.833258 48.529151 
L 452.848311 48.623387 
L 453.863364 48.932552 
L 454.878417 49.456206 
L 455.89347 50.193604 
L 457.162286 51.414302 
L 458.431102 52.964601 
L 459.699919 54.841057 
L 461.222498 57.517406 
L 462.745078 60.648812 
L 464.52142 64.863812 
L 466.297763 69.666139 
L 468.327869 75.846745 
L 470.357975 82.731918 
L 472.641844 91.271003 
L 475.179477 101.67151 
L 477.970872 114.114438 
L 481.016031 128.733085 
L 484.568717 146.921865 
L 488.882692 170.211702 
L 497.003116 215.612009 
L 502.83967 247.592514 
L 506.899882 268.603017 
L 510.198804 284.542581 
L 512.9902 297.044638 
L 515.527833 307.505631 
L 518.065465 317.008939 
L 520.349334 324.673121 
L 522.37944 330.732245 
L 524.155783 335.423763 
L 525.932126 339.524248 
L 527.454705 342.554926 
L 528.977285 345.128513 
L 530.499864 347.236773 
L 531.76868 348.633285 
L 533.037496 349.698838 
L 534.306313 350.431063 
L 535.321366 350.775729 
L 536.336419 350.905519 
L 537.351472 350.820248 
L 538.366525 350.520037 
L 539.381578 350.005314 
L 540.396631 349.276811 
L 541.665447 348.067161 
L 542.934263 346.52781 
L 544.203079 344.662177 
L 545.725659 341.998615 
L 547.248238 338.879741 
L 549.024581 334.678984 
L 550.800924 329.890435 
L 552.83103 323.724929 
L 554.861136 316.854085 
L 557.145005 308.330095 
L 559.682637 297.944962 
L 562.474033 285.517088 
L 565.519192 270.912459 
L 569.071877 252.736636 
L 573.385852 229.457307 
L 577.192301 208.263562 
L 577.192301 208.263562 
" clip-path="url(#p1eed091372)" style="fill: none; stroke-dasharray: 16,4,2.5,4; stroke-dashoffset: 0; stroke: #9467bd; stroke-width: 2.5"/>
   </g>
   <g id="line2d_28">
    <path d="M 69.919574 199.718057 
L 70.4271 199.654986 
L 70.934627 199.173853 
L 71.442153 198.143122 
L 71.94968 196.593385 
L 72.71097 193.53271 
L 73.979786 187.308988 
L 77.024945 170.763383 
L 82.10021 143.488082 
L 85.652895 125.510407 
L 88.698054 111.117363 
L 91.48945 98.914985 
L 94.027082 88.758943 
L 96.310951 80.459021 
L 98.594821 73.017501 
L 100.624927 67.166895 
L 102.401269 62.665042 
L 104.177612 58.760089 
L 105.700191 55.901035 
L 107.222771 53.502207 
L 108.491587 51.86033 
L 109.760403 50.547062 
L 111.02922 49.565321 
L 112.044273 49.02012 
L 113.059326 48.689283 
L 114.074379 48.573281 
L 115.089432 48.672278 
L 116.104485 48.986135 
L 117.119537 49.514404 
L 118.13459 50.256335 
L 119.403407 51.482574 
L 120.672223 53.038262 
L 121.941039 54.919943 
L 123.463619 57.602332 
L 124.986198 60.739506 
L 126.762541 64.960869 
L 128.538884 69.769138 
L 130.568989 75.955986 
L 132.599095 82.846782 
L 134.882965 91.391415 
L 137.420597 101.797074 
L 140.211993 114.244385 
L 143.257152 128.866228 
L 146.809837 147.056594 
L 151.123812 170.345224 
L 159.244236 215.734122 
L 165.080791 247.699557 
L 169.141003 268.69659 
L 172.439925 284.62364 
L 175.231321 297.114158 
L 177.768953 307.564016 
L 180.306586 317.055675 
L 182.590455 324.709019 
L 184.620561 330.758293 
L 186.396903 335.441071 
L 188.173246 339.532741 
L 189.695826 342.555834 
L 191.218405 345.121834 
L 192.740985 347.222529 
L 194.009801 348.612772 
L 195.278617 349.672101 
L 196.547433 350.398162 
L 197.562486 350.737948 
L 198.577539 350.862912 
L 199.592592 350.772877 
L 200.607645 350.467969 
L 201.622698 349.948623 
L 202.637751 349.215577 
L 203.906567 348.000371 
L 205.175384 346.455611 
L 206.4442 344.584731 
L 207.966779 341.915099 
L 209.489359 338.790422 
L 211.265701 334.583256 
L 213.042044 329.788712 
L 215.07215 323.616898 
L 217.102256 316.740357 
L 219.386125 308.210729 
L 221.923758 297.820335 
L 224.715153 285.387949 
L 227.760312 270.779973 
L 231.312998 252.602377 
L 235.626973 229.324017 
L 243.747397 183.938131 
L 249.583952 151.961604 
L 253.644163 130.95058 
L 256.943086 115.008609 
L 259.988245 101.416174 
L 262.525877 91.042663 
L 264.809746 82.529609 
L 267.093615 74.860051 
L 269.123721 68.795555 
L 270.900064 64.098937 
L 272.676407 59.992986 
L 274.198986 56.957341 
L 275.721566 54.378545 
L 277.244145 52.264848 
L 278.512961 50.863644 
L 279.781778 49.793265 
L 281.050594 49.056089 
L 282.065647 48.707381 
L 283.0807 48.573482 
L 284.095753 48.654582 
L 285.110806 48.950567 
L 286.125859 49.461015 
L 287.140912 50.1852 
L 288.409728 51.389402 
L 289.678544 52.92326 
L 290.94736 54.783365 
L 292.46994 57.440267 
L 293.992519 60.552472 
L 295.768862 64.745465 
L 297.545205 69.5263 
L 299.575311 75.683095 
L 301.605417 82.545386 
L 303.889286 91.060005 
L 306.426918 101.435114 
L 309.218314 113.852538 
L 312.263473 128.446581 
L 315.816159 146.611305 
L 320.130134 169.879228 
L 327.996794 213.843345 
L 333.833349 245.893914 
L 337.893561 267.000441 
L 341.192483 283.044959 
L 344.237642 296.750496 
L 346.775274 307.23072 
L 349.312907 316.755701 
L 351.596776 324.441318 
L 353.626882 330.520901 
L 355.403225 335.231311 
L 357.179567 339.351525 
L 358.702147 342.399715 
L 360.224726 344.991311 
L 361.747306 347.11802 
L 363.016122 348.530199 
L 364.284938 349.611647 
L 365.553755 350.359961 
L 366.568808 350.717614 
L 367.583861 350.860473 
L 368.598914 350.788336 
L 369.613967 350.501305 
L 370.629019 349.999788 
L 371.644072 349.284498 
L 372.912889 348.091347 
L 374.181705 346.568441 
L 375.450521 344.719164 
L 376.973101 342.075058 
L 378.49568 338.975396 
L 380.272023 334.796662 
L 382.048366 330.029624 
L 384.078471 323.887954 
L 386.108577 317.040019 
L 388.392447 308.540532 
L 390.930079 298.180841 
L 393.721475 285.778525 
L 396.766634 271.198566 
L 400.319319 253.046881 
L 404.633294 229.789573 
L 412.499955 185.829348 
L 418.590273 152.412937 
L 422.650485 131.374526 
L 425.949407 115.40319 
L 428.994566 101.778392 
L 431.532198 91.374359 
L 433.816068 82.831314 
L 436.099937 75.129596 
L 438.130043 69.034882 
L 439.906385 64.310671 
L 441.682728 60.176193 
L 443.205308 57.115457 
L 444.727887 54.511062 
L 446.250467 52.371342 
L 447.519283 50.948188 
L 448.788099 49.855671 
L 450.056915 49.096218 
L 451.071968 48.729622 
L 452.087021 48.577803 
L 453.102074 48.640977 
L 454.117127 48.919055 
L 455.13218 49.411641 
L 456.147233 50.118035 
L 457.416049 51.300135 
L 458.684866 52.812089 
L 459.953682 54.650539 
L 461.476261 57.281848 
L 462.998841 60.368968 
L 464.775183 64.533443 
L 466.551526 69.286685 
L 468.581632 75.41323 
L 470.611738 82.246809 
L 472.895607 90.731164 
L 475.43324 101.075437 
L 478.224635 113.462645 
L 481.269794 128.02852 
L 484.82248 146.167167 
L 489.136455 169.41386 
L 496.749352 211.950215 
L 502.83967 245.441046 
L 506.899882 266.574308 
L 510.198804 282.64772 
L 513.243963 296.385235 
L 515.781596 306.895701 
L 518.319228 316.453902 
L 520.603097 324.17172 
L 522.633203 330.281565 
L 524.663309 335.648783 
L 526.439652 339.711805 
L 527.962232 342.709717 
L 529.484811 345.250043 
L 531.00739 347.324653 
L 532.276207 348.692905 
L 533.545023 349.730064 
L 534.560076 350.319832 
L 535.575129 350.695372 
L 536.590182 350.856151 
L 537.605235 350.80194 
L 538.620288 350.532815 
L 539.635341 350.049159 
L 540.650394 349.351661 
L 541.91921 348.180612 
L 543.188026 346.679609 
L 544.456842 344.851987 
L 545.979422 342.233474 
L 547.502001 339.158897 
L 549.278344 335.008681 
L 551.054687 330.269236 
L 553.084793 324.157815 
L 555.114899 317.338593 
L 557.398768 308.869368 
L 559.9364 298.540514 
L 562.727796 286.168414 
L 565.772955 271.616623 
L 569.325641 253.491014 
L 573.639616 230.254936 
L 577.192301 210.504457 
L 577.192301 210.504457 
" clip-path="url(#p1eed091372)" style="fill: none; stroke-dasharray: 9.25,4; stroke-dashoffset: 0; stroke: #2ca02c; stroke-width: 2.5"/>
   </g>
   <g id="line2d_29">
    <path d="M 69.919574 199.718057 
L 70.934627 199.610947 
L 71.442153 199.368197 
L 71.94968 198.94526 
L 72.71097 197.948587 
L 73.472259 196.526052 
L 74.487312 194.029655 
L 75.756129 190.098037 
L 77.278708 184.457978 
L 79.055051 176.973708 
L 81.592683 165.24547 
L 93.519556 108.662409 
L 96.310951 97.0483 
L 98.848584 87.400275 
L 101.132453 79.546858 
L 103.162559 73.280165 
L 105.192665 67.726349 
L 106.969008 63.478208 
L 108.74535 59.82126 
L 110.26793 57.169934 
L 111.790509 54.973979 
L 113.059326 53.497142 
L 114.328142 52.344968 
L 115.596958 51.520089 
L 116.612011 51.097133 
L 117.627064 50.885494 
L 118.642117 50.885489 
L 119.65717 51.097134 
L 120.672223 51.52014 
L 121.687276 52.153913 
L 122.956092 53.241133 
L 124.224908 54.653855 
L 125.493725 56.388949 
L 127.016304 58.891123 
L 128.538884 61.843935 
L 130.315226 65.845761 
L 132.091569 70.430623 
L 134.121675 76.358667 
L 136.151781 82.988358 
L 138.43565 91.238352 
L 140.973283 101.318014 
L 143.764678 113.411753 
L 146.809837 127.658217 
L 150.362523 145.430496 
L 154.676498 168.250157 
L 161.781869 207.309987 
L 168.379713 243.166478 
L 172.439925 264.072072 
L 175.738847 280.002175 
L 178.784006 293.642614 
L 181.575402 305.095033 
L 184.113034 314.526412 
L 186.396903 322.144707 
L 188.427009 328.178317 
L 190.457115 333.481265 
L 192.233458 337.498154 
L 193.756038 340.464192 
L 195.278617 342.97983 
L 196.801196 345.037018 
L 198.070013 346.396342 
L 199.338829 347.429678 
L 200.607645 348.13473 
L 201.622698 348.461329 
L 202.637751 348.576338 
L 203.652804 348.479579 
L 204.667857 348.171211 
L 205.68291 347.651671 
L 206.951726 346.706442 
L 208.220543 345.434535 
L 209.489359 343.838777 
L 211.011938 341.501428 
L 212.534518 338.710358 
L 214.057097 335.474498 
L 215.83344 331.151057 
L 217.609783 326.255188 
L 219.639889 319.986444 
L 221.923758 312.118355 
L 224.207627 303.441229 
L 226.745259 292.927258 
L 229.536655 280.40919 
L 232.835577 264.507978 
L 236.642026 244.968153 
L 241.463528 218.972136 
L 254.405453 148.507924 
L 258.211902 129.315545 
L 261.510824 113.806455 
L 264.30222 101.681655 
L 266.839852 91.570352 
L 269.123721 83.289349 
L 271.407591 75.84638 
L 273.437697 69.97739 
L 275.214039 65.446335 
L 276.990382 61.500067 
L 278.512961 58.596095 
L 280.035541 56.143727 
L 281.55812 54.150809 
L 282.826937 52.84566 
L 284.095753 51.866931 
L 285.110806 51.320455 
L 286.125859 50.985072 
L 287.140912 50.861258 
L 288.155965 50.949189 
L 289.171018 51.248741 
L 290.186071 51.759487 
L 291.454887 52.693776 
L 292.723703 53.954822 
L 293.992519 55.539823 
L 295.515099 57.864435 
L 297.037678 60.642993 
L 298.560258 63.866606 
L 300.336601 68.176147 
L 302.112943 73.058589 
L 304.143049 79.312646 
L 306.426918 87.165148 
L 308.710788 95.827786 
L 311.24842 106.327077 
L 314.039816 118.830868 
L 317.338738 134.717937 
L 321.145187 154.245379 
L 325.966688 180.232122 
L 339.162377 252.024669 
L 342.968826 271.148679 
L 346.267748 286.58185 
L 349.059144 298.6312 
L 351.596776 308.665712 
L 353.880645 316.871506 
L 356.164515 324.234052 
L 358.19462 330.027642 
L 359.970963 334.490055 
L 361.747306 338.365501 
L 363.269885 341.207268 
L 364.792465 343.596258 
L 366.061281 345.23565 
L 367.330097 346.551633 
L 368.598914 347.541284 
L 369.613967 348.096542 
L 370.629019 348.440736 
L 371.644072 348.573375 
L 372.659125 348.494271 
L 373.674178 348.203535 
L 374.689231 347.701583 
L 375.704284 346.989128 
L 376.973101 345.804111 
L 378.241917 344.294421 
L 379.510733 342.463414 
L 381.033313 339.847846 
L 382.555892 336.783848 
L 384.332235 332.655577 
L 386.108577 327.948326 
L 388.138683 321.886067 
L 390.168789 315.128929 
L 392.452659 306.744552 
L 394.990291 296.527883 
L 397.781687 284.2998 
L 400.826846 269.927969 
L 404.379531 252.039438 
L 408.693506 229.124776 
L 416.560167 185.826735 
L 422.396722 154.260622 
L 426.456933 133.472549 
L 429.755856 117.66974 
L 432.801015 104.170361 
L 435.338647 93.84753 
L 437.876279 84.465348 
L 440.160149 76.894724 
L 442.190255 70.905898 
L 443.966597 66.265628 
L 445.74294 62.206577 
L 447.26552 59.203464 
L 448.788099 56.650011 
L 450.310679 54.554388 
L 451.579495 53.162651 
L 452.848311 52.096628 
L 454.117127 51.35869 
L 455.13218 51.005687 
L 456.147233 50.864223 
L 457.162286 50.9345 
L 458.177339 51.216418 
L 459.192392 51.709577 
L 460.207445 52.413275 
L 461.476261 53.587414 
L 462.745078 55.086324 
L 464.013894 56.906675 
L 465.536473 59.509652 
L 467.059053 62.561311 
L 468.835395 66.675556 
L 470.611738 71.36924 
L 472.641844 77.41663 
L 474.67195 84.159658 
L 476.955819 92.529169 
L 479.493452 102.730697 
L 482.284847 114.943954 
L 485.330006 129.301976 
L 488.882692 147.177743 
L 493.196667 170.082051 
L 501.063328 213.376446 
L 507.153645 246.28792 
L 511.213857 267.009024 
L 514.51278 282.739849 
L 517.557939 296.159787 
L 520.095571 306.407638 
L 522.37944 314.822651 
L 524.663309 322.409165 
L 526.693415 328.412919 
L 528.723521 333.684674 
L 530.499864 337.673315 
L 532.022443 340.614526 
L 533.545023 343.104857 
L 535.067602 345.136336 
L 536.336419 346.47399 
L 537.605235 347.485483 
L 538.874051 348.168568 
L 539.889104 348.477537 
L 540.904157 348.574899 
L 541.91921 348.460516 
L 542.934263 348.13455 
L 543.949316 347.597464 
L 545.218132 346.630414 
L 546.486948 345.336854 
L 547.755765 343.719661 
L 549.278344 341.356941 
L 550.800924 338.540962 
L 552.323503 335.280735 
L 554.099846 330.929652 
L 555.876189 326.007105 
L 557.906294 319.709197 
L 560.190164 311.810188 
L 562.474033 303.104357 
L 565.011665 292.561336 
L 567.803061 280.015071 
L 571.101983 264.086007 
L 574.908432 244.52192 
L 577.192301 232.328369 
L 577.192301 232.328369 
" clip-path="url(#p1eed091372)" style="fill: none; stroke-dasharray: 2.5,4.125; stroke-dashoffset: 0; stroke: #d62728; stroke-width: 2.5"/>
   </g>
   <g id="patch_3">
    <path d="M 44.555937 366.037812 
L 44.555937 33.397812 
" style="fill: none; stroke: #000000; stroke-width: 0.8; stroke-linejoin: miter; stroke-linecap: square"/>
   </g>
   <g id="patch_4">
    <path d="M 602.555938 366.037812 
L 602.555938 33.397812 
" style="fill: none; stroke: #000000; stroke-width: 0.8; stroke-linejoin: miter; stroke-linecap: square"/>
   </g>
   <g id="patch_5">
    <path d="M 44.555937 366.037812 
L 602.555938 366.037812 
" style="fill: none; stroke: #000000; stroke-width: 0.8; stroke-linejoin: miter; stroke-linecap: square"/>
   </g>
   <g id="patch_6">
    <path d="M 44.555937 33.397812 
L 602.555938 33.397812 
" style="fill: none; stroke: #000000; stroke-width: 0.8; stroke-linejoin: miter; stroke-linecap: square"/>
   </g>
   <g id="text_15">
    <!-- Respuesta Transitoria a 10 kHz (Senoidal, 100uV pico, 3 Ciclos) - 5 Vías -->
    <g transform="translate(73.953438 18.397812) scale(0.14 -0.14)">
     <defs>
      <path id="DejaVuSans-52" d="M 2841 2188 
Q 3044 2119 3236 1894 
Q 3428 1669 3622 1275 
L 4263 0 
L 3584 0 
L 2988 1197 
Q 2756 1666 2539 1819 
Q 2322 1972 1947 1972 
L 1259 1972 
L 1259 0 
L 628 0 
L 628 4666 
L 2053 4666 
Q 2853 4666 3247 4331 
Q 3641 3997 3641 3322 
Q 3641 2881 3436 2590 
Q 3231 2300 2841 2188 
z
M 1259 4147 
L 1259 2491 
L 2053 2491 
Q 2509 2491 2742 2702 
Q 2975 2913 2975 3322 
Q 2975 3731 2742 3939 
Q 2509 4147 2053 4147 
L 1259 4147 
z
" transform="scale(0.015625)"/>
      <path id="DejaVuSans-75" d="M 544 1381 
L 544 3500 
L 1119 3500 
L 1119 1403 
Q 1119 906 1312 657 
Q 1506 409 1894 409 
Q 2359 409 2629 706 
Q 2900 1003 2900 1516 
L 2900 3500 
L 3475 3500 
L 3475 0 
L 2900 0 
L 2900 538 
Q 2691 219 2414 64 
Q 2138 -91 1772 -91 
Q 1169 -91 856 284 
Q 544 659 544 1381 
z
M 1991 3584 
L 1991 3584 
z
" transform="scale(0.015625)"/>
      <path id="DejaVuSans-74" d="M 1172 4494 
L 1172 3500 
L 2356 3500 
L 2356 3053 
L 1172 3053 
L 1172 1153 
Q 1172 725 1289 603 
Q 1406 481 1766 481 
L 2356 481 
L 2356 0 
L 1766 0 
Q 1100 0 847 248 
Q 594 497 594 1153 
L 594 3053 
L 172 3053 
L 172 3500 
L 594 3500 
L 594 4494 
L 1172 4494 
z
" transform="scale(0.015625)"/>
      <path id="DejaVuSans-72" d="M 2631 2963 
Q 2534 3019 2420 3045 
Q 2306 3072 2169 3072 
Q 1681 3072 1420 2755 
Q 1159 2438 1159 1844 
L 1159 0 
L 581 0 
L 581 3500 
L 1159 3500 
L 1159 2956 
Q 1341 3275 1631 3429 
Q 1922 3584 2338 3584 
Q 2397 3584 2469 3576 
Q 2541 3569 2628 3553 
L 2631 2963 
z
" transform="scale(0.015625)"/>
      <path id="DejaVuSans-6b" d="M 581 4863 
L 1159 4863 
L 1159 1991 
L 2875 3500 
L 3609 3500 
L 1753 1863 
L 3688 0 
L 2938 0 
L 1159 1709 
L 1159 0 
L 581 0 
L 581 4863 
z
" transform="scale(0.015625)"/>
      <path id="DejaVuSans-48" d="M 628 4666 
L 1259 4666 
L 1259 2753 
L 3553 2753 
L 3553 4666 
L 4184 4666 
L 4184 0 
L 3553 0 
L 3553 2222 
L 1259 2222 
L 1259 0 
L 628 0 
L 628 4666 
z
" transform="scale(0.015625)"/>
      <path id="DejaVuSans-7a" d="M 353 3500 
L 3084 3500 
L 3084 2975 
L 922 459 
L 3084 459 
L 3084 0 
L 275 0 
L 275 525 
L 2438 3041 
L 353 3041 
L 353 3500 
z
" transform="scale(0.015625)"/>
      <path id="DejaVuSans-2c" d="M 750 794 
L 1409 794 
L 1409 256 
L 897 -744 
L 494 -744 
L 750 256 
L 750 794 
z
" transform="scale(0.015625)"/>
      <path id="DejaVuSans-63" d="M 3122 3366 
L 3122 2828 
Q 2878 2963 2633 3030 
Q 2388 3097 2138 3097 
Q 1578 3097 1268 2742 
Q 959 2388 959 1747 
Q 959 1106 1268 751 
Q 1578 397 2138 397 
Q 2388 397 2633 464 
Q 2878 531 3122 666 
L 3122 134 
Q 2881 22 2623 -34 
Q 2366 -91 2075 -91 
Q 1284 -91 818 406 
Q 353 903 353 1747 
Q 353 2603 823 3093 
Q 1294 3584 2113 3584 
Q 2378 3584 2631 3529 
Q 2884 3475 3122 3366 
z
" transform="scale(0.015625)"/>
      <path id="DejaVuSans-43" d="M 4122 4306 
L 4122 3641 
Q 3803 3938 3442 4084 
Q 3081 4231 2675 4231 
Q 1875 4231 1450 3742 
Q 1025 3253 1025 2328 
Q 1025 1406 1450 917 
Q 1875 428 2675 428 
Q 3081 428 3442 575 
Q 3803 722 4122 1019 
L 4122 359 
Q 3791 134 3420 21 
Q 3050 -91 2638 -91 
Q 1578 -91 968 557 
Q 359 1206 359 2328 
Q 359 3453 968 4101 
Q 1578 4750 2638 4750 
Q 3056 4750 3426 4639 
Q 3797 4528 4122 4306 
z
" transform="scale(0.015625)"/>
      <path id="DejaVuSans-2d" d="M 313 2009 
L 1997 2009 
L 1997 1497 
L 313 1497 
L 313 2009 
z
" transform="scale(0.015625)"/>
      <path id="DejaVuSans-ed" d="M 1322 5119 
L 1944 5119 
L 926 3944 
L 447 3944 
L 1322 5119 
z
M 603 3500 
L 1178 3500 
L 1178 0 
L 603 0 
L 603 3500 
z
M 891 3584 
L 891 3584 
z
" transform="scale(0.015625)"/>
     </defs>
     <use xlink:href="#DejaVuSans-52"/>
     <use xlink:href="#DejaVuSans-65" transform="translate(64.982422 0)"/>
     <use xlink:href="#DejaVuSans-73" transform="translate(126.505859 0)"/>
     <use xlink:href="#DejaVuSans-70" transform="translate(178.605469 0)"/>
     <use xlink:href="#DejaVuSans-75" transform="translate(242.082031 0)"/>
     <use xlink:href="#DejaVuSans-65" transform="translate(305.460938 0)"/>
     <use xlink:href="#DejaVuSans-73" transform="translate(366.984375 0)"/>
     <use xlink:href="#DejaVuSans-74" transform="translate(419.083984 0)"/>
     <use xlink:href="#DejaVuSans-61" transform="translate(458.292969 0)"/>
     <use xlink:href="#DejaVuSans-20" transform="translate(519.572266 0)"/>
     <use xlink:href="#DejaVuSans-54" transform="translate(551.359375 0)"/>
     <use xlink:href="#DejaVuSans-72" transform="translate(597.693359 0)"/>
     <use xlink:href="#DejaVuSans-61" transform="translate(638.806641 0)"/>
     <use xlink:href="#DejaVuSans-6e" transform="translate(700.085938 0)"/>
     <use xlink:href="#DejaVuSans-73" transform="translate(763.464844 0)"/>
     <use xlink:href="#DejaVuSans-69" transform="translate(815.564453 0)"/>
     <use xlink:href="#DejaVuSans-74" transform="translate(843.347656 0)"/>
     <use xlink:href="#DejaVuSans-6f" transform="translate(882.556641 0)"/>
     <use xlink:href="#DejaVuSans-72" transform="translate(943.738281 0)"/>
     <use xlink:href="#DejaVuSans-69" transform="translate(984.851562 0)"/>
     <use xlink:href="#DejaVuSans-61" transform="translate(1012.634766 0)"/>
     <use xlink:href="#DejaVuSans-20" transform="translate(1073.914062 0)"/>
     <use xlink:href="#DejaVuSans-61" transform="translate(1105.701172 0)"/>
     <use xlink:href="#DejaVuSans-20" transform="translate(1166.980469 0)"/>
     <use xlink:href="#DejaVuSans-31" transform="translate(1198.767578 0)"/>
     <use xlink:href="#DejaVuSans-30" transform="translate(1262.390625 0)"/>
     <use xlink:href="#DejaVuSans-20" transform="translate(1326.013672 0)"/>
     <use xlink:href="#DejaVuSans-6b" transform="translate(1357.800781 0)"/>
     <use xlink:href="#DejaVuSans-48" transform="translate(1415.710938 0)"/>
     <use xlink:href="#DejaVuSans-7a" transform="translate(1490.90625 0)"/>
     <use xlink:href="#DejaVuSans-20" transform="translate(1543.396484 0)"/>
     <use xlink:href="#DejaVuSans-28" transform="translate(1575.183594 0)"/>
     <use xlink:href="#DejaVuSans-53" transform="translate(1614.197266 0)"/>
     <use xlink:href="#DejaVuSans-65" transform="translate(1677.673828 0)"/>
     <use xlink:href="#DejaVuSans-6e" transform="translate(1739.197266 0)"/>
     <use xlink:href="#DejaVuSans-6f" transform="translate(1802.576172 0)"/>
     <use xlink:href="#DejaVuSans-69" transform="translate(1863.757812 0)"/>
     <use xlink:href="#DejaVuSans-64" transform="translate(1891.541016 0)"/>
     <use xlink:href="#DejaVuSans-61" transform="translate(1955.017578 0)"/>
     <use xlink:href="#DejaVuSans-6c" transform="translate(2016.296875 0)"/>
     <use xlink:href="#DejaVuSans-2c" transform="translate(2044.080078 0)"/>
     <use xlink:href="#DejaVuSans-20" transform="translate(2075.867188 0)"/>
     <use xlink:href="#DejaVuSans-31" transform="translate(2107.654297 0)"/>
     <use xlink:href="#DejaVuSans-30" transform="translate(2171.277344 0)"/>
     <use xlink:href="#DejaVuSans-30" transform="translate(2234.900391 0)"/>
     <use xlink:href="#DejaVuSans-75" transform="translate(2298.523438 0)"/>
     <use xlink:href="#DejaVuSans-56" transform="translate(2361.902344 0)"/>
     <use xlink:href="#DejaVuSans-20" transform="translate(2430.310547 0)"/>
     <use xlink:href="#DejaVuSans-70" transform="translate(2462.097656 0)"/>
     <use xlink:href="#DejaVuSans-69" transform="translate(2525.574219 0)"/>
     <use xlink:href="#DejaVuSans-63" transform="translate(2553.357422 0)"/>
     <use xlink:href="#DejaVuSans-6f" transform="translate(2608.337891 0)"/>
     <use xlink:href="#DejaVuSans-2c" transform="translate(2669.519531 0)"/>
     <use xlink:href="#DejaVuSans-20" transform="translate(2701.306641 0)"/>
     <use xlink:href="#DejaVuSans-33" transform="translate(2733.09375 0)"/>
     <use xlink:href="#DejaVuSans-20" transform="translate(2796.716797 0)"/>
     <use xlink:href="#DejaVuSans-43" transform="translate(2828.503906 0)"/>
     <use xlink:href="#DejaVuSans-69" transform="translate(2898.328125 0)"/>
     <use xlink:href="#DejaVuSans-63" transform="translate(2926.111328 0)"/>
     <use xlink:href="#DejaVuSans-6c" transform="translate(2981.091797 0)"/>
     <use xlink:href="#DejaVuSans-6f" transform="translate(3008.875 0)"/>
     <use xlink:href="#DejaVuSans-73" transform="translate(3070.056641 0)"/>
     <use xlink:href="#DejaVuSans-29" transform="translate(3122.15625 0)"/>
     <use xlink:href="#DejaVuSans-20" transform="translate(3161.169922 0)"/>
     <use xlink:href="#DejaVuSans-2d" transform="translate(3192.957031 0)"/>
     <use xlink:href="#DejaVuSans-20" transform="translate(3229.041016 0)"/>
     <use xlink:href="#DejaVuSans-35" transform="translate(3260.828125 0)"/>
     <use xlink:href="#DejaVuSans-20" transform="translate(3324.451172 0)"/>
     <use xlink:href="#DejaVuSans-56" transform="translate(3356.238281 0)"/>
     <use xlink:href="#DejaVuSans-ed" transform="translate(3424.646484 0)"/>
     <use xlink:href="#DejaVuSans-61" transform="translate(3452.429688 0)"/>
     <use xlink:href="#DejaVuSans-73" transform="translate(3513.708984 0)"/>
    </g>
   </g>
   <g id="legend_1">
    <g id="patch_7">
     <path d="M 451.768281 122.9275 
L 594.855937 122.9275 
Q 597.055938 122.9275 597.055938 120.7275 
L 597.055938 41.097812 
Q 597.055938 38.897812 594.855937 38.897812 
L 451.768281 38.897812 
Q 449.568281 38.897812 449.568281 41.097812 
L 449.568281 120.7275 
Q 449.568281 122.9275 451.768281 122.9275 
z
" style="fill: #ffffff; opacity: 0.8; stroke: #cccccc; stroke-linejoin: miter"/>
    </g>
    <g id="line2d_30">
     <path d="M 453.968281 47.806094 
L 464.968281 47.806094 
L 475.968281 47.806094 
" style="fill: none; stroke: #1f77b4; stroke-width: 2.5; stroke-linecap: square"/>
    </g>
    <g id="text_16">
     <!-- Ideal Op-Amp -->
     <g transform="translate(484.768281 51.656094) scale(0.11 -0.11)">
      <defs>
       <path id="DejaVuSans-49" d="M 628 4666 
L 1259 4666 
L 1259 0 
L 628 0 
L 628 4666 
z
" transform="scale(0.015625)"/>
       <path id="DejaVuSans-4f" d="M 2522 4238 
Q 1834 4238 1429 3725 
Q 1025 3213 1025 2328 
Q 1025 1447 1429 934 
Q 1834 422 2522 422 
Q 3209 422 3611 934 
Q 4013 1447 4013 2328 
Q 4013 3213 3611 3725 
Q 3209 4238 2522 4238 
z
M 2522 4750 
Q 3503 4750 4090 4092 
Q 4678 3434 4678 2328 
Q 4678 1225 4090 567 
Q 3503 -91 2522 -91 
Q 1538 -91 948 565 
Q 359 1222 359 2328 
Q 359 3434 948 4092 
Q 1538 4750 2522 4750 
z
" transform="scale(0.015625)"/>
       <path id="DejaVuSans-41" d="M 2188 4044 
L 1331 1722 
L 3047 1722 
L 2188 4044 
z
M 1831 4666 
L 2547 4666 
L 4325 0 
L 3669 0 
L 3244 1197 
L 1141 1197 
L 716 0 
L 50 0 
L 1831 4666 
z
" transform="scale(0.015625)"/>
      </defs>
      <use xlink:href="#DejaVuSans-49"/>
      <use xlink:href="#DejaVuSans-64" transform="translate(29.492188 0)"/>
      <use xlink:href="#DejaVuSans-65" transform="translate(92.96875 0)"/>
      <use xlink:href="#DejaVuSans-61" transform="translate(154.492188 0)"/>
      <use xlink:href="#DejaVuSans-6c" transform="translate(215.771484 0)"/>
      <use xlink:href="#DejaVuSans-20" transform="translate(243.554688 0)"/>
      <use xlink:href="#DejaVuSans-4f" transform="translate(275.341797 0)"/>
      <use xlink:href="#DejaVuSans-70" transform="translate(354.052734 0)"/>
      <use xlink:href="#DejaVuSans-2d" transform="translate(417.529297 0)"/>
      <use xlink:href="#DejaVuSans-41" transform="translate(451.363281 0)"/>
      <use xlink:href="#DejaVuSans-6d" transform="translate(519.771484 0)"/>
      <use xlink:href="#DejaVuSans-70" transform="translate(617.183594 0)"/>
     </g>
    </g>
    <g id="line2d_31">
     <path d="M 453.968281 63.952031 
L 464.968281 63.952031 
L 475.968281 63.952031 
" style="fill: none; stroke: #ff7f0e; stroke-width: 3; stroke-linecap: square"/>
    </g>
    <g id="text_17">
     <!-- ADA4817-1 FastFET -->
     <g transform="translate(484.768281 67.802031) scale(0.11 -0.11)">
      <defs>
       <path id="DejaVuSans-44" d="M 1259 4147 
L 1259 519 
L 2022 519 
Q 2988 519 3436 956 
Q 3884 1394 3884 2338 
Q 3884 3275 3436 3711 
Q 2988 4147 2022 4147 
L 1259 4147 
z
M 628 4666 
L 1925 4666 
Q 3281 4666 3915 4102 
Q 4550 3538 4550 2338 
Q 4550 1131 3912 565 
Q 3275 0 1925 0 
L 628 0 
L 628 4666 
z
" transform="scale(0.015625)"/>
       <path id="DejaVuSans-34" d="M 2419 4116 
L 825 1625 
L 2419 1625 
L 2419 4116 
z
M 2253 4666 
L 3047 4666 
L 3047 1625 
L 3713 1625 
L 3713 1100 
L 3047 1100 
L 3047 0 
L 2419 0 
L 2419 1100 
L 313 1100 
L 313 1709 
L 2253 4666 
z
" transform="scale(0.015625)"/>
       <path id="DejaVuSans-38" d="M 2034 2216 
Q 1584 2216 1326 1975 
Q 1069 1734 1069 1313 
Q 1069 891 1326 650 
Q 1584 409 2034 409 
Q 2484 409 2743 651 
Q 3003 894 3003 1313 
Q 3003 1734 2745 1975 
Q 2488 2216 2034 2216 
z
M 1403 2484 
Q 997 2584 770 2862 
Q 544 3141 544 3541 
Q 544 4100 942 4425 
Q 1341 4750 2034 4750 
Q 2731 4750 3128 4425 
Q 3525 4100 3525 3541 
Q 3525 3141 3298 2862 
Q 3072 2584 2669 2484 
Q 3125 2378 3379 2068 
Q 3634 1759 3634 1313 
Q 3634 634 3220 271 
Q 2806 -91 2034 -91 
Q 1263 -91 848 271 
Q 434 634 434 1313 
Q 434 1759 690 2068 
Q 947 2378 1403 2484 
z
M 1172 3481 
Q 1172 3119 1398 2916 
Q 1625 2713 2034 2713 
Q 2441 2713 2670 2916 
Q 2900 3119 2900 3481 
Q 2900 3844 2670 4047 
Q 2441 4250 2034 4250 
Q 1625 4250 1398 4047 
Q 1172 3844 1172 3481 
z
" transform="scale(0.015625)"/>
       <path id="DejaVuSans-37" d="M 525 4666 
L 3525 4666 
L 3525 4397 
L 1831 0 
L 1172 0 
L 2766 4134 
L 525 4134 
L 525 4666 
z
" transform="scale(0.015625)"/>
       <path id="DejaVuSans-46" d="M 628 4666 
L 3309 4666 
L 3309 4134 
L 1259 4134 
L 1259 2759 
L 3109 2759 
L 3109 2228 
L 1259 2228 
L 1259 0 
L 628 0 
L 628 4666 
z
" transform="scale(0.015625)"/>
       <path id="DejaVuSans-45" d="M 628 4666 
L 3578 4666 
L 3578 4134 
L 1259 4134 
L 1259 2753 
L 3481 2753 
L 3481 2222 
L 1259 2222 
L 1259 531 
L 3634 531 
L 3634 0 
L 628 0 
L 628 4666 
z
" transform="scale(0.015625)"/>
      </defs>
      <use xlink:href="#DejaVuSans-41"/>
      <use xlink:href="#DejaVuSans-44" transform="translate(68.408203 0)"/>
      <use xlink:href="#DejaVuSans-41" transform="translate(143.660156 0)"/>
      <use xlink:href="#DejaVuSans-34" transform="translate(212.068359 0)"/>
      <use xlink:href="#DejaVuSans-38" transform="translate(275.691406 0)"/>
      <use xlink:href="#DejaVuSans-31" transform="translate(339.314453 0)"/>
      <use xlink:href="#DejaVuSans-37" transform="translate(402.9375 0)"/>
      <use xlink:href="#DejaVuSans-2d" transform="translate(466.560547 0)"/>
      <use xlink:href="#DejaVuSans-31" transform="translate(502.644531 0)"/>
      <use xlink:href="#DejaVuSans-20" transform="translate(566.267578 0)"/>
      <use xlink:href="#DejaVuSans-46" transform="translate(598.054688 0)"/>
      <use xlink:href="#DejaVuSans-61" transform="translate(646.449219 0)"/>
      <use xlink:href="#DejaVuSans-73" transform="translate(707.728516 0)"/>
      <use xlink:href="#DejaVuSans-74" transform="translate(759.828125 0)"/>
      <use xlink:href="#DejaVuSans-46" transform="translate(799.037109 0)"/>
      <use xlink:href="#DejaVuSans-45" transform="translate(856.556641 0)"/>
      <use xlink:href="#DejaVuSans-54" transform="translate(919.740234 0)"/>
     </g>
    </g>
    <g id="line2d_32">
     <path d="M 453.968281 80.097969 
L 464.968281 80.097969 
L 475.968281 80.097969 
" style="fill: none; stroke-dasharray: 16,4,2.5,4; stroke-dashoffset: 0; stroke: #9467bd; stroke-width: 2.5"/>
    </g>
    <g id="text_18">
     <!-- OPA828 JFET -->
     <g transform="translate(484.768281 83.947969) scale(0.11 -0.11)">
      <defs>
       <path id="DejaVuSans-50" d="M 1259 4147 
L 1259 2394 
L 2053 2394 
Q 2494 2394 2734 2622 
Q 2975 2850 2975 3272 
Q 2975 3691 2734 3919 
Q 2494 4147 2053 4147 
L 1259 4147 
z
M 628 4666 
L 2053 4666 
Q 2838 4666 3239 4311 
Q 3641 3956 3641 3272 
Q 3641 2581 3239 2228 
Q 2838 1875 2053 1875 
L 1259 1875 
L 1259 0 
L 628 0 
L 628 4666 
z
" transform="scale(0.015625)"/>
       <path id="DejaVuSans-4a" d="M 628 4666 
L 1259 4666 
L 1259 325 
Q 1259 -519 939 -900 
Q 619 -1281 -91 -1281 
L -331 -1281 
L -331 -750 
L -134 -750 
Q 284 -750 456 -515 
Q 628 -281 628 325 
L 628 4666 
z
" transform="scale(0.015625)"/>
      </defs>
      <use xlink:href="#DejaVuSans-4f"/>
      <use xlink:href="#DejaVuSans-50" transform="translate(78.710938 0)"/>
      <use xlink:href="#DejaVuSans-41" transform="translate(132.638672 0)"/>
      <use xlink:href="#DejaVuSans-38" transform="translate(201.046875 0)"/>
      <use xlink:href="#DejaVuSans-32" transform="translate(264.669922 0)"/>
      <use xlink:href="#DejaVuSans-38" transform="translate(328.292969 0)"/>
      <use xlink:href="#DejaVuSans-20" transform="translate(391.916016 0)"/>
      <use xlink:href="#DejaVuSans-4a" transform="translate(423.703125 0)"/>
      <use xlink:href="#DejaVuSans-46" transform="translate(453.195312 0)"/>
      <use xlink:href="#DejaVuSans-45" transform="translate(510.714844 0)"/>
      <use xlink:href="#DejaVuSans-54" transform="translate(573.898438 0)"/>
     </g>
    </g>
    <g id="line2d_33">
     <path d="M 453.968281 96.243906 
L 464.968281 96.243906 
L 475.968281 96.243906 
" style="fill: none; stroke-dasharray: 9.25,4; stroke-dashoffset: 0; stroke: #2ca02c; stroke-width: 2.5"/>
    </g>
    <g id="text_19">
     <!-- LF357 JFET -->
     <g transform="translate(484.768281 100.093906) scale(0.11 -0.11)">
      <defs>
       <path id="DejaVuSans-4c" d="M 628 4666 
L 1259 4666 
L 1259 531 
L 3531 531 
L 3531 0 
L 628 0 
L 628 4666 
z
" transform="scale(0.015625)"/>
      </defs>
      <use xlink:href="#DejaVuSans-4c"/>
      <use xlink:href="#DejaVuSans-46" transform="translate(55.712891 0)"/>
      <use xlink:href="#DejaVuSans-33" transform="translate(113.232422 0)"/>
      <use xlink:href="#DejaVuSans-35" transform="translate(176.855469 0)"/>
      <use xlink:href="#DejaVuSans-37" transform="translate(240.478516 0)"/>
      <use xlink:href="#DejaVuSans-20" transform="translate(304.101562 0)"/>
      <use xlink:href="#DejaVuSans-4a" transform="translate(335.888672 0)"/>
      <use xlink:href="#DejaVuSans-46" transform="translate(365.380859 0)"/>
      <use xlink:href="#DejaVuSans-45" transform="translate(422.900391 0)"/>
      <use xlink:href="#DejaVuSans-54" transform="translate(486.083984 0)"/>
     </g>
    </g>
    <g id="line2d_34">
     <path d="M 453.968281 112.389844 
L 464.968281 112.389844 
L 475.968281 112.389844 
" style="fill: none; stroke-dasharray: 2.5,4.125; stroke-dashoffset: 0; stroke: #d62728; stroke-width: 2.5"/>
    </g>
    <g id="text_20">
     <!-- TL071 JFET -->
     <g transform="translate(484.768281 116.239844) scale(0.11 -0.11)">
      <use xlink:href="#DejaVuSans-54"/>
      <use xlink:href="#DejaVuSans-4c" transform="translate(61.083984 0)"/>
      <use xlink:href="#DejaVuSans-30" transform="translate(116.796875 0)"/>
      <use xlink:href="#DejaVuSans-37" transform="translate(180.419922 0)"/>
      <use xlink:href="#DejaVuSans-31" transform="translate(244.042969 0)"/>
      <use xlink:href="#DejaVuSans-20" transform="translate(307.666016 0)"/>
      <use xlink:href="#DejaVuSans-4a" transform="translate(339.453125 0)"/>
      <use xlink:href="#DejaVuSans-46" transform="translate(368.945312 0)"/>
      <use xlink:href="#DejaVuSans-45" transform="translate(426.464844 0)"/>
      <use xlink:href="#DejaVuSans-54" transform="translate(489.648438 0)"/>
     </g>
    </g>
   </g>
  </g>
 </g>
 <defs>
  <clipPath id="p1eed091372">
   <rect x="44.555937" y="33.397812" width="558" height="332.64"/>
  </clipPath>
 </defs>
</svg>
