<?xml version="1.0" encoding="utf-8" standalone="no"?>
<!DOCTYPE svg PUBLIC "-//W3C//DTD SVG 1.1//EN"
  "http://www.w3.org/Graphics/SVG/1.1/DTD/svg11.dtd">
<svg xmlns:xlink="http://www.w3.org/1999/xlink" width="609.755938pt" height="405.529687pt" viewBox="0 0 609.755938 405.529687" xmlns="http://www.w3.org/2000/svg" version="1.1">
 <metadata>
  <rdf:RDF xmlns:dc="http://purl.org/dc/elements/1.1/" xmlns:cc="http://creativecommons.org/ns#" xmlns:rdf="http://www.w3.org/1999/02/22-rdf-syntax-ns#">
   <cc:Work>
    <dc:type rdf:resource="http://purl.org/dc/dcmitype/StillImage"/>
    <dc:date>2026-05-24T18:38:24.076901</dc:date>
    <dc:format>image/svg+xml</dc:format>
    <dc:creator>
     <cc:Agent>
      <dc:title>Matplotlib v3.10.9, https://matplotlib.org/</dc:title>
     </cc:Agent>
    </dc:creator>
   </cc:Work>
  </rdf:RDF>
 </metadata>
 <defs>
  <style type="text/css">*{stroke-linejoin: round; stroke-linecap: butt}</style>
 </defs>
 <g id="figure_1">
  <g id="patch_1">
   <path d="M -0 405.529687 
L 609.755938 405.529687 
L 609.755938 0 
L -0 0 
z
" style="fill: #ffffff"/>
  </g>
  <g id="axes_1">
   <g id="patch_2">
    <path d="M 44.555937 366.037812 
L 602.555938 366.037812 
L 602.555938 33.397812 
L 44.555937 33.397812 
z
" style="fill: #ffffff"/>
   </g>
   <g id="matplotlib.axis_1">
    <g id="xtick_1">
     <g id="line2d_1">
      <path d="M 69.919574 366.037812 
L 69.919574 33.397812 
" clip-path="url(#p15d47adea5)" style="fill: none; stroke: #e0e0e0; stroke-width: 0.8; stroke-linecap: square"/>
     </g>
     <g id="line2d_2">
      <defs>
       <path id="m4309d66034" d="M 0 0 
L 0 3.5 
" style="stroke: #000000; stroke-width: 0.8"/>
      </defs>
      <g>
       <use xlink:href="#m4309d66034" x="69.919574" y="366.037812" style="stroke: #000000; stroke-width: 0.8"/>
      </g>
     </g>
     <g id="text_1">
      <!-- 0 -->
      <g transform="translate(66.738324 380.63625) scale(0.1 -0.1)">
       <defs>
        <path id="DejaVuSans-30" d="M 2034 4250 
Q 1547 4250 1301 3770 
Q 1056 3291 1056 2328 
Q 1056 1369 1301 889 
Q 1547 409 2034 409 
Q 2525 409 2770 889 
Q 3016 1369 3016 2328 
Q 3016 3291 2770 3770 
Q 2525 4250 2034 4250 
z
M 2034 4750 
Q 2819 4750 3233 4129 
Q 3647 3509 3647 2328 
Q 3647 1150 3233 529 
Q 2819 -91 2034 -91 
Q 1250 -91 836 529 
Q 422 1150 422 2328 
Q 422 3509 836 4129 
Q 1250 4750 2034 4750 
z
" transform="scale(0.015625)"/>
       </defs>
       <use xlink:href="#DejaVuSans-30"/>
      </g>
     </g>
    </g>
    <g id="xtick_2">
     <g id="line2d_3">
      <path d="M 154.465028 366.037812 
L 154.465028 33.397812 
" clip-path="url(#p15d47adea5)" style="fill: none; stroke: #e0e0e0; stroke-width: 0.8; stroke-linecap: square"/>
     </g>
     <g id="line2d_4">
      <g>
       <use xlink:href="#m4309d66034" x="154.465028" y="366.037812" style="stroke: #000000; stroke-width: 0.8"/>
      </g>
     </g>
     <g id="text_2">
      <!-- 5 -->
      <g transform="translate(151.283778 380.63625) scale(0.1 -0.1)">
       <defs>
        <path id="DejaVuSans-35" d="M 691 4666 
L 3169 4666 
L 3169 4134 
L 1269 4134 
L 1269 2991 
Q 1406 3038 1543 3061 
Q 1681 3084 1819 3084 
Q 2600 3084 3056 2656 
Q 3513 2228 3513 1497 
Q 3513 744 3044 326 
Q 2575 -91 1722 -91 
Q 1428 -91 1123 -41 
Q 819 9 494 109 
L 494 744 
Q 775 591 1075 516 
Q 1375 441 1709 441 
Q 2250 441 2565 725 
Q 2881 1009 2881 1497 
Q 2881 1984 2565 2268 
Q 2250 2553 1709 2553 
Q 1456 2553 1204 2497 
Q 953 2441 691 2322 
L 691 4666 
z
" transform="scale(0.015625)"/>
       </defs>
       <use xlink:href="#DejaVuSans-35"/>
      </g>
     </g>
    </g>
    <g id="xtick_3">
     <g id="line2d_5">
      <path d="M 239.010483 366.037812 
L 239.010483 33.397812 
" clip-path="url(#p15d47adea5)" style="fill: none; stroke: #e0e0e0; stroke-width: 0.8; stroke-linecap: square"/>
     </g>
     <g id="line2d_6">
      <g>
       <use xlink:href="#m4309d66034" x="239.010483" y="366.037812" style="stroke: #000000; stroke-width: 0.8"/>
      </g>
     </g>
     <g id="text_3">
      <!-- 10 -->
      <g transform="translate(232.647983 380.63625) scale(0.1 -0.1)">
       <defs>
        <path id="DejaVuSans-31" d="M 794 531 
L 1825 531 
L 1825 4091 
L 703 3866 
L 703 4441 
L 1819 4666 
L 2450 4666 
L 2450 531 
L 3481 531 
L 3481 0 
L 794 0 
L 794 531 
z
" transform="scale(0.015625)"/>
       </defs>
       <use xlink:href="#DejaVuSans-31"/>
       <use xlink:href="#DejaVuSans-30" transform="translate(63.623047 0)"/>
      </g>
     </g>
    </g>
    <g id="xtick_4">
     <g id="line2d_7">
      <path d="M 323.555938 366.037812 
L 323.555938 33.397812 
" clip-path="url(#p15d47adea5)" style="fill: none; stroke: #e0e0e0; stroke-width: 0.8; stroke-linecap: square"/>
     </g>
     <g id="line2d_8">
      <g>
       <use xlink:href="#m4309d66034" x="323.555938" y="366.037812" style="stroke: #000000; stroke-width: 0.8"/>
      </g>
     </g>
     <g id="text_4">
      <!-- 15 -->
      <g transform="translate(317.193438 380.63625) scale(0.1 -0.1)">
       <use xlink:href="#DejaVuSans-31"/>
       <use xlink:href="#DejaVuSans-35" transform="translate(63.623047 0)"/>
      </g>
     </g>
    </g>
    <g id="xtick_5">
     <g id="line2d_9">
      <path d="M 408.101392 366.037812 
L 408.101392 33.397812 
" clip-path="url(#p15d47adea5)" style="fill: none; stroke: #e0e0e0; stroke-width: 0.8; stroke-linecap: square"/>
     </g>
     <g id="line2d_10">
      <g>
       <use xlink:href="#m4309d66034" x="408.101392" y="366.037812" style="stroke: #000000; stroke-width: 0.8"/>
      </g>
     </g>
     <g id="text_5">
      <!-- 20 -->
      <g transform="translate(401.738892 380.63625) scale(0.1 -0.1)">
       <defs>
        <path id="DejaVuSans-32" d="M 1228 531 
L 3431 531 
L 3431 0 
L 469 0 
L 469 531 
Q 828 903 1448 1529 
Q 2069 2156 2228 2338 
Q 2531 2678 2651 2914 
Q 2772 3150 2772 3378 
Q 2772 3750 2511 3984 
Q 2250 4219 1831 4219 
Q 1534 4219 1204 4116 
Q 875 4013 500 3803 
L 500 4441 
Q 881 4594 1212 4672 
Q 1544 4750 1819 4750 
Q 2544 4750 2975 4387 
Q 3406 4025 3406 3419 
Q 3406 3131 3298 2873 
Q 3191 2616 2906 2266 
Q 2828 2175 2409 1742 
Q 1991 1309 1228 531 
z
" transform="scale(0.015625)"/>
       </defs>
       <use xlink:href="#DejaVuSans-32"/>
       <use xlink:href="#DejaVuSans-30" transform="translate(63.623047 0)"/>
      </g>
     </g>
    </g>
    <g id="xtick_6">
     <g id="line2d_11">
      <path d="M 492.646847 366.037812 
L 492.646847 33.397812 
" clip-path="url(#p15d47adea5)" style="fill: none; stroke: #e0e0e0; stroke-width: 0.8; stroke-linecap: square"/>
     </g>
     <g id="line2d_12">
      <g>
       <use xlink:href="#m4309d66034" x="492.646847" y="366.037812" style="stroke: #000000; stroke-width: 0.8"/>
      </g>
     </g>
     <g id="text_6">
      <!-- 25 -->
      <g transform="translate(486.284347 380.63625) scale(0.1 -0.1)">
       <use xlink:href="#DejaVuSans-32"/>
       <use xlink:href="#DejaVuSans-35" transform="translate(63.623047 0)"/>
      </g>
     </g>
    </g>
    <g id="xtick_7">
     <g id="line2d_13">
      <path d="M 577.192301 366.037812 
L 577.192301 33.397812 
" clip-path="url(#p15d47adea5)" style="fill: none; stroke: #e0e0e0; stroke-width: 0.8; stroke-linecap: square"/>
     </g>
     <g id="line2d_14">
      <g>
       <use xlink:href="#m4309d66034" x="577.192301" y="366.037812" style="stroke: #000000; stroke-width: 0.8"/>
      </g>
     </g>
     <g id="text_7">
      <!-- 30 -->
      <g transform="translate(570.829801 380.63625) scale(0.1 -0.1)">
       <defs>
        <path id="DejaVuSans-33" d="M 2597 2516 
Q 3050 2419 3304 2112 
Q 3559 1806 3559 1356 
Q 3559 666 3084 287 
Q 2609 -91 1734 -91 
Q 1441 -91 1130 -33 
Q 819 25 488 141 
L 488 750 
Q 750 597 1062 519 
Q 1375 441 1716 441 
Q 2309 441 2620 675 
Q 2931 909 2931 1356 
Q 2931 1769 2642 2001 
Q 2353 2234 1838 2234 
L 1294 2234 
L 1294 2753 
L 1863 2753 
Q 2328 2753 2575 2939 
Q 2822 3125 2822 3475 
Q 2822 3834 2567 4026 
Q 2313 4219 1838 4219 
Q 1578 4219 1281 4162 
Q 984 4106 628 3988 
L 628 4550 
Q 988 4650 1302 4700 
Q 1616 4750 1894 4750 
Q 2613 4750 3031 4423 
Q 3450 4097 3450 3541 
Q 3450 3153 3228 2886 
Q 3006 2619 2597 2516 
z
" transform="scale(0.015625)"/>
       </defs>
       <use xlink:href="#DejaVuSans-33"/>
       <use xlink:href="#DejaVuSans-30" transform="translate(63.623047 0)"/>
      </g>
     </g>
    </g>
    <g id="text_8">
     <!-- Tiempo (μs) -->
     <g transform="translate(287.863438 395.834062) scale(0.12 -0.12)">
      <defs>
       <path id="DejaVuSans-54" d="M -19 4666 
L 3928 4666 
L 3928 4134 
L 2272 4134 
L 2272 0 
L 1638 0 
L 1638 4134 
L -19 4134 
L -19 4666 
z
" transform="scale(0.015625)"/>
       <path id="DejaVuSans-69" d="M 603 3500 
L 1178 3500 
L 1178 0 
L 603 0 
L 603 3500 
z
M 603 4863 
L 1178 4863 
L 1178 4134 
L 603 4134 
L 603 4863 
z
" transform="scale(0.015625)"/>
       <path id="DejaVuSans-65" d="M 3597 1894 
L 3597 1613 
L 953 1613 
Q 991 1019 1311 708 
Q 1631 397 2203 397 
Q 2534 397 2845 478 
Q 3156 559 3463 722 
L 3463 178 
Q 3153 47 2828 -22 
Q 2503 -91 2169 -91 
Q 1331 -91 842 396 
Q 353 884 353 1716 
Q 353 2575 817 3079 
Q 1281 3584 2069 3584 
Q 2775 3584 3186 3129 
Q 3597 2675 3597 1894 
z
M 3022 2063 
Q 3016 2534 2758 2815 
Q 2500 3097 2075 3097 
Q 1594 3097 1305 2825 
Q 1016 2553 972 2059 
L 3022 2063 
z
" transform="scale(0.015625)"/>
       <path id="DejaVuSans-6d" d="M 3328 2828 
Q 3544 3216 3844 3400 
Q 4144 3584 4550 3584 
Q 5097 3584 5394 3201 
Q 5691 2819 5691 2113 
L 5691 0 
L 5113 0 
L 5113 2094 
Q 5113 2597 4934 2840 
Q 4756 3084 4391 3084 
Q 3944 3084 3684 2787 
Q 3425 2491 3425 1978 
L 3425 0 
L 2847 0 
L 2847 2094 
Q 2847 2600 2669 2842 
Q 2491 3084 2119 3084 
Q 1678 3084 1418 2786 
Q 1159 2488 1159 1978 
L 1159 0 
L 581 0 
L 581 3500 
L 1159 3500 
L 1159 2956 
Q 1356 3278 1631 3431 
Q 1906 3584 2284 3584 
Q 2666 3584 2933 3390 
Q 3200 3197 3328 2828 
z
" transform="scale(0.015625)"/>
       <path id="DejaVuSans-70" d="M 1159 525 
L 1159 -1331 
L 581 -1331 
L 581 3500 
L 1159 3500 
L 1159 2969 
Q 1341 3281 1617 3432 
Q 1894 3584 2278 3584 
Q 2916 3584 3314 3078 
Q 3713 2572 3713 1747 
Q 3713 922 3314 415 
Q 2916 -91 2278 -91 
Q 1894 -91 1617 61 
Q 1341 213 1159 525 
z
M 3116 1747 
Q 3116 2381 2855 2742 
Q 2594 3103 2138 3103 
Q 1681 3103 1420 2742 
Q 1159 2381 1159 1747 
Q 1159 1113 1420 752 
Q 1681 391 2138 391 
Q 2594 391 2855 752 
Q 3116 1113 3116 1747 
z
" transform="scale(0.015625)"/>
       <path id="DejaVuSans-6f" d="M 1959 3097 
Q 1497 3097 1228 2736 
Q 959 2375 959 1747 
Q 959 1119 1226 758 
Q 1494 397 1959 397 
Q 2419 397 2687 759 
Q 2956 1122 2956 1747 
Q 2956 2369 2687 2733 
Q 2419 3097 1959 3097 
z
M 1959 3584 
Q 2709 3584 3137 3096 
Q 3566 2609 3566 1747 
Q 3566 888 3137 398 
Q 2709 -91 1959 -91 
Q 1206 -91 779 398 
Q 353 888 353 1747 
Q 353 2609 779 3096 
Q 1206 3584 1959 3584 
z
" transform="scale(0.015625)"/>
       <path id="DejaVuSans-20" transform="scale(0.015625)"/>
       <path id="DejaVuSans-28" d="M 1984 4856 
Q 1566 4138 1362 3434 
Q 1159 2731 1159 2009 
Q 1159 1288 1364 580 
Q 1569 -128 1984 -844 
L 1484 -844 
Q 1016 -109 783 600 
Q 550 1309 550 2009 
Q 550 2706 781 3412 
Q 1013 4119 1484 4856 
L 1984 4856 
z
" transform="scale(0.015625)"/>
       <path id="DejaVuSans-3bc" d="M 544 -1331 
L 544 3500 
L 1119 3500 
L 1119 1325 
Q 1119 872 1334 640 
Q 1550 409 1972 409 
Q 2434 409 2667 671 
Q 2900 934 2900 1459 
L 2900 3500 
L 3475 3500 
L 3475 806 
Q 3475 619 3529 530 
Q 3584 441 3700 441 
Q 3728 441 3778 458 
Q 3828 475 3916 513 
L 3916 50 
Q 3788 -22 3673 -56 
Q 3559 -91 3450 -91 
Q 3234 -91 3106 31 
Q 2978 153 2931 403 
Q 2775 156 2548 32 
Q 2322 -91 2016 -91 
Q 1697 -91 1473 31 
Q 1250 153 1119 397 
L 1119 -1331 
L 544 -1331 
z
" transform="scale(0.015625)"/>
       <path id="DejaVuSans-73" d="M 2834 3397 
L 2834 2853 
Q 2591 2978 2328 3040 
Q 2066 3103 1784 3103 
Q 1356 3103 1142 2972 
Q 928 2841 928 2578 
Q 928 2378 1081 2264 
Q 1234 2150 1697 2047 
L 1894 2003 
Q 2506 1872 2764 1633 
Q 3022 1394 3022 966 
Q 3022 478 2636 193 
Q 2250 -91 1575 -91 
Q 1294 -91 989 -36 
Q 684 19 347 128 
L 347 722 
Q 666 556 975 473 
Q 1284 391 1588 391 
Q 1994 391 2212 530 
Q 2431 669 2431 922 
Q 2431 1156 2273 1281 
Q 2116 1406 1581 1522 
L 1381 1569 
Q 847 1681 609 1914 
Q 372 2147 372 2553 
Q 372 3047 722 3315 
Q 1072 3584 1716 3584 
Q 2034 3584 2315 3537 
Q 2597 3491 2834 3397 
z
" transform="scale(0.015625)"/>
       <path id="DejaVuSans-29" d="M 513 4856 
L 1013 4856 
Q 1481 4119 1714 3412 
Q 1947 2706 1947 2009 
Q 1947 1309 1714 600 
Q 1481 -109 1013 -844 
L 513 -844 
Q 928 -128 1133 580 
Q 1338 1288 1338 2009 
Q 1338 2731 1133 3434 
Q 928 4138 513 4856 
z
" transform="scale(0.015625)"/>
      </defs>
      <use xlink:href="#DejaVuSans-54"/>
      <use xlink:href="#DejaVuSans-69" transform="translate(57.958984 0)"/>
      <use xlink:href="#DejaVuSans-65" transform="translate(85.742188 0)"/>
      <use xlink:href="#DejaVuSans-6d" transform="translate(147.265625 0)"/>
      <use xlink:href="#DejaVuSans-70" transform="translate(244.677734 0)"/>
      <use xlink:href="#DejaVuSans-6f" transform="translate(308.154297 0)"/>
      <use xlink:href="#DejaVuSans-20" transform="translate(369.335938 0)"/>
      <use xlink:href="#DejaVuSans-28" transform="translate(401.123047 0)"/>
      <use xlink:href="#DejaVuSans-3bc" transform="translate(440.136719 0)"/>
      <use xlink:href="#DejaVuSans-73" transform="translate(503.759766 0)"/>
      <use xlink:href="#DejaVuSans-29" transform="translate(555.859375 0)"/>
     </g>
    </g>
   </g>
   <g id="matplotlib.axis_2">
    <g id="ytick_1">
     <g id="line2d_15">
      <path d="M 44.555937 330.100696 
L 602.555938 330.100696 
" clip-path="url(#p15d47adea5)" style="fill: none; stroke: #e0e0e0; stroke-width: 0.8; stroke-linecap: square"/>
     </g>
     <g id="line2d_16">
      <defs>
       <path id="m8f4c286615" d="M 0 0 
L -3.5 0 
" style="stroke: #000000; stroke-width: 0.8"/>
      </defs>
      <g>
       <use xlink:href="#m8f4c286615" x="44.555937" y="330.100696" style="stroke: #000000; stroke-width: 0.8"/>
      </g>
     </g>
     <g id="text_9">
      <!-- −2 -->
      <g transform="translate(22.81375 333.899915) scale(0.1 -0.1)">
       <defs>
        <path id="DejaVuSans-2212" d="M 678 2272 
L 4684 2272 
L 4684 1741 
L 678 1741 
L 678 2272 
z
" transform="scale(0.015625)"/>
       </defs>
       <use xlink:href="#DejaVuSans-2212"/>
       <use xlink:href="#DejaVuSans-32" transform="translate(83.789062 0)"/>
      </g>
     </g>
    </g>
    <g id="ytick_2">
     <g id="line2d_17">
      <path d="M 44.555937 265.014546 
L 602.555938 265.014546 
" clip-path="url(#p15d47adea5)" style="fill: none; stroke: #e0e0e0; stroke-width: 0.8; stroke-linecap: square"/>
     </g>
     <g id="line2d_18">
      <g>
       <use xlink:href="#m8f4c286615" x="44.555937" y="265.014546" style="stroke: #000000; stroke-width: 0.8"/>
      </g>
     </g>
     <g id="text_10">
      <!-- −1 -->
      <g transform="translate(22.81375 268.813765) scale(0.1 -0.1)">
       <use xlink:href="#DejaVuSans-2212"/>
       <use xlink:href="#DejaVuSans-31" transform="translate(83.789062 0)"/>
      </g>
     </g>
    </g>
    <g id="ytick_3">
     <g id="line2d_19">
      <path d="M 44.555937 199.928396 
L 602.555938 199.928396 
" clip-path="url(#p15d47adea5)" style="fill: none; stroke: #e0e0e0; stroke-width: 0.8; stroke-linecap: square"/>
     </g>
     <g id="line2d_20">
      <g>
       <use xlink:href="#m8f4c286615" x="44.555937" y="199.928396" style="stroke: #000000; stroke-width: 0.8"/>
      </g>
     </g>
     <g id="text_11">
      <!-- 0 -->
      <g transform="translate(31.193437 203.727614) scale(0.1 -0.1)">
       <use xlink:href="#DejaVuSans-30"/>
      </g>
     </g>
    </g>
    <g id="ytick_4">
     <g id="line2d_21">
      <path d="M 44.555937 134.842245 
L 602.555938 134.842245 
" clip-path="url(#p15d47adea5)" style="fill: none; stroke: #e0e0e0; stroke-width: 0.8; stroke-linecap: square"/>
     </g>
     <g id="line2d_22">
      <g>
       <use xlink:href="#m8f4c286615" x="44.555937" y="134.842245" style="stroke: #000000; stroke-width: 0.8"/>
      </g>
     </g>
     <g id="text_12">
      <!-- 1 -->
      <g transform="translate(31.193437 138.641464) scale(0.1 -0.1)">
       <use xlink:href="#DejaVuSans-31"/>
      </g>
     </g>
    </g>
    <g id="ytick_5">
     <g id="line2d_23">
      <path d="M 44.555937 69.756095 
L 602.555938 69.756095 
" clip-path="url(#p15d47adea5)" style="fill: none; stroke: #e0e0e0; stroke-width: 0.8; stroke-linecap: square"/>
     </g>
     <g id="line2d_24">
      <g>
       <use xlink:href="#m8f4c286615" x="44.555937" y="69.756095" style="stroke: #000000; stroke-width: 0.8"/>
      </g>
     </g>
     <g id="text_13">
      <!-- 2 -->
      <g transform="translate(31.193437 73.555314) scale(0.1 -0.1)">
       <use xlink:href="#DejaVuSans-32"/>
      </g>
     </g>
    </g>
    <g id="text_14">
     <!-- Tensión de Salida (V) -->
     <g transform="translate(16.318125 262.436562) rotate(-90) scale(0.12 -0.12)">
      <defs>
       <path id="DejaVuSans-6e" d="M 3513 2113 
L 3513 0 
L 2938 0 
L 2938 2094 
Q 2938 2591 2744 2837 
Q 2550 3084 2163 3084 
Q 1697 3084 1428 2787 
Q 1159 2491 1159 1978 
L 1159 0 
L 581 0 
L 581 3500 
L 1159 3500 
L 1159 2956 
Q 1366 3272 1645 3428 
Q 1925 3584 2291 3584 
Q 2894 3584 3203 3211 
Q 3513 2838 3513 2113 
z
" transform="scale(0.015625)"/>
       <path id="DejaVuSans-f3" d="M 1959 3097 
Q 1497 3097 1228 2736 
Q 959 2375 959 1747 
Q 959 1119 1226 758 
Q 1494 397 1959 397 
Q 2419 397 2687 759 
Q 2956 1122 2956 1747 
Q 2956 2369 2687 2733 
Q 2419 3097 1959 3097 
z
M 1959 3584 
Q 2709 3584 3137 3096 
Q 3566 2609 3566 1747 
Q 3566 888 3137 398 
Q 2709 -91 1959 -91 
Q 1206 -91 779 398 
Q 353 888 353 1747 
Q 353 2609 779 3096 
Q 1206 3584 1959 3584 
z
M 2394 5119 
L 3016 5119 
L 1998 3944 
L 1519 3944 
L 2394 5119 
z
" transform="scale(0.015625)"/>
       <path id="DejaVuSans-64" d="M 2906 2969 
L 2906 4863 
L 3481 4863 
L 3481 0 
L 2906 0 
L 2906 525 
Q 2725 213 2448 61 
Q 2172 -91 1784 -91 
Q 1150 -91 751 415 
Q 353 922 353 1747 
Q 353 2572 751 3078 
Q 1150 3584 1784 3584 
Q 2172 3584 2448 3432 
Q 2725 3281 2906 2969 
z
M 947 1747 
Q 947 1113 1208 752 
Q 1469 391 1925 391 
Q 2381 391 2643 752 
Q 2906 1113 2906 1747 
Q 2906 2381 2643 2742 
Q 2381 3103 1925 3103 
Q 1469 3103 1208 2742 
Q 947 2381 947 1747 
z
" transform="scale(0.015625)"/>
       <path id="DejaVuSans-53" d="M 3425 4513 
L 3425 3897 
Q 3066 4069 2747 4153 
Q 2428 4238 2131 4238 
Q 1616 4238 1336 4038 
Q 1056 3838 1056 3469 
Q 1056 3159 1242 3001 
Q 1428 2844 1947 2747 
L 2328 2669 
Q 3034 2534 3370 2195 
Q 3706 1856 3706 1288 
Q 3706 609 3251 259 
Q 2797 -91 1919 -91 
Q 1588 -91 1214 -16 
Q 841 59 441 206 
L 441 856 
Q 825 641 1194 531 
Q 1563 422 1919 422 
Q 2459 422 2753 634 
Q 3047 847 3047 1241 
Q 3047 1584 2836 1778 
Q 2625 1972 2144 2069 
L 1759 2144 
Q 1053 2284 737 2584 
Q 422 2884 422 3419 
Q 422 4038 858 4394 
Q 1294 4750 2059 4750 
Q 2388 4750 2728 4690 
Q 3069 4631 3425 4513 
z
" transform="scale(0.015625)"/>
       <path id="DejaVuSans-61" d="M 2194 1759 
Q 1497 1759 1228 1600 
Q 959 1441 959 1056 
Q 959 750 1161 570 
Q 1363 391 1709 391 
Q 2188 391 2477 730 
Q 2766 1069 2766 1631 
L 2766 1759 
L 2194 1759 
z
M 3341 1997 
L 3341 0 
L 2766 0 
L 2766 531 
Q 2569 213 2275 61 
Q 1981 -91 1556 -91 
Q 1019 -91 701 211 
Q 384 513 384 1019 
Q 384 1609 779 1909 
Q 1175 2209 1959 2209 
L 2766 2209 
L 2766 2266 
Q 2766 2663 2505 2880 
Q 2244 3097 1772 3097 
Q 1472 3097 1187 3025 
Q 903 2953 641 2809 
L 641 3341 
Q 956 3463 1253 3523 
Q 1550 3584 1831 3584 
Q 2591 3584 2966 3190 
Q 3341 2797 3341 1997 
z
" transform="scale(0.015625)"/>
       <path id="DejaVuSans-6c" d="M 603 4863 
L 1178 4863 
L 1178 0 
L 603 0 
L 603 4863 
z
" transform="scale(0.015625)"/>
       <path id="DejaVuSans-56" d="M 1831 0 
L 50 4666 
L 709 4666 
L 2188 738 
L 3669 4666 
L 4325 4666 
L 2547 0 
L 1831 0 
z
" transform="scale(0.015625)"/>
      </defs>
      <use xlink:href="#DejaVuSans-54"/>
      <use xlink:href="#DejaVuSans-65" transform="translate(44.083984 0)"/>
      <use xlink:href="#DejaVuSans-6e" transform="translate(105.607422 0)"/>
      <use xlink:href="#DejaVuSans-73" transform="translate(168.986328 0)"/>
      <use xlink:href="#DejaVuSans-69" transform="translate(221.085938 0)"/>
      <use xlink:href="#DejaVuSans-f3" transform="translate(248.869141 0)"/>
      <use xlink:href="#DejaVuSans-6e" transform="translate(310.050781 0)"/>
      <use xlink:href="#DejaVuSans-20" transform="translate(373.429688 0)"/>
      <use xlink:href="#DejaVuSans-64" transform="translate(405.216797 0)"/>
      <use xlink:href="#DejaVuSans-65" transform="translate(468.693359 0)"/>
      <use xlink:href="#DejaVuSans-20" transform="translate(530.216797 0)"/>
      <use xlink:href="#DejaVuSans-53" transform="translate(562.003906 0)"/>
      <use xlink:href="#DejaVuSans-61" transform="translate(625.480469 0)"/>
      <use xlink:href="#DejaVuSans-6c" transform="translate(686.759766 0)"/>
      <use xlink:href="#DejaVuSans-69" transform="translate(714.542969 0)"/>
      <use xlink:href="#DejaVuSans-64" transform="translate(742.326172 0)"/>
      <use xlink:href="#DejaVuSans-61" transform="translate(805.802734 0)"/>
      <use xlink:href="#DejaVuSans-20" transform="translate(867.082031 0)"/>
      <use xlink:href="#DejaVuSans-28" transform="translate(898.869141 0)"/>
      <use xlink:href="#DejaVuSans-56" transform="translate(937.882812 0)"/>
      <use xlink:href="#DejaVuSans-29" transform="translate(1006.291016 0)"/>
     </g>
    </g>
   </g>
   <g id="line2d_25">
    <path d="M 69.919574 199.928396 
L 71.94968 199.854394 
L 72.964733 199.574184 
L 73.726023 199.150296 
L 74.487312 198.509781 
L 75.502365 197.300515 
L 76.517418 195.688412 
L 77.786234 193.138254 
L 79.055051 190.046571 
L 80.57763 185.708557 
L 82.353973 179.913355 
L 84.384079 172.509535 
L 86.921711 162.382183 
L 90.474397 147.190088 
L 99.863637 106.505476 
L 102.908796 94.440285 
L 105.700191 84.281638 
L 107.984061 76.735271 
L 110.26793 69.964924 
L 112.298036 64.655132 
L 114.074379 60.591006 
L 115.850721 57.095865 
L 117.373301 54.568917 
L 118.89588 52.486703 
L 120.164696 51.09807 
L 121.433513 50.029282 
L 122.702329 49.283938 
L 123.717382 48.922413 
L 124.732435 48.770676 
L 125.747488 48.829398 
L 126.762541 49.098906 
L 127.777594 49.579195 
L 128.792647 50.269922 
L 130.061463 51.428204 
L 131.330279 52.912195 
L 132.599095 54.719079 
L 134.121675 57.308458 
L 135.644254 60.349968 
L 137.420597 64.457528 
L 139.19694 69.150832 
L 141.227046 75.206345 
L 143.257152 81.967354 
L 145.541021 90.369581 
L 148.078653 100.623596 
L 150.870049 112.914636 
L 153.915208 127.3815 
L 157.467893 145.41517 
L 161.781869 168.553486 
L 168.88724 208.123531 
L 175.485084 244.413349 
L 179.545296 265.555473 
L 182.844218 281.656612 
L 185.889377 295.435782 
L 188.680773 306.997582 
L 191.218405 316.512534 
L 193.502274 324.192478 
L 195.53238 330.269735 
L 197.308723 334.980195 
L 199.085066 339.10244 
L 200.607645 342.153947 
L 202.130225 344.750305 
L 203.652804 346.883205 
L 204.92162 348.301622 
L 206.190437 349.390276 
L 207.459253 350.146746 
L 208.474306 350.511595 
L 209.489359 350.662238 
L 210.504412 350.598459 
L 211.519465 350.320351 
L 212.534518 349.828309 
L 213.549571 349.123032 
L 214.818387 347.943134 
L 216.087203 346.434269 
L 217.356019 344.599792 
L 218.878599 341.974403 
L 220.401178 338.894443 
L 222.177521 334.73986 
L 223.953864 329.998127 
L 225.98397 323.886653 
L 228.014076 317.07011 
L 230.297945 308.607152 
L 232.835577 298.289251 
L 235.626973 285.933947 
L 238.672132 271.405953 
L 242.224817 253.314952 
L 246.538793 230.129995 
L 254.15169 187.708405 
L 260.242008 154.309458 
L 264.30222 133.234687 
L 267.601142 117.205882 
L 270.646301 103.506583 
L 273.183933 93.02553 
L 275.721566 83.494332 
L 278.005435 75.798578 
L 280.035541 69.706425 
L 282.065647 64.354975 
L 283.84199 60.304094 
L 285.364569 57.315318 
L 286.887149 54.782922 
L 288.409728 52.715012 
L 289.678544 51.351388 
L 290.94736 50.317978 
L 291.962413 49.730571 
L 292.977466 49.356821 
L 293.992519 49.197259 
L 295.007572 49.252113 
L 296.022625 49.521303 
L 297.037678 50.004448 
L 298.052731 50.70086 
L 299.321548 51.869744 
L 300.590364 53.36769 
L 301.85918 55.191369 
L 303.38176 57.803994 
L 304.904339 60.871439 
L 306.680682 65.01179 
L 308.457024 69.739748 
L 310.48713 75.836117 
L 312.517236 82.638315 
L 314.801106 91.086149 
L 317.338738 101.388629 
L 320.130134 113.728812 
L 323.175293 128.242695 
L 326.727978 146.320614 
L 331.041953 169.49488 
L 338.654851 211.912203 
L 344.745168 245.321299 
L 348.80538 266.409301 
L 352.104303 282.452434 
L 355.149462 296.167612 
L 357.687094 306.663695 
L 360.224726 316.211415 
L 362.508596 323.923189 
L 364.538702 330.030405 
L 366.568808 335.3976 
L 368.34515 339.462747 
L 369.86773 342.464067 
L 371.390309 345.009253 
L 372.912889 347.090162 
L 374.181705 348.464744 
L 375.450521 349.509205 
L 376.719337 350.221222 
L 377.73439 350.550386 
L 378.749443 350.665291 
L 379.764496 350.565772 
L 380.779549 350.251972 
L 381.794602 349.724336 
L 382.809655 348.983614 
L 384.078471 347.759696 
L 385.347288 346.20722 
L 386.616104 344.329638 
L 388.138683 341.653325 
L 389.661263 338.52347 
L 391.437606 334.312189 
L 393.213948 329.515621 
L 395.244054 323.344064 
L 397.27416 316.470526 
L 399.558029 307.94754 
L 402.095662 297.568526 
L 404.887058 285.15341 
L 407.932217 270.569755 
L 411.484902 252.427369 
L 415.798877 229.20084 
L 423.919301 183.93498 
L 429.755856 152.057661 
L 433.816068 131.118973 
L 437.11499 115.236289 
L 439.906385 102.780654 
L 442.444018 92.360155 
L 444.98165 82.895424 
L 447.26552 75.264057 
L 449.295626 69.232378 
L 451.071968 64.563407 
L 452.848311 60.483993 
L 454.37089 57.470131 
L 455.89347 54.912154 
L 457.416049 52.818248 
L 458.684866 51.432705 
L 459.953682 50.377194 
L 461.222498 49.654062 
L 462.237551 49.315974 
L 463.252604 49.192132 
L 464.267657 49.282713 
L 465.28271 49.587587 
L 466.297763 50.106322 
L 467.312816 50.838178 
L 468.581632 52.051088 
L 469.850448 53.592657 
L 471.119265 55.459458 
L 472.641844 58.123036 
L 474.164424 61.240414 
L 475.940766 65.437517 
L 477.717109 70.220373 
L 479.747215 76.376908 
L 481.777321 83.236198 
L 484.06119 91.74418 
L 486.598823 102.107922 
L 489.390218 114.508096 
L 492.435377 129.077852 
L 495.988063 147.20742 
L 500.302038 170.423598 
L 508.422462 215.686248 
L 514.259016 247.574478 
L 518.319228 268.527019 
L 521.61815 284.424504 
L 524.663309 297.978905 
L 527.200942 308.323201 
L 529.484811 316.812052 
L 531.76868 324.459554 
L 533.798786 330.506385 
L 535.575129 335.189168 
L 537.351472 339.282848 
L 538.874051 342.309253 
L 540.396631 344.880021 
L 541.91921 346.986925 
L 543.188026 348.383427 
L 544.456842 349.449987 
L 545.725659 350.184235 
L 546.740712 350.531248 
L 547.755765 350.664027 
L 548.770818 350.582384 
L 549.785871 350.286436 
L 550.800924 349.776603 
L 551.815977 349.053611 
L 553.084793 347.85171 
L 554.353609 346.321048 
L 555.622425 344.465027 
L 557.145005 341.814184 
L 558.667584 338.709285 
L 560.443927 334.52636 
L 562.22027 329.757215 
L 564.250376 323.615702 
L 566.280482 316.770661 
L 568.564351 308.277683 
L 571.101983 297.929213 
L 573.893379 285.543982 
L 576.938538 270.988124 
L 577.192301 269.732025 
L 577.192301 269.732025 
" clip-path="url(#p15d47adea5)" style="fill: none; stroke: #1f77b4; stroke-width: 2.5; stroke-linecap: square"/>
   </g>
   <g id="line2d_26">
    <path d="M 69.919574 199.928396 
L 71.695917 199.825243 
L 72.457206 199.548641 
L 73.218496 199.02944 
L 73.979786 198.251 
L 74.994839 196.820648 
L 76.009892 194.973002 
L 77.278708 192.134929 
L 78.801287 188.049373 
L 80.57763 182.490034 
L 82.607736 175.289986 
L 85.145369 165.332381 
L 88.444291 151.349835 
L 99.863637 101.978548 
L 102.908796 90.223258 
L 105.446428 81.273103 
L 107.730297 73.983593 
L 109.760403 68.177753 
L 111.790509 63.055029 
L 113.566852 59.165068 
L 115.089432 56.28969 
L 116.612011 53.851337 
L 118.13459 51.860813 
L 119.403407 50.550664 
L 120.672223 49.562004 
L 121.941039 48.898207 
L 122.956092 48.602791 
L 123.971145 48.517812 
L 124.986198 48.643831 
L 126.001251 48.981064 
L 127.016304 49.529391 
L 128.28512 50.510934 
L 129.553936 51.819977 
L 130.822753 53.454125 
L 132.345332 55.839712 
L 133.867912 58.681889 
L 135.390491 61.97216 
L 137.166834 66.363713 
L 138.943177 71.333075 
L 140.973283 77.692777 
L 143.257152 85.672286 
L 145.541021 94.470518 
L 148.078653 105.130196 
L 150.870049 117.821465 
L 154.168971 133.943374 
L 157.97542 153.756442 
L 162.796922 180.120491 
L 175.99261 252.950001 
L 179.799059 272.35063 
L 183.097981 288.007711 
L 185.889377 300.232412 
L 188.427009 310.413338 
L 190.710879 318.739162 
L 192.994748 326.209722 
L 195.024854 332.088623 
L 196.801196 336.617032 
L 198.577539 340.550103 
L 200.100119 343.434412 
L 201.622698 345.859475 
L 202.891514 347.523903 
L 204.160331 348.860296 
L 205.429147 349.865684 
L 206.4442 350.430143 
L 207.459253 350.780512 
L 208.474306 350.916292 
L 209.489359 350.837289 
L 210.504412 350.543617 
L 211.519465 350.035693 
L 212.534518 349.31424 
L 213.803334 348.113741 
L 215.07215 346.583896 
L 216.340966 344.728107 
L 217.863546 342.07677 
L 219.386125 338.970537 
L 221.162468 334.784998 
L 222.938811 330.012112 
L 224.968917 323.864966 
L 226.999023 317.012876 
L 229.282892 308.510326 
L 231.820524 298.149262 
L 234.61192 285.747929 
L 237.657079 271.172018 
L 241.209764 253.028934 
L 245.52374 229.787503 
L 253.3904 185.8703 
L 259.226955 153.851335 
L 263.287167 132.76402 
L 266.586089 116.732886 
L 269.631248 103.037737 
L 272.16888 92.564728 
L 274.706513 83.045671 
L 276.990382 75.364256 
L 279.020488 69.287476 
L 280.796831 64.578777 
L 282.573173 60.459568 
L 284.095753 57.411674 
L 285.618332 54.819853 
L 287.140912 52.692398 
L 288.409728 51.279202 
L 289.678544 50.196379 
L 290.94736 49.446336 
L 291.962413 49.08705 
L 292.977466 48.942334 
L 293.992519 49.012397 
L 295.007572 49.297138 
L 296.022625 49.796152 
L 297.037678 50.50873 
L 298.306495 51.698203 
L 299.575311 53.21712 
L 300.844127 55.062103 
L 302.366707 57.700669 
L 303.889286 60.794385 
L 305.665629 64.965693 
L 307.441971 69.724809 
L 309.472077 75.856859 
L 311.502183 82.69462 
L 313.786053 91.18207 
L 316.323685 101.527747 
L 319.115081 113.914006 
L 322.16024 128.475867 
L 325.712925 146.605952 
L 330.0269 169.836808 
L 337.639798 212.331843 
L 343.730115 245.77931 
L 347.790327 266.88 
L 351.08925 282.92558 
L 354.134409 296.636715 
L 356.672041 307.12484 
L 359.209673 316.660501 
L 361.493543 324.358009 
L 363.523649 330.449912 
L 365.299991 335.172405 
L 367.076334 339.305866 
L 368.598914 342.366296 
L 370.121493 344.970907 
L 371.644072 347.111362 
L 372.912889 348.535523 
L 374.181705 349.629405 
L 375.450521 350.390575 
L 376.465574 350.758798 
L 377.480627 350.912464 
L 378.49568 350.851355 
L 379.510733 350.575558 
L 380.525786 350.085464 
L 381.540839 349.381773 
L 382.809655 348.203338 
L 384.078471 346.69536 
L 385.347288 344.861191 
L 386.869867 342.235405 
L 388.392447 339.154216 
L 390.168789 334.997148 
L 391.945132 330.251809 
L 393.975238 324.134862 
L 396.005344 317.311434 
L 398.289213 308.839091 
L 400.826846 298.508804 
L 403.618241 286.137624 
L 406.6634 271.589816 
L 410.216086 253.472735 
L 414.530061 230.252456 
L 422.142958 187.761451 
L 428.233276 154.303624 
L 432.293488 133.18956 
L 435.59241 117.129534 
L 438.637569 103.402415 
L 441.175202 92.899174 
L 443.712834 83.346909 
L 445.996703 75.633307 
L 448.026809 69.526282 
L 450.056915 64.160982 
L 451.833258 60.098884 
L 453.355837 57.101202 
L 454.878417 54.560584 
L 456.400996 52.485164 
L 457.669813 51.115842 
L 458.938629 50.077257 
L 459.953682 49.486096 
L 460.968735 49.108938 
L 461.983788 48.946321 
L 462.998841 48.998477 
L 464.013894 49.26533 
L 465.028947 49.746502 
L 466.044 50.441308 
L 467.312816 51.608704 
L 468.581632 53.105743 
L 469.850448 54.929097 
L 471.373028 57.542102 
L 472.895607 60.610766 
L 474.67195 64.753594 
L 476.448293 69.485155 
L 478.478399 75.587 
L 480.508505 82.396094 
L 482.792374 90.853331 
L 485.330006 101.168226 
L 488.121402 113.524328 
L 491.166561 128.058083 
L 494.719246 146.162159 
L 499.033222 169.371861 
L 506.646119 211.858837 
L 512.736437 245.327023 
L 516.796649 266.45446 
L 520.095571 282.528931 
L 523.14073 296.272036 
L 525.678362 306.790393 
L 528.215995 316.359262 
L 530.499864 324.088957 
L 532.52997 330.211105 
L 534.560076 335.592207 
L 536.336419 339.668619 
L 537.858998 342.678883 
L 539.381578 345.232326 
L 540.904157 347.320779 
L 542.172973 348.701086 
L 543.44179 349.750746 
L 544.710606 350.467425 
L 545.725659 350.799926 
L 546.740712 350.917812 
L 547.755765 350.820916 
L 548.770818 350.509375 
L 549.785871 349.983632 
L 550.800924 349.244435 
L 552.06974 348.0219 
L 553.338556 346.470224 
L 554.607372 344.592857 
L 556.129952 341.91603 
L 557.652531 338.78482 
L 559.428874 334.570899 
L 561.205217 329.770563 
L 563.235323 323.593341 
L 565.265429 316.712717 
L 567.549298 308.180112 
L 570.08693 297.788447 
L 572.878326 285.357158 
L 575.923485 270.753362 
L 577.192301 264.390284 
L 577.192301 264.390284 
" clip-path="url(#p15d47adea5)" style="fill: none; stroke: #ff7f0e; stroke-width: 3; stroke-linecap: square"/>
   </g>
   <g id="line2d_27">
    <path d="M 69.919574 199.928396 
L 72.457206 199.832682 
L 73.472259 199.581817 
L 74.487312 199.084559 
L 75.502365 198.2885 
L 76.517418 197.165503 
L 77.532471 195.70551 
L 78.801287 193.411496 
L 80.070104 190.618913 
L 81.592683 186.660604 
L 83.369026 181.299822 
L 85.399132 174.348485 
L 87.683001 165.699812 
L 90.72816 153.218322 
L 96.057188 130.201325 
L 101.132453 108.660948 
L 104.431375 95.620875 
L 107.222771 85.486603 
L 109.760403 77.146695 
L 112.044273 70.448458 
L 114.074379 65.196452 
L 115.850721 61.1782 
L 117.627064 57.724668 
L 119.149643 55.230051 
L 120.672223 53.177131 
L 121.941039 51.810608 
L 123.209855 50.761856 
L 124.478672 50.03448 
L 125.493725 49.685848 
L 126.508778 49.545691 
L 127.523831 49.614685 
L 128.538884 49.893161 
L 129.553936 50.381117 
L 130.568989 51.078215 
L 131.837806 52.242647 
L 133.106622 53.73078 
L 134.375438 55.539813 
L 135.898018 58.129161 
L 137.420597 61.16782 
L 139.19694 65.268536 
L 140.973283 69.951269 
L 143.003388 75.990237 
L 145.033494 82.730063 
L 147.317364 91.103105 
L 149.854996 101.318335 
L 152.646392 113.559425 
L 155.691551 127.963757 
L 159.244236 145.914963 
L 163.558211 168.941438 
L 170.917345 209.71819 
L 177.261427 244.394689 
L 181.321639 265.41228 
L 184.620561 281.414476 
L 187.66572 295.105486 
L 190.457115 306.590149 
L 192.994748 316.03875 
L 195.278617 323.662558 
L 197.308723 329.693106 
L 199.085066 334.365412 
L 200.861408 338.452186 
L 202.383988 341.47554 
L 203.906567 344.045915 
L 205.429147 346.155088 
L 206.697963 347.55551 
L 207.966779 348.627826 
L 209.235596 349.369653 
L 210.250648 349.72403 
L 211.265701 349.865322 
L 212.280754 349.793325 
L 213.295807 349.508145 
L 214.31086 349.010185 
L 215.325913 348.300154 
L 216.59473 347.11596 
L 217.863546 345.604637 
L 219.132362 343.769545 
L 220.654942 341.145853 
L 222.177521 338.070241 
L 223.953864 333.92406 
L 225.730206 329.194281 
L 227.760312 323.100748 
L 229.790418 316.306613 
L 232.074288 307.874044 
L 234.61192 297.596081 
L 237.403316 285.291797 
L 240.448475 270.827302 
L 244.00116 252.81966 
L 248.315135 229.747338 
L 256.181796 186.138008 
L 262.272114 152.989305 
L 266.332326 132.119655 
L 269.631248 116.276381 
L 272.676407 102.760793 
L 275.214039 92.440225 
L 277.497908 83.965841 
L 279.781778 76.326172 
L 281.811884 70.28069 
L 283.588226 65.594747 
L 285.364569 61.493869 
L 286.887149 58.458102 
L 288.409728 55.875059 
L 289.932308 53.753005 
L 291.201124 52.341716 
L 292.46994 51.258438 
L 293.738756 50.50558 
L 294.753809 50.142345 
L 295.768862 49.99218 
L 296.783915 50.055301 
L 297.798968 50.331616 
L 298.814021 50.820732 
L 299.829074 51.521955 
L 301.09789 52.69521 
L 302.366707 54.195692 
L 303.635523 56.020068 
L 305.158102 58.631098 
L 306.680682 61.694303 
L 308.457024 65.826381 
L 310.233367 70.542522 
L 312.263473 76.62111 
L 314.293579 83.401065 
L 316.577448 91.818701 
L 319.115081 102.081461 
L 321.906476 114.370865 
L 324.951635 128.821512 
L 328.504321 146.816376 
L 332.818296 169.878366 
L 340.431193 212.075567 
L 346.521511 245.298329 
L 350.581723 266.26216 
L 353.880645 282.206726 
L 356.925804 295.834148 
L 359.463437 306.26031 
L 362.001069 315.741691 
L 364.284938 323.397313 
L 366.315044 329.45778 
L 368.34515 334.781483 
L 370.121493 338.811441 
L 371.644072 341.784849 
L 373.166652 344.304298 
L 374.689231 346.361724 
L 375.958048 347.718517 
L 377.226864 348.746844 
L 378.49568 349.444423 
L 379.510733 349.763278 
L 380.525786 349.868994 
L 381.540839 349.761418 
L 382.555892 349.440705 
L 383.570945 348.907311 
L 384.839761 347.942669 
L 386.108577 346.649064 
L 387.377394 345.02937 
L 388.899973 342.660421 
L 390.422553 339.834706 
L 391.945132 336.561272 
L 393.721475 332.190448 
L 395.497818 327.24358 
L 397.527923 320.912407 
L 399.811793 312.969232 
L 402.095662 304.212408 
L 404.633294 293.605177 
L 407.42469 280.979771 
L 410.723612 264.946836 
L 414.530061 245.250959 
L 419.351563 219.055749 
L 432.293488 148.094961 
L 436.099937 128.778911 
L 439.398859 113.174351 
L 442.190255 100.978427 
L 444.727887 90.81094 
L 447.011756 82.486759 
L 449.295626 75.007942 
L 451.325731 69.113446 
L 453.102074 64.565091 
L 454.878417 60.606287 
L 456.400996 57.695401 
L 457.923576 55.239679 
L 459.446155 53.246981 
L 460.714972 51.944744 
L 461.983788 50.971401 
L 462.998841 50.43101 
L 464.013894 50.103278 
L 465.028947 49.988673 
L 466.044 50.087357 
L 467.059053 50.39919 
L 468.074106 50.923729 
L 469.342922 51.877354 
L 470.611738 53.160025 
L 471.880554 54.76889 
L 473.403134 57.125019 
L 474.925713 59.938142 
L 476.448293 63.199254 
L 478.224635 67.556093 
L 480.000978 72.489458 
L 482.031084 78.805862 
L 484.314953 86.733369 
L 486.598823 95.475637 
L 489.136455 106.068124 
L 491.927851 118.679202 
L 495.226773 134.697958 
L 499.033222 154.381445 
L 503.854723 180.567423 
L 516.796649 251.540484 
L 520.603097 270.870143 
L 523.90202 286.489867 
L 526.693415 298.700893 
L 529.231048 308.883773 
L 531.514917 317.223045 
L 533.798786 324.718012 
L 535.828892 330.627659 
L 537.605235 335.189813 
L 539.381578 339.162861 
L 540.904157 342.086263 
L 542.426737 344.554741 
L 543.949316 346.560395 
L 545.218132 347.873551 
L 546.486948 348.857899 
L 547.502001 349.40714 
L 548.517054 349.743747 
L 549.532107 349.867243 
L 550.54716 349.777449 
L 551.562213 349.474496 
L 552.577266 348.958812 
L 553.592319 348.231133 
L 554.861136 347.025019 
L 556.129952 345.491982 
L 557.398768 343.635428 
L 558.921347 340.98638 
L 560.443927 337.885925 
L 562.22027 333.711515 
L 563.996612 328.954434 
L 566.026718 322.830988 
L 568.056824 316.008478 
L 570.340694 307.546025 
L 572.878326 297.237639 
L 575.669722 284.903585 
L 577.192301 277.782909 
L 577.192301 277.782909 
" clip-path="url(#p15d47adea5)" style="fill: none; stroke-dasharray: 16,4,2.5,4; stroke-dashoffset: 0; stroke: #9467bd; stroke-width: 2.5"/>
   </g>
   <g id="line2d_28">
    <path d="M 69.919574 199.928396 
L 72.964733 199.832875 
L 74.233549 199.574937 
L 75.502365 199.058647 
L 76.517418 198.41781 
L 77.532471 197.551173 
L 78.801287 196.130576 
L 80.070104 194.32406 
L 81.33892 192.130963 
L 82.861499 189.00156 
L 84.384079 185.356033 
L 86.160422 180.501805 
L 88.190528 174.250407 
L 90.474397 166.463138 
L 93.265792 156.110224 
L 97.072241 141.060264 
L 105.700191 106.625845 
L 108.999114 94.538589 
L 111.790509 85.178669 
L 114.074379 78.239401 
L 116.104485 72.685101 
L 118.13459 67.76047 
L 119.910933 64.00207 
L 121.687276 60.783997 
L 123.209855 58.47209 
L 124.732435 56.584492 
L 126.001251 55.34262 
L 127.270067 54.406725 
L 128.538884 53.780534 
L 129.553936 53.504523 
L 130.568989 53.429649 
L 131.584042 53.556642 
L 132.599095 53.885893 
L 133.614148 54.417456 
L 134.882965 55.365951 
L 136.151781 56.628832 
L 137.420597 58.204041 
L 138.943177 60.502528 
L 140.465756 63.240322 
L 141.988336 66.409551 
L 143.764678 70.6397 
L 145.541021 75.426916 
L 147.571127 81.554445 
L 149.854996 89.244247 
L 152.138865 97.725039 
L 154.676498 108.002718 
L 157.467893 120.242596 
L 160.766816 135.79596 
L 164.573264 154.917119 
L 169.394766 180.371252 
L 182.590455 250.750137 
L 186.396903 269.515841 
L 189.695826 284.667825 
L 192.487221 296.503909 
L 195.024854 306.366187 
L 197.308723 314.435887 
L 199.592592 321.681281 
L 201.622698 327.387341 
L 203.399041 331.786409 
L 205.175384 335.61117 
L 206.697963 338.419742 
L 208.220543 340.785112 
L 209.743122 342.69971 
L 211.011938 343.946406 
L 212.280754 344.873015 
L 213.295807 345.382433 
L 214.31086 345.68494 
L 215.325913 345.780106 
L 216.340966 345.667794 
L 217.356019 345.348166 
L 218.371072 344.821676 
L 219.639889 343.873833 
L 220.908705 342.606066 
L 222.177521 341.021195 
L 223.7001 338.705779 
L 225.22268 335.946251 
L 226.745259 332.751442 
L 228.521602 328.487735 
L 230.297945 323.664106 
L 232.328051 317.492826 
L 234.61192 309.752726 
L 236.895789 301.222123 
L 239.433422 290.891407 
L 242.224817 278.597905 
L 245.52374 262.989918 
L 249.330188 243.820405 
L 254.405453 216.966388 
L 266.839852 150.608149 
L 270.646301 131.751206 
L 273.945223 116.496844 
L 276.736619 104.558487 
L 279.274251 94.591803 
L 281.55812 86.419648 
L 283.84199 79.064537 
L 285.872096 73.255507 
L 287.648438 68.762622 
L 289.424781 64.841005 
L 290.94736 61.947317 
L 292.46994 59.495185 
L 293.992519 57.492459 
L 295.261336 56.171483 
L 296.530152 55.170012 
L 297.798968 54.490294 
L 298.814021 54.179202 
L 299.829074 54.075438 
L 300.844127 54.17915 
L 301.85918 54.49019 
L 302.874233 55.008116 
L 304.143049 55.945307 
L 305.411865 57.202502 
L 306.680682 58.776906 
L 308.203261 61.079931 
L 309.725841 63.827293 
L 311.24842 67.010198 
L 313.024763 71.260401 
L 314.801106 76.070994 
L 316.831212 82.228021 
L 319.115081 89.953009 
L 321.39895 98.469581 
L 323.936582 108.786095 
L 326.727978 121.065808 
L 330.0269 136.660169 
L 333.833349 155.817805 
L 338.654851 181.297928 
L 351.596776 250.325566 
L 355.403225 269.116463 
L 358.702147 284.297182 
L 361.493543 296.162173 
L 364.031175 306.054066 
L 366.315044 314.152886 
L 368.598914 321.429503 
L 370.629019 327.164889 
L 372.405362 331.59069 
L 374.181705 335.443058 
L 375.704284 338.275895 
L 377.226864 340.666002 
L 378.749443 342.60573 
L 380.01826 343.873607 
L 381.287076 344.821565 
L 382.555892 345.447497 
L 383.570945 345.715425 
L 384.585998 345.775972 
L 385.601051 345.62905 
L 386.616104 345.274869 
L 387.631157 344.713932 
L 388.899973 343.723254 
L 390.168789 342.412991 
L 391.437606 340.786055 
L 392.960185 338.420863 
L 394.482765 335.612474 
L 396.005344 332.369876 
L 397.781687 328.051972 
L 399.558029 323.176049 
L 401.588135 316.947626 
L 403.872005 309.146968 
L 406.155874 300.560172 
L 408.693506 290.172634 
L 411.484902 277.824031 
L 414.783824 262.161703 
L 418.590273 242.944997 
L 423.665538 216.055397 
L 435.59241 152.338001 
L 439.398859 133.378074 
L 442.697781 118.008106 
L 445.489177 105.954135 
L 448.026809 95.869289 
L 450.564442 86.709018 
L 452.848311 79.322758 
L 454.878417 73.484475 
L 456.65476 68.964921 
L 458.431102 65.015756 
L 459.953682 62.097846 
L 461.476261 59.621013 
L 462.998841 57.593182 
L 464.267657 56.251036 
L 465.536473 55.228214 
L 466.805289 54.526988 
L 467.820342 54.198629 
L 468.835395 54.077571 
L 469.850448 54.163985 
L 470.865501 54.457749 
L 471.880554 54.958446 
L 473.149371 55.874202 
L 474.418187 57.110119 
L 475.687003 58.663452 
L 477.209583 60.94153 
L 478.732162 63.664386 
L 480.254741 66.823308 
L 482.031084 71.046293 
L 483.807427 75.830602 
L 485.837533 81.958879 
L 488.121402 89.653363 
L 490.405271 98.141591 
L 492.942904 108.42939 
L 495.734299 120.681192 
L 499.033222 136.247924 
L 502.83967 155.381397 
L 507.661172 180.843484 
L 520.856861 251.184606 
L 524.663309 269.921781 
L 527.962232 285.042892 
L 530.753627 296.848662 
L 533.29126 306.680296 
L 535.575129 314.720108 
L 537.858998 321.933638 
L 539.889104 327.609887 
L 541.665447 331.981856 
L 543.44179 335.77869 
L 544.964369 338.562754 
L 546.486948 340.903171 
L 547.755765 342.509173 
L 549.024581 343.79829 
L 550.293397 344.767655 
L 551.562213 345.415115 
L 552.577266 345.700319 
L 553.592319 345.778163 
L 554.607372 345.648535 
L 555.622425 345.31162 
L 556.637478 344.767898 
L 557.906294 343.798627 
L 559.175111 342.509603 
L 560.443927 340.903691 
L 561.966506 338.563379 
L 563.489086 335.779413 
L 565.011665 332.560703 
L 566.788008 328.26989 
L 568.564351 323.420108 
L 570.594457 317.220252 
L 572.878326 309.449868 
L 575.162195 300.891164 
L 577.192301 292.672324 
L 577.192301 292.672324 
" clip-path="url(#p15d47adea5)" style="fill: none; stroke-dasharray: 9.25,4; stroke-dashoffset: 0; stroke: #2ca02c; stroke-width: 2.5"/>
   </g>
   <g id="line2d_29">
    <path d="M 69.919574 199.928396 
L 74.994839 199.821873 
L 77.278708 199.543668 
L 79.308814 199.080731 
L 81.33892 198.373823 
L 83.115263 197.533527 
L 84.891605 196.473626 
L 86.921711 194.984924 
L 88.951817 193.197584 
L 90.981923 191.114938 
L 93.265792 188.430139 
L 95.549662 185.402425 
L 98.087294 181.667636 
L 100.87869 177.158457 
L 104.177612 171.375646 
L 108.237824 163.754451 
L 114.835668 150.78418 
L 120.925986 138.988996 
L 124.732435 132.09309 
L 127.777594 127.000595 
L 130.568989 122.750405 
L 133.106622 119.291144 
L 135.390491 116.546305 
L 137.420597 114.424914 
L 139.450703 112.623166 
L 141.227046 111.322245 
L 143.003388 110.289104 
L 144.779731 109.532453 
L 146.302311 109.10958 
L 147.82489 108.899117 
L 149.34747 108.904147 
L 150.870049 109.126995 
L 152.392629 109.56922 
L 153.915208 110.231611 
L 155.437788 111.114187 
L 157.21413 112.421102 
L 158.990473 114.024153 
L 160.766816 115.91943 
L 162.796922 118.43644 
L 164.827028 121.318116 
L 167.110897 124.980484 
L 169.394766 129.067944 
L 171.932398 134.078696 
L 174.723794 140.117197 
L 177.768953 147.269526 
L 181.067875 155.591477 
L 185.128087 166.489898 
L 190.203352 180.804461 
L 203.399041 218.356226 
L 207.459253 229.048414 
L 210.758175 237.144023 
L 213.803334 244.038385 
L 216.59473 249.797034 
L 219.132362 254.515592 
L 221.416231 258.307837 
L 223.446337 261.29573 
L 225.476443 263.90665 
L 227.252786 265.871151 
L 229.029129 267.528704 
L 230.805471 268.872809 
L 232.328051 269.77147 
L 233.85063 270.433573 
L 235.37321 270.857408 
L 236.895789 271.042013 
L 238.418369 270.987182 
L 239.940948 270.693459 
L 241.463528 270.162145 
L 242.986107 269.395288 
L 244.508687 268.395679 
L 246.285029 266.940042 
L 248.061372 265.179273 
L 249.837715 263.121526 
L 251.867821 260.418318 
L 253.897927 257.355618 
L 256.181796 253.50294 
L 258.719428 248.750325 
L 261.510824 242.999092 
L 264.555983 236.172134 
L 267.854905 228.226046 
L 271.915117 217.836615 
L 277.497908 202.871316 
L 287.394675 176.280949 
L 291.454887 166.041128 
L 295.007572 157.683038 
L 298.052731 151.083552 
L 300.844127 145.56925 
L 303.38176 141.052722 
L 305.665629 137.427003 
L 307.695735 134.575727 
L 309.725841 132.091355 
L 311.502183 130.229825 
L 313.278526 128.668448 
L 315.054869 127.414148 
L 316.577448 126.587711 
L 318.100028 125.993722 
L 319.622607 125.634153 
L 321.145187 125.510224 
L 322.667766 125.622395 
L 324.190346 125.970374 
L 325.712925 126.553107 
L 327.235505 127.36879 
L 328.758084 128.414871 
L 330.534427 129.922066 
L 332.310769 131.731869 
L 334.340875 134.160693 
L 336.370981 136.960837 
L 338.654851 140.535073 
L 340.93872 144.533619 
L 343.476352 149.43917 
L 346.267748 155.34749 
L 349.312907 162.33249 
L 352.865592 171.077049 
L 357.179567 182.347415 
L 363.523649 199.641163 
L 371.390309 220.980311 
L 375.704284 232.027081 
L 379.25697 240.51436 
L 382.302129 247.229675 
L 385.093524 252.853874 
L 387.631157 257.473016 
L 389.915026 261.192963 
L 392.198895 264.470845 
L 394.229001 266.994293 
L 396.005344 268.889179 
L 397.781687 270.483136 
L 399.558029 271.769245 
L 401.080609 272.622334 
L 402.603188 273.242407 
L 404.125768 273.627494 
L 405.648347 273.776372 
L 407.170927 273.688576 
L 408.693506 273.3644 
L 410.216086 272.80489 
L 411.738665 272.011848 
L 413.261245 270.98782 
L 415.037587 269.505608 
L 416.81393 267.719975 
L 418.590273 265.638711 
L 420.620379 262.90983 
L 422.650485 259.822261 
L 424.934354 255.941968 
L 427.471986 251.158366 
L 430.263382 245.371725 
L 433.308541 238.503416 
L 436.607463 230.508015 
L 440.667675 220.049624 
L 446.250467 204.971415 
L 456.400996 177.456202 
L 460.461208 167.125783 
L 464.013894 158.689701 
L 467.059053 152.024251 
L 469.850448 146.4502 
L 472.388081 141.879976 
L 474.67195 138.206472 
L 476.702056 135.313186 
L 478.732162 132.787282 
L 480.508505 130.889837 
L 482.284847 129.292974 
L 484.06119 128.003652 
L 485.58377 127.147592 
L 487.106349 126.524374 
L 488.628929 126.135993 
L 490.151508 125.983694 
L 491.674087 126.067967 
L 493.196667 126.388545 
L 494.719246 126.944402 
L 496.241826 127.733763 
L 497.764405 128.754102 
L 499.540748 130.232034 
L 501.317091 132.013447 
L 503.093434 134.090585 
L 505.123539 136.81491 
L 507.153645 139.89814 
L 509.437515 143.77387 
L 511.975147 148.552869 
L 514.766543 154.335108 
L 517.811702 161.199516 
L 521.110624 169.191874 
L 525.170836 179.648379 
L 530.753627 194.727617 
L 540.904157 222.256017 
L 544.964369 232.595746 
L 548.517054 241.04174 
L 551.562213 247.716902 
L 554.353609 253.300758 
L 556.891242 257.880572 
L 559.175111 261.563199 
L 561.205217 264.464939 
L 563.235323 266.999578 
L 565.011665 268.904865 
L 566.788008 270.509723 
L 568.564351 271.807162 
L 570.08693 272.670254 
L 571.60951 273.300551 
L 573.132089 273.696038 
L 574.654669 273.855449 
L 576.177248 273.778274 
L 577.192301 273.596138 
L 577.192301 273.596138 
" clip-path="url(#p15d47adea5)" style="fill: none; stroke-dasharray: 2.5,4.125; stroke-dashoffset: 0; stroke: #d62728; stroke-width: 2.5"/>
   </g>
   <g id="patch_3">
    <path d="M 44.555937 366.037812 
L 44.555937 33.397812 
" style="fill: none; stroke: #000000; stroke-width: 0.8; stroke-linejoin: miter; stroke-linecap: square"/>
   </g>
   <g id="patch_4">
    <path d="M 602.555938 366.037812 
L 602.555938 33.397812 
" style="fill: none; stroke: #000000; stroke-width: 0.8; stroke-linejoin: miter; stroke-linecap: square"/>
   </g>
   <g id="patch_5">
    <path d="M 44.555937 366.037812 
L 602.555938 366.037812 
" style="fill: none; stroke: #000000; stroke-width: 0.8; stroke-linejoin: miter; stroke-linecap: square"/>
   </g>
   <g id="patch_6">
    <path d="M 44.555937 33.397812 
L 602.555938 33.397812 
" style="fill: none; stroke: #000000; stroke-width: 0.8; stroke-linejoin: miter; stroke-linecap: square"/>
   </g>
   <g id="text_15">
    <!-- Respuesta Transitoria a 100 kHz (Senoidal, 100uV pico, 3 Ciclos) - 5 Vías -->
    <g transform="translate(69.499687 18.397812) scale(0.14 -0.14)">
     <defs>
      <path id="DejaVuSans-52" d="M 2841 2188 
Q 3044 2119 3236 1894 
Q 3428 1669 3622 1275 
L 4263 0 
L 3584 0 
L 2988 1197 
Q 2756 1666 2539 1819 
Q 2322 1972 1947 1972 
L 1259 1972 
L 1259 0 
L 628 0 
L 628 4666 
L 2053 4666 
Q 2853 4666 3247 4331 
Q 3641 3997 3641 3322 
Q 3641 2881 3436 2590 
Q 3231 2300 2841 2188 
z
M 1259 4147 
L 1259 2491 
L 2053 2491 
Q 2509 2491 2742 2702 
Q 2975 2913 2975 3322 
Q 2975 3731 2742 3939 
Q 2509 4147 2053 4147 
L 1259 4147 
z
" transform="scale(0.015625)"/>
      <path id="DejaVuSans-75" d="M 544 1381 
L 544 3500 
L 1119 3500 
L 1119 1403 
Q 1119 906 1312 657 
Q 1506 409 1894 409 
Q 2359 409 2629 706 
Q 2900 1003 2900 1516 
L 2900 3500 
L 3475 3500 
L 3475 0 
L 2900 0 
L 2900 538 
Q 2691 219 2414 64 
Q 2138 -91 1772 -91 
Q 1169 -91 856 284 
Q 544 659 544 1381 
z
M 1991 3584 
L 1991 3584 
z
" transform="scale(0.015625)"/>
      <path id="DejaVuSans-74" d="M 1172 4494 
L 1172 3500 
L 2356 3500 
L 2356 3053 
L 1172 3053 
L 1172 1153 
Q 1172 725 1289 603 
Q 1406 481 1766 481 
L 2356 481 
L 2356 0 
L 1766 0 
Q 1100 0 847 248 
Q 594 497 594 1153 
L 594 3053 
L 172 3053 
L 172 3500 
L 594 3500 
L 594 4494 
L 1172 4494 
z
" transform="scale(0.015625)"/>
      <path id="DejaVuSans-72" d="M 2631 2963 
Q 2534 3019 2420 3045 
Q 2306 3072 2169 3072 
Q 1681 3072 1420 2755 
Q 1159 2438 1159 1844 
L 1159 0 
L 581 0 
L 581 3500 
L 1159 3500 
L 1159 2956 
Q 1341 3275 1631 3429 
Q 1922 3584 2338 3584 
Q 2397 3584 2469 3576 
Q 2541 3569 2628 3553 
L 2631 2963 
z
" transform="scale(0.015625)"/>
      <path id="DejaVuSans-6b" d="M 581 4863 
L 1159 4863 
L 1159 1991 
L 2875 3500 
L 3609 3500 
L 1753 1863 
L 3688 0 
L 2938 0 
L 1159 1709 
L 1159 0 
L 581 0 
L 581 4863 
z
" transform="scale(0.015625)"/>
      <path id="DejaVuSans-48" d="M 628 4666 
L 1259 4666 
L 1259 2753 
L 3553 2753 
L 3553 4666 
L 4184 4666 
L 4184 0 
L 3553 0 
L 3553 2222 
L 1259 2222 
L 1259 0 
L 628 0 
L 628 4666 
z
" transform="scale(0.015625)"/>
      <path id="DejaVuSans-7a" d="M 353 3500 
L 3084 3500 
L 3084 2975 
L 922 459 
L 3084 459 
L 3084 0 
L 275 0 
L 275 525 
L 2438 3041 
L 353 3041 
L 353 3500 
z
" transform="scale(0.015625)"/>
      <path id="DejaVuSans-2c" d="M 750 794 
L 1409 794 
L 1409 256 
L 897 -744 
L 494 -744 
L 750 256 
L 750 794 
z
" transform="scale(0.015625)"/>
      <path id="DejaVuSans-63" d="M 3122 3366 
L 3122 2828 
Q 2878 2963 2633 3030 
Q 2388 3097 2138 3097 
Q 1578 3097 1268 2742 
Q 959 2388 959 1747 
Q 959 1106 1268 751 
Q 1578 397 2138 397 
Q 2388 397 2633 464 
Q 2878 531 3122 666 
L 3122 134 
Q 2881 22 2623 -34 
Q 2366 -91 2075 -91 
Q 1284 -91 818 406 
Q 353 903 353 1747 
Q 353 2603 823 3093 
Q 1294 3584 2113 3584 
Q 2378 3584 2631 3529 
Q 2884 3475 3122 3366 
z
" transform="scale(0.015625)"/>
      <path id="DejaVuSans-43" d="M 4122 4306 
L 4122 3641 
Q 3803 3938 3442 4084 
Q 3081 4231 2675 4231 
Q 1875 4231 1450 3742 
Q 1025 3253 1025 2328 
Q 1025 1406 1450 917 
Q 1875 428 2675 428 
Q 3081 428 3442 575 
Q 3803 722 4122 1019 
L 4122 359 
Q 3791 134 3420 21 
Q 3050 -91 2638 -91 
Q 1578 -91 968 557 
Q 359 1206 359 2328 
Q 359 3453 968 4101 
Q 1578 4750 2638 4750 
Q 3056 4750 3426 4639 
Q 3797 4528 4122 4306 
z
" transform="scale(0.015625)"/>
      <path id="DejaVuSans-2d" d="M 313 2009 
L 1997 2009 
L 1997 1497 
L 313 1497 
L 313 2009 
z
" transform="scale(0.015625)"/>
      <path id="DejaVuSans-ed" d="M 1322 5119 
L 1944 5119 
L 926 3944 
L 447 3944 
L 1322 5119 
z
M 603 3500 
L 1178 3500 
L 1178 0 
L 603 0 
L 603 3500 
z
M 891 3584 
L 891 3584 
z
" transform="scale(0.015625)"/>
     </defs>
     <use xlink:href="#DejaVuSans-52"/>
     <use xlink:href="#DejaVuSans-65" transform="translate(64.982422 0)"/>
     <use xlink:href="#DejaVuSans-73" transform="translate(126.505859 0)"/>
     <use xlink:href="#DejaVuSans-70" transform="translate(178.605469 0)"/>
     <use xlink:href="#DejaVuSans-75" transform="translate(242.082031 0)"/>
     <use xlink:href="#DejaVuSans-65" transform="translate(305.460938 0)"/>
     <use xlink:href="#DejaVuSans-73" transform="translate(366.984375 0)"/>
     <use xlink:href="#DejaVuSans-74" transform="translate(419.083984 0)"/>
     <use xlink:href="#DejaVuSans-61" transform="translate(458.292969 0)"/>
     <use xlink:href="#DejaVuSans-20" transform="translate(519.572266 0)"/>
     <use xlink:href="#DejaVuSans-54" transform="translate(551.359375 0)"/>
     <use xlink:href="#DejaVuSans-72" transform="translate(597.693359 0)"/>
     <use xlink:href="#DejaVuSans-61" transform="translate(638.806641 0)"/>
     <use xlink:href="#DejaVuSans-6e" transform="translate(700.085938 0)"/>
     <use xlink:href="#DejaVuSans-73" transform="translate(763.464844 0)"/>
     <use xlink:href="#DejaVuSans-69" transform="translate(815.564453 0)"/>
     <use xlink:href="#DejaVuSans-74" transform="translate(843.347656 0)"/>
     <use xlink:href="#DejaVuSans-6f" transform="translate(882.556641 0)"/>
     <use xlink:href="#DejaVuSans-72" transform="translate(943.738281 0)"/>
     <use xlink:href="#DejaVuSans-69" transform="translate(984.851562 0)"/>
     <use xlink:href="#DejaVuSans-61" transform="translate(1012.634766 0)"/>
     <use xlink:href="#DejaVuSans-20" transform="translate(1073.914062 0)"/>
     <use xlink:href="#DejaVuSans-61" transform="translate(1105.701172 0)"/>
     <use xlink:href="#DejaVuSans-20" transform="translate(1166.980469 0)"/>
     <use xlink:href="#DejaVuSans-31" transform="translate(1198.767578 0)"/>
     <use xlink:href="#DejaVuSans-30" transform="translate(1262.390625 0)"/>
     <use xlink:href="#DejaVuSans-30" transform="translate(1326.013672 0)"/>
     <use xlink:href="#DejaVuSans-20" transform="translate(1389.636719 0)"/>
     <use xlink:href="#DejaVuSans-6b" transform="translate(1421.423828 0)"/>
     <use xlink:href="#DejaVuSans-48" transform="translate(1479.333984 0)"/>
     <use xlink:href="#DejaVuSans-7a" transform="translate(1554.529297 0)"/>
     <use xlink:href="#DejaVuSans-20" transform="translate(1607.019531 0)"/>
     <use xlink:href="#DejaVuSans-28" transform="translate(1638.806641 0)"/>
     <use xlink:href="#DejaVuSans-53" transform="translate(1677.820312 0)"/>
     <use xlink:href="#DejaVuSans-65" transform="translate(1741.296875 0)"/>
     <use xlink:href="#DejaVuSans-6e" transform="translate(1802.820312 0)"/>
     <use xlink:href="#DejaVuSans-6f" transform="translate(1866.199219 0)"/>
     <use xlink:href="#DejaVuSans-69" transform="translate(1927.380859 0)"/>
     <use xlink:href="#DejaVuSans-64" transform="translate(1955.164062 0)"/>
     <use xlink:href="#DejaVuSans-61" transform="translate(2018.640625 0)"/>
     <use xlink:href="#DejaVuSans-6c" transform="translate(2079.919922 0)"/>
     <use xlink:href="#DejaVuSans-2c" transform="translate(2107.703125 0)"/>
     <use xlink:href="#DejaVuSans-20" transform="translate(2139.490234 0)"/>
     <use xlink:href="#DejaVuSans-31" transform="translate(2171.277344 0)"/>
     <use xlink:href="#DejaVuSans-30" transform="translate(2234.900391 0)"/>
     <use xlink:href="#DejaVuSans-30" transform="translate(2298.523438 0)"/>
     <use xlink:href="#DejaVuSans-75" transform="translate(2362.146484 0)"/>
     <use xlink:href="#DejaVuSans-56" transform="translate(2425.525391 0)"/>
     <use xlink:href="#DejaVuSans-20" transform="translate(2493.933594 0)"/>
     <use xlink:href="#DejaVuSans-70" transform="translate(2525.720703 0)"/>
     <use xlink:href="#DejaVuSans-69" transform="translate(2589.197266 0)"/>
     <use xlink:href="#DejaVuSans-63" transform="translate(2616.980469 0)"/>
     <use xlink:href="#DejaVuSans-6f" transform="translate(2671.960938 0)"/>
     <use xlink:href="#DejaVuSans-2c" transform="translate(2733.142578 0)"/>
     <use xlink:href="#DejaVuSans-20" transform="translate(2764.929688 0)"/>
     <use xlink:href="#DejaVuSans-33" transform="translate(2796.716797 0)"/>
     <use xlink:href="#DejaVuSans-20" transform="translate(2860.339844 0)"/>
     <use xlink:href="#DejaVuSans-43" transform="translate(2892.126953 0)"/>
     <use xlink:href="#DejaVuSans-69" transform="translate(2961.951172 0)"/>
     <use xlink:href="#DejaVuSans-63" transform="translate(2989.734375 0)"/>
     <use xlink:href="#DejaVuSans-6c" transform="translate(3044.714844 0)"/>
     <use xlink:href="#DejaVuSans-6f" transform="translate(3072.498047 0)"/>
     <use xlink:href="#DejaVuSans-73" transform="translate(3133.679688 0)"/>
     <use xlink:href="#DejaVuSans-29" transform="translate(3185.779297 0)"/>
     <use xlink:href="#DejaVuSans-20" transform="translate(3224.792969 0)"/>
     <use xlink:href="#DejaVuSans-2d" transform="translate(3256.580078 0)"/>
     <use xlink:href="#DejaVuSans-20" transform="translate(3292.664062 0)"/>
     <use xlink:href="#DejaVuSans-35" transform="translate(3324.451172 0)"/>
     <use xlink:href="#DejaVuSans-20" transform="translate(3388.074219 0)"/>
     <use xlink:href="#DejaVuSans-56" transform="translate(3419.861328 0)"/>
     <use xlink:href="#DejaVuSans-ed" transform="translate(3488.269531 0)"/>
     <use xlink:href="#DejaVuSans-61" transform="translate(3516.052734 0)"/>
     <use xlink:href="#DejaVuSans-73" transform="translate(3577.332031 0)"/>
    </g>
   </g>
   <g id="legend_1">
    <g id="patch_7">
     <path d="M 451.768281 122.9275 
L 594.855937 122.9275 
Q 597.055938 122.9275 597.055938 120.7275 
L 597.055938 41.097812 
Q 597.055938 38.897812 594.855937 38.897812 
L 451.768281 38.897812 
Q 449.568281 38.897812 449.568281 41.097812 
L 449.568281 120.7275 
Q 449.568281 122.9275 451.768281 122.9275 
z
" style="fill: #ffffff; opacity: 0.8; stroke: #cccccc; stroke-linejoin: miter"/>
    </g>
    <g id="line2d_30">
     <path d="M 453.968281 47.806094 
L 464.968281 47.806094 
L 475.968281 47.806094 
" style="fill: none; stroke: #1f77b4; stroke-width: 2.5; stroke-linecap: square"/>
    </g>
    <g id="text_16">
     <!-- Ideal Op-Amp -->
     <g transform="translate(484.768281 51.656094) scale(0.11 -0.11)">
      <defs>
       <path id="DejaVuSans-49" d="M 628 4666 
L 1259 4666 
L 1259 0 
L 628 0 
L 628 4666 
z
" transform="scale(0.015625)"/>
       <path id="DejaVuSans-4f" d="M 2522 4238 
Q 1834 4238 1429 3725 
Q 1025 3213 1025 2328 
Q 1025 1447 1429 934 
Q 1834 422 2522 422 
Q 3209 422 3611 934 
Q 4013 1447 4013 2328 
Q 4013 3213 3611 3725 
Q 3209 4238 2522 4238 
z
M 2522 4750 
Q 3503 4750 4090 4092 
Q 4678 3434 4678 2328 
Q 4678 1225 4090 567 
Q 3503 -91 2522 -91 
Q 1538 -91 948 565 
Q 359 1222 359 2328 
Q 359 3434 948 4092 
Q 1538 4750 2522 4750 
z
" transform="scale(0.015625)"/>
       <path id="DejaVuSans-41" d="M 2188 4044 
L 1331 1722 
L 3047 1722 
L 2188 4044 
z
M 1831 4666 
L 2547 4666 
L 4325 0 
L 3669 0 
L 3244 1197 
L 1141 1197 
L 716 0 
L 50 0 
L 1831 4666 
z
" transform="scale(0.015625)"/>
      </defs>
      <use xlink:href="#DejaVuSans-49"/>
      <use xlink:href="#DejaVuSans-64" transform="translate(29.492188 0)"/>
      <use xlink:href="#DejaVuSans-65" transform="translate(92.96875 0)"/>
      <use xlink:href="#DejaVuSans-61" transform="translate(154.492188 0)"/>
      <use xlink:href="#DejaVuSans-6c" transform="translate(215.771484 0)"/>
      <use xlink:href="#DejaVuSans-20" transform="translate(243.554688 0)"/>
      <use xlink:href="#DejaVuSans-4f" transform="translate(275.341797 0)"/>
      <use xlink:href="#DejaVuSans-70" transform="translate(354.052734 0)"/>
      <use xlink:href="#DejaVuSans-2d" transform="translate(417.529297 0)"/>
      <use xlink:href="#DejaVuSans-41" transform="translate(451.363281 0)"/>
      <use xlink:href="#DejaVuSans-6d" transform="translate(519.771484 0)"/>
      <use xlink:href="#DejaVuSans-70" transform="translate(617.183594 0)"/>
     </g>
    </g>
    <g id="line2d_31">
     <path d="M 453.968281 63.952031 
L 464.968281 63.952031 
L 475.968281 63.952031 
" style="fill: none; stroke: #ff7f0e; stroke-width: 3; stroke-linecap: square"/>
    </g>
    <g id="text_17">
     <!-- ADA4817-1 FastFET -->
     <g transform="translate(484.768281 67.802031) scale(0.11 -0.11)">
      <defs>
       <path id="DejaVuSans-44" d="M 1259 4147 
L 1259 519 
L 2022 519 
Q 2988 519 3436 956 
Q 3884 1394 3884 2338 
Q 3884 3275 3436 3711 
Q 2988 4147 2022 4147 
L 1259 4147 
z
M 628 4666 
L 1925 4666 
Q 3281 4666 3915 4102 
Q 4550 3538 4550 2338 
Q 4550 1131 3912 565 
Q 3275 0 1925 0 
L 628 0 
L 628 4666 
z
" transform="scale(0.015625)"/>
       <path id="DejaVuSans-34" d="M 2419 4116 
L 825 1625 
L 2419 1625 
L 2419 4116 
z
M 2253 4666 
L 3047 4666 
L 3047 1625 
L 3713 1625 
L 3713 1100 
L 3047 1100 
L 3047 0 
L 2419 0 
L 2419 1100 
L 313 1100 
L 313 1709 
L 2253 4666 
z
" transform="scale(0.015625)"/>
       <path id="DejaVuSans-38" d="M 2034 2216 
Q 1584 2216 1326 1975 
Q 1069 1734 1069 1313 
Q 1069 891 1326 650 
Q 1584 409 2034 409 
Q 2484 409 2743 651 
Q 3003 894 3003 1313 
Q 3003 1734 2745 1975 
Q 2488 2216 2034 2216 
z
M 1403 2484 
Q 997 2584 770 2862 
Q 544 3141 544 3541 
Q 544 4100 942 4425 
Q 1341 4750 2034 4750 
Q 2731 4750 3128 4425 
Q 3525 4100 3525 3541 
Q 3525 3141 3298 2862 
Q 3072 2584 2669 2484 
Q 3125 2378 3379 2068 
Q 3634 1759 3634 1313 
Q 3634 634 3220 271 
Q 2806 -91 2034 -91 
Q 1263 -91 848 271 
Q 434 634 434 1313 
Q 434 1759 690 2068 
Q 947 2378 1403 2484 
z
M 1172 3481 
Q 1172 3119 1398 2916 
Q 1625 2713 2034 2713 
Q 2441 2713 2670 2916 
Q 2900 3119 2900 3481 
Q 2900 3844 2670 4047 
Q 2441 4250 2034 4250 
Q 1625 4250 1398 4047 
Q 1172 3844 1172 3481 
z
" transform="scale(0.015625)"/>
       <path id="DejaVuSans-37" d="M 525 4666 
L 3525 4666 
L 3525 4397 
L 1831 0 
L 1172 0 
L 2766 4134 
L 525 4134 
L 525 4666 
z
" transform="scale(0.015625)"/>
       <path id="DejaVuSans-46" d="M 628 4666 
L 3309 4666 
L 3309 4134 
L 1259 4134 
L 1259 2759 
L 3109 2759 
L 3109 2228 
L 1259 2228 
L 1259 0 
L 628 0 
L 628 4666 
z
" transform="scale(0.015625)"/>
       <path id="DejaVuSans-45" d="M 628 4666 
L 3578 4666 
L 3578 4134 
L 1259 4134 
L 1259 2753 
L 3481 2753 
L 3481 2222 
L 1259 2222 
L 1259 531 
L 3634 531 
L 3634 0 
L 628 0 
L 628 4666 
z
" transform="scale(0.015625)"/>
      </defs>
      <use xlink:href="#DejaVuSans-41"/>
      <use xlink:href="#DejaVuSans-44" transform="translate(68.408203 0)"/>
      <use xlink:href="#DejaVuSans-41" transform="translate(143.660156 0)"/>
      <use xlink:href="#DejaVuSans-34" transform="translate(212.068359 0)"/>
      <use xlink:href="#DejaVuSans-38" transform="translate(275.691406 0)"/>
      <use xlink:href="#DejaVuSans-31" transform="translate(339.314453 0)"/>
      <use xlink:href="#DejaVuSans-37" transform="translate(402.9375 0)"/>
      <use xlink:href="#DejaVuSans-2d" transform="translate(466.560547 0)"/>
      <use xlink:href="#DejaVuSans-31" transform="translate(502.644531 0)"/>
      <use xlink:href="#DejaVuSans-20" transform="translate(566.267578 0)"/>
      <use xlink:href="#DejaVuSans-46" transform="translate(598.054688 0)"/>
      <use xlink:href="#DejaVuSans-61" transform="translate(646.449219 0)"/>
      <use xlink:href="#DejaVuSans-73" transform="translate(707.728516 0)"/>
      <use xlink:href="#DejaVuSans-74" transform="translate(759.828125 0)"/>
      <use xlink:href="#DejaVuSans-46" transform="translate(799.037109 0)"/>
      <use xlink:href="#DejaVuSans-45" transform="translate(856.556641 0)"/>
      <use xlink:href="#DejaVuSans-54" transform="translate(919.740234 0)"/>
     </g>
    </g>
    <g id="line2d_32">
     <path d="M 453.968281 80.097969 
L 464.968281 80.097969 
L 475.968281 80.097969 
" style="fill: none; stroke-dasharray: 16,4,2.5,4; stroke-dashoffset: 0; stroke: #9467bd; stroke-width: 2.5"/>
    </g>
    <g id="text_18">
     <!-- OPA828 JFET -->
     <g transform="translate(484.768281 83.947969) scale(0.11 -0.11)">
      <defs>
       <path id="DejaVuSans-50" d="M 1259 4147 
L 1259 2394 
L 2053 2394 
Q 2494 2394 2734 2622 
Q 2975 2850 2975 3272 
Q 2975 3691 2734 3919 
Q 2494 4147 2053 4147 
L 1259 4147 
z
M 628 4666 
L 2053 4666 
Q 2838 4666 3239 4311 
Q 3641 3956 3641 3272 
Q 3641 2581 3239 2228 
Q 2838 1875 2053 1875 
L 1259 1875 
L 1259 0 
L 628 0 
L 628 4666 
z
" transform="scale(0.015625)"/>
       <path id="DejaVuSans-4a" d="M 628 4666 
L 1259 4666 
L 1259 325 
Q 1259 -519 939 -900 
Q 619 -1281 -91 -1281 
L -331 -1281 
L -331 -750 
L -134 -750 
Q 284 -750 456 -515 
Q 628 -281 628 325 
L 628 4666 
z
" transform="scale(0.015625)"/>
      </defs>
      <use xlink:href="#DejaVuSans-4f"/>
      <use xlink:href="#DejaVuSans-50" transform="translate(78.710938 0)"/>
      <use xlink:href="#DejaVuSans-41" transform="translate(132.638672 0)"/>
      <use xlink:href="#DejaVuSans-38" transform="translate(201.046875 0)"/>
      <use xlink:href="#DejaVuSans-32" transform="translate(264.669922 0)"/>
      <use xlink:href="#DejaVuSans-38" transform="translate(328.292969 0)"/>
      <use xlink:href="#DejaVuSans-20" transform="translate(391.916016 0)"/>
      <use xlink:href="#DejaVuSans-4a" transform="translate(423.703125 0)"/>
      <use xlink:href="#DejaVuSans-46" transform="translate(453.195312 0)"/>
      <use xlink:href="#DejaVuSans-45" transform="translate(510.714844 0)"/>
      <use xlink:href="#DejaVuSans-54" transform="translate(573.898438 0)"/>
     </g>
    </g>
    <g id="line2d_33">
     <path d="M 453.968281 96.243906 
L 464.968281 96.243906 
L 475.968281 96.243906 
" style="fill: none; stroke-dasharray: 9.25,4; stroke-dashoffset: 0; stroke: #2ca02c; stroke-width: 2.5"/>
    </g>
    <g id="text_19">
     <!-- LF357 JFET -->
     <g transform="translate(484.768281 100.093906) scale(0.11 -0.11)">
      <defs>
       <path id="DejaVuSans-4c" d="M 628 4666 
L 1259 4666 
L 1259 531 
L 3531 531 
L 3531 0 
L 628 0 
L 628 4666 
z
" transform="scale(0.015625)"/>
      </defs>
      <use xlink:href="#DejaVuSans-4c"/>
      <use xlink:href="#DejaVuSans-46" transform="translate(55.712891 0)"/>
      <use xlink:href="#DejaVuSans-33" transform="translate(113.232422 0)"/>
      <use xlink:href="#DejaVuSans-35" transform="translate(176.855469 0)"/>
      <use xlink:href="#DejaVuSans-37" transform="translate(240.478516 0)"/>
      <use xlink:href="#DejaVuSans-20" transform="translate(304.101562 0)"/>
      <use xlink:href="#DejaVuSans-4a" transform="translate(335.888672 0)"/>
      <use xlink:href="#DejaVuSans-46" transform="translate(365.380859 0)"/>
      <use xlink:href="#DejaVuSans-45" transform="translate(422.900391 0)"/>
      <use xlink:href="#DejaVuSans-54" transform="translate(486.083984 0)"/>
     </g>
    </g>
    <g id="line2d_34">
     <path d="M 453.968281 112.389844 
L 464.968281 112.389844 
L 475.968281 112.389844 
" style="fill: none; stroke-dasharray: 2.5,4.125; stroke-dashoffset: 0; stroke: #d62728; stroke-width: 2.5"/>
    </g>
    <g id="text_20">
     <!-- TL071 JFET -->
     <g transform="translate(484.768281 116.239844) scale(0.11 -0.11)">
      <use xlink:href="#DejaVuSans-54"/>
      <use xlink:href="#DejaVuSans-4c" transform="translate(61.083984 0)"/>
      <use xlink:href="#DejaVuSans-30" transform="translate(116.796875 0)"/>
      <use xlink:href="#DejaVuSans-37" transform="translate(180.419922 0)"/>
      <use xlink:href="#DejaVuSans-31" transform="translate(244.042969 0)"/>
      <use xlink:href="#DejaVuSans-20" transform="translate(307.666016 0)"/>
      <use xlink:href="#DejaVuSans-4a" transform="translate(339.453125 0)"/>
      <use xlink:href="#DejaVuSans-46" transform="translate(368.945312 0)"/>
      <use xlink:href="#DejaVuSans-45" transform="translate(426.464844 0)"/>
      <use xlink:href="#DejaVuSans-54" transform="translate(489.648438 0)"/>
     </g>
    </g>
   </g>
  </g>
 </g>
 <defs>
  <clipPath id="p15d47adea5">
   <rect x="44.555937" y="33.397812" width="558" height="332.64"/>
  </clipPath>
 </defs>
</svg>
