<?xml version="1.0" encoding="utf-8" standalone="no"?>
<!DOCTYPE svg PUBLIC "-//W3C//DTD SVG 1.1//EN"
  "http://www.w3.org/Graphics/SVG/1.1/DTD/svg11.dtd">
<svg xmlns:xlink="http://www.w3.org/1999/xlink" width="619.296562pt" height="405.529687pt" viewBox="0 0 619.296562 405.529687" xmlns="http://www.w3.org/2000/svg" version="1.1">
 <metadata>
  <rdf:RDF xmlns:dc="http://purl.org/dc/elements/1.1/" xmlns:cc="http://creativecommons.org/ns#" xmlns:rdf="http://www.w3.org/1999/02/22-rdf-syntax-ns#">
   <cc:Work>
    <dc:type rdf:resource="http://purl.org/dc/dcmitype/StillImage"/>
    <dc:date>2026-05-24T18:38:24.832948</dc:date>
    <dc:format>image/svg+xml</dc:format>
    <dc:creator>
     <cc:Agent>
      <dc:title>Matplotlib v3.10.9, https://matplotlib.org/</dc:title>
     </cc:Agent>
    </dc:creator>
   </cc:Work>
  </rdf:RDF>
 </metadata>
 <defs>
  <style type="text/css">*{stroke-linejoin: round; stroke-linecap: butt}</style>
 </defs>
 <g id="figure_1">
  <g id="patch_1">
   <path d="M 0 405.529687 
L 619.296562 405.529687 
L 619.296562 0 
L 0 0 
z
" style="fill: #ffffff"/>
  </g>
  <g id="axes_1">
   <g id="patch_2">
    <path d="M 54.096563 366.037812 
L 612.096563 366.037812 
L 612.096563 33.397812 
L 54.096563 33.397812 
z
" style="fill: #ffffff"/>
   </g>
   <g id="matplotlib.axis_1">
    <g id="xtick_1">
     <g id="line2d_1">
      <path d="M 79.460199 366.037812 
L 79.460199 33.397812 
" clip-path="url(#p930c27485f)" style="fill: none; stroke: #e0e0e0; stroke-width: 0.8; stroke-linecap: square"/>
     </g>
     <g id="line2d_2">
      <defs>
       <path id="m97786015e7" d="M 0 0 
L 0 3.5 
" style="stroke: #000000; stroke-width: 0.8"/>
      </defs>
      <g>
       <use xlink:href="#m97786015e7" x="79.460199" y="366.037812" style="stroke: #000000; stroke-width: 0.8"/>
      </g>
     </g>
     <g id="text_1">
      <!-- 0 -->
      <g transform="translate(76.278949 380.63625) scale(0.1 -0.1)">
       <defs>
        <path id="DejaVuSans-30" d="M 2034 4250 
Q 1547 4250 1301 3770 
Q 1056 3291 1056 2328 
Q 1056 1369 1301 889 
Q 1547 409 2034 409 
Q 2525 409 2770 889 
Q 3016 1369 3016 2328 
Q 3016 3291 2770 3770 
Q 2525 4250 2034 4250 
z
M 2034 4750 
Q 2819 4750 3233 4129 
Q 3647 3509 3647 2328 
Q 3647 1150 3233 529 
Q 2819 -91 2034 -91 
Q 1250 -91 836 529 
Q 422 1150 422 2328 
Q 422 3509 836 4129 
Q 1250 4750 2034 4750 
z
" transform="scale(0.015625)"/>
       </defs>
       <use xlink:href="#DejaVuSans-30"/>
      </g>
     </g>
    </g>
    <g id="xtick_2">
     <g id="line2d_3">
      <path d="M 147.096563 366.037812 
L 147.096563 33.397812 
" clip-path="url(#p930c27485f)" style="fill: none; stroke: #e0e0e0; stroke-width: 0.8; stroke-linecap: square"/>
     </g>
     <g id="line2d_4">
      <g>
       <use xlink:href="#m97786015e7" x="147.096563" y="366.037812" style="stroke: #000000; stroke-width: 0.8"/>
      </g>
     </g>
     <g id="text_2">
      <!-- 2 -->
      <g transform="translate(143.915312 380.63625) scale(0.1 -0.1)">
       <defs>
        <path id="DejaVuSans-32" d="M 1228 531 
L 3431 531 
L 3431 0 
L 469 0 
L 469 531 
Q 828 903 1448 1529 
Q 2069 2156 2228 2338 
Q 2531 2678 2651 2914 
Q 2772 3150 2772 3378 
Q 2772 3750 2511 3984 
Q 2250 4219 1831 4219 
Q 1534 4219 1204 4116 
Q 875 4013 500 3803 
L 500 4441 
Q 881 4594 1212 4672 
Q 1544 4750 1819 4750 
Q 2544 4750 2975 4387 
Q 3406 4025 3406 3419 
Q 3406 3131 3298 2873 
Q 3191 2616 2906 2266 
Q 2828 2175 2409 1742 
Q 1991 1309 1228 531 
z
" transform="scale(0.015625)"/>
       </defs>
       <use xlink:href="#DejaVuSans-32"/>
      </g>
     </g>
    </g>
    <g id="xtick_3">
     <g id="line2d_5">
      <path d="M 214.732926 366.037812 
L 214.732926 33.397812 
" clip-path="url(#p930c27485f)" style="fill: none; stroke: #e0e0e0; stroke-width: 0.8; stroke-linecap: square"/>
     </g>
     <g id="line2d_6">
      <g>
       <use xlink:href="#m97786015e7" x="214.732926" y="366.037812" style="stroke: #000000; stroke-width: 0.8"/>
      </g>
     </g>
     <g id="text_3">
      <!-- 4 -->
      <g transform="translate(211.551676 380.63625) scale(0.1 -0.1)">
       <defs>
        <path id="DejaVuSans-34" d="M 2419 4116 
L 825 1625 
L 2419 1625 
L 2419 4116 
z
M 2253 4666 
L 3047 4666 
L 3047 1625 
L 3713 1625 
L 3713 1100 
L 3047 1100 
L 3047 0 
L 2419 0 
L 2419 1100 
L 313 1100 
L 313 1709 
L 2253 4666 
z
" transform="scale(0.015625)"/>
       </defs>
       <use xlink:href="#DejaVuSans-34"/>
      </g>
     </g>
    </g>
    <g id="xtick_4">
     <g id="line2d_7">
      <path d="M 282.36929 366.037812 
L 282.36929 33.397812 
" clip-path="url(#p930c27485f)" style="fill: none; stroke: #e0e0e0; stroke-width: 0.8; stroke-linecap: square"/>
     </g>
     <g id="line2d_8">
      <g>
       <use xlink:href="#m97786015e7" x="282.36929" y="366.037812" style="stroke: #000000; stroke-width: 0.8"/>
      </g>
     </g>
     <g id="text_4">
      <!-- 6 -->
      <g transform="translate(279.18804 380.63625) scale(0.1 -0.1)">
       <defs>
        <path id="DejaVuSans-36" d="M 2113 2584 
Q 1688 2584 1439 2293 
Q 1191 2003 1191 1497 
Q 1191 994 1439 701 
Q 1688 409 2113 409 
Q 2538 409 2786 701 
Q 3034 994 3034 1497 
Q 3034 2003 2786 2293 
Q 2538 2584 2113 2584 
z
M 3366 4563 
L 3366 3988 
Q 3128 4100 2886 4159 
Q 2644 4219 2406 4219 
Q 1781 4219 1451 3797 
Q 1122 3375 1075 2522 
Q 1259 2794 1537 2939 
Q 1816 3084 2150 3084 
Q 2853 3084 3261 2657 
Q 3669 2231 3669 1497 
Q 3669 778 3244 343 
Q 2819 -91 2113 -91 
Q 1303 -91 875 529 
Q 447 1150 447 2328 
Q 447 3434 972 4092 
Q 1497 4750 2381 4750 
Q 2619 4750 2861 4703 
Q 3103 4656 3366 4563 
z
" transform="scale(0.015625)"/>
       </defs>
       <use xlink:href="#DejaVuSans-36"/>
      </g>
     </g>
    </g>
    <g id="xtick_5">
     <g id="line2d_9">
      <path d="M 350.005653 366.037812 
L 350.005653 33.397812 
" clip-path="url(#p930c27485f)" style="fill: none; stroke: #e0e0e0; stroke-width: 0.8; stroke-linecap: square"/>
     </g>
     <g id="line2d_10">
      <g>
       <use xlink:href="#m97786015e7" x="350.005653" y="366.037812" style="stroke: #000000; stroke-width: 0.8"/>
      </g>
     </g>
     <g id="text_5">
      <!-- 8 -->
      <g transform="translate(346.824403 380.63625) scale(0.1 -0.1)">
       <defs>
        <path id="DejaVuSans-38" d="M 2034 2216 
Q 1584 2216 1326 1975 
Q 1069 1734 1069 1313 
Q 1069 891 1326 650 
Q 1584 409 2034 409 
Q 2484 409 2743 651 
Q 3003 894 3003 1313 
Q 3003 1734 2745 1975 
Q 2488 2216 2034 2216 
z
M 1403 2484 
Q 997 2584 770 2862 
Q 544 3141 544 3541 
Q 544 4100 942 4425 
Q 1341 4750 2034 4750 
Q 2731 4750 3128 4425 
Q 3525 4100 3525 3541 
Q 3525 3141 3298 2862 
Q 3072 2584 2669 2484 
Q 3125 2378 3379 2068 
Q 3634 1759 3634 1313 
Q 3634 634 3220 271 
Q 2806 -91 2034 -91 
Q 1263 -91 848 271 
Q 434 634 434 1313 
Q 434 1759 690 2068 
Q 947 2378 1403 2484 
z
M 1172 3481 
Q 1172 3119 1398 2916 
Q 1625 2713 2034 2713 
Q 2441 2713 2670 2916 
Q 2900 3119 2900 3481 
Q 2900 3844 2670 4047 
Q 2441 4250 2034 4250 
Q 1625 4250 1398 4047 
Q 1172 3844 1172 3481 
z
" transform="scale(0.015625)"/>
       </defs>
       <use xlink:href="#DejaVuSans-38"/>
      </g>
     </g>
    </g>
    <g id="xtick_6">
     <g id="line2d_11">
      <path d="M 417.642017 366.037812 
L 417.642017 33.397812 
" clip-path="url(#p930c27485f)" style="fill: none; stroke: #e0e0e0; stroke-width: 0.8; stroke-linecap: square"/>
     </g>
     <g id="line2d_12">
      <g>
       <use xlink:href="#m97786015e7" x="417.642017" y="366.037812" style="stroke: #000000; stroke-width: 0.8"/>
      </g>
     </g>
     <g id="text_6">
      <!-- 10 -->
      <g transform="translate(411.279517 380.63625) scale(0.1 -0.1)">
       <defs>
        <path id="DejaVuSans-31" d="M 794 531 
L 1825 531 
L 1825 4091 
L 703 3866 
L 703 4441 
L 1819 4666 
L 2450 4666 
L 2450 531 
L 3481 531 
L 3481 0 
L 794 0 
L 794 531 
z
" transform="scale(0.015625)"/>
       </defs>
       <use xlink:href="#DejaVuSans-31"/>
       <use xlink:href="#DejaVuSans-30" transform="translate(63.623047 0)"/>
      </g>
     </g>
    </g>
    <g id="xtick_7">
     <g id="line2d_13">
      <path d="M 485.278381 366.037812 
L 485.278381 33.397812 
" clip-path="url(#p930c27485f)" style="fill: none; stroke: #e0e0e0; stroke-width: 0.8; stroke-linecap: square"/>
     </g>
     <g id="line2d_14">
      <g>
       <use xlink:href="#m97786015e7" x="485.278381" y="366.037812" style="stroke: #000000; stroke-width: 0.8"/>
      </g>
     </g>
     <g id="text_7">
      <!-- 12 -->
      <g transform="translate(478.915881 380.63625) scale(0.1 -0.1)">
       <use xlink:href="#DejaVuSans-31"/>
       <use xlink:href="#DejaVuSans-32" transform="translate(63.623047 0)"/>
      </g>
     </g>
    </g>
    <g id="xtick_8">
     <g id="line2d_15">
      <path d="M 552.914744 366.037812 
L 552.914744 33.397812 
" clip-path="url(#p930c27485f)" style="fill: none; stroke: #e0e0e0; stroke-width: 0.8; stroke-linecap: square"/>
     </g>
     <g id="line2d_16">
      <g>
       <use xlink:href="#m97786015e7" x="552.914744" y="366.037812" style="stroke: #000000; stroke-width: 0.8"/>
      </g>
     </g>
     <g id="text_8">
      <!-- 14 -->
      <g transform="translate(546.552244 380.63625) scale(0.1 -0.1)">
       <use xlink:href="#DejaVuSans-31"/>
       <use xlink:href="#DejaVuSans-34" transform="translate(63.623047 0)"/>
      </g>
     </g>
    </g>
    <g id="text_9">
     <!-- Tiempo (μs) -->
     <g transform="translate(297.404063 395.834062) scale(0.12 -0.12)">
      <defs>
       <path id="DejaVuSans-54" d="M -19 4666 
L 3928 4666 
L 3928 4134 
L 2272 4134 
L 2272 0 
L 1638 0 
L 1638 4134 
L -19 4134 
L -19 4666 
z
" transform="scale(0.015625)"/>
       <path id="DejaVuSans-69" d="M 603 3500 
L 1178 3500 
L 1178 0 
L 603 0 
L 603 3500 
z
M 603 4863 
L 1178 4863 
L 1178 4134 
L 603 4134 
L 603 4863 
z
" transform="scale(0.015625)"/>
       <path id="DejaVuSans-65" d="M 3597 1894 
L 3597 1613 
L 953 1613 
Q 991 1019 1311 708 
Q 1631 397 2203 397 
Q 2534 397 2845 478 
Q 3156 559 3463 722 
L 3463 178 
Q 3153 47 2828 -22 
Q 2503 -91 2169 -91 
Q 1331 -91 842 396 
Q 353 884 353 1716 
Q 353 2575 817 3079 
Q 1281 3584 2069 3584 
Q 2775 3584 3186 3129 
Q 3597 2675 3597 1894 
z
M 3022 2063 
Q 3016 2534 2758 2815 
Q 2500 3097 2075 3097 
Q 1594 3097 1305 2825 
Q 1016 2553 972 2059 
L 3022 2063 
z
" transform="scale(0.015625)"/>
       <path id="DejaVuSans-6d" d="M 3328 2828 
Q 3544 3216 3844 3400 
Q 4144 3584 4550 3584 
Q 5097 3584 5394 3201 
Q 5691 2819 5691 2113 
L 5691 0 
L 5113 0 
L 5113 2094 
Q 5113 2597 4934 2840 
Q 4756 3084 4391 3084 
Q 3944 3084 3684 2787 
Q 3425 2491 3425 1978 
L 3425 0 
L 2847 0 
L 2847 2094 
Q 2847 2600 2669 2842 
Q 2491 3084 2119 3084 
Q 1678 3084 1418 2786 
Q 1159 2488 1159 1978 
L 1159 0 
L 581 0 
L 581 3500 
L 1159 3500 
L 1159 2956 
Q 1356 3278 1631 3431 
Q 1906 3584 2284 3584 
Q 2666 3584 2933 3390 
Q 3200 3197 3328 2828 
z
" transform="scale(0.015625)"/>
       <path id="DejaVuSans-70" d="M 1159 525 
L 1159 -1331 
L 581 -1331 
L 581 3500 
L 1159 3500 
L 1159 2969 
Q 1341 3281 1617 3432 
Q 1894 3584 2278 3584 
Q 2916 3584 3314 3078 
Q 3713 2572 3713 1747 
Q 3713 922 3314 415 
Q 2916 -91 2278 -91 
Q 1894 -91 1617 61 
Q 1341 213 1159 525 
z
M 3116 1747 
Q 3116 2381 2855 2742 
Q 2594 3103 2138 3103 
Q 1681 3103 1420 2742 
Q 1159 2381 1159 1747 
Q 1159 1113 1420 752 
Q 1681 391 2138 391 
Q 2594 391 2855 752 
Q 3116 1113 3116 1747 
z
" transform="scale(0.015625)"/>
       <path id="DejaVuSans-6f" d="M 1959 3097 
Q 1497 3097 1228 2736 
Q 959 2375 959 1747 
Q 959 1119 1226 758 
Q 1494 397 1959 397 
Q 2419 397 2687 759 
Q 2956 1122 2956 1747 
Q 2956 2369 2687 2733 
Q 2419 3097 1959 3097 
z
M 1959 3584 
Q 2709 3584 3137 3096 
Q 3566 2609 3566 1747 
Q 3566 888 3137 398 
Q 2709 -91 1959 -91 
Q 1206 -91 779 398 
Q 353 888 353 1747 
Q 353 2609 779 3096 
Q 1206 3584 1959 3584 
z
" transform="scale(0.015625)"/>
       <path id="DejaVuSans-20" transform="scale(0.015625)"/>
       <path id="DejaVuSans-28" d="M 1984 4856 
Q 1566 4138 1362 3434 
Q 1159 2731 1159 2009 
Q 1159 1288 1364 580 
Q 1569 -128 1984 -844 
L 1484 -844 
Q 1016 -109 783 600 
Q 550 1309 550 2009 
Q 550 2706 781 3412 
Q 1013 4119 1484 4856 
L 1984 4856 
z
" transform="scale(0.015625)"/>
       <path id="DejaVuSans-3bc" d="M 544 -1331 
L 544 3500 
L 1119 3500 
L 1119 1325 
Q 1119 872 1334 640 
Q 1550 409 1972 409 
Q 2434 409 2667 671 
Q 2900 934 2900 1459 
L 2900 3500 
L 3475 3500 
L 3475 806 
Q 3475 619 3529 530 
Q 3584 441 3700 441 
Q 3728 441 3778 458 
Q 3828 475 3916 513 
L 3916 50 
Q 3788 -22 3673 -56 
Q 3559 -91 3450 -91 
Q 3234 -91 3106 31 
Q 2978 153 2931 403 
Q 2775 156 2548 32 
Q 2322 -91 2016 -91 
Q 1697 -91 1473 31 
Q 1250 153 1119 397 
L 1119 -1331 
L 544 -1331 
z
" transform="scale(0.015625)"/>
       <path id="DejaVuSans-73" d="M 2834 3397 
L 2834 2853 
Q 2591 2978 2328 3040 
Q 2066 3103 1784 3103 
Q 1356 3103 1142 2972 
Q 928 2841 928 2578 
Q 928 2378 1081 2264 
Q 1234 2150 1697 2047 
L 1894 2003 
Q 2506 1872 2764 1633 
Q 3022 1394 3022 966 
Q 3022 478 2636 193 
Q 2250 -91 1575 -91 
Q 1294 -91 989 -36 
Q 684 19 347 128 
L 347 722 
Q 666 556 975 473 
Q 1284 391 1588 391 
Q 1994 391 2212 530 
Q 2431 669 2431 922 
Q 2431 1156 2273 1281 
Q 2116 1406 1581 1522 
L 1381 1569 
Q 847 1681 609 1914 
Q 372 2147 372 2553 
Q 372 3047 722 3315 
Q 1072 3584 1716 3584 
Q 2034 3584 2315 3537 
Q 2597 3491 2834 3397 
z
" transform="scale(0.015625)"/>
       <path id="DejaVuSans-29" d="M 513 4856 
L 1013 4856 
Q 1481 4119 1714 3412 
Q 1947 2706 1947 2009 
Q 1947 1309 1714 600 
Q 1481 -109 1013 -844 
L 513 -844 
Q 928 -128 1133 580 
Q 1338 1288 1338 2009 
Q 1338 2731 1133 3434 
Q 928 4138 513 4856 
z
" transform="scale(0.015625)"/>
      </defs>
      <use xlink:href="#DejaVuSans-54"/>
      <use xlink:href="#DejaVuSans-69" transform="translate(57.958984 0)"/>
      <use xlink:href="#DejaVuSans-65" transform="translate(85.742188 0)"/>
      <use xlink:href="#DejaVuSans-6d" transform="translate(147.265625 0)"/>
      <use xlink:href="#DejaVuSans-70" transform="translate(244.677734 0)"/>
      <use xlink:href="#DejaVuSans-6f" transform="translate(308.154297 0)"/>
      <use xlink:href="#DejaVuSans-20" transform="translate(369.335938 0)"/>
      <use xlink:href="#DejaVuSans-28" transform="translate(401.123047 0)"/>
      <use xlink:href="#DejaVuSans-3bc" transform="translate(440.136719 0)"/>
      <use xlink:href="#DejaVuSans-73" transform="translate(503.759766 0)"/>
      <use xlink:href="#DejaVuSans-29" transform="translate(555.859375 0)"/>
     </g>
    </g>
   </g>
   <g id="matplotlib.axis_2">
    <g id="ytick_1">
     <g id="line2d_17">
      <path d="M 54.096563 354.703591 
L 612.096563 354.703591 
" clip-path="url(#p930c27485f)" style="fill: none; stroke: #e0e0e0; stroke-width: 0.8; stroke-linecap: square"/>
     </g>
     <g id="line2d_18">
      <defs>
       <path id="mb09cd32c8c" d="M 0 0 
L -3.5 0 
" style="stroke: #000000; stroke-width: 0.8"/>
      </defs>
      <g>
       <use xlink:href="#mb09cd32c8c" x="54.096563" y="354.703591" style="stroke: #000000; stroke-width: 0.8"/>
      </g>
     </g>
     <g id="text_10">
      <!-- −2.0 -->
      <g transform="translate(22.81375 358.502809) scale(0.1 -0.1)">
       <defs>
        <path id="DejaVuSans-2212" d="M 678 2272 
L 4684 2272 
L 4684 1741 
L 678 1741 
L 678 2272 
z
" transform="scale(0.015625)"/>
        <path id="DejaVuSans-2e" d="M 684 794 
L 1344 794 
L 1344 0 
L 684 0 
L 684 794 
z
" transform="scale(0.015625)"/>
       </defs>
       <use xlink:href="#DejaVuSans-2212"/>
       <use xlink:href="#DejaVuSans-32" transform="translate(83.789062 0)"/>
       <use xlink:href="#DejaVuSans-2e" transform="translate(147.412109 0)"/>
       <use xlink:href="#DejaVuSans-30" transform="translate(179.199219 0)"/>
      </g>
     </g>
    </g>
    <g id="ytick_2">
     <g id="line2d_19">
      <path d="M 54.096563 316.672281 
L 612.096563 316.672281 
" clip-path="url(#p930c27485f)" style="fill: none; stroke: #e0e0e0; stroke-width: 0.8; stroke-linecap: square"/>
     </g>
     <g id="line2d_20">
      <g>
       <use xlink:href="#mb09cd32c8c" x="54.096563" y="316.672281" style="stroke: #000000; stroke-width: 0.8"/>
      </g>
     </g>
     <g id="text_11">
      <!-- −1.5 -->
      <g transform="translate(22.81375 320.471499) scale(0.1 -0.1)">
       <defs>
        <path id="DejaVuSans-35" d="M 691 4666 
L 3169 4666 
L 3169 4134 
L 1269 4134 
L 1269 2991 
Q 1406 3038 1543 3061 
Q 1681 3084 1819 3084 
Q 2600 3084 3056 2656 
Q 3513 2228 3513 1497 
Q 3513 744 3044 326 
Q 2575 -91 1722 -91 
Q 1428 -91 1123 -41 
Q 819 9 494 109 
L 494 744 
Q 775 591 1075 516 
Q 1375 441 1709 441 
Q 2250 441 2565 725 
Q 2881 1009 2881 1497 
Q 2881 1984 2565 2268 
Q 2250 2553 1709 2553 
Q 1456 2553 1204 2497 
Q 953 2441 691 2322 
L 691 4666 
z
" transform="scale(0.015625)"/>
       </defs>
       <use xlink:href="#DejaVuSans-2212"/>
       <use xlink:href="#DejaVuSans-31" transform="translate(83.789062 0)"/>
       <use xlink:href="#DejaVuSans-2e" transform="translate(147.412109 0)"/>
       <use xlink:href="#DejaVuSans-35" transform="translate(179.199219 0)"/>
      </g>
     </g>
    </g>
    <g id="ytick_3">
     <g id="line2d_21">
      <path d="M 54.096563 278.640971 
L 612.096563 278.640971 
" clip-path="url(#p930c27485f)" style="fill: none; stroke: #e0e0e0; stroke-width: 0.8; stroke-linecap: square"/>
     </g>
     <g id="line2d_22">
      <g>
       <use xlink:href="#mb09cd32c8c" x="54.096563" y="278.640971" style="stroke: #000000; stroke-width: 0.8"/>
      </g>
     </g>
     <g id="text_12">
      <!-- −1.0 -->
      <g transform="translate(22.81375 282.440189) scale(0.1 -0.1)">
       <use xlink:href="#DejaVuSans-2212"/>
       <use xlink:href="#DejaVuSans-31" transform="translate(83.789062 0)"/>
       <use xlink:href="#DejaVuSans-2e" transform="translate(147.412109 0)"/>
       <use xlink:href="#DejaVuSans-30" transform="translate(179.199219 0)"/>
      </g>
     </g>
    </g>
    <g id="ytick_4">
     <g id="line2d_23">
      <path d="M 54.096563 240.609661 
L 612.096563 240.609661 
" clip-path="url(#p930c27485f)" style="fill: none; stroke: #e0e0e0; stroke-width: 0.8; stroke-linecap: square"/>
     </g>
     <g id="line2d_24">
      <g>
       <use xlink:href="#mb09cd32c8c" x="54.096563" y="240.609661" style="stroke: #000000; stroke-width: 0.8"/>
      </g>
     </g>
     <g id="text_13">
      <!-- −0.5 -->
      <g transform="translate(22.81375 244.408879) scale(0.1 -0.1)">
       <use xlink:href="#DejaVuSans-2212"/>
       <use xlink:href="#DejaVuSans-30" transform="translate(83.789062 0)"/>
       <use xlink:href="#DejaVuSans-2e" transform="translate(147.412109 0)"/>
       <use xlink:href="#DejaVuSans-35" transform="translate(179.199219 0)"/>
      </g>
     </g>
    </g>
    <g id="ytick_5">
     <g id="line2d_25">
      <path d="M 54.096563 202.578351 
L 612.096563 202.578351 
" clip-path="url(#p930c27485f)" style="fill: none; stroke: #e0e0e0; stroke-width: 0.8; stroke-linecap: square"/>
     </g>
     <g id="line2d_26">
      <g>
       <use xlink:href="#mb09cd32c8c" x="54.096563" y="202.578351" style="stroke: #000000; stroke-width: 0.8"/>
      </g>
     </g>
     <g id="text_14">
      <!-- 0.0 -->
      <g transform="translate(31.193438 206.377569) scale(0.1 -0.1)">
       <use xlink:href="#DejaVuSans-30"/>
       <use xlink:href="#DejaVuSans-2e" transform="translate(63.623047 0)"/>
       <use xlink:href="#DejaVuSans-30" transform="translate(95.410156 0)"/>
      </g>
     </g>
    </g>
    <g id="ytick_6">
     <g id="line2d_27">
      <path d="M 54.096563 164.547041 
L 612.096563 164.547041 
" clip-path="url(#p930c27485f)" style="fill: none; stroke: #e0e0e0; stroke-width: 0.8; stroke-linecap: square"/>
     </g>
     <g id="line2d_28">
      <g>
       <use xlink:href="#mb09cd32c8c" x="54.096563" y="164.547041" style="stroke: #000000; stroke-width: 0.8"/>
      </g>
     </g>
     <g id="text_15">
      <!-- 0.5 -->
      <g transform="translate(31.193438 168.346259) scale(0.1 -0.1)">
       <use xlink:href="#DejaVuSans-30"/>
       <use xlink:href="#DejaVuSans-2e" transform="translate(63.623047 0)"/>
       <use xlink:href="#DejaVuSans-35" transform="translate(95.410156 0)"/>
      </g>
     </g>
    </g>
    <g id="ytick_7">
     <g id="line2d_29">
      <path d="M 54.096563 126.515731 
L 612.096563 126.515731 
" clip-path="url(#p930c27485f)" style="fill: none; stroke: #e0e0e0; stroke-width: 0.8; stroke-linecap: square"/>
     </g>
     <g id="line2d_30">
      <g>
       <use xlink:href="#mb09cd32c8c" x="54.096563" y="126.515731" style="stroke: #000000; stroke-width: 0.8"/>
      </g>
     </g>
     <g id="text_16">
      <!-- 1.0 -->
      <g transform="translate(31.193438 130.31495) scale(0.1 -0.1)">
       <use xlink:href="#DejaVuSans-31"/>
       <use xlink:href="#DejaVuSans-2e" transform="translate(63.623047 0)"/>
       <use xlink:href="#DejaVuSans-30" transform="translate(95.410156 0)"/>
      </g>
     </g>
    </g>
    <g id="ytick_8">
     <g id="line2d_31">
      <path d="M 54.096563 88.484421 
L 612.096563 88.484421 
" clip-path="url(#p930c27485f)" style="fill: none; stroke: #e0e0e0; stroke-width: 0.8; stroke-linecap: square"/>
     </g>
     <g id="line2d_32">
      <g>
       <use xlink:href="#mb09cd32c8c" x="54.096563" y="88.484421" style="stroke: #000000; stroke-width: 0.8"/>
      </g>
     </g>
     <g id="text_17">
      <!-- 1.5 -->
      <g transform="translate(31.193438 92.28364) scale(0.1 -0.1)">
       <use xlink:href="#DejaVuSans-31"/>
       <use xlink:href="#DejaVuSans-2e" transform="translate(63.623047 0)"/>
       <use xlink:href="#DejaVuSans-35" transform="translate(95.410156 0)"/>
      </g>
     </g>
    </g>
    <g id="ytick_9">
     <g id="line2d_33">
      <path d="M 54.096563 50.453111 
L 612.096563 50.453111 
" clip-path="url(#p930c27485f)" style="fill: none; stroke: #e0e0e0; stroke-width: 0.8; stroke-linecap: square"/>
     </g>
     <g id="line2d_34">
      <g>
       <use xlink:href="#mb09cd32c8c" x="54.096563" y="50.453111" style="stroke: #000000; stroke-width: 0.8"/>
      </g>
     </g>
     <g id="text_18">
      <!-- 2.0 -->
      <g transform="translate(31.193438 54.25233) scale(0.1 -0.1)">
       <use xlink:href="#DejaVuSans-32"/>
       <use xlink:href="#DejaVuSans-2e" transform="translate(63.623047 0)"/>
       <use xlink:href="#DejaVuSans-30" transform="translate(95.410156 0)"/>
      </g>
     </g>
    </g>
    <g id="text_19">
     <!-- Tensión de Salida (V) -->
     <g transform="translate(16.318125 262.436562) rotate(-90) scale(0.12 -0.12)">
      <defs>
       <path id="DejaVuSans-6e" d="M 3513 2113 
L 3513 0 
L 2938 0 
L 2938 2094 
Q 2938 2591 2744 2837 
Q 2550 3084 2163 3084 
Q 1697 3084 1428 2787 
Q 1159 2491 1159 1978 
L 1159 0 
L 581 0 
L 581 3500 
L 1159 3500 
L 1159 2956 
Q 1366 3272 1645 3428 
Q 1925 3584 2291 3584 
Q 2894 3584 3203 3211 
Q 3513 2838 3513 2113 
z
" transform="scale(0.015625)"/>
       <path id="DejaVuSans-f3" d="M 1959 3097 
Q 1497 3097 1228 2736 
Q 959 2375 959 1747 
Q 959 1119 1226 758 
Q 1494 397 1959 397 
Q 2419 397 2687 759 
Q 2956 1122 2956 1747 
Q 2956 2369 2687 2733 
Q 2419 3097 1959 3097 
z
M 1959 3584 
Q 2709 3584 3137 3096 
Q 3566 2609 3566 1747 
Q 3566 888 3137 398 
Q 2709 -91 1959 -91 
Q 1206 -91 779 398 
Q 353 888 353 1747 
Q 353 2609 779 3096 
Q 1206 3584 1959 3584 
z
M 2394 5119 
L 3016 5119 
L 1998 3944 
L 1519 3944 
L 2394 5119 
z
" transform="scale(0.015625)"/>
       <path id="DejaVuSans-64" d="M 2906 2969 
L 2906 4863 
L 3481 4863 
L 3481 0 
L 2906 0 
L 2906 525 
Q 2725 213 2448 61 
Q 2172 -91 1784 -91 
Q 1150 -91 751 415 
Q 353 922 353 1747 
Q 353 2572 751 3078 
Q 1150 3584 1784 3584 
Q 2172 3584 2448 3432 
Q 2725 3281 2906 2969 
z
M 947 1747 
Q 947 1113 1208 752 
Q 1469 391 1925 391 
Q 2381 391 2643 752 
Q 2906 1113 2906 1747 
Q 2906 2381 2643 2742 
Q 2381 3103 1925 3103 
Q 1469 3103 1208 2742 
Q 947 2381 947 1747 
z
" transform="scale(0.015625)"/>
       <path id="DejaVuSans-53" d="M 3425 4513 
L 3425 3897 
Q 3066 4069 2747 4153 
Q 2428 4238 2131 4238 
Q 1616 4238 1336 4038 
Q 1056 3838 1056 3469 
Q 1056 3159 1242 3001 
Q 1428 2844 1947 2747 
L 2328 2669 
Q 3034 2534 3370 2195 
Q 3706 1856 3706 1288 
Q 3706 609 3251 259 
Q 2797 -91 1919 -91 
Q 1588 -91 1214 -16 
Q 841 59 441 206 
L 441 856 
Q 825 641 1194 531 
Q 1563 422 1919 422 
Q 2459 422 2753 634 
Q 3047 847 3047 1241 
Q 3047 1584 2836 1778 
Q 2625 1972 2144 2069 
L 1759 2144 
Q 1053 2284 737 2584 
Q 422 2884 422 3419 
Q 422 4038 858 4394 
Q 1294 4750 2059 4750 
Q 2388 4750 2728 4690 
Q 3069 4631 3425 4513 
z
" transform="scale(0.015625)"/>
       <path id="DejaVuSans-61" d="M 2194 1759 
Q 1497 1759 1228 1600 
Q 959 1441 959 1056 
Q 959 750 1161 570 
Q 1363 391 1709 391 
Q 2188 391 2477 730 
Q 2766 1069 2766 1631 
L 2766 1759 
L 2194 1759 
z
M 3341 1997 
L 3341 0 
L 2766 0 
L 2766 531 
Q 2569 213 2275 61 
Q 1981 -91 1556 -91 
Q 1019 -91 701 211 
Q 384 513 384 1019 
Q 384 1609 779 1909 
Q 1175 2209 1959 2209 
L 2766 2209 
L 2766 2266 
Q 2766 2663 2505 2880 
Q 2244 3097 1772 3097 
Q 1472 3097 1187 3025 
Q 903 2953 641 2809 
L 641 3341 
Q 956 3463 1253 3523 
Q 1550 3584 1831 3584 
Q 2591 3584 2966 3190 
Q 3341 2797 3341 1997 
z
" transform="scale(0.015625)"/>
       <path id="DejaVuSans-6c" d="M 603 4863 
L 1178 4863 
L 1178 0 
L 603 0 
L 603 4863 
z
" transform="scale(0.015625)"/>
       <path id="DejaVuSans-56" d="M 1831 0 
L 50 4666 
L 709 4666 
L 2188 738 
L 3669 4666 
L 4325 4666 
L 2547 0 
L 1831 0 
z
" transform="scale(0.015625)"/>
      </defs>
      <use xlink:href="#DejaVuSans-54"/>
      <use xlink:href="#DejaVuSans-65" transform="translate(44.083984 0)"/>
      <use xlink:href="#DejaVuSans-6e" transform="translate(105.607422 0)"/>
      <use xlink:href="#DejaVuSans-73" transform="translate(168.986328 0)"/>
      <use xlink:href="#DejaVuSans-69" transform="translate(221.085938 0)"/>
      <use xlink:href="#DejaVuSans-f3" transform="translate(248.869141 0)"/>
      <use xlink:href="#DejaVuSans-6e" transform="translate(310.050781 0)"/>
      <use xlink:href="#DejaVuSans-20" transform="translate(373.429688 0)"/>
      <use xlink:href="#DejaVuSans-64" transform="translate(405.216797 0)"/>
      <use xlink:href="#DejaVuSans-65" transform="translate(468.693359 0)"/>
      <use xlink:href="#DejaVuSans-20" transform="translate(530.216797 0)"/>
      <use xlink:href="#DejaVuSans-53" transform="translate(562.003906 0)"/>
      <use xlink:href="#DejaVuSans-61" transform="translate(625.480469 0)"/>
      <use xlink:href="#DejaVuSans-6c" transform="translate(686.759766 0)"/>
      <use xlink:href="#DejaVuSans-69" transform="translate(714.542969 0)"/>
      <use xlink:href="#DejaVuSans-64" transform="translate(742.326172 0)"/>
      <use xlink:href="#DejaVuSans-61" transform="translate(805.802734 0)"/>
      <use xlink:href="#DejaVuSans-20" transform="translate(867.082031 0)"/>
      <use xlink:href="#DejaVuSans-28" transform="translate(898.869141 0)"/>
      <use xlink:href="#DejaVuSans-56" transform="translate(937.882812 0)"/>
      <use xlink:href="#DejaVuSans-29" transform="translate(1006.291016 0)"/>
     </g>
    </g>
   </g>
   <g id="line2d_35">
    <path d="M 79.460199 202.578351 
L 83.012884 202.484308 
L 84.281701 202.245331 
L 85.550517 201.762134 
L 86.56557 201.156523 
L 87.580623 200.333258 
L 88.849439 198.980949 
L 90.118255 197.262685 
L 91.387071 195.182323 
L 92.909651 192.225042 
L 94.43223 188.793812 
L 96.208573 184.240457 
L 98.238679 178.389014 
L 100.522548 171.098665 
L 103.313944 161.370369 
L 106.866629 148.065033 
L 113.464474 122.202775 
L 118.285975 103.750848 
L 121.584898 91.944941 
L 124.376293 82.726234 
L 126.913926 75.100331 
L 129.197795 68.943034 
L 131.227901 64.089986 
L 133.004244 60.358183 
L 134.780586 57.13392 
L 136.303166 54.791664 
L 137.825745 52.851831 
L 139.094561 51.550714 
L 140.363378 50.542252 
L 141.632194 49.831154 
L 142.647247 49.47903 
L 143.6623 49.32137 
L 144.677353 49.359473 
L 145.692406 49.594316 
L 146.707459 50.026547 
L 147.976275 50.844869 
L 149.245091 51.972002 
L 150.513908 53.407075 
L 151.782724 55.148438 
L 153.305303 57.638918 
L 154.827883 60.561314 
L 156.604225 64.507029 
L 158.380568 69.016851 
L 160.410674 74.840161 
L 162.44078 81.349314 
L 164.724649 89.450232 
L 167.262282 99.354305 
L 170.053677 111.251269 
L 173.098836 125.288874 
L 176.397759 141.548847 
L 180.45797 162.722192 
L 186.294525 194.508363 
L 195.430002 244.255834 
L 199.490214 265.107084 
L 202.789136 281.004413 
L 205.834295 294.627063 
L 208.625691 306.075704 
L 211.163323 315.514831 
L 213.447192 323.149189 
L 215.477298 329.204163 
L 217.507404 334.535172 
L 219.283747 338.582282 
L 220.806326 341.578577 
L 222.328906 344.128589 
L 223.851485 346.224314 
L 225.120302 347.618933 
L 226.389118 348.690438 
L 227.657934 349.436496 
L 228.672987 349.797911 
L 229.68804 349.949499 
L 230.703093 349.891062 
L 231.718146 349.622701 
L 232.733199 349.144817 
L 233.748252 348.458103 
L 235.017068 347.307586 
L 236.285884 345.834933 
L 237.554701 344.043444 
L 239.07728 341.478485 
L 240.59986 338.468461 
L 242.376202 334.407235 
L 244.152545 329.771195 
L 246.182651 323.795092 
L 248.212757 317.128802 
L 250.496626 308.851681 
L 253.034259 298.759655 
L 255.825654 286.674179 
L 258.870813 272.462895 
L 262.423499 254.765767 
L 266.737474 232.085174 
L 274.350371 190.586256 
L 280.440689 157.914347 
L 284.500901 137.29878 
L 287.799823 121.619199 
L 290.844982 108.217792 
L 293.382615 97.963897 
L 295.920247 88.638761 
L 298.204116 81.109514 
L 300.234222 75.149735 
L 302.264328 69.915308 
L 304.040671 65.953625 
L 305.56325 63.031078 
L 307.08583 60.555162 
L 308.608409 58.533745 
L 309.877226 57.201105 
L 311.146042 56.191537 
L 312.414858 55.507283 
L 313.429911 55.195153 
L 314.444964 55.092655 
L 315.460017 55.199937 
L 316.47507 55.516846 
L 317.490123 56.042934 
L 318.758939 56.993533 
L 320.027755 58.267673 
L 321.296572 59.862522 
L 322.819151 62.194639 
L 324.341731 64.975975 
L 325.86431 68.197632 
L 327.640653 72.498918 
L 329.416995 77.366709 
L 331.447101 83.596272 
L 333.730971 91.411506 
L 336.01484 100.026853 
L 338.552472 110.462252 
L 341.343868 122.882624 
L 344.64279 138.654552 
L 348.449239 158.028995 
L 353.27074 183.795537 
L 366.212666 253.588838 
L 370.019115 272.585546 
L 373.318037 287.932068 
L 376.109433 299.926812 
L 378.647065 309.92719 
L 380.930934 318.114785 
L 383.214803 325.470539 
L 385.244909 331.267331 
L 387.021252 335.739611 
L 388.797595 339.631572 
L 390.320174 342.492843 
L 391.842754 344.906291 
L 393.365333 346.864246 
L 394.634149 348.143387 
L 395.902966 349.099025 
L 396.918019 349.629162 
L 397.933072 349.950132 
L 398.948125 350.061477 
L 399.963178 349.963038 
L 400.978231 349.654955 
L 401.993284 349.137665 
L 403.2621 348.198005 
L 404.530916 346.934717 
L 405.799732 345.350608 
L 407.322312 343.0312 
L 408.844891 340.26234 
L 410.367471 337.052885 
L 412.143813 332.765441 
L 413.920156 327.911009 
L 415.950262 321.69605 
L 418.234131 313.896306 
L 420.518 305.295341 
L 423.055633 294.874501 
L 425.847029 282.468272 
L 429.145951 266.710332 
L 432.9524 247.348106 
L 437.773901 221.59066 
L 450.715827 151.785245 
L 454.522275 132.775134 
L 457.821198 117.413687 
L 460.612593 105.404087 
L 463.150226 95.388568 
L 465.434095 87.186118 
L 467.717964 79.81446 
L 469.74807 74.002743 
L 471.524413 69.516874 
L 473.300756 65.610889 
L 474.823335 62.737301 
L 476.345914 60.311301 
L 477.868494 58.3406 
L 479.13731 57.050718 
L 480.406126 56.084256 
L 481.421179 55.545415 
L 482.436232 55.215716 
L 483.451285 55.095629 
L 484.466338 55.185325 
L 485.481391 55.484677 
L 486.496444 55.993259 
L 487.76526 56.922089 
L 489.034077 58.174627 
L 490.302893 59.748091 
L 491.825472 62.054898 
L 493.348052 64.811383 
L 494.870631 68.008727 
L 496.646974 72.282431 
L 498.423317 77.123596 
L 500.453423 83.324047 
L 502.737292 91.108409 
L 505.021161 99.695082 
L 507.558794 110.101452 
L 510.350189 122.493625 
L 513.649112 138.237665 
L 517.45556 157.587759 
L 522.277062 183.3362 
L 535.218987 253.153887 
L 539.025436 272.177433 
L 542.324358 287.553827 
L 545.115754 299.578299 
L 547.653386 309.608974 
L 549.937256 317.826288 
L 552.221125 325.213861 
L 554.251231 331.040508 
L 556.027573 335.539974 
L 557.803916 339.459987 
L 559.326496 342.345898 
L 560.849075 344.784452 
L 562.371655 346.767903 
L 563.640471 348.06853 
L 564.909287 349.045818 
L 566.178103 349.6976 
L 567.193156 349.983664 
L 568.208209 350.060055 
L 569.223262 349.926664 
L 570.238315 349.583682 
L 571.253368 349.031593 
L 572.522184 348.048652 
L 573.791001 346.742415 
L 575.059817 345.115786 
L 576.582396 342.746049 
L 578.104976 339.927772 
L 579.627555 336.669972 
L 581.403898 332.327683 
L 583.180241 327.420312 
L 585.210347 321.147481 
L 586.732926 315.999022 
L 586.732926 315.999022 
" clip-path="url(#p930c27485f)" style="fill: none; stroke: #1f77b4; stroke-width: 2.5; stroke-linecap: square"/>
   </g>
   <g id="line2d_36">
    <path d="M 79.460199 202.578351 
L 82.251595 202.491677 
L 83.266648 202.273504 
L 84.281701 201.845338 
L 85.296754 201.167956 
L 86.311806 200.225083 
L 87.326859 199.014769 
L 88.595676 197.135323 
L 89.864492 194.867825 
L 91.387071 191.669367 
L 93.163414 187.337066 
L 95.19352 181.683136 
L 97.477389 174.554972 
L 100.015022 165.856267 
L 103.060181 154.604541 
L 107.374156 137.746309 
L 115.748343 104.887556 
L 119.047265 92.871949 
L 121.838661 83.460822 
L 124.376293 75.650301 
L 126.660162 69.320636 
L 128.690268 64.310656 
L 130.466611 60.439509 
L 132.242954 57.074721 
L 133.765533 54.611588 
L 135.288113 52.550928 
L 136.556929 51.149464 
L 137.825745 50.041223 
L 139.094561 49.231155 
L 140.363378 48.723405 
L 141.378431 48.537147 
L 142.393484 48.547864 
L 143.408537 48.756568 
L 144.42359 49.163937 
L 145.692406 49.953028 
L 146.961222 51.053034 
L 148.230038 52.463137 
L 149.498855 54.181737 
L 151.021434 56.647876 
L 152.544013 59.549238 
L 154.320356 63.474671 
L 156.096699 67.968866 
L 158.126805 73.780085 
L 160.156911 80.28335 
L 162.44078 88.385076 
L 164.978413 98.299244 
L 167.769808 110.218353 
L 170.814967 124.292999 
L 174.113889 140.607686 
L 178.174101 161.867933 
L 183.756893 192.406716 
L 193.399896 245.217938 
L 197.460108 266.147647 
L 200.75903 282.091734 
L 203.804189 295.743347 
L 206.595585 307.206209 
L 209.133217 316.647831 
L 211.417086 324.275858 
L 213.447192 330.3184 
L 215.477298 335.630663 
L 217.253641 339.656291 
L 218.776221 342.630479 
L 220.2988 345.15505 
L 221.821379 347.222077 
L 223.090196 348.590358 
L 224.359012 349.633381 
L 225.627828 350.348874 
L 226.642881 350.684383 
L 227.657934 350.808811 
L 228.672987 350.721998 
L 229.68804 350.424086 
L 230.703093 349.915515 
L 231.971909 348.984718 
L 233.240725 347.728041 
L 234.509542 346.148307 
L 236.032121 343.831222 
L 237.554701 341.061524 
L 239.07728 337.848118 
L 240.853623 333.552192 
L 242.629966 328.685203 
L 244.660072 322.451037 
L 246.943941 314.623705 
L 249.22781 305.989113 
L 251.765442 295.524214 
L 254.556838 283.061951 
L 257.85576 267.228532 
L 261.662209 247.768381 
L 266.483711 221.873524 
L 279.425636 151.661414 
L 283.232085 132.531621 
L 286.531007 117.069953 
L 289.322403 104.979278 
L 291.860035 94.893809 
L 294.143904 86.632022 
L 296.427774 79.204939 
L 298.45788 73.34759 
L 300.234222 68.824815 
L 302.010565 64.88491 
L 303.533144 61.98473 
L 305.055724 59.53452 
L 306.578303 57.542068 
L 307.84712 56.23599 
L 309.115936 55.255127 
L 310.130989 54.706081 
L 311.146042 54.367361 
L 312.161095 54.239451 
L 313.176148 54.322534 
L 314.191201 54.616492 
L 315.206254 55.12091 
L 316.47507 56.046269 
L 317.743886 57.297274 
L 319.012702 58.871145 
L 320.281519 60.764385 
L 321.804098 63.451868 
L 323.326678 66.584549 
L 325.10302 70.788574 
L 326.879363 75.566553 
L 328.909469 81.703096 
L 330.939575 88.527128 
L 333.223444 96.977456 
L 335.761077 107.255292 
L 338.552472 119.535307 
L 341.597631 133.944807 
L 345.150317 151.851622 
L 349.718055 176.125993 
L 365.70514 262.350518 
L 369.257825 279.699509 
L 372.302984 293.513679 
L 375.09438 305.160165 
L 377.632012 314.79491 
L 379.915881 322.616061 
L 381.945987 328.844029 
L 383.976093 334.353181 
L 385.752436 338.559341 
L 387.528779 342.172972 
L 389.051358 344.786874 
L 390.573938 346.94565 
L 391.842754 348.391966 
L 393.11157 349.514224 
L 394.380386 350.309935 
L 395.395439 350.710177 
L 396.410492 350.899714 
L 397.425545 350.878276 
L 398.440598 350.645892 
L 399.455651 350.202891 
L 400.470704 349.549905 
L 401.73952 348.43982 
L 403.008337 347.005571 
L 404.277153 345.250343 
L 405.799732 342.72592 
L 407.322312 339.75302 
L 409.098654 335.730582 
L 410.874997 331.128242 
L 412.905103 325.184169 
L 414.935209 318.542746 
L 417.219078 310.284781 
L 419.756711 300.202827 
L 422.548106 288.114583 
L 425.593265 273.883635 
L 429.145951 256.141773 
L 433.459926 233.376172 
L 440.565297 194.442771 
L 447.163141 158.738576 
L 451.223353 137.939078 
L 454.522275 122.099525 
L 457.567434 108.544237 
L 460.35883 97.169942 
L 462.896462 87.809241 
L 465.180332 80.254402 
L 467.210438 74.277146 
L 468.98678 69.645143 
L 470.763123 65.592504 
L 472.285703 62.593275 
L 473.808282 60.042111 
L 475.330861 57.947114 
L 476.599678 56.554598 
L 477.868494 55.486606 
L 479.13731 54.745506 
L 480.152363 54.38912 
L 481.167416 54.243522 
L 482.182469 54.308917 
L 483.197522 54.585216 
L 484.212575 55.072024 
L 485.227628 55.76865 
L 486.496444 56.932954 
L 487.76526 58.420942 
L 489.034077 60.229309 
L 490.556656 62.816542 
L 492.079236 65.851017 
L 493.855578 69.94347 
L 495.631921 74.613572 
L 497.662027 80.63195 
L 499.692133 87.343927 
L 501.976002 95.676285 
L 504.513635 105.834083 
L 507.30503 117.996701 
L 510.350189 132.297059 
L 513.902875 150.103293 
L 518.21685 172.921516 
L 525.829747 214.66752 
L 531.920065 247.530431 
L 535.980277 268.264987 
L 539.279199 284.034213 
L 542.324358 297.511583 
L 544.861991 307.823113 
L 547.399623 317.200183 
L 549.683492 324.770889 
L 551.713598 330.763054 
L 553.743704 336.025484 
L 555.520047 340.007963 
L 557.042626 342.94552 
L 558.565206 345.4338 
L 560.087785 347.464898 
L 561.356602 348.803535 
L 562.625418 349.817202 
L 563.894234 350.503649 
L 564.909287 350.816159 
L 565.92434 350.917812 
L 566.939393 350.808465 
L 567.954446 350.488271 
L 568.969499 349.957684 
L 570.238315 348.999766 
L 571.507131 347.716437 
L 572.775948 346.110551 
L 574.298527 343.762785 
L 575.821107 340.963224 
L 577.343686 337.720826 
L 579.120029 333.392253 
L 580.896371 328.493931 
L 582.926477 322.225706 
L 585.210347 314.362451 
L 586.732926 308.669631 
L 586.732926 308.669631 
" clip-path="url(#p930c27485f)" style="fill: none; stroke: #ff7f0e; stroke-width: 3; stroke-linecap: square"/>
   </g>
   <g id="line2d_37">
    <path d="M 79.460199 202.578351 
L 83.774174 202.468228 
L 85.296754 202.20097 
L 86.56557 201.779714 
L 87.834386 201.132496 
L 89.103202 200.228014 
L 90.372018 199.044879 
L 91.640835 197.570227 
L 93.163414 195.408158 
L 94.685994 192.819234 
L 96.208573 189.813797 
L 97.984916 185.804821 
L 100.015022 180.606668 
L 102.298891 174.053686 
L 104.836523 166.024106 
L 107.881682 155.566071 
L 111.688131 141.642673 
L 122.853714 100.280864 
L 125.898873 90.046781 
L 128.690268 81.431638 
L 130.974138 75.03667 
L 133.258007 69.309992 
L 135.288113 64.834448 
L 137.064456 61.427233 
L 138.840798 58.52085 
L 140.363378 56.44477 
L 141.885957 54.764486 
L 143.154773 53.674055 
L 144.42359 52.870729 
L 145.692406 52.358803 
L 146.707459 52.161453 
L 147.722512 52.154289 
L 148.737565 52.338419 
L 149.752618 52.71463 
L 151.021434 53.455682 
L 152.29025 54.497766 
L 153.559066 55.840311 
L 154.827883 57.481979 
L 156.350462 59.843817 
L 157.873042 62.628287 
L 159.649384 66.402145 
L 161.425727 70.729252 
L 163.455833 76.331734 
L 165.485939 82.608726 
L 167.769808 90.436878 
L 170.307441 100.026188 
L 172.845073 110.4772 
L 175.890232 124.032347 
L 179.189154 139.783265 
L 183.249366 160.361513 
L 188.578394 188.645833 
L 199.236451 245.464928 
L 203.296663 265.754755 
L 206.595585 281.183909 
L 209.640744 294.371374 
L 212.178376 304.462946 
L 214.716009 313.642846 
L 216.999878 321.057836 
L 219.029984 326.930325 
L 221.06009 332.091742 
L 222.836432 336.001748 
L 224.359012 338.889384 
L 225.881591 341.339282 
L 227.404171 343.343752 
L 228.672987 344.66931 
L 229.941803 345.678268 
L 231.21062 346.368435 
L 232.225673 346.690017 
L 233.240725 346.806172 
L 234.255778 346.716754 
L 235.270831 346.421911 
L 236.285884 345.922078 
L 237.554701 345.010159 
L 238.823517 343.781162 
L 240.092333 342.237851 
L 241.614913 339.975898 
L 243.137492 337.273633 
L 244.660072 334.139747 
L 246.436414 329.951533 
L 248.212757 325.207896 
L 250.242863 319.133171 
L 252.526732 311.507666 
L 254.810601 303.097278 
L 257.348234 292.905783 
L 260.139629 280.770977 
L 263.438552 265.355943 
L 267.245 246.412963 
L 272.066502 221.210559 
L 285.008428 152.898069 
L 288.814876 134.291951 
L 292.113798 119.25612 
L 294.905194 107.500545 
L 297.442827 97.696449 
L 299.726696 89.666727 
L 302.010565 82.449777 
L 304.040671 76.759508 
L 305.817014 72.366942 
L 307.593356 68.541776 
L 309.115936 65.727277 
L 310.638515 63.350783 
L 312.161095 61.419847 
L 313.429911 60.15557 
L 314.698727 59.207805 
L 315.967543 58.578654 
L 316.982596 58.305697 
L 317.997649 58.23795 
L 319.012702 58.37551 
L 320.027755 58.718179 
L 321.042808 59.265475 
L 322.311625 60.236134 
L 323.580441 61.523128 
L 324.849257 63.123595 
L 326.371837 65.452887 
L 327.894416 68.220971 
L 329.416995 71.418992 
L 331.193338 75.679681 
L 332.969681 80.49302 
L 334.999787 86.643696 
L 337.283656 94.34949 
L 339.567525 102.834247 
L 342.105158 113.100894 
L 344.896553 125.308623 
L 348.195476 140.795823 
L 352.001924 159.802102 
L 357.077189 186.404185 
L 369.257825 250.754279 
L 373.064274 269.452768 
L 376.363196 284.591131 
L 379.154592 296.448626 
L 381.692224 306.35653 
L 383.976093 314.488032 
L 386.259962 321.813941 
L 388.290068 327.606446 
L 390.066411 332.092126 
L 391.842754 336.013385 
L 393.365333 338.912302 
L 394.887913 341.374831 
L 396.410492 343.393146 
L 397.679308 344.731068 
L 398.948125 345.753062 
L 400.216941 346.456862 
L 401.231994 346.789728 
L 402.247047 346.917464 
L 403.2621 346.839888 
L 404.277153 346.557109 
L 405.292206 346.069529 
L 406.561022 345.173137 
L 407.829838 343.95984 
L 409.098654 342.432334 
L 410.621234 340.189399 
L 412.143813 337.506103 
L 413.666393 334.391035 
L 415.442736 330.224449 
L 417.219078 325.501944 
L 419.249184 319.450569 
L 421.533053 311.850069 
L 423.816923 303.46308 
L 426.354555 293.295388 
L 429.145951 281.183735 
L 432.444873 265.791472 
L 436.251322 246.867948 
L 441.072823 221.6788 
L 454.268512 152.057642 
L 458.074961 133.502837 
L 461.373883 118.524594 
L 464.165279 106.826564 
L 466.702911 97.081247 
L 468.98678 89.109258 
L 471.27065 81.954182 
L 473.300756 76.322008 
L 475.077098 71.982377 
L 476.853441 68.211851 
L 478.37602 65.445364 
L 479.8986 63.117802 
L 481.421179 61.236566 
L 482.689996 60.014176 
L 483.958812 59.108626 
L 484.973865 58.613684 
L 485.988918 58.323522 
L 487.003971 58.238552 
L 488.019024 58.358896 
L 489.034077 58.684381 
L 490.04913 59.214548 
L 491.317946 60.163911 
L 492.586762 61.429778 
L 493.855578 63.009336 
L 495.378158 65.313889 
L 496.900737 68.057693 
L 498.423317 71.231967 
L 500.19966 75.465726 
L 501.976002 80.253082 
L 504.006108 86.375365 
L 506.289977 94.051068 
L 508.573847 102.507902 
L 511.111479 112.746305 
L 513.902875 124.926637 
L 517.201797 140.3868 
L 521.008246 159.369566 
L 526.083511 185.953843 
L 538.264146 250.326551 
L 542.070595 269.050514 
L 545.369517 284.217474 
L 548.160913 296.103566 
L 550.698545 306.040704 
L 553.236178 315.059066 
L 555.520047 322.323114 
L 557.550153 328.057523 
L 559.326496 332.490255 
L 561.102838 336.356844 
L 562.625418 339.20771 
L 564.147997 341.621251 
L 565.670577 343.589795 
L 566.939393 344.885757 
L 568.208209 345.865449 
L 569.477025 346.526697 
L 570.492078 346.825407 
L 571.507131 346.918935 
L 572.522184 346.807149 
L 573.537237 346.490207 
L 574.55229 345.96856 
L 575.821107 345.029791 
L 577.089923 343.774436 
L 578.358739 342.205283 
L 579.881319 339.913045 
L 581.403898 337.181332 
L 582.926477 334.018885 
L 584.70282 329.798539 
L 586.479163 325.024129 
L 586.732926 324.299109 
L 586.732926 324.299109 
" clip-path="url(#p930c27485f)" style="fill: none; stroke-dasharray: 16,4,2.5,4; stroke-dashoffset: 0; stroke: #9467bd; stroke-width: 2.5"/>
   </g>
   <g id="line2d_38">
    <path d="M 79.460199 202.578351 
L 84.535464 202.474638 
L 86.56557 202.182032 
L 88.088149 201.761691 
L 89.610729 201.124326 
L 91.133308 200.238454 
L 92.655888 199.08032 
L 94.178467 197.633188 
L 95.701047 195.886591 
L 97.477389 193.464133 
L 99.253732 190.628154 
L 101.030075 187.387056 
L 103.060181 183.206537 
L 105.34405 177.93447 
L 107.881682 171.437673 
L 110.673078 163.622386 
L 113.972 153.669585 
L 118.285975 139.884238 
L 128.182742 107.995389 
L 131.481664 98.209588 
L 134.27306 90.567771 
L 136.810692 84.248014 
L 139.094561 79.149772 
L 141.124667 75.138168 
L 142.90101 72.06149 
L 144.677353 69.413926 
L 146.199932 67.50203 
L 147.722512 65.932483 
L 149.245091 64.715596 
L 150.513908 63.977385 
L 151.782724 63.494688 
L 153.05154 63.271217 
L 154.320356 63.309986 
L 155.589172 63.613313 
L 156.857989 64.182816 
L 158.126805 65.019414 
L 159.395621 66.123332 
L 160.664437 67.494099 
L 162.187017 69.489582 
L 163.709596 71.864329 
L 165.485939 75.107883 
L 167.262282 78.85142 
L 169.038624 83.082669 
L 171.06873 88.496645 
L 173.3526 95.293751 
L 175.636469 102.798023 
L 178.174101 111.907089 
L 180.965497 122.779295 
L 184.010656 135.534667 
L 187.563341 151.396615 
L 191.877317 171.714985 
L 199.236451 207.682486 
L 205.834295 239.499672 
L 209.894507 258.032524 
L 213.193429 272.151536 
L 216.238588 284.242351 
L 219.029984 294.397103 
L 221.567616 302.764278 
L 223.851485 309.527686 
L 225.881591 314.888906 
L 227.911697 319.606209 
L 229.68804 323.184765 
L 231.464383 326.234738 
L 232.986962 328.418379 
L 234.509542 330.197274 
L 235.778358 331.366477 
L 237.047174 332.248226 
L 238.31599 332.84064 
L 239.584807 333.142472 
L 240.59986 333.174289 
L 241.614913 333.01972 
L 242.629966 332.679011 
L 243.898782 331.992173 
L 245.167598 331.016891 
L 246.436414 329.755378 
L 247.70523 328.210485 
L 249.22781 325.987485 
L 250.750389 323.368636 
L 252.526732 319.824338 
L 254.303075 315.768319 
L 256.333181 310.529144 
L 258.363287 304.674777 
L 260.647156 297.394996 
L 263.184788 288.506947 
L 265.976184 277.850013 
L 269.021343 265.30411 
L 272.574029 249.663333 
L 276.888004 229.594596 
L 284.247138 194.045659 
L 290.591219 163.80848 
L 294.651431 145.479375 
L 297.950353 131.522937 
L 300.995512 119.581128 
L 303.786908 109.562694 
L 306.32454 101.319488 
L 308.608409 94.667711 
L 310.638515 89.405754 
L 312.668621 84.787656 
L 314.444964 81.295748 
L 315.967543 78.722676 
L 317.490123 76.546009 
L 319.012702 74.772682 
L 320.281519 73.607136 
L 321.550335 72.728217 
L 322.819151 72.137873 
L 324.087967 71.83741 
L 325.10302 71.806224 
L 326.118073 71.961043 
L 327.133126 72.30165 
L 328.401942 72.987906 
L 329.670759 73.962152 
L 330.939575 75.222224 
L 332.208391 76.765321 
L 333.730971 78.98576 
L 335.25355 81.601682 
L 337.029893 85.1422 
L 338.806236 89.194152 
L 340.836341 94.428461 
L 342.866447 100.277874 
L 345.150317 107.552147 
L 347.687949 116.434365 
L 350.479345 127.0855 
L 353.524504 139.626111 
L 357.077189 155.262465 
L 361.391164 175.328897 
L 368.496535 209.652011 
L 375.09438 241.134669 
L 379.154592 259.478003 
L 382.453514 273.448736 
L 385.498673 285.405795 
L 388.290068 295.439817 
L 390.827701 303.698419 
L 393.11157 310.364956 
L 395.141676 315.640674 
L 397.171782 320.273065 
L 398.948125 323.777855 
L 400.724467 326.754618 
L 402.247047 328.876005 
L 403.769626 330.593165 
L 405.038443 331.711361 
L 406.307259 332.542547 
L 407.576075 333.084884 
L 408.591128 333.309954 
L 409.606181 333.349061 
L 410.621234 333.202151 
L 411.636287 332.869434 
L 412.905103 332.192993 
L 414.173919 331.228491 
L 415.442736 329.978073 
L 416.711552 328.444517 
L 418.234131 326.235351 
L 419.756711 323.630477 
L 421.533053 320.102518 
L 423.309396 316.062721 
L 425.339502 310.841738 
L 427.369608 305.004983 
L 429.653477 297.744062 
L 432.19111 288.875466 
L 434.982505 278.237707 
L 438.027664 265.709607 
L 441.58035 250.084905 
L 445.894325 230.028097 
L 452.999696 195.709478 
L 459.59754 164.218194 
L 463.657752 145.863629 
L 466.956674 131.880649 
L 470.001833 119.909975 
L 472.793229 109.861671 
L 475.330861 101.588721 
L 477.614731 94.908269 
L 479.644837 89.619468 
L 481.674943 84.973403 
L 483.451285 81.456224 
L 485.227628 78.466735 
L 486.750208 76.334213 
L 488.272787 74.605747 
L 489.541603 73.478024 
L 490.810419 72.637238 
L 492.079236 72.085251 
L 493.094289 71.852437 
L 494.109342 71.805578 
L 495.124395 71.944739 
L 496.139448 72.269721 
L 497.408264 72.936528 
L 498.67708 73.891457 
L 499.945896 75.132384 
L 501.214712 76.656551 
L 502.737292 78.854615 
L 504.259871 81.4486 
L 506.036214 84.964172 
L 507.812557 88.991975 
L 509.842663 94.199796 
L 511.872769 100.024045 
L 514.156638 107.271768 
L 516.69427 116.126895 
L 519.485666 126.751425 
L 522.530825 139.267155 
L 526.083511 154.880345 
L 530.397486 174.927674 
L 537.502857 209.241976 
L 544.100701 240.742009 
L 548.160913 259.107864 
L 551.459835 273.103128 
L 554.504994 285.087451 
L 557.29639 295.150061 
L 559.834022 303.437378 
L 562.117891 310.131763 
L 564.147997 315.433659 
L 566.178103 320.093412 
L 567.954446 323.622989 
L 569.730789 326.625212 
L 571.253368 328.768876 
L 572.775948 330.508655 
L 574.044764 331.645909 
L 575.31358 332.496299 
L 576.582396 333.057943 
L 577.851213 333.329597 
L 578.866266 333.337702 
L 579.881319 333.159808 
L 580.896371 332.796165 
L 582.165188 332.081221 
L 583.434004 331.078464 
L 584.70282 329.790124 
L 586.2254 327.871222 
L 586.732926 327.143263 
L 586.732926 327.143263 
" clip-path="url(#p930c27485f)" style="fill: none; stroke-dasharray: 9.25,4; stroke-dashoffset: 0; stroke: #2ca02c; stroke-width: 2.5"/>
   </g>
   <g id="line2d_39">
    <path d="M 79.460199 202.578351 
L 87.580623 202.470382 
L 91.133308 202.173992 
L 94.178467 201.689073 
L 96.969863 201.015634 
L 99.761258 200.096659 
L 102.298891 199.033548 
L 104.836523 197.745942 
L 107.627919 196.067706 
L 110.419315 194.11862 
L 113.21071 191.908387 
L 116.255869 189.217629 
L 119.554792 186.004126 
L 123.36124 181.965433 
L 127.675215 177.054734 
L 134.019297 169.455866 
L 142.647247 159.149756 
L 146.961222 154.344201 
L 150.513908 150.701184 
L 153.559066 147.86749 
L 156.350462 145.54494 
L 159.141858 143.518269 
L 161.67949 141.956835 
L 163.96336 140.796822 
L 166.247229 139.881882 
L 168.531098 139.222461 
L 170.561204 138.857813 
L 172.59131 138.706649 
L 174.621416 138.772513 
L 176.651522 139.057699 
L 178.681628 139.563231 
L 180.711734 140.288859 
L 182.74184 141.233054 
L 185.025709 142.552997 
L 187.309578 144.140104 
L 189.593447 145.986517 
L 192.13108 148.330261 
L 194.668712 150.965943 
L 197.460108 154.179914 
L 200.505267 158.02944 
L 203.804189 162.557026 
L 207.610638 168.168045 
L 212.178376 175.315573 
L 219.283747 186.920224 
L 227.404171 200.084861 
L 231.971909 207.058773 
L 235.778358 212.464859 
L 239.07728 216.7712 
L 242.122439 220.381144 
L 244.913835 223.34622 
L 247.451467 225.731797 
L 249.9891 227.803196 
L 252.272969 229.385885 
L 254.556838 230.692029 
L 256.586944 231.614819 
L 258.61705 232.309286 
L 260.647156 232.772797 
L 262.677262 233.004002 
L 264.707368 233.002851 
L 266.737474 232.770587 
L 268.76758 232.309742 
L 270.797686 231.624125 
L 272.827792 230.718797 
L 275.111661 229.445557 
L 277.39553 227.912988 
L 279.933163 225.921341 
L 282.470795 223.644875 
L 285.262191 220.838415 
L 288.30735 217.453123 
L 291.606272 213.457318 
L 295.666484 208.163409 
L 300.741749 201.146847 
L 314.444964 181.971897 
L 318.505176 176.781992 
L 322.057861 172.608933 
L 325.10302 169.366599 
L 327.894416 166.705477 
L 330.432048 164.570847 
L 332.969681 162.728167 
L 335.25355 161.33395 
L 337.537419 160.201365 
L 339.567525 159.421569 
L 341.597631 158.860625 
L 343.627737 158.522279 
L 345.657843 158.409004 
L 347.687949 158.521977 
L 349.718055 158.86108 
L 351.748161 159.424896 
L 353.778267 160.210719 
L 356.062136 161.355136 
L 358.346005 162.767905 
L 360.629875 164.439527 
L 363.167507 166.586571 
L 365.70514 169.020887 
L 368.496535 172.005559 
L 371.541694 175.59277 
L 374.840616 179.81851 
L 378.647065 185.054216 
L 383.468567 192.085604 
L 400.470704 217.271568 
L 404.277153 222.313926 
L 407.576075 226.329969 
L 410.621234 229.691282 
L 413.41263 232.443735 
L 415.950262 234.647872 
L 418.487895 236.548328 
L 420.771764 237.985479 
L 423.055633 239.153334 
L 425.085739 239.958785 
L 427.115845 240.540709 
L 429.145951 240.896025 
L 431.176057 241.022935 
L 433.206163 240.920936 
L 435.236269 240.590824 
L 437.266375 240.034687 
L 439.296481 239.255893 
L 441.58035 238.119421 
L 443.864219 236.715507 
L 446.148088 235.05453 
L 448.685721 232.922434 
L 451.223353 230.507412 
L 454.014749 227.550202 
L 457.059908 224.00183 
L 460.612593 219.496976 
L 464.672805 213.964736 
L 470.001833 206.288307 
L 482.943759 187.460497 
L 487.003971 182.019676 
L 490.556656 177.619335 
L 493.601815 174.177152 
L 496.393211 171.329372 
L 499.184607 168.80769 
L 501.722239 166.821348 
L 504.006108 165.298271 
L 506.289977 164.037469 
L 508.573847 163.048162 
L 510.603953 162.402614 
L 512.634059 161.981113 
L 514.664164 161.78615 
L 516.69427 161.818926 
L 518.724376 162.079343 
L 520.754482 162.566009 
L 522.784588 163.276241 
L 524.814694 164.206083 
L 527.098564 165.508127 
L 529.382433 167.072234 
L 531.920065 169.103869 
L 534.457698 171.427331 
L 537.249093 174.295662 
L 540.294252 177.763031 
L 543.593174 181.867707 
L 547.399623 186.975562 
L 551.967362 193.492826 
L 559.834022 205.185488 
L 566.431867 214.831823 
L 570.745842 220.762995 
L 574.298527 225.295644 
L 577.597449 229.145829 
L 580.642608 232.341964 
L 583.434004 234.933996 
L 585.971636 236.985813 
L 586.732926 237.542198 
L 586.732926 237.542198 
" clip-path="url(#p930c27485f)" style="fill: none; stroke-dasharray: 2.5,4.125; stroke-dashoffset: 0; stroke: #d62728; stroke-width: 2.5"/>
   </g>
   <g id="patch_3">
    <path d="M 54.096563 366.037812 
L 54.096563 33.397812 
" style="fill: none; stroke: #000000; stroke-width: 0.8; stroke-linejoin: miter; stroke-linecap: square"/>
   </g>
   <g id="patch_4">
    <path d="M 612.096563 366.037812 
L 612.096563 33.397812 
" style="fill: none; stroke: #000000; stroke-width: 0.8; stroke-linejoin: miter; stroke-linecap: square"/>
   </g>
   <g id="patch_5">
    <path d="M 54.096562 366.037812 
L 612.096563 366.037812 
" style="fill: none; stroke: #000000; stroke-width: 0.8; stroke-linejoin: miter; stroke-linecap: square"/>
   </g>
   <g id="patch_6">
    <path d="M 54.096562 33.397812 
L 612.096563 33.397812 
" style="fill: none; stroke: #000000; stroke-width: 0.8; stroke-linejoin: miter; stroke-linecap: square"/>
   </g>
   <g id="text_20">
    <!-- Respuesta Transitoria a 200 kHz (Senoidal, 100uV pico, 3 Ciclos) - 5 Vías -->
    <g transform="translate(79.040312 18.397812) scale(0.14 -0.14)">
     <defs>
      <path id="DejaVuSans-52" d="M 2841 2188 
Q 3044 2119 3236 1894 
Q 3428 1669 3622 1275 
L 4263 0 
L 3584 0 
L 2988 1197 
Q 2756 1666 2539 1819 
Q 2322 1972 1947 1972 
L 1259 1972 
L 1259 0 
L 628 0 
L 628 4666 
L 2053 4666 
Q 2853 4666 3247 4331 
Q 3641 3997 3641 3322 
Q 3641 2881 3436 2590 
Q 3231 2300 2841 2188 
z
M 1259 4147 
L 1259 2491 
L 2053 2491 
Q 2509 2491 2742 2702 
Q 2975 2913 2975 3322 
Q 2975 3731 2742 3939 
Q 2509 4147 2053 4147 
L 1259 4147 
z
" transform="scale(0.015625)"/>
      <path id="DejaVuSans-75" d="M 544 1381 
L 544 3500 
L 1119 3500 
L 1119 1403 
Q 1119 906 1312 657 
Q 1506 409 1894 409 
Q 2359 409 2629 706 
Q 2900 1003 2900 1516 
L 2900 3500 
L 3475 3500 
L 3475 0 
L 2900 0 
L 2900 538 
Q 2691 219 2414 64 
Q 2138 -91 1772 -91 
Q 1169 -91 856 284 
Q 544 659 544 1381 
z
M 1991 3584 
L 1991 3584 
z
" transform="scale(0.015625)"/>
      <path id="DejaVuSans-74" d="M 1172 4494 
L 1172 3500 
L 2356 3500 
L 2356 3053 
L 1172 3053 
L 1172 1153 
Q 1172 725 1289 603 
Q 1406 481 1766 481 
L 2356 481 
L 2356 0 
L 1766 0 
Q 1100 0 847 248 
Q 594 497 594 1153 
L 594 3053 
L 172 3053 
L 172 3500 
L 594 3500 
L 594 4494 
L 1172 4494 
z
" transform="scale(0.015625)"/>
      <path id="DejaVuSans-72" d="M 2631 2963 
Q 2534 3019 2420 3045 
Q 2306 3072 2169 3072 
Q 1681 3072 1420 2755 
Q 1159 2438 1159 1844 
L 1159 0 
L 581 0 
L 581 3500 
L 1159 3500 
L 1159 2956 
Q 1341 3275 1631 3429 
Q 1922 3584 2338 3584 
Q 2397 3584 2469 3576 
Q 2541 3569 2628 3553 
L 2631 2963 
z
" transform="scale(0.015625)"/>
      <path id="DejaVuSans-6b" d="M 581 4863 
L 1159 4863 
L 1159 1991 
L 2875 3500 
L 3609 3500 
L 1753 1863 
L 3688 0 
L 2938 0 
L 1159 1709 
L 1159 0 
L 581 0 
L 581 4863 
z
" transform="scale(0.015625)"/>
      <path id="DejaVuSans-48" d="M 628 4666 
L 1259 4666 
L 1259 2753 
L 3553 2753 
L 3553 4666 
L 4184 4666 
L 4184 0 
L 3553 0 
L 3553 2222 
L 1259 2222 
L 1259 0 
L 628 0 
L 628 4666 
z
" transform="scale(0.015625)"/>
      <path id="DejaVuSans-7a" d="M 353 3500 
L 3084 3500 
L 3084 2975 
L 922 459 
L 3084 459 
L 3084 0 
L 275 0 
L 275 525 
L 2438 3041 
L 353 3041 
L 353 3500 
z
" transform="scale(0.015625)"/>
      <path id="DejaVuSans-2c" d="M 750 794 
L 1409 794 
L 1409 256 
L 897 -744 
L 494 -744 
L 750 256 
L 750 794 
z
" transform="scale(0.015625)"/>
      <path id="DejaVuSans-63" d="M 3122 3366 
L 3122 2828 
Q 2878 2963 2633 3030 
Q 2388 3097 2138 3097 
Q 1578 3097 1268 2742 
Q 959 2388 959 1747 
Q 959 1106 1268 751 
Q 1578 397 2138 397 
Q 2388 397 2633 464 
Q 2878 531 3122 666 
L 3122 134 
Q 2881 22 2623 -34 
Q 2366 -91 2075 -91 
Q 1284 -91 818 406 
Q 353 903 353 1747 
Q 353 2603 823 3093 
Q 1294 3584 2113 3584 
Q 2378 3584 2631 3529 
Q 2884 3475 3122 3366 
z
" transform="scale(0.015625)"/>
      <path id="DejaVuSans-33" d="M 2597 2516 
Q 3050 2419 3304 2112 
Q 3559 1806 3559 1356 
Q 3559 666 3084 287 
Q 2609 -91 1734 -91 
Q 1441 -91 1130 -33 
Q 819 25 488 141 
L 488 750 
Q 750 597 1062 519 
Q 1375 441 1716 441 
Q 2309 441 2620 675 
Q 2931 909 2931 1356 
Q 2931 1769 2642 2001 
Q 2353 2234 1838 2234 
L 1294 2234 
L 1294 2753 
L 1863 2753 
Q 2328 2753 2575 2939 
Q 2822 3125 2822 3475 
Q 2822 3834 2567 4026 
Q 2313 4219 1838 4219 
Q 1578 4219 1281 4162 
Q 984 4106 628 3988 
L 628 4550 
Q 988 4650 1302 4700 
Q 1616 4750 1894 4750 
Q 2613 4750 3031 4423 
Q 3450 4097 3450 3541 
Q 3450 3153 3228 2886 
Q 3006 2619 2597 2516 
z
" transform="scale(0.015625)"/>
      <path id="DejaVuSans-43" d="M 4122 4306 
L 4122 3641 
Q 3803 3938 3442 4084 
Q 3081 4231 2675 4231 
Q 1875 4231 1450 3742 
Q 1025 3253 1025 2328 
Q 1025 1406 1450 917 
Q 1875 428 2675 428 
Q 3081 428 3442 575 
Q 3803 722 4122 1019 
L 4122 359 
Q 3791 134 3420 21 
Q 3050 -91 2638 -91 
Q 1578 -91 968 557 
Q 359 1206 359 2328 
Q 359 3453 968 4101 
Q 1578 4750 2638 4750 
Q 3056 4750 3426 4639 
Q 3797 4528 4122 4306 
z
" transform="scale(0.015625)"/>
      <path id="DejaVuSans-2d" d="M 313 2009 
L 1997 2009 
L 1997 1497 
L 313 1497 
L 313 2009 
z
" transform="scale(0.015625)"/>
      <path id="DejaVuSans-ed" d="M 1322 5119 
L 1944 5119 
L 926 3944 
L 447 3944 
L 1322 5119 
z
M 603 3500 
L 1178 3500 
L 1178 0 
L 603 0 
L 603 3500 
z
M 891 3584 
L 891 3584 
z
" transform="scale(0.015625)"/>
     </defs>
     <use xlink:href="#DejaVuSans-52"/>
     <use xlink:href="#DejaVuSans-65" transform="translate(64.982422 0)"/>
     <use xlink:href="#DejaVuSans-73" transform="translate(126.505859 0)"/>
     <use xlink:href="#DejaVuSans-70" transform="translate(178.605469 0)"/>
     <use xlink:href="#DejaVuSans-75" transform="translate(242.082031 0)"/>
     <use xlink:href="#DejaVuSans-65" transform="translate(305.460938 0)"/>
     <use xlink:href="#DejaVuSans-73" transform="translate(366.984375 0)"/>
     <use xlink:href="#DejaVuSans-74" transform="translate(419.083984 0)"/>
     <use xlink:href="#DejaVuSans-61" transform="translate(458.292969 0)"/>
     <use xlink:href="#DejaVuSans-20" transform="translate(519.572266 0)"/>
     <use xlink:href="#DejaVuSans-54" transform="translate(551.359375 0)"/>
     <use xlink:href="#DejaVuSans-72" transform="translate(597.693359 0)"/>
     <use xlink:href="#DejaVuSans-61" transform="translate(638.806641 0)"/>
     <use xlink:href="#DejaVuSans-6e" transform="translate(700.085938 0)"/>
     <use xlink:href="#DejaVuSans-73" transform="translate(763.464844 0)"/>
     <use xlink:href="#DejaVuSans-69" transform="translate(815.564453 0)"/>
     <use xlink:href="#DejaVuSans-74" transform="translate(843.347656 0)"/>
     <use xlink:href="#DejaVuSans-6f" transform="translate(882.556641 0)"/>
     <use xlink:href="#DejaVuSans-72" transform="translate(943.738281 0)"/>
     <use xlink:href="#DejaVuSans-69" transform="translate(984.851562 0)"/>
     <use xlink:href="#DejaVuSans-61" transform="translate(1012.634766 0)"/>
     <use xlink:href="#DejaVuSans-20" transform="translate(1073.914062 0)"/>
     <use xlink:href="#DejaVuSans-61" transform="translate(1105.701172 0)"/>
     <use xlink:href="#DejaVuSans-20" transform="translate(1166.980469 0)"/>
     <use xlink:href="#DejaVuSans-32" transform="translate(1198.767578 0)"/>
     <use xlink:href="#DejaVuSans-30" transform="translate(1262.390625 0)"/>
     <use xlink:href="#DejaVuSans-30" transform="translate(1326.013672 0)"/>
     <use xlink:href="#DejaVuSans-20" transform="translate(1389.636719 0)"/>
     <use xlink:href="#DejaVuSans-6b" transform="translate(1421.423828 0)"/>
     <use xlink:href="#DejaVuSans-48" transform="translate(1479.333984 0)"/>
     <use xlink:href="#DejaVuSans-7a" transform="translate(1554.529297 0)"/>
     <use xlink:href="#DejaVuSans-20" transform="translate(1607.019531 0)"/>
     <use xlink:href="#DejaVuSans-28" transform="translate(1638.806641 0)"/>
     <use xlink:href="#DejaVuSans-53" transform="translate(1677.820312 0)"/>
     <use xlink:href="#DejaVuSans-65" transform="translate(1741.296875 0)"/>
     <use xlink:href="#DejaVuSans-6e" transform="translate(1802.820312 0)"/>
     <use xlink:href="#DejaVuSans-6f" transform="translate(1866.199219 0)"/>
     <use xlink:href="#DejaVuSans-69" transform="translate(1927.380859 0)"/>
     <use xlink:href="#DejaVuSans-64" transform="translate(1955.164062 0)"/>
     <use xlink:href="#DejaVuSans-61" transform="translate(2018.640625 0)"/>
     <use xlink:href="#DejaVuSans-6c" transform="translate(2079.919922 0)"/>
     <use xlink:href="#DejaVuSans-2c" transform="translate(2107.703125 0)"/>
     <use xlink:href="#DejaVuSans-20" transform="translate(2139.490234 0)"/>
     <use xlink:href="#DejaVuSans-31" transform="translate(2171.277344 0)"/>
     <use xlink:href="#DejaVuSans-30" transform="translate(2234.900391 0)"/>
     <use xlink:href="#DejaVuSans-30" transform="translate(2298.523438 0)"/>
     <use xlink:href="#DejaVuSans-75" transform="translate(2362.146484 0)"/>
     <use xlink:href="#DejaVuSans-56" transform="translate(2425.525391 0)"/>
     <use xlink:href="#DejaVuSans-20" transform="translate(2493.933594 0)"/>
     <use xlink:href="#DejaVuSans-70" transform="translate(2525.720703 0)"/>
     <use xlink:href="#DejaVuSans-69" transform="translate(2589.197266 0)"/>
     <use xlink:href="#DejaVuSans-63" transform="translate(2616.980469 0)"/>
     <use xlink:href="#DejaVuSans-6f" transform="translate(2671.960938 0)"/>
     <use xlink:href="#DejaVuSans-2c" transform="translate(2733.142578 0)"/>
     <use xlink:href="#DejaVuSans-20" transform="translate(2764.929688 0)"/>
     <use xlink:href="#DejaVuSans-33" transform="translate(2796.716797 0)"/>
     <use xlink:href="#DejaVuSans-20" transform="translate(2860.339844 0)"/>
     <use xlink:href="#DejaVuSans-43" transform="translate(2892.126953 0)"/>
     <use xlink:href="#DejaVuSans-69" transform="translate(2961.951172 0)"/>
     <use xlink:href="#DejaVuSans-63" transform="translate(2989.734375 0)"/>
     <use xlink:href="#DejaVuSans-6c" transform="translate(3044.714844 0)"/>
     <use xlink:href="#DejaVuSans-6f" transform="translate(3072.498047 0)"/>
     <use xlink:href="#DejaVuSans-73" transform="translate(3133.679688 0)"/>
     <use xlink:href="#DejaVuSans-29" transform="translate(3185.779297 0)"/>
     <use xlink:href="#DejaVuSans-20" transform="translate(3224.792969 0)"/>
     <use xlink:href="#DejaVuSans-2d" transform="translate(3256.580078 0)"/>
     <use xlink:href="#DejaVuSans-20" transform="translate(3292.664062 0)"/>
     <use xlink:href="#DejaVuSans-35" transform="translate(3324.451172 0)"/>
     <use xlink:href="#DejaVuSans-20" transform="translate(3388.074219 0)"/>
     <use xlink:href="#DejaVuSans-56" transform="translate(3419.861328 0)"/>
     <use xlink:href="#DejaVuSans-ed" transform="translate(3488.269531 0)"/>
     <use xlink:href="#DejaVuSans-61" transform="translate(3516.052734 0)"/>
     <use xlink:href="#DejaVuSans-73" transform="translate(3577.332031 0)"/>
    </g>
   </g>
   <g id="legend_1">
    <g id="patch_7">
     <path d="M 461.308906 122.9275 
L 604.396562 122.9275 
Q 606.596563 122.9275 606.596563 120.7275 
L 606.596563 41.097812 
Q 606.596563 38.897812 604.396562 38.897812 
L 461.308906 38.897812 
Q 459.108906 38.897812 459.108906 41.097812 
L 459.108906 120.7275 
Q 459.108906 122.9275 461.308906 122.9275 
z
" style="fill: #ffffff; opacity: 0.8; stroke: #cccccc; stroke-linejoin: miter"/>
    </g>
    <g id="line2d_40">
     <path d="M 463.508906 47.806094 
L 474.508906 47.806094 
L 485.508906 47.806094 
" style="fill: none; stroke: #1f77b4; stroke-width: 2.5; stroke-linecap: square"/>
    </g>
    <g id="text_21">
     <!-- Ideal Op-Amp -->
     <g transform="translate(494.308906 51.656094) scale(0.11 -0.11)">
      <defs>
       <path id="DejaVuSans-49" d="M 628 4666 
L 1259 4666 
L 1259 0 
L 628 0 
L 628 4666 
z
" transform="scale(0.015625)"/>
       <path id="DejaVuSans-4f" d="M 2522 4238 
Q 1834 4238 1429 3725 
Q 1025 3213 1025 2328 
Q 1025 1447 1429 934 
Q 1834 422 2522 422 
Q 3209 422 3611 934 
Q 4013 1447 4013 2328 
Q 4013 3213 3611 3725 
Q 3209 4238 2522 4238 
z
M 2522 4750 
Q 3503 4750 4090 4092 
Q 4678 3434 4678 2328 
Q 4678 1225 4090 567 
Q 3503 -91 2522 -91 
Q 1538 -91 948 565 
Q 359 1222 359 2328 
Q 359 3434 948 4092 
Q 1538 4750 2522 4750 
z
" transform="scale(0.015625)"/>
       <path id="DejaVuSans-41" d="M 2188 4044 
L 1331 1722 
L 3047 1722 
L 2188 4044 
z
M 1831 4666 
L 2547 4666 
L 4325 0 
L 3669 0 
L 3244 1197 
L 1141 1197 
L 716 0 
L 50 0 
L 1831 4666 
z
" transform="scale(0.015625)"/>
      </defs>
      <use xlink:href="#DejaVuSans-49"/>
      <use xlink:href="#DejaVuSans-64" transform="translate(29.492188 0)"/>
      <use xlink:href="#DejaVuSans-65" transform="translate(92.96875 0)"/>
      <use xlink:href="#DejaVuSans-61" transform="translate(154.492188 0)"/>
      <use xlink:href="#DejaVuSans-6c" transform="translate(215.771484 0)"/>
      <use xlink:href="#DejaVuSans-20" transform="translate(243.554688 0)"/>
      <use xlink:href="#DejaVuSans-4f" transform="translate(275.341797 0)"/>
      <use xlink:href="#DejaVuSans-70" transform="translate(354.052734 0)"/>
      <use xlink:href="#DejaVuSans-2d" transform="translate(417.529297 0)"/>
      <use xlink:href="#DejaVuSans-41" transform="translate(451.363281 0)"/>
      <use xlink:href="#DejaVuSans-6d" transform="translate(519.771484 0)"/>
      <use xlink:href="#DejaVuSans-70" transform="translate(617.183594 0)"/>
     </g>
    </g>
    <g id="line2d_41">
     <path d="M 463.508906 63.952031 
L 474.508906 63.952031 
L 485.508906 63.952031 
" style="fill: none; stroke: #ff7f0e; stroke-width: 3; stroke-linecap: square"/>
    </g>
    <g id="text_22">
     <!-- ADA4817-1 FastFET -->
     <g transform="translate(494.308906 67.802031) scale(0.11 -0.11)">
      <defs>
       <path id="DejaVuSans-44" d="M 1259 4147 
L 1259 519 
L 2022 519 
Q 2988 519 3436 956 
Q 3884 1394 3884 2338 
Q 3884 3275 3436 3711 
Q 2988 4147 2022 4147 
L 1259 4147 
z
M 628 4666 
L 1925 4666 
Q 3281 4666 3915 4102 
Q 4550 3538 4550 2338 
Q 4550 1131 3912 565 
Q 3275 0 1925 0 
L 628 0 
L 628 4666 
z
" transform="scale(0.015625)"/>
       <path id="DejaVuSans-37" d="M 525 4666 
L 3525 4666 
L 3525 4397 
L 1831 0 
L 1172 0 
L 2766 4134 
L 525 4134 
L 525 4666 
z
" transform="scale(0.015625)"/>
       <path id="DejaVuSans-46" d="M 628 4666 
L 3309 4666 
L 3309 4134 
L 1259 4134 
L 1259 2759 
L 3109 2759 
L 3109 2228 
L 1259 2228 
L 1259 0 
L 628 0 
L 628 4666 
z
" transform="scale(0.015625)"/>
       <path id="DejaVuSans-45" d="M 628 4666 
L 3578 4666 
L 3578 4134 
L 1259 4134 
L 1259 2753 
L 3481 2753 
L 3481 2222 
L 1259 2222 
L 1259 531 
L 3634 531 
L 3634 0 
L 628 0 
L 628 4666 
z
" transform="scale(0.015625)"/>
      </defs>
      <use xlink:href="#DejaVuSans-41"/>
      <use xlink:href="#DejaVuSans-44" transform="translate(68.408203 0)"/>
      <use xlink:href="#DejaVuSans-41" transform="translate(143.660156 0)"/>
      <use xlink:href="#DejaVuSans-34" transform="translate(212.068359 0)"/>
      <use xlink:href="#DejaVuSans-38" transform="translate(275.691406 0)"/>
      <use xlink:href="#DejaVuSans-31" transform="translate(339.314453 0)"/>
      <use xlink:href="#DejaVuSans-37" transform="translate(402.9375 0)"/>
      <use xlink:href="#DejaVuSans-2d" transform="translate(466.560547 0)"/>
      <use xlink:href="#DejaVuSans-31" transform="translate(502.644531 0)"/>
      <use xlink:href="#DejaVuSans-20" transform="translate(566.267578 0)"/>
      <use xlink:href="#DejaVuSans-46" transform="translate(598.054688 0)"/>
      <use xlink:href="#DejaVuSans-61" transform="translate(646.449219 0)"/>
      <use xlink:href="#DejaVuSans-73" transform="translate(707.728516 0)"/>
      <use xlink:href="#DejaVuSans-74" transform="translate(759.828125 0)"/>
      <use xlink:href="#DejaVuSans-46" transform="translate(799.037109 0)"/>
      <use xlink:href="#DejaVuSans-45" transform="translate(856.556641 0)"/>
      <use xlink:href="#DejaVuSans-54" transform="translate(919.740234 0)"/>
     </g>
    </g>
    <g id="line2d_42">
     <path d="M 463.508906 80.097969 
L 474.508906 80.097969 
L 485.508906 80.097969 
" style="fill: none; stroke-dasharray: 16,4,2.5,4; stroke-dashoffset: 0; stroke: #9467bd; stroke-width: 2.5"/>
    </g>
    <g id="text_23">
     <!-- OPA828 JFET -->
     <g transform="translate(494.308906 83.947969) scale(0.11 -0.11)">
      <defs>
       <path id="DejaVuSans-50" d="M 1259 4147 
L 1259 2394 
L 2053 2394 
Q 2494 2394 2734 2622 
Q 2975 2850 2975 3272 
Q 2975 3691 2734 3919 
Q 2494 4147 2053 4147 
L 1259 4147 
z
M 628 4666 
L 2053 4666 
Q 2838 4666 3239 4311 
Q 3641 3956 3641 3272 
Q 3641 2581 3239 2228 
Q 2838 1875 2053 1875 
L 1259 1875 
L 1259 0 
L 628 0 
L 628 4666 
z
" transform="scale(0.015625)"/>
       <path id="DejaVuSans-4a" d="M 628 4666 
L 1259 4666 
L 1259 325 
Q 1259 -519 939 -900 
Q 619 -1281 -91 -1281 
L -331 -1281 
L -331 -750 
L -134 -750 
Q 284 -750 456 -515 
Q 628 -281 628 325 
L 628 4666 
z
" transform="scale(0.015625)"/>
      </defs>
      <use xlink:href="#DejaVuSans-4f"/>
      <use xlink:href="#DejaVuSans-50" transform="translate(78.710938 0)"/>
      <use xlink:href="#DejaVuSans-41" transform="translate(132.638672 0)"/>
      <use xlink:href="#DejaVuSans-38" transform="translate(201.046875 0)"/>
      <use xlink:href="#DejaVuSans-32" transform="translate(264.669922 0)"/>
      <use xlink:href="#DejaVuSans-38" transform="translate(328.292969 0)"/>
      <use xlink:href="#DejaVuSans-20" transform="translate(391.916016 0)"/>
      <use xlink:href="#DejaVuSans-4a" transform="translate(423.703125 0)"/>
      <use xlink:href="#DejaVuSans-46" transform="translate(453.195312 0)"/>
      <use xlink:href="#DejaVuSans-45" transform="translate(510.714844 0)"/>
      <use xlink:href="#DejaVuSans-54" transform="translate(573.898438 0)"/>
     </g>
    </g>
    <g id="line2d_43">
     <path d="M 463.508906 96.243906 
L 474.508906 96.243906 
L 485.508906 96.243906 
" style="fill: none; stroke-dasharray: 9.25,4; stroke-dashoffset: 0; stroke: #2ca02c; stroke-width: 2.5"/>
    </g>
    <g id="text_24">
     <!-- LF357 JFET -->
     <g transform="translate(494.308906 100.093906) scale(0.11 -0.11)">
      <defs>
       <path id="DejaVuSans-4c" d="M 628 4666 
L 1259 4666 
L 1259 531 
L 3531 531 
L 3531 0 
L 628 0 
L 628 4666 
z
" transform="scale(0.015625)"/>
      </defs>
      <use xlink:href="#DejaVuSans-4c"/>
      <use xlink:href="#DejaVuSans-46" transform="translate(55.712891 0)"/>
      <use xlink:href="#DejaVuSans-33" transform="translate(113.232422 0)"/>
      <use xlink:href="#DejaVuSans-35" transform="translate(176.855469 0)"/>
      <use xlink:href="#DejaVuSans-37" transform="translate(240.478516 0)"/>
      <use xlink:href="#DejaVuSans-20" transform="translate(304.101562 0)"/>
      <use xlink:href="#DejaVuSans-4a" transform="translate(335.888672 0)"/>
      <use xlink:href="#DejaVuSans-46" transform="translate(365.380859 0)"/>
      <use xlink:href="#DejaVuSans-45" transform="translate(422.900391 0)"/>
      <use xlink:href="#DejaVuSans-54" transform="translate(486.083984 0)"/>
     </g>
    </g>
    <g id="line2d_44">
     <path d="M 463.508906 112.389844 
L 474.508906 112.389844 
L 485.508906 112.389844 
" style="fill: none; stroke-dasharray: 2.5,4.125; stroke-dashoffset: 0; stroke: #d62728; stroke-width: 2.5"/>
    </g>
    <g id="text_25">
     <!-- TL071 JFET -->
     <g transform="translate(494.308906 116.239844) scale(0.11 -0.11)">
      <use xlink:href="#DejaVuSans-54"/>
      <use xlink:href="#DejaVuSans-4c" transform="translate(61.083984 0)"/>
      <use xlink:href="#DejaVuSans-30" transform="translate(116.796875 0)"/>
      <use xlink:href="#DejaVuSans-37" transform="translate(180.419922 0)"/>
      <use xlink:href="#DejaVuSans-31" transform="translate(244.042969 0)"/>
      <use xlink:href="#DejaVuSans-20" transform="translate(307.666016 0)"/>
      <use xlink:href="#DejaVuSans-4a" transform="translate(339.453125 0)"/>
      <use xlink:href="#DejaVuSans-46" transform="translate(368.945312 0)"/>
      <use xlink:href="#DejaVuSans-45" transform="translate(426.464844 0)"/>
      <use xlink:href="#DejaVuSans-54" transform="translate(489.648438 0)"/>
     </g>
    </g>
   </g>
  </g>
 </g>
 <defs>
  <clipPath id="p930c27485f">
   <rect x="54.096563" y="33.397812" width="558" height="332.64"/>
  </clipPath>
 </defs>
</svg>
