<?xml version="1.0" encoding="utf-8" standalone="no"?>
<!DOCTYPE svg PUBLIC "-//W3C//DTD SVG 1.1//EN"
  "http://www.w3.org/Graphics/SVG/1.1/DTD/svg11.dtd">
<svg xmlns:xlink="http://www.w3.org/1999/xlink" width="619.296562pt" height="405.529687pt" viewBox="0 0 619.296562 405.529687" xmlns="http://www.w3.org/2000/svg" version="1.1">
 <metadata>
  <rdf:RDF xmlns:dc="http://purl.org/dc/elements/1.1/" xmlns:cc="http://creativecommons.org/ns#" xmlns:rdf="http://www.w3.org/1999/02/22-rdf-syntax-ns#">
   <cc:Work>
    <dc:type rdf:resource="http://purl.org/dc/dcmitype/StillImage"/>
    <dc:date>2026-05-24T18:38:25.603377</dc:date>
    <dc:format>image/svg+xml</dc:format>
    <dc:creator>
     <cc:Agent>
      <dc:title>Matplotlib v3.10.9, https://matplotlib.org/</dc:title>
     </cc:Agent>
    </dc:creator>
   </cc:Work>
  </rdf:RDF>
 </metadata>
 <defs>
  <style type="text/css">*{stroke-linejoin: round; stroke-linecap: butt}</style>
 </defs>
 <g id="figure_1">
  <g id="patch_1">
   <path d="M 0 405.529687 
L 619.296562 405.529687 
L 619.296562 0 
L 0 0 
z
" style="fill: #ffffff"/>
  </g>
  <g id="axes_1">
   <g id="patch_2">
    <path d="M 54.096563 366.037812 
L 612.096563 366.037812 
L 612.096563 33.397812 
L 54.096563 33.397812 
z
" style="fill: #ffffff"/>
   </g>
   <g id="matplotlib.axis_1">
    <g id="xtick_1">
     <g id="line2d_1">
      <path d="M 79.460199 366.037812 
L 79.460199 33.397812 
" clip-path="url(#pa4f64cf30f)" style="fill: none; stroke: #e0e0e0; stroke-width: 0.8; stroke-linecap: square"/>
     </g>
     <g id="line2d_2">
      <defs>
       <path id="m2fc04f2782" d="M 0 0 
L 0 3.5 
" style="stroke: #000000; stroke-width: 0.8"/>
      </defs>
      <g>
       <use xlink:href="#m2fc04f2782" x="79.460199" y="366.037812" style="stroke: #000000; stroke-width: 0.8"/>
      </g>
     </g>
     <g id="text_1">
      <!-- 0 -->
      <g transform="translate(76.278949 380.63625) scale(0.1 -0.1)">
       <defs>
        <path id="DejaVuSans-30" d="M 2034 4250 
Q 1547 4250 1301 3770 
Q 1056 3291 1056 2328 
Q 1056 1369 1301 889 
Q 1547 409 2034 409 
Q 2525 409 2770 889 
Q 3016 1369 3016 2328 
Q 3016 3291 2770 3770 
Q 2525 4250 2034 4250 
z
M 2034 4750 
Q 2819 4750 3233 4129 
Q 3647 3509 3647 2328 
Q 3647 1150 3233 529 
Q 2819 -91 2034 -91 
Q 1250 -91 836 529 
Q 422 1150 422 2328 
Q 422 3509 836 4129 
Q 1250 4750 2034 4750 
z
" transform="scale(0.015625)"/>
       </defs>
       <use xlink:href="#DejaVuSans-30"/>
      </g>
     </g>
    </g>
    <g id="xtick_2">
     <g id="line2d_3">
      <path d="M 180.914744 366.037812 
L 180.914744 33.397812 
" clip-path="url(#pa4f64cf30f)" style="fill: none; stroke: #e0e0e0; stroke-width: 0.8; stroke-linecap: square"/>
     </g>
     <g id="line2d_4">
      <g>
       <use xlink:href="#m2fc04f2782" x="180.914744" y="366.037812" style="stroke: #000000; stroke-width: 0.8"/>
      </g>
     </g>
     <g id="text_2">
      <!-- 2 -->
      <g transform="translate(177.733494 380.63625) scale(0.1 -0.1)">
       <defs>
        <path id="DejaVuSans-32" d="M 1228 531 
L 3431 531 
L 3431 0 
L 469 0 
L 469 531 
Q 828 903 1448 1529 
Q 2069 2156 2228 2338 
Q 2531 2678 2651 2914 
Q 2772 3150 2772 3378 
Q 2772 3750 2511 3984 
Q 2250 4219 1831 4219 
Q 1534 4219 1204 4116 
Q 875 4013 500 3803 
L 500 4441 
Q 881 4594 1212 4672 
Q 1544 4750 1819 4750 
Q 2544 4750 2975 4387 
Q 3406 4025 3406 3419 
Q 3406 3131 3298 2873 
Q 3191 2616 2906 2266 
Q 2828 2175 2409 1742 
Q 1991 1309 1228 531 
z
" transform="scale(0.015625)"/>
       </defs>
       <use xlink:href="#DejaVuSans-32"/>
      </g>
     </g>
    </g>
    <g id="xtick_3">
     <g id="line2d_5">
      <path d="M 282.36929 366.037812 
L 282.36929 33.397812 
" clip-path="url(#pa4f64cf30f)" style="fill: none; stroke: #e0e0e0; stroke-width: 0.8; stroke-linecap: square"/>
     </g>
     <g id="line2d_6">
      <g>
       <use xlink:href="#m2fc04f2782" x="282.36929" y="366.037812" style="stroke: #000000; stroke-width: 0.8"/>
      </g>
     </g>
     <g id="text_3">
      <!-- 4 -->
      <g transform="translate(279.18804 380.63625) scale(0.1 -0.1)">
       <defs>
        <path id="DejaVuSans-34" d="M 2419 4116 
L 825 1625 
L 2419 1625 
L 2419 4116 
z
M 2253 4666 
L 3047 4666 
L 3047 1625 
L 3713 1625 
L 3713 1100 
L 3047 1100 
L 3047 0 
L 2419 0 
L 2419 1100 
L 313 1100 
L 313 1709 
L 2253 4666 
z
" transform="scale(0.015625)"/>
       </defs>
       <use xlink:href="#DejaVuSans-34"/>
      </g>
     </g>
    </g>
    <g id="xtick_4">
     <g id="line2d_7">
      <path d="M 383.823835 366.037812 
L 383.823835 33.397812 
" clip-path="url(#pa4f64cf30f)" style="fill: none; stroke: #e0e0e0; stroke-width: 0.8; stroke-linecap: square"/>
     </g>
     <g id="line2d_8">
      <g>
       <use xlink:href="#m2fc04f2782" x="383.823835" y="366.037812" style="stroke: #000000; stroke-width: 0.8"/>
      </g>
     </g>
     <g id="text_4">
      <!-- 6 -->
      <g transform="translate(380.642585 380.63625) scale(0.1 -0.1)">
       <defs>
        <path id="DejaVuSans-36" d="M 2113 2584 
Q 1688 2584 1439 2293 
Q 1191 2003 1191 1497 
Q 1191 994 1439 701 
Q 1688 409 2113 409 
Q 2538 409 2786 701 
Q 3034 994 3034 1497 
Q 3034 2003 2786 2293 
Q 2538 2584 2113 2584 
z
M 3366 4563 
L 3366 3988 
Q 3128 4100 2886 4159 
Q 2644 4219 2406 4219 
Q 1781 4219 1451 3797 
Q 1122 3375 1075 2522 
Q 1259 2794 1537 2939 
Q 1816 3084 2150 3084 
Q 2853 3084 3261 2657 
Q 3669 2231 3669 1497 
Q 3669 778 3244 343 
Q 2819 -91 2113 -91 
Q 1303 -91 875 529 
Q 447 1150 447 2328 
Q 447 3434 972 4092 
Q 1497 4750 2381 4750 
Q 2619 4750 2861 4703 
Q 3103 4656 3366 4563 
z
" transform="scale(0.015625)"/>
       </defs>
       <use xlink:href="#DejaVuSans-36"/>
      </g>
     </g>
    </g>
    <g id="xtick_5">
     <g id="line2d_9">
      <path d="M 485.278381 366.037812 
L 485.278381 33.397812 
" clip-path="url(#pa4f64cf30f)" style="fill: none; stroke: #e0e0e0; stroke-width: 0.8; stroke-linecap: square"/>
     </g>
     <g id="line2d_10">
      <g>
       <use xlink:href="#m2fc04f2782" x="485.278381" y="366.037812" style="stroke: #000000; stroke-width: 0.8"/>
      </g>
     </g>
     <g id="text_5">
      <!-- 8 -->
      <g transform="translate(482.097131 380.63625) scale(0.1 -0.1)">
       <defs>
        <path id="DejaVuSans-38" d="M 2034 2216 
Q 1584 2216 1326 1975 
Q 1069 1734 1069 1313 
Q 1069 891 1326 650 
Q 1584 409 2034 409 
Q 2484 409 2743 651 
Q 3003 894 3003 1313 
Q 3003 1734 2745 1975 
Q 2488 2216 2034 2216 
z
M 1403 2484 
Q 997 2584 770 2862 
Q 544 3141 544 3541 
Q 544 4100 942 4425 
Q 1341 4750 2034 4750 
Q 2731 4750 3128 4425 
Q 3525 4100 3525 3541 
Q 3525 3141 3298 2862 
Q 3072 2584 2669 2484 
Q 3125 2378 3379 2068 
Q 3634 1759 3634 1313 
Q 3634 634 3220 271 
Q 2806 -91 2034 -91 
Q 1263 -91 848 271 
Q 434 634 434 1313 
Q 434 1759 690 2068 
Q 947 2378 1403 2484 
z
M 1172 3481 
Q 1172 3119 1398 2916 
Q 1625 2713 2034 2713 
Q 2441 2713 2670 2916 
Q 2900 3119 2900 3481 
Q 2900 3844 2670 4047 
Q 2441 4250 2034 4250 
Q 1625 4250 1398 4047 
Q 1172 3844 1172 3481 
z
" transform="scale(0.015625)"/>
       </defs>
       <use xlink:href="#DejaVuSans-38"/>
      </g>
     </g>
    </g>
    <g id="xtick_6">
     <g id="line2d_11">
      <path d="M 586.732926 366.037812 
L 586.732926 33.397812 
" clip-path="url(#pa4f64cf30f)" style="fill: none; stroke: #e0e0e0; stroke-width: 0.8; stroke-linecap: square"/>
     </g>
     <g id="line2d_12">
      <g>
       <use xlink:href="#m2fc04f2782" x="586.732926" y="366.037812" style="stroke: #000000; stroke-width: 0.8"/>
      </g>
     </g>
     <g id="text_6">
      <!-- 10 -->
      <g transform="translate(580.370426 380.63625) scale(0.1 -0.1)">
       <defs>
        <path id="DejaVuSans-31" d="M 794 531 
L 1825 531 
L 1825 4091 
L 703 3866 
L 703 4441 
L 1819 4666 
L 2450 4666 
L 2450 531 
L 3481 531 
L 3481 0 
L 794 0 
L 794 531 
z
" transform="scale(0.015625)"/>
       </defs>
       <use xlink:href="#DejaVuSans-31"/>
       <use xlink:href="#DejaVuSans-30" transform="translate(63.623047 0)"/>
      </g>
     </g>
    </g>
    <g id="text_7">
     <!-- Tiempo (μs) -->
     <g transform="translate(297.404063 395.834062) scale(0.12 -0.12)">
      <defs>
       <path id="DejaVuSans-54" d="M -19 4666 
L 3928 4666 
L 3928 4134 
L 2272 4134 
L 2272 0 
L 1638 0 
L 1638 4134 
L -19 4134 
L -19 4666 
z
" transform="scale(0.015625)"/>
       <path id="DejaVuSans-69" d="M 603 3500 
L 1178 3500 
L 1178 0 
L 603 0 
L 603 3500 
z
M 603 4863 
L 1178 4863 
L 1178 4134 
L 603 4134 
L 603 4863 
z
" transform="scale(0.015625)"/>
       <path id="DejaVuSans-65" d="M 3597 1894 
L 3597 1613 
L 953 1613 
Q 991 1019 1311 708 
Q 1631 397 2203 397 
Q 2534 397 2845 478 
Q 3156 559 3463 722 
L 3463 178 
Q 3153 47 2828 -22 
Q 2503 -91 2169 -91 
Q 1331 -91 842 396 
Q 353 884 353 1716 
Q 353 2575 817 3079 
Q 1281 3584 2069 3584 
Q 2775 3584 3186 3129 
Q 3597 2675 3597 1894 
z
M 3022 2063 
Q 3016 2534 2758 2815 
Q 2500 3097 2075 3097 
Q 1594 3097 1305 2825 
Q 1016 2553 972 2059 
L 3022 2063 
z
" transform="scale(0.015625)"/>
       <path id="DejaVuSans-6d" d="M 3328 2828 
Q 3544 3216 3844 3400 
Q 4144 3584 4550 3584 
Q 5097 3584 5394 3201 
Q 5691 2819 5691 2113 
L 5691 0 
L 5113 0 
L 5113 2094 
Q 5113 2597 4934 2840 
Q 4756 3084 4391 3084 
Q 3944 3084 3684 2787 
Q 3425 2491 3425 1978 
L 3425 0 
L 2847 0 
L 2847 2094 
Q 2847 2600 2669 2842 
Q 2491 3084 2119 3084 
Q 1678 3084 1418 2786 
Q 1159 2488 1159 1978 
L 1159 0 
L 581 0 
L 581 3500 
L 1159 3500 
L 1159 2956 
Q 1356 3278 1631 3431 
Q 1906 3584 2284 3584 
Q 2666 3584 2933 3390 
Q 3200 3197 3328 2828 
z
" transform="scale(0.015625)"/>
       <path id="DejaVuSans-70" d="M 1159 525 
L 1159 -1331 
L 581 -1331 
L 581 3500 
L 1159 3500 
L 1159 2969 
Q 1341 3281 1617 3432 
Q 1894 3584 2278 3584 
Q 2916 3584 3314 3078 
Q 3713 2572 3713 1747 
Q 3713 922 3314 415 
Q 2916 -91 2278 -91 
Q 1894 -91 1617 61 
Q 1341 213 1159 525 
z
M 3116 1747 
Q 3116 2381 2855 2742 
Q 2594 3103 2138 3103 
Q 1681 3103 1420 2742 
Q 1159 2381 1159 1747 
Q 1159 1113 1420 752 
Q 1681 391 2138 391 
Q 2594 391 2855 752 
Q 3116 1113 3116 1747 
z
" transform="scale(0.015625)"/>
       <path id="DejaVuSans-6f" d="M 1959 3097 
Q 1497 3097 1228 2736 
Q 959 2375 959 1747 
Q 959 1119 1226 758 
Q 1494 397 1959 397 
Q 2419 397 2687 759 
Q 2956 1122 2956 1747 
Q 2956 2369 2687 2733 
Q 2419 3097 1959 3097 
z
M 1959 3584 
Q 2709 3584 3137 3096 
Q 3566 2609 3566 1747 
Q 3566 888 3137 398 
Q 2709 -91 1959 -91 
Q 1206 -91 779 398 
Q 353 888 353 1747 
Q 353 2609 779 3096 
Q 1206 3584 1959 3584 
z
" transform="scale(0.015625)"/>
       <path id="DejaVuSans-20" transform="scale(0.015625)"/>
       <path id="DejaVuSans-28" d="M 1984 4856 
Q 1566 4138 1362 3434 
Q 1159 2731 1159 2009 
Q 1159 1288 1364 580 
Q 1569 -128 1984 -844 
L 1484 -844 
Q 1016 -109 783 600 
Q 550 1309 550 2009 
Q 550 2706 781 3412 
Q 1013 4119 1484 4856 
L 1984 4856 
z
" transform="scale(0.015625)"/>
       <path id="DejaVuSans-3bc" d="M 544 -1331 
L 544 3500 
L 1119 3500 
L 1119 1325 
Q 1119 872 1334 640 
Q 1550 409 1972 409 
Q 2434 409 2667 671 
Q 2900 934 2900 1459 
L 2900 3500 
L 3475 3500 
L 3475 806 
Q 3475 619 3529 530 
Q 3584 441 3700 441 
Q 3728 441 3778 458 
Q 3828 475 3916 513 
L 3916 50 
Q 3788 -22 3673 -56 
Q 3559 -91 3450 -91 
Q 3234 -91 3106 31 
Q 2978 153 2931 403 
Q 2775 156 2548 32 
Q 2322 -91 2016 -91 
Q 1697 -91 1473 31 
Q 1250 153 1119 397 
L 1119 -1331 
L 544 -1331 
z
" transform="scale(0.015625)"/>
       <path id="DejaVuSans-73" d="M 2834 3397 
L 2834 2853 
Q 2591 2978 2328 3040 
Q 2066 3103 1784 3103 
Q 1356 3103 1142 2972 
Q 928 2841 928 2578 
Q 928 2378 1081 2264 
Q 1234 2150 1697 2047 
L 1894 2003 
Q 2506 1872 2764 1633 
Q 3022 1394 3022 966 
Q 3022 478 2636 193 
Q 2250 -91 1575 -91 
Q 1294 -91 989 -36 
Q 684 19 347 128 
L 347 722 
Q 666 556 975 473 
Q 1284 391 1588 391 
Q 1994 391 2212 530 
Q 2431 669 2431 922 
Q 2431 1156 2273 1281 
Q 2116 1406 1581 1522 
L 1381 1569 
Q 847 1681 609 1914 
Q 372 2147 372 2553 
Q 372 3047 722 3315 
Q 1072 3584 1716 3584 
Q 2034 3584 2315 3537 
Q 2597 3491 2834 3397 
z
" transform="scale(0.015625)"/>
       <path id="DejaVuSans-29" d="M 513 4856 
L 1013 4856 
Q 1481 4119 1714 3412 
Q 1947 2706 1947 2009 
Q 1947 1309 1714 600 
Q 1481 -109 1013 -844 
L 513 -844 
Q 928 -128 1133 580 
Q 1338 1288 1338 2009 
Q 1338 2731 1133 3434 
Q 928 4138 513 4856 
z
" transform="scale(0.015625)"/>
      </defs>
      <use xlink:href="#DejaVuSans-54"/>
      <use xlink:href="#DejaVuSans-69" transform="translate(57.958984 0)"/>
      <use xlink:href="#DejaVuSans-65" transform="translate(85.742188 0)"/>
      <use xlink:href="#DejaVuSans-6d" transform="translate(147.265625 0)"/>
      <use xlink:href="#DejaVuSans-70" transform="translate(244.677734 0)"/>
      <use xlink:href="#DejaVuSans-6f" transform="translate(308.154297 0)"/>
      <use xlink:href="#DejaVuSans-20" transform="translate(369.335938 0)"/>
      <use xlink:href="#DejaVuSans-28" transform="translate(401.123047 0)"/>
      <use xlink:href="#DejaVuSans-3bc" transform="translate(440.136719 0)"/>
      <use xlink:href="#DejaVuSans-73" transform="translate(503.759766 0)"/>
      <use xlink:href="#DejaVuSans-29" transform="translate(555.859375 0)"/>
     </g>
    </g>
   </g>
   <g id="matplotlib.axis_2">
    <g id="ytick_1">
     <g id="line2d_13">
      <path d="M 54.096563 342.278743 
L 612.096563 342.278743 
" clip-path="url(#pa4f64cf30f)" style="fill: none; stroke: #e0e0e0; stroke-width: 0.8; stroke-linecap: square"/>
     </g>
     <g id="line2d_14">
      <defs>
       <path id="m44c00458e0" d="M 0 0 
L -3.5 0 
" style="stroke: #000000; stroke-width: 0.8"/>
      </defs>
      <g>
       <use xlink:href="#m44c00458e0" x="54.096563" y="342.278743" style="stroke: #000000; stroke-width: 0.8"/>
      </g>
     </g>
     <g id="text_8">
      <!-- −1.5 -->
      <g transform="translate(22.81375 346.077962) scale(0.1 -0.1)">
       <defs>
        <path id="DejaVuSans-2212" d="M 678 2272 
L 4684 2272 
L 4684 1741 
L 678 1741 
L 678 2272 
z
" transform="scale(0.015625)"/>
        <path id="DejaVuSans-2e" d="M 684 794 
L 1344 794 
L 1344 0 
L 684 0 
L 684 794 
z
" transform="scale(0.015625)"/>
        <path id="DejaVuSans-35" d="M 691 4666 
L 3169 4666 
L 3169 4134 
L 1269 4134 
L 1269 2991 
Q 1406 3038 1543 3061 
Q 1681 3084 1819 3084 
Q 2600 3084 3056 2656 
Q 3513 2228 3513 1497 
Q 3513 744 3044 326 
Q 2575 -91 1722 -91 
Q 1428 -91 1123 -41 
Q 819 9 494 109 
L 494 744 
Q 775 591 1075 516 
Q 1375 441 1709 441 
Q 2250 441 2565 725 
Q 2881 1009 2881 1497 
Q 2881 1984 2565 2268 
Q 2250 2553 1709 2553 
Q 1456 2553 1204 2497 
Q 953 2441 691 2322 
L 691 4666 
z
" transform="scale(0.015625)"/>
       </defs>
       <use xlink:href="#DejaVuSans-2212"/>
       <use xlink:href="#DejaVuSans-31" transform="translate(83.789062 0)"/>
       <use xlink:href="#DejaVuSans-2e" transform="translate(147.412109 0)"/>
       <use xlink:href="#DejaVuSans-35" transform="translate(179.199219 0)"/>
      </g>
     </g>
    </g>
    <g id="ytick_2">
     <g id="line2d_15">
      <path d="M 54.096563 297.240488 
L 612.096563 297.240488 
" clip-path="url(#pa4f64cf30f)" style="fill: none; stroke: #e0e0e0; stroke-width: 0.8; stroke-linecap: square"/>
     </g>
     <g id="line2d_16">
      <g>
       <use xlink:href="#m44c00458e0" x="54.096563" y="297.240488" style="stroke: #000000; stroke-width: 0.8"/>
      </g>
     </g>
     <g id="text_9">
      <!-- −1.0 -->
      <g transform="translate(22.81375 301.039707) scale(0.1 -0.1)">
       <use xlink:href="#DejaVuSans-2212"/>
       <use xlink:href="#DejaVuSans-31" transform="translate(83.789062 0)"/>
       <use xlink:href="#DejaVuSans-2e" transform="translate(147.412109 0)"/>
       <use xlink:href="#DejaVuSans-30" transform="translate(179.199219 0)"/>
      </g>
     </g>
    </g>
    <g id="ytick_3">
     <g id="line2d_17">
      <path d="M 54.096563 252.202234 
L 612.096563 252.202234 
" clip-path="url(#pa4f64cf30f)" style="fill: none; stroke: #e0e0e0; stroke-width: 0.8; stroke-linecap: square"/>
     </g>
     <g id="line2d_18">
      <g>
       <use xlink:href="#m44c00458e0" x="54.096563" y="252.202234" style="stroke: #000000; stroke-width: 0.8"/>
      </g>
     </g>
     <g id="text_10">
      <!-- −0.5 -->
      <g transform="translate(22.81375 256.001453) scale(0.1 -0.1)">
       <use xlink:href="#DejaVuSans-2212"/>
       <use xlink:href="#DejaVuSans-30" transform="translate(83.789062 0)"/>
       <use xlink:href="#DejaVuSans-2e" transform="translate(147.412109 0)"/>
       <use xlink:href="#DejaVuSans-35" transform="translate(179.199219 0)"/>
      </g>
     </g>
    </g>
    <g id="ytick_4">
     <g id="line2d_19">
      <path d="M 54.096563 207.163979 
L 612.096563 207.163979 
" clip-path="url(#pa4f64cf30f)" style="fill: none; stroke: #e0e0e0; stroke-width: 0.8; stroke-linecap: square"/>
     </g>
     <g id="line2d_20">
      <g>
       <use xlink:href="#m44c00458e0" x="54.096563" y="207.163979" style="stroke: #000000; stroke-width: 0.8"/>
      </g>
     </g>
     <g id="text_11">
      <!-- 0.0 -->
      <g transform="translate(31.193438 210.963198) scale(0.1 -0.1)">
       <use xlink:href="#DejaVuSans-30"/>
       <use xlink:href="#DejaVuSans-2e" transform="translate(63.623047 0)"/>
       <use xlink:href="#DejaVuSans-30" transform="translate(95.410156 0)"/>
      </g>
     </g>
    </g>
    <g id="ytick_5">
     <g id="line2d_21">
      <path d="M 54.096563 162.125724 
L 612.096563 162.125724 
" clip-path="url(#pa4f64cf30f)" style="fill: none; stroke: #e0e0e0; stroke-width: 0.8; stroke-linecap: square"/>
     </g>
     <g id="line2d_22">
      <g>
       <use xlink:href="#m44c00458e0" x="54.096563" y="162.125724" style="stroke: #000000; stroke-width: 0.8"/>
      </g>
     </g>
     <g id="text_12">
      <!-- 0.5 -->
      <g transform="translate(31.193438 165.924943) scale(0.1 -0.1)">
       <use xlink:href="#DejaVuSans-30"/>
       <use xlink:href="#DejaVuSans-2e" transform="translate(63.623047 0)"/>
       <use xlink:href="#DejaVuSans-35" transform="translate(95.410156 0)"/>
      </g>
     </g>
    </g>
    <g id="ytick_6">
     <g id="line2d_23">
      <path d="M 54.096563 117.08747 
L 612.096563 117.08747 
" clip-path="url(#pa4f64cf30f)" style="fill: none; stroke: #e0e0e0; stroke-width: 0.8; stroke-linecap: square"/>
     </g>
     <g id="line2d_24">
      <g>
       <use xlink:href="#m44c00458e0" x="54.096563" y="117.08747" style="stroke: #000000; stroke-width: 0.8"/>
      </g>
     </g>
     <g id="text_13">
      <!-- 1.0 -->
      <g transform="translate(31.193438 120.886688) scale(0.1 -0.1)">
       <use xlink:href="#DejaVuSans-31"/>
       <use xlink:href="#DejaVuSans-2e" transform="translate(63.623047 0)"/>
       <use xlink:href="#DejaVuSans-30" transform="translate(95.410156 0)"/>
      </g>
     </g>
    </g>
    <g id="ytick_7">
     <g id="line2d_25">
      <path d="M 54.096563 72.049215 
L 612.096563 72.049215 
" clip-path="url(#pa4f64cf30f)" style="fill: none; stroke: #e0e0e0; stroke-width: 0.8; stroke-linecap: square"/>
     </g>
     <g id="line2d_26">
      <g>
       <use xlink:href="#m44c00458e0" x="54.096563" y="72.049215" style="stroke: #000000; stroke-width: 0.8"/>
      </g>
     </g>
     <g id="text_14">
      <!-- 1.5 -->
      <g transform="translate(31.193438 75.848434) scale(0.1 -0.1)">
       <use xlink:href="#DejaVuSans-31"/>
       <use xlink:href="#DejaVuSans-2e" transform="translate(63.623047 0)"/>
       <use xlink:href="#DejaVuSans-35" transform="translate(95.410156 0)"/>
      </g>
     </g>
    </g>
    <g id="text_15">
     <!-- Tensión de Salida (V) -->
     <g transform="translate(16.318125 262.436562) rotate(-90) scale(0.12 -0.12)">
      <defs>
       <path id="DejaVuSans-6e" d="M 3513 2113 
L 3513 0 
L 2938 0 
L 2938 2094 
Q 2938 2591 2744 2837 
Q 2550 3084 2163 3084 
Q 1697 3084 1428 2787 
Q 1159 2491 1159 1978 
L 1159 0 
L 581 0 
L 581 3500 
L 1159 3500 
L 1159 2956 
Q 1366 3272 1645 3428 
Q 1925 3584 2291 3584 
Q 2894 3584 3203 3211 
Q 3513 2838 3513 2113 
z
" transform="scale(0.015625)"/>
       <path id="DejaVuSans-f3" d="M 1959 3097 
Q 1497 3097 1228 2736 
Q 959 2375 959 1747 
Q 959 1119 1226 758 
Q 1494 397 1959 397 
Q 2419 397 2687 759 
Q 2956 1122 2956 1747 
Q 2956 2369 2687 2733 
Q 2419 3097 1959 3097 
z
M 1959 3584 
Q 2709 3584 3137 3096 
Q 3566 2609 3566 1747 
Q 3566 888 3137 398 
Q 2709 -91 1959 -91 
Q 1206 -91 779 398 
Q 353 888 353 1747 
Q 353 2609 779 3096 
Q 1206 3584 1959 3584 
z
M 2394 5119 
L 3016 5119 
L 1998 3944 
L 1519 3944 
L 2394 5119 
z
" transform="scale(0.015625)"/>
       <path id="DejaVuSans-64" d="M 2906 2969 
L 2906 4863 
L 3481 4863 
L 3481 0 
L 2906 0 
L 2906 525 
Q 2725 213 2448 61 
Q 2172 -91 1784 -91 
Q 1150 -91 751 415 
Q 353 922 353 1747 
Q 353 2572 751 3078 
Q 1150 3584 1784 3584 
Q 2172 3584 2448 3432 
Q 2725 3281 2906 2969 
z
M 947 1747 
Q 947 1113 1208 752 
Q 1469 391 1925 391 
Q 2381 391 2643 752 
Q 2906 1113 2906 1747 
Q 2906 2381 2643 2742 
Q 2381 3103 1925 3103 
Q 1469 3103 1208 2742 
Q 947 2381 947 1747 
z
" transform="scale(0.015625)"/>
       <path id="DejaVuSans-53" d="M 3425 4513 
L 3425 3897 
Q 3066 4069 2747 4153 
Q 2428 4238 2131 4238 
Q 1616 4238 1336 4038 
Q 1056 3838 1056 3469 
Q 1056 3159 1242 3001 
Q 1428 2844 1947 2747 
L 2328 2669 
Q 3034 2534 3370 2195 
Q 3706 1856 3706 1288 
Q 3706 609 3251 259 
Q 2797 -91 1919 -91 
Q 1588 -91 1214 -16 
Q 841 59 441 206 
L 441 856 
Q 825 641 1194 531 
Q 1563 422 1919 422 
Q 2459 422 2753 634 
Q 3047 847 3047 1241 
Q 3047 1584 2836 1778 
Q 2625 1972 2144 2069 
L 1759 2144 
Q 1053 2284 737 2584 
Q 422 2884 422 3419 
Q 422 4038 858 4394 
Q 1294 4750 2059 4750 
Q 2388 4750 2728 4690 
Q 3069 4631 3425 4513 
z
" transform="scale(0.015625)"/>
       <path id="DejaVuSans-61" d="M 2194 1759 
Q 1497 1759 1228 1600 
Q 959 1441 959 1056 
Q 959 750 1161 570 
Q 1363 391 1709 391 
Q 2188 391 2477 730 
Q 2766 1069 2766 1631 
L 2766 1759 
L 2194 1759 
z
M 3341 1997 
L 3341 0 
L 2766 0 
L 2766 531 
Q 2569 213 2275 61 
Q 1981 -91 1556 -91 
Q 1019 -91 701 211 
Q 384 513 384 1019 
Q 384 1609 779 1909 
Q 1175 2209 1959 2209 
L 2766 2209 
L 2766 2266 
Q 2766 2663 2505 2880 
Q 2244 3097 1772 3097 
Q 1472 3097 1187 3025 
Q 903 2953 641 2809 
L 641 3341 
Q 956 3463 1253 3523 
Q 1550 3584 1831 3584 
Q 2591 3584 2966 3190 
Q 3341 2797 3341 1997 
z
" transform="scale(0.015625)"/>
       <path id="DejaVuSans-6c" d="M 603 4863 
L 1178 4863 
L 1178 0 
L 603 0 
L 603 4863 
z
" transform="scale(0.015625)"/>
       <path id="DejaVuSans-56" d="M 1831 0 
L 50 4666 
L 709 4666 
L 2188 738 
L 3669 4666 
L 4325 4666 
L 2547 0 
L 1831 0 
z
" transform="scale(0.015625)"/>
      </defs>
      <use xlink:href="#DejaVuSans-54"/>
      <use xlink:href="#DejaVuSans-65" transform="translate(44.083984 0)"/>
      <use xlink:href="#DejaVuSans-6e" transform="translate(105.607422 0)"/>
      <use xlink:href="#DejaVuSans-73" transform="translate(168.986328 0)"/>
      <use xlink:href="#DejaVuSans-69" transform="translate(221.085938 0)"/>
      <use xlink:href="#DejaVuSans-f3" transform="translate(248.869141 0)"/>
      <use xlink:href="#DejaVuSans-6e" transform="translate(310.050781 0)"/>
      <use xlink:href="#DejaVuSans-20" transform="translate(373.429688 0)"/>
      <use xlink:href="#DejaVuSans-64" transform="translate(405.216797 0)"/>
      <use xlink:href="#DejaVuSans-65" transform="translate(468.693359 0)"/>
      <use xlink:href="#DejaVuSans-20" transform="translate(530.216797 0)"/>
      <use xlink:href="#DejaVuSans-53" transform="translate(562.003906 0)"/>
      <use xlink:href="#DejaVuSans-61" transform="translate(625.480469 0)"/>
      <use xlink:href="#DejaVuSans-6c" transform="translate(686.759766 0)"/>
      <use xlink:href="#DejaVuSans-69" transform="translate(714.542969 0)"/>
      <use xlink:href="#DejaVuSans-64" transform="translate(742.326172 0)"/>
      <use xlink:href="#DejaVuSans-61" transform="translate(805.802734 0)"/>
      <use xlink:href="#DejaVuSans-20" transform="translate(867.082031 0)"/>
      <use xlink:href="#DejaVuSans-28" transform="translate(898.869141 0)"/>
      <use xlink:href="#DejaVuSans-56" transform="translate(937.882812 0)"/>
      <use xlink:href="#DejaVuSans-29" transform="translate(1006.291016 0)"/>
     </g>
    </g>
   </g>
   <g id="line2d_27">
    <path d="M 79.460199 207.163979 
L 84.281701 207.058725 
L 86.058043 206.759668 
L 87.326859 206.346373 
L 88.595676 205.721045 
L 89.864492 204.853767 
L 91.133308 203.72385 
L 92.402124 202.318723 
L 93.924704 200.261544 
L 95.447283 197.800246 
L 96.969863 194.94372 
L 98.746206 191.132321 
L 100.776311 186.185302 
L 103.060181 179.935937 
L 105.597813 172.251666 
L 108.389209 163.05593 
L 111.941894 150.51492 
L 117.270922 130.749104 
L 123.868767 106.421094 
L 127.421452 94.137065 
L 130.466611 84.389938 
L 133.004244 76.964273 
L 135.288113 70.912319 
L 137.318219 66.09143 
L 139.348325 61.841128 
L 141.124667 58.620607 
L 142.90101 55.889542 
L 144.42359 53.953654 
L 145.946169 52.403513 
L 147.214985 51.413455 
L 148.483802 50.702896 
L 149.752618 50.275961 
L 150.767671 50.140937 
L 151.782724 50.191037 
L 152.797777 50.427371 
L 154.066593 50.985891 
L 155.335409 51.837576 
L 156.604225 52.98262 
L 157.873042 54.420483 
L 159.395621 56.530612 
L 160.918201 59.056984 
L 162.44078 61.994562 
L 164.217123 65.932712 
L 165.993465 70.408892 
L 168.023571 76.163536 
L 170.053677 82.573884 
L 172.337547 90.530563 
L 174.875179 100.237508 
L 177.666575 111.878858 
L 180.711734 125.599606 
L 184.264419 142.742212 
L 188.324631 163.487025 
L 194.161186 194.594065 
L 203.296663 243.271295 
L 207.356874 263.696915 
L 210.90956 280.444696 
L 213.954719 293.738649 
L 216.746115 304.914755 
L 219.283747 314.135009 
L 221.567616 321.599425 
L 223.597722 327.526835 
L 225.627828 332.753583 
L 227.404171 336.729121 
L 229.180514 340.128839 
L 230.703093 342.573704 
L 232.225673 344.577608 
L 233.494489 345.906347 
L 234.763305 346.92202 
L 236.032121 347.622619 
L 237.047174 347.955331 
L 238.062227 348.085169 
L 239.07728 348.012044 
L 240.092333 347.736151 
L 241.107386 347.257964 
L 242.376202 346.376935 
L 243.645019 345.183125 
L 244.913835 343.679317 
L 246.436414 341.470479 
L 247.958994 338.827544 
L 249.481573 335.759168 
L 251.257916 331.655103 
L 253.034259 327.003791 
L 255.064365 321.044347 
L 257.348234 313.560561 
L 259.632103 305.304035 
L 262.169735 295.296858 
L 264.961131 283.379723 
L 268.260053 268.239778 
L 272.066502 249.634226 
L 276.888004 224.881791 
L 289.829929 157.81022 
L 293.636378 139.55167 
L 296.9353 124.801673 
L 299.726696 113.273651 
L 302.264328 103.662766 
L 304.548197 95.794123 
L 306.832067 88.724816 
L 308.862173 83.153888 
L 310.638515 78.856415 
L 312.414858 75.117604 
L 313.937437 72.3701 
L 315.460017 70.053963 
L 316.982596 68.176529 
L 318.251413 66.951415 
L 319.520229 66.03773 
L 320.789045 65.437449 
L 321.804098 65.183766 
L 322.819151 65.131849 
L 323.834204 65.281764 
L 324.849257 65.633295 
L 325.86431 66.185943 
L 327.133126 67.158354 
L 328.401942 68.441615 
L 329.670759 70.032887 
L 331.193338 72.34398 
L 332.715918 75.086127 
L 334.49226 78.81835 
L 336.268603 83.109092 
L 338.298709 88.672655 
L 340.328815 94.909656 
L 342.612684 102.68698 
L 345.150317 112.207133 
L 347.941712 123.649498 
L 350.986871 137.150527 
L 354.539557 154.019666 
L 358.853532 175.715996 
L 365.451376 210.258983 
L 372.81051 248.471711 
L 376.870722 268.414286 
L 380.169644 283.612931 
L 383.214803 296.62964 
L 386.006199 307.561252 
L 388.543832 316.566557 
L 390.827701 323.843051 
L 392.857807 329.607622 
L 394.887913 334.675331 
L 396.664255 338.514808 
L 398.186835 341.350378 
L 399.709414 343.755938 
L 401.231994 345.72388 
L 402.50081 347.025052 
L 403.769626 348.015208 
L 405.038443 348.692221 
L 406.053496 349.007374 
L 407.068548 349.120751 
L 408.083601 349.032204 
L 409.098654 348.741873 
L 410.113707 348.250175 
L 411.382524 347.353478 
L 412.65134 346.145257 
L 413.920156 344.628197 
L 415.442736 342.404847 
L 416.965315 339.748762 
L 418.487895 336.668435 
L 420.264237 332.551743 
L 422.04058 327.888998 
L 424.070686 321.917658 
L 426.354555 314.421605 
L 428.638424 306.153585 
L 431.176057 296.134064 
L 433.967452 284.203293 
L 437.266375 269.046367 
L 441.072823 250.418993 
L 445.894325 225.633867 
L 458.836251 158.436323 
L 462.642699 140.128879 
L 465.941621 125.332247 
L 468.733017 113.76186 
L 471.27065 104.110323 
L 473.554519 96.203499 
L 475.838388 89.094647 
L 477.868494 83.487551 
L 479.644837 79.157756 
L 481.421179 75.386099 
L 482.943759 72.61011 
L 484.466338 70.265256 
L 485.988918 68.358946 
L 487.257734 67.109697 
L 488.52655 66.171855 
L 489.795366 65.547434 
L 490.810419 65.274479 
L 491.825472 65.203349 
L 492.840525 65.334128 
L 493.855578 65.666625 
L 494.870631 66.200358 
L 496.139448 67.14933 
L 497.408264 68.409419 
L 498.67708 69.977824 
L 500.19966 72.261942 
L 501.722239 74.977687 
L 503.244818 78.116376 
L 505.021161 82.29927 
L 506.797504 87.025914 
L 508.82761 93.067102 
L 511.111479 100.637211 
L 513.395348 108.97399 
L 515.932981 119.063099 
L 518.724376 131.061427 
L 522.023299 146.285106 
L 525.829747 164.970666 
L 530.905012 191.128063 
L 543.085648 254.420954 
L 546.892097 272.81762 
L 550.191019 287.713895 
L 552.982415 299.383622 
L 555.520047 309.136486 
L 557.803916 317.142745 
L 560.087785 324.358145 
L 562.117891 330.065334 
L 564.147997 335.073096 
L 565.92434 338.85829 
L 567.446919 341.646171 
L 568.969499 344.003142 
L 570.492078 345.921755 
L 571.760895 347.181367 
L 573.029711 348.129651 
L 574.298527 348.764568 
L 575.31358 349.045945 
L 576.328633 349.125507 
L 577.343686 349.003154 
L 578.358739 348.679072 
L 579.373792 348.153725 
L 580.642608 347.215182 
L 581.911424 345.965439 
L 583.180241 344.407274 
L 584.70282 342.135274 
L 586.2254 339.431423 
L 586.732926 338.436801 
L 586.732926 338.436801 
" clip-path="url(#pa4f64cf30f)" style="fill: none; stroke: #1f77b4; stroke-width: 2.5; stroke-linecap: square"/>
   </g>
   <g id="line2d_28">
    <path d="M 79.460199 207.163979 
L 83.266648 207.063496 
L 84.535464 206.826231 
L 85.80428 206.358932 
L 87.073096 205.607906 
L 88.341912 204.543424 
L 89.610729 203.153684 
L 90.879545 201.438695 
L 92.402124 198.962091 
L 93.924704 196.048856 
L 95.701047 192.133142 
L 97.731153 187.033033 
L 99.761258 181.336156 
L 102.298891 173.490187 
L 105.090287 164.095113 
L 108.642972 151.282965 
L 113.972 131.0976 
L 120.569845 106.259504 
L 124.12253 93.71497 
L 127.167689 83.756297 
L 129.705321 76.164349 
L 131.989191 69.971635 
L 134.019297 65.033458 
L 136.049403 60.673852 
L 137.825745 57.364655 
L 139.602088 54.551739 
L 141.124667 52.551329 
L 142.647247 50.942031 
L 143.916063 49.906873 
L 145.184879 49.155108 
L 146.453696 48.690933 
L 147.468749 48.52901 
L 148.483802 48.554815 
L 149.498855 48.769485 
L 150.513908 49.173851 
L 151.782724 49.946849 
L 153.05154 51.017424 
L 154.320356 52.385203 
L 155.589172 54.049075 
L 157.111752 56.433922 
L 158.634331 59.237892 
L 160.410674 63.030771 
L 162.187017 67.373735 
L 164.217123 72.991675 
L 166.247229 79.282683 
L 168.531098 87.126753 
L 171.06873 96.736469 
L 173.606363 107.213599 
L 176.397759 119.63927 
L 179.696681 135.376546 
L 183.503129 154.676207 
L 188.324631 180.329179 
L 201.774083 252.612719 
L 205.580532 271.535266 
L 208.879454 286.837332 
L 211.67085 298.814469 
L 214.208482 308.818451 
L 216.492351 317.027862 
L 218.776221 324.424977 
L 220.806326 330.275849 
L 222.836432 335.410636 
L 224.612775 339.293429 
L 226.135355 342.155015 
L 227.657934 344.576629 
L 229.180514 346.550972 
L 230.44933 347.850336 
L 231.718146 348.832399 
L 232.986962 349.495231 
L 234.002015 349.794792 
L 235.017068 349.888913 
L 236.032121 349.777557 
L 237.047174 349.460968 
L 238.062227 348.939676 
L 239.331043 348.001469 
L 240.59986 346.746928 
L 241.868676 345.178972 
L 243.391255 342.888839 
L 244.913835 340.160144 
L 246.436414 337.001809 
L 248.212757 332.787869 
L 249.9891 328.021832 
L 252.019206 321.925968 
L 254.303075 314.282869 
L 256.586944 305.861945 
L 259.124577 295.667569 
L 261.915972 283.540916 
L 265.214894 268.151475 
L 269.021343 249.260141 
L 274.096608 222.813563 
L 286.277244 158.832566 
L 290.083692 140.243243 
L 293.382615 125.195208 
L 296.17401 113.410209 
L 298.711643 103.564303 
L 300.995512 95.484724 
L 303.279381 88.206574 
L 305.309487 82.452999 
L 307.08583 77.998919 
L 308.862173 74.10727 
L 310.384752 71.232297 
L 311.907332 68.792394 
L 313.429911 66.795288 
L 314.698727 65.473841 
L 315.967543 64.467124 
L 317.23636 63.77731 
L 318.251413 63.454648 
L 319.266466 63.336211 
L 320.281519 63.422156 
L 321.296572 63.712359 
L 322.311625 64.206406 
L 323.580441 65.10953 
L 324.849257 66.328053 
L 326.118073 67.859279 
L 327.640653 70.104699 
L 329.163232 72.788335 
L 330.685812 75.901622 
L 332.462154 80.063481 
L 334.238497 84.778461 
L 336.268603 90.817882 
L 338.552472 98.400787 
L 340.836341 106.765955 
L 343.373974 116.90469 
L 346.16537 128.97912 
L 349.464292 144.320756 
L 353.27074 163.177992 
L 358.092242 188.27326 
L 371.287931 257.606518 
L 375.09438 276.077286 
L 378.393302 290.98489 
L 381.184697 302.625757 
L 383.72233 312.3221 
L 386.006199 320.253216 
L 388.290068 327.370934 
L 390.320174 332.972831 
L 392.096517 337.287955 
L 393.87286 341.03555 
L 395.395439 343.783537 
L 396.918019 346.093703 
L 398.186835 347.679109 
L 399.455651 348.95197 
L 400.724467 349.909547 
L 401.993284 350.549791 
L 403.008337 350.832564 
L 404.02339 350.910975 
L 405.038443 350.784927 
L 406.053496 350.454608 
L 407.068548 349.920492 
L 408.337365 348.967445 
L 409.606181 347.699293 
L 410.874997 346.118851 
L 412.397577 343.815085 
L 413.920156 341.074073 
L 415.442736 337.90458 
L 417.219078 333.678883 
L 418.995421 328.902223 
L 421.025527 322.795323 
L 423.309396 315.140838 
L 425.593265 306.70921 
L 428.130898 296.503265 
L 430.922294 284.363707 
L 434.221216 268.95799 
L 438.027664 250.045442 
L 443.102929 223.564758 
L 455.283565 159.46569 
L 459.090014 140.827852 
L 462.388936 125.733388 
L 465.180332 113.906109 
L 467.717964 104.019561 
L 470.255597 95.048134 
L 472.539466 87.822616 
L 474.569572 82.119456 
L 476.345914 77.712002 
L 478.122257 73.86905 
L 479.644837 71.037262 
L 481.167416 68.641695 
L 482.689996 66.689899 
L 483.958812 65.406833 
L 485.227628 64.438959 
L 486.496444 63.788353 
L 487.511497 63.497256 
L 488.52655 63.410505 
L 489.541603 63.528209 
L 490.556656 63.850192 
L 491.571709 64.375992 
L 492.840525 65.318691 
L 494.109342 66.576569 
L 495.378158 68.146835 
L 496.900737 70.438551 
L 498.423317 73.167726 
L 499.945896 76.325636 
L 501.722239 80.53819 
L 503.498582 85.302162 
L 505.528688 91.395192 
L 507.812557 99.034973 
L 510.096426 107.452954 
L 512.634059 117.645101 
L 515.425454 129.771281 
L 518.724376 145.163818 
L 522.530825 164.064946 
L 527.60609 190.537094 
L 539.786726 254.648019 
L 543.593174 273.298683 
L 546.892097 288.407494 
L 549.683492 300.249092 
L 552.221125 310.150256 
L 554.758757 319.137694 
L 557.042626 326.378708 
L 559.072732 332.096416 
L 560.849075 336.517131 
L 562.625418 340.373776 
L 564.147997 343.217597 
L 565.670577 345.625427 
L 567.193156 347.589673 
L 568.461972 348.883227 
L 569.730789 349.86167 
L 570.999605 350.522902 
L 572.014658 350.822525 
L 573.029711 350.917812 
L 574.044764 350.808643 
L 575.059817 350.49518 
L 576.07487 349.977875 
L 577.343686 349.045739 
L 578.612502 347.798342 
L 579.881319 346.238452 
L 581.403898 343.959016 
L 582.926477 341.241895 
L 584.449057 338.095776 
L 586.2254 333.896596 
L 586.732926 332.595637 
L 586.732926 332.595637 
" clip-path="url(#pa4f64cf30f)" style="fill: none; stroke: #ff7f0e; stroke-width: 3; stroke-linecap: square"/>
   </g>
   <g id="line2d_29">
    <path d="M 79.460199 207.163979 
L 85.04299 207.062487 
L 87.073096 206.783917 
L 88.595676 206.37782 
L 90.118255 205.752939 
L 91.640835 204.87314 
L 93.163414 203.710654 
L 94.685994 202.245607 
L 96.208573 200.465271 
L 97.731153 198.363231 
L 99.507495 195.503326 
L 101.283838 192.211218 
L 103.313944 187.938015 
L 105.34405 183.149917 
L 107.627919 177.197333 
L 110.165552 169.959155 
L 113.21071 160.547987 
L 116.763396 148.816787 
L 122.599951 128.62837 
L 128.690268 107.763102 
L 132.242954 96.336205 
L 135.288113 87.271295 
L 137.825745 80.368734 
L 140.109614 74.747515 
L 142.13972 70.274807 
L 144.169826 66.337948 
L 145.946169 63.361904 
L 147.722512 60.846603 
L 149.245091 59.072288 
L 150.767671 57.661794 
L 152.036487 56.771172 
L 153.305303 56.14453 
L 154.574119 55.785915 
L 155.842936 55.698683 
L 157.111752 55.885499 
L 158.380568 56.34833 
L 159.649384 57.088444 
L 160.918201 58.106414 
L 162.187017 59.402109 
L 163.709596 61.32233 
L 165.232176 63.638512 
L 166.754755 66.346496 
L 168.531098 69.993509 
L 170.307441 74.154989 
L 172.337547 79.523264 
L 174.367653 85.521261 
L 176.651522 92.986413 
L 179.189154 102.117697 
L 181.98055 113.096648 
L 185.025709 126.069036 
L 188.324631 141.12298 
L 192.384843 160.775687 
L 197.713871 187.786268 
L 208.625691 243.396272 
L 212.685903 262.804928 
L 215.984825 277.581983 
L 219.029984 290.231651 
L 221.821379 300.853864 
L 224.359012 309.606216 
L 226.642881 316.682239 
L 228.672987 322.293004 
L 230.703093 327.232092 
L 232.479436 330.981163 
L 234.255778 334.179102 
L 235.778358 336.471344 
L 237.300937 338.34189 
L 238.569754 339.574497 
L 239.83857 340.507882 
L 241.107386 341.140209 
L 242.122439 341.428493 
L 243.137492 341.523031 
L 244.152545 341.423787 
L 245.167598 341.130997 
L 246.182651 340.645164 
L 247.451467 339.767615 
L 248.720283 338.591769 
L 249.9891 337.120383 
L 251.511679 334.969445 
L 253.034259 332.40497 
L 254.556838 329.435371 
L 256.333181 325.471825 
L 258.109524 320.987683 
L 260.139629 315.251003 
L 262.423499 308.05676 
L 264.707368 300.129015 
L 267.245 290.530311 
L 270.036396 279.110795 
L 273.335318 264.617078 
L 277.141767 246.823363 
L 282.217032 221.910664 
L 294.397668 161.630565 
L 298.204116 144.114125 
L 301.503038 129.933825 
L 304.294434 118.828007 
L 306.832067 109.549373 
L 309.115936 101.935253 
L 311.399805 95.076301 
L 313.429911 89.653871 
L 315.460017 84.89888 
L 317.23636 81.307433 
L 318.758939 78.66458 
L 320.281519 76.432778 
L 321.804098 74.619145 
L 323.072914 73.431407 
L 324.341731 72.540681 
L 325.610547 71.948908 
L 326.6256 71.691622 
L 327.640653 71.626854 
L 328.655706 71.754689 
L 329.670759 72.074942 
L 330.939575 72.745122 
L 332.208391 73.713734 
L 333.477207 74.978631 
L 334.746024 76.537011 
L 336.268603 78.789559 
L 337.791183 81.452529 
L 339.567525 85.066639 
L 341.343868 89.212043 
L 343.373974 94.576981 
L 345.40408 100.581757 
L 347.687949 108.059313 
L 350.225582 117.201116 
L 353.016977 128.176161 
L 356.062136 141.11205 
L 359.614822 157.258335 
L 363.928797 178.002405 
L 370.780404 212.261049 
L 377.632012 246.188006 
L 381.692224 265.23979 
L 385.244909 280.841866 
L 388.290068 293.204787 
L 391.081464 303.575096 
L 393.619096 312.10681 
L 395.902966 318.990572 
L 397.933072 324.4352 
L 399.963178 329.212482 
L 401.73952 332.823468 
L 403.2621 335.483063 
L 404.784679 337.731576 
L 406.307259 339.561857 
L 407.576075 340.763402 
L 408.844891 341.66786 
L 410.113707 342.273271 
L 411.12876 342.541391 
L 412.143813 342.616913 
L 413.158866 342.499747 
L 414.173919 342.190069 
L 415.442736 341.532959 
L 416.711552 340.57724 
L 417.980368 339.325038 
L 419.249184 337.779139 
L 420.771764 335.541264 
L 422.294343 332.892604 
L 424.070686 329.294691 
L 425.847029 325.164905 
L 427.877135 319.817049 
L 429.907241 313.828477 
L 432.19111 306.368021 
L 434.728742 297.243722 
L 437.520138 286.285993 
L 440.565297 273.366539 
L 444.117982 257.236019 
L 448.431957 236.505933 
L 455.283565 202.25749 
L 462.135173 168.325997 
L 466.195385 149.26485 
L 469.74807 133.650778 
L 472.793229 121.274952 
L 475.584625 110.89086 
L 478.122257 102.345134 
L 480.406126 95.447669 
L 482.436232 89.990078 
L 484.466338 85.19918 
L 486.242681 81.575812 
L 487.76526 78.905302 
L 489.28784 76.645637 
L 490.810419 74.804006 
L 492.079236 73.59288 
L 493.348052 72.678754 
L 494.616868 72.063608 
L 495.631921 71.787668 
L 496.646974 71.704309 
L 497.662027 71.813634 
L 498.67708 72.115478 
L 499.945896 72.762823 
L 501.214712 73.708828 
L 502.483529 74.951388 
L 503.752345 76.48774 
L 505.274924 78.714318 
L 506.797504 81.351885 
L 508.573847 84.937166 
L 510.350189 89.054708 
L 512.380295 94.389117 
L 514.410401 100.364899 
L 516.69427 107.811843 
L 519.231903 116.922339 
L 522.023299 127.866498 
L 525.068458 140.773249 
L 528.621143 156.891935 
L 532.935118 177.612261 
L 539.786726 211.856148 
L 546.638333 245.796737 
L 550.698545 264.869523 
L 554.251231 280.497361 
L 557.29639 292.887459 
L 560.087785 303.28648 
L 562.625418 311.847175 
L 564.909287 318.759143 
L 566.939393 324.230362 
L 568.969499 329.0355 
L 570.745842 332.671767 
L 572.268421 335.353612 
L 573.791001 337.624828 
L 575.31358 339.47819 
L 576.582396 340.699202 
L 577.851213 341.623291 
L 579.120029 342.248452 
L 580.135082 342.532429 
L 581.150135 342.623834 
L 582.165188 342.522553 
L 583.180241 342.228741 
L 584.449057 341.591401 
L 585.717873 340.655339 
L 586.732926 339.693974 
L 586.732926 339.693974 
" clip-path="url(#pa4f64cf30f)" style="fill: none; stroke-dasharray: 16,4,2.5,4; stroke-dashoffset: 0; stroke: #9467bd; stroke-width: 2.5"/>
   </g>
   <g id="line2d_30">
    <path d="M 79.460199 207.163979 
L 86.058043 207.064703 
L 88.595676 206.780611 
L 90.625782 206.32891 
L 92.402124 205.722097 
L 94.178467 204.885212 
L 95.95481 203.793247 
L 97.731153 202.426922 
L 99.507495 200.772383 
L 101.283838 198.820844 
L 103.313944 196.221811 
L 105.34405 193.230505 
L 107.374156 189.854497 
L 109.658025 185.613895 
L 112.195658 180.385524 
L 114.987053 174.063626 
L 118.032212 166.576378 
L 121.584898 157.218685 
L 126.406399 143.814748 
L 136.556929 115.408107 
L 140.109614 106.215244 
L 143.154773 98.938284 
L 145.692406 93.404109 
L 147.976275 88.900965 
L 150.260144 84.902349 
L 152.29025 81.808855 
L 154.066593 79.482046 
L 155.842936 77.528584 
L 157.365515 76.163468 
L 158.888095 75.093293 
L 160.410674 74.325906 
L 161.67949 73.922626 
L 162.948307 73.737655 
L 164.217123 73.773779 
L 165.485939 74.033234 
L 166.754755 74.517709 
L 168.023571 75.228332 
L 169.292388 76.165677 
L 170.814967 77.58975 
L 172.337547 79.339266 
L 173.860126 81.412041 
L 175.636469 84.234341 
L 177.412812 87.484831 
L 179.442917 91.711987 
L 181.473023 96.469135 
L 183.756893 102.428893 
L 186.040762 108.999602 
L 188.578394 116.969623 
L 191.36979 126.480855 
L 194.414949 137.644555 
L 197.967634 151.543075 
L 202.28161 169.383981 
L 208.625691 196.699527 
L 216.746115 231.507117 
L 221.06009 248.994592 
L 224.612775 262.474419 
L 227.657934 273.18361 
L 230.44933 282.197226 
L 232.986962 289.644599 
L 235.270831 295.685104 
L 237.300937 300.492983 
L 239.331043 304.745337 
L 241.107386 307.992405 
L 242.883729 310.783323 
L 244.406308 312.80384 
L 245.928888 314.474913 
L 247.451467 315.791695 
L 248.720283 316.615652 
L 249.9891 317.189411 
L 251.257916 317.511963 
L 252.526732 317.582851 
L 253.795548 317.402167 
L 255.064365 316.970555 
L 256.333181 316.289201 
L 257.601997 315.359843 
L 258.870813 314.184755 
L 260.393393 312.454285 
L 261.915972 310.379915 
L 263.692315 307.534502 
L 265.468658 304.243379 
L 267.498764 299.955378 
L 269.52887 295.129619 
L 271.812739 289.092881 
L 274.350371 281.682841 
L 277.141767 272.755214 
L 280.186926 262.199409 
L 283.485848 249.956904 
L 287.54606 234.005798 
L 293.382615 210.066377 
L 302.010565 174.692683 
L 306.070777 158.956465 
L 309.623462 146.063501 
L 312.668621 135.843443 
L 315.460017 127.268006 
L 317.997649 120.211019 
L 320.281519 114.515569 
L 322.311625 110.009425 
L 324.341731 106.054043 
L 326.118073 103.062806 
L 327.894416 100.523822 
L 329.416995 98.716013 
L 330.939575 97.254526 
L 332.208391 96.304601 
L 333.477207 95.60059 
L 334.746024 95.144066 
L 336.01484 94.93605 
L 337.283656 94.977012 
L 338.552472 95.266866 
L 339.821288 95.804975 
L 341.090105 96.590152 
L 342.358921 97.62066 
L 343.8815 99.177858 
L 345.40408 101.080058 
L 346.926659 103.321191 
L 348.703002 106.354622 
L 350.479345 109.826425 
L 352.509451 114.311542 
L 354.539557 119.323995 
L 356.823426 125.557784 
L 359.361058 133.16999 
L 362.152454 142.298791 
L 365.197613 153.047789 
L 368.750298 166.451359 
L 373.064274 183.65415 
L 380.169644 213.083695 
L 386.767489 240.083538 
L 390.827701 255.818077 
L 394.126623 267.803773 
L 397.171782 278.063489 
L 399.963178 286.674623 
L 402.50081 293.763554 
L 404.784679 299.487351 
L 406.814785 304.01837 
L 408.844891 307.99831 
L 410.621234 311.010761 
L 412.397577 313.57069 
L 413.920156 315.396221 
L 415.442736 316.875204 
L 416.711552 317.839525 
L 417.980368 318.557756 
L 419.249184 319.028314 
L 420.518 319.250169 
L 421.786817 319.222841 
L 423.055633 318.946404 
L 424.324449 318.421486 
L 425.593265 317.649264 
L 426.862082 316.631463 
L 428.384661 315.08917 
L 429.907241 313.201483 
L 431.42982 310.974451 
L 433.206163 307.956924 
L 434.982505 304.500408 
L 437.012611 300.031967 
L 439.042717 295.035302 
L 441.326587 288.818161 
L 443.864219 281.223007 
L 446.655615 272.111122 
L 449.700774 261.378291 
L 453.253459 247.990451 
L 457.567434 230.802096 
L 464.672805 201.384977 
L 471.27065 174.384193 
L 475.330861 158.643396 
L 478.883547 145.76244 
L 481.928706 135.563636 
L 484.720102 127.015833 
L 487.257734 119.990142 
L 489.541603 114.327419 
L 491.571709 109.853646 
L 493.601815 105.933404 
L 495.378158 102.974941 
L 497.154501 100.470394 
L 498.67708 98.693262 
L 500.19966 97.263373 
L 501.468476 96.340383 
L 502.737292 95.663767 
L 504.006108 95.235017 
L 505.274924 95.055073 
L 506.543741 95.124322 
L 507.812557 95.442598 
L 509.081373 96.009183 
L 510.350189 96.822808 
L 511.619006 97.88166 
L 513.141585 99.47262 
L 514.664164 101.408181 
L 516.186744 103.682146 
L 517.963087 106.753038 
L 519.739429 110.261206 
L 521.769535 114.786294 
L 523.799641 119.83676 
L 526.083511 126.110648 
L 528.621143 133.763693 
L 531.412539 142.932394 
L 534.457698 153.718325 
L 538.010383 167.15554 
L 542.324358 184.384509 
L 549.937256 215.929169 
L 556.027573 240.783131 
L 560.087785 256.475445 
L 563.386708 268.416468 
L 566.431867 278.62726 
L 569.223262 287.187569 
L 571.760895 294.225775 
L 574.044764 299.900602 
L 576.07487 304.385732 
L 578.104976 308.317825 
L 579.881319 311.287013 
L 581.657661 313.802565 
L 583.180241 315.589318 
L 584.70282 317.028968 
L 585.971636 317.960177 
L 586.732926 318.401776 
L 586.732926 318.401776 
" clip-path="url(#pa4f64cf30f)" style="fill: none; stroke-dasharray: 9.25,4; stroke-dashoffset: 0; stroke: #2ca02c; stroke-width: 2.5"/>
   </g>
   <g id="line2d_31">
    <path d="M 79.460199 207.163979 
L 89.864492 207.060321 
L 94.178467 206.779685 
L 97.731153 206.339779 
L 101.030075 205.722619 
L 104.328997 204.878701 
L 107.627919 203.790997 
L 110.926841 202.450253 
L 114.225763 200.854706 
L 117.524686 199.00972 
L 121.077371 196.757831 
L 124.88382 194.066085 
L 128.944032 190.918927 
L 133.765533 186.889438 
L 140.617141 180.830822 
L 150.767671 171.861922 
L 155.589172 167.923149 
L 159.395621 165.082467 
L 162.948307 162.704271 
L 166.247229 160.773076 
L 169.292388 159.256634 
L 172.083783 158.111195 
L 174.875179 157.215392 
L 177.412812 156.628307 
L 179.950444 156.26553 
L 182.488076 156.132702 
L 185.025709 156.233493 
L 187.563341 156.569562 
L 190.100974 157.140527 
L 192.638606 157.943967 
L 195.176239 158.975433 
L 197.967634 160.365662 
L 200.75903 162.012668 
L 203.804189 164.085701 
L 206.849348 166.42586 
L 210.14827 169.233262 
L 213.954719 172.778183 
L 218.268694 177.116858 
L 223.597722 182.806343 
L 240.092333 200.650431 
L 244.406308 204.854863 
L 248.212757 208.24753 
L 251.511679 210.899015 
L 254.556838 213.076966 
L 257.601997 214.971719 
L 260.393393 216.442544 
L 262.931025 217.547723 
L 265.468658 218.424202 
L 268.00629 219.066476 
L 270.543923 219.471088 
L 273.081555 219.63666 
L 275.619187 219.563907 
L 278.15682 219.255629 
L 280.694452 218.716687 
L 283.232085 217.95396 
L 286.023481 216.86709 
L 288.814876 215.534552 
L 291.860035 213.8207 
L 295.158957 211.686365 
L 298.711643 209.105611 
L 302.771855 205.860833 
L 307.593356 201.706775 
L 315.967543 194.13108 
L 322.819151 188.062461 
L 327.386889 184.309671 
L 331.193338 181.461834 
L 334.49226 179.250899 
L 337.537419 177.455384 
L 340.582578 175.921655 
L 343.373974 174.764628 
L 346.16537 173.86046 
L 348.703002 173.267681 
L 351.240635 172.900064 
L 353.778267 172.762196 
L 356.315899 172.856604 
L 358.853532 173.183725 
L 361.391164 173.741909 
L 363.928797 174.52743 
L 366.466429 175.534521 
L 369.257825 176.888919 
L 372.049221 178.48899 
L 375.09438 180.496227 
L 378.393302 182.951965 
L 381.945987 185.885006 
L 386.006199 189.542663 
L 390.827701 194.204362 
L 398.440598 201.934684 
L 406.561022 210.092969 
L 411.12876 214.381415 
L 415.188972 217.888809 
L 418.741658 220.659777 
L 422.04058 222.941414 
L 425.085739 224.769522 
L 427.877135 226.191363 
L 430.66853 227.355584 
L 433.206163 228.180685 
L 435.743795 228.776762 
L 438.281428 229.13926 
L 440.81906 229.265683 
L 443.356693 229.155622 
L 445.894325 228.810757 
L 448.431957 228.23484 
L 450.96959 227.433667 
L 453.760986 226.301552 
L 456.552381 224.919376 
L 459.59754 223.14488 
L 462.642699 221.115314 
L 465.941621 218.660189 
L 469.74807 215.544875 
L 474.315808 211.494215 
L 480.406126 205.761542 
L 491.571709 195.203426 
L 496.139448 191.215284 
L 499.945896 188.169809 
L 503.498582 185.614542 
L 506.543741 183.680761 
L 509.5889 182.010772 
L 512.380295 180.730645 
L 515.171691 179.70515 
L 517.709323 179.003652 
L 520.246956 178.528858 
L 522.784588 178.285399 
L 525.322221 178.275842 
L 527.859853 178.500669 
L 530.397486 178.958272 
L 532.935118 179.644967 
L 535.472751 180.55503 
L 538.264146 181.80482 
L 541.055542 183.302556 
L 544.100701 185.200801 
L 547.399623 187.541636 
L 550.952309 190.354688 
L 555.01252 193.880045 
L 559.834022 198.391381 
L 566.939393 205.393568 
L 575.567343 213.839807 
L 580.388845 218.23676 
L 584.195294 221.425448 
L 586.732926 223.378306 
L 586.732926 223.378306 
" clip-path="url(#pa4f64cf30f)" style="fill: none; stroke-dasharray: 2.5,4.125; stroke-dashoffset: 0; stroke: #d62728; stroke-width: 2.5"/>
   </g>
   <g id="patch_3">
    <path d="M 54.096563 366.037812 
L 54.096563 33.397812 
" style="fill: none; stroke: #000000; stroke-width: 0.8; stroke-linejoin: miter; stroke-linecap: square"/>
   </g>
   <g id="patch_4">
    <path d="M 612.096563 366.037812 
L 612.096563 33.397812 
" style="fill: none; stroke: #000000; stroke-width: 0.8; stroke-linejoin: miter; stroke-linecap: square"/>
   </g>
   <g id="patch_5">
    <path d="M 54.096563 366.037812 
L 612.096563 366.037812 
" style="fill: none; stroke: #000000; stroke-width: 0.8; stroke-linejoin: miter; stroke-linecap: square"/>
   </g>
   <g id="patch_6">
    <path d="M 54.096563 33.397812 
L 612.096563 33.397812 
" style="fill: none; stroke: #000000; stroke-width: 0.8; stroke-linejoin: miter; stroke-linecap: square"/>
   </g>
   <g id="text_16">
    <!-- Respuesta Transitoria a 300 kHz (Senoidal, 100uV pico, 3 Ciclos) - 5 Vías -->
    <g transform="translate(79.040312 18.397812) scale(0.14 -0.14)">
     <defs>
      <path id="DejaVuSans-52" d="M 2841 2188 
Q 3044 2119 3236 1894 
Q 3428 1669 3622 1275 
L 4263 0 
L 3584 0 
L 2988 1197 
Q 2756 1666 2539 1819 
Q 2322 1972 1947 1972 
L 1259 1972 
L 1259 0 
L 628 0 
L 628 4666 
L 2053 4666 
Q 2853 4666 3247 4331 
Q 3641 3997 3641 3322 
Q 3641 2881 3436 2590 
Q 3231 2300 2841 2188 
z
M 1259 4147 
L 1259 2491 
L 2053 2491 
Q 2509 2491 2742 2702 
Q 2975 2913 2975 3322 
Q 2975 3731 2742 3939 
Q 2509 4147 2053 4147 
L 1259 4147 
z
" transform="scale(0.015625)"/>
      <path id="DejaVuSans-75" d="M 544 1381 
L 544 3500 
L 1119 3500 
L 1119 1403 
Q 1119 906 1312 657 
Q 1506 409 1894 409 
Q 2359 409 2629 706 
Q 2900 1003 2900 1516 
L 2900 3500 
L 3475 3500 
L 3475 0 
L 2900 0 
L 2900 538 
Q 2691 219 2414 64 
Q 2138 -91 1772 -91 
Q 1169 -91 856 284 
Q 544 659 544 1381 
z
M 1991 3584 
L 1991 3584 
z
" transform="scale(0.015625)"/>
      <path id="DejaVuSans-74" d="M 1172 4494 
L 1172 3500 
L 2356 3500 
L 2356 3053 
L 1172 3053 
L 1172 1153 
Q 1172 725 1289 603 
Q 1406 481 1766 481 
L 2356 481 
L 2356 0 
L 1766 0 
Q 1100 0 847 248 
Q 594 497 594 1153 
L 594 3053 
L 172 3053 
L 172 3500 
L 594 3500 
L 594 4494 
L 1172 4494 
z
" transform="scale(0.015625)"/>
      <path id="DejaVuSans-72" d="M 2631 2963 
Q 2534 3019 2420 3045 
Q 2306 3072 2169 3072 
Q 1681 3072 1420 2755 
Q 1159 2438 1159 1844 
L 1159 0 
L 581 0 
L 581 3500 
L 1159 3500 
L 1159 2956 
Q 1341 3275 1631 3429 
Q 1922 3584 2338 3584 
Q 2397 3584 2469 3576 
Q 2541 3569 2628 3553 
L 2631 2963 
z
" transform="scale(0.015625)"/>
      <path id="DejaVuSans-33" d="M 2597 2516 
Q 3050 2419 3304 2112 
Q 3559 1806 3559 1356 
Q 3559 666 3084 287 
Q 2609 -91 1734 -91 
Q 1441 -91 1130 -33 
Q 819 25 488 141 
L 488 750 
Q 750 597 1062 519 
Q 1375 441 1716 441 
Q 2309 441 2620 675 
Q 2931 909 2931 1356 
Q 2931 1769 2642 2001 
Q 2353 2234 1838 2234 
L 1294 2234 
L 1294 2753 
L 1863 2753 
Q 2328 2753 2575 2939 
Q 2822 3125 2822 3475 
Q 2822 3834 2567 4026 
Q 2313 4219 1838 4219 
Q 1578 4219 1281 4162 
Q 984 4106 628 3988 
L 628 4550 
Q 988 4650 1302 4700 
Q 1616 4750 1894 4750 
Q 2613 4750 3031 4423 
Q 3450 4097 3450 3541 
Q 3450 3153 3228 2886 
Q 3006 2619 2597 2516 
z
" transform="scale(0.015625)"/>
      <path id="DejaVuSans-6b" d="M 581 4863 
L 1159 4863 
L 1159 1991 
L 2875 3500 
L 3609 3500 
L 1753 1863 
L 3688 0 
L 2938 0 
L 1159 1709 
L 1159 0 
L 581 0 
L 581 4863 
z
" transform="scale(0.015625)"/>
      <path id="DejaVuSans-48" d="M 628 4666 
L 1259 4666 
L 1259 2753 
L 3553 2753 
L 3553 4666 
L 4184 4666 
L 4184 0 
L 3553 0 
L 3553 2222 
L 1259 2222 
L 1259 0 
L 628 0 
L 628 4666 
z
" transform="scale(0.015625)"/>
      <path id="DejaVuSans-7a" d="M 353 3500 
L 3084 3500 
L 3084 2975 
L 922 459 
L 3084 459 
L 3084 0 
L 275 0 
L 275 525 
L 2438 3041 
L 353 3041 
L 353 3500 
z
" transform="scale(0.015625)"/>
      <path id="DejaVuSans-2c" d="M 750 794 
L 1409 794 
L 1409 256 
L 897 -744 
L 494 -744 
L 750 256 
L 750 794 
z
" transform="scale(0.015625)"/>
      <path id="DejaVuSans-63" d="M 3122 3366 
L 3122 2828 
Q 2878 2963 2633 3030 
Q 2388 3097 2138 3097 
Q 1578 3097 1268 2742 
Q 959 2388 959 1747 
Q 959 1106 1268 751 
Q 1578 397 2138 397 
Q 2388 397 2633 464 
Q 2878 531 3122 666 
L 3122 134 
Q 2881 22 2623 -34 
Q 2366 -91 2075 -91 
Q 1284 -91 818 406 
Q 353 903 353 1747 
Q 353 2603 823 3093 
Q 1294 3584 2113 3584 
Q 2378 3584 2631 3529 
Q 2884 3475 3122 3366 
z
" transform="scale(0.015625)"/>
      <path id="DejaVuSans-43" d="M 4122 4306 
L 4122 3641 
Q 3803 3938 3442 4084 
Q 3081 4231 2675 4231 
Q 1875 4231 1450 3742 
Q 1025 3253 1025 2328 
Q 1025 1406 1450 917 
Q 1875 428 2675 428 
Q 3081 428 3442 575 
Q 3803 722 4122 1019 
L 4122 359 
Q 3791 134 3420 21 
Q 3050 -91 2638 -91 
Q 1578 -91 968 557 
Q 359 1206 359 2328 
Q 359 3453 968 4101 
Q 1578 4750 2638 4750 
Q 3056 4750 3426 4639 
Q 3797 4528 4122 4306 
z
" transform="scale(0.015625)"/>
      <path id="DejaVuSans-2d" d="M 313 2009 
L 1997 2009 
L 1997 1497 
L 313 1497 
L 313 2009 
z
" transform="scale(0.015625)"/>
      <path id="DejaVuSans-ed" d="M 1322 5119 
L 1944 5119 
L 926 3944 
L 447 3944 
L 1322 5119 
z
M 603 3500 
L 1178 3500 
L 1178 0 
L 603 0 
L 603 3500 
z
M 891 3584 
L 891 3584 
z
" transform="scale(0.015625)"/>
     </defs>
     <use xlink:href="#DejaVuSans-52"/>
     <use xlink:href="#DejaVuSans-65" transform="translate(64.982422 0)"/>
     <use xlink:href="#DejaVuSans-73" transform="translate(126.505859 0)"/>
     <use xlink:href="#DejaVuSans-70" transform="translate(178.605469 0)"/>
     <use xlink:href="#DejaVuSans-75" transform="translate(242.082031 0)"/>
     <use xlink:href="#DejaVuSans-65" transform="translate(305.460938 0)"/>
     <use xlink:href="#DejaVuSans-73" transform="translate(366.984375 0)"/>
     <use xlink:href="#DejaVuSans-74" transform="translate(419.083984 0)"/>
     <use xlink:href="#DejaVuSans-61" transform="translate(458.292969 0)"/>
     <use xlink:href="#DejaVuSans-20" transform="translate(519.572266 0)"/>
     <use xlink:href="#DejaVuSans-54" transform="translate(551.359375 0)"/>
     <use xlink:href="#DejaVuSans-72" transform="translate(597.693359 0)"/>
     <use xlink:href="#DejaVuSans-61" transform="translate(638.806641 0)"/>
     <use xlink:href="#DejaVuSans-6e" transform="translate(700.085938 0)"/>
     <use xlink:href="#DejaVuSans-73" transform="translate(763.464844 0)"/>
     <use xlink:href="#DejaVuSans-69" transform="translate(815.564453 0)"/>
     <use xlink:href="#DejaVuSans-74" transform="translate(843.347656 0)"/>
     <use xlink:href="#DejaVuSans-6f" transform="translate(882.556641 0)"/>
     <use xlink:href="#DejaVuSans-72" transform="translate(943.738281 0)"/>
     <use xlink:href="#DejaVuSans-69" transform="translate(984.851562 0)"/>
     <use xlink:href="#DejaVuSans-61" transform="translate(1012.634766 0)"/>
     <use xlink:href="#DejaVuSans-20" transform="translate(1073.914062 0)"/>
     <use xlink:href="#DejaVuSans-61" transform="translate(1105.701172 0)"/>
     <use xlink:href="#DejaVuSans-20" transform="translate(1166.980469 0)"/>
     <use xlink:href="#DejaVuSans-33" transform="translate(1198.767578 0)"/>
     <use xlink:href="#DejaVuSans-30" transform="translate(1262.390625 0)"/>
     <use xlink:href="#DejaVuSans-30" transform="translate(1326.013672 0)"/>
     <use xlink:href="#DejaVuSans-20" transform="translate(1389.636719 0)"/>
     <use xlink:href="#DejaVuSans-6b" transform="translate(1421.423828 0)"/>
     <use xlink:href="#DejaVuSans-48" transform="translate(1479.333984 0)"/>
     <use xlink:href="#DejaVuSans-7a" transform="translate(1554.529297 0)"/>
     <use xlink:href="#DejaVuSans-20" transform="translate(1607.019531 0)"/>
     <use xlink:href="#DejaVuSans-28" transform="translate(1638.806641 0)"/>
     <use xlink:href="#DejaVuSans-53" transform="translate(1677.820312 0)"/>
     <use xlink:href="#DejaVuSans-65" transform="translate(1741.296875 0)"/>
     <use xlink:href="#DejaVuSans-6e" transform="translate(1802.820312 0)"/>
     <use xlink:href="#DejaVuSans-6f" transform="translate(1866.199219 0)"/>
     <use xlink:href="#DejaVuSans-69" transform="translate(1927.380859 0)"/>
     <use xlink:href="#DejaVuSans-64" transform="translate(1955.164062 0)"/>
     <use xlink:href="#DejaVuSans-61" transform="translate(2018.640625 0)"/>
     <use xlink:href="#DejaVuSans-6c" transform="translate(2079.919922 0)"/>
     <use xlink:href="#DejaVuSans-2c" transform="translate(2107.703125 0)"/>
     <use xlink:href="#DejaVuSans-20" transform="translate(2139.490234 0)"/>
     <use xlink:href="#DejaVuSans-31" transform="translate(2171.277344 0)"/>
     <use xlink:href="#DejaVuSans-30" transform="translate(2234.900391 0)"/>
     <use xlink:href="#DejaVuSans-30" transform="translate(2298.523438 0)"/>
     <use xlink:href="#DejaVuSans-75" transform="translate(2362.146484 0)"/>
     <use xlink:href="#DejaVuSans-56" transform="translate(2425.525391 0)"/>
     <use xlink:href="#DejaVuSans-20" transform="translate(2493.933594 0)"/>
     <use xlink:href="#DejaVuSans-70" transform="translate(2525.720703 0)"/>
     <use xlink:href="#DejaVuSans-69" transform="translate(2589.197266 0)"/>
     <use xlink:href="#DejaVuSans-63" transform="translate(2616.980469 0)"/>
     <use xlink:href="#DejaVuSans-6f" transform="translate(2671.960938 0)"/>
     <use xlink:href="#DejaVuSans-2c" transform="translate(2733.142578 0)"/>
     <use xlink:href="#DejaVuSans-20" transform="translate(2764.929688 0)"/>
     <use xlink:href="#DejaVuSans-33" transform="translate(2796.716797 0)"/>
     <use xlink:href="#DejaVuSans-20" transform="translate(2860.339844 0)"/>
     <use xlink:href="#DejaVuSans-43" transform="translate(2892.126953 0)"/>
     <use xlink:href="#DejaVuSans-69" transform="translate(2961.951172 0)"/>
     <use xlink:href="#DejaVuSans-63" transform="translate(2989.734375 0)"/>
     <use xlink:href="#DejaVuSans-6c" transform="translate(3044.714844 0)"/>
     <use xlink:href="#DejaVuSans-6f" transform="translate(3072.498047 0)"/>
     <use xlink:href="#DejaVuSans-73" transform="translate(3133.679688 0)"/>
     <use xlink:href="#DejaVuSans-29" transform="translate(3185.779297 0)"/>
     <use xlink:href="#DejaVuSans-20" transform="translate(3224.792969 0)"/>
     <use xlink:href="#DejaVuSans-2d" transform="translate(3256.580078 0)"/>
     <use xlink:href="#DejaVuSans-20" transform="translate(3292.664062 0)"/>
     <use xlink:href="#DejaVuSans-35" transform="translate(3324.451172 0)"/>
     <use xlink:href="#DejaVuSans-20" transform="translate(3388.074219 0)"/>
     <use xlink:href="#DejaVuSans-56" transform="translate(3419.861328 0)"/>
     <use xlink:href="#DejaVuSans-ed" transform="translate(3488.269531 0)"/>
     <use xlink:href="#DejaVuSans-61" transform="translate(3516.052734 0)"/>
     <use xlink:href="#DejaVuSans-73" transform="translate(3577.332031 0)"/>
    </g>
   </g>
   <g id="legend_1">
    <g id="patch_7">
     <path d="M 461.308906 122.9275 
L 604.396562 122.9275 
Q 606.596563 122.9275 606.596563 120.7275 
L 606.596563 41.097812 
Q 606.596563 38.897812 604.396562 38.897812 
L 461.308906 38.897812 
Q 459.108906 38.897812 459.108906 41.097812 
L 459.108906 120.7275 
Q 459.108906 122.9275 461.308906 122.9275 
z
" style="fill: #ffffff; opacity: 0.8; stroke: #cccccc; stroke-linejoin: miter"/>
    </g>
    <g id="line2d_32">
     <path d="M 463.508906 47.806094 
L 474.508906 47.806094 
L 485.508906 47.806094 
" style="fill: none; stroke: #1f77b4; stroke-width: 2.5; stroke-linecap: square"/>
    </g>
    <g id="text_17">
     <!-- Ideal Op-Amp -->
     <g transform="translate(494.308906 51.656094) scale(0.11 -0.11)">
      <defs>
       <path id="DejaVuSans-49" d="M 628 4666 
L 1259 4666 
L 1259 0 
L 628 0 
L 628 4666 
z
" transform="scale(0.015625)"/>
       <path id="DejaVuSans-4f" d="M 2522 4238 
Q 1834 4238 1429 3725 
Q 1025 3213 1025 2328 
Q 1025 1447 1429 934 
Q 1834 422 2522 422 
Q 3209 422 3611 934 
Q 4013 1447 4013 2328 
Q 4013 3213 3611 3725 
Q 3209 4238 2522 4238 
z
M 2522 4750 
Q 3503 4750 4090 4092 
Q 4678 3434 4678 2328 
Q 4678 1225 4090 567 
Q 3503 -91 2522 -91 
Q 1538 -91 948 565 
Q 359 1222 359 2328 
Q 359 3434 948 4092 
Q 1538 4750 2522 4750 
z
" transform="scale(0.015625)"/>
       <path id="DejaVuSans-41" d="M 2188 4044 
L 1331 1722 
L 3047 1722 
L 2188 4044 
z
M 1831 4666 
L 2547 4666 
L 4325 0 
L 3669 0 
L 3244 1197 
L 1141 1197 
L 716 0 
L 50 0 
L 1831 4666 
z
" transform="scale(0.015625)"/>
      </defs>
      <use xlink:href="#DejaVuSans-49"/>
      <use xlink:href="#DejaVuSans-64" transform="translate(29.492188 0)"/>
      <use xlink:href="#DejaVuSans-65" transform="translate(92.96875 0)"/>
      <use xlink:href="#DejaVuSans-61" transform="translate(154.492188 0)"/>
      <use xlink:href="#DejaVuSans-6c" transform="translate(215.771484 0)"/>
      <use xlink:href="#DejaVuSans-20" transform="translate(243.554688 0)"/>
      <use xlink:href="#DejaVuSans-4f" transform="translate(275.341797 0)"/>
      <use xlink:href="#DejaVuSans-70" transform="translate(354.052734 0)"/>
      <use xlink:href="#DejaVuSans-2d" transform="translate(417.529297 0)"/>
      <use xlink:href="#DejaVuSans-41" transform="translate(451.363281 0)"/>
      <use xlink:href="#DejaVuSans-6d" transform="translate(519.771484 0)"/>
      <use xlink:href="#DejaVuSans-70" transform="translate(617.183594 0)"/>
     </g>
    </g>
    <g id="line2d_33">
     <path d="M 463.508906 63.952031 
L 474.508906 63.952031 
L 485.508906 63.952031 
" style="fill: none; stroke: #ff7f0e; stroke-width: 3; stroke-linecap: square"/>
    </g>
    <g id="text_18">
     <!-- ADA4817-1 FastFET -->
     <g transform="translate(494.308906 67.802031) scale(0.11 -0.11)">
      <defs>
       <path id="DejaVuSans-44" d="M 1259 4147 
L 1259 519 
L 2022 519 
Q 2988 519 3436 956 
Q 3884 1394 3884 2338 
Q 3884 3275 3436 3711 
Q 2988 4147 2022 4147 
L 1259 4147 
z
M 628 4666 
L 1925 4666 
Q 3281 4666 3915 4102 
Q 4550 3538 4550 2338 
Q 4550 1131 3912 565 
Q 3275 0 1925 0 
L 628 0 
L 628 4666 
z
" transform="scale(0.015625)"/>
       <path id="DejaVuSans-37" d="M 525 4666 
L 3525 4666 
L 3525 4397 
L 1831 0 
L 1172 0 
L 2766 4134 
L 525 4134 
L 525 4666 
z
" transform="scale(0.015625)"/>
       <path id="DejaVuSans-46" d="M 628 4666 
L 3309 4666 
L 3309 4134 
L 1259 4134 
L 1259 2759 
L 3109 2759 
L 3109 2228 
L 1259 2228 
L 1259 0 
L 628 0 
L 628 4666 
z
" transform="scale(0.015625)"/>
       <path id="DejaVuSans-45" d="M 628 4666 
L 3578 4666 
L 3578 4134 
L 1259 4134 
L 1259 2753 
L 3481 2753 
L 3481 2222 
L 1259 2222 
L 1259 531 
L 3634 531 
L 3634 0 
L 628 0 
L 628 4666 
z
" transform="scale(0.015625)"/>
      </defs>
      <use xlink:href="#DejaVuSans-41"/>
      <use xlink:href="#DejaVuSans-44" transform="translate(68.408203 0)"/>
      <use xlink:href="#DejaVuSans-41" transform="translate(143.660156 0)"/>
      <use xlink:href="#DejaVuSans-34" transform="translate(212.068359 0)"/>
      <use xlink:href="#DejaVuSans-38" transform="translate(275.691406 0)"/>
      <use xlink:href="#DejaVuSans-31" transform="translate(339.314453 0)"/>
      <use xlink:href="#DejaVuSans-37" transform="translate(402.9375 0)"/>
      <use xlink:href="#DejaVuSans-2d" transform="translate(466.560547 0)"/>
      <use xlink:href="#DejaVuSans-31" transform="translate(502.644531 0)"/>
      <use xlink:href="#DejaVuSans-20" transform="translate(566.267578 0)"/>
      <use xlink:href="#DejaVuSans-46" transform="translate(598.054688 0)"/>
      <use xlink:href="#DejaVuSans-61" transform="translate(646.449219 0)"/>
      <use xlink:href="#DejaVuSans-73" transform="translate(707.728516 0)"/>
      <use xlink:href="#DejaVuSans-74" transform="translate(759.828125 0)"/>
      <use xlink:href="#DejaVuSans-46" transform="translate(799.037109 0)"/>
      <use xlink:href="#DejaVuSans-45" transform="translate(856.556641 0)"/>
      <use xlink:href="#DejaVuSans-54" transform="translate(919.740234 0)"/>
     </g>
    </g>
    <g id="line2d_34">
     <path d="M 463.508906 80.097969 
L 474.508906 80.097969 
L 485.508906 80.097969 
" style="fill: none; stroke-dasharray: 16,4,2.5,4; stroke-dashoffset: 0; stroke: #9467bd; stroke-width: 2.5"/>
    </g>
    <g id="text_19">
     <!-- OPA828 JFET -->
     <g transform="translate(494.308906 83.947969) scale(0.11 -0.11)">
      <defs>
       <path id="DejaVuSans-50" d="M 1259 4147 
L 1259 2394 
L 2053 2394 
Q 2494 2394 2734 2622 
Q 2975 2850 2975 3272 
Q 2975 3691 2734 3919 
Q 2494 4147 2053 4147 
L 1259 4147 
z
M 628 4666 
L 2053 4666 
Q 2838 4666 3239 4311 
Q 3641 3956 3641 3272 
Q 3641 2581 3239 2228 
Q 2838 1875 2053 1875 
L 1259 1875 
L 1259 0 
L 628 0 
L 628 4666 
z
" transform="scale(0.015625)"/>
       <path id="DejaVuSans-4a" d="M 628 4666 
L 1259 4666 
L 1259 325 
Q 1259 -519 939 -900 
Q 619 -1281 -91 -1281 
L -331 -1281 
L -331 -750 
L -134 -750 
Q 284 -750 456 -515 
Q 628 -281 628 325 
L 628 4666 
z
" transform="scale(0.015625)"/>
      </defs>
      <use xlink:href="#DejaVuSans-4f"/>
      <use xlink:href="#DejaVuSans-50" transform="translate(78.710938 0)"/>
      <use xlink:href="#DejaVuSans-41" transform="translate(132.638672 0)"/>
      <use xlink:href="#DejaVuSans-38" transform="translate(201.046875 0)"/>
      <use xlink:href="#DejaVuSans-32" transform="translate(264.669922 0)"/>
      <use xlink:href="#DejaVuSans-38" transform="translate(328.292969 0)"/>
      <use xlink:href="#DejaVuSans-20" transform="translate(391.916016 0)"/>
      <use xlink:href="#DejaVuSans-4a" transform="translate(423.703125 0)"/>
      <use xlink:href="#DejaVuSans-46" transform="translate(453.195312 0)"/>
      <use xlink:href="#DejaVuSans-45" transform="translate(510.714844 0)"/>
      <use xlink:href="#DejaVuSans-54" transform="translate(573.898438 0)"/>
     </g>
    </g>
    <g id="line2d_35">
     <path d="M 463.508906 96.243906 
L 474.508906 96.243906 
L 485.508906 96.243906 
" style="fill: none; stroke-dasharray: 9.25,4; stroke-dashoffset: 0; stroke: #2ca02c; stroke-width: 2.5"/>
    </g>
    <g id="text_20">
     <!-- LF357 JFET -->
     <g transform="translate(494.308906 100.093906) scale(0.11 -0.11)">
      <defs>
       <path id="DejaVuSans-4c" d="M 628 4666 
L 1259 4666 
L 1259 531 
L 3531 531 
L 3531 0 
L 628 0 
L 628 4666 
z
" transform="scale(0.015625)"/>
      </defs>
      <use xlink:href="#DejaVuSans-4c"/>
      <use xlink:href="#DejaVuSans-46" transform="translate(55.712891 0)"/>
      <use xlink:href="#DejaVuSans-33" transform="translate(113.232422 0)"/>
      <use xlink:href="#DejaVuSans-35" transform="translate(176.855469 0)"/>
      <use xlink:href="#DejaVuSans-37" transform="translate(240.478516 0)"/>
      <use xlink:href="#DejaVuSans-20" transform="translate(304.101562 0)"/>
      <use xlink:href="#DejaVuSans-4a" transform="translate(335.888672 0)"/>
      <use xlink:href="#DejaVuSans-46" transform="translate(365.380859 0)"/>
      <use xlink:href="#DejaVuSans-45" transform="translate(422.900391 0)"/>
      <use xlink:href="#DejaVuSans-54" transform="translate(486.083984 0)"/>
     </g>
    </g>
    <g id="line2d_36">
     <path d="M 463.508906 112.389844 
L 474.508906 112.389844 
L 485.508906 112.389844 
" style="fill: none; stroke-dasharray: 2.5,4.125; stroke-dashoffset: 0; stroke: #d62728; stroke-width: 2.5"/>
    </g>
    <g id="text_21">
     <!-- TL071 JFET -->
     <g transform="translate(494.308906 116.239844) scale(0.11 -0.11)">
      <use xlink:href="#DejaVuSans-54"/>
      <use xlink:href="#DejaVuSans-4c" transform="translate(61.083984 0)"/>
      <use xlink:href="#DejaVuSans-30" transform="translate(116.796875 0)"/>
      <use xlink:href="#DejaVuSans-37" transform="translate(180.419922 0)"/>
      <use xlink:href="#DejaVuSans-31" transform="translate(244.042969 0)"/>
      <use xlink:href="#DejaVuSans-20" transform="translate(307.666016 0)"/>
      <use xlink:href="#DejaVuSans-4a" transform="translate(339.453125 0)"/>
      <use xlink:href="#DejaVuSans-46" transform="translate(368.945312 0)"/>
      <use xlink:href="#DejaVuSans-45" transform="translate(426.464844 0)"/>
      <use xlink:href="#DejaVuSans-54" transform="translate(489.648438 0)"/>
     </g>
    </g>
   </g>
  </g>
 </g>
 <defs>
  <clipPath id="pa4f64cf30f">
   <rect x="54.096563" y="33.397812" width="558" height="332.64"/>
  </clipPath>
 </defs>
</svg>
