<?xml version="1.0" encoding="utf-8" standalone="no"?>
<!DOCTYPE svg PUBLIC "-//W3C//DTD SVG 1.1//EN"
  "http://www.w3.org/Graphics/SVG/1.1/DTD/svg11.dtd">
<svg xmlns:xlink="http://www.w3.org/1999/xlink" width="619.296562pt" height="405.529687pt" viewBox="0 0 619.296562 405.529687" xmlns="http://www.w3.org/2000/svg" version="1.1">
 <metadata>
  <rdf:RDF xmlns:dc="http://purl.org/dc/elements/1.1/" xmlns:cc="http://creativecommons.org/ns#" xmlns:rdf="http://www.w3.org/1999/02/22-rdf-syntax-ns#">
   <cc:Work>
    <dc:type rdf:resource="http://purl.org/dc/dcmitype/StillImage"/>
    <dc:date>2026-05-24T18:38:25.224187</dc:date>
    <dc:format>image/svg+xml</dc:format>
    <dc:creator>
     <cc:Agent>
      <dc:title>Matplotlib v3.10.9, https://matplotlib.org/</dc:title>
     </cc:Agent>
    </dc:creator>
   </cc:Work>
  </rdf:RDF>
 </metadata>
 <defs>
  <style type="text/css">*{stroke-linejoin: round; stroke-linecap: butt}</style>
 </defs>
 <g id="figure_1">
  <g id="patch_1">
   <path d="M 0 405.529687 
L 619.296562 405.529687 
L 619.296562 0 
L 0 0 
z
" style="fill: #ffffff"/>
  </g>
  <g id="axes_1">
   <g id="patch_2">
    <path d="M 54.096563 366.037812 
L 612.096563 366.037812 
L 612.096563 33.397812 
L 54.096563 33.397812 
z
" style="fill: #ffffff"/>
   </g>
   <g id="matplotlib.axis_1">
    <g id="xtick_1">
     <g id="line2d_1">
      <path d="M 79.460199 366.037812 
L 79.460199 33.397812 
" clip-path="url(#pa62246188c)" style="fill: none; stroke: #e0e0e0; stroke-width: 0.8; stroke-linecap: square"/>
     </g>
     <g id="line2d_2">
      <defs>
       <path id="me433d0357e" d="M 0 0 
L 0 3.5 
" style="stroke: #000000; stroke-width: 0.8"/>
      </defs>
      <g>
       <use xlink:href="#me433d0357e" x="79.460199" y="366.037812" style="stroke: #000000; stroke-width: 0.8"/>
      </g>
     </g>
     <g id="text_1">
      <!-- 0 -->
      <g transform="translate(76.278949 380.63625) scale(0.1 -0.1)">
       <defs>
        <path id="DejaVuSans-30" d="M 2034 4250 
Q 1547 4250 1301 3770 
Q 1056 3291 1056 2328 
Q 1056 1369 1301 889 
Q 1547 409 2034 409 
Q 2525 409 2770 889 
Q 3016 1369 3016 2328 
Q 3016 3291 2770 3770 
Q 2525 4250 2034 4250 
z
M 2034 4750 
Q 2819 4750 3233 4129 
Q 3647 3509 3647 2328 
Q 3647 1150 3233 529 
Q 2819 -91 2034 -91 
Q 1250 -91 836 529 
Q 422 1150 422 2328 
Q 422 3509 836 4129 
Q 1250 4750 2034 4750 
z
" transform="scale(0.015625)"/>
       </defs>
       <use xlink:href="#DejaVuSans-30"/>
      </g>
     </g>
    </g>
    <g id="xtick_2">
     <g id="line2d_3">
      <path d="M 164.005653 366.037812 
L 164.005653 33.397812 
" clip-path="url(#pa62246188c)" style="fill: none; stroke: #e0e0e0; stroke-width: 0.8; stroke-linecap: square"/>
     </g>
     <g id="line2d_4">
      <g>
       <use xlink:href="#me433d0357e" x="164.005653" y="366.037812" style="stroke: #000000; stroke-width: 0.8"/>
      </g>
     </g>
     <g id="text_2">
      <!-- 2 -->
      <g transform="translate(160.824403 380.63625) scale(0.1 -0.1)">
       <defs>
        <path id="DejaVuSans-32" d="M 1228 531 
L 3431 531 
L 3431 0 
L 469 0 
L 469 531 
Q 828 903 1448 1529 
Q 2069 2156 2228 2338 
Q 2531 2678 2651 2914 
Q 2772 3150 2772 3378 
Q 2772 3750 2511 3984 
Q 2250 4219 1831 4219 
Q 1534 4219 1204 4116 
Q 875 4013 500 3803 
L 500 4441 
Q 881 4594 1212 4672 
Q 1544 4750 1819 4750 
Q 2544 4750 2975 4387 
Q 3406 4025 3406 3419 
Q 3406 3131 3298 2873 
Q 3191 2616 2906 2266 
Q 2828 2175 2409 1742 
Q 1991 1309 1228 531 
z
" transform="scale(0.015625)"/>
       </defs>
       <use xlink:href="#DejaVuSans-32"/>
      </g>
     </g>
    </g>
    <g id="xtick_3">
     <g id="line2d_5">
      <path d="M 248.551108 366.037812 
L 248.551108 33.397812 
" clip-path="url(#pa62246188c)" style="fill: none; stroke: #e0e0e0; stroke-width: 0.8; stroke-linecap: square"/>
     </g>
     <g id="line2d_6">
      <g>
       <use xlink:href="#me433d0357e" x="248.551108" y="366.037812" style="stroke: #000000; stroke-width: 0.8"/>
      </g>
     </g>
     <g id="text_3">
      <!-- 4 -->
      <g transform="translate(245.369858 380.63625) scale(0.1 -0.1)">
       <defs>
        <path id="DejaVuSans-34" d="M 2419 4116 
L 825 1625 
L 2419 1625 
L 2419 4116 
z
M 2253 4666 
L 3047 4666 
L 3047 1625 
L 3713 1625 
L 3713 1100 
L 3047 1100 
L 3047 0 
L 2419 0 
L 2419 1100 
L 313 1100 
L 313 1709 
L 2253 4666 
z
" transform="scale(0.015625)"/>
       </defs>
       <use xlink:href="#DejaVuSans-34"/>
      </g>
     </g>
    </g>
    <g id="xtick_4">
     <g id="line2d_7">
      <path d="M 333.096563 366.037812 
L 333.096563 33.397812 
" clip-path="url(#pa62246188c)" style="fill: none; stroke: #e0e0e0; stroke-width: 0.8; stroke-linecap: square"/>
     </g>
     <g id="line2d_8">
      <g>
       <use xlink:href="#me433d0357e" x="333.096563" y="366.037812" style="stroke: #000000; stroke-width: 0.8"/>
      </g>
     </g>
     <g id="text_4">
      <!-- 6 -->
      <g transform="translate(329.915313 380.63625) scale(0.1 -0.1)">
       <defs>
        <path id="DejaVuSans-36" d="M 2113 2584 
Q 1688 2584 1439 2293 
Q 1191 2003 1191 1497 
Q 1191 994 1439 701 
Q 1688 409 2113 409 
Q 2538 409 2786 701 
Q 3034 994 3034 1497 
Q 3034 2003 2786 2293 
Q 2538 2584 2113 2584 
z
M 3366 4563 
L 3366 3988 
Q 3128 4100 2886 4159 
Q 2644 4219 2406 4219 
Q 1781 4219 1451 3797 
Q 1122 3375 1075 2522 
Q 1259 2794 1537 2939 
Q 1816 3084 2150 3084 
Q 2853 3084 3261 2657 
Q 3669 2231 3669 1497 
Q 3669 778 3244 343 
Q 2819 -91 2113 -91 
Q 1303 -91 875 529 
Q 447 1150 447 2328 
Q 447 3434 972 4092 
Q 1497 4750 2381 4750 
Q 2619 4750 2861 4703 
Q 3103 4656 3366 4563 
z
" transform="scale(0.015625)"/>
       </defs>
       <use xlink:href="#DejaVuSans-36"/>
      </g>
     </g>
    </g>
    <g id="xtick_5">
     <g id="line2d_9">
      <path d="M 417.642017 366.037812 
L 417.642017 33.397812 
" clip-path="url(#pa62246188c)" style="fill: none; stroke: #e0e0e0; stroke-width: 0.8; stroke-linecap: square"/>
     </g>
     <g id="line2d_10">
      <g>
       <use xlink:href="#me433d0357e" x="417.642017" y="366.037812" style="stroke: #000000; stroke-width: 0.8"/>
      </g>
     </g>
     <g id="text_5">
      <!-- 8 -->
      <g transform="translate(414.460767 380.63625) scale(0.1 -0.1)">
       <defs>
        <path id="DejaVuSans-38" d="M 2034 2216 
Q 1584 2216 1326 1975 
Q 1069 1734 1069 1313 
Q 1069 891 1326 650 
Q 1584 409 2034 409 
Q 2484 409 2743 651 
Q 3003 894 3003 1313 
Q 3003 1734 2745 1975 
Q 2488 2216 2034 2216 
z
M 1403 2484 
Q 997 2584 770 2862 
Q 544 3141 544 3541 
Q 544 4100 942 4425 
Q 1341 4750 2034 4750 
Q 2731 4750 3128 4425 
Q 3525 4100 3525 3541 
Q 3525 3141 3298 2862 
Q 3072 2584 2669 2484 
Q 3125 2378 3379 2068 
Q 3634 1759 3634 1313 
Q 3634 634 3220 271 
Q 2806 -91 2034 -91 
Q 1263 -91 848 271 
Q 434 634 434 1313 
Q 434 1759 690 2068 
Q 947 2378 1403 2484 
z
M 1172 3481 
Q 1172 3119 1398 2916 
Q 1625 2713 2034 2713 
Q 2441 2713 2670 2916 
Q 2900 3119 2900 3481 
Q 2900 3844 2670 4047 
Q 2441 4250 2034 4250 
Q 1625 4250 1398 4047 
Q 1172 3844 1172 3481 
z
" transform="scale(0.015625)"/>
       </defs>
       <use xlink:href="#DejaVuSans-38"/>
      </g>
     </g>
    </g>
    <g id="xtick_6">
     <g id="line2d_11">
      <path d="M 502.187472 366.037812 
L 502.187472 33.397812 
" clip-path="url(#pa62246188c)" style="fill: none; stroke: #e0e0e0; stroke-width: 0.8; stroke-linecap: square"/>
     </g>
     <g id="line2d_12">
      <g>
       <use xlink:href="#me433d0357e" x="502.187472" y="366.037812" style="stroke: #000000; stroke-width: 0.8"/>
      </g>
     </g>
     <g id="text_6">
      <!-- 10 -->
      <g transform="translate(495.824972 380.63625) scale(0.1 -0.1)">
       <defs>
        <path id="DejaVuSans-31" d="M 794 531 
L 1825 531 
L 1825 4091 
L 703 3866 
L 703 4441 
L 1819 4666 
L 2450 4666 
L 2450 531 
L 3481 531 
L 3481 0 
L 794 0 
L 794 531 
z
" transform="scale(0.015625)"/>
       </defs>
       <use xlink:href="#DejaVuSans-31"/>
       <use xlink:href="#DejaVuSans-30" transform="translate(63.623047 0)"/>
      </g>
     </g>
    </g>
    <g id="xtick_7">
     <g id="line2d_13">
      <path d="M 586.732926 366.037812 
L 586.732926 33.397812 
" clip-path="url(#pa62246188c)" style="fill: none; stroke: #e0e0e0; stroke-width: 0.8; stroke-linecap: square"/>
     </g>
     <g id="line2d_14">
      <g>
       <use xlink:href="#me433d0357e" x="586.732926" y="366.037812" style="stroke: #000000; stroke-width: 0.8"/>
      </g>
     </g>
     <g id="text_7">
      <!-- 12 -->
      <g transform="translate(580.370426 380.63625) scale(0.1 -0.1)">
       <use xlink:href="#DejaVuSans-31"/>
       <use xlink:href="#DejaVuSans-32" transform="translate(63.623047 0)"/>
      </g>
     </g>
    </g>
    <g id="text_8">
     <!-- Tiempo (μs) -->
     <g transform="translate(297.404063 395.834062) scale(0.12 -0.12)">
      <defs>
       <path id="DejaVuSans-54" d="M -19 4666 
L 3928 4666 
L 3928 4134 
L 2272 4134 
L 2272 0 
L 1638 0 
L 1638 4134 
L -19 4134 
L -19 4666 
z
" transform="scale(0.015625)"/>
       <path id="DejaVuSans-69" d="M 603 3500 
L 1178 3500 
L 1178 0 
L 603 0 
L 603 3500 
z
M 603 4863 
L 1178 4863 
L 1178 4134 
L 603 4134 
L 603 4863 
z
" transform="scale(0.015625)"/>
       <path id="DejaVuSans-65" d="M 3597 1894 
L 3597 1613 
L 953 1613 
Q 991 1019 1311 708 
Q 1631 397 2203 397 
Q 2534 397 2845 478 
Q 3156 559 3463 722 
L 3463 178 
Q 3153 47 2828 -22 
Q 2503 -91 2169 -91 
Q 1331 -91 842 396 
Q 353 884 353 1716 
Q 353 2575 817 3079 
Q 1281 3584 2069 3584 
Q 2775 3584 3186 3129 
Q 3597 2675 3597 1894 
z
M 3022 2063 
Q 3016 2534 2758 2815 
Q 2500 3097 2075 3097 
Q 1594 3097 1305 2825 
Q 1016 2553 972 2059 
L 3022 2063 
z
" transform="scale(0.015625)"/>
       <path id="DejaVuSans-6d" d="M 3328 2828 
Q 3544 3216 3844 3400 
Q 4144 3584 4550 3584 
Q 5097 3584 5394 3201 
Q 5691 2819 5691 2113 
L 5691 0 
L 5113 0 
L 5113 2094 
Q 5113 2597 4934 2840 
Q 4756 3084 4391 3084 
Q 3944 3084 3684 2787 
Q 3425 2491 3425 1978 
L 3425 0 
L 2847 0 
L 2847 2094 
Q 2847 2600 2669 2842 
Q 2491 3084 2119 3084 
Q 1678 3084 1418 2786 
Q 1159 2488 1159 1978 
L 1159 0 
L 581 0 
L 581 3500 
L 1159 3500 
L 1159 2956 
Q 1356 3278 1631 3431 
Q 1906 3584 2284 3584 
Q 2666 3584 2933 3390 
Q 3200 3197 3328 2828 
z
" transform="scale(0.015625)"/>
       <path id="DejaVuSans-70" d="M 1159 525 
L 1159 -1331 
L 581 -1331 
L 581 3500 
L 1159 3500 
L 1159 2969 
Q 1341 3281 1617 3432 
Q 1894 3584 2278 3584 
Q 2916 3584 3314 3078 
Q 3713 2572 3713 1747 
Q 3713 922 3314 415 
Q 2916 -91 2278 -91 
Q 1894 -91 1617 61 
Q 1341 213 1159 525 
z
M 3116 1747 
Q 3116 2381 2855 2742 
Q 2594 3103 2138 3103 
Q 1681 3103 1420 2742 
Q 1159 2381 1159 1747 
Q 1159 1113 1420 752 
Q 1681 391 2138 391 
Q 2594 391 2855 752 
Q 3116 1113 3116 1747 
z
" transform="scale(0.015625)"/>
       <path id="DejaVuSans-6f" d="M 1959 3097 
Q 1497 3097 1228 2736 
Q 959 2375 959 1747 
Q 959 1119 1226 758 
Q 1494 397 1959 397 
Q 2419 397 2687 759 
Q 2956 1122 2956 1747 
Q 2956 2369 2687 2733 
Q 2419 3097 1959 3097 
z
M 1959 3584 
Q 2709 3584 3137 3096 
Q 3566 2609 3566 1747 
Q 3566 888 3137 398 
Q 2709 -91 1959 -91 
Q 1206 -91 779 398 
Q 353 888 353 1747 
Q 353 2609 779 3096 
Q 1206 3584 1959 3584 
z
" transform="scale(0.015625)"/>
       <path id="DejaVuSans-20" transform="scale(0.015625)"/>
       <path id="DejaVuSans-28" d="M 1984 4856 
Q 1566 4138 1362 3434 
Q 1159 2731 1159 2009 
Q 1159 1288 1364 580 
Q 1569 -128 1984 -844 
L 1484 -844 
Q 1016 -109 783 600 
Q 550 1309 550 2009 
Q 550 2706 781 3412 
Q 1013 4119 1484 4856 
L 1984 4856 
z
" transform="scale(0.015625)"/>
       <path id="DejaVuSans-3bc" d="M 544 -1331 
L 544 3500 
L 1119 3500 
L 1119 1325 
Q 1119 872 1334 640 
Q 1550 409 1972 409 
Q 2434 409 2667 671 
Q 2900 934 2900 1459 
L 2900 3500 
L 3475 3500 
L 3475 806 
Q 3475 619 3529 530 
Q 3584 441 3700 441 
Q 3728 441 3778 458 
Q 3828 475 3916 513 
L 3916 50 
Q 3788 -22 3673 -56 
Q 3559 -91 3450 -91 
Q 3234 -91 3106 31 
Q 2978 153 2931 403 
Q 2775 156 2548 32 
Q 2322 -91 2016 -91 
Q 1697 -91 1473 31 
Q 1250 153 1119 397 
L 1119 -1331 
L 544 -1331 
z
" transform="scale(0.015625)"/>
       <path id="DejaVuSans-73" d="M 2834 3397 
L 2834 2853 
Q 2591 2978 2328 3040 
Q 2066 3103 1784 3103 
Q 1356 3103 1142 2972 
Q 928 2841 928 2578 
Q 928 2378 1081 2264 
Q 1234 2150 1697 2047 
L 1894 2003 
Q 2506 1872 2764 1633 
Q 3022 1394 3022 966 
Q 3022 478 2636 193 
Q 2250 -91 1575 -91 
Q 1294 -91 989 -36 
Q 684 19 347 128 
L 347 722 
Q 666 556 975 473 
Q 1284 391 1588 391 
Q 1994 391 2212 530 
Q 2431 669 2431 922 
Q 2431 1156 2273 1281 
Q 2116 1406 1581 1522 
L 1381 1569 
Q 847 1681 609 1914 
Q 372 2147 372 2553 
Q 372 3047 722 3315 
Q 1072 3584 1716 3584 
Q 2034 3584 2315 3537 
Q 2597 3491 2834 3397 
z
" transform="scale(0.015625)"/>
       <path id="DejaVuSans-29" d="M 513 4856 
L 1013 4856 
Q 1481 4119 1714 3412 
Q 1947 2706 1947 2009 
Q 1947 1309 1714 600 
Q 1481 -109 1013 -844 
L 513 -844 
Q 928 -128 1133 580 
Q 1338 1288 1338 2009 
Q 1338 2731 1133 3434 
Q 928 4138 513 4856 
z
" transform="scale(0.015625)"/>
      </defs>
      <use xlink:href="#DejaVuSans-54"/>
      <use xlink:href="#DejaVuSans-69" transform="translate(57.958984 0)"/>
      <use xlink:href="#DejaVuSans-65" transform="translate(85.742188 0)"/>
      <use xlink:href="#DejaVuSans-6d" transform="translate(147.265625 0)"/>
      <use xlink:href="#DejaVuSans-70" transform="translate(244.677734 0)"/>
      <use xlink:href="#DejaVuSans-6f" transform="translate(308.154297 0)"/>
      <use xlink:href="#DejaVuSans-20" transform="translate(369.335938 0)"/>
      <use xlink:href="#DejaVuSans-28" transform="translate(401.123047 0)"/>
      <use xlink:href="#DejaVuSans-3bc" transform="translate(440.136719 0)"/>
      <use xlink:href="#DejaVuSans-73" transform="translate(503.759766 0)"/>
      <use xlink:href="#DejaVuSans-29" transform="translate(555.859375 0)"/>
     </g>
    </g>
   </g>
   <g id="matplotlib.axis_2">
    <g id="ytick_1">
     <g id="line2d_15">
      <path d="M 54.096563 328.994331 
L 612.096563 328.994331 
" clip-path="url(#pa62246188c)" style="fill: none; stroke: #e0e0e0; stroke-width: 0.8; stroke-linecap: square"/>
     </g>
     <g id="line2d_16">
      <defs>
       <path id="mfb2fa4ab4e" d="M 0 0 
L -3.5 0 
" style="stroke: #000000; stroke-width: 0.8"/>
      </defs>
      <g>
       <use xlink:href="#mfb2fa4ab4e" x="54.096563" y="328.994331" style="stroke: #000000; stroke-width: 0.8"/>
      </g>
     </g>
     <g id="text_9">
      <!-- −1.5 -->
      <g transform="translate(22.81375 332.79355) scale(0.1 -0.1)">
       <defs>
        <path id="DejaVuSans-2212" d="M 678 2272 
L 4684 2272 
L 4684 1741 
L 678 1741 
L 678 2272 
z
" transform="scale(0.015625)"/>
        <path id="DejaVuSans-2e" d="M 684 794 
L 1344 794 
L 1344 0 
L 684 0 
L 684 794 
z
" transform="scale(0.015625)"/>
        <path id="DejaVuSans-35" d="M 691 4666 
L 3169 4666 
L 3169 4134 
L 1269 4134 
L 1269 2991 
Q 1406 3038 1543 3061 
Q 1681 3084 1819 3084 
Q 2600 3084 3056 2656 
Q 3513 2228 3513 1497 
Q 3513 744 3044 326 
Q 2575 -91 1722 -91 
Q 1428 -91 1123 -41 
Q 819 9 494 109 
L 494 744 
Q 775 591 1075 516 
Q 1375 441 1709 441 
Q 2250 441 2565 725 
Q 2881 1009 2881 1497 
Q 2881 1984 2565 2268 
Q 2250 2553 1709 2553 
Q 1456 2553 1204 2497 
Q 953 2441 691 2322 
L 691 4666 
z
" transform="scale(0.015625)"/>
       </defs>
       <use xlink:href="#DejaVuSans-2212"/>
       <use xlink:href="#DejaVuSans-31" transform="translate(83.789062 0)"/>
       <use xlink:href="#DejaVuSans-2e" transform="translate(147.412109 0)"/>
       <use xlink:href="#DejaVuSans-35" transform="translate(179.199219 0)"/>
      </g>
     </g>
    </g>
    <g id="ytick_2">
     <g id="line2d_17">
      <path d="M 54.096563 287.58521 
L 612.096563 287.58521 
" clip-path="url(#pa62246188c)" style="fill: none; stroke: #e0e0e0; stroke-width: 0.8; stroke-linecap: square"/>
     </g>
     <g id="line2d_18">
      <g>
       <use xlink:href="#mfb2fa4ab4e" x="54.096563" y="287.58521" style="stroke: #000000; stroke-width: 0.8"/>
      </g>
     </g>
     <g id="text_10">
      <!-- −1.0 -->
      <g transform="translate(22.81375 291.384429) scale(0.1 -0.1)">
       <use xlink:href="#DejaVuSans-2212"/>
       <use xlink:href="#DejaVuSans-31" transform="translate(83.789062 0)"/>
       <use xlink:href="#DejaVuSans-2e" transform="translate(147.412109 0)"/>
       <use xlink:href="#DejaVuSans-30" transform="translate(179.199219 0)"/>
      </g>
     </g>
    </g>
    <g id="ytick_3">
     <g id="line2d_19">
      <path d="M 54.096563 246.176089 
L 612.096563 246.176089 
" clip-path="url(#pa62246188c)" style="fill: none; stroke: #e0e0e0; stroke-width: 0.8; stroke-linecap: square"/>
     </g>
     <g id="line2d_20">
      <g>
       <use xlink:href="#mfb2fa4ab4e" x="54.096563" y="246.176089" style="stroke: #000000; stroke-width: 0.8"/>
      </g>
     </g>
     <g id="text_11">
      <!-- −0.5 -->
      <g transform="translate(22.81375 249.975308) scale(0.1 -0.1)">
       <use xlink:href="#DejaVuSans-2212"/>
       <use xlink:href="#DejaVuSans-30" transform="translate(83.789062 0)"/>
       <use xlink:href="#DejaVuSans-2e" transform="translate(147.412109 0)"/>
       <use xlink:href="#DejaVuSans-35" transform="translate(179.199219 0)"/>
      </g>
     </g>
    </g>
    <g id="ytick_4">
     <g id="line2d_21">
      <path d="M 54.096563 204.766968 
L 612.096563 204.766968 
" clip-path="url(#pa62246188c)" style="fill: none; stroke: #e0e0e0; stroke-width: 0.8; stroke-linecap: square"/>
     </g>
     <g id="line2d_22">
      <g>
       <use xlink:href="#mfb2fa4ab4e" x="54.096563" y="204.766968" style="stroke: #000000; stroke-width: 0.8"/>
      </g>
     </g>
     <g id="text_12">
      <!-- 0.0 -->
      <g transform="translate(31.193438 208.566187) scale(0.1 -0.1)">
       <use xlink:href="#DejaVuSans-30"/>
       <use xlink:href="#DejaVuSans-2e" transform="translate(63.623047 0)"/>
       <use xlink:href="#DejaVuSans-30" transform="translate(95.410156 0)"/>
      </g>
     </g>
    </g>
    <g id="ytick_5">
     <g id="line2d_23">
      <path d="M 54.096563 163.357848 
L 612.096563 163.357848 
" clip-path="url(#pa62246188c)" style="fill: none; stroke: #e0e0e0; stroke-width: 0.8; stroke-linecap: square"/>
     </g>
     <g id="line2d_24">
      <g>
       <use xlink:href="#mfb2fa4ab4e" x="54.096563" y="163.357848" style="stroke: #000000; stroke-width: 0.8"/>
      </g>
     </g>
     <g id="text_13">
      <!-- 0.5 -->
      <g transform="translate(31.193438 167.157066) scale(0.1 -0.1)">
       <use xlink:href="#DejaVuSans-30"/>
       <use xlink:href="#DejaVuSans-2e" transform="translate(63.623047 0)"/>
       <use xlink:href="#DejaVuSans-35" transform="translate(95.410156 0)"/>
      </g>
     </g>
    </g>
    <g id="ytick_6">
     <g id="line2d_25">
      <path d="M 54.096563 121.948727 
L 612.096563 121.948727 
" clip-path="url(#pa62246188c)" style="fill: none; stroke: #e0e0e0; stroke-width: 0.8; stroke-linecap: square"/>
     </g>
     <g id="line2d_26">
      <g>
       <use xlink:href="#mfb2fa4ab4e" x="54.096563" y="121.948727" style="stroke: #000000; stroke-width: 0.8"/>
      </g>
     </g>
     <g id="text_14">
      <!-- 1.0 -->
      <g transform="translate(31.193438 125.747945) scale(0.1 -0.1)">
       <use xlink:href="#DejaVuSans-31"/>
       <use xlink:href="#DejaVuSans-2e" transform="translate(63.623047 0)"/>
       <use xlink:href="#DejaVuSans-30" transform="translate(95.410156 0)"/>
      </g>
     </g>
    </g>
    <g id="ytick_7">
     <g id="line2d_27">
      <path d="M 54.096563 80.539606 
L 612.096563 80.539606 
" clip-path="url(#pa62246188c)" style="fill: none; stroke: #e0e0e0; stroke-width: 0.8; stroke-linecap: square"/>
     </g>
     <g id="line2d_28">
      <g>
       <use xlink:href="#mfb2fa4ab4e" x="54.096563" y="80.539606" style="stroke: #000000; stroke-width: 0.8"/>
      </g>
     </g>
     <g id="text_15">
      <!-- 1.5 -->
      <g transform="translate(31.193438 84.338825) scale(0.1 -0.1)">
       <use xlink:href="#DejaVuSans-31"/>
       <use xlink:href="#DejaVuSans-2e" transform="translate(63.623047 0)"/>
       <use xlink:href="#DejaVuSans-35" transform="translate(95.410156 0)"/>
      </g>
     </g>
    </g>
    <g id="ytick_8">
     <g id="line2d_29">
      <path d="M 54.096563 39.130485 
L 612.096563 39.130485 
" clip-path="url(#pa62246188c)" style="fill: none; stroke: #e0e0e0; stroke-width: 0.8; stroke-linecap: square"/>
     </g>
     <g id="line2d_30">
      <g>
       <use xlink:href="#mfb2fa4ab4e" x="54.096563" y="39.130485" style="stroke: #000000; stroke-width: 0.8"/>
      </g>
     </g>
     <g id="text_16">
      <!-- 2.0 -->
      <g transform="translate(31.193438 42.929704) scale(0.1 -0.1)">
       <use xlink:href="#DejaVuSans-32"/>
       <use xlink:href="#DejaVuSans-2e" transform="translate(63.623047 0)"/>
       <use xlink:href="#DejaVuSans-30" transform="translate(95.410156 0)"/>
      </g>
     </g>
    </g>
    <g id="text_17">
     <!-- Tensión de Salida (V) -->
     <g transform="translate(16.318125 262.436562) rotate(-90) scale(0.12 -0.12)">
      <defs>
       <path id="DejaVuSans-6e" d="M 3513 2113 
L 3513 0 
L 2938 0 
L 2938 2094 
Q 2938 2591 2744 2837 
Q 2550 3084 2163 3084 
Q 1697 3084 1428 2787 
Q 1159 2491 1159 1978 
L 1159 0 
L 581 0 
L 581 3500 
L 1159 3500 
L 1159 2956 
Q 1366 3272 1645 3428 
Q 1925 3584 2291 3584 
Q 2894 3584 3203 3211 
Q 3513 2838 3513 2113 
z
" transform="scale(0.015625)"/>
       <path id="DejaVuSans-f3" d="M 1959 3097 
Q 1497 3097 1228 2736 
Q 959 2375 959 1747 
Q 959 1119 1226 758 
Q 1494 397 1959 397 
Q 2419 397 2687 759 
Q 2956 1122 2956 1747 
Q 2956 2369 2687 2733 
Q 2419 3097 1959 3097 
z
M 1959 3584 
Q 2709 3584 3137 3096 
Q 3566 2609 3566 1747 
Q 3566 888 3137 398 
Q 2709 -91 1959 -91 
Q 1206 -91 779 398 
Q 353 888 353 1747 
Q 353 2609 779 3096 
Q 1206 3584 1959 3584 
z
M 2394 5119 
L 3016 5119 
L 1998 3944 
L 1519 3944 
L 2394 5119 
z
" transform="scale(0.015625)"/>
       <path id="DejaVuSans-64" d="M 2906 2969 
L 2906 4863 
L 3481 4863 
L 3481 0 
L 2906 0 
L 2906 525 
Q 2725 213 2448 61 
Q 2172 -91 1784 -91 
Q 1150 -91 751 415 
Q 353 922 353 1747 
Q 353 2572 751 3078 
Q 1150 3584 1784 3584 
Q 2172 3584 2448 3432 
Q 2725 3281 2906 2969 
z
M 947 1747 
Q 947 1113 1208 752 
Q 1469 391 1925 391 
Q 2381 391 2643 752 
Q 2906 1113 2906 1747 
Q 2906 2381 2643 2742 
Q 2381 3103 1925 3103 
Q 1469 3103 1208 2742 
Q 947 2381 947 1747 
z
" transform="scale(0.015625)"/>
       <path id="DejaVuSans-53" d="M 3425 4513 
L 3425 3897 
Q 3066 4069 2747 4153 
Q 2428 4238 2131 4238 
Q 1616 4238 1336 4038 
Q 1056 3838 1056 3469 
Q 1056 3159 1242 3001 
Q 1428 2844 1947 2747 
L 2328 2669 
Q 3034 2534 3370 2195 
Q 3706 1856 3706 1288 
Q 3706 609 3251 259 
Q 2797 -91 1919 -91 
Q 1588 -91 1214 -16 
Q 841 59 441 206 
L 441 856 
Q 825 641 1194 531 
Q 1563 422 1919 422 
Q 2459 422 2753 634 
Q 3047 847 3047 1241 
Q 3047 1584 2836 1778 
Q 2625 1972 2144 2069 
L 1759 2144 
Q 1053 2284 737 2584 
Q 422 2884 422 3419 
Q 422 4038 858 4394 
Q 1294 4750 2059 4750 
Q 2388 4750 2728 4690 
Q 3069 4631 3425 4513 
z
" transform="scale(0.015625)"/>
       <path id="DejaVuSans-61" d="M 2194 1759 
Q 1497 1759 1228 1600 
Q 959 1441 959 1056 
Q 959 750 1161 570 
Q 1363 391 1709 391 
Q 2188 391 2477 730 
Q 2766 1069 2766 1631 
L 2766 1759 
L 2194 1759 
z
M 3341 1997 
L 3341 0 
L 2766 0 
L 2766 531 
Q 2569 213 2275 61 
Q 1981 -91 1556 -91 
Q 1019 -91 701 211 
Q 384 513 384 1019 
Q 384 1609 779 1909 
Q 1175 2209 1959 2209 
L 2766 2209 
L 2766 2266 
Q 2766 2663 2505 2880 
Q 2244 3097 1772 3097 
Q 1472 3097 1187 3025 
Q 903 2953 641 2809 
L 641 3341 
Q 956 3463 1253 3523 
Q 1550 3584 1831 3584 
Q 2591 3584 2966 3190 
Q 3341 2797 3341 1997 
z
" transform="scale(0.015625)"/>
       <path id="DejaVuSans-6c" d="M 603 4863 
L 1178 4863 
L 1178 0 
L 603 0 
L 603 4863 
z
" transform="scale(0.015625)"/>
       <path id="DejaVuSans-56" d="M 1831 0 
L 50 4666 
L 709 4666 
L 2188 738 
L 3669 4666 
L 4325 4666 
L 2547 0 
L 1831 0 
z
" transform="scale(0.015625)"/>
      </defs>
      <use xlink:href="#DejaVuSans-54"/>
      <use xlink:href="#DejaVuSans-65" transform="translate(44.083984 0)"/>
      <use xlink:href="#DejaVuSans-6e" transform="translate(105.607422 0)"/>
      <use xlink:href="#DejaVuSans-73" transform="translate(168.986328 0)"/>
      <use xlink:href="#DejaVuSans-69" transform="translate(221.085938 0)"/>
      <use xlink:href="#DejaVuSans-f3" transform="translate(248.869141 0)"/>
      <use xlink:href="#DejaVuSans-6e" transform="translate(310.050781 0)"/>
      <use xlink:href="#DejaVuSans-20" transform="translate(373.429688 0)"/>
      <use xlink:href="#DejaVuSans-64" transform="translate(405.216797 0)"/>
      <use xlink:href="#DejaVuSans-65" transform="translate(468.693359 0)"/>
      <use xlink:href="#DejaVuSans-20" transform="translate(530.216797 0)"/>
      <use xlink:href="#DejaVuSans-53" transform="translate(562.003906 0)"/>
      <use xlink:href="#DejaVuSans-61" transform="translate(625.480469 0)"/>
      <use xlink:href="#DejaVuSans-6c" transform="translate(686.759766 0)"/>
      <use xlink:href="#DejaVuSans-69" transform="translate(714.542969 0)"/>
      <use xlink:href="#DejaVuSans-64" transform="translate(742.326172 0)"/>
      <use xlink:href="#DejaVuSans-61" transform="translate(805.802734 0)"/>
      <use xlink:href="#DejaVuSans-20" transform="translate(867.082031 0)"/>
      <use xlink:href="#DejaVuSans-28" transform="translate(898.869141 0)"/>
      <use xlink:href="#DejaVuSans-56" transform="translate(937.882812 0)"/>
      <use xlink:href="#DejaVuSans-29" transform="translate(1006.291016 0)"/>
     </g>
    </g>
   </g>
   <g id="line2d_31">
    <path d="M 79.460199 204.766968 
L 83.520411 204.681567 
L 85.04299 204.43579 
L 86.311806 204.021981 
L 87.580623 203.363714 
L 88.849439 202.425387 
L 90.118255 201.184993 
L 91.387071 199.631723 
L 92.909651 197.352315 
L 94.43223 194.628134 
L 96.208573 190.912035 
L 97.984916 186.654248 
L 100.015022 181.184739 
L 102.298891 174.353637 
L 104.836523 166.056099 
L 107.881682 155.335085 
L 112.195658 139.23304 
L 121.838661 102.939438 
L 125.137583 91.494023 
L 127.928979 82.544743 
L 130.466611 75.128318 
L 132.75048 69.127177 
L 134.780586 64.38557 
L 136.556929 60.729455 
L 138.333272 57.560166 
L 139.855851 55.248435 
L 141.378431 53.323823 
L 142.647247 52.023791 
L 143.916063 51.006006 
L 145.184879 50.275359 
L 146.453696 49.835986 
L 147.468749 49.696501 
L 148.483802 49.746986 
L 149.498855 49.988508 
L 150.513908 50.421817 
L 151.782724 51.233795 
L 153.05154 52.346275 
L 154.320356 53.758671 
L 155.589172 55.469641 
L 157.111752 57.913929 
L 158.634331 60.780108 
L 160.410674 64.648432 
L 162.187017 69.069187 
L 164.217123 74.777866 
L 166.247229 81.160389 
L 168.531098 89.106778 
L 171.06873 98.827282 
L 173.860126 110.51216 
L 176.905285 124.311901 
L 180.204207 140.3137 
L 184.264419 161.179922 
L 189.847211 191.18839 
L 199.743977 244.544154 
L 203.804189 265.156197 
L 207.103111 280.869871 
L 210.14827 294.336069 
L 212.939666 305.655618 
L 215.477298 314.991785 
L 217.761168 322.546858 
L 219.791273 328.542782 
L 221.821379 333.825825 
L 223.597722 337.840204 
L 225.374065 341.268892 
L 226.896644 343.730612 
L 228.419224 345.743867 
L 229.68804 347.074537 
L 230.956856 348.086694 
L 232.225673 348.778223 
L 233.240725 349.099616 
L 234.255778 349.214483 
L 235.270831 349.122706 
L 236.285884 348.824462 
L 237.300937 348.320216 
L 238.569754 347.4014 
L 239.83857 346.164027 
L 241.107386 344.610915 
L 242.629966 342.335412 
L 244.152545 339.617742 
L 245.675125 336.466708 
L 247.451467 332.256442 
L 249.22781 327.488723 
L 251.257916 321.384235 
L 253.541785 313.722741 
L 255.825654 305.274116 
L 258.363287 295.038015 
L 261.154682 282.852252 
L 264.453605 267.375476 
L 268.260053 248.360804 
L 273.081555 223.06976 
L 286.023481 154.557475 
L 289.829929 135.909395 
L 293.128851 120.845012 
L 295.920247 109.071234 
L 298.45788 99.255321 
L 300.741749 91.218763 
L 303.025618 83.9987 
L 305.055724 78.309112 
L 306.832067 73.920102 
L 308.608409 70.10142 
L 310.130989 67.29482 
L 311.653568 64.928313 
L 313.176148 63.009349 
L 314.444964 61.756485 
L 315.71378 60.821377 
L 316.982596 60.206079 
L 317.997649 59.945039 
L 319.012702 59.889926 
L 320.027755 60.040822 
L 321.042808 60.397514 
L 322.057861 60.959496 
L 323.326678 61.949424 
L 324.595494 63.25666 
L 325.86431 64.878305 
L 327.386889 67.234186 
L 328.909469 70.030068 
L 330.432048 73.257013 
L 332.208391 77.552754 
L 333.984734 82.402417 
L 336.01484 88.595969 
L 338.298709 96.351453 
L 340.582578 104.887112 
L 343.120211 115.2113 
L 345.911606 127.482947 
L 349.210529 143.045633 
L 353.016977 162.137557 
L 358.092242 188.848628 
L 370.019115 252.126574 
L 373.825563 270.951139 
L 377.124486 286.209916 
L 379.915881 298.176123 
L 382.453514 308.187506 
L 384.991146 317.281053 
L 387.275015 324.613049 
L 389.305121 330.40741 
L 391.081464 334.891679 
L 392.857807 338.808515 
L 394.380386 341.701215 
L 395.902966 344.155353 
L 397.425545 346.163208 
L 398.694361 347.490916 
L 399.963178 348.501398 
L 401.231994 349.192441 
L 402.247047 349.514237 
L 403.2621 349.630154 
L 404.277153 349.540031 
L 405.292206 349.243995 
L 406.307259 348.742466 
L 407.576075 347.827695 
L 408.844891 346.595005 
L 410.113707 345.047134 
L 411.636287 342.778537 
L 413.158866 340.068319 
L 414.681446 336.925152 
L 416.457789 332.724413 
L 418.234131 327.966417 
L 420.264237 321.873041 
L 422.548106 314.223734 
L 424.831976 305.786628 
L 427.369608 295.562151 
L 430.161004 283.387278 
L 433.459926 267.92018 
L 437.266375 248.911542 
L 442.087876 223.619021 
L 455.029802 155.0455 
L 458.836251 136.363137 
L 462.135173 121.26341 
L 464.926568 109.455908 
L 467.464201 99.606525 
L 469.74807 91.537734 
L 472.031939 84.283616 
L 474.062045 78.562391 
L 475.838388 74.144779 
L 477.614731 70.296757 
L 479.13731 67.464515 
L 480.65989 65.071988 
L 482.182469 63.126701 
L 483.451285 61.851722 
L 484.720102 60.894383 
L 485.988918 60.256783 
L 487.003971 59.977878 
L 488.019024 59.904908 
L 489.034077 60.037975 
L 490.04913 60.37689 
L 491.064183 60.921171 
L 492.332999 61.889115 
L 493.601815 63.174569 
L 494.870631 64.774679 
L 496.393211 67.105105 
L 497.91579 69.876028 
L 499.43837 73.078586 
L 501.214712 77.346696 
L 502.991055 82.16972 
L 505.021161 88.334184 
L 507.30503 96.058862 
L 509.5889 104.565946 
L 512.126532 114.86124 
L 514.917928 127.104856 
L 518.21685 142.639859 
L 522.023299 161.707652 
L 527.098564 188.400282 
L 539.279199 252.98871 
L 543.085648 271.762 
L 546.38457 286.963308 
L 549.175966 298.872101 
L 551.713598 308.824828 
L 553.997467 316.99507 
L 556.281337 324.357929 
L 558.311443 330.181313 
L 560.087785 334.692065 
L 561.864128 338.636264 
L 563.386708 341.553024 
L 564.909287 344.031697 
L 566.431867 346.064482 
L 567.700683 347.41321 
L 568.969499 348.444886 
L 570.238315 349.157251 
L 571.253368 349.496165 
L 572.268421 349.629229 
L 573.283474 349.556254 
L 574.298527 349.277347 
L 575.31358 348.792902 
L 576.582396 347.899383 
L 577.851213 346.68779 
L 579.120029 345.160812 
L 580.642608 342.916952 
L 582.165188 340.231032 
L 583.687767 337.111645 
L 585.46411 332.937894 
L 586.732926 329.614856 
L 586.732926 329.614856 
" clip-path="url(#pa62246188c)" style="fill: none; stroke: #1f77b4; stroke-width: 2.5; stroke-linecap: square"/>
   </g>
   <g id="line2d_32">
    <path d="M 79.460199 204.766968 
L 82.759121 204.67511 
L 84.027937 204.414601 
L 85.04299 204.011637 
L 86.058043 203.400365 
L 87.073096 202.563801 
L 88.341912 201.19218 
L 89.610729 199.460832 
L 90.879545 197.381037 
L 92.402124 194.448491 
L 94.178467 190.466881 
L 95.95481 185.935548 
L 97.984916 180.158046 
L 100.268785 172.998862 
L 103.060181 163.473848 
L 106.612866 150.448113 
L 112.195658 128.936167 
L 118.285975 105.69995 
L 121.838661 93.008392 
L 124.88382 82.968729 
L 127.421452 75.346225 
L 129.705321 69.15699 
L 131.735427 64.247339 
L 133.765533 59.940336 
L 135.541876 56.696742 
L 137.064456 54.32502 
L 138.587035 52.343992 
L 139.855851 50.999778 
L 141.124667 49.940469 
L 142.393484 49.171028 
L 143.6623 48.695662 
L 144.677353 48.529442 
L 145.692406 48.555055 
L 146.707459 48.773596 
L 147.722512 49.185841 
L 148.991328 49.974218 
L 150.260144 51.066168 
L 151.528961 52.461136 
L 152.797777 54.157807 
L 154.320356 56.589098 
L 155.842936 59.446838 
L 157.619278 63.31109 
L 159.395621 67.73398 
L 161.425727 73.452656 
L 163.455833 79.853149 
L 165.739702 87.829111 
L 168.277335 97.593793 
L 171.06873 109.340509 
L 174.113889 123.22269 
L 177.412812 139.330157 
L 181.473023 160.347348 
L 187.055815 190.594783 
L 197.206345 245.766852 
L 201.266557 266.509208 
L 204.565479 282.306968 
L 207.610638 295.832225 
L 210.402033 307.189581 
L 212.939666 316.546159 
L 215.223535 324.107988 
L 217.253641 330.100558 
L 219.283747 335.371427 
L 221.06009 339.368009 
L 222.582669 342.322813 
L 224.105249 344.833319 
L 225.627828 346.891847 
L 226.896644 348.257463 
L 228.165461 349.301955 
L 229.434277 350.023138 
L 230.44933 350.366278 
L 231.464383 350.501101 
L 232.479436 350.427462 
L 233.494489 350.145508 
L 234.509542 349.655682 
L 235.778358 348.752229 
L 237.047174 347.527228 
L 238.31599 345.98347 
L 239.83857 343.715176 
L 241.361149 341.000315 
L 242.883729 337.847678 
L 244.660072 333.62997 
L 246.436414 328.848844 
L 248.46652 322.7218 
L 250.750389 315.025864 
L 253.034259 306.533436 
L 255.571891 296.23807 
L 258.363287 283.974843 
L 261.662209 268.391062 
L 265.468658 249.234128 
L 270.290159 223.738288 
L 283.485848 153.299449 
L 287.292297 134.536721 
L 290.591219 119.395052 
L 293.382615 107.572765 
L 295.920247 97.726646 
L 298.204116 89.674483 
L 300.487985 82.44998 
L 302.518091 76.765899 
L 304.294434 72.388991 
L 306.070777 68.589127 
L 307.593356 65.803918 
L 309.115936 63.463567 
L 310.384752 61.858448 
L 311.653568 60.570897 
L 312.922385 59.603734 
L 314.191201 58.959082 
L 315.206254 58.676548 
L 316.221307 58.601744 
L 317.23636 58.734779 
L 318.251413 59.075466 
L 319.266466 59.623323 
L 320.535282 60.598268 
L 321.804098 61.893524 
L 323.072914 63.506219 
L 324.595494 65.855385 
L 326.118073 68.648966 
L 327.640653 71.878028 
L 329.416995 76.181817 
L 331.193338 81.0455 
L 333.223444 87.262306 
L 335.507313 95.053014 
L 337.791183 103.633244 
L 340.328815 114.017526 
L 343.120211 126.367508 
L 346.419133 142.038158 
L 350.225582 161.273335 
L 355.300846 188.201716 
L 367.481482 253.367105 
L 371.287931 272.310032 
L 374.586853 287.649558 
L 377.378249 299.66734 
L 379.915881 309.711797 
L 382.19975 317.957918 
L 384.48362 325.389728 
L 386.513726 331.268133 
L 388.290068 335.821902 
L 390.066411 339.804135 
L 391.588991 342.749417 
L 393.11157 345.252763 
L 394.634149 347.306308 
L 395.902966 348.669303 
L 397.171782 349.712458 
L 398.440598 350.433487 
L 399.455651 350.777292 
L 400.470704 350.913425 
L 401.485757 350.841695 
L 402.50081 350.562202 
L 403.515863 350.075343 
L 404.784679 349.176241 
L 406.053496 347.956226 
L 407.322312 346.418004 
L 408.591128 344.564991 
L 410.113707 341.931696 
L 411.636287 338.859487 
L 413.41263 334.733697 
L 415.188972 330.041898 
L 417.219078 324.013092 
L 419.249184 317.306066 
L 421.533053 308.997622 
L 424.070686 298.888958 
L 426.862082 286.807303 
L 429.907241 272.626418 
L 433.459926 254.99863 
L 438.027664 231.094983 
L 454.268512 144.866719 
L 457.821198 127.842171 
L 460.866356 114.303559 
L 463.657752 102.904257 
L 466.195385 93.487121 
L 468.479254 85.854194 
L 470.50936 79.78645 
L 472.539466 74.430253 
L 474.315808 70.351555 
L 476.092151 66.858969 
L 477.614731 64.343283 
L 479.13731 62.277196 
L 480.406126 60.903623 
L 481.674943 59.849801 
L 482.943759 59.11804 
L 483.958812 58.765616 
L 484.973865 58.620849 
L 485.988918 58.683944 
L 487.003971 58.954811 
L 488.019024 59.433065 
L 489.28784 60.321461 
L 490.556656 61.530849 
L 491.825472 63.058543 
L 493.094289 64.901154 
L 494.616868 67.522164 
L 496.139448 70.582341 
L 497.91579 74.694465 
L 499.692133 79.373054 
L 501.722239 85.387398 
L 503.752345 92.080714 
L 506.036214 100.374737 
L 508.573847 110.468741 
L 511.365242 122.536077 
L 514.410401 136.703678 
L 517.963087 154.31927 
L 522.530825 178.212776 
L 538.771673 264.457811 
L 542.324358 281.496637 
L 545.369517 295.050191 
L 548.160913 306.465214 
L 550.698545 315.898183 
L 552.982415 323.546505 
L 555.01252 329.628756 
L 557.042626 335.000144 
L 558.818969 339.092622 
L 560.595312 342.599375 
L 562.117891 345.127466 
L 563.640471 347.206155 
L 564.909287 348.590353 
L 566.178103 349.654886 
L 567.446919 350.397425 
L 568.461972 350.758499 
L 569.477025 350.911931 
L 570.492078 350.857502 
L 571.507131 350.595291 
L 572.522184 350.12567 
L 573.791001 349.248014 
L 575.059817 348.049287 
L 576.328633 346.53215 
L 577.597449 344.699971 
L 579.120029 342.09128 
L 580.642608 339.043168 
L 582.418951 334.944745 
L 584.195294 330.279398 
L 586.2254 324.279552 
L 586.732926 322.672122 
L 586.732926 322.672122 
" clip-path="url(#pa62246188c)" style="fill: none; stroke: #ff7f0e; stroke-width: 3; stroke-linecap: square"/>
   </g>
   <g id="line2d_33">
    <path d="M 79.460199 204.766968 
L 84.281701 204.675284 
L 86.058043 204.424253 
L 87.580623 203.99298 
L 89.103202 203.302577 
L 90.372018 202.497687 
L 91.640835 201.464189 
L 93.163414 199.904454 
L 94.685994 197.984136 
L 96.208573 195.698672 
L 97.984916 192.574561 
L 99.761258 188.971274 
L 101.791364 184.296072 
L 103.82147 179.069919 
L 106.10534 172.599166 
L 108.896735 163.962763 
L 112.195658 152.947031 
L 116.509633 137.696582 
L 125.898873 104.281097 
L 129.197795 93.431118 
L 131.989191 84.939836 
L 134.526823 77.898885 
L 136.810692 72.19982 
L 138.840798 67.696757 
L 140.617141 64.225479 
L 142.393484 61.218252 
L 143.916063 59.027056 
L 145.438643 57.205863 
L 146.961222 55.765736 
L 148.230038 54.863665 
L 149.498855 54.237629 
L 150.767671 53.891629 
L 151.782724 53.818674 
L 152.797777 53.92838 
L 153.81283 54.221773 
L 155.081646 54.847899 
L 156.350462 55.762894 
L 157.619278 56.966764 
L 158.888095 58.458785 
L 160.410674 60.627469 
L 161.933254 63.205067 
L 163.455833 66.186219 
L 165.232176 70.165108 
L 167.008518 74.670693 
L 169.038624 80.444473 
L 171.322494 87.703043 
L 173.606363 95.725798 
L 176.143995 105.473591 
L 178.935391 117.118434 
L 181.98055 130.791541 
L 185.533235 147.808703 
L 189.847211 169.626381 
L 196.952581 206.957723 
L 203.804189 242.563602 
L 207.864401 262.552799 
L 211.417086 278.929421 
L 214.462245 291.916403 
L 217.253641 302.822312 
L 219.791273 311.807624 
L 222.075143 319.070226 
L 224.105249 324.826647 
L 226.135355 329.891079 
L 227.911697 333.732385 
L 229.68804 337.005751 
L 231.21062 339.348948 
L 232.733199 341.257536 
L 234.002015 342.511801 
L 235.270831 343.457566 
L 236.539648 344.092867 
L 237.554701 344.376685 
L 238.569754 344.460622 
L 239.584807 344.34461 
L 240.59986 344.028862 
L 241.614913 343.513874 
L 242.883729 342.591164 
L 244.152545 341.360503 
L 245.421361 339.824701 
L 246.943941 337.583905 
L 248.46652 334.916048 
L 249.9891 331.829778 
L 251.765442 327.713693 
L 253.541785 323.059828 
L 255.571891 317.108916 
L 257.85576 309.649058 
L 260.139629 301.431243 
L 262.677262 291.483797 
L 265.468658 279.651743 
L 268.76758 264.636801 
L 272.574029 246.205346 
L 277.649293 220.401632 
L 289.829929 157.963653 
L 293.636378 139.81709 
L 296.9353 125.124554 
L 299.726696 113.615602 
L 302.264328 103.998316 
L 304.548197 96.104644 
L 306.832067 88.992228 
L 308.862173 83.367944 
L 310.892279 78.434326 
L 312.668621 74.706291 
L 314.191201 71.961348 
L 315.71378 69.641527 
L 317.23636 67.754166 
L 318.505176 66.516056 
L 319.773992 65.585143 
L 321.042808 64.963469 
L 322.057861 64.689723 
L 323.072914 64.615165 
L 324.087967 64.739898 
L 325.10302 65.063745 
L 326.118073 65.586247 
L 327.386889 66.517579 
L 328.655706 67.756067 
L 329.924522 69.298962 
L 331.447101 71.547389 
L 332.969681 74.222012 
L 334.49226 77.314279 
L 336.268603 81.436514 
L 338.044946 86.095752 
L 340.075052 92.052025 
L 342.358921 99.51714 
L 344.64279 107.739637 
L 347.180423 117.691885 
L 349.971818 129.529072 
L 353.27074 144.550325 
L 357.077189 162.989998 
L 362.152454 188.807243 
L 374.33309 251.294975 
L 378.139539 269.462812 
L 381.438461 284.175984 
L 384.229856 295.703914 
L 386.767489 305.339581 
L 389.305121 314.08247 
L 391.588991 321.12298 
L 393.619096 326.679341 
L 395.395439 330.972858 
L 397.171782 334.716168 
L 398.694361 337.474392 
L 400.216941 339.807629 
L 401.73952 341.708511 
L 403.008337 342.957942 
L 404.277153 343.900205 
L 405.545969 344.533238 
L 406.561022 344.816062 
L 407.576075 344.899682 
L 408.591128 344.783982 
L 409.606181 344.469128 
L 410.621234 343.955568 
L 411.89005 343.035329 
L 413.158866 341.807817 
L 414.427683 340.27576 
L 415.950262 338.040128 
L 417.472842 335.378038 
L 418.995421 332.298005 
L 420.771764 328.189619 
L 422.548106 323.543725 
L 424.578212 317.602016 
L 426.862082 310.152323 
L 429.145951 301.944135 
L 431.683583 292.006367 
L 434.474979 280.183254 
L 437.773901 265.175949 
L 441.58035 246.748533 
L 446.655615 220.9409 
L 458.836251 158.44394 
L 462.642699 140.264151 
L 465.941621 125.537414 
L 468.733017 113.995844 
L 471.27065 104.346189 
L 473.808282 95.587926 
L 476.092151 88.532501 
L 478.122257 82.962119 
L 479.8986 78.655809 
L 481.674943 74.899281 
L 483.197522 72.129436 
L 484.720102 69.784347 
L 486.242681 67.871425 
L 487.511497 66.611843 
L 488.780313 65.659344 
L 490.04913 65.016017 
L 491.064183 64.724929 
L 492.079236 64.633032 
L 493.094289 64.740456 
L 494.109342 65.047044 
L 495.124395 65.552361 
L 496.393211 66.462348 
L 497.662027 67.679684 
L 498.930843 69.201667 
L 500.453423 71.425372 
L 501.976002 74.075752 
L 503.498582 77.144327 
L 505.274924 81.239714 
L 507.051267 85.873061 
L 509.081373 91.801054 
L 511.365242 99.236205 
L 513.649112 107.430893 
L 516.186744 117.355001 
L 518.97814 129.164859 
L 522.277062 144.159077 
L 526.083511 162.575108 
L 531.158775 188.374113 
L 543.593174 252.127614 
L 547.399623 270.24521 
L 550.698545 284.902269 
L 553.489941 296.374244 
L 556.027573 305.952819 
L 558.311443 313.80784 
L 560.595312 320.878318 
L 562.625418 326.462838 
L 564.401761 330.782034 
L 566.178103 334.551867 
L 567.700683 337.333405 
L 569.223262 339.69041 
L 570.745842 341.615437 
L 572.014658 342.885221 
L 573.283474 343.848001 
L 574.55229 344.501668 
L 575.567343 344.801056 
L 576.582396 344.901262 
L 577.597449 344.802148 
L 578.612502 344.503856 
L 579.627555 344.006811 
L 580.896371 343.107113 
L 582.165188 341.899986 
L 583.434004 340.388111 
L 584.956583 338.176368 
L 586.479163 335.537735 
L 586.732926 335.058197 
L 586.732926 335.058197 
" clip-path="url(#pa62246188c)" style="fill: none; stroke-dasharray: 16,4,2.5,4; stroke-dashoffset: 0; stroke: #9467bd; stroke-width: 2.5"/>
   </g>
   <g id="line2d_34">
    <path d="M 79.460199 204.766968 
L 85.296754 204.668219 
L 87.580623 204.386883 
L 89.356965 203.958679 
L 91.133308 203.295022 
L 92.655888 202.509512 
L 94.178467 201.503764 
L 95.701047 200.263253 
L 97.477389 198.505647 
L 99.253732 196.40458 
L 101.030075 193.956487 
L 103.060181 190.736777 
L 105.090287 187.078261 
L 107.374156 182.462014 
L 109.658025 177.352134 
L 112.195658 171.152301 
L 115.240816 163.089819 
L 118.793502 153.011755 
L 123.868767 137.851117 
L 131.989191 113.565417 
L 135.541876 103.645967 
L 138.587035 95.778142 
L 141.124667 89.787983 
L 143.408537 84.911051 
L 145.438643 81.03229 
L 147.468749 77.620796 
L 149.245091 75.045023 
L 151.021434 72.872176 
L 152.544013 71.343976 
L 154.066593 70.134838 
L 155.335409 69.377283 
L 156.604225 68.851776 
L 157.873042 68.562116 
L 159.141858 68.511491 
L 160.410674 68.702476 
L 161.67949 69.137031 
L 162.948307 69.816492 
L 164.217123 70.741575 
L 165.485939 71.912373 
L 167.008518 73.640891 
L 168.531098 75.720365 
L 170.053677 78.147441 
L 171.83002 81.412143 
L 173.606363 85.134206 
L 175.636469 89.932949 
L 177.666575 95.292834 
L 179.950444 101.962834 
L 182.488076 110.121614 
L 185.279472 119.932885 
L 188.324631 131.529098 
L 191.623553 144.991894 
L 195.683765 162.578029 
L 201.012793 186.769963 
L 212.432139 238.904074 
L 216.492351 256.224883 
L 219.791273 269.388231 
L 222.836432 280.636092 
L 225.627828 290.062516 
L 228.165461 297.812627 
L 230.44933 304.063109 
L 232.479436 309.005876 
L 234.509542 313.342969 
L 236.285884 316.622227 
L 238.062227 319.405679 
L 239.584807 321.388029 
L 241.107386 322.991552 
L 242.376202 324.034933 
L 243.645019 324.80974 
L 244.913835 325.314421 
L 246.182651 325.548021 
L 247.451467 325.51017 
L 248.720283 325.2011 
L 249.9891 324.621633 
L 251.257916 323.773183 
L 252.526732 322.657759 
L 253.795548 321.277954 
L 255.318128 319.277716 
L 256.840707 316.907953 
L 258.61705 313.686593 
L 260.393393 309.987145 
L 262.423499 305.194853 
L 264.453605 299.827124 
L 266.737474 293.139117 
L 269.275106 284.958904 
L 272.066502 275.134845 
L 275.111661 263.552578 
L 278.664346 249.093192 
L 282.978322 230.514264 
L 289.829929 199.830664 
L 296.681537 169.448064 
L 300.741749 152.390369 
L 304.294434 138.424621 
L 307.339593 127.361476 
L 310.130989 118.084653 
L 312.668621 110.455729 
L 314.95249 104.303309 
L 316.982596 99.439658 
L 319.012702 95.174676 
L 320.789045 91.953177 
L 322.565388 89.222844 
L 324.087967 87.282572 
L 325.610547 85.718144 
L 326.879363 84.705192 
L 328.148179 83.958973 
L 329.416995 83.481135 
L 330.685812 83.272734 
L 331.954628 83.334227 
L 333.223444 83.665476 
L 334.49226 84.265746 
L 335.761077 85.133702 
L 337.029893 86.267419 
L 338.552472 87.975098 
L 340.075052 90.056361 
L 341.597631 92.504553 
L 343.373974 95.814029 
L 345.150317 99.597834 
L 347.180423 104.481776 
L 349.210529 109.935907 
L 351.494398 116.714628 
L 354.03203 124.987304 
L 356.823426 134.902604 
L 359.868585 146.571512 
L 363.42127 161.114502 
L 367.735245 179.769107 
L 375.09438 212.801239 
L 381.438461 240.887456 
L 385.498673 257.908098 
L 388.797595 270.865546 
L 391.842754 281.950342 
L 394.634149 291.247837 
L 397.171782 298.896185 
L 399.455651 305.066548 
L 401.485757 309.946468 
L 403.515863 314.227968 
L 405.292206 317.464087 
L 407.068548 320.209154 
L 408.591128 322.162116 
L 410.113707 323.739265 
L 411.382524 324.762818 
L 412.65134 325.519625 
L 413.920156 326.00802 
L 415.188972 326.226931 
L 416.457789 326.175885 
L 417.726605 325.855002 
L 418.995421 325.265003 
L 420.264237 324.407203 
L 421.533053 323.283511 
L 423.055633 321.587665 
L 424.578212 319.517994 
L 426.100792 317.081122 
L 427.877135 313.784474 
L 429.653477 310.013044 
L 431.683583 305.142638 
L 433.713689 299.701334 
L 435.997558 292.936123 
L 438.535191 284.677225 
L 441.326587 274.775464 
L 444.371746 263.119264 
L 447.924431 248.588212 
L 452.238406 229.943704 
L 459.59754 196.917222 
L 465.941621 168.82412 
L 470.001833 151.79358 
L 473.300756 138.825133 
L 476.345914 127.727996 
L 479.13731 118.417488 
L 481.674943 110.756023 
L 483.958812 104.57291 
L 485.988918 99.680983 
L 488.019024 95.386914 
L 489.795366 92.139397 
L 491.571709 89.382612 
L 493.094289 87.41939 
L 494.616868 85.831819 
L 495.885684 84.799482 
L 497.154501 84.033821 
L 498.423317 83.536522 
L 499.692133 83.308677 
L 500.960949 83.350781 
L 502.229765 83.662732 
L 503.498582 84.243831 
L 504.767398 85.092781 
L 506.036214 86.207693 
L 507.558794 87.893124 
L 509.081373 89.952545 
L 510.603953 92.379363 
L 512.380295 95.664575 
L 514.156638 99.424931 
L 516.186744 104.283188 
L 518.21685 109.71295 
L 520.500719 116.465984 
L 523.038352 124.712461 
L 525.829747 134.602032 
L 528.874906 146.246844 
L 532.427592 160.767322 
L 536.741567 179.403164 
L 543.846938 211.282551 
L 550.444782 240.527263 
L 554.504994 257.568391 
L 557.803916 270.548326 
L 560.849075 281.658205 
L 563.640471 290.982056 
L 566.178103 298.656908 
L 568.461972 304.852996 
L 570.492078 309.757114 
L 572.522184 314.06392 
L 574.298527 317.322974 
L 576.07487 320.091607 
L 577.597449 322.065193 
L 579.120029 323.663284 
L 580.388845 324.704484 
L 581.657661 325.479074 
L 582.926477 325.985347 
L 584.195294 326.222193 
L 585.46411 326.189096 
L 586.732926 325.887222 
L 586.732926 325.887222 
" clip-path="url(#pa62246188c)" style="fill: none; stroke-dasharray: 9.25,4; stroke-dashoffset: 0; stroke: #2ca02c; stroke-width: 2.5"/>
   </g>
   <g id="line2d_35">
    <path d="M 79.460199 204.766968 
L 88.849439 204.6583 
L 92.655888 204.382536 
L 95.95481 203.932333 
L 98.999969 203.303093 
L 102.045128 202.442712 
L 105.090287 201.33398 
L 108.135446 199.967277 
L 111.180605 198.340189 
L 114.225763 196.457084 
L 117.524686 194.140692 
L 121.077371 191.348812 
L 124.88382 188.055591 
L 129.197795 184.014198 
L 134.780586 178.446954 
L 148.737565 164.363687 
L 153.05154 160.422083 
L 156.604225 157.468062 
L 159.903148 155.016764 
L 162.948307 153.041969 
L 165.739702 151.501687 
L 168.277335 150.343784 
L 170.814967 149.430892 
L 173.098836 148.828401 
L 175.382706 148.440708 
L 177.666575 148.273222 
L 179.950444 148.329791 
L 182.234313 148.612673 
L 184.518182 149.122508 
L 186.802052 149.858313 
L 189.085921 150.81748 
L 191.623553 152.140007 
L 194.161186 153.724972 
L 196.698818 155.561959 
L 199.490214 157.858534 
L 202.535373 160.670703 
L 205.834295 164.04472 
L 209.38698 168.011049 
L 213.447192 172.891675 
L 218.522457 179.371117 
L 236.793411 203.084279 
L 240.853623 207.772442 
L 244.406308 211.526591 
L 247.451467 214.439778 
L 250.242863 216.833626 
L 253.034259 218.940067 
L 255.571891 220.589475 
L 258.109524 221.973479 
L 260.393393 222.984064 
L 262.677262 223.766309 
L 264.961131 224.316384 
L 267.245 224.632098 
L 269.52887 224.712917 
L 271.812739 224.559967 
L 274.096608 224.176027 
L 276.380477 223.565508 
L 278.664346 222.734425 
L 281.201979 221.561574 
L 283.739611 220.138368 
L 286.531007 218.301339 
L 289.322403 216.201742 
L 292.367562 213.641542 
L 295.920247 210.346113 
L 299.980459 206.250137 
L 305.055724 200.783797 
L 320.789045 183.581289 
L 324.849257 179.615524 
L 328.401942 176.463422 
L 331.447101 174.044992 
L 334.238497 172.088241 
L 337.029893 170.403966 
L 339.567525 169.126073 
L 342.105158 168.10255 
L 344.389027 167.407509 
L 346.672896 166.932895 
L 348.956765 166.683038 
L 351.240635 166.660634 
L 353.524504 166.866724 
L 355.808373 167.300687 
L 358.092242 167.960246 
L 360.376111 168.841485 
L 362.913744 170.073859 
L 365.451376 171.563195 
L 368.242772 173.483677 
L 371.034168 175.681078 
L 374.079327 178.36784 
L 377.378249 181.582508 
L 381.184697 185.625535 
L 385.498673 190.545694 
L 391.335227 197.563794 
L 402.754573 211.354468 
L 407.068548 216.190617 
L 410.874997 220.133207 
L 414.173919 223.241919 
L 417.219078 225.816213 
L 420.010474 227.898955 
L 422.80187 229.694515 
L 425.339502 231.062078 
L 427.877135 232.165543 
L 430.161004 232.925233 
L 432.444873 233.458535 
L 434.728742 233.762059 
L 437.012611 233.834058 
L 439.296481 233.674446 
L 441.58035 233.284795 
L 443.864219 232.668323 
L 446.148088 231.829876 
L 448.685721 230.645806 
L 451.223353 229.206731 
L 454.014749 227.34517 
L 456.806145 225.211901 
L 459.851304 222.60262 
L 463.150226 219.482523 
L 466.956674 215.564595 
L 471.524413 210.521954 
L 478.37602 202.570221 
L 486.750208 192.903679 
L 491.317946 187.970583 
L 495.124395 184.17923 
L 498.423317 181.192469 
L 501.468476 178.723703 
L 504.259871 176.732156 
L 507.051267 175.022882 
L 509.5889 173.729837 
L 512.126532 172.697473 
L 514.410401 171.999123 
L 516.69427 171.524895 
L 518.97814 171.278425 
L 521.262009 171.261705 
L 523.545878 171.475068 
L 525.829747 171.917187 
L 528.113616 172.585086 
L 530.397486 173.474158 
L 532.935118 174.71382 
L 535.472751 176.20809 
L 538.264146 178.130261 
L 541.055542 180.324388 
L 544.100701 183.000749 
L 547.399623 186.194783 
L 551.206072 190.200238 
L 555.77381 195.351825 
L 562.371655 203.172077 
L 571.253368 213.661346 
L 575.821107 218.707024 
L 579.627555 222.59005 
L 582.926477 225.654699 
L 585.971636 228.19407 
L 586.732926 228.781699 
L 586.732926 228.781699 
" clip-path="url(#pa62246188c)" style="fill: none; stroke-dasharray: 2.5,4.125; stroke-dashoffset: 0; stroke: #d62728; stroke-width: 2.5"/>
   </g>
   <g id="patch_3">
    <path d="M 54.096563 366.037812 
L 54.096563 33.397812 
" style="fill: none; stroke: #000000; stroke-width: 0.8; stroke-linejoin: miter; stroke-linecap: square"/>
   </g>
   <g id="patch_4">
    <path d="M 612.096563 366.037812 
L 612.096563 33.397812 
" style="fill: none; stroke: #000000; stroke-width: 0.8; stroke-linejoin: miter; stroke-linecap: square"/>
   </g>
   <g id="patch_5">
    <path d="M 54.096563 366.037812 
L 612.096563 366.037812 
" style="fill: none; stroke: #000000; stroke-width: 0.8; stroke-linejoin: miter; stroke-linecap: square"/>
   </g>
   <g id="patch_6">
    <path d="M 54.096563 33.397812 
L 612.096563 33.397812 
" style="fill: none; stroke: #000000; stroke-width: 0.8; stroke-linejoin: miter; stroke-linecap: square"/>
   </g>
   <g id="text_18">
    <!-- Respuesta Transitoria a 250 kHz (Senoidal, 100uV pico, 3 Ciclos) - 5 Vías -->
    <g transform="translate(79.040312 18.397812) scale(0.14 -0.14)">
     <defs>
      <path id="DejaVuSans-52" d="M 2841 2188 
Q 3044 2119 3236 1894 
Q 3428 1669 3622 1275 
L 4263 0 
L 3584 0 
L 2988 1197 
Q 2756 1666 2539 1819 
Q 2322 1972 1947 1972 
L 1259 1972 
L 1259 0 
L 628 0 
L 628 4666 
L 2053 4666 
Q 2853 4666 3247 4331 
Q 3641 3997 3641 3322 
Q 3641 2881 3436 2590 
Q 3231 2300 2841 2188 
z
M 1259 4147 
L 1259 2491 
L 2053 2491 
Q 2509 2491 2742 2702 
Q 2975 2913 2975 3322 
Q 2975 3731 2742 3939 
Q 2509 4147 2053 4147 
L 1259 4147 
z
" transform="scale(0.015625)"/>
      <path id="DejaVuSans-75" d="M 544 1381 
L 544 3500 
L 1119 3500 
L 1119 1403 
Q 1119 906 1312 657 
Q 1506 409 1894 409 
Q 2359 409 2629 706 
Q 2900 1003 2900 1516 
L 2900 3500 
L 3475 3500 
L 3475 0 
L 2900 0 
L 2900 538 
Q 2691 219 2414 64 
Q 2138 -91 1772 -91 
Q 1169 -91 856 284 
Q 544 659 544 1381 
z
M 1991 3584 
L 1991 3584 
z
" transform="scale(0.015625)"/>
      <path id="DejaVuSans-74" d="M 1172 4494 
L 1172 3500 
L 2356 3500 
L 2356 3053 
L 1172 3053 
L 1172 1153 
Q 1172 725 1289 603 
Q 1406 481 1766 481 
L 2356 481 
L 2356 0 
L 1766 0 
Q 1100 0 847 248 
Q 594 497 594 1153 
L 594 3053 
L 172 3053 
L 172 3500 
L 594 3500 
L 594 4494 
L 1172 4494 
z
" transform="scale(0.015625)"/>
      <path id="DejaVuSans-72" d="M 2631 2963 
Q 2534 3019 2420 3045 
Q 2306 3072 2169 3072 
Q 1681 3072 1420 2755 
Q 1159 2438 1159 1844 
L 1159 0 
L 581 0 
L 581 3500 
L 1159 3500 
L 1159 2956 
Q 1341 3275 1631 3429 
Q 1922 3584 2338 3584 
Q 2397 3584 2469 3576 
Q 2541 3569 2628 3553 
L 2631 2963 
z
" transform="scale(0.015625)"/>
      <path id="DejaVuSans-6b" d="M 581 4863 
L 1159 4863 
L 1159 1991 
L 2875 3500 
L 3609 3500 
L 1753 1863 
L 3688 0 
L 2938 0 
L 1159 1709 
L 1159 0 
L 581 0 
L 581 4863 
z
" transform="scale(0.015625)"/>
      <path id="DejaVuSans-48" d="M 628 4666 
L 1259 4666 
L 1259 2753 
L 3553 2753 
L 3553 4666 
L 4184 4666 
L 4184 0 
L 3553 0 
L 3553 2222 
L 1259 2222 
L 1259 0 
L 628 0 
L 628 4666 
z
" transform="scale(0.015625)"/>
      <path id="DejaVuSans-7a" d="M 353 3500 
L 3084 3500 
L 3084 2975 
L 922 459 
L 3084 459 
L 3084 0 
L 275 0 
L 275 525 
L 2438 3041 
L 353 3041 
L 353 3500 
z
" transform="scale(0.015625)"/>
      <path id="DejaVuSans-2c" d="M 750 794 
L 1409 794 
L 1409 256 
L 897 -744 
L 494 -744 
L 750 256 
L 750 794 
z
" transform="scale(0.015625)"/>
      <path id="DejaVuSans-63" d="M 3122 3366 
L 3122 2828 
Q 2878 2963 2633 3030 
Q 2388 3097 2138 3097 
Q 1578 3097 1268 2742 
Q 959 2388 959 1747 
Q 959 1106 1268 751 
Q 1578 397 2138 397 
Q 2388 397 2633 464 
Q 2878 531 3122 666 
L 3122 134 
Q 2881 22 2623 -34 
Q 2366 -91 2075 -91 
Q 1284 -91 818 406 
Q 353 903 353 1747 
Q 353 2603 823 3093 
Q 1294 3584 2113 3584 
Q 2378 3584 2631 3529 
Q 2884 3475 3122 3366 
z
" transform="scale(0.015625)"/>
      <path id="DejaVuSans-33" d="M 2597 2516 
Q 3050 2419 3304 2112 
Q 3559 1806 3559 1356 
Q 3559 666 3084 287 
Q 2609 -91 1734 -91 
Q 1441 -91 1130 -33 
Q 819 25 488 141 
L 488 750 
Q 750 597 1062 519 
Q 1375 441 1716 441 
Q 2309 441 2620 675 
Q 2931 909 2931 1356 
Q 2931 1769 2642 2001 
Q 2353 2234 1838 2234 
L 1294 2234 
L 1294 2753 
L 1863 2753 
Q 2328 2753 2575 2939 
Q 2822 3125 2822 3475 
Q 2822 3834 2567 4026 
Q 2313 4219 1838 4219 
Q 1578 4219 1281 4162 
Q 984 4106 628 3988 
L 628 4550 
Q 988 4650 1302 4700 
Q 1616 4750 1894 4750 
Q 2613 4750 3031 4423 
Q 3450 4097 3450 3541 
Q 3450 3153 3228 2886 
Q 3006 2619 2597 2516 
z
" transform="scale(0.015625)"/>
      <path id="DejaVuSans-43" d="M 4122 4306 
L 4122 3641 
Q 3803 3938 3442 4084 
Q 3081 4231 2675 4231 
Q 1875 4231 1450 3742 
Q 1025 3253 1025 2328 
Q 1025 1406 1450 917 
Q 1875 428 2675 428 
Q 3081 428 3442 575 
Q 3803 722 4122 1019 
L 4122 359 
Q 3791 134 3420 21 
Q 3050 -91 2638 -91 
Q 1578 -91 968 557 
Q 359 1206 359 2328 
Q 359 3453 968 4101 
Q 1578 4750 2638 4750 
Q 3056 4750 3426 4639 
Q 3797 4528 4122 4306 
z
" transform="scale(0.015625)"/>
      <path id="DejaVuSans-2d" d="M 313 2009 
L 1997 2009 
L 1997 1497 
L 313 1497 
L 313 2009 
z
" transform="scale(0.015625)"/>
      <path id="DejaVuSans-ed" d="M 1322 5119 
L 1944 5119 
L 926 3944 
L 447 3944 
L 1322 5119 
z
M 603 3500 
L 1178 3500 
L 1178 0 
L 603 0 
L 603 3500 
z
M 891 3584 
L 891 3584 
z
" transform="scale(0.015625)"/>
     </defs>
     <use xlink:href="#DejaVuSans-52"/>
     <use xlink:href="#DejaVuSans-65" transform="translate(64.982422 0)"/>
     <use xlink:href="#DejaVuSans-73" transform="translate(126.505859 0)"/>
     <use xlink:href="#DejaVuSans-70" transform="translate(178.605469 0)"/>
     <use xlink:href="#DejaVuSans-75" transform="translate(242.082031 0)"/>
     <use xlink:href="#DejaVuSans-65" transform="translate(305.460938 0)"/>
     <use xlink:href="#DejaVuSans-73" transform="translate(366.984375 0)"/>
     <use xlink:href="#DejaVuSans-74" transform="translate(419.083984 0)"/>
     <use xlink:href="#DejaVuSans-61" transform="translate(458.292969 0)"/>
     <use xlink:href="#DejaVuSans-20" transform="translate(519.572266 0)"/>
     <use xlink:href="#DejaVuSans-54" transform="translate(551.359375 0)"/>
     <use xlink:href="#DejaVuSans-72" transform="translate(597.693359 0)"/>
     <use xlink:href="#DejaVuSans-61" transform="translate(638.806641 0)"/>
     <use xlink:href="#DejaVuSans-6e" transform="translate(700.085938 0)"/>
     <use xlink:href="#DejaVuSans-73" transform="translate(763.464844 0)"/>
     <use xlink:href="#DejaVuSans-69" transform="translate(815.564453 0)"/>
     <use xlink:href="#DejaVuSans-74" transform="translate(843.347656 0)"/>
     <use xlink:href="#DejaVuSans-6f" transform="translate(882.556641 0)"/>
     <use xlink:href="#DejaVuSans-72" transform="translate(943.738281 0)"/>
     <use xlink:href="#DejaVuSans-69" transform="translate(984.851562 0)"/>
     <use xlink:href="#DejaVuSans-61" transform="translate(1012.634766 0)"/>
     <use xlink:href="#DejaVuSans-20" transform="translate(1073.914062 0)"/>
     <use xlink:href="#DejaVuSans-61" transform="translate(1105.701172 0)"/>
     <use xlink:href="#DejaVuSans-20" transform="translate(1166.980469 0)"/>
     <use xlink:href="#DejaVuSans-32" transform="translate(1198.767578 0)"/>
     <use xlink:href="#DejaVuSans-35" transform="translate(1262.390625 0)"/>
     <use xlink:href="#DejaVuSans-30" transform="translate(1326.013672 0)"/>
     <use xlink:href="#DejaVuSans-20" transform="translate(1389.636719 0)"/>
     <use xlink:href="#DejaVuSans-6b" transform="translate(1421.423828 0)"/>
     <use xlink:href="#DejaVuSans-48" transform="translate(1479.333984 0)"/>
     <use xlink:href="#DejaVuSans-7a" transform="translate(1554.529297 0)"/>
     <use xlink:href="#DejaVuSans-20" transform="translate(1607.019531 0)"/>
     <use xlink:href="#DejaVuSans-28" transform="translate(1638.806641 0)"/>
     <use xlink:href="#DejaVuSans-53" transform="translate(1677.820312 0)"/>
     <use xlink:href="#DejaVuSans-65" transform="translate(1741.296875 0)"/>
     <use xlink:href="#DejaVuSans-6e" transform="translate(1802.820312 0)"/>
     <use xlink:href="#DejaVuSans-6f" transform="translate(1866.199219 0)"/>
     <use xlink:href="#DejaVuSans-69" transform="translate(1927.380859 0)"/>
     <use xlink:href="#DejaVuSans-64" transform="translate(1955.164062 0)"/>
     <use xlink:href="#DejaVuSans-61" transform="translate(2018.640625 0)"/>
     <use xlink:href="#DejaVuSans-6c" transform="translate(2079.919922 0)"/>
     <use xlink:href="#DejaVuSans-2c" transform="translate(2107.703125 0)"/>
     <use xlink:href="#DejaVuSans-20" transform="translate(2139.490234 0)"/>
     <use xlink:href="#DejaVuSans-31" transform="translate(2171.277344 0)"/>
     <use xlink:href="#DejaVuSans-30" transform="translate(2234.900391 0)"/>
     <use xlink:href="#DejaVuSans-30" transform="translate(2298.523438 0)"/>
     <use xlink:href="#DejaVuSans-75" transform="translate(2362.146484 0)"/>
     <use xlink:href="#DejaVuSans-56" transform="translate(2425.525391 0)"/>
     <use xlink:href="#DejaVuSans-20" transform="translate(2493.933594 0)"/>
     <use xlink:href="#DejaVuSans-70" transform="translate(2525.720703 0)"/>
     <use xlink:href="#DejaVuSans-69" transform="translate(2589.197266 0)"/>
     <use xlink:href="#DejaVuSans-63" transform="translate(2616.980469 0)"/>
     <use xlink:href="#DejaVuSans-6f" transform="translate(2671.960938 0)"/>
     <use xlink:href="#DejaVuSans-2c" transform="translate(2733.142578 0)"/>
     <use xlink:href="#DejaVuSans-20" transform="translate(2764.929688 0)"/>
     <use xlink:href="#DejaVuSans-33" transform="translate(2796.716797 0)"/>
     <use xlink:href="#DejaVuSans-20" transform="translate(2860.339844 0)"/>
     <use xlink:href="#DejaVuSans-43" transform="translate(2892.126953 0)"/>
     <use xlink:href="#DejaVuSans-69" transform="translate(2961.951172 0)"/>
     <use xlink:href="#DejaVuSans-63" transform="translate(2989.734375 0)"/>
     <use xlink:href="#DejaVuSans-6c" transform="translate(3044.714844 0)"/>
     <use xlink:href="#DejaVuSans-6f" transform="translate(3072.498047 0)"/>
     <use xlink:href="#DejaVuSans-73" transform="translate(3133.679688 0)"/>
     <use xlink:href="#DejaVuSans-29" transform="translate(3185.779297 0)"/>
     <use xlink:href="#DejaVuSans-20" transform="translate(3224.792969 0)"/>
     <use xlink:href="#DejaVuSans-2d" transform="translate(3256.580078 0)"/>
     <use xlink:href="#DejaVuSans-20" transform="translate(3292.664062 0)"/>
     <use xlink:href="#DejaVuSans-35" transform="translate(3324.451172 0)"/>
     <use xlink:href="#DejaVuSans-20" transform="translate(3388.074219 0)"/>
     <use xlink:href="#DejaVuSans-56" transform="translate(3419.861328 0)"/>
     <use xlink:href="#DejaVuSans-ed" transform="translate(3488.269531 0)"/>
     <use xlink:href="#DejaVuSans-61" transform="translate(3516.052734 0)"/>
     <use xlink:href="#DejaVuSans-73" transform="translate(3577.332031 0)"/>
    </g>
   </g>
   <g id="legend_1">
    <g id="patch_7">
     <path d="M 461.308906 122.9275 
L 604.396562 122.9275 
Q 606.596563 122.9275 606.596563 120.7275 
L 606.596563 41.097812 
Q 606.596563 38.897812 604.396562 38.897812 
L 461.308906 38.897812 
Q 459.108906 38.897812 459.108906 41.097812 
L 459.108906 120.7275 
Q 459.108906 122.9275 461.308906 122.9275 
z
" style="fill: #ffffff; opacity: 0.8; stroke: #cccccc; stroke-linejoin: miter"/>
    </g>
    <g id="line2d_36">
     <path d="M 463.508906 47.806094 
L 474.508906 47.806094 
L 485.508906 47.806094 
" style="fill: none; stroke: #1f77b4; stroke-width: 2.5; stroke-linecap: square"/>
    </g>
    <g id="text_19">
     <!-- Ideal Op-Amp -->
     <g transform="translate(494.308906 51.656094) scale(0.11 -0.11)">
      <defs>
       <path id="DejaVuSans-49" d="M 628 4666 
L 1259 4666 
L 1259 0 
L 628 0 
L 628 4666 
z
" transform="scale(0.015625)"/>
       <path id="DejaVuSans-4f" d="M 2522 4238 
Q 1834 4238 1429 3725 
Q 1025 3213 1025 2328 
Q 1025 1447 1429 934 
Q 1834 422 2522 422 
Q 3209 422 3611 934 
Q 4013 1447 4013 2328 
Q 4013 3213 3611 3725 
Q 3209 4238 2522 4238 
z
M 2522 4750 
Q 3503 4750 4090 4092 
Q 4678 3434 4678 2328 
Q 4678 1225 4090 567 
Q 3503 -91 2522 -91 
Q 1538 -91 948 565 
Q 359 1222 359 2328 
Q 359 3434 948 4092 
Q 1538 4750 2522 4750 
z
" transform="scale(0.015625)"/>
       <path id="DejaVuSans-41" d="M 2188 4044 
L 1331 1722 
L 3047 1722 
L 2188 4044 
z
M 1831 4666 
L 2547 4666 
L 4325 0 
L 3669 0 
L 3244 1197 
L 1141 1197 
L 716 0 
L 50 0 
L 1831 4666 
z
" transform="scale(0.015625)"/>
      </defs>
      <use xlink:href="#DejaVuSans-49"/>
      <use xlink:href="#DejaVuSans-64" transform="translate(29.492188 0)"/>
      <use xlink:href="#DejaVuSans-65" transform="translate(92.96875 0)"/>
      <use xlink:href="#DejaVuSans-61" transform="translate(154.492188 0)"/>
      <use xlink:href="#DejaVuSans-6c" transform="translate(215.771484 0)"/>
      <use xlink:href="#DejaVuSans-20" transform="translate(243.554688 0)"/>
      <use xlink:href="#DejaVuSans-4f" transform="translate(275.341797 0)"/>
      <use xlink:href="#DejaVuSans-70" transform="translate(354.052734 0)"/>
      <use xlink:href="#DejaVuSans-2d" transform="translate(417.529297 0)"/>
      <use xlink:href="#DejaVuSans-41" transform="translate(451.363281 0)"/>
      <use xlink:href="#DejaVuSans-6d" transform="translate(519.771484 0)"/>
      <use xlink:href="#DejaVuSans-70" transform="translate(617.183594 0)"/>
     </g>
    </g>
    <g id="line2d_37">
     <path d="M 463.508906 63.952031 
L 474.508906 63.952031 
L 485.508906 63.952031 
" style="fill: none; stroke: #ff7f0e; stroke-width: 3; stroke-linecap: square"/>
    </g>
    <g id="text_20">
     <!-- ADA4817-1 FastFET -->
     <g transform="translate(494.308906 67.802031) scale(0.11 -0.11)">
      <defs>
       <path id="DejaVuSans-44" d="M 1259 4147 
L 1259 519 
L 2022 519 
Q 2988 519 3436 956 
Q 3884 1394 3884 2338 
Q 3884 3275 3436 3711 
Q 2988 4147 2022 4147 
L 1259 4147 
z
M 628 4666 
L 1925 4666 
Q 3281 4666 3915 4102 
Q 4550 3538 4550 2338 
Q 4550 1131 3912 565 
Q 3275 0 1925 0 
L 628 0 
L 628 4666 
z
" transform="scale(0.015625)"/>
       <path id="DejaVuSans-37" d="M 525 4666 
L 3525 4666 
L 3525 4397 
L 1831 0 
L 1172 0 
L 2766 4134 
L 525 4134 
L 525 4666 
z
" transform="scale(0.015625)"/>
       <path id="DejaVuSans-46" d="M 628 4666 
L 3309 4666 
L 3309 4134 
L 1259 4134 
L 1259 2759 
L 3109 2759 
L 3109 2228 
L 1259 2228 
L 1259 0 
L 628 0 
L 628 4666 
z
" transform="scale(0.015625)"/>
       <path id="DejaVuSans-45" d="M 628 4666 
L 3578 4666 
L 3578 4134 
L 1259 4134 
L 1259 2753 
L 3481 2753 
L 3481 2222 
L 1259 2222 
L 1259 531 
L 3634 531 
L 3634 0 
L 628 0 
L 628 4666 
z
" transform="scale(0.015625)"/>
      </defs>
      <use xlink:href="#DejaVuSans-41"/>
      <use xlink:href="#DejaVuSans-44" transform="translate(68.408203 0)"/>
      <use xlink:href="#DejaVuSans-41" transform="translate(143.660156 0)"/>
      <use xlink:href="#DejaVuSans-34" transform="translate(212.068359 0)"/>
      <use xlink:href="#DejaVuSans-38" transform="translate(275.691406 0)"/>
      <use xlink:href="#DejaVuSans-31" transform="translate(339.314453 0)"/>
      <use xlink:href="#DejaVuSans-37" transform="translate(402.9375 0)"/>
      <use xlink:href="#DejaVuSans-2d" transform="translate(466.560547 0)"/>
      <use xlink:href="#DejaVuSans-31" transform="translate(502.644531 0)"/>
      <use xlink:href="#DejaVuSans-20" transform="translate(566.267578 0)"/>
      <use xlink:href="#DejaVuSans-46" transform="translate(598.054688 0)"/>
      <use xlink:href="#DejaVuSans-61" transform="translate(646.449219 0)"/>
      <use xlink:href="#DejaVuSans-73" transform="translate(707.728516 0)"/>
      <use xlink:href="#DejaVuSans-74" transform="translate(759.828125 0)"/>
      <use xlink:href="#DejaVuSans-46" transform="translate(799.037109 0)"/>
      <use xlink:href="#DejaVuSans-45" transform="translate(856.556641 0)"/>
      <use xlink:href="#DejaVuSans-54" transform="translate(919.740234 0)"/>
     </g>
    </g>
    <g id="line2d_38">
     <path d="M 463.508906 80.097969 
L 474.508906 80.097969 
L 485.508906 80.097969 
" style="fill: none; stroke-dasharray: 16,4,2.5,4; stroke-dashoffset: 0; stroke: #9467bd; stroke-width: 2.5"/>
    </g>
    <g id="text_21">
     <!-- OPA828 JFET -->
     <g transform="translate(494.308906 83.947969) scale(0.11 -0.11)">
      <defs>
       <path id="DejaVuSans-50" d="M 1259 4147 
L 1259 2394 
L 2053 2394 
Q 2494 2394 2734 2622 
Q 2975 2850 2975 3272 
Q 2975 3691 2734 3919 
Q 2494 4147 2053 4147 
L 1259 4147 
z
M 628 4666 
L 2053 4666 
Q 2838 4666 3239 4311 
Q 3641 3956 3641 3272 
Q 3641 2581 3239 2228 
Q 2838 1875 2053 1875 
L 1259 1875 
L 1259 0 
L 628 0 
L 628 4666 
z
" transform="scale(0.015625)"/>
       <path id="DejaVuSans-4a" d="M 628 4666 
L 1259 4666 
L 1259 325 
Q 1259 -519 939 -900 
Q 619 -1281 -91 -1281 
L -331 -1281 
L -331 -750 
L -134 -750 
Q 284 -750 456 -515 
Q 628 -281 628 325 
L 628 4666 
z
" transform="scale(0.015625)"/>
      </defs>
      <use xlink:href="#DejaVuSans-4f"/>
      <use xlink:href="#DejaVuSans-50" transform="translate(78.710938 0)"/>
      <use xlink:href="#DejaVuSans-41" transform="translate(132.638672 0)"/>
      <use xlink:href="#DejaVuSans-38" transform="translate(201.046875 0)"/>
      <use xlink:href="#DejaVuSans-32" transform="translate(264.669922 0)"/>
      <use xlink:href="#DejaVuSans-38" transform="translate(328.292969 0)"/>
      <use xlink:href="#DejaVuSans-20" transform="translate(391.916016 0)"/>
      <use xlink:href="#DejaVuSans-4a" transform="translate(423.703125 0)"/>
      <use xlink:href="#DejaVuSans-46" transform="translate(453.195312 0)"/>
      <use xlink:href="#DejaVuSans-45" transform="translate(510.714844 0)"/>
      <use xlink:href="#DejaVuSans-54" transform="translate(573.898438 0)"/>
     </g>
    </g>
    <g id="line2d_39">
     <path d="M 463.508906 96.243906 
L 474.508906 96.243906 
L 485.508906 96.243906 
" style="fill: none; stroke-dasharray: 9.25,4; stroke-dashoffset: 0; stroke: #2ca02c; stroke-width: 2.5"/>
    </g>
    <g id="text_22">
     <!-- LF357 JFET -->
     <g transform="translate(494.308906 100.093906) scale(0.11 -0.11)">
      <defs>
       <path id="DejaVuSans-4c" d="M 628 4666 
L 1259 4666 
L 1259 531 
L 3531 531 
L 3531 0 
L 628 0 
L 628 4666 
z
" transform="scale(0.015625)"/>
      </defs>
      <use xlink:href="#DejaVuSans-4c"/>
      <use xlink:href="#DejaVuSans-46" transform="translate(55.712891 0)"/>
      <use xlink:href="#DejaVuSans-33" transform="translate(113.232422 0)"/>
      <use xlink:href="#DejaVuSans-35" transform="translate(176.855469 0)"/>
      <use xlink:href="#DejaVuSans-37" transform="translate(240.478516 0)"/>
      <use xlink:href="#DejaVuSans-20" transform="translate(304.101562 0)"/>
      <use xlink:href="#DejaVuSans-4a" transform="translate(335.888672 0)"/>
      <use xlink:href="#DejaVuSans-46" transform="translate(365.380859 0)"/>
      <use xlink:href="#DejaVuSans-45" transform="translate(422.900391 0)"/>
      <use xlink:href="#DejaVuSans-54" transform="translate(486.083984 0)"/>
     </g>
    </g>
    <g id="line2d_40">
     <path d="M 463.508906 112.389844 
L 474.508906 112.389844 
L 485.508906 112.389844 
" style="fill: none; stroke-dasharray: 2.5,4.125; stroke-dashoffset: 0; stroke: #d62728; stroke-width: 2.5"/>
    </g>
    <g id="text_23">
     <!-- TL071 JFET -->
     <g transform="translate(494.308906 116.239844) scale(0.11 -0.11)">
      <use xlink:href="#DejaVuSans-54"/>
      <use xlink:href="#DejaVuSans-4c" transform="translate(61.083984 0)"/>
      <use xlink:href="#DejaVuSans-30" transform="translate(116.796875 0)"/>
      <use xlink:href="#DejaVuSans-37" transform="translate(180.419922 0)"/>
      <use xlink:href="#DejaVuSans-31" transform="translate(244.042969 0)"/>
      <use xlink:href="#DejaVuSans-20" transform="translate(307.666016 0)"/>
      <use xlink:href="#DejaVuSans-4a" transform="translate(339.453125 0)"/>
      <use xlink:href="#DejaVuSans-46" transform="translate(368.945312 0)"/>
      <use xlink:href="#DejaVuSans-45" transform="translate(426.464844 0)"/>
      <use xlink:href="#DejaVuSans-54" transform="translate(489.648438 0)"/>
     </g>
    </g>
   </g>
  </g>
 </g>
 <defs>
  <clipPath id="pa62246188c">
   <rect x="54.096563" y="33.397812" width="558" height="332.64"/>
  </clipPath>
 </defs>
</svg>
