<?xml version="1.0" encoding="utf-8" standalone="no"?>
<!DOCTYPE svg PUBLIC "-//W3C//DTD SVG 1.1//EN"
  "http://www.w3.org/Graphics/SVG/1.1/DTD/svg11.dtd">
<svg xmlns:xlink="http://www.w3.org/1999/xlink" width="609.755938pt" height="405.529687pt" viewBox="0 0 609.755938 405.529687" xmlns="http://www.w3.org/2000/svg" version="1.1">
 <metadata>
  <rdf:RDF xmlns:dc="http://purl.org/dc/elements/1.1/" xmlns:cc="http://creativecommons.org/ns#" xmlns:rdf="http://www.w3.org/1999/02/22-rdf-syntax-ns#">
   <cc:Work>
    <dc:type rdf:resource="http://purl.org/dc/dcmitype/StillImage"/>
    <dc:date>2026-05-24T18:38:23.719153</dc:date>
    <dc:format>image/svg+xml</dc:format>
    <dc:creator>
     <cc:Agent>
      <dc:title>Matplotlib v3.10.9, https://matplotlib.org/</dc:title>
     </cc:Agent>
    </dc:creator>
   </cc:Work>
  </rdf:RDF>
 </metadata>
 <defs>
  <style type="text/css">*{stroke-linejoin: round; stroke-linecap: butt}</style>
 </defs>
 <g id="figure_1">
  <g id="patch_1">
   <path d="M -0 405.529687 
L 609.755938 405.529687 
L 609.755938 0 
L -0 0 
z
" style="fill: #ffffff"/>
  </g>
  <g id="axes_1">
   <g id="patch_2">
    <path d="M 44.555937 366.037812 
L 602.555938 366.037812 
L 602.555938 33.397812 
L 44.555937 33.397812 
z
" style="fill: #ffffff"/>
   </g>
   <g id="matplotlib.axis_1">
    <g id="xtick_1">
     <g id="line2d_1">
      <path d="M 69.919574 366.037812 
L 69.919574 33.397812 
" clip-path="url(#p824d04e392)" style="fill: none; stroke: #e0e0e0; stroke-width: 0.8; stroke-linecap: square"/>
     </g>
     <g id="line2d_2">
      <defs>
       <path id="md9094bbc06" d="M 0 0 
L 0 3.5 
" style="stroke: #000000; stroke-width: 0.8"/>
      </defs>
      <g>
       <use xlink:href="#md9094bbc06" x="69.919574" y="366.037812" style="stroke: #000000; stroke-width: 0.8"/>
      </g>
     </g>
     <g id="text_1">
      <!-- 0 -->
      <g transform="translate(66.738324 380.63625) scale(0.1 -0.1)">
       <defs>
        <path id="DejaVuSans-30" d="M 2034 4250 
Q 1547 4250 1301 3770 
Q 1056 3291 1056 2328 
Q 1056 1369 1301 889 
Q 1547 409 2034 409 
Q 2525 409 2770 889 
Q 3016 1369 3016 2328 
Q 3016 3291 2770 3770 
Q 2525 4250 2034 4250 
z
M 2034 4750 
Q 2819 4750 3233 4129 
Q 3647 3509 3647 2328 
Q 3647 1150 3233 529 
Q 2819 -91 2034 -91 
Q 1250 -91 836 529 
Q 422 1150 422 2328 
Q 422 3509 836 4129 
Q 1250 4750 2034 4750 
z
" transform="scale(0.015625)"/>
       </defs>
       <use xlink:href="#DejaVuSans-30"/>
      </g>
     </g>
    </g>
    <g id="xtick_2">
     <g id="line2d_3">
      <path d="M 154.465028 366.037812 
L 154.465028 33.397812 
" clip-path="url(#p824d04e392)" style="fill: none; stroke: #e0e0e0; stroke-width: 0.8; stroke-linecap: square"/>
     </g>
     <g id="line2d_4">
      <g>
       <use xlink:href="#md9094bbc06" x="154.465028" y="366.037812" style="stroke: #000000; stroke-width: 0.8"/>
      </g>
     </g>
     <g id="text_2">
      <!-- 10 -->
      <g transform="translate(148.102528 380.63625) scale(0.1 -0.1)">
       <defs>
        <path id="DejaVuSans-31" d="M 794 531 
L 1825 531 
L 1825 4091 
L 703 3866 
L 703 4441 
L 1819 4666 
L 2450 4666 
L 2450 531 
L 3481 531 
L 3481 0 
L 794 0 
L 794 531 
z
" transform="scale(0.015625)"/>
       </defs>
       <use xlink:href="#DejaVuSans-31"/>
       <use xlink:href="#DejaVuSans-30" transform="translate(63.623047 0)"/>
      </g>
     </g>
    </g>
    <g id="xtick_3">
     <g id="line2d_5">
      <path d="M 239.010483 366.037812 
L 239.010483 33.397812 
" clip-path="url(#p824d04e392)" style="fill: none; stroke: #e0e0e0; stroke-width: 0.8; stroke-linecap: square"/>
     </g>
     <g id="line2d_6">
      <g>
       <use xlink:href="#md9094bbc06" x="239.010483" y="366.037812" style="stroke: #000000; stroke-width: 0.8"/>
      </g>
     </g>
     <g id="text_3">
      <!-- 20 -->
      <g transform="translate(232.647983 380.63625) scale(0.1 -0.1)">
       <defs>
        <path id="DejaVuSans-32" d="M 1228 531 
L 3431 531 
L 3431 0 
L 469 0 
L 469 531 
Q 828 903 1448 1529 
Q 2069 2156 2228 2338 
Q 2531 2678 2651 2914 
Q 2772 3150 2772 3378 
Q 2772 3750 2511 3984 
Q 2250 4219 1831 4219 
Q 1534 4219 1204 4116 
Q 875 4013 500 3803 
L 500 4441 
Q 881 4594 1212 4672 
Q 1544 4750 1819 4750 
Q 2544 4750 2975 4387 
Q 3406 4025 3406 3419 
Q 3406 3131 3298 2873 
Q 3191 2616 2906 2266 
Q 2828 2175 2409 1742 
Q 1991 1309 1228 531 
z
" transform="scale(0.015625)"/>
       </defs>
       <use xlink:href="#DejaVuSans-32"/>
       <use xlink:href="#DejaVuSans-30" transform="translate(63.623047 0)"/>
      </g>
     </g>
    </g>
    <g id="xtick_4">
     <g id="line2d_7">
      <path d="M 323.555938 366.037812 
L 323.555938 33.397812 
" clip-path="url(#p824d04e392)" style="fill: none; stroke: #e0e0e0; stroke-width: 0.8; stroke-linecap: square"/>
     </g>
     <g id="line2d_8">
      <g>
       <use xlink:href="#md9094bbc06" x="323.555938" y="366.037812" style="stroke: #000000; stroke-width: 0.8"/>
      </g>
     </g>
     <g id="text_4">
      <!-- 30 -->
      <g transform="translate(317.193438 380.63625) scale(0.1 -0.1)">
       <defs>
        <path id="DejaVuSans-33" d="M 2597 2516 
Q 3050 2419 3304 2112 
Q 3559 1806 3559 1356 
Q 3559 666 3084 287 
Q 2609 -91 1734 -91 
Q 1441 -91 1130 -33 
Q 819 25 488 141 
L 488 750 
Q 750 597 1062 519 
Q 1375 441 1716 441 
Q 2309 441 2620 675 
Q 2931 909 2931 1356 
Q 2931 1769 2642 2001 
Q 2353 2234 1838 2234 
L 1294 2234 
L 1294 2753 
L 1863 2753 
Q 2328 2753 2575 2939 
Q 2822 3125 2822 3475 
Q 2822 3834 2567 4026 
Q 2313 4219 1838 4219 
Q 1578 4219 1281 4162 
Q 984 4106 628 3988 
L 628 4550 
Q 988 4650 1302 4700 
Q 1616 4750 1894 4750 
Q 2613 4750 3031 4423 
Q 3450 4097 3450 3541 
Q 3450 3153 3228 2886 
Q 3006 2619 2597 2516 
z
" transform="scale(0.015625)"/>
       </defs>
       <use xlink:href="#DejaVuSans-33"/>
       <use xlink:href="#DejaVuSans-30" transform="translate(63.623047 0)"/>
      </g>
     </g>
    </g>
    <g id="xtick_5">
     <g id="line2d_9">
      <path d="M 408.101392 366.037812 
L 408.101392 33.397812 
" clip-path="url(#p824d04e392)" style="fill: none; stroke: #e0e0e0; stroke-width: 0.8; stroke-linecap: square"/>
     </g>
     <g id="line2d_10">
      <g>
       <use xlink:href="#md9094bbc06" x="408.101392" y="366.037812" style="stroke: #000000; stroke-width: 0.8"/>
      </g>
     </g>
     <g id="text_5">
      <!-- 40 -->
      <g transform="translate(401.738892 380.63625) scale(0.1 -0.1)">
       <defs>
        <path id="DejaVuSans-34" d="M 2419 4116 
L 825 1625 
L 2419 1625 
L 2419 4116 
z
M 2253 4666 
L 3047 4666 
L 3047 1625 
L 3713 1625 
L 3713 1100 
L 3047 1100 
L 3047 0 
L 2419 0 
L 2419 1100 
L 313 1100 
L 313 1709 
L 2253 4666 
z
" transform="scale(0.015625)"/>
       </defs>
       <use xlink:href="#DejaVuSans-34"/>
       <use xlink:href="#DejaVuSans-30" transform="translate(63.623047 0)"/>
      </g>
     </g>
    </g>
    <g id="xtick_6">
     <g id="line2d_11">
      <path d="M 492.646847 366.037812 
L 492.646847 33.397812 
" clip-path="url(#p824d04e392)" style="fill: none; stroke: #e0e0e0; stroke-width: 0.8; stroke-linecap: square"/>
     </g>
     <g id="line2d_12">
      <g>
       <use xlink:href="#md9094bbc06" x="492.646847" y="366.037812" style="stroke: #000000; stroke-width: 0.8"/>
      </g>
     </g>
     <g id="text_6">
      <!-- 50 -->
      <g transform="translate(486.284347 380.63625) scale(0.1 -0.1)">
       <defs>
        <path id="DejaVuSans-35" d="M 691 4666 
L 3169 4666 
L 3169 4134 
L 1269 4134 
L 1269 2991 
Q 1406 3038 1543 3061 
Q 1681 3084 1819 3084 
Q 2600 3084 3056 2656 
Q 3513 2228 3513 1497 
Q 3513 744 3044 326 
Q 2575 -91 1722 -91 
Q 1428 -91 1123 -41 
Q 819 9 494 109 
L 494 744 
Q 775 591 1075 516 
Q 1375 441 1709 441 
Q 2250 441 2565 725 
Q 2881 1009 2881 1497 
Q 2881 1984 2565 2268 
Q 2250 2553 1709 2553 
Q 1456 2553 1204 2497 
Q 953 2441 691 2322 
L 691 4666 
z
" transform="scale(0.015625)"/>
       </defs>
       <use xlink:href="#DejaVuSans-35"/>
       <use xlink:href="#DejaVuSans-30" transform="translate(63.623047 0)"/>
      </g>
     </g>
    </g>
    <g id="xtick_7">
     <g id="line2d_13">
      <path d="M 577.192301 366.037812 
L 577.192301 33.397812 
" clip-path="url(#p824d04e392)" style="fill: none; stroke: #e0e0e0; stroke-width: 0.8; stroke-linecap: square"/>
     </g>
     <g id="line2d_14">
      <g>
       <use xlink:href="#md9094bbc06" x="577.192301" y="366.037812" style="stroke: #000000; stroke-width: 0.8"/>
      </g>
     </g>
     <g id="text_7">
      <!-- 60 -->
      <g transform="translate(570.829801 380.63625) scale(0.1 -0.1)">
       <defs>
        <path id="DejaVuSans-36" d="M 2113 2584 
Q 1688 2584 1439 2293 
Q 1191 2003 1191 1497 
Q 1191 994 1439 701 
Q 1688 409 2113 409 
Q 2538 409 2786 701 
Q 3034 994 3034 1497 
Q 3034 2003 2786 2293 
Q 2538 2584 2113 2584 
z
M 3366 4563 
L 3366 3988 
Q 3128 4100 2886 4159 
Q 2644 4219 2406 4219 
Q 1781 4219 1451 3797 
Q 1122 3375 1075 2522 
Q 1259 2794 1537 2939 
Q 1816 3084 2150 3084 
Q 2853 3084 3261 2657 
Q 3669 2231 3669 1497 
Q 3669 778 3244 343 
Q 2819 -91 2113 -91 
Q 1303 -91 875 529 
Q 447 1150 447 2328 
Q 447 3434 972 4092 
Q 1497 4750 2381 4750 
Q 2619 4750 2861 4703 
Q 3103 4656 3366 4563 
z
" transform="scale(0.015625)"/>
       </defs>
       <use xlink:href="#DejaVuSans-36"/>
       <use xlink:href="#DejaVuSans-30" transform="translate(63.623047 0)"/>
      </g>
     </g>
    </g>
    <g id="text_8">
     <!-- Tiempo (μs) -->
     <g transform="translate(287.863438 395.834062) scale(0.12 -0.12)">
      <defs>
       <path id="DejaVuSans-54" d="M -19 4666 
L 3928 4666 
L 3928 4134 
L 2272 4134 
L 2272 0 
L 1638 0 
L 1638 4134 
L -19 4134 
L -19 4666 
z
" transform="scale(0.015625)"/>
       <path id="DejaVuSans-69" d="M 603 3500 
L 1178 3500 
L 1178 0 
L 603 0 
L 603 3500 
z
M 603 4863 
L 1178 4863 
L 1178 4134 
L 603 4134 
L 603 4863 
z
" transform="scale(0.015625)"/>
       <path id="DejaVuSans-65" d="M 3597 1894 
L 3597 1613 
L 953 1613 
Q 991 1019 1311 708 
Q 1631 397 2203 397 
Q 2534 397 2845 478 
Q 3156 559 3463 722 
L 3463 178 
Q 3153 47 2828 -22 
Q 2503 -91 2169 -91 
Q 1331 -91 842 396 
Q 353 884 353 1716 
Q 353 2575 817 3079 
Q 1281 3584 2069 3584 
Q 2775 3584 3186 3129 
Q 3597 2675 3597 1894 
z
M 3022 2063 
Q 3016 2534 2758 2815 
Q 2500 3097 2075 3097 
Q 1594 3097 1305 2825 
Q 1016 2553 972 2059 
L 3022 2063 
z
" transform="scale(0.015625)"/>
       <path id="DejaVuSans-6d" d="M 3328 2828 
Q 3544 3216 3844 3400 
Q 4144 3584 4550 3584 
Q 5097 3584 5394 3201 
Q 5691 2819 5691 2113 
L 5691 0 
L 5113 0 
L 5113 2094 
Q 5113 2597 4934 2840 
Q 4756 3084 4391 3084 
Q 3944 3084 3684 2787 
Q 3425 2491 3425 1978 
L 3425 0 
L 2847 0 
L 2847 2094 
Q 2847 2600 2669 2842 
Q 2491 3084 2119 3084 
Q 1678 3084 1418 2786 
Q 1159 2488 1159 1978 
L 1159 0 
L 581 0 
L 581 3500 
L 1159 3500 
L 1159 2956 
Q 1356 3278 1631 3431 
Q 1906 3584 2284 3584 
Q 2666 3584 2933 3390 
Q 3200 3197 3328 2828 
z
" transform="scale(0.015625)"/>
       <path id="DejaVuSans-70" d="M 1159 525 
L 1159 -1331 
L 581 -1331 
L 581 3500 
L 1159 3500 
L 1159 2969 
Q 1341 3281 1617 3432 
Q 1894 3584 2278 3584 
Q 2916 3584 3314 3078 
Q 3713 2572 3713 1747 
Q 3713 922 3314 415 
Q 2916 -91 2278 -91 
Q 1894 -91 1617 61 
Q 1341 213 1159 525 
z
M 3116 1747 
Q 3116 2381 2855 2742 
Q 2594 3103 2138 3103 
Q 1681 3103 1420 2742 
Q 1159 2381 1159 1747 
Q 1159 1113 1420 752 
Q 1681 391 2138 391 
Q 2594 391 2855 752 
Q 3116 1113 3116 1747 
z
" transform="scale(0.015625)"/>
       <path id="DejaVuSans-6f" d="M 1959 3097 
Q 1497 3097 1228 2736 
Q 959 2375 959 1747 
Q 959 1119 1226 758 
Q 1494 397 1959 397 
Q 2419 397 2687 759 
Q 2956 1122 2956 1747 
Q 2956 2369 2687 2733 
Q 2419 3097 1959 3097 
z
M 1959 3584 
Q 2709 3584 3137 3096 
Q 3566 2609 3566 1747 
Q 3566 888 3137 398 
Q 2709 -91 1959 -91 
Q 1206 -91 779 398 
Q 353 888 353 1747 
Q 353 2609 779 3096 
Q 1206 3584 1959 3584 
z
" transform="scale(0.015625)"/>
       <path id="DejaVuSans-20" transform="scale(0.015625)"/>
       <path id="DejaVuSans-28" d="M 1984 4856 
Q 1566 4138 1362 3434 
Q 1159 2731 1159 2009 
Q 1159 1288 1364 580 
Q 1569 -128 1984 -844 
L 1484 -844 
Q 1016 -109 783 600 
Q 550 1309 550 2009 
Q 550 2706 781 3412 
Q 1013 4119 1484 4856 
L 1984 4856 
z
" transform="scale(0.015625)"/>
       <path id="DejaVuSans-3bc" d="M 544 -1331 
L 544 3500 
L 1119 3500 
L 1119 1325 
Q 1119 872 1334 640 
Q 1550 409 1972 409 
Q 2434 409 2667 671 
Q 2900 934 2900 1459 
L 2900 3500 
L 3475 3500 
L 3475 806 
Q 3475 619 3529 530 
Q 3584 441 3700 441 
Q 3728 441 3778 458 
Q 3828 475 3916 513 
L 3916 50 
Q 3788 -22 3673 -56 
Q 3559 -91 3450 -91 
Q 3234 -91 3106 31 
Q 2978 153 2931 403 
Q 2775 156 2548 32 
Q 2322 -91 2016 -91 
Q 1697 -91 1473 31 
Q 1250 153 1119 397 
L 1119 -1331 
L 544 -1331 
z
" transform="scale(0.015625)"/>
       <path id="DejaVuSans-73" d="M 2834 3397 
L 2834 2853 
Q 2591 2978 2328 3040 
Q 2066 3103 1784 3103 
Q 1356 3103 1142 2972 
Q 928 2841 928 2578 
Q 928 2378 1081 2264 
Q 1234 2150 1697 2047 
L 1894 2003 
Q 2506 1872 2764 1633 
Q 3022 1394 3022 966 
Q 3022 478 2636 193 
Q 2250 -91 1575 -91 
Q 1294 -91 989 -36 
Q 684 19 347 128 
L 347 722 
Q 666 556 975 473 
Q 1284 391 1588 391 
Q 1994 391 2212 530 
Q 2431 669 2431 922 
Q 2431 1156 2273 1281 
Q 2116 1406 1581 1522 
L 1381 1569 
Q 847 1681 609 1914 
Q 372 2147 372 2553 
Q 372 3047 722 3315 
Q 1072 3584 1716 3584 
Q 2034 3584 2315 3537 
Q 2597 3491 2834 3397 
z
" transform="scale(0.015625)"/>
       <path id="DejaVuSans-29" d="M 513 4856 
L 1013 4856 
Q 1481 4119 1714 3412 
Q 1947 2706 1947 2009 
Q 1947 1309 1714 600 
Q 1481 -109 1013 -844 
L 513 -844 
Q 928 -128 1133 580 
Q 1338 1288 1338 2009 
Q 1338 2731 1133 3434 
Q 928 4138 513 4856 
z
" transform="scale(0.015625)"/>
      </defs>
      <use xlink:href="#DejaVuSans-54"/>
      <use xlink:href="#DejaVuSans-69" transform="translate(57.958984 0)"/>
      <use xlink:href="#DejaVuSans-65" transform="translate(85.742188 0)"/>
      <use xlink:href="#DejaVuSans-6d" transform="translate(147.265625 0)"/>
      <use xlink:href="#DejaVuSans-70" transform="translate(244.677734 0)"/>
      <use xlink:href="#DejaVuSans-6f" transform="translate(308.154297 0)"/>
      <use xlink:href="#DejaVuSans-20" transform="translate(369.335938 0)"/>
      <use xlink:href="#DejaVuSans-28" transform="translate(401.123047 0)"/>
      <use xlink:href="#DejaVuSans-3bc" transform="translate(440.136719 0)"/>
      <use xlink:href="#DejaVuSans-73" transform="translate(503.759766 0)"/>
      <use xlink:href="#DejaVuSans-29" transform="translate(555.859375 0)"/>
     </g>
    </g>
   </g>
   <g id="matplotlib.axis_2">
    <g id="ytick_1">
     <g id="line2d_15">
      <path d="M 44.555937 323.155176 
L 602.555938 323.155176 
" clip-path="url(#p824d04e392)" style="fill: none; stroke: #e0e0e0; stroke-width: 0.8; stroke-linecap: square"/>
     </g>
     <g id="line2d_16">
      <defs>
       <path id="m11aafb313d" d="M 0 0 
L -3.5 0 
" style="stroke: #000000; stroke-width: 0.8"/>
      </defs>
      <g>
       <use xlink:href="#m11aafb313d" x="44.555937" y="323.155176" style="stroke: #000000; stroke-width: 0.8"/>
      </g>
     </g>
     <g id="text_9">
      <!-- −2 -->
      <g transform="translate(22.81375 326.954395) scale(0.1 -0.1)">
       <defs>
        <path id="DejaVuSans-2212" d="M 678 2272 
L 4684 2272 
L 4684 1741 
L 678 1741 
L 678 2272 
z
" transform="scale(0.015625)"/>
       </defs>
       <use xlink:href="#DejaVuSans-2212"/>
       <use xlink:href="#DejaVuSans-32" transform="translate(83.789062 0)"/>
      </g>
     </g>
    </g>
    <g id="ytick_2">
     <g id="line2d_17">
      <path d="M 44.555937 261.437054 
L 602.555938 261.437054 
" clip-path="url(#p824d04e392)" style="fill: none; stroke: #e0e0e0; stroke-width: 0.8; stroke-linecap: square"/>
     </g>
     <g id="line2d_18">
      <g>
       <use xlink:href="#m11aafb313d" x="44.555937" y="261.437054" style="stroke: #000000; stroke-width: 0.8"/>
      </g>
     </g>
     <g id="text_10">
      <!-- −1 -->
      <g transform="translate(22.81375 265.236273) scale(0.1 -0.1)">
       <use xlink:href="#DejaVuSans-2212"/>
       <use xlink:href="#DejaVuSans-31" transform="translate(83.789062 0)"/>
      </g>
     </g>
    </g>
    <g id="ytick_3">
     <g id="line2d_19">
      <path d="M 44.555937 199.718932 
L 602.555938 199.718932 
" clip-path="url(#p824d04e392)" style="fill: none; stroke: #e0e0e0; stroke-width: 0.8; stroke-linecap: square"/>
     </g>
     <g id="line2d_20">
      <g>
       <use xlink:href="#m11aafb313d" x="44.555937" y="199.718932" style="stroke: #000000; stroke-width: 0.8"/>
      </g>
     </g>
     <g id="text_11">
      <!-- 0 -->
      <g transform="translate(31.193437 203.518151) scale(0.1 -0.1)">
       <use xlink:href="#DejaVuSans-30"/>
      </g>
     </g>
    </g>
    <g id="ytick_4">
     <g id="line2d_21">
      <path d="M 44.555937 138.00081 
L 602.555938 138.00081 
" clip-path="url(#p824d04e392)" style="fill: none; stroke: #e0e0e0; stroke-width: 0.8; stroke-linecap: square"/>
     </g>
     <g id="line2d_22">
      <g>
       <use xlink:href="#m11aafb313d" x="44.555937" y="138.00081" style="stroke: #000000; stroke-width: 0.8"/>
      </g>
     </g>
     <g id="text_12">
      <!-- 1 -->
      <g transform="translate(31.193437 141.800029) scale(0.1 -0.1)">
       <use xlink:href="#DejaVuSans-31"/>
      </g>
     </g>
    </g>
    <g id="ytick_5">
     <g id="line2d_23">
      <path d="M 44.555937 76.282689 
L 602.555938 76.282689 
" clip-path="url(#p824d04e392)" style="fill: none; stroke: #e0e0e0; stroke-width: 0.8; stroke-linecap: square"/>
     </g>
     <g id="line2d_24">
      <g>
       <use xlink:href="#m11aafb313d" x="44.555937" y="76.282689" style="stroke: #000000; stroke-width: 0.8"/>
      </g>
     </g>
     <g id="text_13">
      <!-- 2 -->
      <g transform="translate(31.193437 80.081907) scale(0.1 -0.1)">
       <use xlink:href="#DejaVuSans-32"/>
      </g>
     </g>
    </g>
    <g id="text_14">
     <!-- Tensión de Salida (V) -->
     <g transform="translate(16.318125 262.436562) rotate(-90) scale(0.12 -0.12)">
      <defs>
       <path id="DejaVuSans-6e" d="M 3513 2113 
L 3513 0 
L 2938 0 
L 2938 2094 
Q 2938 2591 2744 2837 
Q 2550 3084 2163 3084 
Q 1697 3084 1428 2787 
Q 1159 2491 1159 1978 
L 1159 0 
L 581 0 
L 581 3500 
L 1159 3500 
L 1159 2956 
Q 1366 3272 1645 3428 
Q 1925 3584 2291 3584 
Q 2894 3584 3203 3211 
Q 3513 2838 3513 2113 
z
" transform="scale(0.015625)"/>
       <path id="DejaVuSans-f3" d="M 1959 3097 
Q 1497 3097 1228 2736 
Q 959 2375 959 1747 
Q 959 1119 1226 758 
Q 1494 397 1959 397 
Q 2419 397 2687 759 
Q 2956 1122 2956 1747 
Q 2956 2369 2687 2733 
Q 2419 3097 1959 3097 
z
M 1959 3584 
Q 2709 3584 3137 3096 
Q 3566 2609 3566 1747 
Q 3566 888 3137 398 
Q 2709 -91 1959 -91 
Q 1206 -91 779 398 
Q 353 888 353 1747 
Q 353 2609 779 3096 
Q 1206 3584 1959 3584 
z
M 2394 5119 
L 3016 5119 
L 1998 3944 
L 1519 3944 
L 2394 5119 
z
" transform="scale(0.015625)"/>
       <path id="DejaVuSans-64" d="M 2906 2969 
L 2906 4863 
L 3481 4863 
L 3481 0 
L 2906 0 
L 2906 525 
Q 2725 213 2448 61 
Q 2172 -91 1784 -91 
Q 1150 -91 751 415 
Q 353 922 353 1747 
Q 353 2572 751 3078 
Q 1150 3584 1784 3584 
Q 2172 3584 2448 3432 
Q 2725 3281 2906 2969 
z
M 947 1747 
Q 947 1113 1208 752 
Q 1469 391 1925 391 
Q 2381 391 2643 752 
Q 2906 1113 2906 1747 
Q 2906 2381 2643 2742 
Q 2381 3103 1925 3103 
Q 1469 3103 1208 2742 
Q 947 2381 947 1747 
z
" transform="scale(0.015625)"/>
       <path id="DejaVuSans-53" d="M 3425 4513 
L 3425 3897 
Q 3066 4069 2747 4153 
Q 2428 4238 2131 4238 
Q 1616 4238 1336 4038 
Q 1056 3838 1056 3469 
Q 1056 3159 1242 3001 
Q 1428 2844 1947 2747 
L 2328 2669 
Q 3034 2534 3370 2195 
Q 3706 1856 3706 1288 
Q 3706 609 3251 259 
Q 2797 -91 1919 -91 
Q 1588 -91 1214 -16 
Q 841 59 441 206 
L 441 856 
Q 825 641 1194 531 
Q 1563 422 1919 422 
Q 2459 422 2753 634 
Q 3047 847 3047 1241 
Q 3047 1584 2836 1778 
Q 2625 1972 2144 2069 
L 1759 2144 
Q 1053 2284 737 2584 
Q 422 2884 422 3419 
Q 422 4038 858 4394 
Q 1294 4750 2059 4750 
Q 2388 4750 2728 4690 
Q 3069 4631 3425 4513 
z
" transform="scale(0.015625)"/>
       <path id="DejaVuSans-61" d="M 2194 1759 
Q 1497 1759 1228 1600 
Q 959 1441 959 1056 
Q 959 750 1161 570 
Q 1363 391 1709 391 
Q 2188 391 2477 730 
Q 2766 1069 2766 1631 
L 2766 1759 
L 2194 1759 
z
M 3341 1997 
L 3341 0 
L 2766 0 
L 2766 531 
Q 2569 213 2275 61 
Q 1981 -91 1556 -91 
Q 1019 -91 701 211 
Q 384 513 384 1019 
Q 384 1609 779 1909 
Q 1175 2209 1959 2209 
L 2766 2209 
L 2766 2266 
Q 2766 2663 2505 2880 
Q 2244 3097 1772 3097 
Q 1472 3097 1187 3025 
Q 903 2953 641 2809 
L 641 3341 
Q 956 3463 1253 3523 
Q 1550 3584 1831 3584 
Q 2591 3584 2966 3190 
Q 3341 2797 3341 1997 
z
" transform="scale(0.015625)"/>
       <path id="DejaVuSans-6c" d="M 603 4863 
L 1178 4863 
L 1178 0 
L 603 0 
L 603 4863 
z
" transform="scale(0.015625)"/>
       <path id="DejaVuSans-56" d="M 1831 0 
L 50 4666 
L 709 4666 
L 2188 738 
L 3669 4666 
L 4325 4666 
L 2547 0 
L 1831 0 
z
" transform="scale(0.015625)"/>
      </defs>
      <use xlink:href="#DejaVuSans-54"/>
      <use xlink:href="#DejaVuSans-65" transform="translate(44.083984 0)"/>
      <use xlink:href="#DejaVuSans-6e" transform="translate(105.607422 0)"/>
      <use xlink:href="#DejaVuSans-73" transform="translate(168.986328 0)"/>
      <use xlink:href="#DejaVuSans-69" transform="translate(221.085938 0)"/>
      <use xlink:href="#DejaVuSans-f3" transform="translate(248.869141 0)"/>
      <use xlink:href="#DejaVuSans-6e" transform="translate(310.050781 0)"/>
      <use xlink:href="#DejaVuSans-20" transform="translate(373.429688 0)"/>
      <use xlink:href="#DejaVuSans-64" transform="translate(405.216797 0)"/>
      <use xlink:href="#DejaVuSans-65" transform="translate(468.693359 0)"/>
      <use xlink:href="#DejaVuSans-20" transform="translate(530.216797 0)"/>
      <use xlink:href="#DejaVuSans-53" transform="translate(562.003906 0)"/>
      <use xlink:href="#DejaVuSans-61" transform="translate(625.480469 0)"/>
      <use xlink:href="#DejaVuSans-6c" transform="translate(686.759766 0)"/>
      <use xlink:href="#DejaVuSans-69" transform="translate(714.542969 0)"/>
      <use xlink:href="#DejaVuSans-64" transform="translate(742.326172 0)"/>
      <use xlink:href="#DejaVuSans-61" transform="translate(805.802734 0)"/>
      <use xlink:href="#DejaVuSans-20" transform="translate(867.082031 0)"/>
      <use xlink:href="#DejaVuSans-28" transform="translate(898.869141 0)"/>
      <use xlink:href="#DejaVuSans-56" transform="translate(937.882812 0)"/>
      <use xlink:href="#DejaVuSans-29" transform="translate(1006.291016 0)"/>
     </g>
    </g>
   </g>
   <g id="line2d_25">
    <path d="M 69.919574 199.718932 
L 71.18839 199.630468 
L 71.695917 199.422156 
L 72.203443 199.040919 
L 72.964733 198.109977 
L 73.726023 196.755403 
L 74.741076 194.35691 
L 75.756129 191.381379 
L 77.024945 187.004534 
L 78.801287 179.944205 
L 81.085157 169.782665 
L 84.637842 152.72033 
L 91.743213 118.39924 
L 95.042135 103.682971 
L 97.833531 92.232479 
L 100.371163 82.769093 
L 102.655033 75.111269 
L 104.685138 69.041733 
L 106.715244 63.706632 
L 108.491587 59.667066 
L 110.014167 56.686788 
L 111.536746 54.162399 
L 113.059326 52.102429 
L 114.328142 50.745604 
L 115.596958 49.719303 
L 116.612011 49.137879 
L 117.627064 48.770417 
L 118.642117 48.617483 
L 119.65717 48.679328 
L 120.672223 48.955891 
L 121.687276 49.446802 
L 122.702329 50.151383 
L 123.971145 51.331051 
L 125.239961 52.840417 
L 126.508778 54.676147 
L 128.031357 57.304052 
L 129.553936 60.387642 
L 131.330279 64.547876 
L 133.106622 69.296779 
L 135.136728 75.418287 
L 137.166834 82.246785 
L 139.450703 90.725418 
L 141.988336 101.06338 
L 144.779731 113.443775 
L 147.82489 128.002455 
L 151.377576 146.133136 
L 155.691551 169.370954 
L 163.304448 211.8944 
L 169.394766 245.378048 
L 173.454978 266.508349 
L 176.7539 282.580513 
L 179.799059 296.317769 
L 182.336692 306.828697 
L 184.874324 316.387973 
L 187.158193 324.107274 
L 189.188299 330.218836 
L 191.218405 335.588136 
L 192.994748 339.653272 
L 194.517327 342.653203 
L 196.039907 345.195731 
L 197.562486 347.272721 
L 198.831302 348.643084 
L 200.100119 349.682468 
L 201.115172 350.274091 
L 202.130225 350.651552 
L 203.145278 350.814314 
L 204.160331 350.762146 
L 205.175384 350.495119 
L 206.190437 350.013616 
L 207.20549 349.318321 
L 208.474306 348.15009 
L 209.743122 346.651972 
L 211.011938 344.827296 
L 212.534518 342.212388 
L 214.057097 339.141482 
L 215.83344 334.995616 
L 217.609783 330.260577 
L 219.639889 324.154236 
L 221.669995 317.340113 
L 223.953864 308.876616 
L 226.491496 298.554069 
L 229.282892 286.188777 
L 232.328051 271.644183 
L 235.880736 253.526558 
L 240.194711 230.299407 
L 247.807609 187.780228 
L 253.897927 154.286475 
L 257.958139 133.142992 
L 261.257061 117.056544 
L 264.30222 103.303407 
L 266.839852 92.777442 
L 269.377485 83.201633 
L 271.661354 75.466296 
L 273.69146 69.339653 
L 275.721566 63.954585 
L 277.497908 59.87516 
L 279.020488 56.862665 
L 280.543067 54.307322 
L 282.065647 52.217309 
L 283.334463 50.835963 
L 284.603279 49.785506 
L 285.872096 49.068273 
L 286.887149 48.735504 
L 287.902202 48.617506 
L 288.917255 48.714448 
L 289.932308 49.026192 
L 290.94736 49.552294 
L 291.962413 50.292008 
L 293.23123 51.515408 
L 294.500046 53.068189 
L 295.768862 54.946902 
L 297.291442 57.625656 
L 298.814021 60.75913 
L 300.590364 64.976105 
L 302.366707 69.779928 
L 304.396812 75.96165 
L 306.426918 82.847297 
L 308.710788 91.386145 
L 311.24842 101.785431 
L 314.039816 114.225859 
L 317.084975 128.840423 
L 320.63766 147.022707 
L 324.951635 170.302293 
L 333.072059 215.677163 
L 338.908614 247.635556 
L 342.968826 268.62947 
L 346.267748 284.555147 
L 349.059144 297.045333 
L 351.596776 307.495549 
L 354.134409 316.98819 
L 356.418278 324.642944 
L 358.448384 330.693882 
L 360.224726 335.378424 
L 362.001069 339.472138 
L 363.523649 342.497198 
L 365.046228 345.065355 
L 366.568808 347.168391 
L 367.837624 348.560718 
L 369.10644 349.622249 
L 370.375256 350.350623 
L 371.390309 350.692336 
L 372.405362 350.819292 
L 373.420415 350.73131 
L 374.435468 350.428515 
L 375.450521 349.911337 
L 376.465574 349.180511 
L 377.73439 347.968151 
L 379.003207 346.426307 
L 380.272023 344.558406 
L 381.794602 341.892425 
L 383.317182 338.771468 
L 385.093524 334.568718 
L 386.869867 329.778652 
L 388.899973 323.612007 
L 390.930079 316.740662 
L 393.213948 308.21688 
L 395.751581 297.832933 
L 398.542976 285.407519 
L 401.588135 270.806929 
L 405.140821 252.637547 
L 409.454796 229.368404 
L 417.321457 185.414626 
L 423.158011 153.38171 
L 427.218223 132.291957 
L 430.517145 116.263464 
L 433.562304 102.574406 
L 436.099937 92.108999 
L 438.637569 82.599683 
L 440.921438 74.928777 
L 442.951544 68.862669 
L 444.727887 64.164296 
L 446.50423 60.056293 
L 448.026809 57.01867 
L 449.549389 54.437698 
L 451.071968 52.32164 
L 452.340784 50.91833 
L 453.609601 49.845726 
L 454.878417 49.106211 
L 455.89347 48.755554 
L 456.908523 48.61964 
L 457.923576 48.698662 
L 458.938629 48.992509 
L 459.953682 49.500762 
L 460.968735 50.222699 
L 462.237551 51.424021 
L 463.506367 52.954928 
L 464.775183 54.812017 
L 466.297763 57.465225 
L 467.820342 60.573664 
L 469.596685 64.76219 
L 471.373028 69.538497 
L 473.403134 75.690067 
L 475.43324 82.547108 
L 477.717109 91.055826 
L 480.254741 101.424434 
L 483.046137 113.834834 
L 486.091296 128.42145 
L 489.643982 146.577928 
L 493.957957 169.836629 
L 501.824617 213.786835 
L 507.661172 245.830122 
L 511.721384 266.933391 
L 515.020306 282.976442 
L 518.065465 296.681584 
L 520.603097 307.162183 
L 523.14073 316.688171 
L 525.424599 324.375229 
L 527.454705 330.456507 
L 529.231048 335.168713 
L 531.00739 339.291004 
L 532.52997 342.341192 
L 534.052549 344.934977 
L 535.575129 347.064059 
L 536.843945 348.47835 
L 538.112761 349.562028 
L 539.381578 350.312683 
L 540.396631 350.672285 
L 541.411684 350.817158 
L 542.426737 350.747095 
L 543.44179 350.462196 
L 544.456842 349.962868 
L 545.471895 349.249818 
L 546.740712 348.059536 
L 548.009528 346.539567 
L 549.278344 344.693289 
L 550.800924 342.052855 
L 552.323503 338.956932 
L 554.099846 334.782631 
L 555.876189 330.020082 
L 557.906294 323.883588 
L 559.9364 317.04085 
L 562.22027 308.547198 
L 564.757902 298.193929 
L 567.549298 285.798542 
L 570.594457 271.225902 
L 574.147142 253.082326 
L 577.192301 236.779422 
L 577.192301 236.779422 
" clip-path="url(#p824d04e392)" style="fill: none; stroke: #1f77b4; stroke-width: 2.5; stroke-linecap: square"/>
   </g>
   <g id="line2d_26">
    <path d="M 69.919574 199.718932 
L 70.934627 199.63176 
L 71.442153 199.380679 
L 71.94968 198.9178 
L 72.71097 197.826336 
L 73.472259 196.30395 
L 74.487312 193.702052 
L 75.756129 189.694802 
L 77.278708 184.026954 
L 79.308814 175.429863 
L 82.10021 162.425102 
L 93.519556 107.873724 
L 96.310951 96.06754 
L 98.848584 86.234778 
L 101.132453 78.212974 
L 103.162559 71.798426 
L 105.192665 66.100961 
L 106.969008 61.732125 
L 108.74535 57.960317 
L 110.26793 55.215901 
L 111.790509 52.932348 
L 113.059326 51.387036 
L 114.328142 50.170745 
L 115.596958 49.286317 
L 116.612011 48.819134 
L 117.627064 48.566392 
L 118.642117 48.528487 
L 119.65717 48.705506 
L 120.672223 49.097219 
L 121.687276 49.703092 
L 122.956092 50.760278 
L 124.224908 52.148424 
L 125.493725 53.864465 
L 127.016304 56.35114 
L 128.538884 59.296544 
L 130.061463 62.691268 
L 131.837806 67.205117 
L 133.614148 72.29607 
L 135.644254 78.792418 
L 137.928124 86.920953 
L 140.211993 95.861375 
L 142.749625 106.668944 
L 145.541021 119.508228 
L 148.839943 135.782126 
L 152.646392 155.735696 
L 157.721657 183.635303 
L 169.394766 248.309572 
L 173.454978 269.276996 
L 176.7539 285.170285 
L 179.545296 297.625836 
L 182.082928 308.039143 
L 184.366797 316.590729 
L 186.650667 324.301106 
L 188.680773 330.403567 
L 190.710879 335.762718 
L 192.487221 339.818158 
L 194.009801 342.809205 
L 195.53238 345.342353 
L 197.05496 347.409492 
L 198.323776 348.771313 
L 199.592592 349.801868 
L 200.607645 350.386237 
L 201.622698 350.756285 
L 202.637751 350.911484 
L 203.652804 350.851614 
L 204.667857 350.57676 
L 205.68291 350.087312 
L 206.697963 349.383967 
L 207.966779 348.205545 
L 209.235596 346.697112 
L 210.504412 344.862019 
L 212.026991 342.234511 
L 213.549571 339.150932 
L 215.325913 334.990245 
L 217.102256 330.240407 
L 219.132362 324.117261 
L 221.162468 317.286542 
L 223.446337 308.804738 
L 225.98397 298.462457 
L 228.775365 286.076398 
L 231.820524 271.510525 
L 235.37321 253.370241 
L 239.687185 230.119247 
L 247.300082 187.569519 
L 253.3904 154.063262 
L 257.450612 132.917726 
L 260.749534 116.833367 
L 263.794693 103.085122 
L 266.332326 92.565364 
L 268.869958 82.997641 
L 271.153827 75.271128 
L 273.183933 69.153508 
L 275.214039 63.778519 
L 276.990382 59.708735 
L 278.512961 56.70508 
L 280.035541 54.159081 
L 281.55812 52.078886 
L 282.826937 50.706061 
L 284.095753 49.664413 
L 285.110806 49.071123 
L 286.125859 48.692127 
L 287.140912 48.527964 
L 288.155965 48.578868 
L 289.171018 48.844767 
L 290.186071 49.325282 
L 291.201124 50.019731 
L 292.46994 51.187104 
L 293.738756 52.684587 
L 295.007572 54.508855 
L 296.530152 57.123572 
L 298.052731 60.194615 
L 299.829074 64.341054 
L 301.605417 69.077108 
L 303.635523 75.185147 
L 305.665629 82.001531 
L 307.949498 90.468231 
L 310.48713 100.795127 
L 313.278526 113.16612 
L 316.323685 127.717959 
L 319.87637 145.84527 
L 324.190346 169.085735 
L 331.803243 211.631542 
L 337.893561 245.148263 
L 341.953773 266.307251 
L 345.252695 282.406124 
L 348.297854 296.170415 
L 350.835486 306.705338 
L 353.373119 316.289714 
L 355.656988 324.032363 
L 357.687094 330.165143 
L 359.7172 335.555971 
L 361.493543 339.6401 
L 363.016122 342.656361 
L 364.538702 345.215212 
L 366.061281 347.308434 
L 367.330097 348.69223 
L 368.598914 349.744937 
L 369.86773 350.464214 
L 370.882783 350.798467 
L 371.897836 350.917812 
L 372.912889 350.822079 
L 373.927942 350.511403 
L 374.942995 349.986227 
L 375.958048 349.247297 
L 377.226864 348.024674 
L 378.49568 346.472441 
L 379.764496 344.594049 
L 381.287076 341.915378 
L 382.809655 338.781658 
L 384.585998 334.56398 
L 386.362341 329.759007 
L 388.392447 323.575435 
L 390.422553 316.687374 
L 392.706422 308.145155 
L 395.244054 297.741337 
L 398.03545 285.295016 
L 401.080609 270.673011 
L 404.633294 252.480835 
L 408.94727 229.187726 
L 417.067693 183.784096 
L 422.904248 151.803582 
L 426.96446 130.79419 
L 430.263382 114.856163 
L 433.054778 102.355833 
L 435.59241 91.896738 
L 438.130043 82.395624 
L 440.413912 74.733654 
L 442.444018 68.676672 
L 444.220361 63.987155 
L 445.996703 59.888781 
L 447.519283 56.859994 
L 449.041862 54.288368 
L 450.564442 52.182132 
L 451.833258 50.787351 
L 453.102074 49.723567 
L 454.37089 48.993144 
L 455.385943 48.649942 
L 456.400996 48.521633 
L 457.416049 48.6084 
L 458.431102 48.910121 
L 459.446155 49.426365 
L 460.461208 50.156398 
L 461.730025 51.367971 
L 462.998841 52.909254 
L 464.267657 54.77682 
L 465.790236 57.442701 
L 467.312816 60.563885 
L 469.089159 64.767316 
L 470.865501 69.558505 
L 472.895607 75.72697 
L 474.925713 82.600695 
L 477.209583 91.12781 
L 479.747215 101.516244 
L 482.538611 113.9475 
L 485.58377 128.555472 
L 489.136455 146.734675 
L 493.45043 170.017256 
L 501.317091 213.998697 
L 507.153645 246.053606 
L 511.213857 267.158784 
L 514.51278 283.199605 
L 517.557939 296.899708 
L 520.095571 307.37397 
L 522.633203 316.891736 
L 524.917073 324.569842 
L 526.947179 330.641984 
L 528.723521 335.345325 
L 530.499864 339.457983 
L 532.022443 342.499332 
L 533.545023 345.083773 
L 535.067602 347.203032 
L 536.336419 348.608798 
L 537.605235 349.683659 
L 538.874051 350.425227 
L 539.889104 350.777378 
L 540.904157 350.91465 
L 541.91921 350.836848 
L 542.934263 350.544083 
L 543.949316 350.036772 
L 544.964369 349.315634 
L 546.233185 348.115111 
L 547.502001 346.584778 
L 548.770818 344.728037 
L 550.293397 342.074947 
L 551.815977 338.966298 
L 553.592319 334.777115 
L 555.368662 329.99971 
L 557.398768 323.846351 
L 559.428874 316.986961 
L 561.712743 308.47495 
L 564.250376 298.101901 
L 567.041771 285.685711 
L 570.08693 271.091771 
L 573.639616 252.925541 
L 577.192301 233.833796 
L 577.192301 233.833796 
" clip-path="url(#p824d04e392)" style="fill: none; stroke: #ff7f0e; stroke-width: 3; stroke-linecap: square"/>
   </g>
   <g id="line2d_27">
    <path d="M 69.919574 199.718932 
L 71.442153 199.62216 
L 72.203443 199.311989 
L 72.964733 198.687788 
L 73.726023 197.70786 
L 74.487312 196.367485 
L 75.502365 194.049502 
L 76.517418 191.18633 
L 77.786234 186.956933 
L 79.308814 181.118715 
L 81.33892 172.396864 
L 84.130316 159.342387 
L 94.280845 110.90597 
L 97.326004 97.868519 
L 99.863637 87.915148 
L 102.147506 79.767493 
L 104.431375 72.460987 
L 106.461481 66.721432 
L 108.237824 62.312343 
L 110.014167 58.497409 
L 111.536746 55.713959 
L 113.059326 53.389642 
L 114.328142 51.809156 
L 115.596958 50.556698 
L 116.865774 49.635201 
L 117.880827 49.137774 
L 118.89588 48.854316 
L 119.910933 48.785271 
L 120.925986 48.930772 
L 121.941039 49.290636 
L 122.956092 49.864376 
L 124.224908 50.881069 
L 125.493725 52.228444 
L 126.762541 53.90353 
L 128.28512 56.340945 
L 129.8077 59.237115 
L 131.330279 62.582792 
L 133.106622 67.039863 
L 134.882965 72.074755 
L 136.913071 78.508225 
L 139.19694 86.567969 
L 141.480809 95.442141 
L 144.018441 106.179654 
L 146.809837 118.946922 
L 150.108759 135.143543 
L 153.915208 155.019924 
L 158.990473 182.83908 
L 170.917345 248.786429 
L 174.723794 268.417719 
L 178.022716 284.335103 
L 181.067875 297.906096 
L 183.605508 308.262861 
L 185.889377 316.761846 
L 188.173246 324.41839 
L 190.203352 330.472278 
L 191.979695 335.160437 
L 193.756038 339.258718 
L 195.278617 342.288433 
L 196.801196 344.861915 
L 198.323776 346.970926 
L 199.592592 348.368718 
L 200.861408 349.436139 
L 202.130225 350.170817 
L 203.145278 350.517862 
L 204.160331 350.650398 
L 205.175384 350.568236 
L 206.190437 350.271494 
L 207.20549 349.760591 
L 208.220543 349.036256 
L 209.489359 347.832295 
L 210.758175 346.299153 
L 212.026991 344.440236 
L 213.549571 341.78538 
L 215.07215 338.675892 
L 216.848493 334.486903 
L 218.624836 329.710956 
L 220.654942 323.560801 
L 222.685048 316.706237 
L 224.968917 308.20156 
L 227.506549 297.838964 
L 230.297945 285.436961 
L 233.343104 270.861539 
L 236.895789 252.720608 
L 241.209764 229.484013 
L 249.076425 185.581391 
L 254.91298 153.577463 
L 258.973192 132.502521 
L 262.272114 116.482545 
L 265.317273 102.798429 
L 267.854905 92.334949 
L 270.392538 82.825552 
L 272.676407 75.152853 
L 274.706513 69.083796 
L 276.482856 64.381808 
L 278.259198 60.269244 
L 279.781778 57.22697 
L 281.304357 54.640682 
L 282.826937 52.518656 
L 284.095753 51.109891 
L 285.364569 50.031406 
L 286.633385 49.285597 
L 287.648438 48.929617 
L 288.663491 48.788132 
L 289.678544 48.861344 
L 290.693597 49.149149 
L 291.70865 49.651138 
L 292.723703 50.366597 
L 293.992519 51.559534 
L 295.261336 53.081756 
L 296.530152 54.929878 
L 298.052731 57.571981 
L 299.575311 60.668975 
L 301.351654 64.843765 
L 303.127996 69.605983 
L 305.158102 75.741095 
L 307.188208 82.581389 
L 309.472077 91.07104 
L 312.00971 101.418342 
L 314.801106 113.80538 
L 317.846264 128.366882 
L 321.39895 146.494972 
L 325.712925 169.721197 
L 333.579586 213.620366 
L 339.669904 246.988444 
L 343.730115 267.995535 
L 347.029038 283.94256 
L 350.074197 297.546161 
L 352.611829 307.933639 
L 354.895698 316.462777 
L 357.179567 324.15163 
L 359.209673 330.235857 
L 360.986016 334.951673 
L 362.762359 339.078522 
L 364.284938 342.133354 
L 365.807518 344.732449 
L 367.330097 346.867489 
L 368.598914 348.287228 
L 369.86773 349.376777 
L 371.136546 350.133702 
L 372.151599 350.498591 
L 373.166652 350.648999 
L 374.181705 350.584709 
L 375.196758 350.305816 
L 376.211811 349.812714 
L 377.226864 349.106106 
L 378.49568 347.924161 
L 379.764496 346.412831 
L 381.033313 344.575474 
L 382.555892 341.946091 
L 384.078471 338.861561 
L 385.854814 334.700937 
L 387.631157 329.952422 
L 389.661263 323.832328 
L 391.691369 317.006284 
L 393.975238 308.531648 
L 396.512871 298.199638 
L 399.304266 285.82758 
L 402.349425 271.280033 
L 405.902111 253.164851 
L 410.216086 229.949118 
L 417.828983 187.471686 
L 423.919301 154.02922 
L 427.979513 132.927408 
L 431.278435 116.878472 
L 434.323594 103.162348 
L 436.861227 92.668628 
L 439.398859 83.126031 
L 441.682728 75.421167 
L 443.712834 69.321891 
L 445.74294 63.964292 
L 447.519283 59.908862 
L 449.041862 56.916822 
L 450.564442 54.38176 
L 452.087021 52.311791 
L 453.355837 50.94692 
L 454.624654 49.912691 
L 455.639707 49.324939 
L 456.65476 48.951121 
L 457.669813 48.791767 
L 458.684866 48.847106 
L 459.699919 49.117057 
L 460.714972 49.601237 
L 461.730025 50.298959 
L 462.998841 51.469862 
L 464.267657 52.970248 
L 465.536473 54.796783 
L 467.059053 57.413375 
L 468.581632 60.485365 
L 470.357975 64.631729 
L 472.134318 69.366443 
L 474.164424 75.471403 
L 476.19453 82.283077 
L 478.478399 90.742562 
L 481.016031 101.059123 
L 483.807427 113.416034 
L 486.852586 127.949444 
L 490.405271 146.051518 
L 494.719246 169.256538 
L 502.332144 211.729685 
L 508.422462 245.182305 
L 512.482674 266.297361 
L 515.781596 282.360644 
L 518.826755 296.092667 
L 521.364387 306.601435 
L 523.90202 316.160571 
L 526.185889 323.881476 
L 528.215995 329.995831 
L 530.246101 335.369194 
L 532.022443 339.438907 
L 533.545023 342.443506 
L 535.067602 344.991375 
L 536.590182 347.074358 
L 537.858998 348.450203 
L 539.127814 349.495496 
L 540.396631 350.207914 
L 541.411684 350.53709 
L 542.426737 350.651728 
L 543.44179 350.551667 
L 544.456842 350.237049 
L 545.471895 349.70832 
L 546.486948 348.966232 
L 547.755765 347.740224 
L 549.024581 346.185239 
L 550.293397 344.304734 
L 551.815977 341.624373 
L 553.338556 338.489896 
L 555.114899 334.272513 
L 556.891242 329.469104 
L 558.921347 323.288864 
L 560.951453 316.405763 
L 563.235323 307.871035 
L 565.772955 297.477849 
L 568.564351 285.045919 
L 571.60951 270.442656 
L 575.162195 252.276045 
L 577.192301 241.463939 
L 577.192301 241.463939 
" clip-path="url(#p824d04e392)" style="fill: none; stroke-dasharray: 16,4,2.5,4; stroke-dashoffset: 0; stroke: #9467bd; stroke-width: 2.5"/>
   </g>
   <g id="line2d_28">
    <path d="M 69.919574 199.718932 
L 71.695917 199.633664 
L 72.457206 199.416024 
L 73.218496 198.996203 
L 73.979786 198.335418 
L 74.741076 197.412675 
L 75.756129 195.762937 
L 76.771181 193.641757 
L 78.039998 190.368245 
L 79.308814 186.473803 
L 80.831393 181.102076 
L 82.861499 173.002343 
L 85.399132 161.833197 
L 89.713107 141.581799 
L 95.042135 116.750589 
L 98.341057 102.437781 
L 101.132453 91.307871 
L 103.670085 82.126645 
L 105.953955 74.718108 
L 107.984061 68.867428 
L 109.760403 64.347426 
L 111.536746 60.410283 
L 113.059326 57.514003 
L 114.581905 55.070112 
L 116.104485 53.08709 
L 117.373301 51.79161 
L 118.642117 50.824061 
L 119.65717 50.287719 
L 120.672223 49.963593 
L 121.687276 49.852202 
L 122.702329 49.953755 
L 123.717382 50.268149 
L 124.732435 50.794971 
L 126.001251 51.751098 
L 127.270067 53.035916 
L 128.538884 54.646603 
L 130.061463 57.004525 
L 131.584042 59.819041 
L 133.106622 63.08117 
L 134.882965 67.438745 
L 136.659307 72.372382 
L 138.689413 78.688551 
L 140.973283 86.615122 
L 143.257152 95.355771 
L 145.794784 105.945688 
L 148.58618 118.553044 
L 151.885102 134.566267 
L 155.691551 154.241966 
L 160.513052 180.416196 
L 173.454978 251.350343 
L 177.261427 270.667197 
L 180.560349 286.275478 
L 183.351744 298.476734 
L 185.889377 308.650853 
L 188.173246 316.98246 
L 190.457115 324.47004 
L 192.487221 330.373387 
L 194.263564 334.930255 
L 196.039907 338.898248 
L 197.562486 341.817515 
L 199.085066 344.282056 
L 200.607645 346.283982 
L 201.876461 347.5942 
L 203.145278 348.575769 
L 204.160331 349.122907 
L 205.175384 349.457519 
L 206.190437 349.579132 
L 207.20549 349.487569 
L 208.220543 349.182963 
L 209.235596 348.665747 
L 210.250648 347.936654 
L 211.519465 346.728947 
L 212.788281 345.194511 
L 214.057097 343.336755 
L 215.579677 340.686529 
L 217.102256 337.585187 
L 218.878599 333.410112 
L 220.654942 328.652768 
L 222.685048 322.529511 
L 224.715153 315.707711 
L 226.999023 307.246672 
L 229.536655 296.940607 
L 232.328051 284.609986 
L 235.37321 270.122544 
L 238.925895 252.096115 
L 243.23987 229.01296 
L 251.360294 184.012234 
L 257.196849 152.310583 
L 261.257061 131.48189 
L 264.555983 115.67934 
L 267.601142 102.206701 
L 270.138774 91.925352 
L 272.422644 83.488558 
L 274.706513 75.888354 
L 276.736619 69.879308 
L 278.512961 65.226129 
L 280.289304 61.158696 
L 281.811884 58.152031 
L 283.334463 55.59839 
L 284.857043 53.505947 
L 286.125859 52.119425 
L 287.394675 51.060938 
L 288.663491 50.332841 
L 289.678544 49.989355 
L 290.693597 49.858857 
L 291.70865 49.941534 
L 292.723703 50.237266 
L 293.738756 50.745635 
L 294.753809 51.465916 
L 296.022625 52.662682 
L 297.291442 54.186281 
L 298.560258 56.033325 
L 300.082837 58.670898 
L 301.605417 61.759846 
L 303.38176 65.920839 
L 305.158102 70.664567 
L 307.188208 76.77291 
L 309.218314 83.580567 
L 311.502183 92.026716 
L 314.039816 102.317633 
L 316.831212 114.633439 
L 319.87637 129.107112 
L 323.429056 147.120856 
L 327.743031 170.193797 
L 335.609692 213.785252 
L 341.446246 245.560768 
L 345.506458 266.484479 
L 348.80538 282.388929 
L 351.850539 295.9739 
L 354.388172 306.361204 
L 356.925804 315.801007 
L 359.209673 323.417212 
L 361.239779 329.441281 
L 363.016122 334.108152 
L 364.792465 338.189727 
L 366.315044 341.208824 
L 367.837624 343.775142 
L 369.360203 345.880466 
L 370.629019 347.277851 
L 371.897836 348.347288 
L 373.166652 349.086404 
L 374.181705 349.438734 
L 375.196758 349.57809 
L 376.211811 349.504273 
L 377.226864 349.21739 
L 378.241917 348.717846 
L 379.25697 348.006352 
L 380.525786 346.820502 
L 381.794602 345.30772 
L 383.063419 343.471367 
L 384.585998 340.846426 
L 386.108577 337.769858 
L 387.88492 333.622935 
L 389.661263 328.892818 
L 391.691369 322.799394 
L 393.721475 316.005895 
L 396.005344 307.574663 
L 398.542976 297.298945 
L 401.334372 284.998027 
L 404.379531 270.538229 
L 407.932217 252.537324 
L 412.246192 229.474829 
L 420.112852 185.887178 
L 426.20317 152.757646 
L 430.263382 131.901607 
L 433.562304 116.069797 
L 436.607463 102.564946 
L 439.145096 92.253241 
L 441.428965 83.786633 
L 443.712834 76.154474 
L 445.74294 70.11541 
L 447.519283 65.434861 
L 449.295626 61.33915 
L 450.818205 58.307617 
L 452.340784 55.728612 
L 453.863364 53.610389 
L 455.13218 52.202126 
L 456.400996 51.121714 
L 457.669813 50.371556 
L 458.684866 50.010358 
L 459.699919 49.862118 
L 460.714972 49.927048 
L 461.730025 50.205054 
L 462.745078 50.695742 
L 463.760131 51.398414 
L 465.028947 52.573305 
L 466.297763 54.075227 
L 467.566579 55.900842 
L 469.089159 58.513091 
L 470.611738 61.577219 
L 472.388081 65.709997 
L 474.164424 70.426429 
L 476.19453 76.504848 
L 478.224635 83.284103 
L 480.508505 91.700321 
L 483.046137 101.960738 
L 485.837533 114.246661 
L 488.882692 128.692475 
L 492.435377 146.680429 
L 496.749352 169.732369 
L 504.36225 211.908247 
L 510.452568 245.111654 
L 514.51278 266.061787 
L 517.811702 281.994842 
L 520.856861 295.611485 
L 523.394493 306.028743 
L 525.932126 315.501459 
L 528.215995 323.149572 
L 530.246101 329.203629 
L 532.276207 334.521201 
L 534.052549 338.546044 
L 535.575129 341.51527 
L 537.097708 344.030737 
L 538.620288 346.084393 
L 539.889104 347.438214 
L 541.15792 348.463733 
L 542.426737 349.158669 
L 543.44179 349.475537 
L 544.456842 349.579378 
L 545.471895 349.470045 
L 546.486948 349.147693 
L 547.502001 348.612779 
L 548.770818 347.646412 
L 550.039634 346.351276 
L 551.30845 344.730251 
L 552.83103 342.359969 
L 554.353609 339.533215 
L 555.876189 336.259036 
L 557.652531 331.887721 
L 559.428874 326.940767 
L 561.45898 320.609993 
L 563.742849 312.667895 
L 566.026718 303.912802 
L 568.564351 293.308245 
L 571.355746 280.68666 
L 574.654669 264.659366 
L 577.192301 251.654898 
L 577.192301 251.654898 
" clip-path="url(#p824d04e392)" style="fill: none; stroke-dasharray: 9.25,4; stroke-dashoffset: 0; stroke: #2ca02c; stroke-width: 2.5"/>
   </g>
   <g id="line2d_29">
    <path d="M 69.919574 199.718932 
L 72.964733 199.621712 
L 74.487312 199.347863 
L 75.756129 198.924898 
L 77.024945 198.294194 
L 78.293761 197.437669 
L 79.562577 196.345142 
L 81.085157 194.717328 
L 82.607736 192.746294 
L 84.384079 190.02609 
L 86.160422 186.876547 
L 88.190528 182.792235 
L 90.474397 177.645367 
L 93.012029 171.342302 
L 96.057188 163.136675 
L 100.1174 151.466699 
L 111.02922 119.66518 
L 114.328142 110.917496 
L 117.119537 104.127805 
L 119.65717 98.54603 
L 121.941039 94.070484 
L 123.971145 90.571167 
L 125.747488 87.905447 
L 127.523831 85.629562 
L 129.04641 84.001912 
L 130.568989 82.68237 
L 132.091569 81.678987 
L 133.360385 81.089292 
L 134.629201 80.727169 
L 135.898018 80.595284 
L 137.166834 80.695696 
L 138.43565 81.029854 
L 139.704466 81.598603 
L 140.973283 82.402207 
L 142.242099 83.440287 
L 143.764678 84.994106 
L 145.287258 86.881401 
L 146.809837 89.098205 
L 148.58618 92.094002 
L 150.362523 95.521075 
L 152.392629 99.950016 
L 154.422735 104.904688 
L 156.706604 111.076116 
L 159.244236 118.627915 
L 162.035632 127.707882 
L 165.080791 138.432523 
L 168.379713 150.86869 
L 172.439925 167.083662 
L 178.022716 190.396055 
L 187.919483 231.811466 
L 191.979695 247.792399 
L 195.278617 259.964828 
L 198.323776 270.385949 
L 201.115172 279.135521 
L 203.652804 286.342209 
L 205.936673 292.165282 
L 207.966779 296.779165 
L 209.996885 300.836879 
L 211.773228 303.913183 
L 213.549571 306.533012 
L 215.07215 308.406706 
L 216.59473 309.930872 
L 217.863546 310.930532 
L 219.132362 311.681967 
L 220.401178 312.183561 
L 221.669995 312.434249 
L 222.938811 312.433526 
L 224.207627 312.181437 
L 225.476443 311.678589 
L 226.745259 310.926139 
L 228.014076 309.925801 
L 229.536655 308.401404 
L 231.059235 306.528271 
L 232.581814 304.312455 
L 234.358157 301.303813 
L 236.1345 297.851693 
L 238.164605 293.382849 
L 240.194711 288.380087 
L 242.478581 282.149445 
L 245.016213 274.531293 
L 247.807609 265.384806 
L 250.852768 254.60374 
L 254.405453 241.146872 
L 258.719428 223.858303 
L 265.571036 195.308183 
L 272.422644 167.038273 
L 276.482856 151.16591 
L 280.035541 138.169928 
L 283.0807 127.874411 
L 285.872096 119.24071 
L 288.409728 112.140035 
L 290.693597 106.412878 
L 292.723703 101.884566 
L 294.753809 97.912601 
L 296.530152 94.911359 
L 298.306495 92.366504 
L 299.829074 90.556906 
L 301.351654 89.096586 
L 302.62047 88.149871 
L 303.889286 87.451085 
L 305.158102 87.001782 
L 306.426918 86.802962 
L 307.695735 86.85507 
L 308.964551 87.15799 
L 310.233367 87.711052 
L 311.502183 88.513027 
L 312.771 89.562134 
L 314.293579 91.143957 
L 315.816159 93.073207 
L 317.338738 95.34371 
L 319.115081 98.414186 
L 320.891423 101.925845 
L 322.921529 106.459691 
L 324.951635 111.523953 
L 327.235505 117.819289 
L 329.773137 125.503341 
L 332.564533 134.714555 
L 335.609692 145.556381 
L 339.162377 159.070422 
L 343.476352 176.40763 
L 350.835486 207.11273 
L 357.179567 233.225614 
L 361.239779 249.05271 
L 364.538702 261.102705 
L 367.583861 271.412001 
L 370.375256 280.059676 
L 372.912889 287.174073 
L 375.196758 292.914328 
L 377.226864 297.454811 
L 379.25697 301.439385 
L 381.033313 304.45197 
L 382.809655 307.008414 
L 384.332235 308.828105 
L 385.854814 310.298636 
L 387.12363 311.253929 
L 388.392447 311.961337 
L 389.661263 312.419289 
L 390.930079 312.626766 
L 392.198895 312.583306 
L 393.467712 312.289008 
L 394.736528 311.744523 
L 396.005344 310.951062 
L 397.27416 309.910389 
L 398.79674 308.338556 
L 400.319319 306.419125 
L 401.841899 304.15824 
L 403.618241 301.098691 
L 405.394584 297.597603 
L 407.42469 293.075342 
L 409.454796 288.022075 
L 411.738665 281.738334 
L 414.276298 274.066106 
L 417.067693 264.866495 
L 420.112852 254.035515 
L 423.665538 240.53157 
L 427.979513 223.202693 
L 435.338647 192.501381 
L 441.682728 166.381108 
L 445.74294 150.544284 
L 449.041862 138.483687 
L 452.087021 128.162605 
L 454.878417 119.502574 
L 457.416049 112.375771 
L 459.699919 106.62349 
L 461.730025 102.071705 
L 463.760131 98.075321 
L 465.536473 95.052039 
L 467.312816 92.484606 
L 468.835395 90.655301 
L 470.357975 89.175009 
L 471.626791 88.211492 
L 472.895607 87.495797 
L 474.164424 87.029515 
L 475.43324 86.813683 
L 476.702056 86.848781 
L 477.970872 87.134729 
L 479.239688 87.670895 
L 480.508505 88.456086 
L 481.777321 89.488556 
L 483.2999 91.050663 
L 484.82248 92.960521 
L 486.345059 95.212019 
L 488.121402 98.260891 
L 489.897745 101.751643 
L 491.927851 106.262566 
L 493.957957 111.305063 
L 496.241826 117.577443 
L 498.779458 125.238081 
L 501.570854 134.426319 
L 504.616013 145.246674 
L 508.168698 158.740749 
L 512.482674 176.06153 
L 519.588044 205.696349 
L 526.185889 232.887231 
L 530.246101 248.733886 
L 533.545023 260.805158 
L 536.590182 271.138084 
L 539.381578 279.810519 
L 541.91921 286.949767 
L 544.203079 292.714106 
L 546.233185 297.277218 
L 548.263291 301.285435 
L 550.039634 304.319434 
L 551.815977 306.897873 
L 553.338556 308.736806 
L 554.861136 310.226872 
L 556.129952 311.198624 
L 557.398768 311.922615 
L 558.667584 312.397237 
L 559.9364 312.621433 
L 561.205217 312.594706 
L 562.474033 312.317115 
L 563.742849 311.789277 
L 565.011665 311.012363 
L 566.280482 309.988101 
L 567.803061 308.435731 
L 569.325641 306.535453 
L 570.84822 304.293349 
L 572.624563 301.255161 
L 574.400905 297.774751 
L 576.431011 293.275174 
L 577.192301 291.449649 
L 577.192301 291.449649 
" clip-path="url(#p824d04e392)" style="fill: none; stroke-dasharray: 2.5,4.125; stroke-dashoffset: 0; stroke: #d62728; stroke-width: 2.5"/>
   </g>
   <g id="patch_3">
    <path d="M 44.555937 366.037812 
L 44.555937 33.397812 
" style="fill: none; stroke: #000000; stroke-width: 0.8; stroke-linejoin: miter; stroke-linecap: square"/>
   </g>
   <g id="patch_4">
    <path d="M 602.555938 366.037812 
L 602.555938 33.397812 
" style="fill: none; stroke: #000000; stroke-width: 0.8; stroke-linejoin: miter; stroke-linecap: square"/>
   </g>
   <g id="patch_5">
    <path d="M 44.555937 366.037812 
L 602.555938 366.037812 
" style="fill: none; stroke: #000000; stroke-width: 0.8; stroke-linejoin: miter; stroke-linecap: square"/>
   </g>
   <g id="patch_6">
    <path d="M 44.555937 33.397812 
L 602.555938 33.397812 
" style="fill: none; stroke: #000000; stroke-width: 0.8; stroke-linejoin: miter; stroke-linecap: square"/>
   </g>
   <g id="text_15">
    <!-- Respuesta Transitoria a 50 kHz (Senoidal, 100uV pico, 3 Ciclos) - 5 Vías -->
    <g transform="translate(73.953438 18.397812) scale(0.14 -0.14)">
     <defs>
      <path id="DejaVuSans-52" d="M 2841 2188 
Q 3044 2119 3236 1894 
Q 3428 1669 3622 1275 
L 4263 0 
L 3584 0 
L 2988 1197 
Q 2756 1666 2539 1819 
Q 2322 1972 1947 1972 
L 1259 1972 
L 1259 0 
L 628 0 
L 628 4666 
L 2053 4666 
Q 2853 4666 3247 4331 
Q 3641 3997 3641 3322 
Q 3641 2881 3436 2590 
Q 3231 2300 2841 2188 
z
M 1259 4147 
L 1259 2491 
L 2053 2491 
Q 2509 2491 2742 2702 
Q 2975 2913 2975 3322 
Q 2975 3731 2742 3939 
Q 2509 4147 2053 4147 
L 1259 4147 
z
" transform="scale(0.015625)"/>
      <path id="DejaVuSans-75" d="M 544 1381 
L 544 3500 
L 1119 3500 
L 1119 1403 
Q 1119 906 1312 657 
Q 1506 409 1894 409 
Q 2359 409 2629 706 
Q 2900 1003 2900 1516 
L 2900 3500 
L 3475 3500 
L 3475 0 
L 2900 0 
L 2900 538 
Q 2691 219 2414 64 
Q 2138 -91 1772 -91 
Q 1169 -91 856 284 
Q 544 659 544 1381 
z
M 1991 3584 
L 1991 3584 
z
" transform="scale(0.015625)"/>
      <path id="DejaVuSans-74" d="M 1172 4494 
L 1172 3500 
L 2356 3500 
L 2356 3053 
L 1172 3053 
L 1172 1153 
Q 1172 725 1289 603 
Q 1406 481 1766 481 
L 2356 481 
L 2356 0 
L 1766 0 
Q 1100 0 847 248 
Q 594 497 594 1153 
L 594 3053 
L 172 3053 
L 172 3500 
L 594 3500 
L 594 4494 
L 1172 4494 
z
" transform="scale(0.015625)"/>
      <path id="DejaVuSans-72" d="M 2631 2963 
Q 2534 3019 2420 3045 
Q 2306 3072 2169 3072 
Q 1681 3072 1420 2755 
Q 1159 2438 1159 1844 
L 1159 0 
L 581 0 
L 581 3500 
L 1159 3500 
L 1159 2956 
Q 1341 3275 1631 3429 
Q 1922 3584 2338 3584 
Q 2397 3584 2469 3576 
Q 2541 3569 2628 3553 
L 2631 2963 
z
" transform="scale(0.015625)"/>
      <path id="DejaVuSans-6b" d="M 581 4863 
L 1159 4863 
L 1159 1991 
L 2875 3500 
L 3609 3500 
L 1753 1863 
L 3688 0 
L 2938 0 
L 1159 1709 
L 1159 0 
L 581 0 
L 581 4863 
z
" transform="scale(0.015625)"/>
      <path id="DejaVuSans-48" d="M 628 4666 
L 1259 4666 
L 1259 2753 
L 3553 2753 
L 3553 4666 
L 4184 4666 
L 4184 0 
L 3553 0 
L 3553 2222 
L 1259 2222 
L 1259 0 
L 628 0 
L 628 4666 
z
" transform="scale(0.015625)"/>
      <path id="DejaVuSans-7a" d="M 353 3500 
L 3084 3500 
L 3084 2975 
L 922 459 
L 3084 459 
L 3084 0 
L 275 0 
L 275 525 
L 2438 3041 
L 353 3041 
L 353 3500 
z
" transform="scale(0.015625)"/>
      <path id="DejaVuSans-2c" d="M 750 794 
L 1409 794 
L 1409 256 
L 897 -744 
L 494 -744 
L 750 256 
L 750 794 
z
" transform="scale(0.015625)"/>
      <path id="DejaVuSans-63" d="M 3122 3366 
L 3122 2828 
Q 2878 2963 2633 3030 
Q 2388 3097 2138 3097 
Q 1578 3097 1268 2742 
Q 959 2388 959 1747 
Q 959 1106 1268 751 
Q 1578 397 2138 397 
Q 2388 397 2633 464 
Q 2878 531 3122 666 
L 3122 134 
Q 2881 22 2623 -34 
Q 2366 -91 2075 -91 
Q 1284 -91 818 406 
Q 353 903 353 1747 
Q 353 2603 823 3093 
Q 1294 3584 2113 3584 
Q 2378 3584 2631 3529 
Q 2884 3475 3122 3366 
z
" transform="scale(0.015625)"/>
      <path id="DejaVuSans-43" d="M 4122 4306 
L 4122 3641 
Q 3803 3938 3442 4084 
Q 3081 4231 2675 4231 
Q 1875 4231 1450 3742 
Q 1025 3253 1025 2328 
Q 1025 1406 1450 917 
Q 1875 428 2675 428 
Q 3081 428 3442 575 
Q 3803 722 4122 1019 
L 4122 359 
Q 3791 134 3420 21 
Q 3050 -91 2638 -91 
Q 1578 -91 968 557 
Q 359 1206 359 2328 
Q 359 3453 968 4101 
Q 1578 4750 2638 4750 
Q 3056 4750 3426 4639 
Q 3797 4528 4122 4306 
z
" transform="scale(0.015625)"/>
      <path id="DejaVuSans-2d" d="M 313 2009 
L 1997 2009 
L 1997 1497 
L 313 1497 
L 313 2009 
z
" transform="scale(0.015625)"/>
      <path id="DejaVuSans-ed" d="M 1322 5119 
L 1944 5119 
L 926 3944 
L 447 3944 
L 1322 5119 
z
M 603 3500 
L 1178 3500 
L 1178 0 
L 603 0 
L 603 3500 
z
M 891 3584 
L 891 3584 
z
" transform="scale(0.015625)"/>
     </defs>
     <use xlink:href="#DejaVuSans-52"/>
     <use xlink:href="#DejaVuSans-65" transform="translate(64.982422 0)"/>
     <use xlink:href="#DejaVuSans-73" transform="translate(126.505859 0)"/>
     <use xlink:href="#DejaVuSans-70" transform="translate(178.605469 0)"/>
     <use xlink:href="#DejaVuSans-75" transform="translate(242.082031 0)"/>
     <use xlink:href="#DejaVuSans-65" transform="translate(305.460938 0)"/>
     <use xlink:href="#DejaVuSans-73" transform="translate(366.984375 0)"/>
     <use xlink:href="#DejaVuSans-74" transform="translate(419.083984 0)"/>
     <use xlink:href="#DejaVuSans-61" transform="translate(458.292969 0)"/>
     <use xlink:href="#DejaVuSans-20" transform="translate(519.572266 0)"/>
     <use xlink:href="#DejaVuSans-54" transform="translate(551.359375 0)"/>
     <use xlink:href="#DejaVuSans-72" transform="translate(597.693359 0)"/>
     <use xlink:href="#DejaVuSans-61" transform="translate(638.806641 0)"/>
     <use xlink:href="#DejaVuSans-6e" transform="translate(700.085938 0)"/>
     <use xlink:href="#DejaVuSans-73" transform="translate(763.464844 0)"/>
     <use xlink:href="#DejaVuSans-69" transform="translate(815.564453 0)"/>
     <use xlink:href="#DejaVuSans-74" transform="translate(843.347656 0)"/>
     <use xlink:href="#DejaVuSans-6f" transform="translate(882.556641 0)"/>
     <use xlink:href="#DejaVuSans-72" transform="translate(943.738281 0)"/>
     <use xlink:href="#DejaVuSans-69" transform="translate(984.851562 0)"/>
     <use xlink:href="#DejaVuSans-61" transform="translate(1012.634766 0)"/>
     <use xlink:href="#DejaVuSans-20" transform="translate(1073.914062 0)"/>
     <use xlink:href="#DejaVuSans-61" transform="translate(1105.701172 0)"/>
     <use xlink:href="#DejaVuSans-20" transform="translate(1166.980469 0)"/>
     <use xlink:href="#DejaVuSans-35" transform="translate(1198.767578 0)"/>
     <use xlink:href="#DejaVuSans-30" transform="translate(1262.390625 0)"/>
     <use xlink:href="#DejaVuSans-20" transform="translate(1326.013672 0)"/>
     <use xlink:href="#DejaVuSans-6b" transform="translate(1357.800781 0)"/>
     <use xlink:href="#DejaVuSans-48" transform="translate(1415.710938 0)"/>
     <use xlink:href="#DejaVuSans-7a" transform="translate(1490.90625 0)"/>
     <use xlink:href="#DejaVuSans-20" transform="translate(1543.396484 0)"/>
     <use xlink:href="#DejaVuSans-28" transform="translate(1575.183594 0)"/>
     <use xlink:href="#DejaVuSans-53" transform="translate(1614.197266 0)"/>
     <use xlink:href="#DejaVuSans-65" transform="translate(1677.673828 0)"/>
     <use xlink:href="#DejaVuSans-6e" transform="translate(1739.197266 0)"/>
     <use xlink:href="#DejaVuSans-6f" transform="translate(1802.576172 0)"/>
     <use xlink:href="#DejaVuSans-69" transform="translate(1863.757812 0)"/>
     <use xlink:href="#DejaVuSans-64" transform="translate(1891.541016 0)"/>
     <use xlink:href="#DejaVuSans-61" transform="translate(1955.017578 0)"/>
     <use xlink:href="#DejaVuSans-6c" transform="translate(2016.296875 0)"/>
     <use xlink:href="#DejaVuSans-2c" transform="translate(2044.080078 0)"/>
     <use xlink:href="#DejaVuSans-20" transform="translate(2075.867188 0)"/>
     <use xlink:href="#DejaVuSans-31" transform="translate(2107.654297 0)"/>
     <use xlink:href="#DejaVuSans-30" transform="translate(2171.277344 0)"/>
     <use xlink:href="#DejaVuSans-30" transform="translate(2234.900391 0)"/>
     <use xlink:href="#DejaVuSans-75" transform="translate(2298.523438 0)"/>
     <use xlink:href="#DejaVuSans-56" transform="translate(2361.902344 0)"/>
     <use xlink:href="#DejaVuSans-20" transform="translate(2430.310547 0)"/>
     <use xlink:href="#DejaVuSans-70" transform="translate(2462.097656 0)"/>
     <use xlink:href="#DejaVuSans-69" transform="translate(2525.574219 0)"/>
     <use xlink:href="#DejaVuSans-63" transform="translate(2553.357422 0)"/>
     <use xlink:href="#DejaVuSans-6f" transform="translate(2608.337891 0)"/>
     <use xlink:href="#DejaVuSans-2c" transform="translate(2669.519531 0)"/>
     <use xlink:href="#DejaVuSans-20" transform="translate(2701.306641 0)"/>
     <use xlink:href="#DejaVuSans-33" transform="translate(2733.09375 0)"/>
     <use xlink:href="#DejaVuSans-20" transform="translate(2796.716797 0)"/>
     <use xlink:href="#DejaVuSans-43" transform="translate(2828.503906 0)"/>
     <use xlink:href="#DejaVuSans-69" transform="translate(2898.328125 0)"/>
     <use xlink:href="#DejaVuSans-63" transform="translate(2926.111328 0)"/>
     <use xlink:href="#DejaVuSans-6c" transform="translate(2981.091797 0)"/>
     <use xlink:href="#DejaVuSans-6f" transform="translate(3008.875 0)"/>
     <use xlink:href="#DejaVuSans-73" transform="translate(3070.056641 0)"/>
     <use xlink:href="#DejaVuSans-29" transform="translate(3122.15625 0)"/>
     <use xlink:href="#DejaVuSans-20" transform="translate(3161.169922 0)"/>
     <use xlink:href="#DejaVuSans-2d" transform="translate(3192.957031 0)"/>
     <use xlink:href="#DejaVuSans-20" transform="translate(3229.041016 0)"/>
     <use xlink:href="#DejaVuSans-35" transform="translate(3260.828125 0)"/>
     <use xlink:href="#DejaVuSans-20" transform="translate(3324.451172 0)"/>
     <use xlink:href="#DejaVuSans-56" transform="translate(3356.238281 0)"/>
     <use xlink:href="#DejaVuSans-ed" transform="translate(3424.646484 0)"/>
     <use xlink:href="#DejaVuSans-61" transform="translate(3452.429688 0)"/>
     <use xlink:href="#DejaVuSans-73" transform="translate(3513.708984 0)"/>
    </g>
   </g>
   <g id="legend_1">
    <g id="patch_7">
     <path d="M 451.768281 122.9275 
L 594.855937 122.9275 
Q 597.055938 122.9275 597.055938 120.7275 
L 597.055938 41.097812 
Q 597.055938 38.897812 594.855937 38.897812 
L 451.768281 38.897812 
Q 449.568281 38.897812 449.568281 41.097812 
L 449.568281 120.7275 
Q 449.568281 122.9275 451.768281 122.9275 
z
" style="fill: #ffffff; opacity: 0.8; stroke: #cccccc; stroke-linejoin: miter"/>
    </g>
    <g id="line2d_30">
     <path d="M 453.968281 47.806094 
L 464.968281 47.806094 
L 475.968281 47.806094 
" style="fill: none; stroke: #1f77b4; stroke-width: 2.5; stroke-linecap: square"/>
    </g>
    <g id="text_16">
     <!-- Ideal Op-Amp -->
     <g transform="translate(484.768281 51.656094) scale(0.11 -0.11)">
      <defs>
       <path id="DejaVuSans-49" d="M 628 4666 
L 1259 4666 
L 1259 0 
L 628 0 
L 628 4666 
z
" transform="scale(0.015625)"/>
       <path id="DejaVuSans-4f" d="M 2522 4238 
Q 1834 4238 1429 3725 
Q 1025 3213 1025 2328 
Q 1025 1447 1429 934 
Q 1834 422 2522 422 
Q 3209 422 3611 934 
Q 4013 1447 4013 2328 
Q 4013 3213 3611 3725 
Q 3209 4238 2522 4238 
z
M 2522 4750 
Q 3503 4750 4090 4092 
Q 4678 3434 4678 2328 
Q 4678 1225 4090 567 
Q 3503 -91 2522 -91 
Q 1538 -91 948 565 
Q 359 1222 359 2328 
Q 359 3434 948 4092 
Q 1538 4750 2522 4750 
z
" transform="scale(0.015625)"/>
       <path id="DejaVuSans-41" d="M 2188 4044 
L 1331 1722 
L 3047 1722 
L 2188 4044 
z
M 1831 4666 
L 2547 4666 
L 4325 0 
L 3669 0 
L 3244 1197 
L 1141 1197 
L 716 0 
L 50 0 
L 1831 4666 
z
" transform="scale(0.015625)"/>
      </defs>
      <use xlink:href="#DejaVuSans-49"/>
      <use xlink:href="#DejaVuSans-64" transform="translate(29.492188 0)"/>
      <use xlink:href="#DejaVuSans-65" transform="translate(92.96875 0)"/>
      <use xlink:href="#DejaVuSans-61" transform="translate(154.492188 0)"/>
      <use xlink:href="#DejaVuSans-6c" transform="translate(215.771484 0)"/>
      <use xlink:href="#DejaVuSans-20" transform="translate(243.554688 0)"/>
      <use xlink:href="#DejaVuSans-4f" transform="translate(275.341797 0)"/>
      <use xlink:href="#DejaVuSans-70" transform="translate(354.052734 0)"/>
      <use xlink:href="#DejaVuSans-2d" transform="translate(417.529297 0)"/>
      <use xlink:href="#DejaVuSans-41" transform="translate(451.363281 0)"/>
      <use xlink:href="#DejaVuSans-6d" transform="translate(519.771484 0)"/>
      <use xlink:href="#DejaVuSans-70" transform="translate(617.183594 0)"/>
     </g>
    </g>
    <g id="line2d_31">
     <path d="M 453.968281 63.952031 
L 464.968281 63.952031 
L 475.968281 63.952031 
" style="fill: none; stroke: #ff7f0e; stroke-width: 3; stroke-linecap: square"/>
    </g>
    <g id="text_17">
     <!-- ADA4817-1 FastFET -->
     <g transform="translate(484.768281 67.802031) scale(0.11 -0.11)">
      <defs>
       <path id="DejaVuSans-44" d="M 1259 4147 
L 1259 519 
L 2022 519 
Q 2988 519 3436 956 
Q 3884 1394 3884 2338 
Q 3884 3275 3436 3711 
Q 2988 4147 2022 4147 
L 1259 4147 
z
M 628 4666 
L 1925 4666 
Q 3281 4666 3915 4102 
Q 4550 3538 4550 2338 
Q 4550 1131 3912 565 
Q 3275 0 1925 0 
L 628 0 
L 628 4666 
z
" transform="scale(0.015625)"/>
       <path id="DejaVuSans-38" d="M 2034 2216 
Q 1584 2216 1326 1975 
Q 1069 1734 1069 1313 
Q 1069 891 1326 650 
Q 1584 409 2034 409 
Q 2484 409 2743 651 
Q 3003 894 3003 1313 
Q 3003 1734 2745 1975 
Q 2488 2216 2034 2216 
z
M 1403 2484 
Q 997 2584 770 2862 
Q 544 3141 544 3541 
Q 544 4100 942 4425 
Q 1341 4750 2034 4750 
Q 2731 4750 3128 4425 
Q 3525 4100 3525 3541 
Q 3525 3141 3298 2862 
Q 3072 2584 2669 2484 
Q 3125 2378 3379 2068 
Q 3634 1759 3634 1313 
Q 3634 634 3220 271 
Q 2806 -91 2034 -91 
Q 1263 -91 848 271 
Q 434 634 434 1313 
Q 434 1759 690 2068 
Q 947 2378 1403 2484 
z
M 1172 3481 
Q 1172 3119 1398 2916 
Q 1625 2713 2034 2713 
Q 2441 2713 2670 2916 
Q 2900 3119 2900 3481 
Q 2900 3844 2670 4047 
Q 2441 4250 2034 4250 
Q 1625 4250 1398 4047 
Q 1172 3844 1172 3481 
z
" transform="scale(0.015625)"/>
       <path id="DejaVuSans-37" d="M 525 4666 
L 3525 4666 
L 3525 4397 
L 1831 0 
L 1172 0 
L 2766 4134 
L 525 4134 
L 525 4666 
z
" transform="scale(0.015625)"/>
       <path id="DejaVuSans-46" d="M 628 4666 
L 3309 4666 
L 3309 4134 
L 1259 4134 
L 1259 2759 
L 3109 2759 
L 3109 2228 
L 1259 2228 
L 1259 0 
L 628 0 
L 628 4666 
z
" transform="scale(0.015625)"/>
       <path id="DejaVuSans-45" d="M 628 4666 
L 3578 4666 
L 3578 4134 
L 1259 4134 
L 1259 2753 
L 3481 2753 
L 3481 2222 
L 1259 2222 
L 1259 531 
L 3634 531 
L 3634 0 
L 628 0 
L 628 4666 
z
" transform="scale(0.015625)"/>
      </defs>
      <use xlink:href="#DejaVuSans-41"/>
      <use xlink:href="#DejaVuSans-44" transform="translate(68.408203 0)"/>
      <use xlink:href="#DejaVuSans-41" transform="translate(143.660156 0)"/>
      <use xlink:href="#DejaVuSans-34" transform="translate(212.068359 0)"/>
      <use xlink:href="#DejaVuSans-38" transform="translate(275.691406 0)"/>
      <use xlink:href="#DejaVuSans-31" transform="translate(339.314453 0)"/>
      <use xlink:href="#DejaVuSans-37" transform="translate(402.9375 0)"/>
      <use xlink:href="#DejaVuSans-2d" transform="translate(466.560547 0)"/>
      <use xlink:href="#DejaVuSans-31" transform="translate(502.644531 0)"/>
      <use xlink:href="#DejaVuSans-20" transform="translate(566.267578 0)"/>
      <use xlink:href="#DejaVuSans-46" transform="translate(598.054688 0)"/>
      <use xlink:href="#DejaVuSans-61" transform="translate(646.449219 0)"/>
      <use xlink:href="#DejaVuSans-73" transform="translate(707.728516 0)"/>
      <use xlink:href="#DejaVuSans-74" transform="translate(759.828125 0)"/>
      <use xlink:href="#DejaVuSans-46" transform="translate(799.037109 0)"/>
      <use xlink:href="#DejaVuSans-45" transform="translate(856.556641 0)"/>
      <use xlink:href="#DejaVuSans-54" transform="translate(919.740234 0)"/>
     </g>
    </g>
    <g id="line2d_32">
     <path d="M 453.968281 80.097969 
L 464.968281 80.097969 
L 475.968281 80.097969 
" style="fill: none; stroke-dasharray: 16,4,2.5,4; stroke-dashoffset: 0; stroke: #9467bd; stroke-width: 2.5"/>
    </g>
    <g id="text_18">
     <!-- OPA828 JFET -->
     <g transform="translate(484.768281 83.947969) scale(0.11 -0.11)">
      <defs>
       <path id="DejaVuSans-50" d="M 1259 4147 
L 1259 2394 
L 2053 2394 
Q 2494 2394 2734 2622 
Q 2975 2850 2975 3272 
Q 2975 3691 2734 3919 
Q 2494 4147 2053 4147 
L 1259 4147 
z
M 628 4666 
L 2053 4666 
Q 2838 4666 3239 4311 
Q 3641 3956 3641 3272 
Q 3641 2581 3239 2228 
Q 2838 1875 2053 1875 
L 1259 1875 
L 1259 0 
L 628 0 
L 628 4666 
z
" transform="scale(0.015625)"/>
       <path id="DejaVuSans-4a" d="M 628 4666 
L 1259 4666 
L 1259 325 
Q 1259 -519 939 -900 
Q 619 -1281 -91 -1281 
L -331 -1281 
L -331 -750 
L -134 -750 
Q 284 -750 456 -515 
Q 628 -281 628 325 
L 628 4666 
z
" transform="scale(0.015625)"/>
      </defs>
      <use xlink:href="#DejaVuSans-4f"/>
      <use xlink:href="#DejaVuSans-50" transform="translate(78.710938 0)"/>
      <use xlink:href="#DejaVuSans-41" transform="translate(132.638672 0)"/>
      <use xlink:href="#DejaVuSans-38" transform="translate(201.046875 0)"/>
      <use xlink:href="#DejaVuSans-32" transform="translate(264.669922 0)"/>
      <use xlink:href="#DejaVuSans-38" transform="translate(328.292969 0)"/>
      <use xlink:href="#DejaVuSans-20" transform="translate(391.916016 0)"/>
      <use xlink:href="#DejaVuSans-4a" transform="translate(423.703125 0)"/>
      <use xlink:href="#DejaVuSans-46" transform="translate(453.195312 0)"/>
      <use xlink:href="#DejaVuSans-45" transform="translate(510.714844 0)"/>
      <use xlink:href="#DejaVuSans-54" transform="translate(573.898438 0)"/>
     </g>
    </g>
    <g id="line2d_33">
     <path d="M 453.968281 96.243906 
L 464.968281 96.243906 
L 475.968281 96.243906 
" style="fill: none; stroke-dasharray: 9.25,4; stroke-dashoffset: 0; stroke: #2ca02c; stroke-width: 2.5"/>
    </g>
    <g id="text_19">
     <!-- LF357 JFET -->
     <g transform="translate(484.768281 100.093906) scale(0.11 -0.11)">
      <defs>
       <path id="DejaVuSans-4c" d="M 628 4666 
L 1259 4666 
L 1259 531 
L 3531 531 
L 3531 0 
L 628 0 
L 628 4666 
z
" transform="scale(0.015625)"/>
      </defs>
      <use xlink:href="#DejaVuSans-4c"/>
      <use xlink:href="#DejaVuSans-46" transform="translate(55.712891 0)"/>
      <use xlink:href="#DejaVuSans-33" transform="translate(113.232422 0)"/>
      <use xlink:href="#DejaVuSans-35" transform="translate(176.855469 0)"/>
      <use xlink:href="#DejaVuSans-37" transform="translate(240.478516 0)"/>
      <use xlink:href="#DejaVuSans-20" transform="translate(304.101562 0)"/>
      <use xlink:href="#DejaVuSans-4a" transform="translate(335.888672 0)"/>
      <use xlink:href="#DejaVuSans-46" transform="translate(365.380859 0)"/>
      <use xlink:href="#DejaVuSans-45" transform="translate(422.900391 0)"/>
      <use xlink:href="#DejaVuSans-54" transform="translate(486.083984 0)"/>
     </g>
    </g>
    <g id="line2d_34">
     <path d="M 453.968281 112.389844 
L 464.968281 112.389844 
L 475.968281 112.389844 
" style="fill: none; stroke-dasharray: 2.5,4.125; stroke-dashoffset: 0; stroke: #d62728; stroke-width: 2.5"/>
    </g>
    <g id="text_20">
     <!-- TL071 JFET -->
     <g transform="translate(484.768281 116.239844) scale(0.11 -0.11)">
      <use xlink:href="#DejaVuSans-54"/>
      <use xlink:href="#DejaVuSans-4c" transform="translate(61.083984 0)"/>
      <use xlink:href="#DejaVuSans-30" transform="translate(116.796875 0)"/>
      <use xlink:href="#DejaVuSans-37" transform="translate(180.419922 0)"/>
      <use xlink:href="#DejaVuSans-31" transform="translate(244.042969 0)"/>
      <use xlink:href="#DejaVuSans-20" transform="translate(307.666016 0)"/>
      <use xlink:href="#DejaVuSans-4a" transform="translate(339.453125 0)"/>
      <use xlink:href="#DejaVuSans-46" transform="translate(368.945312 0)"/>
      <use xlink:href="#DejaVuSans-45" transform="translate(426.464844 0)"/>
      <use xlink:href="#DejaVuSans-54" transform="translate(489.648438 0)"/>
     </g>
    </g>
   </g>
  </g>
 </g>
 <defs>
  <clipPath id="p824d04e392">
   <rect x="44.555937" y="33.397812" width="558" height="332.64"/>
  </clipPath>
 </defs>
</svg>
