<?xml version="1.0" encoding="utf-8" standalone="no"?>
<!DOCTYPE svg PUBLIC "-//W3C//DTD SVG 1.1//EN"
  "http://www.w3.org/Graphics/SVG/1.1/DTD/svg11.dtd">
<svg xmlns:xlink="http://www.w3.org/1999/xlink" width="623.059408pt" height="476.580878pt" viewBox="0 0 623.059408 476.580878" xmlns="http://www.w3.org/2000/svg" version="1.1">
 <metadata>
  <rdf:RDF xmlns:dc="http://purl.org/dc/elements/1.1/" xmlns:cc="http://creativecommons.org/ns#" xmlns:rdf="http://www.w3.org/1999/02/22-rdf-syntax-ns#">
   <cc:Work>
    <dc:type rdf:resource="http://purl.org/dc/dcmitype/StillImage"/>
    <dc:date>2026-05-27T17:54:05.299116</dc:date>
    <dc:format>image/svg+xml</dc:format>
    <dc:creator>
     <cc:Agent>
      <dc:title>Matplotlib v3.10.9, https://matplotlib.org/</dc:title>
     </cc:Agent>
    </dc:creator>
   </cc:Work>
  </rdf:RDF>
 </metadata>
 <defs>
  <style type="text/css">*{stroke-linejoin: round; stroke-linecap: butt}</style>
 </defs>
 <g id="figure_1">
  <g id="patch_1">
   <path d="M 0 476.580878 
L 623.059408 476.580878 
L 623.059408 0 
L 0 0 
z
" style="fill: #ffffff"/>
  </g>
  <g id="axes_1">
   <g id="patch_2">
    <path d="M 57.859408 431.758066 
L 615.859408 431.758066 
L 615.859408 99.118066 
L 57.859408 99.118066 
z
" style="fill: #ffffff"/>
   </g>
   <g id="matplotlib.axis_1">
    <g id="xtick_1">
     <g id="line2d_1">
      <path d="M 57.859408 431.758066 
L 57.859408 99.118066 
" clip-path="url(#pf0d66ddb31)" style="fill: none; stroke: #f1f5f9; stroke-linecap: square"/>
     </g>
     <g id="line2d_2">
      <defs>
       <path id="m2864d3d0b4" d="M 0 0 
L 0 3.5 
" style="stroke: #475569; stroke-width: 0.8"/>
      </defs>
      <g>
       <use xlink:href="#m2864d3d0b4" x="57.859408" y="431.758066" style="fill: #475569; stroke: #475569; stroke-width: 0.8"/>
      </g>
     </g>
     <g id="text_1">
      <!-- $\mathdefault{10^{1}}$ -->
      <g style="fill: #475569" transform="translate(50.009408 449.070566) scale(0.1 -0.1)">
       <defs>
        <path id="ArialMT-31" d="M 2384 0 
L 1822 0 
L 1822 3584 
Q 1619 3391 1289 3197 
Q 959 3003 697 2906 
L 697 3450 
Q 1169 3672 1522 3987 
Q 1875 4303 2022 4600 
L 2384 4600 
L 2384 0 
z
" transform="scale(0.015625)"/>
        <path id="ArialMT-30" d="M 266 2259 
Q 266 3072 433 3567 
Q 600 4063 929 4331 
Q 1259 4600 1759 4600 
Q 2128 4600 2406 4451 
Q 2684 4303 2865 4023 
Q 3047 3744 3150 3342 
Q 3253 2941 3253 2259 
Q 3253 1453 3087 958 
Q 2922 463 2592 192 
Q 2263 -78 1759 -78 
Q 1097 -78 719 397 
Q 266 969 266 2259 
z
M 844 2259 
Q 844 1131 1108 757 
Q 1372 384 1759 384 
Q 2147 384 2411 759 
Q 2675 1134 2675 2259 
Q 2675 3391 2411 3762 
Q 2147 4134 1753 4134 
Q 1366 4134 1134 3806 
Q 844 3388 844 2259 
z
" transform="scale(0.015625)"/>
       </defs>
       <use xlink:href="#ArialMT-31" transform="translate(0 0.99375)"/>
       <use xlink:href="#ArialMT-30" transform="translate(55.615234 0.99375)"/>
       <use xlink:href="#ArialMT-31" transform="translate(112.972813 70.6875) scale(0.7)"/>
      </g>
     </g>
    </g>
    <g id="xtick_2">
     <g id="line2d_3">
      <path d="M 130.336635 431.758066 
L 130.336635 99.118066 
" clip-path="url(#pf0d66ddb31)" style="fill: none; stroke: #f1f5f9; stroke-linecap: square"/>
     </g>
     <g id="line2d_4">
      <g>
       <use xlink:href="#m2864d3d0b4" x="130.336635" y="431.758066" style="fill: #475569; stroke: #475569; stroke-width: 0.8"/>
      </g>
     </g>
     <g id="text_2">
      <!-- $\mathdefault{10^{2}}$ -->
      <g style="fill: #475569" transform="translate(122.486635 449.070566) scale(0.1 -0.1)">
       <defs>
        <path id="ArialMT-32" d="M 3222 541 
L 3222 0 
L 194 0 
Q 188 203 259 391 
Q 375 700 629 1000 
Q 884 1300 1366 1694 
Q 2113 2306 2375 2664 
Q 2638 3022 2638 3341 
Q 2638 3675 2398 3904 
Q 2159 4134 1775 4134 
Q 1369 4134 1125 3890 
Q 881 3647 878 3216 
L 300 3275 
Q 359 3922 746 4261 
Q 1134 4600 1788 4600 
Q 2447 4600 2831 4234 
Q 3216 3869 3216 3328 
Q 3216 3053 3103 2787 
Q 2991 2522 2730 2228 
Q 2469 1934 1863 1422 
Q 1356 997 1212 845 
Q 1069 694 975 541 
L 3222 541 
z
" transform="scale(0.015625)"/>
       </defs>
       <use xlink:href="#ArialMT-31" transform="translate(0 0.99375)"/>
       <use xlink:href="#ArialMT-30" transform="translate(55.615234 0.99375)"/>
       <use xlink:href="#ArialMT-32" transform="translate(112.972813 70.6875) scale(0.7)"/>
      </g>
     </g>
    </g>
    <g id="xtick_3">
     <g id="line2d_5">
      <path d="M 202.813863 431.758066 
L 202.813863 99.118066 
" clip-path="url(#pf0d66ddb31)" style="fill: none; stroke: #f1f5f9; stroke-linecap: square"/>
     </g>
     <g id="line2d_6">
      <g>
       <use xlink:href="#m2864d3d0b4" x="202.813863" y="431.758066" style="fill: #475569; stroke: #475569; stroke-width: 0.8"/>
      </g>
     </g>
     <g id="text_3">
      <!-- $\mathdefault{10^{3}}$ -->
      <g style="fill: #475569" transform="translate(194.963863 449.070566) scale(0.1 -0.1)">
       <defs>
        <path id="ArialMT-33" d="M 269 1209 
L 831 1284 
Q 928 806 1161 595 
Q 1394 384 1728 384 
Q 2125 384 2398 659 
Q 2672 934 2672 1341 
Q 2672 1728 2419 1979 
Q 2166 2231 1775 2231 
Q 1616 2231 1378 2169 
L 1441 2663 
Q 1497 2656 1531 2656 
Q 1891 2656 2178 2843 
Q 2466 3031 2466 3422 
Q 2466 3731 2256 3934 
Q 2047 4138 1716 4138 
Q 1388 4138 1169 3931 
Q 950 3725 888 3313 
L 325 3413 
Q 428 3978 793 4289 
Q 1159 4600 1703 4600 
Q 2078 4600 2393 4439 
Q 2709 4278 2876 4000 
Q 3044 3722 3044 3409 
Q 3044 3113 2884 2869 
Q 2725 2625 2413 2481 
Q 2819 2388 3044 2092 
Q 3269 1797 3269 1353 
Q 3269 753 2831 336 
Q 2394 -81 1725 -81 
Q 1122 -81 723 278 
Q 325 638 269 1209 
z
" transform="scale(0.015625)"/>
       </defs>
       <use xlink:href="#ArialMT-31" transform="translate(0 0.99375)"/>
       <use xlink:href="#ArialMT-30" transform="translate(55.615234 0.99375)"/>
       <use xlink:href="#ArialMT-33" transform="translate(112.972813 70.6875) scale(0.7)"/>
      </g>
     </g>
    </g>
    <g id="xtick_4">
     <g id="line2d_7">
      <path d="M 275.29109 431.758066 
L 275.29109 99.118066 
" clip-path="url(#pf0d66ddb31)" style="fill: none; stroke: #f1f5f9; stroke-linecap: square"/>
     </g>
     <g id="line2d_8">
      <g>
       <use xlink:href="#m2864d3d0b4" x="275.29109" y="431.758066" style="fill: #475569; stroke: #475569; stroke-width: 0.8"/>
      </g>
     </g>
     <g id="text_4">
      <!-- $\mathdefault{10^{4}}$ -->
      <g style="fill: #475569" transform="translate(267.44109 448.970566) scale(0.1 -0.1)">
       <defs>
        <path id="ArialMT-34" d="M 2069 0 
L 2069 1097 
L 81 1097 
L 81 1613 
L 2172 4581 
L 2631 4581 
L 2631 1613 
L 3250 1613 
L 3250 1097 
L 2631 1097 
L 2631 0 
L 2069 0 
z
M 2069 1613 
L 2069 3678 
L 634 1613 
L 2069 1613 
z
" transform="scale(0.015625)"/>
       </defs>
       <use xlink:href="#ArialMT-31" transform="translate(0 0.201563)"/>
       <use xlink:href="#ArialMT-30" transform="translate(55.615234 0.201563)"/>
       <use xlink:href="#ArialMT-34" transform="translate(112.972813 69.895313) scale(0.7)"/>
      </g>
     </g>
    </g>
    <g id="xtick_5">
     <g id="line2d_9">
      <path d="M 347.768318 431.758066 
L 347.768318 99.118066 
" clip-path="url(#pf0d66ddb31)" style="fill: none; stroke: #f1f5f9; stroke-linecap: square"/>
     </g>
     <g id="line2d_10">
      <g>
       <use xlink:href="#m2864d3d0b4" x="347.768318" y="431.758066" style="fill: #475569; stroke: #475569; stroke-width: 0.8"/>
      </g>
     </g>
     <g id="text_5">
      <!-- $\mathdefault{10^{5}}$ -->
      <g style="fill: #475569" transform="translate(339.918318 448.970566) scale(0.1 -0.1)">
       <defs>
        <path id="ArialMT-35" d="M 266 1200 
L 856 1250 
Q 922 819 1161 601 
Q 1400 384 1738 384 
Q 2144 384 2425 690 
Q 2706 997 2706 1503 
Q 2706 1984 2436 2262 
Q 2166 2541 1728 2541 
Q 1456 2541 1237 2417 
Q 1019 2294 894 2097 
L 366 2166 
L 809 4519 
L 3088 4519 
L 3088 3981 
L 1259 3981 
L 1013 2750 
Q 1425 3038 1878 3038 
Q 2478 3038 2890 2622 
Q 3303 2206 3303 1553 
Q 3303 931 2941 478 
Q 2500 -78 1738 -78 
Q 1113 -78 717 272 
Q 322 622 266 1200 
z
" transform="scale(0.015625)"/>
       </defs>
       <use xlink:href="#ArialMT-31" transform="translate(0 0.879688)"/>
       <use xlink:href="#ArialMT-30" transform="translate(55.615234 0.879688)"/>
       <use xlink:href="#ArialMT-35" transform="translate(112.972813 70.573438) scale(0.7)"/>
      </g>
     </g>
    </g>
    <g id="xtick_6">
     <g id="line2d_11">
      <path d="M 420.245545 431.758066 
L 420.245545 99.118066 
" clip-path="url(#pf0d66ddb31)" style="fill: none; stroke: #f1f5f9; stroke-linecap: square"/>
     </g>
     <g id="line2d_12">
      <g>
       <use xlink:href="#m2864d3d0b4" x="420.245545" y="431.758066" style="fill: #475569; stroke: #475569; stroke-width: 0.8"/>
      </g>
     </g>
     <g id="text_6">
      <!-- $\mathdefault{10^{6}}$ -->
      <g style="fill: #475569" transform="translate(412.395545 449.070566) scale(0.1 -0.1)">
       <defs>
        <path id="ArialMT-36" d="M 3184 3459 
L 2625 3416 
Q 2550 3747 2413 3897 
Q 2184 4138 1850 4138 
Q 1581 4138 1378 3988 
Q 1113 3794 959 3422 
Q 806 3050 800 2363 
Q 1003 2672 1297 2822 
Q 1591 2972 1913 2972 
Q 2475 2972 2870 2558 
Q 3266 2144 3266 1488 
Q 3266 1056 3080 686 
Q 2894 316 2569 119 
Q 2244 -78 1831 -78 
Q 1128 -78 684 439 
Q 241 956 241 2144 
Q 241 3472 731 4075 
Q 1159 4600 1884 4600 
Q 2425 4600 2770 4297 
Q 3116 3994 3184 3459 
z
M 888 1484 
Q 888 1194 1011 928 
Q 1134 663 1356 523 
Q 1578 384 1822 384 
Q 2178 384 2434 671 
Q 2691 959 2691 1453 
Q 2691 1928 2437 2201 
Q 2184 2475 1800 2475 
Q 1419 2475 1153 2201 
Q 888 1928 888 1484 
z
" transform="scale(0.015625)"/>
       </defs>
       <use xlink:href="#ArialMT-31" transform="translate(0 0.99375)"/>
       <use xlink:href="#ArialMT-30" transform="translate(55.615234 0.99375)"/>
       <use xlink:href="#ArialMT-36" transform="translate(112.972813 70.6875) scale(0.7)"/>
      </g>
     </g>
    </g>
    <g id="xtick_7">
     <g id="line2d_13">
      <path d="M 492.722773 431.758066 
L 492.722773 99.118066 
" clip-path="url(#pf0d66ddb31)" style="fill: none; stroke: #f1f5f9; stroke-linecap: square"/>
     </g>
     <g id="line2d_14">
      <g>
       <use xlink:href="#m2864d3d0b4" x="492.722773" y="431.758066" style="fill: #475569; stroke: #475569; stroke-width: 0.8"/>
      </g>
     </g>
     <g id="text_7">
      <!-- $\mathdefault{10^{7}}$ -->
      <g style="fill: #475569" transform="translate(484.872773 448.970566) scale(0.1 -0.1)">
       <defs>
        <path id="ArialMT-37" d="M 303 3981 
L 303 4522 
L 3269 4522 
L 3269 4084 
Q 2831 3619 2401 2847 
Q 1972 2075 1738 1259 
Q 1569 684 1522 0 
L 944 0 
Q 953 541 1156 1306 
Q 1359 2072 1739 2783 
Q 2119 3494 2547 3981 
L 303 3981 
z
" transform="scale(0.015625)"/>
       </defs>
       <use xlink:href="#ArialMT-31" transform="translate(0 0.846875)"/>
       <use xlink:href="#ArialMT-30" transform="translate(55.615234 0.846875)"/>
       <use xlink:href="#ArialMT-37" transform="translate(112.972813 70.540625) scale(0.7)"/>
      </g>
     </g>
    </g>
    <g id="xtick_8">
     <g id="line2d_15">
      <path d="M 565.2 431.758066 
L 565.2 99.118066 
" clip-path="url(#pf0d66ddb31)" style="fill: none; stroke: #f1f5f9; stroke-linecap: square"/>
     </g>
     <g id="line2d_16">
      <g>
       <use xlink:href="#m2864d3d0b4" x="565.2" y="431.758066" style="fill: #475569; stroke: #475569; stroke-width: 0.8"/>
      </g>
     </g>
     <g id="text_8">
      <!-- $\mathdefault{10^{8}}$ -->
      <g style="fill: #475569" transform="translate(557.35 449.070566) scale(0.1 -0.1)">
       <defs>
        <path id="ArialMT-38" d="M 1131 2484 
Q 781 2613 612 2850 
Q 444 3088 444 3419 
Q 444 3919 803 4259 
Q 1163 4600 1759 4600 
Q 2359 4600 2725 4251 
Q 3091 3903 3091 3403 
Q 3091 3084 2923 2848 
Q 2756 2613 2416 2484 
Q 2838 2347 3058 2040 
Q 3278 1734 3278 1309 
Q 3278 722 2862 322 
Q 2447 -78 1769 -78 
Q 1091 -78 675 323 
Q 259 725 259 1325 
Q 259 1772 486 2073 
Q 713 2375 1131 2484 
z
M 1019 3438 
Q 1019 3113 1228 2906 
Q 1438 2700 1772 2700 
Q 2097 2700 2305 2904 
Q 2513 3109 2513 3406 
Q 2513 3716 2298 3927 
Q 2084 4138 1766 4138 
Q 1444 4138 1231 3931 
Q 1019 3725 1019 3438 
z
M 838 1322 
Q 838 1081 952 856 
Q 1066 631 1291 507 
Q 1516 384 1775 384 
Q 2178 384 2440 643 
Q 2703 903 2703 1303 
Q 2703 1709 2433 1975 
Q 2163 2241 1756 2241 
Q 1359 2241 1098 1978 
Q 838 1716 838 1322 
z
" transform="scale(0.015625)"/>
       </defs>
       <use xlink:href="#ArialMT-31" transform="translate(0 0.99375)"/>
       <use xlink:href="#ArialMT-30" transform="translate(55.615234 0.99375)"/>
       <use xlink:href="#ArialMT-38" transform="translate(112.972813 70.6875) scale(0.7)"/>
      </g>
     </g>
    </g>
    <g id="xtick_9">
     <g id="line2d_17">
      <path d="M 79.677227 431.758066 
L 79.677227 99.118066 
" clip-path="url(#pf0d66ddb31)" style="fill: none; stroke: #f1f5f9; stroke-linecap: square"/>
     </g>
     <g id="line2d_18">
      <defs>
       <path id="m9617840de4" d="M 0 0 
L 0 2 
" style="stroke: #475569; stroke-width: 0.6"/>
      </defs>
      <g>
       <use xlink:href="#m9617840de4" x="79.677227" y="431.758066" style="fill: #475569; stroke: #475569; stroke-width: 0.6"/>
      </g>
     </g>
    </g>
    <g id="xtick_10">
     <g id="line2d_19">
      <path d="M 92.439834 431.758066 
L 92.439834 99.118066 
" clip-path="url(#pf0d66ddb31)" style="fill: none; stroke: #f1f5f9; stroke-linecap: square"/>
     </g>
     <g id="line2d_20">
      <g>
       <use xlink:href="#m9617840de4" x="92.439834" y="431.758066" style="fill: #475569; stroke: #475569; stroke-width: 0.6"/>
      </g>
     </g>
    </g>
    <g id="xtick_11">
     <g id="line2d_21">
      <path d="M 101.495047 431.758066 
L 101.495047 99.118066 
" clip-path="url(#pf0d66ddb31)" style="fill: none; stroke: #f1f5f9; stroke-linecap: square"/>
     </g>
     <g id="line2d_22">
      <g>
       <use xlink:href="#m9617840de4" x="101.495047" y="431.758066" style="fill: #475569; stroke: #475569; stroke-width: 0.6"/>
      </g>
     </g>
    </g>
    <g id="xtick_12">
     <g id="line2d_23">
      <path d="M 108.518816 431.758066 
L 108.518816 99.118066 
" clip-path="url(#pf0d66ddb31)" style="fill: none; stroke: #f1f5f9; stroke-linecap: square"/>
     </g>
     <g id="line2d_24">
      <g>
       <use xlink:href="#m9617840de4" x="108.518816" y="431.758066" style="fill: #475569; stroke: #475569; stroke-width: 0.6"/>
      </g>
     </g>
    </g>
    <g id="xtick_13">
     <g id="line2d_25">
      <path d="M 114.257653 431.758066 
L 114.257653 99.118066 
" clip-path="url(#pf0d66ddb31)" style="fill: none; stroke: #f1f5f9; stroke-linecap: square"/>
     </g>
     <g id="line2d_26">
      <g>
       <use xlink:href="#m9617840de4" x="114.257653" y="431.758066" style="fill: #475569; stroke: #475569; stroke-width: 0.6"/>
      </g>
     </g>
    </g>
    <g id="xtick_14">
     <g id="line2d_27">
      <path d="M 119.109771 431.758066 
L 119.109771 99.118066 
" clip-path="url(#pf0d66ddb31)" style="fill: none; stroke: #f1f5f9; stroke-linecap: square"/>
     </g>
     <g id="line2d_28">
      <g>
       <use xlink:href="#m9617840de4" x="119.109771" y="431.758066" style="fill: #475569; stroke: #475569; stroke-width: 0.6"/>
      </g>
     </g>
    </g>
    <g id="xtick_15">
     <g id="line2d_29">
      <path d="M 123.312866 431.758066 
L 123.312866 99.118066 
" clip-path="url(#pf0d66ddb31)" style="fill: none; stroke: #f1f5f9; stroke-linecap: square"/>
     </g>
     <g id="line2d_30">
      <g>
       <use xlink:href="#m9617840de4" x="123.312866" y="431.758066" style="fill: #475569; stroke: #475569; stroke-width: 0.6"/>
      </g>
     </g>
    </g>
    <g id="xtick_16">
     <g id="line2d_31">
      <path d="M 127.020259 431.758066 
L 127.020259 99.118066 
" clip-path="url(#pf0d66ddb31)" style="fill: none; stroke: #f1f5f9; stroke-linecap: square"/>
     </g>
     <g id="line2d_32">
      <g>
       <use xlink:href="#m9617840de4" x="127.020259" y="431.758066" style="fill: #475569; stroke: #475569; stroke-width: 0.6"/>
      </g>
     </g>
    </g>
    <g id="xtick_17">
     <g id="line2d_33">
      <path d="M 152.154455 431.758066 
L 152.154455 99.118066 
" clip-path="url(#pf0d66ddb31)" style="fill: none; stroke: #f1f5f9; stroke-linecap: square"/>
     </g>
     <g id="line2d_34">
      <g>
       <use xlink:href="#m9617840de4" x="152.154455" y="431.758066" style="fill: #475569; stroke: #475569; stroke-width: 0.6"/>
      </g>
     </g>
    </g>
    <g id="xtick_18">
     <g id="line2d_35">
      <path d="M 164.917061 431.758066 
L 164.917061 99.118066 
" clip-path="url(#pf0d66ddb31)" style="fill: none; stroke: #f1f5f9; stroke-linecap: square"/>
     </g>
     <g id="line2d_36">
      <g>
       <use xlink:href="#m9617840de4" x="164.917061" y="431.758066" style="fill: #475569; stroke: #475569; stroke-width: 0.6"/>
      </g>
     </g>
    </g>
    <g id="xtick_19">
     <g id="line2d_37">
      <path d="M 173.972274 431.758066 
L 173.972274 99.118066 
" clip-path="url(#pf0d66ddb31)" style="fill: none; stroke: #f1f5f9; stroke-linecap: square"/>
     </g>
     <g id="line2d_38">
      <g>
       <use xlink:href="#m9617840de4" x="173.972274" y="431.758066" style="fill: #475569; stroke: #475569; stroke-width: 0.6"/>
      </g>
     </g>
    </g>
    <g id="xtick_20">
     <g id="line2d_39">
      <path d="M 180.996043 431.758066 
L 180.996043 99.118066 
" clip-path="url(#pf0d66ddb31)" style="fill: none; stroke: #f1f5f9; stroke-linecap: square"/>
     </g>
     <g id="line2d_40">
      <g>
       <use xlink:href="#m9617840de4" x="180.996043" y="431.758066" style="fill: #475569; stroke: #475569; stroke-width: 0.6"/>
      </g>
     </g>
    </g>
    <g id="xtick_21">
     <g id="line2d_41">
      <path d="M 186.734881 431.758066 
L 186.734881 99.118066 
" clip-path="url(#pf0d66ddb31)" style="fill: none; stroke: #f1f5f9; stroke-linecap: square"/>
     </g>
     <g id="line2d_42">
      <g>
       <use xlink:href="#m9617840de4" x="186.734881" y="431.758066" style="fill: #475569; stroke: #475569; stroke-width: 0.6"/>
      </g>
     </g>
    </g>
    <g id="xtick_22">
     <g id="line2d_43">
      <path d="M 191.586998 431.758066 
L 191.586998 99.118066 
" clip-path="url(#pf0d66ddb31)" style="fill: none; stroke: #f1f5f9; stroke-linecap: square"/>
     </g>
     <g id="line2d_44">
      <g>
       <use xlink:href="#m9617840de4" x="191.586998" y="431.758066" style="fill: #475569; stroke: #475569; stroke-width: 0.6"/>
      </g>
     </g>
    </g>
    <g id="xtick_23">
     <g id="line2d_45">
      <path d="M 195.790094 431.758066 
L 195.790094 99.118066 
" clip-path="url(#pf0d66ddb31)" style="fill: none; stroke: #f1f5f9; stroke-linecap: square"/>
     </g>
     <g id="line2d_46">
      <g>
       <use xlink:href="#m9617840de4" x="195.790094" y="431.758066" style="fill: #475569; stroke: #475569; stroke-width: 0.6"/>
      </g>
     </g>
    </g>
    <g id="xtick_24">
     <g id="line2d_47">
      <path d="M 199.497487 431.758066 
L 199.497487 99.118066 
" clip-path="url(#pf0d66ddb31)" style="fill: none; stroke: #f1f5f9; stroke-linecap: square"/>
     </g>
     <g id="line2d_48">
      <g>
       <use xlink:href="#m9617840de4" x="199.497487" y="431.758066" style="fill: #475569; stroke: #475569; stroke-width: 0.6"/>
      </g>
     </g>
    </g>
    <g id="xtick_25">
     <g id="line2d_49">
      <path d="M 224.631682 431.758066 
L 224.631682 99.118066 
" clip-path="url(#pf0d66ddb31)" style="fill: none; stroke: #f1f5f9; stroke-linecap: square"/>
     </g>
     <g id="line2d_50">
      <g>
       <use xlink:href="#m9617840de4" x="224.631682" y="431.758066" style="fill: #475569; stroke: #475569; stroke-width: 0.6"/>
      </g>
     </g>
    </g>
    <g id="xtick_26">
     <g id="line2d_51">
      <path d="M 237.394289 431.758066 
L 237.394289 99.118066 
" clip-path="url(#pf0d66ddb31)" style="fill: none; stroke: #f1f5f9; stroke-linecap: square"/>
     </g>
     <g id="line2d_52">
      <g>
       <use xlink:href="#m9617840de4" x="237.394289" y="431.758066" style="fill: #475569; stroke: #475569; stroke-width: 0.6"/>
      </g>
     </g>
    </g>
    <g id="xtick_27">
     <g id="line2d_53">
      <path d="M 246.449502 431.758066 
L 246.449502 99.118066 
" clip-path="url(#pf0d66ddb31)" style="fill: none; stroke: #f1f5f9; stroke-linecap: square"/>
     </g>
     <g id="line2d_54">
      <g>
       <use xlink:href="#m9617840de4" x="246.449502" y="431.758066" style="fill: #475569; stroke: #475569; stroke-width: 0.6"/>
      </g>
     </g>
    </g>
    <g id="xtick_28">
     <g id="line2d_55">
      <path d="M 253.473271 431.758066 
L 253.473271 99.118066 
" clip-path="url(#pf0d66ddb31)" style="fill: none; stroke: #f1f5f9; stroke-linecap: square"/>
     </g>
     <g id="line2d_56">
      <g>
       <use xlink:href="#m9617840de4" x="253.473271" y="431.758066" style="fill: #475569; stroke: #475569; stroke-width: 0.6"/>
      </g>
     </g>
    </g>
    <g id="xtick_29">
     <g id="line2d_57">
      <path d="M 259.212108 431.758066 
L 259.212108 99.118066 
" clip-path="url(#pf0d66ddb31)" style="fill: none; stroke: #f1f5f9; stroke-linecap: square"/>
     </g>
     <g id="line2d_58">
      <g>
       <use xlink:href="#m9617840de4" x="259.212108" y="431.758066" style="fill: #475569; stroke: #475569; stroke-width: 0.6"/>
      </g>
     </g>
    </g>
    <g id="xtick_30">
     <g id="line2d_59">
      <path d="M 264.064226 431.758066 
L 264.064226 99.118066 
" clip-path="url(#pf0d66ddb31)" style="fill: none; stroke: #f1f5f9; stroke-linecap: square"/>
     </g>
     <g id="line2d_60">
      <g>
       <use xlink:href="#m9617840de4" x="264.064226" y="431.758066" style="fill: #475569; stroke: #475569; stroke-width: 0.6"/>
      </g>
     </g>
    </g>
    <g id="xtick_31">
     <g id="line2d_61">
      <path d="M 268.267321 431.758066 
L 268.267321 99.118066 
" clip-path="url(#pf0d66ddb31)" style="fill: none; stroke: #f1f5f9; stroke-linecap: square"/>
     </g>
     <g id="line2d_62">
      <g>
       <use xlink:href="#m9617840de4" x="268.267321" y="431.758066" style="fill: #475569; stroke: #475569; stroke-width: 0.6"/>
      </g>
     </g>
    </g>
    <g id="xtick_32">
     <g id="line2d_63">
      <path d="M 271.974714 431.758066 
L 271.974714 99.118066 
" clip-path="url(#pf0d66ddb31)" style="fill: none; stroke: #f1f5f9; stroke-linecap: square"/>
     </g>
     <g id="line2d_64">
      <g>
       <use xlink:href="#m9617840de4" x="271.974714" y="431.758066" style="fill: #475569; stroke: #475569; stroke-width: 0.6"/>
      </g>
     </g>
    </g>
    <g id="xtick_33">
     <g id="line2d_65">
      <path d="M 297.10891 431.758066 
L 297.10891 99.118066 
" clip-path="url(#pf0d66ddb31)" style="fill: none; stroke: #f1f5f9; stroke-linecap: square"/>
     </g>
     <g id="line2d_66">
      <g>
       <use xlink:href="#m9617840de4" x="297.10891" y="431.758066" style="fill: #475569; stroke: #475569; stroke-width: 0.6"/>
      </g>
     </g>
    </g>
    <g id="xtick_34">
     <g id="line2d_67">
      <path d="M 309.871516 431.758066 
L 309.871516 99.118066 
" clip-path="url(#pf0d66ddb31)" style="fill: none; stroke: #f1f5f9; stroke-linecap: square"/>
     </g>
     <g id="line2d_68">
      <g>
       <use xlink:href="#m9617840de4" x="309.871516" y="431.758066" style="fill: #475569; stroke: #475569; stroke-width: 0.6"/>
      </g>
     </g>
    </g>
    <g id="xtick_35">
     <g id="line2d_69">
      <path d="M 318.926729 431.758066 
L 318.926729 99.118066 
" clip-path="url(#pf0d66ddb31)" style="fill: none; stroke: #f1f5f9; stroke-linecap: square"/>
     </g>
     <g id="line2d_70">
      <g>
       <use xlink:href="#m9617840de4" x="318.926729" y="431.758066" style="fill: #475569; stroke: #475569; stroke-width: 0.6"/>
      </g>
     </g>
    </g>
    <g id="xtick_36">
     <g id="line2d_71">
      <path d="M 325.950498 431.758066 
L 325.950498 99.118066 
" clip-path="url(#pf0d66ddb31)" style="fill: none; stroke: #f1f5f9; stroke-linecap: square"/>
     </g>
     <g id="line2d_72">
      <g>
       <use xlink:href="#m9617840de4" x="325.950498" y="431.758066" style="fill: #475569; stroke: #475569; stroke-width: 0.6"/>
      </g>
     </g>
    </g>
    <g id="xtick_37">
     <g id="line2d_73">
      <path d="M 331.689335 431.758066 
L 331.689335 99.118066 
" clip-path="url(#pf0d66ddb31)" style="fill: none; stroke: #f1f5f9; stroke-linecap: square"/>
     </g>
     <g id="line2d_74">
      <g>
       <use xlink:href="#m9617840de4" x="331.689335" y="431.758066" style="fill: #475569; stroke: #475569; stroke-width: 0.6"/>
      </g>
     </g>
    </g>
    <g id="xtick_38">
     <g id="line2d_75">
      <path d="M 336.541453 431.758066 
L 336.541453 99.118066 
" clip-path="url(#pf0d66ddb31)" style="fill: none; stroke: #f1f5f9; stroke-linecap: square"/>
     </g>
     <g id="line2d_76">
      <g>
       <use xlink:href="#m9617840de4" x="336.541453" y="431.758066" style="fill: #475569; stroke: #475569; stroke-width: 0.6"/>
      </g>
     </g>
    </g>
    <g id="xtick_39">
     <g id="line2d_77">
      <path d="M 340.744549 431.758066 
L 340.744549 99.118066 
" clip-path="url(#pf0d66ddb31)" style="fill: none; stroke: #f1f5f9; stroke-linecap: square"/>
     </g>
     <g id="line2d_78">
      <g>
       <use xlink:href="#m9617840de4" x="340.744549" y="431.758066" style="fill: #475569; stroke: #475569; stroke-width: 0.6"/>
      </g>
     </g>
    </g>
    <g id="xtick_40">
     <g id="line2d_79">
      <path d="M 344.451942 431.758066 
L 344.451942 99.118066 
" clip-path="url(#pf0d66ddb31)" style="fill: none; stroke: #f1f5f9; stroke-linecap: square"/>
     </g>
     <g id="line2d_80">
      <g>
       <use xlink:href="#m9617840de4" x="344.451942" y="431.758066" style="fill: #475569; stroke: #475569; stroke-width: 0.6"/>
      </g>
     </g>
    </g>
    <g id="xtick_41">
     <g id="line2d_81">
      <path d="M 369.586137 431.758066 
L 369.586137 99.118066 
" clip-path="url(#pf0d66ddb31)" style="fill: none; stroke: #f1f5f9; stroke-linecap: square"/>
     </g>
     <g id="line2d_82">
      <g>
       <use xlink:href="#m9617840de4" x="369.586137" y="431.758066" style="fill: #475569; stroke: #475569; stroke-width: 0.6"/>
      </g>
     </g>
    </g>
    <g id="xtick_42">
     <g id="line2d_83">
      <path d="M 382.348743 431.758066 
L 382.348743 99.118066 
" clip-path="url(#pf0d66ddb31)" style="fill: none; stroke: #f1f5f9; stroke-linecap: square"/>
     </g>
     <g id="line2d_84">
      <g>
       <use xlink:href="#m9617840de4" x="382.348743" y="431.758066" style="fill: #475569; stroke: #475569; stroke-width: 0.6"/>
      </g>
     </g>
    </g>
    <g id="xtick_43">
     <g id="line2d_85">
      <path d="M 391.403957 431.758066 
L 391.403957 99.118066 
" clip-path="url(#pf0d66ddb31)" style="fill: none; stroke: #f1f5f9; stroke-linecap: square"/>
     </g>
     <g id="line2d_86">
      <g>
       <use xlink:href="#m9617840de4" x="391.403957" y="431.758066" style="fill: #475569; stroke: #475569; stroke-width: 0.6"/>
      </g>
     </g>
    </g>
    <g id="xtick_44">
     <g id="line2d_87">
      <path d="M 398.427726 431.758066 
L 398.427726 99.118066 
" clip-path="url(#pf0d66ddb31)" style="fill: none; stroke: #f1f5f9; stroke-linecap: square"/>
     </g>
     <g id="line2d_88">
      <g>
       <use xlink:href="#m9617840de4" x="398.427726" y="431.758066" style="fill: #475569; stroke: #475569; stroke-width: 0.6"/>
      </g>
     </g>
    </g>
    <g id="xtick_45">
     <g id="line2d_89">
      <path d="M 404.166563 431.758066 
L 404.166563 99.118066 
" clip-path="url(#pf0d66ddb31)" style="fill: none; stroke: #f1f5f9; stroke-linecap: square"/>
     </g>
     <g id="line2d_90">
      <g>
       <use xlink:href="#m9617840de4" x="404.166563" y="431.758066" style="fill: #475569; stroke: #475569; stroke-width: 0.6"/>
      </g>
     </g>
    </g>
    <g id="xtick_46">
     <g id="line2d_91">
      <path d="M 409.018681 431.758066 
L 409.018681 99.118066 
" clip-path="url(#pf0d66ddb31)" style="fill: none; stroke: #f1f5f9; stroke-linecap: square"/>
     </g>
     <g id="line2d_92">
      <g>
       <use xlink:href="#m9617840de4" x="409.018681" y="431.758066" style="fill: #475569; stroke: #475569; stroke-width: 0.6"/>
      </g>
     </g>
    </g>
    <g id="xtick_47">
     <g id="line2d_93">
      <path d="M 413.221776 431.758066 
L 413.221776 99.118066 
" clip-path="url(#pf0d66ddb31)" style="fill: none; stroke: #f1f5f9; stroke-linecap: square"/>
     </g>
     <g id="line2d_94">
      <g>
       <use xlink:href="#m9617840de4" x="413.221776" y="431.758066" style="fill: #475569; stroke: #475569; stroke-width: 0.6"/>
      </g>
     </g>
    </g>
    <g id="xtick_48">
     <g id="line2d_95">
      <path d="M 416.929169 431.758066 
L 416.929169 99.118066 
" clip-path="url(#pf0d66ddb31)" style="fill: none; stroke: #f1f5f9; stroke-linecap: square"/>
     </g>
     <g id="line2d_96">
      <g>
       <use xlink:href="#m9617840de4" x="416.929169" y="431.758066" style="fill: #475569; stroke: #475569; stroke-width: 0.6"/>
      </g>
     </g>
    </g>
    <g id="xtick_49">
     <g id="line2d_97">
      <path d="M 442.063365 431.758066 
L 442.063365 99.118066 
" clip-path="url(#pf0d66ddb31)" style="fill: none; stroke: #f1f5f9; stroke-linecap: square"/>
     </g>
     <g id="line2d_98">
      <g>
       <use xlink:href="#m9617840de4" x="442.063365" y="431.758066" style="fill: #475569; stroke: #475569; stroke-width: 0.6"/>
      </g>
     </g>
    </g>
    <g id="xtick_50">
     <g id="line2d_99">
      <path d="M 454.825971 431.758066 
L 454.825971 99.118066 
" clip-path="url(#pf0d66ddb31)" style="fill: none; stroke: #f1f5f9; stroke-linecap: square"/>
     </g>
     <g id="line2d_100">
      <g>
       <use xlink:href="#m9617840de4" x="454.825971" y="431.758066" style="fill: #475569; stroke: #475569; stroke-width: 0.6"/>
      </g>
     </g>
    </g>
    <g id="xtick_51">
     <g id="line2d_101">
      <path d="M 463.881184 431.758066 
L 463.881184 99.118066 
" clip-path="url(#pf0d66ddb31)" style="fill: none; stroke: #f1f5f9; stroke-linecap: square"/>
     </g>
     <g id="line2d_102">
      <g>
       <use xlink:href="#m9617840de4" x="463.881184" y="431.758066" style="fill: #475569; stroke: #475569; stroke-width: 0.6"/>
      </g>
     </g>
    </g>
    <g id="xtick_52">
     <g id="line2d_103">
      <path d="M 470.904953 431.758066 
L 470.904953 99.118066 
" clip-path="url(#pf0d66ddb31)" style="fill: none; stroke: #f1f5f9; stroke-linecap: square"/>
     </g>
     <g id="line2d_104">
      <g>
       <use xlink:href="#m9617840de4" x="470.904953" y="431.758066" style="fill: #475569; stroke: #475569; stroke-width: 0.6"/>
      </g>
     </g>
    </g>
    <g id="xtick_53">
     <g id="line2d_105">
      <path d="M 476.64379 431.758066 
L 476.64379 99.118066 
" clip-path="url(#pf0d66ddb31)" style="fill: none; stroke: #f1f5f9; stroke-linecap: square"/>
     </g>
     <g id="line2d_106">
      <g>
       <use xlink:href="#m9617840de4" x="476.64379" y="431.758066" style="fill: #475569; stroke: #475569; stroke-width: 0.6"/>
      </g>
     </g>
    </g>
    <g id="xtick_54">
     <g id="line2d_107">
      <path d="M 481.495908 431.758066 
L 481.495908 99.118066 
" clip-path="url(#pf0d66ddb31)" style="fill: none; stroke: #f1f5f9; stroke-linecap: square"/>
     </g>
     <g id="line2d_108">
      <g>
       <use xlink:href="#m9617840de4" x="481.495908" y="431.758066" style="fill: #475569; stroke: #475569; stroke-width: 0.6"/>
      </g>
     </g>
    </g>
    <g id="xtick_55">
     <g id="line2d_109">
      <path d="M 485.699004 431.758066 
L 485.699004 99.118066 
" clip-path="url(#pf0d66ddb31)" style="fill: none; stroke: #f1f5f9; stroke-linecap: square"/>
     </g>
     <g id="line2d_110">
      <g>
       <use xlink:href="#m9617840de4" x="485.699004" y="431.758066" style="fill: #475569; stroke: #475569; stroke-width: 0.6"/>
      </g>
     </g>
    </g>
    <g id="xtick_56">
     <g id="line2d_111">
      <path d="M 489.406397 431.758066 
L 489.406397 99.118066 
" clip-path="url(#pf0d66ddb31)" style="fill: none; stroke: #f1f5f9; stroke-linecap: square"/>
     </g>
     <g id="line2d_112">
      <g>
       <use xlink:href="#m9617840de4" x="489.406397" y="431.758066" style="fill: #475569; stroke: #475569; stroke-width: 0.6"/>
      </g>
     </g>
    </g>
    <g id="xtick_57">
     <g id="line2d_113">
      <path d="M 514.540592 431.758066 
L 514.540592 99.118066 
" clip-path="url(#pf0d66ddb31)" style="fill: none; stroke: #f1f5f9; stroke-linecap: square"/>
     </g>
     <g id="line2d_114">
      <g>
       <use xlink:href="#m9617840de4" x="514.540592" y="431.758066" style="fill: #475569; stroke: #475569; stroke-width: 0.6"/>
      </g>
     </g>
    </g>
    <g id="xtick_58">
     <g id="line2d_115">
      <path d="M 527.303198 431.758066 
L 527.303198 99.118066 
" clip-path="url(#pf0d66ddb31)" style="fill: none; stroke: #f1f5f9; stroke-linecap: square"/>
     </g>
     <g id="line2d_116">
      <g>
       <use xlink:href="#m9617840de4" x="527.303198" y="431.758066" style="fill: #475569; stroke: #475569; stroke-width: 0.6"/>
      </g>
     </g>
    </g>
    <g id="xtick_59">
     <g id="line2d_117">
      <path d="M 536.358411 431.758066 
L 536.358411 99.118066 
" clip-path="url(#pf0d66ddb31)" style="fill: none; stroke: #f1f5f9; stroke-linecap: square"/>
     </g>
     <g id="line2d_118">
      <g>
       <use xlink:href="#m9617840de4" x="536.358411" y="431.758066" style="fill: #475569; stroke: #475569; stroke-width: 0.6"/>
      </g>
     </g>
    </g>
    <g id="xtick_60">
     <g id="line2d_119">
      <path d="M 543.382181 431.758066 
L 543.382181 99.118066 
" clip-path="url(#pf0d66ddb31)" style="fill: none; stroke: #f1f5f9; stroke-linecap: square"/>
     </g>
     <g id="line2d_120">
      <g>
       <use xlink:href="#m9617840de4" x="543.382181" y="431.758066" style="fill: #475569; stroke: #475569; stroke-width: 0.6"/>
      </g>
     </g>
    </g>
    <g id="xtick_61">
     <g id="line2d_121">
      <path d="M 549.121018 431.758066 
L 549.121018 99.118066 
" clip-path="url(#pf0d66ddb31)" style="fill: none; stroke: #f1f5f9; stroke-linecap: square"/>
     </g>
     <g id="line2d_122">
      <g>
       <use xlink:href="#m9617840de4" x="549.121018" y="431.758066" style="fill: #475569; stroke: #475569; stroke-width: 0.6"/>
      </g>
     </g>
    </g>
    <g id="xtick_62">
     <g id="line2d_123">
      <path d="M 553.973135 431.758066 
L 553.973135 99.118066 
" clip-path="url(#pf0d66ddb31)" style="fill: none; stroke: #f1f5f9; stroke-linecap: square"/>
     </g>
     <g id="line2d_124">
      <g>
       <use xlink:href="#m9617840de4" x="553.973135" y="431.758066" style="fill: #475569; stroke: #475569; stroke-width: 0.6"/>
      </g>
     </g>
    </g>
    <g id="xtick_63">
     <g id="line2d_125">
      <path d="M 558.176231 431.758066 
L 558.176231 99.118066 
" clip-path="url(#pf0d66ddb31)" style="fill: none; stroke: #f1f5f9; stroke-linecap: square"/>
     </g>
     <g id="line2d_126">
      <g>
       <use xlink:href="#m9617840de4" x="558.176231" y="431.758066" style="fill: #475569; stroke: #475569; stroke-width: 0.6"/>
      </g>
     </g>
    </g>
    <g id="xtick_64">
     <g id="line2d_127">
      <path d="M 561.883624 431.758066 
L 561.883624 99.118066 
" clip-path="url(#pf0d66ddb31)" style="fill: none; stroke: #f1f5f9; stroke-linecap: square"/>
     </g>
     <g id="line2d_128">
      <g>
       <use xlink:href="#m9617840de4" x="561.883624" y="431.758066" style="fill: #475569; stroke: #475569; stroke-width: 0.6"/>
      </g>
     </g>
    </g>
    <g id="xtick_65">
     <g id="line2d_129">
      <path d="M 587.017819 431.758066 
L 587.017819 99.118066 
" clip-path="url(#pf0d66ddb31)" style="fill: none; stroke: #f1f5f9; stroke-linecap: square"/>
     </g>
     <g id="line2d_130">
      <g>
       <use xlink:href="#m9617840de4" x="587.017819" y="431.758066" style="fill: #475569; stroke: #475569; stroke-width: 0.6"/>
      </g>
     </g>
    </g>
    <g id="xtick_66">
     <g id="line2d_131">
      <path d="M 599.780426 431.758066 
L 599.780426 99.118066 
" clip-path="url(#pf0d66ddb31)" style="fill: none; stroke: #f1f5f9; stroke-linecap: square"/>
     </g>
     <g id="line2d_132">
      <g>
       <use xlink:href="#m9617840de4" x="599.780426" y="431.758066" style="fill: #475569; stroke: #475569; stroke-width: 0.6"/>
      </g>
     </g>
    </g>
    <g id="xtick_67">
     <g id="line2d_133">
      <path d="M 608.835639 431.758066 
L 608.835639 99.118066 
" clip-path="url(#pf0d66ddb31)" style="fill: none; stroke: #f1f5f9; stroke-linecap: square"/>
     </g>
     <g id="line2d_134">
      <g>
       <use xlink:href="#m9617840de4" x="608.835639" y="431.758066" style="fill: #475569; stroke: #475569; stroke-width: 0.6"/>
      </g>
     </g>
    </g>
    <g id="xtick_68">
     <g id="line2d_135">
      <path d="M 615.859408 431.758066 
L 615.859408 99.118066 
" clip-path="url(#pf0d66ddb31)" style="fill: none; stroke: #f1f5f9; stroke-linecap: square"/>
     </g>
     <g id="line2d_136">
      <g>
       <use xlink:href="#m9617840de4" x="615.859408" y="431.758066" style="fill: #475569; stroke: #475569; stroke-width: 0.6"/>
      </g>
     </g>
    </g>
    <g id="text_9">
     <!-- Frequency (Hz) -->
     <g style="fill: #1e293b" transform="translate(298.963549 467.065722) scale(0.11 -0.11)">
      <defs>
       <path id="ArialMT-46" d="M 525 0 
L 525 4581 
L 3616 4581 
L 3616 4041 
L 1131 4041 
L 1131 2622 
L 3281 2622 
L 3281 2081 
L 1131 2081 
L 1131 0 
L 525 0 
z
" transform="scale(0.015625)"/>
       <path id="ArialMT-72" d="M 416 0 
L 416 3319 
L 922 3319 
L 922 2816 
Q 1116 3169 1280 3281 
Q 1444 3394 1641 3394 
Q 1925 3394 2219 3213 
L 2025 2691 
Q 1819 2813 1613 2813 
Q 1428 2813 1281 2702 
Q 1134 2591 1072 2394 
Q 978 2094 978 1738 
L 978 0 
L 416 0 
z
" transform="scale(0.015625)"/>
       <path id="ArialMT-65" d="M 2694 1069 
L 3275 997 
Q 3138 488 2766 206 
Q 2394 -75 1816 -75 
Q 1088 -75 661 373 
Q 234 822 234 1631 
Q 234 2469 665 2931 
Q 1097 3394 1784 3394 
Q 2450 3394 2872 2941 
Q 3294 2488 3294 1666 
Q 3294 1616 3291 1516 
L 816 1516 
Q 847 969 1125 678 
Q 1403 388 1819 388 
Q 2128 388 2347 550 
Q 2566 713 2694 1069 
z
M 847 1978 
L 2700 1978 
Q 2663 2397 2488 2606 
Q 2219 2931 1791 2931 
Q 1403 2931 1139 2672 
Q 875 2413 847 1978 
z
" transform="scale(0.015625)"/>
       <path id="ArialMT-71" d="M 2538 -1272 
L 2538 353 
Q 2406 169 2170 47 
Q 1934 -75 1669 -75 
Q 1078 -75 651 397 
Q 225 869 225 1691 
Q 225 2191 398 2587 
Q 572 2984 901 3189 
Q 1231 3394 1625 3394 
Q 2241 3394 2594 2875 
L 2594 3319 
L 3100 3319 
L 3100 -1272 
L 2538 -1272 
z
M 803 1669 
Q 803 1028 1072 708 
Q 1341 388 1716 388 
Q 2075 388 2334 692 
Q 2594 997 2594 1619 
Q 2594 2281 2320 2615 
Q 2047 2950 1678 2950 
Q 1313 2950 1058 2639 
Q 803 2328 803 1669 
z
" transform="scale(0.015625)"/>
       <path id="ArialMT-75" d="M 2597 0 
L 2597 488 
Q 2209 -75 1544 -75 
Q 1250 -75 995 37 
Q 741 150 617 320 
Q 494 491 444 738 
Q 409 903 409 1263 
L 409 3319 
L 972 3319 
L 972 1478 
Q 972 1038 1006 884 
Q 1059 663 1231 536 
Q 1403 409 1656 409 
Q 1909 409 2131 539 
Q 2353 669 2445 892 
Q 2538 1116 2538 1541 
L 2538 3319 
L 3100 3319 
L 3100 0 
L 2597 0 
z
" transform="scale(0.015625)"/>
       <path id="ArialMT-6e" d="M 422 0 
L 422 3319 
L 928 3319 
L 928 2847 
Q 1294 3394 1984 3394 
Q 2284 3394 2536 3286 
Q 2788 3178 2913 3003 
Q 3038 2828 3088 2588 
Q 3119 2431 3119 2041 
L 3119 0 
L 2556 0 
L 2556 2019 
Q 2556 2363 2490 2533 
Q 2425 2703 2258 2804 
Q 2091 2906 1866 2906 
Q 1506 2906 1245 2678 
Q 984 2450 984 1813 
L 984 0 
L 422 0 
z
" transform="scale(0.015625)"/>
       <path id="ArialMT-63" d="M 2588 1216 
L 3141 1144 
Q 3050 572 2676 248 
Q 2303 -75 1759 -75 
Q 1078 -75 664 370 
Q 250 816 250 1647 
Q 250 2184 428 2587 
Q 606 2991 970 3192 
Q 1334 3394 1763 3394 
Q 2303 3394 2647 3120 
Q 2991 2847 3088 2344 
L 2541 2259 
Q 2463 2594 2264 2762 
Q 2066 2931 1784 2931 
Q 1359 2931 1093 2626 
Q 828 2322 828 1663 
Q 828 994 1084 691 
Q 1341 388 1753 388 
Q 2084 388 2306 591 
Q 2528 794 2588 1216 
z
" transform="scale(0.015625)"/>
       <path id="ArialMT-79" d="M 397 -1278 
L 334 -750 
Q 519 -800 656 -800 
Q 844 -800 956 -737 
Q 1069 -675 1141 -563 
Q 1194 -478 1313 -144 
Q 1328 -97 1363 -6 
L 103 3319 
L 709 3319 
L 1400 1397 
Q 1534 1031 1641 628 
Q 1738 1016 1872 1384 
L 2581 3319 
L 3144 3319 
L 1881 -56 
Q 1678 -603 1566 -809 
Q 1416 -1088 1222 -1217 
Q 1028 -1347 759 -1347 
Q 597 -1347 397 -1278 
z
" transform="scale(0.015625)"/>
       <path id="ArialMT-20" transform="scale(0.015625)"/>
       <path id="ArialMT-28" d="M 1497 -1347 
Q 1031 -759 709 28 
Q 388 816 388 1659 
Q 388 2403 628 3084 
Q 909 3875 1497 4659 
L 1900 4659 
Q 1522 4009 1400 3731 
Q 1209 3300 1100 2831 
Q 966 2247 966 1656 
Q 966 153 1900 -1347 
L 1497 -1347 
z
" transform="scale(0.015625)"/>
       <path id="ArialMT-48" d="M 513 0 
L 513 4581 
L 1119 4581 
L 1119 2700 
L 3500 2700 
L 3500 4581 
L 4106 4581 
L 4106 0 
L 3500 0 
L 3500 2159 
L 1119 2159 
L 1119 0 
L 513 0 
z
" transform="scale(0.015625)"/>
       <path id="ArialMT-7a" d="M 125 0 
L 125 456 
L 2238 2881 
Q 1878 2863 1603 2863 
L 250 2863 
L 250 3319 
L 2963 3319 
L 2963 2947 
L 1166 841 
L 819 456 
Q 1197 484 1528 484 
L 3063 484 
L 3063 0 
L 125 0 
z
" transform="scale(0.015625)"/>
       <path id="ArialMT-29" d="M 791 -1347 
L 388 -1347 
Q 1322 153 1322 1656 
Q 1322 2244 1188 2822 
Q 1081 3291 891 3722 
Q 769 4003 388 4659 
L 791 4659 
Q 1378 3875 1659 3084 
Q 1900 2403 1900 1659 
Q 1900 816 1576 28 
Q 1253 -759 791 -1347 
z
" transform="scale(0.015625)"/>
      </defs>
      <use xlink:href="#ArialMT-46"/>
      <use xlink:href="#ArialMT-72" transform="translate(61.083984 0)"/>
      <use xlink:href="#ArialMT-65" transform="translate(94.384766 0)"/>
      <use xlink:href="#ArialMT-71" transform="translate(150 0)"/>
      <use xlink:href="#ArialMT-75" transform="translate(205.615234 0)"/>
      <use xlink:href="#ArialMT-65" transform="translate(261.230469 0)"/>
      <use xlink:href="#ArialMT-6e" transform="translate(316.845703 0)"/>
      <use xlink:href="#ArialMT-63" transform="translate(372.460938 0)"/>
      <use xlink:href="#ArialMT-79" transform="translate(422.460938 0)"/>
      <use xlink:href="#ArialMT-20" transform="translate(472.460938 0)"/>
      <use xlink:href="#ArialMT-28" transform="translate(500.244141 0)"/>
      <use xlink:href="#ArialMT-48" transform="translate(533.544922 0)"/>
      <use xlink:href="#ArialMT-7a" transform="translate(605.761719 0)"/>
      <use xlink:href="#ArialMT-29" transform="translate(655.761719 0)"/>
     </g>
    </g>
   </g>
   <g id="matplotlib.axis_2">
    <g id="ytick_1">
     <g id="line2d_137">
      <path d="M 57.859408 431.758066 
L 615.859408 431.758066 
" clip-path="url(#pf0d66ddb31)" style="fill: none; stroke: #f1f5f9; stroke-linecap: square"/>
     </g>
     <g id="line2d_138">
      <defs>
       <path id="mba41b56f20" d="M 0 0 
L -3.5 0 
" style="stroke: #475569; stroke-width: 0.8"/>
      </defs>
      <g>
       <use xlink:href="#mba41b56f20" x="57.859408" y="431.758066" style="fill: #475569; stroke: #475569; stroke-width: 0.8"/>
      </g>
     </g>
     <g id="text_10">
      <!-- 0 -->
      <g style="fill: #475569" transform="translate(45.29847 435.336972) scale(0.1 -0.1)">
       <use xlink:href="#ArialMT-30"/>
      </g>
     </g>
    </g>
    <g id="ytick_2">
     <g id="line2d_139">
      <path d="M 57.859408 390.178066 
L 615.859408 390.178066 
" clip-path="url(#pf0d66ddb31)" style="fill: none; stroke: #f1f5f9; stroke-linecap: square"/>
     </g>
     <g id="line2d_140">
      <g>
       <use xlink:href="#mba41b56f20" x="57.859408" y="390.178066" style="fill: #475569; stroke: #475569; stroke-width: 0.8"/>
      </g>
     </g>
     <g id="text_11">
      <!-- 20 -->
      <g style="fill: #475569" transform="translate(39.737533 393.756972) scale(0.1 -0.1)">
       <use xlink:href="#ArialMT-32"/>
       <use xlink:href="#ArialMT-30" transform="translate(55.615234 0)"/>
      </g>
     </g>
    </g>
    <g id="ytick_3">
     <g id="line2d_141">
      <path d="M 57.859408 348.598066 
L 615.859408 348.598066 
" clip-path="url(#pf0d66ddb31)" style="fill: none; stroke: #f1f5f9; stroke-linecap: square"/>
     </g>
     <g id="line2d_142">
      <g>
       <use xlink:href="#mba41b56f20" x="57.859408" y="348.598066" style="fill: #475569; stroke: #475569; stroke-width: 0.8"/>
      </g>
     </g>
     <g id="text_12">
      <!-- 40 -->
      <g style="fill: #475569" transform="translate(39.737533 352.176972) scale(0.1 -0.1)">
       <use xlink:href="#ArialMT-34"/>
       <use xlink:href="#ArialMT-30" transform="translate(55.615234 0)"/>
      </g>
     </g>
    </g>
    <g id="ytick_4">
     <g id="line2d_143">
      <path d="M 57.859408 307.018066 
L 615.859408 307.018066 
" clip-path="url(#pf0d66ddb31)" style="fill: none; stroke: #f1f5f9; stroke-linecap: square"/>
     </g>
     <g id="line2d_144">
      <g>
       <use xlink:href="#mba41b56f20" x="57.859408" y="307.018066" style="fill: #475569; stroke: #475569; stroke-width: 0.8"/>
      </g>
     </g>
     <g id="text_13">
      <!-- 60 -->
      <g style="fill: #475569" transform="translate(39.737533 310.596972) scale(0.1 -0.1)">
       <use xlink:href="#ArialMT-36"/>
       <use xlink:href="#ArialMT-30" transform="translate(55.615234 0)"/>
      </g>
     </g>
    </g>
    <g id="ytick_5">
     <g id="line2d_145">
      <path d="M 57.859408 265.438066 
L 615.859408 265.438066 
" clip-path="url(#pf0d66ddb31)" style="fill: none; stroke: #f1f5f9; stroke-linecap: square"/>
     </g>
     <g id="line2d_146">
      <g>
       <use xlink:href="#mba41b56f20" x="57.859408" y="265.438066" style="fill: #475569; stroke: #475569; stroke-width: 0.8"/>
      </g>
     </g>
     <g id="text_14">
      <!-- 80 -->
      <g style="fill: #475569" transform="translate(39.737533 269.016972) scale(0.1 -0.1)">
       <use xlink:href="#ArialMT-38"/>
       <use xlink:href="#ArialMT-30" transform="translate(55.615234 0)"/>
      </g>
     </g>
    </g>
    <g id="ytick_6">
     <g id="line2d_147">
      <path d="M 57.859408 223.858066 
L 615.859408 223.858066 
" clip-path="url(#pf0d66ddb31)" style="fill: none; stroke: #f1f5f9; stroke-linecap: square"/>
     </g>
     <g id="line2d_148">
      <g>
       <use xlink:href="#mba41b56f20" x="57.859408" y="223.858066" style="fill: #475569; stroke: #475569; stroke-width: 0.8"/>
      </g>
     </g>
     <g id="text_15">
      <!-- 100 -->
      <g style="fill: #475569" transform="translate(34.176595 227.436972) scale(0.1 -0.1)">
       <use xlink:href="#ArialMT-31"/>
       <use xlink:href="#ArialMT-30" transform="translate(55.615234 0)"/>
       <use xlink:href="#ArialMT-30" transform="translate(111.230469 0)"/>
      </g>
     </g>
    </g>
    <g id="ytick_7">
     <g id="line2d_149">
      <path d="M 57.859408 182.278066 
L 615.859408 182.278066 
" clip-path="url(#pf0d66ddb31)" style="fill: none; stroke: #f1f5f9; stroke-linecap: square"/>
     </g>
     <g id="line2d_150">
      <g>
       <use xlink:href="#mba41b56f20" x="57.859408" y="182.278066" style="fill: #475569; stroke: #475569; stroke-width: 0.8"/>
      </g>
     </g>
     <g id="text_16">
      <!-- 120 -->
      <g style="fill: #475569" transform="translate(34.176595 185.856972) scale(0.1 -0.1)">
       <use xlink:href="#ArialMT-31"/>
       <use xlink:href="#ArialMT-32" transform="translate(55.615234 0)"/>
       <use xlink:href="#ArialMT-30" transform="translate(111.230469 0)"/>
      </g>
     </g>
    </g>
    <g id="ytick_8">
     <g id="line2d_151">
      <path d="M 57.859408 140.698066 
L 615.859408 140.698066 
" clip-path="url(#pf0d66ddb31)" style="fill: none; stroke: #f1f5f9; stroke-linecap: square"/>
     </g>
     <g id="line2d_152">
      <g>
       <use xlink:href="#mba41b56f20" x="57.859408" y="140.698066" style="fill: #475569; stroke: #475569; stroke-width: 0.8"/>
      </g>
     </g>
     <g id="text_17">
      <!-- 140 -->
      <g style="fill: #475569" transform="translate(34.176595 144.276972) scale(0.1 -0.1)">
       <use xlink:href="#ArialMT-31"/>
       <use xlink:href="#ArialMT-34" transform="translate(55.615234 0)"/>
       <use xlink:href="#ArialMT-30" transform="translate(111.230469 0)"/>
      </g>
     </g>
    </g>
    <g id="ytick_9">
     <g id="line2d_153">
      <path d="M 57.859408 99.118066 
L 615.859408 99.118066 
" clip-path="url(#pf0d66ddb31)" style="fill: none; stroke: #f1f5f9; stroke-linecap: square"/>
     </g>
     <g id="line2d_154">
      <g>
       <use xlink:href="#mba41b56f20" x="57.859408" y="99.118066" style="fill: #475569; stroke: #475569; stroke-width: 0.8"/>
      </g>
     </g>
     <g id="text_18">
      <!-- 160 -->
      <g style="fill: #475569" transform="translate(34.176595 102.696972) scale(0.1 -0.1)">
       <use xlink:href="#ArialMT-31"/>
       <use xlink:href="#ArialMT-36" transform="translate(55.615234 0)"/>
       <use xlink:href="#ArialMT-30" transform="translate(111.230469 0)"/>
      </g>
     </g>
    </g>
    <g id="text_19">
     <!-- CMRR (dB) -->
     <g style="fill: #1e293b" transform="translate(23.861439 293.8533) rotate(-90) scale(0.11 -0.11)">
      <defs>
       <path id="ArialMT-43" d="M 3763 1606 
L 4369 1453 
Q 4178 706 3683 314 
Q 3188 -78 2472 -78 
Q 1731 -78 1267 223 
Q 803 525 561 1097 
Q 319 1669 319 2325 
Q 319 3041 592 3573 
Q 866 4106 1370 4382 
Q 1875 4659 2481 4659 
Q 3169 4659 3637 4309 
Q 4106 3959 4291 3325 
L 3694 3184 
Q 3534 3684 3231 3912 
Q 2928 4141 2469 4141 
Q 1941 4141 1586 3887 
Q 1231 3634 1087 3207 
Q 944 2781 944 2328 
Q 944 1744 1114 1308 
Q 1284 872 1643 656 
Q 2003 441 2422 441 
Q 2931 441 3284 734 
Q 3638 1028 3763 1606 
z
" transform="scale(0.015625)"/>
       <path id="ArialMT-4d" d="M 475 0 
L 475 4581 
L 1388 4581 
L 2472 1338 
Q 2622 884 2691 659 
Q 2769 909 2934 1394 
L 4031 4581 
L 4847 4581 
L 4847 0 
L 4263 0 
L 4263 3834 
L 2931 0 
L 2384 0 
L 1059 3900 
L 1059 0 
L 475 0 
z
" transform="scale(0.015625)"/>
       <path id="ArialMT-52" d="M 503 0 
L 503 4581 
L 2534 4581 
Q 3147 4581 3465 4457 
Q 3784 4334 3975 4021 
Q 4166 3709 4166 3331 
Q 4166 2844 3850 2509 
Q 3534 2175 2875 2084 
Q 3116 1969 3241 1856 
Q 3506 1613 3744 1247 
L 4541 0 
L 3778 0 
L 3172 953 
Q 2906 1366 2734 1584 
Q 2563 1803 2427 1890 
Q 2291 1978 2150 2013 
Q 2047 2034 1813 2034 
L 1109 2034 
L 1109 0 
L 503 0 
z
M 1109 2559 
L 2413 2559 
Q 2828 2559 3062 2645 
Q 3297 2731 3419 2920 
Q 3541 3109 3541 3331 
Q 3541 3656 3305 3865 
Q 3069 4075 2559 4075 
L 1109 4075 
L 1109 2559 
z
" transform="scale(0.015625)"/>
       <path id="ArialMT-64" d="M 2575 0 
L 2575 419 
Q 2259 -75 1647 -75 
Q 1250 -75 917 144 
Q 584 363 401 755 
Q 219 1147 219 1656 
Q 219 2153 384 2558 
Q 550 2963 881 3178 
Q 1213 3394 1622 3394 
Q 1922 3394 2156 3267 
Q 2391 3141 2538 2938 
L 2538 4581 
L 3097 4581 
L 3097 0 
L 2575 0 
z
M 797 1656 
Q 797 1019 1065 703 
Q 1334 388 1700 388 
Q 2069 388 2326 689 
Q 2584 991 2584 1609 
Q 2584 2291 2321 2609 
Q 2059 2928 1675 2928 
Q 1300 2928 1048 2622 
Q 797 2316 797 1656 
z
" transform="scale(0.015625)"/>
       <path id="ArialMT-42" d="M 469 0 
L 469 4581 
L 2188 4581 
Q 2713 4581 3030 4442 
Q 3347 4303 3526 4014 
Q 3706 3725 3706 3409 
Q 3706 3116 3547 2856 
Q 3388 2597 3066 2438 
Q 3481 2316 3704 2022 
Q 3928 1728 3928 1328 
Q 3928 1006 3792 729 
Q 3656 453 3456 303 
Q 3256 153 2954 76 
Q 2653 0 2216 0 
L 469 0 
z
M 1075 2656 
L 2066 2656 
Q 2469 2656 2644 2709 
Q 2875 2778 2992 2937 
Q 3109 3097 3109 3338 
Q 3109 3566 3000 3739 
Q 2891 3913 2687 3977 
Q 2484 4041 1991 4041 
L 1075 4041 
L 1075 2656 
z
M 1075 541 
L 2216 541 
Q 2509 541 2628 563 
Q 2838 600 2978 687 
Q 3119 775 3209 942 
Q 3300 1109 3300 1328 
Q 3300 1584 3169 1773 
Q 3038 1963 2805 2039 
Q 2572 2116 2134 2116 
L 1075 2116 
L 1075 541 
z
" transform="scale(0.015625)"/>
      </defs>
      <use xlink:href="#ArialMT-43"/>
      <use xlink:href="#ArialMT-4d" transform="translate(72.216797 0)"/>
      <use xlink:href="#ArialMT-52" transform="translate(155.517578 0)"/>
      <use xlink:href="#ArialMT-52" transform="translate(227.734375 0)"/>
      <use xlink:href="#ArialMT-20" transform="translate(299.951172 0)"/>
      <use xlink:href="#ArialMT-28" transform="translate(327.734375 0)"/>
      <use xlink:href="#ArialMT-64" transform="translate(361.035156 0)"/>
      <use xlink:href="#ArialMT-42" transform="translate(416.650391 0)"/>
      <use xlink:href="#ArialMT-29" transform="translate(483.349609 0)"/>
     </g>
    </g>
   </g>
   <g id="line2d_155">
    <path d="M -0.468402 -1 
L -0.107411 31.801712 
L 0.618109 32.432682 
L 1.013172 -1 
M 3.067919 -1 
L 3.520191 43.038913 
L 3.92879 -1 
M 4.619006 -1 
L 4.971231 31.229775 
L 5.696752 45.341218 
L 6.173753 -1 
M 7.449431 -1 
L 7.873313 43.026761 
L 8.598833 31.848814 
L 9.040273 -1 
M 9.605425 -1 
L 10.049874 32.426923 
L 10.775394 30.573069 
L 11.156506 -1 
M 11.85148 -1 
L 12.226435 29.517675 
L 12.951956 32.249553 
L 13.677476 32.380857 
L 14.402997 30.50909 
L 14.924972 -1 
M 15.332137 -1 
L 15.854037 30.49299 
L 16.184025 -1 
M 16.962992 -1 
L 17.305078 32.677647 
L 18.030599 43.651542 
L 18.756119 32.203959 
L 19.481639 31.06932 
L 20.20716 31.942074 
L 20.93268 28.943378 
L 21.658201 43.542619 
L 22.383721 33.616074 
L 23.109241 30.306726 
L 23.483171 -1 
M 25.471477 -1 
L 26.011323 44.786753 
L 26.736843 31.399484 
L 27.462364 34.660855 
L 28.187884 3.905426 
L 28.913405 28.930835 
L 29.638925 30.362975 
L 30.364445 42.328597 
L 31.089966 45.359632 
L 31.815486 29.943562 
L 32.541006 26.110335 
L 33.266527 34.816187 
L 33.992047 25.819171 
L 34.717568 10.046715 
L 35.443088 36.992137 
L 36.168609 11.814643 
L 36.894129 26.554896 
L 37.619649 36.269595 
L 38.34517 8.383592 
L 39.07069 39.924826 
L 39.796211 23.214113 
L 40.521731 14.789858 
L 41.247251 38.729624 
L 41.972772 23.616826 
L 42.698292 23.398392 
L 44.149333 19.04302 
L 44.874853 39.360033 
L 45.600374 17.066303 
L 46.325894 19.704435 
L 47.051415 19.227785 
L 47.776935 13.586289 
L 48.502455 11.762736 
L 49.227976 11.161602 
L 49.953496 11.481564 
L 50.679017 41.977278 
L 51.404537 26.691838 
L 52.130057 8.0368 
L 52.855578 33.510983 
L 53.581098 29.401145 
L 53.979986 -1 
M 54.566159 -1 
L 55.032139 43.695191 
L 55.757659 30.380302 
L 56.431056 -1 
M 56.522543 -1 
L 57.2087 41.34038 
L 58.659741 11.190924 
L 59.385261 36.133317 
L 60.110782 39.375455 
L 60.836302 21.442456 
L 61.561823 19.856497 
L 62.287343 36.156986 
L 63.012863 46.000058 
L 63.738384 33.657186 
L 64.290916 -1 
M 64.644937 -1 
L 65.189424 31.634839 
L 65.836586 -1 
M 66.718815 -1 
L 67.365986 23.7963 
L 68.091506 37.836257 
L 68.817027 20.284347 
L 69.542547 12.72466 
L 70.268067 28.607834 
L 70.993588 31.619051 
L 71.719108 50.720312 
L 72.444628 25.553113 
L 73.170149 21.936433 
L 73.895669 15.866347 
L 74.62119 35.787184 
L 75.34671 27.774259 
L 76.07223 46.080295 
L 76.797751 36.546429 
L 77.523271 16.147096 
L 78.248792 41.522106 
L 78.974312 32.252996 
L 79.699832 -0.625258 
L 80.425353 21.080303 
L 81.150873 13.842884 
L 81.876394 30.065878 
L 82.601914 24.516511 
L 83.327435 15.091119 
L 83.801986 -1 
M 84.547999 -1 
L 84.778475 2.961911 
L 85.503996 47.297536 
L 85.963538 -1 
M 86.538247 -1 
L 86.955037 36.738173 
L 88.406077 43.468906 
L 89.131598 37.518968 
L 89.630182 -1 
M 90.181873 -1 
L 90.582639 20.635933 
L 91.308159 50.421173 
L 92.033679 38.71274 
L 92.7592 32.253119 
L 93.48472 21.429529 
L 94.210241 26.790309 
L 94.935761 29.073615 
L 95.661281 22.484989 
L 96.046579 -1 
M 96.622022 -1 
L 97.112322 42.226115 
L 97.837842 23.947427 
L 98.563363 12.304661 
L 99.258294 -1 
M 100.181841 -1 
L 100.739924 33.117711 
L 101.465444 43.431742 
L 102.190965 44.682269 
L 102.620909 -1 
M 103.189999 -1 
L 103.642006 50.900511 
L 105.093047 20.584484 
L 105.818567 12.239141 
L 106.544087 30.686455 
L 107.269608 23.296908 
L 107.995128 3.715518 
L 108.720648 45.676427 
L 109.446169 34.445639 
L 110.89721 41.662644 
L 111.541328 -1 
M 111.700834 -1 
L 112.348251 43.691966 
L 113.073771 34.466786 
L 113.799291 32.562137 
L 114.457078 -1 
M 114.584399 -1 
L 115.250332 37.622764 
L 115.975853 33.283787 
L 116.701373 36.093028 
L 117.426893 30.643378 
L 118.152414 40.652508 
L 118.877934 38.83768 
L 119.603454 21.301957 
L 120.328975 37.652373 
L 120.781204 -1 
M 121.484905 -1 
L 121.780016 15.015731 
L 122.505536 31.107968 
L 123.231056 34.425578 
L 123.956577 3.651083 
L 124.682097 33.805997 
L 125.407618 23.993167 
L 126.133138 8.45655 
L 126.858659 39.391941 
L 127.584179 38.42562 
L 128.309699 24.024198 
L 129.03522 33.915296 
L 129.76074 30.810596 
L 130.48626 29.893044 
L 131.937301 28.418954 
L 132.662822 7.341541 
L 133.388342 34.426637 
L 134.113862 16.304075 
L 134.839383 24.775087 
L 135.564903 19.454146 
L 136.290424 6.951521 
L 137.015944 25.584762 
L 137.741465 14.032595 
L 138.466985 35.869575 
L 139.192505 34.17356 
L 139.879292 -1 
M 139.952738 -1 
L 140.643546 38.477876 
L 141.369067 23.225323 
L 142.094587 30.572713 
L 142.743676 -1 
M 142.889562 -1 
L 143.545628 34.117406 
L 144.271148 26.861409 
L 144.996668 -0.07052 
L 145.722189 29.404839 
L 146.447709 15.550398 
L 147.17323 42.422007 
L 147.89875 32.300034 
L 148.624271 29.827261 
L 150.075311 37.589827 
L 150.800832 39.11526 
L 151.526352 12.212054 
L 152.251872 34.399942 
L 152.977393 36.700372 
L 153.702913 22.634954 
L 154.401801 -1 
M 154.461977 -1 
L 155.153954 17.580622 
L 155.879475 13.743312 
L 156.604995 29.92304 
L 157.330515 2.123767 
L 158.056036 9.473585 
L 158.781556 27.221976 
L 159.507077 36.944844 
L 160.232597 39.912221 
L 161.683638 22.228834 
L 162.409158 31.836589 
L 163.134679 11.53682 
L 163.860199 13.069117 
L 164.585719 30.415998 
L 165.31124 13.464857 
L 166.03676 43.548679 
L 166.76228 43.775619 
L 167.487801 31.969762 
L 168.109187 -1 
M 169.991616 -1 
L 170.389882 24.472204 
L 171.115403 29.448213 
L 171.840923 28.929821 
L 172.566444 23.307311 
L 173.291964 38.135828 
L 174.017484 27.916261 
L 174.743005 37.621278 
L 175.468525 30.929532 
L 176.194046 21.217542 
L 176.919566 44.514876 
L 177.645086 29.213981 
L 178.370607 22.097524 
L 179.096127 29.644435 
L 179.821648 19.709697 
L 180.547168 28.481931 
L 181.272688 34.761611 
L 181.998209 32.282262 
L 182.723729 20.791816 
L 183.04317 -1 
M 183.7445 -1 
L 184.17477 39.370438 
L 184.90029 3.894524 
L 185.625811 45.909007 
L 186.351331 12.343702 
L 187.076852 3.131277 
L 187.802372 20.381574 
L 188.527893 -0.061836 
L 189.253413 21.163288 
L 189.978933 32.810992 
L 190.572283 -1 
M 190.808199 -1 
L 191.429974 44.138594 
L 192.155494 16.028381 
L 192.881015 3.775873 
L 193.001095 -1 
M 194.893795 -1 
L 195.057576 6.18349 
L 195.783096 25.143153 
L 196.277706 -1 
M 196.693047 -1 
L 197.234137 34.807936 
L 197.959658 41.962172 
L 198.685178 34.083651 
L 199.410698 34.194685 
L 200.136219 39.267769 
L 200.861739 22.256599 
L 201.58726 36.375005 
L 202.31278 37.634877 
L 203.0383 40.013822 
L 203.763821 27.282866 
L 204.489341 32.271535 
L 205.214862 34.918071 
L 205.940382 33.846791 
L 206.665902 45.054525 
L 207.391423 27.687801 
L 208.116943 43.845862 
L 208.842464 22.504087 
L 209.567984 28.26272 
L 210.293504 26.807112 
L 211.019025 34.577162 
L 211.744545 36.54667 
L 212.470066 41.063091 
L 212.88663 -1 
M 213.988216 -1 
L 214.646627 35.771142 
L 215.372147 27.757414 
L 216.097668 43.149846 
L 216.823188 41.41328 
L 217.548708 16.592696 
L 218.274229 29.986595 
L 218.999749 22.47606 
L 219.419151 -1 
M 220.106802 -1 
L 220.45079 14.448868 
L 221.176311 34.063491 
L 221.901831 28.685578 
L 222.545149 -1 
M 222.699412 -1 
L 223.352872 33.397167 
L 224.078392 27.797483 
L 224.803912 24.646384 
L 225.529433 34.163042 
L 226.254953 46.100414 
L 226.980474 44.954466 
L 227.705994 9.933775 
L 228.431514 41.325243 
L 229.157035 15.721201 
L 229.882555 40.998962 
L 230.608076 24.226966 
L 231.333596 23.516483 
L 232.059117 14.198509 
L 232.784637 15.809609 
L 233.510157 29.725164 
L 234.235678 27.082707 
L 234.961198 4.126213 
L 235.686718 31.547121 
L 236.412239 44.377322 
L 237.137759 43.921917 
L 238.5888 1.445192 
L 239.31432 18.804724 
L 240.039841 28.136953 
L 240.765361 35.575857 
L 241.490882 11.726467 
L 242.216402 36.597768 
L 243.667443 0.834764 
L 244.392963 42.900325 
L 245.118484 44.13811 
L 245.844004 29.4206 
L 246.569524 33.473141 
L 247.295045 46.301611 
L 248.020565 42.707111 
L 248.746086 3.063098 
L 249.471606 42.183751 
L 250.197126 15.036645 
L 250.922647 49.867266 
L 251.648167 3.413008 
L 252.373688 34.325052 
L 253.099208 25.733684 
L 253.761372 -1 
M 254.979557 -1 
L 255.275769 22.377729 
L 256.00129 16.852381 
L 257.45233 41.035414 
L 258.177851 44.530778 
L 258.770114 -1 
M 259.07694 -1 
L 259.628892 31.576806 
L 260.354412 13.698237 
L 261.079932 30.342432 
L 261.369508 -1 
M 262.294261 -1 
L 262.530973 21.849964 
L 263.256494 11.116864 
L 263.982014 13.034889 
L 264.707534 21.18938 
L 265.433055 32.150969 
L 266.158575 40.632551 
L 266.884096 10.456088 
L 267.609616 21.605229 
L 268.335136 19.11148 
L 269.060657 24.924247 
L 269.786177 20.787442 
L 270.511698 32.886634 
L 271.129354 -1 
M 271.37698 -1 
L 271.962738 23.801979 
L 272.688259 15.402785 
L 273.413779 29.917111 
L 274.1393 31.886375 
L 274.86482 2.621807 
L 275.590341 41.048664 
L 276.315861 45.816305 
L 277.041381 11.195819 
L 277.766902 33.708574 
L 278.492422 32.94773 
L 279.217943 35.985949 
L 279.728921 -1 
M 280.715498 -1 
L 281.394504 9.997846 
L 282.120024 30.485467 
L 282.845544 9.730038 
L 283.571065 20.343893 
L 284.296585 28.491568 
L 285.022106 4.965973 
L 285.747626 14.858041 
L 286.473146 45.768284 
L 287.198667 24.585649 
L 287.61792 -1 
M 288.148469 -1 
L 288.649708 40.770429 
L 289.375228 16.841946 
L 290.100749 24.594062 
L 290.826269 8.025283 
L 291.551789 45.27202 
L 292.27731 34.064688 
L 293.00283 29.218777 
L 293.293573 -1 
M 294.114748 -1 
L 294.453871 38.660409 
L 295.179391 33.737722 
L 295.904912 18.251729 
L 296.630432 41.213236 
L 297.355952 42.576093 
L 298.887281 -1 
M 300.481378 -1 
L 300.983555 30.823553 
L 301.709075 32.615545 
L 302.434595 33.987008 
L 303.160116 39.417827 
L 303.885636 37.563146 
L 304.611156 3.461645 
L 305.336677 30.695164 
L 306.062197 17.190446 
L 306.787718 33.414788 
L 307.513238 37.258026 
L 308.238758 2.790902 
L 308.964279 36.547727 
L 309.689799 46.601827 
L 310.41532 7.240307 
L 311.14084 42.876982 
L 311.86636 46.021862 
L 312.591881 9.345185 
L 313.317401 33.885012 
L 314.042922 25.573277 
L 314.768442 9.119525 
L 315.341866 -1 
M 315.672014 -1 
L 316.219483 7.253109 
L 316.945003 29.87918 
L 317.670524 40.975778 
L 318.396044 26.816927 
L 319.10442 -1 
M 319.133097 -1 
L 319.847085 40.681445 
L 320.572605 32.805768 
L 321.298126 23.700555 
L 322.023646 41.061207 
L 322.749166 -0.78047 
L 323.474687 52.186305 
L 324.200207 12.356736 
L 324.925728 1.784376 
L 325.651248 33.207885 
L 326.376768 33.214137 
L 327.102289 7.494708 
L 327.827809 22.782723 
L 328.55333 23.475602 
L 330.00437 5.845843 
L 330.729891 11.189107 
L 331.1954 -1 
M 331.603697 -1 
L 332.180932 25.50246 
L 332.906452 25.75764 
L 333.631972 17.980017 
L 334.357493 32.994946 
L 335.028726 -1 
M 335.127684 -1 
L 335.808534 40.905242 
L 336.534054 39.655166 
L 337.259574 16.823583 
L 337.985095 14.886061 
L 338.710615 29.244438 
L 339.436136 14.135611 
L 340.161656 43.763648 
L 340.887176 29.638482 
L 341.612697 39.783968 
L 342.338217 37.138926 
L 343.063738 23.422736 
L 343.789258 37.761655 
L 344.514778 32.655489 
L 345.240299 31.484639 
L 345.965819 20.794266 
L 346.69134 48.750835 
L 347.41686 30.482724 
L 348.14238 34.797572 
L 348.867901 11.270467 
L 349.593421 39.055392 
L 350.318942 26.450582 
L 351.044462 53.242908 
L 351.769982 25.493349 
L 352.495503 15.327153 
L 353.221023 26.994638 
L 353.946544 45.514011 
L 354.672064 47.775396 
L 355.397584 40.12996 
L 356.123105 48.952511 
L 357.574146 38.112618 
L 358.299666 36.859984 
L 359.025186 41.169559 
L 359.750707 41.085956 
L 360.476227 30.535444 
L 361.201748 32.833426 
L 361.927268 45.947708 
L 362.652788 35.484069 
L 363.378309 31.626872 
L 364.103829 37.335612 
L 364.82935 39.112246 
L 365.55487 44.863982 
L 366.28039 44.819051 
L 367.005911 24.615869 
L 367.731431 23.272323 
L 368.456952 51.247047 
L 369.182472 38.124071 
L 369.907992 27.169949 
L 370.633513 19.313722 
L 371.359033 50.31072 
L 372.084554 42.496563 
L 372.810074 8.927724 
L 373.535594 44.034723 
L 374.261115 31.916469 
L 374.986635 39.260153 
L 375.712156 39.612018 
L 376.437676 20.60112 
L 377.163196 9.531333 
L 377.888717 17.709563 
L 378.614237 17.02115 
L 379.339758 35.013374 
L 380.065278 23.688033 
L 380.790798 23.92534 
L 381.516319 24.657251 
L 382.241839 40.096918 
L 382.96736 19.344661 
L 383.69288 11.057507 
L 384.4184 27.752125 
L 385.143921 31.792843 
L 385.869441 23.081705 
L 386.364708 -1 
M 386.872639 -1 
L 387.320482 17.056826 
L 388.046002 15.581751 
L 388.771523 19.87728 
L 389.497043 18.078614 
L 390.222564 4.269677 
L 390.948084 20.00003 
L 391.673604 29.253568 
L 392.399125 35.302769 
L 393.124645 25.112861 
L 393.850166 22.289874 
L 394.575686 16.088437 
L 395.301206 24.199297 
L 396.026727 12.519214 
L 396.752247 15.001899 
L 397.477768 12.714351 
L 398.203288 24.146719 
L 398.928808 10.304722 
L 399.654329 27.198772 
L 400.379849 2.323007 
L 401.10537 2.650599 
L 401.710912 -1 
M 401.855526 -1 
L 402.55641 19.577534 
L 403.281931 9.813951 
L 404.007451 11.449107 
L 404.732972 15.565165 
L 405.458492 1.787826 
L 406.184012 20.420351 
L 406.909533 14.325148 
L 407.355266 -1 
M 407.878522 -1 
L 408.360574 18.046174 
L 409.086094 6.814148 
L 409.477358 -1 
M 410.016615 -1 
L 410.537135 15.950111 
L 411.262655 6.611498 
L 411.988176 2.279252 
L 412.221478 -1 
M 413.618303 -1 
L 414.164737 20.551028 
L 414.471787 -1 
M 415.396793 -1 
L 415.615778 11.697805 
L 416.058829 -1 
M 420.640886 -1 
L 420.69442 -0.436214 
L 420.715664 -1 
M 423.927246 -1 
L 424.322022 6.382378 
L 425.047543 2.010381 
L 425.159108 -1 
M 428.657946 -1 
L 428.675145 -0.573125 
L 429.400665 6.364629 
L 430.126186 -0.340062 
L 430.851706 3.210052 
L 431.040536 -1 
M 432.192504 -1 
L 432.302747 1.143977 
L 433.028267 3.28284 
L 433.172948 -1 
M 456.299177 -1 
L 456.97044 4.952505 
L 457.261643 -1 
M 458.375889 -1 
L 458.421481 -0.404697 
L 459.147002 7.471283 
L 459.872522 12.782891 
L 460.598042 6.832767 
L 461.323563 12.903091 
L 462.774604 22.352894 
L 463.500124 23.17646 
L 464.951165 30.420483 
L 466.402206 33.327759 
L 467.853246 39.223398 
L 468.578767 39.759886 
L 469.304287 42.5587 
L 470.029808 41.788129 
L 470.755328 46.249647 
L 471.480848 46.165603 
L 472.206369 50.136863 
L 472.931889 51.117208 
L 473.65741 54.599369 
L 474.38293 56.176698 
L 475.10845 57.166856 
L 475.833971 60.270934 
L 478.010532 65.784052 
L 481.638134 75.621482 
L 485.265736 86.085858 
L 486.716777 90.007666 
L 501.227185 132.030736 
L 504.854787 143.577351 
L 507.756868 153.496115 
L 510.65895 164.142964 
L 514.286552 178.359189 
L 520.090715 202.334993 
L 526.620399 229.20873 
L 530.973521 246.168271 
L 534.601123 259.400147 
L 538.228725 271.700161 
L 541.856327 283.069864 
L 545.483929 293.599271 
L 549.111531 303.429347 
L 553.464654 314.512398 
L 558.543296 326.728343 
L 563.621939 338.385567 
L 569.426102 351.151667 
L 574.504745 361.841921 
L 579.583388 372.03135 
L 583.93651 380.314617 
L 588.289633 388.148217 
L 592.642755 395.529072 
L 596.995878 402.494082 
L 602.07452 410.2066 
L 615.859408 430.748709 
L 615.859408 430.748709 
" clip-path="url(#pf0d66ddb31)" style="fill: none; stroke: #0ea5e9; stroke-width: 2.5; stroke-linecap: square"/>
   </g>
   <g id="line2d_156">
    <defs>
     <path id="m7e9c2cba41" d="M 0 4 
C 1.060812 4 2.078319 3.578535 2.828427 2.828427 
C 3.578535 2.078319 4 1.060812 4 0 
C 4 -1.060812 3.578535 -2.078319 2.828427 -2.828427 
C 2.078319 -3.578535 1.060812 -4 0 -4 
C -1.060812 -4 -2.078319 -3.578535 -2.828427 -2.828427 
C -3.578535 -2.078319 -4 -1.060812 -4 0 
C -4 1.060812 -3.578535 2.078319 -2.828427 2.828427 
C -2.078319 3.578535 -1.060812 4 0 4 
z
" style="stroke: #4f46e5"/>
    </defs>
    <g clip-path="url(#pf0d66ddb31)"/>
   </g>
   <g id="line2d_157">
    <g clip-path="url(#pf0d66ddb31)">
     <use xlink:href="#m7e9c2cba41" x="398.203288" y="24.146719" style="fill: #4f46e5; stroke: #4f46e5"/>
    </g>
   </g>
   <g id="patch_3">
    <path d="M 57.859408 431.758066 
L 57.859408 99.118066 
" style="fill: none; stroke: #000000; stroke-width: 0.8; stroke-linejoin: miter; stroke-linecap: square"/>
   </g>
   <g id="patch_4">
    <path d="M 615.859408 431.758066 
L 615.859408 99.118066 
" style="fill: none; stroke: #000000; stroke-width: 0.8; stroke-linejoin: miter; stroke-linecap: square"/>
   </g>
   <g id="patch_5">
    <path d="M 57.859408 431.758066 
L 615.859408 431.758066 
" style="fill: none; stroke: #000000; stroke-width: 0.8; stroke-linejoin: miter; stroke-linecap: square"/>
   </g>
   <g id="patch_6">
    <path d="M 57.859408 99.118066 
L 615.859408 99.118066 
" style="fill: none; stroke: #000000; stroke-width: 0.8; stroke-linejoin: miter; stroke-linecap: square"/>
   </g>
   <g id="text_20">
    <!-- CMRR (Low Freq) = 191.4 dB -->
    <g style="fill: #0f172a" transform="translate(7.2 44.145974) scale(0.09 -0.09)">
     <defs>
      <path id="Arial-BoldMT-43" d="M 3397 1684 
L 4294 1400 
Q 4088 650 3608 286 
Q 3128 -78 2391 -78 
Q 1478 -78 890 545 
Q 303 1169 303 2250 
Q 303 3394 893 4026 
Q 1484 4659 2447 4659 
Q 3288 4659 3813 4163 
Q 4125 3869 4281 3319 
L 3366 3100 
Q 3284 3456 3026 3662 
Q 2769 3869 2400 3869 
Q 1891 3869 1573 3503 
Q 1256 3138 1256 2319 
Q 1256 1450 1568 1081 
Q 1881 713 2381 713 
Q 2750 713 3015 947 
Q 3281 1181 3397 1684 
z
" transform="scale(0.015625)"/>
      <path id="Arial-BoldMT-4d" d="M 453 0 
L 453 4581 
L 1838 4581 
L 2669 1456 
L 3491 4581 
L 4878 4581 
L 4878 0 
L 4019 0 
L 4019 3606 
L 3109 0 
L 2219 0 
L 1313 3606 
L 1313 0 
L 453 0 
z
" transform="scale(0.015625)"/>
      <path id="Arial-BoldMT-52" d="M 469 0 
L 469 4581 
L 2416 4581 
Q 3150 4581 3483 4457 
Q 3816 4334 4016 4018 
Q 4216 3703 4216 3297 
Q 4216 2781 3912 2445 
Q 3609 2109 3006 2022 
Q 3306 1847 3501 1637 
Q 3697 1428 4028 894 
L 4588 0 
L 3481 0 
L 2813 997 
Q 2456 1531 2325 1670 
Q 2194 1809 2047 1861 
Q 1900 1913 1581 1913 
L 1394 1913 
L 1394 0 
L 469 0 
z
M 1394 2644 
L 2078 2644 
Q 2744 2644 2909 2700 
Q 3075 2756 3169 2893 
Q 3263 3031 3263 3238 
Q 3263 3469 3139 3611 
Q 3016 3753 2791 3791 
Q 2678 3806 2116 3806 
L 1394 3806 
L 1394 2644 
z
" transform="scale(0.015625)"/>
      <path id="Arial-BoldMT-20" transform="scale(0.015625)"/>
      <path id="Arial-BoldMT-28" d="M 1916 -1347 
L 1313 -1347 
Q 834 -625 584 153 
Q 334 931 334 1659 
Q 334 2563 644 3369 
Q 913 4069 1325 4659 
L 1925 4659 
Q 1497 3713 1336 3048 
Q 1175 2384 1175 1641 
Q 1175 1128 1270 590 
Q 1366 53 1531 -431 
Q 1641 -750 1916 -1347 
z
" transform="scale(0.015625)"/>
      <path id="Arial-BoldMT-4c" d="M 491 0 
L 491 4544 
L 1416 4544 
L 1416 772 
L 3716 772 
L 3716 0 
L 491 0 
z
" transform="scale(0.015625)"/>
      <path id="Arial-BoldMT-6f" d="M 256 1706 
Q 256 2144 472 2553 
Q 688 2963 1083 3178 
Q 1478 3394 1966 3394 
Q 2719 3394 3200 2905 
Q 3681 2416 3681 1669 
Q 3681 916 3195 420 
Q 2709 -75 1972 -75 
Q 1516 -75 1102 131 
Q 688 338 472 736 
Q 256 1134 256 1706 
z
M 1156 1659 
Q 1156 1166 1390 903 
Q 1625 641 1969 641 
Q 2313 641 2545 903 
Q 2778 1166 2778 1666 
Q 2778 2153 2545 2415 
Q 2313 2678 1969 2678 
Q 1625 2678 1390 2415 
Q 1156 2153 1156 1659 
z
" transform="scale(0.015625)"/>
      <path id="Arial-BoldMT-77" d="M 1078 0 
L 28 3319 
L 881 3319 
L 1503 1144 
L 2075 3319 
L 2922 3319 
L 3475 1144 
L 4109 3319 
L 4975 3319 
L 3909 0 
L 3066 0 
L 2494 2134 
L 1931 0 
L 1078 0 
z
" transform="scale(0.015625)"/>
      <path id="Arial-BoldMT-46" d="M 472 0 
L 472 4581 
L 3613 4581 
L 3613 3806 
L 1397 3806 
L 1397 2722 
L 3309 2722 
L 3309 1947 
L 1397 1947 
L 1397 0 
L 472 0 
z
" transform="scale(0.015625)"/>
      <path id="Arial-BoldMT-72" d="M 1300 0 
L 422 0 
L 422 3319 
L 1238 3319 
L 1238 2847 
Q 1447 3181 1614 3287 
Q 1781 3394 1994 3394 
Q 2294 3394 2572 3228 
L 2300 2463 
Q 2078 2606 1888 2606 
Q 1703 2606 1575 2504 
Q 1447 2403 1373 2137 
Q 1300 1872 1300 1025 
L 1300 0 
z
" transform="scale(0.015625)"/>
      <path id="Arial-BoldMT-65" d="M 2381 1056 
L 3256 909 
Q 3088 428 2723 176 
Q 2359 -75 1813 -75 
Q 947 -75 531 491 
Q 203 944 203 1634 
Q 203 2459 634 2926 
Q 1066 3394 1725 3394 
Q 2466 3394 2894 2905 
Q 3322 2416 3303 1406 
L 1103 1406 
Q 1113 1016 1316 798 
Q 1519 581 1822 581 
Q 2028 581 2168 693 
Q 2309 806 2381 1056 
z
M 2431 1944 
Q 2422 2325 2234 2523 
Q 2047 2722 1778 2722 
Q 1491 2722 1303 2513 
Q 1116 2303 1119 1944 
L 2431 1944 
z
" transform="scale(0.015625)"/>
      <path id="Arial-BoldMT-71" d="M 2628 -1263 
L 2628 406 
Q 2456 184 2200 54 
Q 1944 -75 1647 -75 
Q 1081 -75 716 350 
Q 284 847 284 1697 
Q 284 2497 689 2945 
Q 1094 3394 1694 3394 
Q 2025 3394 2267 3253 
Q 2509 3113 2697 2828 
L 2697 3319 
L 3506 3319 
L 3506 -1263 
L 2628 -1263 
z
M 2656 1700 
Q 2656 2209 2448 2457 
Q 2241 2706 1928 2706 
Q 1609 2706 1395 2453 
Q 1181 2200 1181 1650 
Q 1181 1103 1387 861 
Q 1594 619 1897 619 
Q 2200 619 2428 891 
Q 2656 1163 2656 1700 
z
" transform="scale(0.015625)"/>
      <path id="Arial-BoldMT-29" d="M 216 -1347 
Q 475 -791 581 -494 
Q 688 -197 778 190 
Q 869 578 912 926 
Q 956 1275 956 1641 
Q 956 2384 797 3048 
Q 638 3713 209 4659 
L 806 4659 
Q 1278 3988 1539 3234 
Q 1800 2481 1800 1706 
Q 1800 1053 1594 306 
Q 1359 -531 822 -1347 
L 216 -1347 
z
" transform="scale(0.015625)"/>
      <path id="Arial-BoldMT-3d" d="M 266 2550 
L 266 3356 
L 3469 3356 
L 3469 2550 
L 266 2550 
z
M 266 1163 
L 266 1972 
L 3469 1972 
L 3469 1163 
L 266 1163 
z
" transform="scale(0.015625)"/>
      <path id="Arial-BoldMT-31" d="M 2519 0 
L 1641 0 
L 1641 3309 
Q 1159 2859 506 2644 
L 506 3441 
Q 850 3553 1253 3867 
Q 1656 4181 1806 4600 
L 2519 4600 
L 2519 0 
z
" transform="scale(0.015625)"/>
      <path id="Arial-BoldMT-39" d="M 291 1059 
L 1141 1153 
Q 1172 894 1303 769 
Q 1434 644 1650 644 
Q 1922 644 2112 894 
Q 2303 1144 2356 1931 
Q 2025 1547 1528 1547 
Q 988 1547 595 1964 
Q 203 2381 203 3050 
Q 203 3747 617 4173 
Q 1031 4600 1672 4600 
Q 2369 4600 2816 4061 
Q 3263 3522 3263 2288 
Q 3263 1031 2797 475 
Q 2331 -81 1584 -81 
Q 1047 -81 715 205 
Q 384 491 291 1059 
z
M 2278 2978 
Q 2278 3403 2083 3637 
Q 1888 3872 1631 3872 
Q 1388 3872 1227 3680 
Q 1066 3488 1066 3050 
Q 1066 2606 1241 2398 
Q 1416 2191 1678 2191 
Q 1931 2191 2104 2391 
Q 2278 2591 2278 2978 
z
" transform="scale(0.015625)"/>
      <path id="Arial-BoldMT-2e" d="M 459 0 
L 459 878 
L 1338 878 
L 1338 0 
L 459 0 
z
" transform="scale(0.015625)"/>
      <path id="Arial-BoldMT-34" d="M 1994 0 
L 1994 922 
L 119 922 
L 119 1691 
L 2106 4600 
L 2844 4600 
L 2844 1694 
L 3413 1694 
L 3413 922 
L 2844 922 
L 2844 0 
L 1994 0 
z
M 1994 1694 
L 1994 3259 
L 941 1694 
L 1994 1694 
z
" transform="scale(0.015625)"/>
      <path id="Arial-BoldMT-64" d="M 3503 0 
L 2688 0 
L 2688 488 
Q 2484 203 2207 64 
Q 1931 -75 1650 -75 
Q 1078 -75 670 386 
Q 263 847 263 1672 
Q 263 2516 659 2955 
Q 1056 3394 1663 3394 
Q 2219 3394 2625 2931 
L 2625 4581 
L 3503 4581 
L 3503 0 
z
M 1159 1731 
Q 1159 1200 1306 963 
Q 1519 619 1900 619 
Q 2203 619 2415 876 
Q 2628 1134 2628 1647 
Q 2628 2219 2422 2470 
Q 2216 2722 1894 2722 
Q 1581 2722 1370 2473 
Q 1159 2225 1159 1731 
z
" transform="scale(0.015625)"/>
      <path id="Arial-BoldMT-42" d="M 469 4581 
L 2300 4581 
Q 2844 4581 3111 4536 
Q 3378 4491 3589 4347 
Q 3800 4203 3940 3964 
Q 4081 3725 4081 3428 
Q 4081 3106 3907 2837 
Q 3734 2569 3438 2434 
Q 3856 2313 4081 2019 
Q 4306 1725 4306 1328 
Q 4306 1016 4161 720 
Q 4016 425 3764 248 
Q 3513 72 3144 31 
Q 2913 6 2028 0 
L 469 0 
L 469 4581 
z
M 1394 3819 
L 1394 2759 
L 2000 2759 
Q 2541 2759 2672 2775 
Q 2909 2803 3045 2939 
Q 3181 3075 3181 3297 
Q 3181 3509 3064 3642 
Q 2947 3775 2716 3803 
Q 2578 3819 1925 3819 
L 1394 3819 
z
M 1394 1997 
L 1394 772 
L 2250 772 
Q 2750 772 2884 800 
Q 3091 838 3220 983 
Q 3350 1128 3350 1372 
Q 3350 1578 3250 1722 
Q 3150 1866 2961 1931 
Q 2772 1997 2141 1997 
L 1394 1997 
z
" transform="scale(0.015625)"/>
     </defs>
     <use xlink:href="#Arial-BoldMT-43"/>
     <use xlink:href="#Arial-BoldMT-4d" transform="translate(72.216797 0)"/>
     <use xlink:href="#Arial-BoldMT-52" transform="translate(155.517578 0)"/>
     <use xlink:href="#Arial-BoldMT-52" transform="translate(227.734375 0)"/>
     <use xlink:href="#Arial-BoldMT-20" transform="translate(299.951172 0)"/>
     <use xlink:href="#Arial-BoldMT-28" transform="translate(327.734375 0)"/>
     <use xlink:href="#Arial-BoldMT-4c" transform="translate(361.035156 0)"/>
     <use xlink:href="#Arial-BoldMT-6f" transform="translate(422.119141 0)"/>
     <use xlink:href="#Arial-BoldMT-77" transform="translate(483.203125 0)"/>
     <use xlink:href="#Arial-BoldMT-20" transform="translate(560.986328 0)"/>
     <use xlink:href="#Arial-BoldMT-46" transform="translate(588.769531 0)"/>
     <use xlink:href="#Arial-BoldMT-72" transform="translate(649.853516 0)"/>
     <use xlink:href="#Arial-BoldMT-65" transform="translate(688.769531 0)"/>
     <use xlink:href="#Arial-BoldMT-71" transform="translate(744.384766 0)"/>
     <use xlink:href="#Arial-BoldMT-29" transform="translate(805.46875 0)"/>
     <use xlink:href="#Arial-BoldMT-20" transform="translate(838.769531 0)"/>
     <use xlink:href="#Arial-BoldMT-3d" transform="translate(866.552734 0)"/>
     <use xlink:href="#Arial-BoldMT-20" transform="translate(924.951172 0)"/>
     <use xlink:href="#Arial-BoldMT-31" transform="translate(952.734375 0)"/>
     <use xlink:href="#Arial-BoldMT-39" transform="translate(1008.349609 0)"/>
     <use xlink:href="#Arial-BoldMT-31" transform="translate(1063.964844 0)"/>
     <use xlink:href="#Arial-BoldMT-2e" transform="translate(1119.580078 0)"/>
     <use xlink:href="#Arial-BoldMT-34" transform="translate(1147.363281 0)"/>
     <use xlink:href="#Arial-BoldMT-20" transform="translate(1202.978516 0)"/>
     <use xlink:href="#Arial-BoldMT-64" transform="translate(1230.761719 0)"/>
     <use xlink:href="#Arial-BoldMT-42" transform="translate(1291.845703 0)"/>
    </g>
   </g>
   <g id="text_21">
    <!-- CMRR (500 kHz) = 196.1 dB -->
    <g style="fill: #0f172a" transform="translate(303.908241 13.751719) scale(0.09 -0.09)">
     <defs>
      <path id="Arial-BoldMT-35" d="M 284 1178 
L 1159 1269 
Q 1197 972 1381 798 
Q 1566 625 1806 625 
Q 2081 625 2272 848 
Q 2463 1072 2463 1522 
Q 2463 1944 2273 2155 
Q 2084 2366 1781 2366 
Q 1403 2366 1103 2031 
L 391 2134 
L 841 4519 
L 3163 4519 
L 3163 3697 
L 1506 3697 
L 1369 2919 
Q 1663 3066 1969 3066 
Q 2553 3066 2959 2641 
Q 3366 2216 3366 1538 
Q 3366 972 3038 528 
Q 2591 -78 1797 -78 
Q 1163 -78 763 262 
Q 363 603 284 1178 
z
" transform="scale(0.015625)"/>
      <path id="Arial-BoldMT-30" d="M 1756 4600 
Q 2422 4600 2797 4125 
Q 3244 3563 3244 2259 
Q 3244 959 2794 391 
Q 2422 -78 1756 -78 
Q 1088 -78 678 436 
Q 269 950 269 2269 
Q 269 3563 719 4131 
Q 1091 4600 1756 4600 
z
M 1756 3872 
Q 1597 3872 1472 3770 
Q 1347 3669 1278 3406 
Q 1188 3066 1188 2259 
Q 1188 1453 1269 1151 
Q 1350 850 1473 750 
Q 1597 650 1756 650 
Q 1916 650 2041 751 
Q 2166 853 2234 1116 
Q 2325 1453 2325 2259 
Q 2325 3066 2244 3367 
Q 2163 3669 2039 3770 
Q 1916 3872 1756 3872 
z
" transform="scale(0.015625)"/>
      <path id="Arial-BoldMT-6b" d="M 428 0 
L 428 4581 
L 1306 4581 
L 1306 2150 
L 2334 3319 
L 3416 3319 
L 2281 2106 
L 3497 0 
L 2550 0 
L 1716 1491 
L 1306 1063 
L 1306 0 
L 428 0 
z
" transform="scale(0.015625)"/>
      <path id="Arial-BoldMT-48" d="M 469 0 
L 469 4581 
L 1394 4581 
L 1394 2778 
L 3206 2778 
L 3206 4581 
L 4131 4581 
L 4131 0 
L 3206 0 
L 3206 2003 
L 1394 2003 
L 1394 0 
L 469 0 
z
" transform="scale(0.015625)"/>
      <path id="Arial-BoldMT-7a" d="M 106 0 
L 106 684 
L 1350 2113 
Q 1656 2463 1803 2609 
Q 1650 2600 1400 2597 
L 228 2591 
L 228 3319 
L 2972 3319 
L 2972 2697 
L 1703 1234 
L 1256 750 
Q 1622 772 1709 772 
L 3069 772 
L 3069 0 
L 106 0 
z
" transform="scale(0.015625)"/>
      <path id="Arial-BoldMT-36" d="M 3247 3459 
L 2397 3366 
Q 2366 3628 2234 3753 
Q 2103 3878 1894 3878 
Q 1616 3878 1423 3628 
Q 1231 3378 1181 2588 
Q 1509 2975 1997 2975 
Q 2547 2975 2939 2556 
Q 3331 2138 3331 1475 
Q 3331 772 2918 347 
Q 2506 -78 1859 -78 
Q 1166 -78 719 461 
Q 272 1000 272 2228 
Q 272 3488 737 4044 
Q 1203 4600 1947 4600 
Q 2469 4600 2811 4308 
Q 3153 4016 3247 3459 
z
M 1256 1544 
Q 1256 1116 1453 883 
Q 1650 650 1903 650 
Q 2147 650 2309 840 
Q 2472 1031 2472 1466 
Q 2472 1913 2297 2120 
Q 2122 2328 1859 2328 
Q 1606 2328 1431 2129 
Q 1256 1931 1256 1544 
z
" transform="scale(0.015625)"/>
     </defs>
     <use xlink:href="#Arial-BoldMT-43"/>
     <use xlink:href="#Arial-BoldMT-4d" transform="translate(72.216797 0)"/>
     <use xlink:href="#Arial-BoldMT-52" transform="translate(155.517578 0)"/>
     <use xlink:href="#Arial-BoldMT-52" transform="translate(227.734375 0)"/>
     <use xlink:href="#Arial-BoldMT-20" transform="translate(299.951172 0)"/>
     <use xlink:href="#Arial-BoldMT-28" transform="translate(327.734375 0)"/>
     <use xlink:href="#Arial-BoldMT-35" transform="translate(361.035156 0)"/>
     <use xlink:href="#Arial-BoldMT-30" transform="translate(416.650391 0)"/>
     <use xlink:href="#Arial-BoldMT-30" transform="translate(472.265625 0)"/>
     <use xlink:href="#Arial-BoldMT-20" transform="translate(527.880859 0)"/>
     <use xlink:href="#Arial-BoldMT-6b" transform="translate(555.664062 0)"/>
     <use xlink:href="#Arial-BoldMT-48" transform="translate(611.279297 0)"/>
     <use xlink:href="#Arial-BoldMT-7a" transform="translate(683.496094 0)"/>
     <use xlink:href="#Arial-BoldMT-29" transform="translate(733.496094 0)"/>
     <use xlink:href="#Arial-BoldMT-20" transform="translate(766.796875 0)"/>
     <use xlink:href="#Arial-BoldMT-3d" transform="translate(794.580078 0)"/>
     <use xlink:href="#Arial-BoldMT-20" transform="translate(852.978516 0)"/>
     <use xlink:href="#Arial-BoldMT-31" transform="translate(880.761719 0)"/>
     <use xlink:href="#Arial-BoldMT-39" transform="translate(936.376953 0)"/>
     <use xlink:href="#Arial-BoldMT-36" transform="translate(991.992188 0)"/>
     <use xlink:href="#Arial-BoldMT-2e" transform="translate(1047.607422 0)"/>
     <use xlink:href="#Arial-BoldMT-31" transform="translate(1075.390625 0)"/>
     <use xlink:href="#Arial-BoldMT-20" transform="translate(1131.005859 0)"/>
     <use xlink:href="#Arial-BoldMT-64" transform="translate(1158.789062 0)"/>
     <use xlink:href="#Arial-BoldMT-42" transform="translate(1219.873047 0)"/>
    </g>
   </g>
   <g id="text_22">
    <!-- Common-Mode Rejection Ratio (CMRR) vs Frequency -->
    <g style="fill: #1e293b" transform="translate(158.356127 84.118066) scale(0.14 -0.14)">
     <defs>
      <path id="Arial-BoldMT-6d" d="M 394 3319 
L 1203 3319 
L 1203 2866 
Q 1638 3394 2238 3394 
Q 2556 3394 2790 3262 
Q 3025 3131 3175 2866 
Q 3394 3131 3647 3262 
Q 3900 3394 4188 3394 
Q 4553 3394 4806 3245 
Q 5059 3097 5184 2809 
Q 5275 2597 5275 2122 
L 5275 0 
L 4397 0 
L 4397 1897 
Q 4397 2391 4306 2534 
Q 4184 2722 3931 2722 
Q 3747 2722 3584 2609 
Q 3422 2497 3350 2280 
Q 3278 2063 3278 1594 
L 3278 0 
L 2400 0 
L 2400 1819 
Q 2400 2303 2353 2443 
Q 2306 2584 2207 2653 
Q 2109 2722 1941 2722 
Q 1738 2722 1575 2612 
Q 1413 2503 1342 2297 
Q 1272 2091 1272 1613 
L 1272 0 
L 394 0 
L 394 3319 
z
" transform="scale(0.015625)"/>
      <path id="Arial-BoldMT-6e" d="M 3478 0 
L 2600 0 
L 2600 1694 
Q 2600 2231 2544 2389 
Q 2488 2547 2361 2634 
Q 2234 2722 2056 2722 
Q 1828 2722 1647 2597 
Q 1466 2472 1398 2265 
Q 1331 2059 1331 1503 
L 1331 0 
L 453 0 
L 453 3319 
L 1269 3319 
L 1269 2831 
Q 1703 3394 2363 3394 
Q 2653 3394 2893 3289 
Q 3134 3184 3257 3021 
Q 3381 2859 3429 2653 
Q 3478 2447 3478 2063 
L 3478 0 
z
" transform="scale(0.015625)"/>
      <path id="Arial-BoldMT-2d" d="M 359 1222 
L 359 2100 
L 2084 2100 
L 2084 1222 
L 359 1222 
z
" transform="scale(0.015625)"/>
      <path id="Arial-BoldMT-6a" d="M 441 3769 
L 441 4581 
L 1319 4581 
L 1319 3769 
L 441 3769 
z
M 1319 3319 
L 1319 103 
Q 1319 -531 1236 -792 
Q 1153 -1053 917 -1200 
Q 681 -1347 316 -1347 
Q 184 -1347 32 -1323 
Q -119 -1300 -294 -1253 
L -141 -503 
Q -78 -516 -23 -523 
Q 31 -531 78 -531 
Q 213 -531 298 -473 
Q 384 -416 412 -334 
Q 441 -253 441 153 
L 441 3319 
L 1319 3319 
z
" transform="scale(0.015625)"/>
      <path id="Arial-BoldMT-63" d="M 3353 2338 
L 2488 2181 
Q 2444 2441 2289 2572 
Q 2134 2703 1888 2703 
Q 1559 2703 1364 2476 
Q 1169 2250 1169 1719 
Q 1169 1128 1367 884 
Q 1566 641 1900 641 
Q 2150 641 2309 783 
Q 2469 925 2534 1272 
L 3397 1125 
Q 3263 531 2881 228 
Q 2500 -75 1859 -75 
Q 1131 -75 698 384 
Q 266 844 266 1656 
Q 266 2478 700 2936 
Q 1134 3394 1875 3394 
Q 2481 3394 2839 3133 
Q 3197 2872 3353 2338 
z
" transform="scale(0.015625)"/>
      <path id="Arial-BoldMT-74" d="M 1981 3319 
L 1981 2619 
L 1381 2619 
L 1381 1281 
Q 1381 875 1398 808 
Q 1416 741 1477 697 
Q 1538 653 1625 653 
Q 1747 653 1978 738 
L 2053 56 
Q 1747 -75 1359 -75 
Q 1122 -75 931 4 
Q 741 84 652 211 
Q 563 338 528 553 
Q 500 706 500 1172 
L 500 2619 
L 97 2619 
L 97 3319 
L 500 3319 
L 500 3978 
L 1381 4491 
L 1381 3319 
L 1981 3319 
z
" transform="scale(0.015625)"/>
      <path id="Arial-BoldMT-69" d="M 459 3769 
L 459 4581 
L 1338 4581 
L 1338 3769 
L 459 3769 
z
M 459 0 
L 459 3319 
L 1338 3319 
L 1338 0 
L 459 0 
z
" transform="scale(0.015625)"/>
      <path id="Arial-BoldMT-61" d="M 1116 2306 
L 319 2450 
Q 453 2931 781 3162 
Q 1109 3394 1756 3394 
Q 2344 3394 2631 3255 
Q 2919 3116 3036 2902 
Q 3153 2688 3153 2116 
L 3144 1091 
Q 3144 653 3186 445 
Q 3228 238 3344 0 
L 2475 0 
Q 2441 88 2391 259 
Q 2369 338 2359 363 
Q 2134 144 1878 34 
Q 1622 -75 1331 -75 
Q 819 -75 523 203 
Q 228 481 228 906 
Q 228 1188 362 1408 
Q 497 1628 739 1745 
Q 981 1863 1438 1950 
Q 2053 2066 2291 2166 
L 2291 2253 
Q 2291 2506 2166 2614 
Q 2041 2722 1694 2722 
Q 1459 2722 1328 2630 
Q 1197 2538 1116 2306 
z
M 2291 1594 
Q 2122 1538 1756 1459 
Q 1391 1381 1278 1306 
Q 1106 1184 1106 997 
Q 1106 813 1243 678 
Q 1381 544 1594 544 
Q 1831 544 2047 700 
Q 2206 819 2256 991 
Q 2291 1103 2291 1419 
L 2291 1594 
z
" transform="scale(0.015625)"/>
      <path id="Arial-BoldMT-76" d="M 1372 0 
L 34 3319 
L 956 3319 
L 1581 1625 
L 1763 1059 
Q 1834 1275 1853 1344 
Q 1897 1484 1947 1625 
L 2578 3319 
L 3481 3319 
L 2163 0 
L 1372 0 
z
" transform="scale(0.015625)"/>
      <path id="Arial-BoldMT-73" d="M 150 947 
L 1031 1081 
Q 1088 825 1259 692 
Q 1431 559 1741 559 
Q 2081 559 2253 684 
Q 2369 772 2369 919 
Q 2369 1019 2306 1084 
Q 2241 1147 2013 1200 
Q 950 1434 666 1628 
Q 272 1897 272 2375 
Q 272 2806 612 3100 
Q 953 3394 1669 3394 
Q 2350 3394 2681 3172 
Q 3013 2950 3138 2516 
L 2309 2363 
Q 2256 2556 2107 2659 
Q 1959 2763 1684 2763 
Q 1338 2763 1188 2666 
Q 1088 2597 1088 2488 
Q 1088 2394 1175 2328 
Q 1294 2241 1995 2081 
Q 2697 1922 2975 1691 
Q 3250 1456 3250 1038 
Q 3250 581 2869 253 
Q 2488 -75 1741 -75 
Q 1063 -75 667 200 
Q 272 475 150 947 
z
" transform="scale(0.015625)"/>
      <path id="Arial-BoldMT-75" d="M 2644 0 
L 2644 497 
Q 2463 231 2167 78 
Q 1872 -75 1544 -75 
Q 1209 -75 943 72 
Q 678 219 559 484 
Q 441 750 441 1219 
L 441 3319 
L 1319 3319 
L 1319 1794 
Q 1319 1094 1367 936 
Q 1416 778 1544 686 
Q 1672 594 1869 594 
Q 2094 594 2272 717 
Q 2450 841 2515 1023 
Q 2581 1206 2581 1919 
L 2581 3319 
L 3459 3319 
L 3459 0 
L 2644 0 
z
" transform="scale(0.015625)"/>
      <path id="Arial-BoldMT-79" d="M 44 3319 
L 978 3319 
L 1772 963 
L 2547 3319 
L 3456 3319 
L 2284 125 
L 2075 -453 
Q 1959 -744 1854 -897 
Q 1750 -1050 1614 -1145 
Q 1478 -1241 1279 -1294 
Q 1081 -1347 831 -1347 
Q 578 -1347 334 -1294 
L 256 -606 
Q 463 -647 628 -647 
Q 934 -647 1081 -467 
Q 1228 -288 1306 -9 
L 44 3319 
z
" transform="scale(0.015625)"/>
     </defs>
     <use xlink:href="#Arial-BoldMT-43"/>
     <use xlink:href="#Arial-BoldMT-6f" transform="translate(72.216797 0)"/>
     <use xlink:href="#Arial-BoldMT-6d" transform="translate(133.300781 0)"/>
     <use xlink:href="#Arial-BoldMT-6d" transform="translate(222.216797 0)"/>
     <use xlink:href="#Arial-BoldMT-6f" transform="translate(311.132812 0)"/>
     <use xlink:href="#Arial-BoldMT-6e" transform="translate(372.216797 0)"/>
     <use xlink:href="#Arial-BoldMT-2d" transform="translate(433.300781 0)"/>
     <use xlink:href="#Arial-BoldMT-4d" transform="translate(466.601562 0)"/>
     <use xlink:href="#Arial-BoldMT-6f" transform="translate(549.902344 0)"/>
     <use xlink:href="#Arial-BoldMT-64" transform="translate(610.986328 0)"/>
     <use xlink:href="#Arial-BoldMT-65" transform="translate(672.070312 0)"/>
     <use xlink:href="#Arial-BoldMT-20" transform="translate(727.685547 0)"/>
     <use xlink:href="#Arial-BoldMT-52" transform="translate(755.46875 0)"/>
     <use xlink:href="#Arial-BoldMT-65" transform="translate(827.685547 0)"/>
     <use xlink:href="#Arial-BoldMT-6a" transform="translate(883.300781 0)"/>
     <use xlink:href="#Arial-BoldMT-65" transform="translate(911.083984 0)"/>
     <use xlink:href="#Arial-BoldMT-63" transform="translate(966.699219 0)"/>
     <use xlink:href="#Arial-BoldMT-74" transform="translate(1022.314453 0)"/>
     <use xlink:href="#Arial-BoldMT-69" transform="translate(1055.615234 0)"/>
     <use xlink:href="#Arial-BoldMT-6f" transform="translate(1083.398438 0)"/>
     <use xlink:href="#Arial-BoldMT-6e" transform="translate(1144.482422 0)"/>
     <use xlink:href="#Arial-BoldMT-20" transform="translate(1205.566406 0)"/>
     <use xlink:href="#Arial-BoldMT-52" transform="translate(1233.349609 0)"/>
     <use xlink:href="#Arial-BoldMT-61" transform="translate(1305.566406 0)"/>
     <use xlink:href="#Arial-BoldMT-74" transform="translate(1361.181641 0)"/>
     <use xlink:href="#Arial-BoldMT-69" transform="translate(1394.482422 0)"/>
     <use xlink:href="#Arial-BoldMT-6f" transform="translate(1422.265625 0)"/>
     <use xlink:href="#Arial-BoldMT-20" transform="translate(1483.349609 0)"/>
     <use xlink:href="#Arial-BoldMT-28" transform="translate(1511.132812 0)"/>
     <use xlink:href="#Arial-BoldMT-43" transform="translate(1544.433594 0)"/>
     <use xlink:href="#Arial-BoldMT-4d" transform="translate(1616.650391 0)"/>
     <use xlink:href="#Arial-BoldMT-52" transform="translate(1699.951172 0)"/>
     <use xlink:href="#Arial-BoldMT-52" transform="translate(1772.167969 0)"/>
     <use xlink:href="#Arial-BoldMT-29" transform="translate(1844.384766 0)"/>
     <use xlink:href="#Arial-BoldMT-20" transform="translate(1877.685547 0)"/>
     <use xlink:href="#Arial-BoldMT-76" transform="translate(1905.46875 0)"/>
     <use xlink:href="#Arial-BoldMT-73" transform="translate(1961.083984 0)"/>
     <use xlink:href="#Arial-BoldMT-20" transform="translate(2016.699219 0)"/>
     <use xlink:href="#Arial-BoldMT-46" transform="translate(2044.482422 0)"/>
     <use xlink:href="#Arial-BoldMT-72" transform="translate(2105.566406 0)"/>
     <use xlink:href="#Arial-BoldMT-65" transform="translate(2144.482422 0)"/>
     <use xlink:href="#Arial-BoldMT-71" transform="translate(2200.097656 0)"/>
     <use xlink:href="#Arial-BoldMT-75" transform="translate(2261.181641 0)"/>
     <use xlink:href="#Arial-BoldMT-65" transform="translate(2322.265625 0)"/>
     <use xlink:href="#Arial-BoldMT-6e" transform="translate(2377.880859 0)"/>
     <use xlink:href="#Arial-BoldMT-63" transform="translate(2438.964844 0)"/>
     <use xlink:href="#Arial-BoldMT-79" transform="translate(2494.580078 0)"/>
    </g>
   </g>
  </g>
 </g>
 <defs>
  <clipPath id="pf0d66ddb31">
   <rect x="57.859408" y="99.118066" width="558" height="332.64"/>
  </clipPath>
 </defs>
</svg>
